<?xml version="1.0" encoding="utf-8"?>
<!DOCTYPE svg PUBLIC "-//W3C//DTD SVG 1.1//EN" "http://www.w3.org/Graphics/SVG/1.1/DTD/svg11.dtd">
<svg version="1.1" id="Layer_1" xmlns="http://www.w3.org/2000/svg" xmlns:xlink="http://www.w3.org/1999/xlink" x="0px" y="0px"
	 viewBox="0 0 1251 1280" enable-background="new 0 0 1251 1280" xml:space="preserve">
<g>
	<path fill="#FFFFFF" stroke="#FFFFFF" stroke-width="0.594" d="M833.63,542.07c-0.14-0.56-0.41-1.69-0.55-2.26
		c0.45,0.55,1.37,1.64,1.82,2.19c6.36-1.21,12.69,1.22,19.0699,1.2c5.69-0.08,11.41,0.23,17.07-0.45
		c8.29-0.89,16.66-0.28,24.94-1.22c10.97-0.83,22-0.17,32.96-1.16c12.01-0.5,24.05-0.57,36.08-0.59c6.58-0.46,12.15,3.7,18.47,4.72
		c12.52,6.68,24.55,14.38,35.35,23.6c1.35,1.14,1.16,3.07,1.64,4.63c1.4,7.36,3.1,14.67,4.3101,22.07
		c-11.1301-5.36-23.78-4.62-35.7401-5.98c-14.02-0.13-28.04-0.16-42.06,0.05c-12.93,1.4-25.98,0.34-38.91,1.68
		c-15,0.36-30.09,1.01-45.03-0.67c-4.5-0.4-9.25,0.35-13.55-1.24C844.72,572.95,838.94,557.58,833.63,542.07z"/>
	<path fill="#FFFFFF" stroke="#FFFFFF" stroke-width="0.594" d="M366,609.8c5.39-0.07,10.69-1.32,16.1-1.18
		c3.47,12.43,6.48,24.99,10.15,37.37c0.92,3.02,1.92,6.47,4.91,8.11c2.85,0.79,5.58-0.75,8.13-1.83
		c25-12.16,49.31-25.98,75.54-35.41c4.23-1.33,8.56-2.97,13.08-2.62c3.78,0.54,6.92,2.89,9.91,5.11
		c-10.35,4.75-21.05,8.7401-31.73,12.69c-28.69,9.91-57.43,19.72-86.52,28.41c-8.61,2.94-17.76,1.46-26.61,0.93
		c-6.24-0.21-12.41,0.99-18.55,1.99c-31.21,5.55-62.37,11.36-93.5,17.37c-2.81,0.59-5.67,0.43-8.49,0.05
		c-6.23-13.46-13.08-26.69-21.27-39.07c3.22,2.66,6.03,5.97,10.4,6.7c-0.06-1.34-0.26-2.64-0.52-3.93
		c9.58-4.28,18.81-9.46,28.88-12.55c22.52-6.25,45.52-10.5,68.36-15.38C338.07,613.71,351.94,610.89,366,609.8z"/>
	<path fill="#FFFFFF" stroke="#FFFFFF" stroke-width="0.594" d="M1040.87,652.26c2.64-12.69,7.97-24.7,14.88-35.61
		c9.4,17.63,17.0699,36.1,24.1899,54.74c-6.3999,2.26-10.22,8.23-14.2,13.33c-6.92,9.66-12.79,20.03-18.67,30.35
		c-2.7799,4.81-6.49,8.98-10,13.25c1.03-11.41,0.6101-22.88,0.7401-34.32c-0.14-12.31,0.25-24.66-0.8601-36.93
		c0.28-1.94,0.77-3.83,1.0801-5.75C1038.96,651.63,1039.91,651.94,1040.87,652.26z"/>
	<path fill="#FFFFFF" stroke="#FFFFFF" stroke-width="0.594" d="M197.26,638.54c4.41,1.2,9.01,2,13.09,4.15
		c2.75,1.48,4.66,4.07,6.21,6.71c10.59,17.66,19.27,36.37,27.82,55.0699c5.27,13.13,10.19,26.4,15.85,39.38
		c2.52,5.21,4.82,10.53,6.69,16.01c-7.7-9.03-17.58-15.79-27.29-22.48c-26.61-17.43-54.91-32.13-83.59-45.82
		c13.09-15.43,26.04-30.98,39.17-46.38C196.91,643.39,196.77,640.78,197.26,638.54z"/>
	<path fill="#FFFFFF" stroke="#FFFFFF" stroke-width="0.594" d="M810.91,652.07c27.64-2.16,55.4-0.26,83.09-0.16
		c21.02-0.06,42,1.2401,63.02,1.28c9.34-0.14,18.64,1.07,27.99,0.93c9.78,0.07,19.75-0.06,29.18,2.96
		c5.88,1.87,11.93,3.29,18.16,2.73c-0.03,7.07,0.4301,14.13,0.88,21.19c-0.21,12.67,0.5601,25.38-0.65,38.01
		c-0.5199,10.16-0.09,20.46-2.09,30.46c-0.7-4.8199,0.39-9.9-1.5-14.52c-3.9-10.9-13.37-19.28-24.18-23.03
		c-8.45-2.01-17.21-1.04-25.81-1.5c-14.96-1.23-30-0.56-45.01-0.76c-25.14,0.2-50.32-0.44-75.44,0.7c-17.85,0.2-35.7,0.22-53.55,0.4
		c-10.35,0.13-20.72-0.28-31.05,0.47c-13.16,0.54-26.34,0.37-39.5,0.6c4.65-16.12,14-30.27,21-45.38c1.34-2.77,2.24-5.75,3.82-8.4
		c5.08-1.02,10.44,0.02,15.55-1.14C786.88,655.51,798.82,653.25,810.91,652.07z"/>
	<path fill="#FFFFFF" stroke="#FFFFFF" stroke-width="0.594" d="M567.02,679.53c5.34-0.34,10.31-2.52,15.21-4.53
		c0.28,1.52,0.3,3.23,1.41,4.46c10.4,13.39,20.47,27.06,29.43,41.47c1.23,1.66,1.31,3.77,1.14,5.77
		c-48.11,10.75-96.28,21.3-144.36,32.22c-50.79,11.7-101.66,23.1-151.93,36.89c-8.11,2.29-16.29,4.61-23.95,8.18
		c-3.58,1.57-4.68,5.67-6.31,8.89c-1.48-9.86-4.17-19.5-7.4-28.91c-3.18-9.58-6.11-19.27-10.14-28.53c4.37,0.1,8.48-1.43,12.56-2.8
		c19.6-5.47,38.94-11.85,58.57-17.24c73.51-18.52,147.19-36.33,220.8-54.4C563.71,680.54,565.23,679.53,567.02,679.53z"/>
	<path fill="#FFFFFF" stroke="#FFFFFF" stroke-width="0.594" d="M1101.48,737.87c3.28,13.44,7.48,26.64,10.63,40.11
		c1.47,6.58,3.6901,12.99,4.8,19.65c-15.4601,15-30.86,30.22-48.1901,43.08c-7.01,5.58-16,7.5-24.6799,8.61
		c-8.11,0.92-16.63,2.5-22.95,8.08c4.42-17.53,7.22-35.4301,9.04-53.44c8.75-1.7,17.11-5,25.26-8.55
		c8.67-3.68,15.71-10.16,22.5-16.5099C1089.24,767.82,1099.8199,754.16,1101.48,737.87z"/>
	<path fill="#FFFFFF" stroke="#FFFFFF" stroke-width="0.594" d="M106.8,750.79c3.09-4.12,8.52-4.93,13.3-5.34
		c5.93,0.23,11.76,1.79,17.07,4.41c12.55,5.83,23.39,14.56,34.98,22c5.09,3.35,10.64,5.88,15.99,8.76
		c18.29,9.33,36.74,19.25,51.61,33.63c6.04,6.29,12.04,12.63,17.7,19.27c6.83,7.16,12.93,15.21,21.16,20.88
		c2.16,1.7,4.94,1.72,7.56,1.7599c-0.3,3.2-0.18,6.44-0.63,9.63c-1.34,6.55-4.09,12.75-5.14,19.37c-0.76,3.31,2.3,5.72,2.46,8.9301
		c-8.38-7.05-18.91-10.61-28.74-15.09c-41.49-16.6-83.84-30.93-126.27-44.88c-14.73-5.01-29.58-9.63-44.42-14.28
		c-6.9-1.54-14.01-1.09-21.01-1.66c-1.17-2.84,0.67-5.56,1.62-8.16c3.07-6.7,6.37-13.36,10.58-19.41
		C85.12,777.15,95.99,764,106.8,750.79z"/>
	<path fill="#FFFFFF" stroke="#FFFFFF" stroke-width="0.594" d="M1023.9,781.91c1.62-3.62,2.4399-7.54,3.76-11.27
		c0.21,2.8-0.3201,5.57-0.66,8.34c-0.8,20.52-2.89,41.04-7.17,61.16l-0.76,0.5c-17.51-3.23-35.22-6.1-53.08-5.99
		c-25.32-0.91-50.66-0.45-75.97-0.02c-30.01,0.07-60.02,0.67-90.03,0.11c-10.68,0.05-21.31-1.18-31.99-0.86
		c-23.94-0.28-47.88,1.4-71.58,4.73c-23.37,3.95-46.52,9.25-69.44,15.3c-52.05,13.19-103.52,28.61-155.7,41.29
		c-56.53,13.58-113.04,27.25-169.69,40.29c-4.53,0.87-9,2.11-13.57,2.76c-1.66,0.39-3.19-0.41-4.69-0.95
		c-0.02-6.11,1.39-12.06,1.91-18.11c1.31-7.37-0.13-14.93,1.35-22.27c0.73-2.39-0.57-5.93,2.08-7.29
		c7.33-4.57,13.37-11.17,21.47-14.48c16.7-6.54,34.31-10.21,51.47-15.28c64.59-17.68,129.34-34.73,193.99-52.18
		c30.53-7.86,60.85-16.49,91.4301-24.14c1.2599,4.37,2.1899,8.93,4.29,13.01c2.82,4.45,8.27,6.04,13.17,6.84
		c5.65,4.94,13.49,4.75,20.49,5.81c8.46,0.52,17-0.04,25.29-1.84c6.6-1.21,10.91-7.36,12.58-13.47
		c1.42-5.44,2.73-10.9301,3.57-16.4901c16.87-0.09,33.76,0.14,50.6-0.95c17.32-0.43,34.66-0.01,51.96-1.05
		c23.03-0.44,46.07-0.29,69.1-1.0099c32.99-0.44,65.97,0.35,98.96,0.8c4.64,0.34,9.93-0.08,13.77,3.02
		c2.91,2.01,5.18,5.0601,8.63,6.23C1021.33,785.21,1023.2,783.57,1023.9,781.91z"/>
	<path fill="#FFFFFF" stroke="#FFFFFF" stroke-width="0.594" d="M1126.1,874.07c2.63-4.34,4.99-9.48,9.91-11.66
		c2,1.33,2.38,4.01,3.4399,6.05c4.66,11.54,10.01,22.78,14.92,34.22c0.86,2.32,2.71,4.67,1.88,7.28
		c-2.49,8.83-9.46,15.38-16.46,20.86c-12.7001,9.77-27.2201,16.83-41.98,22.9c-10.8501,3.9301-22.38,5.41-33.7201,7.1801
		c-16.9299,2.37-33.97,3.73-51.0099,4.86c-4.43-0.09-9.3,1.13-13.2-1.56c-0.71,0.49-1.41,1-2.09,1.52l-0.61,0.4901
		c1.38-7.65,4.76-14.77,5.81-22.4901c1.55-11.45,4.87-22.56,6.67-33.96c1.3701,4.85,1.9901,10.19,5.41,14.15
		c2.14,2.71,5.56,4.02,8.93,4.28c11.6801,0.93,23.21-1.93,34.39-5.01c10.87-3.45,21.75-7.01,32.11-11.81
		c6.12-2.92,12.59-5.55,17.6-10.26C1116.15,893.62,1120.83,883.51,1126.1,874.07z"/>
	<path fill="#FFFFFF" stroke="#FFFFFF" stroke-width="0.594" d="M54.66,869.21c1.69-0.09,3.51,0.02,4.83,1.25
		c7,5.27,11.72,13.37,19.82,17.22c15.22,7.4,32.21,9.62,48.24,14.62c45.05,11.88,90.35,22.82,135.38,34.79
		c5.1,1.24,8.58,5.48,13.02,7.99c-1.9,8.86-3.34,17.86-3.67,26.92c-0.92,5.95-1.11,12.07,0.01,18.02c0.74,4.99-0.24,9.96-0.96,14.89
		c-11.92-4.53-24.92-4.65-37.39-6.66c-29.73-3.27-59.45-7.57-88.32-15.6c-30.57-7.97-60.86-16.97-91.07-26.19
		c-8.29-2.2401-16.03-6.01-23.91-9.36C38.43,921.07,46.28,895.05,54.66,869.21z"/>
	<path fill="#FFFFFF" stroke="#FFFFFF" stroke-width="0.594" d="M866.01,909.16c25.62-1.59,51.33-0.65,76.98-1.28
		c16.68-0.25,33.35,0.24,50.03,0.27c3.95,0.11,8.02-0.02,11.8,1.38c-3.4,17.27-7.29,34.46-11.43,51.56
		c-0.73,4.05-5.15,5.09-8.6,5.49c-24.87,2.09-49.86,1.07-74.79,1.24c-28.28-0.09-56.57-0.02-84.85,0.4
		c-8.71,0.4901-17.4301,0.9-26.16,0.96c-6.36-0.05-12.65,1.23-19.02,1.06c-30.17,1.74-60.24,5.43-90.03,10.76
		c-72.13,13.07-143.13,31.47-214.3,48.83c-15.5,3.62-30.9,7.78-46.63,10.3201c-11.2,1.61-22.44,2.97-33.73,3.6
		c-7.35,1.4399-14.92,0.25-22.29,1.54c-12.66,0.51-25.34,0.39-38,0.38c-13.61,0.26-26.45-4.92-39.71-7.15
		c-7.37-1.51-15.74-1.12-21.61,4.15c-0.22-4.91,0.98-9.7201,1.05-14.61c-0.12-7.8201,1.6-15.5201,1.26-23.35
		c2.99,3.48,7.61,4.5,12.03,4.32c13.57-0.86,27-3.16,40.31-5.88c72.69-14.91,143.99-35.64,216.25-52.37
		c28.87-6,57.27-13.96,85.86-21.15c23.88-5.57,47.97-10.44,72.38-12.96c10.78-1.42,21.65-1.67,32.45-2.84
		c5.25-0.21,10.53-0.02,15.74-0.91c6.21-0.55,12.48-0.1,18.69-0.67c9.8-1.45,19.79-0.06,29.59-1.51
		c8.9-0.43,17.84-0.34,26.7599-0.51C839.31,908.91,852.68,909.41,866.01,909.16z"/>
	<path fill="#FFFFFF" stroke="#FFFFFF" stroke-width="0.594" d="M14.12,989.03c0.94,0.65,1.88,1.3199,2.85,1.97
		c1.69,1.58,3.67,0.52,5.18-0.67c29.64,12.44,59.58,24.17,89.48,35.98c21.44,8.0699,42.73,16.6,64.58,23.5099
		c23.12,6.8,47.02,10.76,70.95,13.2301c5.75,0.62,11.58,0.4299,17.34,0c-1.24,5.1799-1.15,10.5699-2.14,15.8099
		c-2.38,6.38-5.07,13.6901-11.88,16.51c-9.76,1.3199-19.52-0.8099-29.07-2.6801c-12.54-2.48-25.03-5.2699-37.43-8.3799
		c-14.24-3.7001-28.74-6.28-43.07-9.5701c-36.49-8.08-73.19-15.8199-108.5-28.24c-8.62-3.4-17.5-6.76-24.69-12.76
		c0.01-1.45,0.05-2.9,0.07-4.3199c-1.15-0.61-2.3-1.2001-3.44-1.8c-0.27-5.24-0.79-10.63,0.71-15.72
		C7.14,1003.94,10.84,996.54,14.12,989.03z"/>
	<path fill="#FFFFFF" stroke="#FFFFFF" stroke-width="0.594" d="M923.72,1033.91c15.3701-1.92,30.77-4.25,46.29-4.25
		c5.84-0.53,8.33,6.58,7.93,11.36c-1.09,11.51-3.1,22.95-3.59,34.52c-1.88,6.6499-5.94,13.95-13.16,15.74
		c-19.22,6.21-39.37,8.62-59.23,11.9099c-23.45,3.6001-46.9901,6.6001-70.55,9.3601c-36.0699,4.7899-72.33,8.34-108.44,12.86
		c-59.28,6.4099-118.14,16.5599-177.41,22.99c-19.82,1.97-39.7,3.38-59.56,4.8199c-5.02,0.03-10.04,0.17-15.01,0.91
		c-8.32,0.36-16.67,0.14-24.99,0.5599c-9.32,1.1201-18.74,0.4801-28.1,0.77c-38.31,0.1801-76.61,0.13-114.92-0.21
		c-8.55-0.88-17.17-0.8199-25.77-0.8101c-2.51-19.33-6.27-38.46-9.36-57.6899c7.56,4.55,16.7,4.25,25.16,5.4399
		c9.03-0.08,17.97,1.3401,27,1.1101c15.66,0.01,31.34,0.12,47-0.12c14.24-1.5,28.62-0.1801,42.86-1.7101
		c8.68-0.4099,17.4-0.1,26.05-1.11c11.95-0.12,23.82-1.36,35.76-1.63c7.78-1.15,15.68-0.52,23.45-1.72
		c18.01-0.8201,35.94-2.5,53.82-4.75c42.81-5.28,85.4-12.17,127.98-18.98c61.28-9.87,122.47-20.3101,183.78-29.97
		C881.65,1039.78,902.72,1037.03,923.72,1033.91z"/>
	<path fill="#050201" stroke="#050201" stroke-width="0.594" d="M488.69,0h14.95c-25.37,7.02-49.56,18.86-69.66,35.98
		c-25.94,21.82-45.39,50.72-58.1,82c-8.07,20.95-9.09,43.81-9.06,66.02c0.75,30.39,4.56,60.67,10.75,90.42
		c0.31,1.2,0.59,2.59,1.9,3.11c5.52,3.08,11.47,5.55,16.39,9.59c2.23,4.73,2.49,10.12,3.84,15.14
		c9.1,38.53,19.56,76.79,33.06,114.03c8.14,21.58,16.86,43.14,29.26,62.68c6.18,9.86,14.2,18.49,23.37,25.64
		c13.43,10.6,28.52,18.98,44.18,25.8c23.69,10.14,48.72,17.27,74.26,20.81c12.56,1.45,25.35,3.09,37.9,0.6
		c-1.23,1.62-2.45,3.25-3.64,4.9c-10.13,1.5601-20.39,0.5-30.51-0.58c-38.18-5.03-75.88-16.74-108.89-36.82
		c-13.37-8.53-26.27-18.38-35.71-31.27c-5.65-7.94-10.72-16.3-14.99-25.06c-3.16-5.78-5.46-11.99-8.84-17.64
		c0.18,3.65,1.05,7.36,0.13,10.99c-0.74,3.13-1.71,6.45-0.25,9.56c8.01,22.22,17.07,44.11,27.96,65.09
		c8.52,17.31,17.82,34.21,26.72,51.32c2.88,5.25,4.49,11.14,7.85,16.13c3.79,5.42,10.34,7.58,16.29,9.69
		c10.79,3.57,21.9,6.23,32.4301,10.57c19.15,7.36,37.75,16.14,57.14,22.88c11.87,4.22,24.87,3.67,36.59,8.34
		c6.11,2.42,11.34,6.67,15.36,11.82c-3.73-2.32-7.44-4.67-10.95-7.32c-0.44,0.4-1.32,1.21-1.76,1.62
		c-11.52-6.28-25.18-5.16-37.42-9.19c-27.08-8.7-52.28-22.44-79.62-30.41c-8.81-3.02-18.29-4.73-26.2-9.86
		c-7.18-4.84-9.54-13.55-13.02-20.97c-16.1-30.87-33.26-61.31-46.24-93.68c-5.94-14.87-11.71-29.85-15.66-45.38
		c-5.78,15.56-10.79,31.53-18.87,46.11c-4.77,8.62-12.81,14.73-20.75,20.25c-6.43,4.6-13.09,10.21-14.92,18.28
		c-1.25,6.69,0.08,13.48,0.94,20.14c2.6,16.53,5.96,32.96,10.18,49.16c-1.69-0.34-3.37-0.68-5.06-1.02
		c-4.19-18.43-8.87-36.81-10.83-55.65c-0.58-5.76-0.23-11.54,0.57-17.26c-0.86-0.98-1.74-1.93-2.61-2.88
		c0.23-0.27,0.71-0.8,0.95-1.07c1.41-0.24,2.86-0.24,4.25-0.62c2.74-2.8,5.1-5.99,8.13-8.51c7.1-5.89,15.49-10.38,21.34-17.66
		c4.91-5.97,7.75-13.25,10.77-20.28c5.55-12.86,9.78-26.23,14.43-39.44c1.84-6.27,4.2-13.32,1.12-19.58
		c-6.17,0.9-13.03,2.57-18.71-0.96c-6.7-4.34-11.22-11.23-15.1-18.04c-4.1-7.05-2.76-15.86-6.99-22.87
		c-6.84-11.32-15.51-21.86-19.2-34.78c-3.81-13.21-6.23-26.81-7.44-40.49c-0.55-4.7-1.02-9.87,1.58-14.09
		c2.39-4.36,6.62-7.3,11.25-8.9c-1.21-3.99-1.94-8.11-2.68-12.21c-4.25-23.85-7.23-47.94-8.42-72.12
		c-0.62-22.56,0.11-45.44,6.28-67.29c2.43-8.91,6.66-17.16,10.6-25.46c10.61-21.24,24.48-40.93,41.47-57.55
		C440.01,23.13,463.26,8.49,488.69,0 M365.27,291.04c-0.43,8.24,0.86,16.44,2.13,24.56c1.96,11.68,4.03,23.63,9.79,34.14
		c3.98,8.09,9.75,15.09,14.18,22.91c2.7,4.65,3.77,9.98,4.58,15.23c0.93,6.08,4.42,11.31,8.03,16.13c2.46,3.18,5.19,6.4,8.92,8.11
		c4.35,1.51,9.04,0.47,13.48-0.04c-13.2-39.17-24.49-79.01-33.26-119.41c-0.4-1.36-0.78-2.89-2.09-3.65
		c-4.09-2.7-8.36-5.2-12.91-7.05C372.2,279.41,365.9,285.31,365.27,291.04 M438.05,442.59c-0.91,1.18-0.65,1.86,0.76,2.03
		C439.69,443.43,439.43,442.75,438.05,442.59z"/>
	<path fill="#A8786A" stroke="#A8786A" stroke-width="0.594" d="M503.64,0h91.63c15.57,4.69,30.84,10.59,44.94,18.77
		c9.07,5.34,18.3,10.72,25.88,18.14c14.03,13.47,24.5,30.06,34.2,46.78c19.7401,35.16,34.95,72.65,48.5,110.56
		c1,1.86-0.08,3.79-0.78,5.54c-3.05,6.84-4.9,14.12-6.98,21.29c-0.5601,1.53-0.27,3.15,0.2599,4.64c2.22,6.84,2.81,14.04,3.96,21.1
		c4.6,30.4,9.18,60.82,12.18,91.43c2.63,22.92-0.05,46.25-6.84,68.25c-5.02,15.93-8.9301,32.18-13.95,48.11
		c-5.21,16.9-12.73,33.33-23.88,47.17c-9.42,11.49-19.34,22.73-31.11,31.88c-11.59,9.11-25.28,15.84-39.92,18.16
		c-12.55,2.49-25.34,0.85-37.9-0.6c-25.54-3.54-50.57-10.67-74.26-20.81c-15.66-6.8199-30.75-15.2-44.18-25.8
		c-9.17-7.15-17.19-15.78-23.37-25.64c-12.4-19.54-21.12-41.1-29.26-62.68c-13.5-37.24-23.96-75.5-33.06-114.03
		c-1.35-5.02-1.61-10.41-3.84-15.14c-4.92-4.04-10.87-6.51-16.39-9.59c-1.31-0.52-1.59-1.91-1.9-3.11
		c-6.19-29.75-10-60.03-10.75-90.42c-0.03-22.21,0.99-45.07,9.06-66.02c12.71-31.28,32.16-60.18,58.1-82
		C454.08,18.86,478.27,7.02,503.64,0 M622.27,201.28c-2.3,1.88-5.86,4-5,7.51c1.18,4,4.24,7.05,6.91,10.12
		c7.17-3.59,13.55-8.55,20.75-12.09c4.11-2.04,8.31-4.46,13.04-4.51c5.9-0.36,11.44,1.96,16.95,3.73c5.39,1.62,10.1,4.78,15.23,7
		c1.52,0.91,3.11,1.73,4.71,2.52c1.78,0.49,3.56,0.94,5.37,1.34c-0.42-1.28-0.68-2.64-1.38-3.8
		c-4.5099-6.38-10.29-11.72-16.36-16.59c-7.04-5.54-15.06-11.4-24.48-10.97C644.74,186.73,632.91,193.71,622.27,201.28
		 M632.09,229.19c-8,4.68-15.07,10.93-21.01,18.02c8.92,3.37,18.42,5.25,27.93,5.94c6.87,0.44,13.58-1.67,19.84-4.31
		c5.95-2.56,12.02-5.41,16.47-10.28l1.14-0.18c0.08-1.36,0.24-2.72,0.21-4.08c-0.75-1.95-2.96-2.63-4.55-3.7
		c-5.24-1.63-10.53-3.22-16.01-3.83C648.11,225.74,639.36,224.95,632.09,229.19 M459.58,228.7c-4.74,1.24-8.32,4.86-11.41,8.47
		c-4.53,5.57-8.05,11.92-10.7,18.58l-0.82,0.37c0.11,0.16,0.33,0.47,0.43,0.63c-1,2.51-1.64,5.15-1.4,7.88
		c1.66-0.89,3.25-1.91,4.73-3.08c0.24-0.82,0.5-1.63,0.77-2.44c4.3-3.31,7.43-7.9,11.92-10.98c4-2.62,9-2.17,13.56-2.49
		c19.8-1.23,39.57,1.06,59.36,1.19c-3.25-6.44-6.03-15-13.98-16.78c-10.83-2.43-22-2.84-33.04-3.48
		C472.5,226.87,465.91,227.06,459.58,228.7 M586.63,247.98c-0.74,10.68,3.57,20.69,6.77,30.64c1.44,4.18,2.9,9.39,7.83,10.58
		c-5.43-7.77-7.81-17.03-10.55-25.97c-1.8-6.06-1.88-12.43-2.09-18.69C587.36,245.28,586.45,246.47,586.63,247.98 M492.34,259.48
		c-9.74,3.52-18.23,10.15-24.99,17.92c-1.81,2.54-5.02,5.85-2.96,9.08c5.06,3.62,11.75,2.62,17.61,2.69
		c8.55-0.74,17.35-1.47,25.32-4.88c7.55-3.67,13.99-9.21,20.15-14.83c1.02-1.19,2.8701-2.29,2.3-4.12
		c-6.19-2.73-12.92-3.96-19.49-5.45C504.39,258.81,498.2,257.55,492.34,259.48 M624.77,296.82c2.69,2.51,6.37,3.81,8.7,6.72
		c2,3.45,2.54,7.55,2.84,11.46c0.32,5.11-2.77,9.52-3.65,14.42c3.04-1.45,3.8701-4.92,4.9-7.83c1.7-5.11,0.84-10.64-0.61-15.7
		C635.44,300.66,630.23,296.69,624.77,296.82 M535.68,334.56c-1.06,5.07-0.32,11.32,4.32,14.43c4.7,2.75,10.45,2.52,15.71,2.22
		c-1.36-2.43-4.42-1.71-6.71-2.1c-3.59-0.31-8.08-0.63-9.96-4.25c-3.14-5.4-1.08-12.04,1.47-17.26c1.25-2.96,4.53-5.38,3.79-8.9
		C539.92,322.96,537.06,328.65,535.68,334.56 M614.19,325.19c-5.52,3.41-8.86,9.7-8.92,16.15c2.89-2.56,4.02-6.58,7.29-8.79
		c4.23-3.65,10.07-3.4,15.31-3.53c3.28-1.16,1.74-5.06-0.7-6.2C623.03,319.37,617.86,322.76,614.19,325.19 M553.1,338.11
		c-2.42,2.18-4.06,6.14-2.56,9.26c1.91,0.88,4.09,0.53,6.14,0.66c-0.51-2.47-3.29-2.15-5.16-2.78c0.73-0.84,1.32-1.93,2.42-2.34
		c7.63-3.29,16.63-3.4,24.27-0.16c1.68,1.88,2.88,4.19,4.97,5.7c-0.55-3.72-2.18-7.21-4.56-10.1c-1.32-1.82-3.3-3.34-5.66-3.11
		C566.32,335.48,559.11,334.74,553.1,338.11 M604.41,356.43c-6.12,0.72-12.33,0.42-18.41,1.49c-2.56,0.34-4.74,1.79-6.71,3.36
		c-11.32,8.95-23.48,17.02-33.41,27.58c-6.28,7.93-12.03,16.58-14.62,26.47c-3.4,13-6.5,26.19-7.29,39.64
		c-0.12,7.76-0.29,15.55,0.59,23.28c0.87,9.9,2.79,20.2,8.84,28.35c6.3199,8.02,16,12.19,25.31,15.69
		c13.77,4.63,27.66,9.28,42.15,10.98c9.2,2.2,18.72,2.34,28.12,1.74c8.01-0.73,15.42-4.03,22.61-7.39
		c11.12-4.47,20.72-11.81,30.59-18.44c5.35-3.54,10.46-7.45,15.3-11.66c6.48-5.49,9.53-14.18,9.73-22.49
		c0.07-6.67,0.23-13.4-1.15-19.96c-1.74-7.98-1.98-16.3-4.96-23.99c-5.73-18.66-13.84-37.33-27.92-51.25
		c-4.26-4.45-8.75-8.82-14.15-11.88c-9.17-5.33-19.55-8.1-29.89-10.11C620.98,356.55,612.67,355.29,604.41,356.43z"/>
	<path fill="#A8786A" stroke="#A8786A" stroke-width="0.594" d="M601.04,381.98c9.08-0.26,18.17-3.39,27.2401-1.22
		c14.59,3.67,28.7599,9.92,40.45,19.5c6.49,5.12,9.61,12.99,12.51,20.45c3.6,10.2,6.47,21.47,3.67,32.21
		c-4.28,12.32-15.73,19.84-25.81,27.15c-5.1,3.74-10.53,7.15-16.39,9.53c-5.83,2.25-11.98-2.85-12.5-8.65
		c-0.5-5.3-0.1-10.64-0.23-15.95c0.08-4.31-0.3-9.05,2.25-12.79c2.43-3.61,5.4-6.82,7.98-10.32c-1.62-1.74-3.09-3.71-5.16-4.93
		c-2.27-0.91-4.75-0.99-7.1-1.55l0.16-0.39c6.32-2.63,12.95-5.12,17.96-9.96c5.71-5.48,10-12.24,14-19.02
		c0.87-1.9,2.61-4.24,1.22-6.3c-2.41-4.04-6.92-6-10.91-8.1c-6.98-3.31-14.49-6.57-22.39-5.92c-7.27,0.6-13.55,4.62-20.32,6.94
		c-9.1,3.15-19.36-1.96-28.07,2.88c-10.24,5.44-18.59,13.66-27.92,20.43c9.8,11.4,22.36,22.42,38.14,23.26
		c1.15,3.44-2.95,7.6-0.06,10.98c5.66,4.49,14.8,6.35,16.56,14.4c1.56,7.13,4.64,14.02,4.74,21.41c0.06,8.81-6.93,16.09-14.73,19.19
		c-6.46,2.09-13.2-0.17-19.35-2.25c-11.4-3.69-19.88-12.58-28.43-20.51c-4.88-4.68-7.69-11.03-9.56-17.42
		c-1.74-6.23-0.61-12.74-0.05-19.05c0.62-8.47,4.21-16.27,6.75-24.28c1.09-3.04,1.78-6.45,4.2-8.77
		c5.66-5.37,11.43-10.62,17.3-15.75c4.52-4.59,9.77-8.35,15.25-11.69C588.05,382.21,594.75,382.23,601.04,381.98z"/>
	<path fill="#A8786A" stroke="#A8786A" stroke-width="0.594" d="M439.15,445.35c3.38,5.65,5.68,11.86,8.84,17.64
		c4.27,8.76,9.34,17.12,14.99,25.06c9.44,12.89,22.34,22.74,35.71,31.27c33.01,20.08,70.71,31.79,108.89,36.82
		c10.12,1.08,20.38,2.14,30.51,0.58c15.67-1.6899,30.6299-8.03,43.28-17.35c13.61-9.91,24.81-22.64,35.42-35.61
		c6.97-8.43,12.03-18.19,16.8-27.98c2.79,3.82,5.29,7.84,7.61,11.96c5.47,10.26,11.03,21.33,10.48,33.28
		c-0.19,11.02-2.62,21.85-5.05,32.55c-1.89,7.14-3.54,14.46-7.02,21.03c-4.04,7.47-12.3,11.01-17.54,17.45
		c-8.1,9.78-12.5,21.94-19.71,32.3c-1.11,1.69-1.8,3.61-2.36,5.54c-4.35,15.66-8.44,31.4-13.07,46.98
		c-2.29,7.64-3.87,15.5-6.84,22.92c-6.7-12.7599-11.32-26.88-20.72-38.05c-4.02-5.15-9.25-9.4-15.36-11.82
		c-11.72-4.67-24.72-4.12-36.59-8.34c-19.39-6.74-37.99-15.52-57.14-22.88c-10.53-4.34-21.64-7-32.4301-10.57
		c-5.95-2.11-12.5-4.27-16.29-9.69c-3.36-4.99-4.97-10.88-7.85-16.13c-8.9-17.11-18.2-34.01-26.72-51.32
		c-10.89-20.98-19.95-42.87-27.96-65.09c-1.46-3.11-0.49-6.43,0.25-9.56C440.2,452.71,439.33,449,439.15,445.35z"/>
	<path fill="#070201" stroke="#070201" stroke-width="0.594" d="M595.27,0h14.91c18.61,6.63,36.24,15.98,52.16,27.67
		c12.29,9.42,21.59,22.03,30.28,34.7c26.11,40.29,43.99,85.15,60.46,130.04c7.34-5.41,18.61-3.89,24.05,3.49
		c3.13,5.05,2.13,11.25,2.35,16.89c-1.03,0.86-2.05,1.73-3.06,2.6c-0.31,3.64-0.82,7.26-1.28,10.88c-0.06-4.5-0.38-9-0.33-13.5
		c0.04-4.48,0.65-9.21-1.02-13.48c-2.93-4.92-9.95-6.94-15.14-4.67c-5.19,2.32-7.41,7.93-9.04,12.98
		c-1.45,5.2-4.07,10.33-3.85,15.83c6.36,35.88,11.24,72.02,15.46,108.21c-0.83-0.51-1.65-1.02-2.46-1.52
		c-0.47,2.7-0.98,5.4-1.33,8.13c-3-30.61-7.58-61.03-12.18-91.43c-1.15-7.06-1.74-14.26-3.96-21.1c-0.53-1.49-0.82-3.11-0.2599-4.64
		c2.08-7.17,3.93-14.45,6.98-21.29c0.7-1.75,1.78-3.68,0.78-5.54c-13.55-37.91-28.7599-75.4-48.5-110.56
		c-9.7-16.72-20.17-33.31-34.2-46.78c-7.58-7.42-16.81-12.8-25.88-18.14C626.11,10.59,610.84,4.69,595.27,0z"/>
	<path fill="#070201" stroke="#070201" stroke-width="0.594" d="M235.38,1104.3c1.54,0.3099,2.95,1.01,4.38,1.6699
		c-7.74,17.6901-13.41,36.1901-20.31,54.2101c-7.02,20.3999-14.98,40.48-21.52,61.0499c24.37,9.75,47.56,22.23,71.97,31.92
		c21.28,8.47,42.7,16.62,64.38,24.02c-5.74,0.7699-11.56,0.1799-17.33,0.1699c-105.65,0-211.3,0-316.95,0v-0.88
		c99.33,0.17,198.66,0,297.99,0.0801c5.4,0.0699,10.88,0.4099,16.15-1.02c-3.08-1.63-6.27-3.01-9.56-4.15
		c-8.78-3.1-17.41-6.63-26.13-9.89c-33.56-12.58-64.9-30.37-98.69-42.37c-12.86-5.1799-25.83-10.28-39.36-13.47
		c-12.23-3.08-24.93-2.79-37.44-2.39c-9.33,0.33-18.55,2.27-27.91,2.17c0.02-0.86,0.06-2.5901,0.08-3.4501
		c9.52-1.88,19.22-2.51,28.87-3.21c10.29-0.12,20.7-0.73,30.86,1.29c20.69,3.5399,39.76,12.71,59.36,19.7999
		c0.57-3.45,1.35-6.86,2.51-10.15c11.22-30.84,22.29-61.73,33.44-92.59C231.82,1112.8101,232.86,1108.2,235.38,1104.3z"/>
	<path fill="#0F0401" stroke="#0F0401" stroke-width="0.594" d="M622.27,201.28c10.64-7.57,22.47-14.55,35.74-15.74
		c9.42-0.43,17.44,5.43,24.48,10.97c6.07,4.87,11.85,10.21,16.36,16.59c0.7,1.16,0.96,2.52,1.38,3.8c-1.81-0.4-3.59-0.85-5.37-1.34
		c0.37-1.19,0.75-2.39,1.14-3.58c-9.48-8.59-18.29-18.95-30.82-23.08c-10.58-2.85-21.07,2.2-30.23,7.02
		c-5.42,3.18-11.44,6.08-15.24,11.27c0.13,3.64,2.9,6.35,5.03,9.03c9.12-5.55,17.92-11.91,28.1-15.41
		c6.98-2.3,14.28,0.04,20.93,2.32c6.61,2.4,13.59,4.63,18.83,9.56c-0.61,0.09-1.84,0.26-2.45,0.35c-5.13-2.22-9.84-5.38-15.23-7
		c-5.51-1.77-11.05-4.09-16.95-3.73c-4.73,0.05-8.93,2.47-13.04,4.51c-7.2,3.54-13.58,8.5-20.75,12.09
		c-2.67-3.07-5.73-6.12-6.91-10.12C616.41,205.28,619.97,203.16,622.27,201.28z"/>
	<path fill="#2F2F2F" stroke="#2F2F2F" stroke-width="0.594" d="M634.95,195.92c9.16-4.82,19.65-9.87,30.23-7.02
		c12.53,4.13,21.34,14.49,30.82,23.08c-0.39,1.19-0.77,2.39-1.14,3.58c-1.6-0.79-3.19-1.61-4.71-2.52c0.61-0.09,1.84-0.26,2.45-0.35
		c-5.24-4.93-12.22-7.16-18.83-9.56c-6.65-2.28-13.95-4.62-20.93-2.32c-10.1801,3.5-18.98,9.86-28.1,15.41
		c-2.13-2.68-4.9-5.39-5.03-9.03C623.51,202,629.53,199.1,634.95,195.92z"/>
	<path fill="#A57A6C" stroke="#A57A6C" stroke-width="0.594" d="M758.65,194.62c5.19-2.27,12.21-0.25,15.14,4.67
		c1.67,4.27,1.06,9,1.02,13.48c-0.46,1.79-0.99,3.57-1.37,5.38c-2.8-2.27-5.48-5.68-9.42-5.58c-2.23-0.03-3.65,1.96-5.02,3.43
		c-3.83,4.75-6.94,10.04-10.07,15.28c2.03,0.29,4.49,0,5.92,1.82c4.6,5,8.98,10.62,10.75,17.32c3.17,12.58,2.71,25.63,2.69,38.5
		c0.53-0.19,1.58-0.57,2.11-0.76c0.19-9.76,0.72-19.61-0.79-29.31c-0.8-6.46-2.34-13.03-5.97-18.52c-2.93-4.4-6.62-8.21-10.06-12.19
		c3-4.48,5.45-9.61,9.78-13c3.96-0.85,7.8,3.33,8.17,7.11c0.5,8.54-2.27,16.84-2.35,25.37c1.24,0.45,2.49,0.91,3.75,1.37
		c1.87,9.89,0.42,20.01,0.77,30.01c0.32,13.76-0.25,27.57,0.87,41.3c-0.37,8.9,0.63,18.06-1.51,26.77
		c-2.9,2.57-7.04,1.55-10.44,0.83c-0.37-5.43-0.91-10.84-1.4-16.26c-4.22-36.19-9.1-72.33-15.46-108.21
		c-0.22-5.5,2.4-10.63,3.85-15.83C751.24,202.55,753.46,196.94,758.65,194.62 M753.9,240.87c0.45,3.94,4.12,6.18,5.73,9.57
		c1.11,1.99,0.87,4.36,1,6.56c0.03,8.27-0.2,16.54-0.26,24.81c0.55-0.06,1.66-0.2,2.22-0.27c0.21-9.8,0.54-19.62,0.08-29.41
		C761.57,247.4,758.08,243.28,753.9,240.87z"/>
	<path fill="#0B0000" stroke="#0B0000" stroke-width="0.594" d="M759,216c1.37-1.47,2.79-3.46,5.02-3.43
		c3.94-0.1,6.62,3.31,9.42,5.58c0.25,4.18,0.55,8.38,0.07,12.57c-0.56,6.06-2.46,12.24-0.58,18.27c-1.26-0.46-2.51-0.92-3.75-1.37
		c0.08-8.53,2.85-16.83,2.35-25.37c-0.3701-3.78-4.21-7.96-8.17-7.11c-4.33,3.39-6.78,8.52-9.78,13c3.44,3.98,7.13,7.79,10.06,12.19
		c3.63,5.49,5.17,12.06,5.97,18.52c1.51,9.7,0.98,19.55,0.79,29.31c-0.53,0.19-1.58,0.57-2.11,0.76c0.02-12.87,0.48-25.92-2.69-38.5
		c-1.77-6.7-6.15-12.32-10.75-17.32c-1.43-1.82-3.89-1.53-5.92-1.82C752.06,226.04,755.17,220.75,759,216z"/>
	<path fill="#A48885" stroke="#A48885" stroke-width="0.594" d="M773.44,218.15c0.38-1.81,0.91-3.59,1.37-5.38
		c-0.05,4.5,0.27,9,0.33,13.5c-0.97,31.33,0.27,62.7-0.57,94.03c-1.12-13.73-0.55-27.54-0.87-41.3c-0.35-10,1.1-20.12-0.77-30.01
		c-1.88-6.03,0.02-12.21,0.58-18.27C773.99,226.53,773.69,222.33,773.44,218.15z"/>
	<path fill="#030203" stroke="#030203" stroke-width="0.594" d="M776.42,215.39c1.01-0.87,2.03-1.74,3.06-2.6
		c-0.41,40.05,0.33,80.1-0.35,120.15c-0.92,5.6,0.16,11.69-2.39,16.9c-3.37,3.9-9.18,3.73-13.91,3.66
		c1.18,25.12-6.05,49.54-13.6,73.21c9.19,6.34,17.62,13.7,26.05,20.99c11.74,10.7,23.21,21.91,32.22,35.06
		c2.92,1.06,6.08,1.21,9.08,2.01c7.71,2.81,15.93,3.72,23.88,5.64c45.47,10.26,90.63,23.31,132.81,43.43
		c18.58,9.19,36.72,19.78,52.13,33.77c13.51,12.24,23.71,27.58,32.62,43.36c8.7,15.88,16.12,32.45,22.6899,49.33
		c2.12,5.1,3.29,10.73,6.76,15.17c4.24,5.75,6.38,12.69,8.6,19.4c2.79,8.63,3.9301,17.66,5.4601,26.56
		c3.6899,13.58,7.97,26.99,11.2899,40.67c6.79,24.82,12.5701,49.9,19.4401,74.69c2.22,8.2401,5.61,16.12,9.05,23.91
		c2.3199,3.28,5.7699,5.67,7.7799,9.23c4.9501,8.17,8.4701,17.33,9.9,26.81c1.02,11.91,8.96,21.74,11.39,33.29
		c0.4301,5.3199-3.55,9.45-6.85,13.1c1.95,3.83,3.78,7.73,5.53,11.66c16.0499,36.66,31.0399,73.93,41.48,112.6201
		c6.1799,24.23,8.9399,49.1599,10.9099,74.0299c1.55,22.15,2.78,44.3201,2.99,66.54c0.9601,13.65,0.6901,27.34,0.7301,41.02
		c0.2999,9.54-0.9501,19.03-2.3201,28.46c-0.72-0.01-2.15-0.02-2.87-0.0299l0.26-0.9901c2.91-13.2699,2.09-26.96,2.22-40.4399
		c-0.61-46.99-1.76-94.15-8.7899-140.7c-2.6901-18.8301-8.12-37.1101-13.9-55.17c-10.9-32.35-23.66-64.08-38.02-95.04
		c-7.6899,6.5699-15.38,13.18-23.77,18.85c-22.58,14.96-45.78,30.73-72.72,36.37c-19.52,3.55-39.53,3.63-59.27,2.37
		c-5.37-0.31-11.38,0.79-15.86-2.94c0.77-0.8,1.57-1.59,2.39-2.35c15.4,0.5,30.81,2.37,46.23,1.23c7.28-0.58,14.63-0.74,21.85-1.98
		c16.86-2.82,32.53-10.27,47.23-18.75c15.9701-9.72,31.9301-19.64,46.05-31.99c4.41-4,9.77-7.96,11.34-14
		c-0.08-6.81-3.8199-12.86-6.38-18.9901c-4.24,7.11-9.21,13.91-15.86,18.96c-13.49,10.35-28.79,18.11-44.5,24.47
		c-18.85,5.92-38.63,8.05-58.22,9.98c-14.01,1.3-28.05,2.21-42.11,2.66c-0.09-0.81-0.27-2.44-0.36-3.26
		c0.68-0.52,1.38-1.03,2.09-1.52c3.9,2.69,8.77,1.47,13.2,1.56c17.04-1.13,34.08-2.49,51.0099-4.86
		c11.3401-1.77,22.87-3.25,33.7201-7.1801c14.7599-6.0699,29.2799-13.1299,41.98-22.9c7-5.48,13.97-12.03,16.46-20.86
		c0.83-2.61-1.02-4.96-1.88-7.28c-4.91-11.44-10.26-22.68-14.92-34.22c-1.0599-2.04-1.4399-4.72-3.4399-6.05
		c-4.92,2.1801-7.28,7.32-9.91,11.66c-5.27,9.44-9.95,19.55-18,27.04c-5.01,4.71-11.48,7.34-17.6,10.26
		c-10.36,4.8-21.24,8.36-32.11,11.81c-11.1801,3.08-22.71,5.94-34.39,5.01c-3.37-0.26-6.79-1.57-8.93-4.28
		c-3.42-3.96-4.04-9.3-5.41-14.15c-1.8,11.4-5.12,22.51-6.67,33.96c-1.05,7.72-4.43,14.84-5.81,22.4901
		c-2.81,11.42-5.48,22.87-7.85,34.38c-1.5,8.18-3.45,16.3-4.19,24.5999c-0.84,5.66-1.74,11.3201-2.59,16.9901
		c-0.61,5.4099,0.21,10.9099-0.82,16.2999c-0.77,6.55-2.89,12.9-2.98,19.55c-0.95,7.13-0.75,14.33-1.5,21.48
		c-1.57,17.9,1.57,35.8199,0.09,53.73c-0.66,6.3-0.3701,12.67-1.3701,18.9401c-0.7599,13.23-0.53,26.5099-0.0699,39.75
		c1.16,7.97,0.68,16.0499,1.56,24.0499c0.69,13.79,0.05,27.62,0.32,41.4301c-100.25,0.0599-200.4901-0.02-300.7401,0.0299
		c-9.72-0.1599-19.47,0.76-29.15-0.4199c57.71-5.53,115.28-12.3201,172.91-18.66c25.63-3.38,51.38-5.87,76.92-9.95
		c16.9-4.02,33.55-9.65,48.89-17.9c9.57-5.14,15.25-14.79,21.41-23.3201c0.95,3.3701-0.82,6.41-2.89,8.9301
		c-4.93,6.3101-10.03,12.9-17.23,16.75c-10.39,6.02-21.85,9.75-33.1,13.76c-16.51,5.67-34.06,6.73-51.23,9.02
		c-27.41,3.73-54.91,6.72-82.41,9.6699c-31.43,3.9801-62.95,7.12-94.47,10.29c10.09,0.79,20.21,0.3201,30.31,0.4401
		c85.48-0.04,170.95,0.0399,256.42-0.03c-1.17-13.12,0.04-26.3-0.88-39.4301c-0.15-11.2899-1.57-22.51-1.77-33.7899
		c-1.55-18.74,1.93-37.3601,1.75-56.0801c-2.99,4.79-5.78,9.91-10.25,13.51c-4.03,3.13-8.55,5.53-13.06,7.89
		c-15.36,7.41-31.37,13.61-48.02,17.41c-13.2,3.0699-26.76,4.0399-40.21,5.37c-24.08,1.72-47.98,5.23-71.96,7.88
		c-22.38,2.52-44.78,4.8199-67.17,7.1599c-43.0699,4.63-86.34,7.5701-129.48,11.2001c-41.67,3.3199-83.41,6.1799-125.08,9.35
		c-6.8,0.11-13.51,1.39-20.33,1.3c-7,1.14-14.11,0.6599-21.12,1.6599c-19.6,1.24-39.21,2.4401-58.81,3.6801
		c-13.33,0.3099-26.65,1.96-39.99,0.95c-16.03-2.09-31.54-6.85-46.8-12.0599c-2.99,10.0499-5.61,20.22-8.95,30.16
		c-0.89-0.1901-2.67-0.5601-3.56-0.75c0.59-10.39,5.58-19.8,7.74-29.8601c3.37-12.2699,3.79-25.21,1.86-37.75
		c-5.08-30.95-10.04-61.9299-15.04-92.8899c-3.24,4.7799-7.94,9.2999-14.06,9.5099c-12.17,0.1001-24.14-2.33-35.98-4.86
		c-26.36-6.0499-52.64-12.47-79.16-17.7899c-29.21-6.53-58.44-13.14-87.09-21.86c-13.76-4.4901-27.6-9.2101-39.85-17.0701
		c-0.94,3.35-1.86,6.72-2.84,10.0701c-1.11,0.5399-2.21,1.11-3.31,1.7v-6.01c0.62-3.23,1.79-6.34,2.14-9.6
		c-0.29-2.36-1.47-4.49-2.14-6.73v-15.61c3.42-14.21,10.9-26.89,16.68-40.18c6.06-12.26,8.7-25.75,13.02-38.64
		c5.23-18.05,10.72-36.03,16.35-53.96c3.81-11.53,8.2-22.88,11.49-34.59c1.32-4.45,1.46-9.22,0.77-13.79
		c-1.49-5.83-4.76-11.35-4.34-17.55c0.11-4.97,3.65-8.81,6.38-12.62c7.58-10.37,15.97-20.12,23.45-30.56
		c4.81-6.7599,10.23-13.06,16.01-19c29.84-36.16,59.94-72.1,90.23-107.87c3.34-3.35,2.22-8.52,4.25-12.45
		c3.22-2.59,6.85-4.59,10.29-6.86c50.22-31.22,100.77-61.92,151.25-92.72c3.92-2.5,8.51-4.32,11.32-8.21
		c0.87,0.95,1.75,1.9,2.61,2.88c-32.32,19.76-64.68,39.43-96.99,59.2c-25.57,15.88-51.49,31.21-76.69,47.67
		c5.8,1.22,11.68,2.48,16.9,5.41c-1.57-2.23-4.46-4.31-3.63-7.4c3.24-3.84,8.84-2.39,13.23-3.24c6.65-0.59,12.08-4.71,17.65-7.96
		c17.79-11.18,35.37-22.67,53.22-33.75c19.78-12.58,40.94-22.76,62-32.99c4.64-2.03,9.04-4.64,13.91-6.12
		c-1.1,2.15-2.77,3.99-5.02,4.92c-18.81,8.97-37.65,17.9-55.78,28.19c-23.17,13.57-45.38,28.71-68.23,42.82
		c-4.9,2.9-9.76,6.38-15.56,7.15c-4.36,0.62-8.77,0.94-13.11,1.75c2.86,4.85,7.42,8.22,12.22,10.97
		c9.52-4.83,19.15-9.52,29.24-13.06c15.6-4.96,31.73-7.94,47.74-11.29c26.46-5.73,53.06-11.79,80.22-12.77
		c-0.32-2.21-0.65-4.41-1.06-6.59c1.69,0.34,3.37,0.6801,5.06,1.02c4.23,16.61,7.81,33.46,13.79,49.56
		c26.11-12.25,51.17-26.83,78.27-36.88c7.57-2.59,16.41-5.66,23.93-1.26c12.04,6.9,17.99,20.11,26.66,30.34
		c3.91,4.81,10.62,5.11,16.33,5.19c5.55-0.12,11.67,1.75,14.83,6.63c3.65,5.55,2.78,12.65,5.55,18.53c1.37,2.82,4.93,1.92,7.33,1.31
		c17.24-4.95,32.54-17.43,51.21-16.58c12.1-0.62,24.19,2.66,34.54,8.9c-3.09-3.91-6.72-7.41-10.86-10.19
		c0.44-0.41,1.32-1.22,1.76-1.62c3.51,2.65,7.22,5,10.95,7.32c9.4,11.17,14.02,25.29,20.72,38.05c2.97-7.42,4.55-15.28,6.84-22.92
		c4.63-15.58,8.72-31.32,13.07-46.98c0.56-1.93,1.25-3.85,2.36-5.54c7.21-10.36,11.61-22.52,19.71-32.3
		c5.24-6.44,13.5-9.98,17.54-17.45c3.48-6.5699,5.13-13.89,7.02-21.03c2.43-10.7,4.86-21.53,5.05-32.55
		c0.55-11.95-5.01-23.02-10.48-33.28c-2.32-4.12-4.82-8.14-7.61-11.96c-4.77,9.79-9.83,19.55-16.8,27.98
		c-10.61,12.97-21.81,25.7-35.42,35.61c-12.65,9.32-27.61,15.66-43.28,17.35c1.19-1.65,2.41-3.28,3.64-4.9
		c14.64-2.32,28.33-9.05,39.92-18.16c11.77-9.15,21.69-20.39,31.11-31.88c11.15-13.84,18.67-30.27,23.88-47.17
		c5.02-15.93,8.93-32.18,13.95-48.11c6.79-22,9.47-45.33,6.84-68.25c0.35-2.73,0.86-5.43,1.33-8.13c0.81,0.5,1.63,1.01,2.46,1.52
		c0.4901,5.42,1.03,10.83,1.4,16.26c3.4,0.72,7.54,1.74,10.44-0.83c2.14-8.71,1.14-17.87,1.51-26.77c0.84-31.33-0.4-62.7,0.57-94.03
		C775.6,222.65,776.11,219.03,776.42,215.39 M747.72,431.75c-2.79,11.17-5.6899,22.35-9.86,33.1c-0.76,2.55-2.86,5.57-0.67,7.98
		c6.87,10.28,13.19,21.16,16.95,33c2.62,8.46,2.38,17.48,1.14,26.16c-1.54,13.07-4.66,25.93-8.96,38.36
		c-1.3,3.7401-2.92,7.44-5.44,10.53c-5.03,6.35-13.04,9.69-17.39,16.66c-3.54,5.6-7.54,11.03-9.98,17.22
		c2.87-2.24,4.84-5.34,7.2-8.05c9.68-11.28,19.65-22.34,30.55-32.46c7.49-6.79,17.76-9.4,27.65-9.86
		c9.19-0.75,18.11,1.99,27.09,3.44c8.65,1.81,18.21,1.24,25.82,6.43c5.76,3.66,8.83,9.95,13.09,15.04
		c-6.84-20.9-14.12-41.67-22.11-62.16c-6.04-14.58-11.67-29.48-20.11-42.88c-10.85-15.84-25.31-28.72-39.84-41.09
		C757.87,439.28,753.25,434.86,747.72,431.75 M811.77,489.79c2.84,7.14,6.54,13.9,9.36,21.06c4.63,10.22,7.98,20.96,12.5,31.22
		c5.31,15.51,11.09,30.88,15.87,46.57c4.3,1.59,9.05,0.84,13.55,1.24c14.94,1.68,30.03,1.03,45.03,0.67
		c12.93-1.34,25.98-0.28,38.91-1.68c14.02-0.21,28.04-0.18,42.06-0.05c11.96,1.36,24.61,0.62,35.7401,5.98
		c-1.21-7.4-2.91-14.71-4.3101-22.07c-0.48-1.56-0.29-3.49-1.64-4.63c-10.8-9.22-22.83-16.92-35.35-23.6
		c-6.32-1.02-11.89-5.18-18.47-4.72c-12.03,0.02-24.07,0.09-36.08,0.59c-10.96,0.99-21.99,0.33-32.96,1.16
		c-8.28,0.9399-16.65,0.33-24.94,1.22c-5.66,0.68-11.38,0.37-17.07,0.45c-6.3799,0.02-12.71-2.41-19.0699-1.2
		c-0.45-0.55-1.37-1.64-1.82-2.19c8.51-2.28,17.17,1.56,25.82,0.84c10-0.9901,20.08-0.41,30.08-1.41
		c8.73-0.75,17.51-0.06,26.24-0.89c7.58-0.72,15.19-0.46,22.79-0.55c6.68-0.07,13.32-0.9,20-1.06c4.21-0.16,8.31,0.89,12.48,1.3
		c-1.16-1.18-2.46-2.19-4.05-2.65c-7.7-2.65-14.94-6.42-22.57-9.25c-36.51-14.56-74.62-24.65-112.96-33.07
		C824.56,491.8,818.24,490.22,811.77,489.79 M756.63,578.68c5.63,4.37,7.04,11.8,7.77,18.48c22.11-4.98,44.63-8.86,67.36-8.73
		c-1.71-3.47-3.12-7.59-6.72-9.56c-6.08-3.37-12.92-5.26-19.8-6.08c-9.58-1.69-19.29-4.09-29.07-2.69
		C769.17,571.67,762.58,574.72,756.63,578.68 M1027.01,576.6c-0.4,4.29,0.8199,8.4901,1.61,12.67c1.25,5.99,1.8,12.21,4.35,17.84
		c5.76,12.51,6.0901,26.57,6.22,40.09c3.2101-11.74,8.4801-22.83,14.9901-33.09c-4.01-8.66-9.7301-16.33-15.17-24.11
		c-3.52-5.11-7.6901-9.71-11.9301-14.23C1025.72,572.56,1024.17,578.24,1027.01,576.6 M749.64,584.68
		c-6.8,5.18-12.26,11.86-17.76,18.35c2.55,1.87,5.51,4.56,8.92,3.1c6.39-2.32,12.58-5.17,18.97-7.48
		c-0.5-4.9301-1.21-10.11-4.06-14.3C754.41,581.89,751.26,583.35,749.64,584.68 M835.3,584.3c-0.22,1.52,0.49,4.68,2.47,4.43
		C838.29,587.19,836.76,584.62,835.3,584.3 M815.92,591.64c-17.19,1.07-34.23,3.99-50.86,8.44c-0.06,18.4,1,37.31-4.86,55.05
		c21.75-0.24,43-6.3,64.77-6.41c18.01-0.14,36.01,0.01,54.02,0.0601c7.66-0.03,15.28,0.93,22.95,0.84
		c9.02-0.13,18.03,0.45,27.05,0.25c8.02-0.22,15.99,0.89,24,0.94c6,0.07,12,0.06,18.01,0.1c9.69-0.05,19.34,1.1801,29.04,1.08
		c10.97-0.07,21.03,5.87,32.03,5.27c0.1001-17.81-2.49-35.52-5.36-53.06c-0.4299-3.49-2.21-7.06-5.79-8.17
		c-11.75-4.48-24.6-3.72-36.94-4.4c-7.86-0.59-15.75-0.71-23.61-0.2c-14.76,0.96-29.58,0.04-44.31,1.45
		c-17.33,0.29-34.69,1.06-52-0.14c-4.41-0.5-8.85-0.8-13.28-0.71c0.9,3.9,2.42,7.7599,2.28,11.8199
		c-1.39,2.45-5.23,5.29-7.84,2.9301c-5.18-4.23-8.5699-10.11-12.74-15.22C827.09,590.06,821.4,591.33,815.92,591.64 M838.01,590.54
		c1.71,3.56,4.33,6.56,7.08,9.36C843.19,596.54,842.07,591.83,838.01,590.54 M741.61,608.39c-4.19,1.42-8.04-1.27-11.54-3.18
		c-4.85,5.52-8.93,11.63-13.43,17.43c-2.61,3.25-4.55,7.27-8.11,9.61c-1.45-0.1-2.84-0.52-4.23-0.85
		c-1.88,6.87-3.39,13.86-5.99,20.5c19.07,1.42,38.15,4.5099,57.31,2.98c4.82-17.41,5.64-35.74,4.47-53.69
		C753.63,602.81,747.9,606.33,741.61,608.39 M366,609.8c-14.06,1.09-27.93,3.91-41.73,6.76c-22.84,4.88-45.84,9.13-68.36,15.38
		c-10.07,3.09-19.3,8.27-28.88,12.55c0.26,1.29,0.46,2.59,0.52,3.93c-4.37-0.73-7.18-4.04-10.4-6.7
		c8.19,12.38,15.04,25.61,21.27,39.07c2.82,0.38,5.68,0.54,8.49-0.05c31.13-6.01,62.29-11.82,93.5-17.37
		c6.14-1,12.31-2.2,18.55-1.99c8.85,0.53,18,2.01,26.61-0.93c29.09-8.69,57.83-18.5,86.52-28.41c10.68-3.95,21.38-7.94,31.73-12.69
		c-2.99-2.22-6.13-4.5699-9.91-5.11c-4.52-0.35-8.85,1.29-13.08,2.62c-26.23,9.43-50.54,23.25-75.54,35.41
		c-2.55,1.08-5.28,2.62-8.13,1.83c-2.99-1.64-3.99-5.09-4.91-8.11c-3.67-12.38-6.68-24.94-10.15-37.37
		C376.69,608.48,371.39,609.73,366,609.8 M1033.4,616.76c-0.01,5.13,0.86,10.21,1.6799,15.27c0.3501,3.72,0.12,7.54,1.2201,11.16
		c0.6399-3.61,1.0199-7.32,0.33-10.96C1035.72,627.06,1035.88,621.52,1033.4,616.76 M1040.87,652.26c-0.96-0.32-1.91-0.63-2.84-0.94
		c-0.3101,1.92-0.8,3.81-1.0801,5.75c1.1101,12.27,0.7201,24.62,0.8601,36.93c-0.13,11.44,0.2899,22.91-0.7401,34.32
		c3.51-4.27,7.2201-8.44,10-13.25c5.88-10.32,11.75-20.69,18.67-30.35c3.98-5.1,7.8-11.0699,14.2-13.33
		c-7.12-18.64-14.7899-37.11-24.1899-54.74C1048.84,627.56,1043.51,639.57,1040.87,652.26 M495.02,626.11
		c-8.83,3.79-17.87,7.04-26.99,10.04c-9.04,3.5-18.3,6.33-27.49,9.39c-11.2,4.06-22.57,7.63-33.94,11.14
		c-8.92,3.04-17.92,5.9-27.15,7.85c-5.11,1.09-10.32,0.28-15.43-0.25c-5.09-0.48-10.22-0.35-15.27,0.37
		c-13.96,2-27.72,5.09-41.62,7.45c-22.1,3.83-44.01,8.63-66.15,12.25c2.16,6.7,5.38,12.97,8.19,19.4
		c7.4,16.12,13.66,32.72,20.15,49.22c6.61,0.0601,12.53-3.15,18.8-4.72c13.21-3.52,26.17-7.88,39.26-11.79
		c20.93-5.85,42.03-11.04,63.19-15.9901c16.16-4.46,32.57-7.95,48.82-12.0699c11.35-3.35,23.01-5.48,34.43-8.56
		c16.45-4.5,33.25-7.59,49.68-12.19c12.78-3.29,25.78-5.78,38.42-9.63c-3.83-6.49-3.62-14.35-6.85-21.02
		c-3.27-5.55-10.61-4.8-16.13-5.17c-5.93,0.01-11.81-2.55-15.38-7.36c-5.98-7.1-10.39-15.46-16.91-22.09
		C502.54,622.66,498.83,624.72,495.02,626.11 M197.26,638.54c-0.49,2.2401-0.35,4.85-2.05,6.64c-13.13,15.4-26.08,30.95-39.17,46.38
		c28.68,13.69,56.98,28.39,83.59,45.82c9.71,6.69,19.59,13.45,27.29,22.48c-1.87-5.48-4.17-10.8-6.69-16.01
		c-5.66-12.98-10.58-26.25-15.85-39.38c-8.55-18.7-17.23-37.41-27.82-55.0699c-1.55-2.64-3.46-5.23-6.21-6.71
		C206.27,640.54,201.67,639.74,197.26,638.54 M810.91,652.07c-12.09,1.18-24.03,3.44-36.09,4.84c-5.11,1.16-10.47,0.1201-15.55,1.14
		c-1.58,2.65-2.48,5.63-3.82,8.4c-7,15.11-16.35,29.26-21,45.38c13.16-0.23,26.34-0.06,39.5-0.6c10.33-0.75,20.7-0.34,31.05-0.47
		c17.85-0.18,35.7-0.2,53.55-0.4c25.12-1.14,50.3-0.5,75.44-0.7c15.01,0.2,30.05-0.47,45.01,0.76c8.6,0.46,17.36-0.51,25.81,1.5
		c10.81,3.75,20.28,12.13,24.18,23.03c1.89,4.62,0.8,9.7,1.5,14.52c2-10,1.5701-20.3,2.09-30.46
		c1.2101-12.63,0.4401-25.34,0.65-38.01c-0.45-7.06-0.91-14.12-0.88-21.19c-6.23,0.56-12.28-0.86-18.16-2.73
		c-9.43-3.02-19.4-2.89-29.18-2.96c-9.35,0.14-18.65-1.07-27.99-0.93c-21.02-0.04-42-1.34-63.02-1.28
		C866.31,651.81,838.55,649.91,810.91,652.07 M698.06,654.09c-5.35,18.93-10.47,37.93-16.35,56.7c-2.15,7.19-5.51,13.95-7.79,21.09
		c-3.98,11.59-5.97,23.86-5.47,36.12c0.43,8.41-1.39,16.67-2.12,25c-0.52,4.1,1.61,8.81,6.03,9.56c11.45,2.76,23.5,2.55,35.09,0.78
		c5.1-0.55,9.03-4.67,10.41-9.45c1.89-6.4,3.46-12.92,4.48-19.51c1.91-22.99,1.44-46.71,9.21-68.75
		c5.76-16.73,15.97-31.43,22.53-47.8c-9.11-0.49-18.27,0.18-27.31-1.14C717.17,656.15,707.63,654.96,698.06,654.09 M583.07,674.43
		c1.27,0.52,2.79,0.67,3.83,1.67c25.16,31.5,45.93,66.36,63.2,102.75c2.14,4.6,2.84,9.69,4.75,14.37c1.14,2.9,4.45,3.7401,6.95,5.08
		c-0.27-7.52,1.28-14.9,1.89-22.36c0.59-8.38-0.3-16.84,0.99-25.18c1.18-11.64,5.65-22.52,9.73-33.36c1.72-3.79-0.37-7.7-1.46-11.33
		c-3.1-8.41-6.26-16.82-10.1-24.92c-2.65-5.65-6.85-10.69-12.46-13.57c-10.44-5.5-22.65-6.36-34.21-5.31
		C604.27,663.58,594.19,670.63,583.07,674.43 M1072.88,679.87c-10.1,11.81-16.95,25.88-25.0601,39.04
		c-3.1599,4.52-6.9299,8.59-10.0499,13.14c2.41,1.66,5.03,3.3,6.48,5.95c-2.51-0.69-4.9399-1.63-7.3-2.68
		c-1.2,7.01,0.1801,14.69-3.5399,21.08c-0.89,1.72-1.0901,3.67-1.12,5.59c0.0399,13.06-1.23,26.07-1.9401,39.1
		c8.49-1.65,16.5601-4.91,24.48-8.29c9.74-4.26,17.17-12.04,24.65-19.32c6.99-7.02,12.6801-15.32,16.6-24.43
		c3.0701-6.96,3.79-14.95,2.0701-22.35c-5.4501-17.73-10.77-35.52-17.48-52.84C1077.6899,675.31,1074.95,677.25,1072.88,679.87
		 M567.02,679.53c-1.79,0-3.31,1.0099-4.97,1.47c-73.61,18.07-147.29,35.88-220.8,54.4c-19.63,5.39-38.97,11.77-58.57,17.24
		c-4.08,1.37-8.19,2.9-12.56,2.8c4.03,9.26,6.96,18.95,10.14,28.53c3.23,9.41,5.92,19.05,7.4,28.91c1.63-3.22,2.73-7.32,6.31-8.89
		c7.66-3.57,15.84-5.89,23.95-8.18c50.27-13.79,101.14-25.19,151.93-36.89c48.08-10.92,96.25-21.47,144.36-32.22
		c0.17-2,0.09-4.11-1.14-5.77c-8.96-14.41-19.03-28.08-29.43-41.47c-1.11-1.23-1.13-2.94-1.41-4.46
		C577.33,677.01,572.36,679.19,567.02,679.53 M1091.16,689.34C1089.61,692.32,1094.48,689.47,1091.16,689.34 M1092.0601,692.53
		c-1.2101,0.8,0.12,2.8799,1.33,1.93C1094.53,693.63,1093.24,691.57,1092.0601,692.53 M149.8,698.87
		c-12.29,14.97-25.04,29.56-36.88,44.89c11.75-2.69,23.45,2,33.42,7.87c13.23,7.6,24.91,17.72,38.71,24.37
		c21.3,11.08,43.47,22.04,60.08,39.85c7.37,7.34,13.62,15.7,20.98,23.05c5.57,5.72,10.66,12.69,18.62,15.17
		c1.08-2.86,2.16-5.84,1.91-8.95c-0.57-9.04-0.99-18.14-2.73-27.05c-2.46-12.65-5.63-25.18-9.58-37.45
		c-2.17-6.39-4.07-13.15-8.64-18.31c-7.51-8.63-16.75-15.56-26.31-21.76c-17.93-12.19-36.98-22.62-56.15-32.71
		c-7.14-3.58-14.46-6.81-21.5-10.57c-2.21-1.15-4.39-2.41-6.77-3.13C152.76,695.08,151.34,697.13,149.8,698.87 M775,713.98
		c-13.57,0.35-27.25-0.59-40.75,1.05c-2.6,4.11-2.38,9.3199-3.38,13.96c-2.76,15.45-2.31,31.24-4.47,46.76
		c8.47-1.45,17.08-0.48,25.62-1.05c19.27-1.47,38.64-0.05,57.92-1.48c15.99-0.5099,32-0.18,48-0.61c10.34-0.64,20.7-0.72,31.06-0.73
		c26.34,0.11,52.67-0.04,79,0.04c12.02-0.14,24.02,0.91,36.03,1.16c6.8199,0.18,11.17,5.92,16.64,9.1
		c4.7501-10.36,6.23-21.88,7.23-33.12c0.8099-7.72-1.0601-15.79-6.15-21.76c-5.6-6.52-12.8-12.82-21.75-13.49
		c-11.29-1.24-22.67-0.74-34-0.94c-47.34-0.57-94.67,0.17-142,0.19C807.65,712.86,791.35,714.19,775,713.98 M574.98,738.04
		c-16.97,4.29-34.24,7.35-51.24,11.53c-18.52,4.17-37.09,8.08-55.56,12.48c-24.27,5.23-48.33,11.32-72.57,16.66
		c-15.5,4.4-31.41,7.15-46.85,11.78c-15.28,3.73-30.55,7.6-45.45,12.66c-4.17,1.45-9.24,2.56-11.34,6.92
		c-3.65,6.87-2.03,14.97-1.36,22.35c3.03,17.98-1.47,35.98-2.56,53.91c3.05-1.59,5.85-3.6,8.45-5.84
		c7.07-6.05,15.89-9.57,24.74-12.13c11.15-3.27,22.45-6.04,33.56-9.48c10.81-3.06,21.79-5.53,32.56-8.76
		c10.13-3.08,20.48-5.34,30.66-8.21c11.7-3.52,23.63-6.17,35.37-9.5699c6.76-1.96,13.51-3.96,20.38-5.51
		c17.48-4.35,34.75-9.53,52.25-13.81c19.88-5.58,39.92-10.6,59.81-16.14c16.72-4.09,33.17-9.19,49.92-13.19
		c3.17-0.78,6.39-1.49,9.36-2.89c-0.51-4.58-3.46-8.4-5.35-12.48c-6.76-13.7-14.28-27.02-22.01-40.19
		C603.75,732.46,589.24,734.78,574.98,738.04 M1101.48,737.87c-1.66,16.29-12.24,29.95-23.59,41.03
		c-6.79,6.35-13.83,12.83-22.5,16.5099c-8.15,3.55-16.51,6.85-25.26,8.55c-1.8199,18.0099-4.62,35.91-9.04,53.44
		c6.32-5.58,14.84-7.16,22.95-8.08c8.6799-1.11,17.6699-3.03,24.6799-8.61c17.3301-12.86,32.73-28.08,48.1901-43.08
		c-1.11-6.66-3.3301-13.07-4.8-19.65C1108.96,764.51,1104.76,751.31,1101.48,737.87 M106.8,750.79
		C95.99,764,85.12,777.15,74.62,790.61c-4.21,6.05-7.51,12.71-10.58,19.41c-0.95,2.6-2.79,5.32-1.62,8.16
		c7,0.57,14.11,0.12,21.01,1.66c14.84,4.65,29.69,9.27,44.42,14.28c42.43,13.95,84.78,28.28,126.27,44.88
		c9.83,4.48,20.36,8.04,28.74,15.09c-0.16-3.21-3.22-5.6201-2.46-8.9301c1.05-6.62,3.8-12.8199,5.14-19.37
		c0.45-3.19,0.33-6.43,0.63-9.63c-2.62-0.04-5.4-0.06-7.56-1.7599c-8.23-5.67-14.33-13.72-21.16-20.88
		c-5.66-6.64-11.66-12.98-17.7-19.27c-14.87-14.38-33.32-24.3-51.61-33.63c-5.35-2.88-10.9-5.41-15.99-8.76
		c-11.59-7.44-22.43-16.17-34.98-22c-5.31-2.62-11.14-4.18-17.07-4.41C115.32,745.86,109.89,746.67,106.8,750.79 M1023.9,781.91
		c-0.7,1.66-2.57,3.3-4.46,2.54c-3.45-1.17-5.72-4.22-8.63-6.23c-3.84-3.1-9.13-2.68-13.77-3.02c-32.99-0.45-65.97-1.24-98.96-0.8
		c-23.03,0.72-46.07,0.5699-69.1,1.0099c-17.3,1.04-34.64,0.6201-51.96,1.05c-16.84,1.09-33.73,0.86-50.6,0.95
		c-0.84,5.56-2.15,11.05-3.57,16.4901c-1.67,6.11-5.98,12.2599-12.58,13.47c-8.29,1.8-16.83,2.36-25.29,1.84
		c-7-1.06-14.84-0.87-20.49-5.81c-4.9-0.8-10.35-2.39-13.17-6.84c-2.1-4.08-3.03-8.64-4.29-13.01
		c-30.58,7.65-60.9,16.28-91.4301,24.14c-64.65,17.45-129.4,34.5-193.99,52.18c-17.16,5.07-34.77,8.74-51.47,15.28
		c-8.1,3.31-14.14,9.91-21.47,14.48c-2.65,1.36-1.35,4.9-2.08,7.29c-1.48,7.34-0.04,14.9-1.35,22.27c-0.52,6.05-1.93,12-1.91,18.11
		c1.5,0.54,3.03,1.34,4.69,0.95c4.57-0.65,9.04-1.89,13.57-2.76c56.65-13.04,113.16-26.71,169.69-40.29
		c52.18-12.68,103.65-28.1,155.7-41.29c22.92-6.05,46.07-11.35,69.44-15.3c23.7-3.33,47.64-5.01,71.58-4.73
		c10.68-0.32,21.31,0.91,31.99,0.86c30.01,0.56,60.02-0.04,90.03-0.11c25.31-0.43,50.65-0.89,75.97,0.02
		c17.86-0.11,35.57,2.7599,53.08,5.99l0.76-0.5c4.28-20.12,6.3699-40.64,7.17-61.16c0.34-2.77,0.87-5.54,0.66-8.34
		C1026.34,774.37,1025.52,778.29,1023.9,781.91 M1101.3,816.31c-9.79,9.24-19.8201,18.28-30.6101,26.36
		c-6.9299,5.24-15.5299,7.52-23.95,9c-7.64,1.36-16.15,1.5-22.42,6.68c-4.8799,3.92-5.5699,10.52-6.8099,16.22
		c-1.38,7.62-3.69,15.04-5.02,22.66c-0.86,7.95-0.36,16.51,3.63,23.62c1.81,3.64,6.09,4.78,9.84,5.01
		c9.12,0.43,18.12-1.61,26.86-4.02c16.67-4.52,33.16-10.17,48.2301-18.73c8.51-4.83,13.2899-13.76,18.13-21.88
		c4.5499-7.72,7.6599-17.22,16.1699-21.56c-2.3199-7.26-5.5399-14.19-7.53-21.55c-3.95-12.12-6.1499-24.7-9.86-36.88
		C1111.73,805.48,1106.89,811.33,1101.3,816.31 M58.96,818.19c0.5-3.69,1.96-7.1,3.03-10.62C59.04,810.3,57.73,814.3,58.96,818.19
		 M59.78,820.17c1.67,5.46,3.87,10.94,3.84,16.74c-0.43,10.02-4.72,19.23-7.59,28.6801c10.85,4.75,16.17,16.87,27.32,21.11
		c18.08,7.08,37.33,10.31,55.83,16.02c22.16,5.55,44.26,11.3,66.44,16.73c19.75,5.43,39.75,9.88,59.42,15.62
		c4.17,1.3,7.47,4.29,11.09,6.61c1.24-3.17,2.34-6.44,2.65-9.85c0.9-9.25,1.39-18.54,2.35-27.79c0.29-3.36,0.35-7.35-2.51-9.69
		c-6.54-5.5-14.91-7.97-22.55-11.5c-8.83-4.18-18.18-7.06-27.18-10.83c-8.16-3.45-16.64-6.07-24.98-9.04
		c-24.28-9.13-49.03-16.92-73.56-25.34c-14.72-4.52-29.21-9.75-43.99-14.11C77.8,820.42,68.49,822.65,59.78,820.17 M716.57,838.69
		c-28.19,3.14-56.01,9.11-83.39,16.42c-10.63,2.45-21.15,5.29-31.63,8.26c-18.86,4.52-37.35,10.41-56.16,15.1
		c-17.43,5.13-35.13,9.27-52.62,14.1801c-30.28,7.52-60.67,14.5699-90.96,22.05c-16.47,3.71-32.87,7.68-49.25,11.74
		c-16.65,3.53-33.11,7.89-49.77,11.4c-6.59,1.28-13.14,3.43-19.94,2.8799c-1.94,17.2-3.62,34.4301-5.46,51.65
		c-0.24,2.48-0.55,4.99-0.22,7.48c0.49,2.91,2.53,6.12,5.84,6.03c12.95,1.01,25.8-1.67,38.42-4.27c16.05-2.8,31.97-6.35,47.8-10.24
		c11.83-2.91,23.82-5.21,35.57-8.49c12.23-3.48,24.75-5.8,37.02-9.18c13.43-3.83,27.12-6.69,40.56-10.5
		c14.72-4.06,29.73-6.98,44.43-11.14c11.78-2.75,23.64-5.16,35.44-7.85c14.41-3.73,28.92-7.05,43.32-10.78
		c12.05-3.76,24.41-6.32,36.69-9.18c39.18-9.41,79.54-12.58,119.68-14.44c8.59-0.96,17.25-0.32,25.85-1.15
		c10.02-0.94,20.1-0.22,30.13-0.97c12.02-1.05,24.1-0.45,36.14-0.95c22.27-1.61,44.63-0.08,66.91-1.57
		c18.01-0.23,36.02-0.27,54.04-0.15c10.28-0.09,20.52,1.34,30.82,0.97c3.01-12.57,5.24-25.3,8.29-37.86
		c1.82-8.25,4.08-16.45,4.92-24.89c-18.19-3.17-36.5099-6.46-55.04-6.17c-28-0.07-56-0.06-84,0.06c-24-0.08-48,0.58-71.99,0.1
		C777.53,837.21,746.95,835.59,716.57,838.69 M1144.1801,867.95c2.1599,5.37,4.7999,10.53,7.0199,15.88
		c1.24,2.93,2.3201,5.97,4.12,8.64C1153.34,883.68,1149.99,874.94,1144.1801,867.95 M54.66,869.21
		c-8.38,25.84-16.23,51.86-24.02,77.89c7.88,3.35,15.62,7.12,23.91,9.36c30.21,9.22,60.5,18.22,91.07,26.19
		c28.87,8.03,58.59,12.33,88.32,15.6c12.47,2.01,25.47,2.13,37.39,6.66c0.72-4.93,1.7-9.9,0.96-14.89
		c-1.12-5.95-0.93-12.07-0.01-18.02c0.33-9.06,1.77-18.06,3.67-26.92c-4.44-2.51-7.92-6.75-13.02-7.99
		c-45.03-11.97-90.33-22.91-135.38-34.79c-16.03-5-33.02-7.22-48.24-14.62c-8.1-3.85-12.82-11.95-19.82-17.22
		C58.17,869.23,56.35,869.12,54.66,869.21 M866.01,909.16c-13.33,0.25-26.7-0.25-39.97,1.07c-8.92,0.17-17.86,0.08-26.7599,0.51
		c-9.8,1.45-19.79,0.06-29.59,1.51c-6.21,0.57-12.48,0.12-18.69,0.67c-5.21,0.89-10.49,0.7-15.74,0.91
		c-10.8,1.17-21.67,1.42-32.45,2.84c-24.41,2.52-48.5,7.39-72.38,12.96c-28.59,7.19-56.99,15.15-85.86,21.15
		c-72.26,16.73-143.56,37.46-216.25,52.37c-13.31,2.72-26.74,5.02-40.31,5.88c-4.42,0.18-9.04-0.84-12.03-4.32
		c0.34,7.83-1.38,15.53-1.26,23.35c-0.07,4.8899-1.27,9.7-1.05,14.61c5.87-5.27,14.24-5.66,21.61-4.15
		c13.26,2.23,26.1,7.41,39.71,7.15c12.66,0.01,25.34,0.13,38-0.38c7.37-1.29,14.94-0.1001,22.29-1.54
		c11.29-0.63,22.53-1.99,33.73-3.6c15.73-2.54,31.13-6.7001,46.63-10.3201c71.17-17.36,142.17-35.7599,214.3-48.83
		c29.79-5.33,59.86-9.02,90.03-10.76c6.3701,0.17,12.66-1.11,19.02-1.06c8.73-0.06,17.45-0.47,26.16-0.96
		c28.28-0.42,56.5699-0.49,84.85-0.4c24.93-0.17,49.92,0.85,74.79-1.24c3.45-0.4,7.87-1.44,8.6-5.49
		c4.14-17.1,8.03-34.29,11.43-51.56c-3.78-1.4-7.85-1.27-11.8-1.38c-16.68-0.03-33.35-0.52-50.03-0.27
		C917.34,908.51,891.63,907.57,866.01,909.16 M30.16,949.99c-2.22,6.19-4.14,12.49-6.65,18.58c-2.73,7-6.27,13.64-9.39,20.46
		c-3.28,7.5099-6.98,14.91-9.06,22.87c-1.5,5.09-0.98,10.48-0.71,15.72c1.14,0.6,2.29,1.1901,3.44,1.8
		c-0.02,1.4199-0.06,2.87-0.07,4.3199c7.19,6,16.07,9.36,24.69,12.76c35.31,12.42,72.01,20.16,108.5,28.24
		c14.33,3.29,28.83,5.87,43.07,9.5701c12.4,3.11,24.89,5.8999,37.43,8.3799c9.55,1.8701,19.31,4,29.07,2.6801
		c6.81-2.8199,9.5-10.13,11.88-16.51c0.99-5.24,0.9-10.63,2.14-15.8099c-5.76,0.4299-11.59,0.62-17.34,0
		c-23.93-2.4701-47.83-6.4301-70.95-13.2301c-21.85-6.9099-43.14-15.4399-64.58-23.5099c-29.9-11.8101-59.84-23.54-89.48-35.98
		c-1.51,1.19-3.49,2.25-5.18,0.67c0.86-0.3,1.72-0.58,2.58-0.85c-0.5-1.14-1-2.27-1.49-3.39c6.06,0.91,11.44,3.96,17.08,6.16
		c8.89,3.89,18.07,7.08,26.97,10.94c32.91,12.94,65.65,26.36,99.04,38.02c8.94,3.47,18.1,6.38,27.45,8.5699
		c20.19,4.6001,40.57,8.87,61.3,10c4.99,0.5601,10.03,0.3201,14.97-0.6c4.14-7.98,4.19-17.15,4.41-25.91
		c0.67-8.6699,1.2-17.3599,1.95-26.02c-1.95-0.85-3.9-1.72-5.96-2.24c-20.3-3.92-40.91-5.85-61.4-8.47
		c-17.79-2.19-35.28-6.18-52.69-10.38c-33.41-8.66-66.57-18.28-99.52-28.55C44.14,956.45,37.4,952.56,30.16,949.99 M275.2,964.74
		c-0.97,1.2-0.96,3.29-0.02,4.53C276.65,968.88,276.7,965.08,275.2,964.74 M945,970.18c-35.51,0.25-71.04-0.49-106.54,0.4
		c-9.14,0.54-18.29,0.83-27.45,0.69c-7.89-0.19-15.69,1.42-23.58,1.22c-29.6,1.79-59.2,4.46-88.43,9.53
		c-21.92,4.41-44.06,7.7-65.77,13.08c-23,4.67-45.75,10.44-68.64,15.59c-19.05,5.17-38.45,8.95-57.47,14.22
		c-12.29,3.12-24.73,5.5699-36.92,9.0599c-11.46,2.85-23,5.41-34.6,7.65c-35.5,6.39-71.7,7.02-107.66,6.28
		c-13.64-0.7001-26.32-6.84-39.92-7.66c-6.51-0.36-14.5,3.58-15.04,10.76c-0.84,6.91-0.94,14-3.33,20.63
		c-1.42,5.05-4.61,10.1899-2.95,15.59c1.09,3.9501,2.9,8.76,7.46,9.65c14.36,3.35,29.23,3.14,43.89,3.42
		c9.95,0.5399,19.92,0.85,29.88,0.36c17.32-1.09,34.71,0.0599,52.01-1.4301c8.27-0.53,16.58-0.01,24.84-0.83
		c7.25-0.73,14.56-0.23,21.82-0.9301c7.43-0.75,14.92-0.4299,22.34-1.3099c27.46-1.88,54.98-3.1901,82.29-6.8201
		c21.1-2.36,42.02-5.95,63.03-8.9399c28.34-4.02,56.5-8.98,84.8-13.3c14.63-2.0499,29.07-5.21,43.69-7.2799
		c20.96-3.02,41.74-7.1201,62.68-10.28c23.27-3.6901,46.52-7.5701,69.81-11.1901c30.87-4.25,61.63-10.09,92.82-11.48
		c4.32-0.4399,8.15,1.72,11.24,4.54c3.02-21.33,7.93-42.31,12.43-63.36C976.3,970.92,960.59,969.99,945,970.18 M923.72,1033.91
		c-21,3.12-42.0699,5.87-63.0099,9.4c-61.31,9.6599-122.5,20.1-183.78,29.97c-42.58,6.8099-85.17,13.7-127.98,18.98
		c-17.88,2.25-35.81,3.9299-53.82,4.75c-7.77,1.2-15.67,0.5699-23.45,1.72c-11.94,0.27-23.81,1.51-35.76,1.63
		c-8.65,1.01-17.37,0.7001-26.05,1.11c-14.24,1.53-28.62,0.2101-42.86,1.7101c-15.66,0.24-31.34,0.13-47,0.12
		c-9.03,0.23-17.97-1.1901-27-1.1101c-8.46-1.1899-17.6-0.8899-25.16-5.4399c3.09,19.23,6.85,38.36,9.36,57.6899
		c8.6-0.0099,17.22-0.0699,25.77,0.8101c38.31,0.34,76.61,0.39,114.92,0.21c9.36-0.2899,18.78,0.3501,28.1-0.77
		c8.32-0.4199,16.67-0.2,24.99-0.5599c4.97-0.74,9.99-0.88,15.01-0.91c19.86-1.4399,39.74-2.85,59.56-4.8199
		c59.27-6.4301,118.13-16.5801,177.41-22.99c36.11-4.52,72.3701-8.0701,108.44-12.86c23.56-2.76,47.1-5.76,70.55-9.3601
		c19.86-3.2899,40.0099-5.7,59.23-11.9099c7.22-1.79,11.28-9.0901,13.16-15.74c0.4901-11.5701,2.5-23.01,3.59-34.52
		c0.4-4.78-2.09-11.89-7.93-11.36C954.49,1029.66,939.09,1031.99,923.72,1033.91 M962.77,1093.65
		c-13.91,4.6799-28.49,6.9-42.92,9.27c-34.9,6.1599-70.16,9.8099-105.2599,14.49c-44.88,5.08-89.72,10.4399-134.57,15.74
		c-19.33,2.66-38.6,5.7-57.97,8.01c-22,3.01-43.94,6.4399-66.03,8.71c-27.25,3-54.61,4.8199-81.95,6.79
		c-7.69,0-15.36,0.37-23.02,0.95c-22.35,0.3201-44.71,0.11-67.05,0.97c-11.01,0.36-22-0.47-33-0.47
		c-24.35-0.52-48.7,0.01-73.04-0.84c0.67,12.4,4.88,24.3199,5.19,36.77c1.08,8.58-1.05,17.0299-2.06,25.5
		c15.44,5.1499,31.04,10.2999,47.3,12.0299c10.89,1.13,21.76-0.86,32.66-0.72c10.98-0.9399,22.01-0.9399,32.97-2.08
		c25.45-1.3201,50.81-3.54,76.23-5.25c50.61-3.37,101.16-7.48,151.73-11.4301c45.96-3.1799,91.77-8,137.61-12.64
		c23.23-2.46,46.4-5.46,69.62-8.0699c20.99-2.66,42.23-3.1901,63.08-6.91c21.59-3.39,42.16-11.59,61.41-21.76
		c5.39-2.6499,9.84-6.89,13.14-11.88c2.89-4.47,6.39-9.22,5.89-14.84c-0.87-16.6899-0.61-33.42,0.48-50.08
		C970,1088.8,967.04,1092.3199,962.77,1093.65z"/>
	<path fill="#030203" stroke="#030203" stroke-width="0.594" d="M622.39,672.45c7.69-2.39,17.16,1.25,20,9.06
		c1.22,4.47,0.84,9.5-1.26,13.67c-2.59,4.59-8.11,6.58-13.13,6.74c-5.98,0.42-11.59-3.27-15.03-7.92
		c-3.2-4.62-1.16-10.49,1.02-15.07C615.46,675.46,618.88,673.41,622.39,672.45 M624.37,674.44c-7.77,0.73-11.53,9.52-10.31,16.44
		c1.12,3.59,4.61,5.71,7.73,7.43c4.25,2.47,9.53,1.31,13.67-0.81c3.82-2.01,5.24-6.5,5.36-10.55
		C641.5,678.66,632.07,672.08,624.37,674.44z"/>
	<path fill="#070202" stroke="#070202" stroke-width="0.594" d="M632.09,229.19c7.27-4.24,16.02-3.45,24.02-2.42
		c5.48,0.61,10.77,2.2,16.01,3.83c-1.44,1.23-2.86,2.47-4.29,3.71c-4.72-2-9.81-2.71-14.81-3.64c-0.22,3.47,0.86,7.71-2,10.41
		c-3.54,3.46-8.96,4.29-13.7,3.67c-4.11-1.62-6.29-5.76-8.01-9.56c-4.72,3.23-9.34,6.63-13.48,10.59
		c6.93,1.86,14.09,2.52,21.18,3.42c7.43,0.26,14.7-2.08,21.56-4.74c4.58-2.05,9.59-4.08,12.63-8.27c0.17-0.22,0.51-0.66,0.68-0.87
		c0.16,0.54,0.47,1.62,0.63,2.16c0.7,0.27,2.1,0.81,2.81,1.08c-4.45,4.87-10.52,7.72-16.47,10.28
		c-6.2599,2.64-12.97,4.75-19.84,4.31c-9.51-0.69-19.01-2.57-27.93-5.94C617.02,240.12,624.09,233.87,632.09,229.19 M634.61,232.55
		c-2.11,0.63-2.21,3.39-1.54,5.12c1.32,2.91,4.37,5.34,7.71,5c3.68-0.26,8.17-1.33,9.7599-5.09c0.46-2.18,0.31-4.42,0.36-6.63
		C645.48,229.83,639.64,230.06,634.61,232.55z"/>
	<path fill="#0A0302" stroke="#0A0302" stroke-width="0.594" d="M459.58,228.7c6.33-1.64,12.92-1.83,19.42-2.13
		c11.04,0.64,22.21,1.05,33.04,3.48c7.95,1.78,10.73,10.34,13.98,16.78c-19.79-0.13-39.56-2.42-59.36-1.19
		c-4.56,0.32-9.56-0.13-13.56,2.49c-4.49,3.08-7.62,7.67-11.92,10.98c1.61-6.19,6.9-10.59,12.26-13.6
		c7.12-2.88,15.03-2.42,22.57-2.64c11.34-0.28,22.64,0.93,33.98,1.04c4.1,0.08,8.2,0.34,12.3,0.59c-1.55-3.26-2.91-6.75-5.54-9.32
		c-2.52-2.43-6.12-3.1-9.43-3.67c-12.31-1.81-24.77-2.95-37.21-2.13c-5.51,0.51-11.54,1.08-15.96,4.78
		c-5.75,4.88-9.38,11.65-12.78,18.26c-0.71,1.7-2.23,2.72-3.9,3.33c2.65-6.66,6.17-13.01,10.7-18.58
		C451.26,233.56,454.84,229.94,459.58,228.7z"/>
	<path fill="#2F2F2E" stroke="#2F2F2E" stroke-width="0.594" d="M454.15,234.16c4.42-3.7,10.45-4.27,15.96-4.78
		c12.44-0.82,24.9,0.32,37.21,2.13c3.31,0.57,6.91,1.24,9.43,3.67c2.63,2.57,3.99,6.06,5.54,9.32c-4.1-0.25-8.2-0.51-12.3-0.59
		c-11.34-0.11-22.64-1.32-33.98-1.04c-7.54,0.22-15.45-0.24-22.57,2.64c-5.36,3.01-10.65,7.41-12.26,13.6
		c-0.27,0.81-0.53,1.62-0.77,2.44c-1.11-1.61-2.21-3.21-3.33-4.8c-0.1-0.16-0.32-0.47-0.43-0.63l0.82-0.37
		c1.67-0.61,3.19-1.63,3.9-3.33C444.77,245.81,448.4,239.04,454.15,234.16z"/>
	<path fill="#2F2F30" stroke="#2F2F30" stroke-width="0.594" d="M634.61,232.55c5.03-2.49,10.87-2.72,16.29-1.6
		c-0.05,2.21,0.1,4.45-0.36,6.63c-1.59,3.76-6.08,4.83-9.7599,5.09c-3.34,0.34-6.39-2.09-7.71-5
		C632.4,235.94,632.5,233.18,634.61,232.55z"/>
	<path fill="#FCFDFC" stroke="#FCFDFC" stroke-width="0.594" d="M653.02,230.67c5,0.93,10.09,1.64,14.81,3.64
		c1.13,0.59,2.25,1.23,3.37,1.88c-3.04,4.19-8.05,6.22-12.63,8.27c-6.86,2.66-14.13,5-21.56,4.74c-7.09-0.9-14.25-1.56-21.18-3.42
		c4.14-3.96,8.76-7.36,13.48-10.59c1.72,3.8,3.9,7.94,8.01,9.56c4.74,0.62,10.16-0.21,13.7-3.67
		C653.88,238.38,652.8,234.14,653.02,230.67z"/>
	<path fill="#352F2B" stroke="#352F2B" stroke-width="0.594" d="M672.12,230.6c1.59,1.07,3.8,1.75,4.55,3.7
		c0.03,1.36-0.13,2.72-0.21,4.08l-1.14,0.18c-0.71-0.27-2.11-0.81-2.81-1.08c-0.16-0.54-0.47-1.62-0.63-2.16
		c-0.17,0.21-0.51,0.65-0.68,0.87c-1.12-0.65-2.24-1.29-3.37-1.88C669.26,233.07,670.68,231.83,672.12,230.6z"/>
	<path fill="#0D0000" stroke="#0D0000" stroke-width="0.594" d="M753.9,240.87c4.18,2.41,7.67,6.53,8.77,11.26
		c0.46,9.79,0.13,19.61-0.08,29.41c-0.56,0.07-1.67,0.21-2.22,0.27c0.06-8.27,0.29-16.54,0.26-24.81c-0.13-2.2,0.11-4.57-1-6.56
		C758.02,247.05,754.35,244.81,753.9,240.87z"/>
	<path fill="#100000" stroke="#100000" stroke-width="0.594" d="M586.63,247.98c-0.18-1.51,0.73-2.7,1.96-3.44
		c0.21,6.26,0.29,12.63,2.09,18.69c2.74,8.94,5.12,18.2,10.55,25.97c-4.93-1.19-6.39-6.4-7.83-10.58
		C590.2,268.67,585.89,258.66,586.63,247.98z"/>
	<path fill="#100000" stroke="#100000" stroke-width="0.594" d="M535.68,334.56c1.38-5.91,4.24-11.6,8.62-15.86
		c0.74,3.52-2.54,5.94-3.79,8.9c-2.55,5.22-4.61,11.86-1.47,17.26c1.88,3.62,6.37,3.94,9.96,4.25c2.29,0.39,5.35-0.33,6.71,2.1
		c-5.26,0.3-11.01,0.53-15.71-2.22C535.36,345.88,534.62,339.63,535.68,334.56z"/>
	<path fill="#100000" stroke="#100000" stroke-width="0.594" d="M380.57,347.43c2.07-3.21,6.83-2.02,9.78-0.78
		c2.46,4.32,2.03,9.85,5.13,13.88c2.64,2.88,6.26,4.55,9.56,6.54c-0.27,0.47-0.8,1.41-1.07,1.88c-4.25-2.05-8.84-4.25-11.4-8.43
		c-2.03-3.81-2.6-8.18-3.78-12.29C386.04,348.02,383.29,347.81,380.57,347.43z"/>
	<path fill="#130605" stroke="#130605" stroke-width="0.594" d="M437.08,256.75c1.12,1.59,2.22,3.19,3.33,4.8
		c-1.48,1.17-3.07,2.19-4.73,3.08C435.44,261.9,436.08,259.26,437.08,256.75z"/>
	<path fill="#080303" stroke="#080303" stroke-width="0.594" d="M492.34,259.48c5.86-1.93,12.05-0.67,17.94,0.41
		c6.57,1.49,13.3,2.72,19.49,5.45c0.57,1.83-1.28,2.93-2.3,4.12c-6.16,5.62-12.6,11.16-20.15,14.83
		c-7.97,3.41-16.77,4.14-25.32,4.88c-5.86-0.07-12.55,0.93-17.61-2.69c-2.06-3.23,1.15-6.54,2.96-9.08
		C474.11,269.63,482.6,263,492.34,259.48 M503.88,262.61c1.67,3.81,0.95,8.51-1.38,11.89c-3,3.54-8.07,4.09-12.4,3.53
		c-3.83-1.14-6.68-4.31-7.6-8.17c-5.05,4.13-10.47,7.97-14.3,13.35c6.72,3.68,14.61,0.39,21.8,0.42c7.37-1.13,15.11-2.02,21.58-6.08
		c4.83-2.99,9.25-6.64,13.27-10.65C518.12,264.47,511.18,261.83,503.88,262.61 M484.8,270.34c1.55,2.35,3.28,5.13,6.34,5.54
		c4.33,0.81,10.17-1.08,10.99-5.97c0.26-1.91,0.84-4.86-1.38-5.82C494.67,263.1,489.17,266.5,484.8,270.34 M483.68,286.31
		c0.43,1.46,4.24,1.46,4.67-0.02C487.04,285.38,484.97,285.41,483.68,286.31z"/>
	<path fill="#FDFDFB" stroke="#FDFDFB" stroke-width="0.594" d="M503.88,262.61c7.3-0.78,14.24,1.86,20.97,4.29
		c-4.02,4.01-8.44,7.66-13.27,10.65c-6.47,4.06-14.21,4.95-21.58,6.08c-7.19-0.03-15.08,3.26-21.8-0.42
		c3.83-5.38,9.25-9.22,14.3-13.35c0.92,3.86,3.77,7.03,7.6,8.17c4.33,0.56,9.4,0.01,12.4-3.53
		C504.83,271.12,505.55,266.42,503.88,262.61z"/>
	<path fill="#30302F" stroke="#30302F" stroke-width="0.594" d="M484.8,270.34c4.37-3.84,9.87-7.24,15.95-6.25
		c2.22,0.96,1.64,3.91,1.38,5.82c-0.82,4.89-6.66,6.78-10.99,5.97C488.08,275.47,486.35,272.69,484.8,270.34z"/>
	<path fill="#A6796B" stroke="#A6796B" stroke-width="0.594" d="M365.27,291.04c0.63-5.73,6.93-11.63,12.85-9.07
		c4.55,1.85,8.82,4.35,12.91,7.05c1.31,0.76,1.69,2.29,2.09,3.65c8.77,40.4,20.06,80.24,33.26,119.41
		c-4.44,0.51-9.13,1.55-13.48,0.04c-3.73-1.71-6.46-4.93-8.92-8.11c-3.61-4.82-7.1-10.05-8.03-16.13
		c-0.81-5.25-1.88-10.58-4.58-15.23c-4.43-7.82-10.2-14.82-14.18-22.91c-5.76-10.51-7.83-22.46-9.79-34.14
		C366.13,307.48,364.84,299.28,365.27,291.04 M367.38,298.98c0.56,8.03,1.87,16.04,3.88,23.85c1.67,6.7,4.71,13.32,9.82,18.09
		c2.18,2.34,5.59,1.41,8.41,1.35c-0.62-1.61-2.17-2.16-3.64-2.72c1.85-6.03,3.62-12.2,3.27-18.57c-0.26-2.32,0.62-5.73-2.24-6.67
		c-0.3,4.16,0.04,8.34-0.32,12.49c-0.5,4.4-1.97,8.62-3.52,12.74c-6.31-5.96-9.07-14.46-10.76-22.73c-1.37-7-2.79-14.1-2.31-21.26
		c9.21,2.87,15.57,10.83,24.3,14.53c-0.97-3.53-4.54-5.07-7.18-7.16c-5.01-3.39-9.81-7.43-15.62-9.35
		C368.28,292.55,367.13,296.54,367.38,298.98 M380.57,347.43c2.72,0.38,5.47,0.59,8.22,0.8c1.18,4.11,1.75,8.48,3.78,12.29
		c2.56,4.18,7.15,6.38,11.4,8.43c0.27-0.47,0.8-1.41,1.07-1.88c-3.3-1.99-6.92-3.66-9.56-6.54c-3.1-4.03-2.67-9.56-5.13-13.88
		C387.4,345.41,382.64,344.22,380.57,347.43z"/>
	<path fill="#424141" stroke="#424141" stroke-width="0.594" d="M483.68,286.31c1.29-0.9,3.36-0.93,4.67-0.02
		C487.92,287.77,484.11,287.77,483.68,286.31z"/>
	<path fill="#0F0102" stroke="#0F0102" stroke-width="0.594" d="M367.38,298.98c-0.25-2.44,0.9-6.43,4.09-5.41
		c5.81,1.92,10.61,5.96,15.62,9.35c2.64,2.09,6.21,3.63,7.18,7.16c-8.73-3.7-15.09-11.66-24.3-14.53
		c-0.48,7.16,0.94,14.26,2.31,21.26c1.69,8.27,4.45,16.77,10.76,22.73c1.55-4.12,3.02-8.34,3.52-12.74
		c0.36-4.15,0.02-8.33,0.32-12.49c2.86,0.94,1.98,4.35,2.24,6.67c0.35,6.37-1.42,12.54-3.27,18.57c1.47,0.56,3.02,1.11,3.64,2.72
		c-2.82,0.06-6.23,0.99-8.41-1.35c-5.11-4.77-8.15-11.39-9.82-18.09C369.25,315.02,367.94,307.01,367.38,298.98z"/>
	<path fill="#0F0102" stroke="#0F0102" stroke-width="0.594" d="M624.77,296.82c5.46-0.13,10.67,3.84,12.18,9.07
		c1.45,5.06,2.31,10.59,0.61,15.7c-1.03,2.91-1.86,6.38-4.9,7.83c0.88-4.9,3.97-9.31,3.65-14.42c-0.3-3.91-0.84-8.01-2.84-11.46
		C631.14,300.63,627.46,299.33,624.77,296.82z"/>
	<path fill="#0D0402" stroke="#0D0402" stroke-width="0.594" d="M614.19,325.19c3.67-2.43,8.84-5.82,12.98-2.37
		c2.44,1.14,3.98,5.04,0.7,6.2c-5.24,0.13-11.08-0.12-15.31,3.53c-3.27,2.21-4.4,6.23-7.29,8.79
		C605.33,334.89,608.67,328.6,614.19,325.19 M615.42,327.46c4.26-0.42,8.53-0.77,12.81-1c-1.41-0.93-2.72-2.13-4.36-2.61
		C620.63,323.6,617.97,325.81,615.42,327.46 M613.22,328.15C613.34,331.47,616.23,326.6,613.22,328.15z"/>
	<path fill="#333132" stroke="#333132" stroke-width="0.594" d="M615.42,327.46c2.55-1.65,5.21-3.86,8.45-3.61
		c1.64,0.48,2.95,1.68,4.36,2.61C623.95,326.69,619.68,327.04,615.42,327.46z"/>
	<path fill="#747573" stroke="#747573" stroke-width="0.594" d="M613.22,328.15C616.23,326.6,613.34,331.47,613.22,328.15z"/>
	<path fill="#0C0605" stroke="#0C0605" stroke-width="0.594" d="M553.1,338.11c6.01-3.37,13.22-2.63,19.86-2.87
		c2.36-0.23,4.34,1.29,5.66,3.11c2.38,2.89,4.01,6.38,4.56,10.1c-2.09-1.51-3.29-3.82-4.97-5.7c-7.64-3.24-16.64-3.13-24.27,0.16
		c-1.1,0.41-1.69,1.5-2.42,2.34c1.87,0.63,4.65,0.31,5.16,2.78c-2.05-0.13-4.23,0.22-6.14-0.66
		C549.04,344.25,550.68,340.29,553.1,338.11z"/>
	<path fill="#967266" stroke="#967266" stroke-width="0.594" d="M604.41,356.43c8.26-1.14,16.57,0.12,24.73,1.41
		c10.34,2.01,20.72,4.78,29.89,10.11c5.4,3.06,9.89,7.43,14.15,11.88c14.08,13.92,22.19,32.59,27.92,51.25
		c2.98,7.69,3.22,16.01,4.96,23.99c1.38,6.56,1.22,13.29,1.15,19.96c-0.2,8.31-3.25,17-9.73,22.49c-4.84,4.21-9.95,8.12-15.3,11.66
		c-9.87,6.63-19.47,13.97-30.59,18.44c-7.19,3.36-14.6,6.66-22.61,7.39c-9.4,0.6-18.92,0.46-28.12-1.74
		c-14.49-1.7-28.38-6.35-42.15-10.98c-9.31-3.5-18.9901-7.67-25.31-15.69c-6.05-8.15-7.97-18.45-8.84-28.35
		c-0.88-7.73-0.71-15.52-0.59-23.28c0.79-13.45,3.89-26.64,7.29-39.64c2.59-9.89,8.34-18.54,14.62-26.47
		c9.93-10.56,22.09-18.63,33.41-27.58c1.97-1.57,4.15-3.02,6.71-3.36C592.08,356.85,598.29,357.15,604.41,356.43 M601.04,381.98
		c-6.29,0.25-12.99,0.23-18.6,3.51c-5.48,3.34-10.73,7.1-15.25,11.69c-5.87,5.13-11.64,10.38-17.3,15.75
		c-2.42,2.32-3.11,5.73-4.2,8.77c-2.54,8.01-6.13,15.81-6.75,24.28c-0.56,6.31-1.69,12.82,0.05,19.05
		c1.87,6.39,4.68,12.74,9.56,17.42c8.55,7.93,17.03,16.82,28.43,20.51c6.15,2.08,12.89,4.34,19.35,2.25
		c7.8-3.1,14.79-10.38,14.73-19.19c-0.1-7.39-3.18-14.28-4.74-21.41c-1.76-8.05-10.9-9.91-16.56-14.4
		c-2.89-3.38,1.21-7.54,0.06-10.98c12.88,0.63,25.77-1.24,38.29-4.21l-0.16,0.39c2.35,0.56,4.83,0.64,7.1,1.55
		c2.07,1.22,3.54,3.19,5.16,4.93c-2.58,3.5-5.55,6.71-7.98,10.32c-2.55,3.74-2.17,8.48-2.25,12.79c0.13,5.31-0.27,10.65,0.23,15.95
		c0.52,5.8,6.67,10.9,12.5,8.65c5.86-2.38,11.29-5.79,16.39-9.53c10.08-7.31,21.53-14.83,25.81-27.15
		c2.8-10.74-0.0699-22.01-3.67-32.21c-2.9-7.46-6.02-15.33-12.51-20.45c-11.69-9.58-25.86-15.83-40.45-19.5
		C619.21,378.59,610.12,381.72,601.04,381.98z"/>
	<path fill="#1C0101" stroke="#1C0101" stroke-width="0.594" d="M607.67,392.66c6.77-2.32,13.05-6.34,20.32-6.94
		c7.9-0.65,15.41,2.61,22.39,5.92c3.99,2.1,8.5,4.06,10.91,8.1c1.39,2.06-0.35,4.4-1.22,6.3c-4,6.78-8.29,13.54-14,19.02
		c-5.01,4.84-11.64,7.33-17.96,9.96c-12.52,2.97-25.41,4.84-38.29,4.21c-15.78-0.84-28.34-11.86-38.14-23.26
		c9.33-6.77,17.68-14.99,27.92-20.43C588.31,390.7,598.57,395.81,607.67,392.66 M600.99,396.48c-5.54,0.23-11.16-1.76-16.63-0.16
		c-5.44,1.63-9.93,5.27-14.44,8.57c-3.75,2.91-7.92,5.44-10.75,9.34c4.58,0.58,9.09-0.52,13.57-1.3
		c28.17-4.61,56.36-9.16,84.43-14.29c-7.57-5.13-16.1-9.31-25.24-10.52C620.7,386.96,611.98,396.29,600.99,396.48 M582.58,415.39
		c-8.03,1.44-16.16,2.36-24.09,4.28c7.93,8.32,17.85,15.62,29.59,16.93c15.21,0.78,30.81-0.83,45.08-6.37
		c12.78-4.89,20.4901-17.24,26.31-28.95C634,406.84,608.24,410.87,582.58,415.39z"/>
	<path fill="#AE4848" stroke="#AE4848" stroke-width="0.594" d="M600.99,396.48c10.99-0.19,19.71-9.52,30.94-8.36
		c9.14,1.21,17.67,5.39,25.24,10.52c-28.07,5.13-56.26,9.68-84.43,14.29c-4.48,0.78-8.99,1.88-13.57,1.3c2.83-3.9,7-6.43,10.75-9.34
		c4.51-3.3,9-6.94,14.44-8.57C589.83,394.72,595.45,396.71,600.99,396.48z"/>
	<path fill="#B04647" stroke="#B04647" stroke-width="0.594" d="M582.58,415.39c25.66-4.52,51.42-8.55,76.89-14.11
		c-5.8199,11.71-13.53,24.06-26.31,28.95c-14.27,5.54-29.87,7.15-45.08,6.37c-11.74-1.31-21.66-8.61-29.59-16.93
		C566.42,417.75,574.55,416.83,582.58,415.39z"/>
	<path fill="#8B8B8B" stroke="#8B8B8B" stroke-width="0.594" d="M747.72,431.75c5.53,3.11,10.15,7.53,15.13,11.42
		c14.53,12.37,28.9901,25.25,39.84,41.09c8.44,13.4,14.07,28.3,20.11,42.88c7.99,20.49,15.27,41.26,22.11,62.16
		c-4.2599-5.09-7.33-11.38-13.09-15.04c-7.61-5.19-17.17-4.62-25.82-6.43c-8.98-1.45-17.9-4.19-27.09-3.44
		c-9.89,0.46-20.16,3.07-27.65,9.86c-10.9,10.12-20.87,21.18-30.55,32.46c-2.36,2.71-4.33,5.81-7.2,8.05
		c2.44-6.19,6.44-11.62,9.98-17.22c4.35-6.97,12.36-10.31,17.39-16.66c2.52-3.09,4.14-6.79,5.44-10.53
		c4.3-12.43,7.42-25.29,8.96-38.36c1.24-8.68,1.48-17.7-1.14-26.16c-3.76-11.84-10.08-22.72-16.95-33
		c-2.19-2.41-0.09-5.43,0.67-7.98C742.03,454.1,744.93,442.92,747.72,431.75z"/>
	<path fill="#8B8B8B" stroke="#8B8B8B" stroke-width="0.594" d="M428.5,446.55c3.95,15.53,9.72,30.51,15.66,45.38
		c12.98,32.37,30.14,62.81,46.24,93.68c3.48,7.42,5.84,16.13,13.02,20.97c7.91,5.13,17.39,6.84,26.2,9.86
		c27.34,7.97,52.54,21.71,79.62,30.41c12.24,4.03,25.9,2.91,37.42,9.19c4.14,2.78,7.77,6.28,10.86,10.19
		c-10.35-6.24-22.44-9.52-34.54-8.9c-18.67-0.85-33.97,11.63-51.21,16.58c-2.4,0.61-5.96,1.51-7.33-1.31
		c-2.77-5.88-1.9-12.98-5.55-18.53c-3.16-4.88-9.28-6.75-14.83-6.63c-5.71-0.08-12.42-0.38-16.33-5.19
		c-8.67-10.23-14.62-23.44-26.66-30.34c-7.52-4.4-16.36-1.33-23.93,1.26c-27.1,10.05-52.16,24.63-78.27,36.88
		c-5.98-16.1-9.56-32.95-13.79-49.56c-4.22-16.2-7.58-32.63-10.18-49.16c-0.86-6.66-2.19-13.45-0.94-20.14
		c1.83-8.07,8.49-13.68,14.92-18.28c7.94-5.52,15.98-11.63,20.75-20.25C417.71,478.08,422.72,462.11,428.5,446.55z"/>
	<path fill="#8B8B8B" stroke="#8B8B8B" stroke-width="0.594" d="M749.64,584.68c1.62-1.33,4.77-2.79,6.07-0.33
		c2.85,4.19,3.56,9.37,4.06,14.3c-6.39,2.31-12.58,5.16-18.97,7.48c-3.41,1.46-6.37-1.23-8.92-3.1
		C737.38,596.54,742.84,589.86,749.64,584.68z"/>
	<path fill="#8B8B8B" stroke="#8B8B8B" stroke-width="0.594" d="M1033.4,616.76c2.48,4.76,2.3199,10.3,3.23,15.47
		c0.6899,3.64,0.3099,7.35-0.33,10.96c-1.1001-3.62-0.87-7.44-1.2201-11.16C1034.26,626.97,1033.39,621.89,1033.4,616.76z"/>
	<path fill="#8B8B8B" stroke="#8B8B8B" stroke-width="0.594" d="M698.06,654.09c9.57,0.87,19.11,2.06,28.71,2.6
		c9.04,1.32,18.2,0.65,27.31,1.14c-6.56,16.37-16.77,31.07-22.53,47.8c-7.77,22.04-7.3,45.76-9.21,68.75
		c-1.02,6.59-2.59,13.11-4.48,19.51c-1.38,4.78-5.31,8.9-10.41,9.45c-11.59,1.77-23.64,1.98-35.09-0.78
		c-4.42-0.75-6.55-5.46-6.03-9.56c0.73-8.33,2.55-16.59,2.12-25c-0.5-12.26,1.49-24.53,5.47-36.12c2.28-7.14,5.64-13.9,7.79-21.09
		C687.59,692.02,692.71,673.02,698.06,654.09 M717.08,674.08c-1.47,8.81-2.75,17.66-3.52,26.56c-0.61,4.03-0.86,8.16,0.03,12.18
		c5.29-0.04,8.61-5.21,8.98-10.03c1.09-9.21,2.8-18.45,2.25-27.75C722.33,674.15,719.69,673.96,717.08,674.08z"/>
	<path fill="#8B8B8B" stroke="#8B8B8B" stroke-width="0.594" d="M583.07,674.43c11.12-3.8,21.2-10.85,33.11-12.16
		c11.56-1.05,23.77-0.19,34.21,5.31c5.61,2.88,9.81,7.92,12.46,13.57c3.84,8.1,7,16.5099,10.1,24.92c1.09,3.63,3.18,7.54,1.46,11.33
		c-4.08,10.84-8.55,21.72-9.73,33.36c-1.29,8.34-0.4,16.8-0.99,25.18c-0.61,7.46-2.16,14.84-1.89,22.36
		c-2.5-1.34-5.81-2.18-6.95-5.08c-1.91-4.68-2.61-9.77-4.75-14.37c-17.27-36.39-38.04-71.25-63.2-102.75
		C585.86,675.1,584.34,674.95,583.07,674.43 M622.39,672.45c-3.51,0.96-6.93,3.01-8.4,6.48c-2.18,4.58-4.22,10.45-1.02,15.07
		c3.44,4.65,9.05,8.34,15.03,7.92c5.02-0.16,10.54-2.15,13.13-6.74c2.1-4.17,2.48-9.2,1.26-13.67
		C639.55,673.7,630.08,670.06,622.39,672.45z"/>
	<path fill="#8B8B8B" stroke="#8B8B8B" stroke-width="0.594" d="M1092.0601,692.53c1.1799-0.96,2.47,1.1,1.33,1.93
		C1092.1801,695.41,1090.85,693.33,1092.0601,692.53z"/>
	<path fill="#939392" stroke="#939392" stroke-width="0.594" d="M438.05,442.59c1.38,0.16,1.64,0.84,0.76,2.03
		C437.4,444.45,437.14,443.77,438.05,442.59z"/>
	<path fill="#23262B" stroke="#23262B" stroke-width="0.594" d="M811.77,489.79c6.47,0.43,12.79,2.01,19.14,3.28
		c38.34,8.42,76.45,18.51,112.96,33.07c7.63,2.83,14.87,6.6,22.57,9.25c1.59,0.46,2.89,1.47,4.05,2.65
		c-4.17-0.41-8.27-1.46-12.48-1.3c-6.68,0.16-13.32,0.99-20,1.06c-7.6,0.09-15.21-0.17-22.79,0.55
		c-8.73,0.83-17.5099,0.14-26.24,0.89c-10,1-20.08,0.42-30.08,1.41c-8.65,0.72-17.31-3.12-25.82-0.84c0.14,0.57,0.41,1.7,0.55,2.26
		c-4.52-10.26-7.87-21-12.5-31.22C818.31,503.69,814.61,496.93,811.77,489.79z"/>
	<path fill="#23262B" stroke="#23262B" stroke-width="0.594" d="M369.19,543.82c1.96,18.84,6.64,37.22,10.83,55.65
		c0.41,2.1801,0.74,4.38,1.06,6.59c-27.16,0.98-53.76,7.04-80.22,12.77c-16.01,3.35-32.14,6.33-47.74,11.29
		c-10.09,3.54-19.72,8.23-29.24,13.06c-4.8-2.75-9.36-6.12-12.22-10.97c4.34-0.81,8.75-1.13,13.11-1.75
		c5.8-0.77,10.66-4.25,15.56-7.15c22.85-14.11,45.06-29.25,68.23-42.82c18.13-10.29,36.97-19.22,55.78-28.19
		c2.25-0.93,3.92-2.77,5.02-4.92C369.32,546.19,369.27,545,369.19,543.82z"/>
	<path fill="#23262B" stroke="#23262B" stroke-width="0.594" d="M815.92,591.64c5.48-0.31,11.17-1.58,16.56-0.08
		c4.17,5.11,7.56,10.99,12.74,15.22c2.61,2.36,6.45-0.48,7.84-2.9301c0.14-4.06-1.38-7.92-2.28-11.8199
		c4.43-0.09,8.87,0.21,13.28,0.71c17.31,1.2,34.67,0.43,52,0.14c14.73-1.41,29.55-0.49,44.31-1.45c7.86-0.51,15.75-0.39,23.61,0.2
		c12.34,0.68,25.19-0.08,36.94,4.4c3.58,1.11,5.36,4.68,5.79,8.17c2.87,17.54,5.4601,35.25,5.36,53.06
		c-10.9999,0.6-21.0599-5.34-32.03-5.27c-9.7,0.1-19.35-1.13-29.04-1.08c-6.01-0.04-12.01-0.03-18.01-0.1
		c-8.01-0.05-15.98-1.16-24-0.94c-9.02,0.2-18.03-0.38-27.05-0.25c-7.67,0.09-15.29-0.87-22.95-0.84
		c-18.01-0.05-36.01-0.2-54.02-0.0601c-21.77,0.11-43.02,6.17-64.77,6.41c5.86-17.74,4.8-36.65,4.86-55.05
		C781.69,595.63,798.73,592.71,815.92,591.64z"/>
	<path fill="#23262B" stroke="#23262B" stroke-width="0.594" d="M741.61,608.39c6.29-2.06,12.02-5.58,18.48-7.2
		c1.17,17.95,0.35,36.28-4.47,53.69c-19.16,1.53-38.24-1.56-57.31-2.98c2.6-6.64,4.11-13.63,5.99-20.5
		c1.39,0.33,2.78,0.75,4.23,0.85c3.56-2.34,5.5-6.36,8.11-9.61c4.5-5.8,8.58-11.91,13.43-17.43
		C733.57,607.12,737.42,609.81,741.61,608.39z"/>
	<path fill="#23262B" stroke="#23262B" stroke-width="0.594" d="M495.02,626.11c3.81-1.39,7.52-3.45,11.63-3.73
		c6.52,6.63,10.93,14.99,16.91,22.09c3.57,4.8101,9.45,7.3701,15.38,7.36c5.52,0.37,12.86-0.38,16.13,5.17
		c3.23,6.67,3.02,14.53,6.85,21.02c-12.64,3.85-25.64,6.34-38.42,9.63c-16.43,4.6-33.23,7.69-49.68,12.19
		c-11.42,3.08-23.08,5.21-34.43,8.56c-16.25,4.12-32.66,7.61-48.82,12.0699c-21.16,4.95-42.26,10.14-63.19,15.9901
		c-13.09,3.91-26.05,8.27-39.26,11.79c-6.27,1.57-12.19,4.78-18.8,4.72c-6.49-16.5-12.75-33.1-20.15-49.22
		c-2.81-6.43-6.03-12.7-8.19-19.4c22.14-3.62,44.05-8.42,66.15-12.25c13.9-2.36,27.66-5.45,41.62-7.45
		c5.05-0.72,10.18-0.85,15.27-0.37c5.11,0.53,10.32,1.34,15.43,0.25c9.23-1.95,18.23-4.8101,27.15-7.85
		c11.37-3.51,22.74-7.08,33.94-11.14c9.19-3.06,18.45-5.89,27.49-9.39C477.15,633.15,486.19,629.9,495.02,626.11z"/>
	<path fill="#23262B" stroke="#23262B" stroke-width="0.594" d="M1072.88,679.87c2.0699-2.62,4.8099-4.56,7.79-6.01
		c6.71,17.32,12.0299,35.11,17.48,52.84c1.72,7.4,1,15.39-2.0701,22.35c-3.9199,9.11-9.61,17.41-16.6,24.43
		c-7.48,7.28-14.91,15.06-24.65,19.32c-7.9199,3.38-15.99,6.64-24.48,8.29c0.7101-13.03,1.98-26.04,1.9401-39.1
		c0.0299-1.92,0.23-3.87,1.12-5.59c3.72-6.39,2.34-14.07,3.5399-21.08c2.3601,1.05,4.79,1.99,7.3,2.68
		c-1.45-2.65-4.0699-4.29-6.48-5.95c3.12-4.55,6.89-8.62,10.0499-13.14C1055.9301,705.75,1062.78,691.68,1072.88,679.87z"/>
	<path fill="#23262B" stroke="#23262B" stroke-width="0.594" d="M149.8,698.87c1.54-1.74,2.96-3.79,5.16-4.73
		c2.38,0.72,4.56,1.98,6.77,3.13c7.04,3.76,14.36,6.99,21.5,10.57c19.17,10.09,38.22,20.52,56.15,32.71
		c9.56,6.2,18.8,13.13,26.31,21.76c4.57,5.16,6.47,11.92,8.64,18.31c3.95,12.27,7.12,24.8,9.58,37.45
		c1.74,8.91,2.16,18.01,2.73,27.05c0.25,3.11-0.83,6.09-1.91,8.95c-7.96-2.48-13.05-9.45-18.62-15.17
		c-7.36-7.35-13.61-15.71-20.98-23.05c-16.61-17.81-38.78-28.77-60.08-39.85c-13.8-6.65-25.48-16.77-38.71-24.37
		c-9.97-5.87-21.67-10.56-33.42-7.87C124.76,728.43,137.51,713.84,149.8,698.87z"/>
	<path fill="#23262B" stroke="#23262B" stroke-width="0.594" d="M775,713.98c16.35,0.21,32.65-1.12,49-0.92
		c47.33-0.02,94.66-0.76,142-0.19c11.33,0.2,22.71-0.3,34,0.94c8.95,0.67,16.15,6.97,21.75,13.49c5.09,5.97,6.96,14.04,6.15,21.76
		c-1,11.24-2.48,22.76-7.23,33.12c-5.47-3.18-9.82-8.92-16.64-9.1c-12.01-0.25-24.01-1.3-36.03-1.16c-26.33-0.08-52.66,0.07-79-0.04
		c-10.36,0.01-20.72,0.09-31.06,0.73c-16,0.43-32.01,0.1-48,0.61c-19.28,1.4301-38.65,0.01-57.92,1.48
		c-8.54,0.57-17.15-0.4-25.62,1.05c2.16-15.52,1.71-31.31,4.47-46.76c1-4.64,0.78-9.85,3.38-13.96
		C747.75,713.39,761.43,714.33,775,713.98z"/>
	<path fill="#23262B" stroke="#23262B" stroke-width="0.594" d="M574.98,738.04c14.26-3.2599,28.77-5.58,42.77-9.91
		c7.73,13.17,15.25,26.49,22.01,40.19c1.89,4.08,4.84,7.9,5.35,12.48c-2.97,1.4-6.19,2.11-9.36,2.89c-16.75,4-33.2,9.1-49.92,13.19
		c-19.89,5.54-39.93,10.56-59.81,16.14c-17.5,4.28-34.77,9.46-52.25,13.81c-6.87,1.55-13.62,3.55-20.38,5.51
		c-11.74,3.4-23.67,6.05-35.37,9.5699c-10.18,2.8701-20.53,5.13-30.66,8.21c-10.77,3.23-21.75,5.7-32.56,8.76
		c-11.11,3.44-22.41,6.21-33.56,9.48c-8.85,2.56-17.67,6.08-24.74,12.13c-2.6,2.24-5.4,4.25-8.45,5.84
		c1.09-17.93,5.59-35.93,2.56-53.91c-0.67-7.38-2.29-15.48,1.36-22.35c2.1-4.36,7.17-5.47,11.34-6.92
		c14.9-5.06,30.17-8.9301,45.45-12.66c15.44-4.63,31.35-7.38,46.85-11.78c24.24-5.34,48.3-11.43,72.57-16.66
		c18.47-4.4,37.04-8.31,55.56-12.48C540.74,745.39,558.01,742.33,574.98,738.04z"/>
	<path fill="#23262B" stroke="#23262B" stroke-width="0.594" d="M1101.3,816.31c5.59-4.98,10.4299-10.83,16.6599-15.07
		c3.7101,12.18,5.91,24.76,9.86,36.88c1.9901,7.36,5.2101,14.29,7.53,21.55c-8.51,4.34-11.62,13.84-16.1699,21.56
		c-4.8401,8.12-9.62,17.05-18.13,21.88c-15.0701,8.56-31.5601,14.21-48.2301,18.73c-8.74,2.41-17.74,4.45-26.86,4.02
		c-3.7499-0.23-8.03-1.37-9.84-5.01c-3.99-7.11-4.49-15.67-3.63-23.62c1.33-7.62,3.64-15.04,5.02-22.66
		c1.24-5.7,1.93-12.3,6.8099-16.22c6.27-5.18,14.78-5.3199,22.42-6.68c8.42-1.48,17.02-3.76,23.95-9
		C1081.48,834.59,1091.51,825.55,1101.3,816.31z"/>
	<path fill="#23262B" stroke="#23262B" stroke-width="0.594" d="M59.78,820.17c8.71,2.48,18.02,0.25,26.58,3.36
		c14.78,4.36,29.27,9.59,43.99,14.11c24.53,8.42,49.28,16.21,73.56,25.34c8.34,2.97,16.82,5.59,24.98,9.04
		c9,3.77,18.35,6.65,27.18,10.83c7.64,3.53,16.01,6,22.55,11.5c2.86,2.34,2.8,6.33,2.51,9.69c-0.96,9.25-1.45,18.54-2.35,27.79
		c-0.31,3.41-1.41,6.68-2.65,9.85c-3.62-2.32-6.92-5.31-11.09-6.61c-19.67-5.74-39.67-10.19-59.42-15.62
		c-22.18-5.43-44.28-11.18-66.44-16.73c-18.5-5.71-37.75-8.9399-55.83-16.02c-11.15-4.24-16.47-16.36-27.32-21.11
		c2.87-9.45,7.16-18.66,7.59-28.6801C63.65,831.11,61.45,825.63,59.78,820.17z"/>
	<path fill="#23262B" stroke="#23262B" stroke-width="0.594" d="M716.57,838.69c30.38-3.1,60.96-1.48,91.44-1.46
		c23.99,0.48,47.99-0.18,71.99-0.1c28-0.12,56-0.13,84-0.06c18.53-0.29,36.85,3,55.04,6.17c-0.84,8.44-3.1,16.64-4.92,24.89
		c-3.05,12.56-5.28,25.29-8.29,37.86c-10.3,0.37-20.54-1.06-30.82-0.97c-18.02-0.12-36.03-0.08-54.04,0.15
		c-22.28,1.49-44.64-0.04-66.91,1.57c-12.04,0.5-24.12-0.1-36.14,0.95c-10.03,0.75-20.11,0.03-30.13,0.97
		c-8.6,0.83-17.2599,0.19-25.85,1.15c-40.14,1.86-80.5,5.03-119.68,14.44c-12.28,2.86-24.64,5.42-36.69,9.18
		c-14.4,3.73-28.91,7.05-43.32,10.78c-11.8,2.69-23.66,5.1-35.44,7.85c-14.7,4.16-29.71,7.08-44.43,11.14
		c-13.44,3.81-27.13,6.67-40.56,10.5c-12.27,3.38-24.79,5.7-37.02,9.18c-11.75,3.28-23.74,5.58-35.57,8.49
		c-15.83,3.89-31.75,7.44-47.8,10.24c-12.62,2.6-25.47,5.28-38.42,4.27c-3.31,0.09-5.35-3.12-5.84-6.03c-0.33-2.49-0.02-5,0.22-7.48
		c1.84-17.22,3.52-34.45,5.46-51.65c6.8,0.55,13.35-1.6,19.94-2.8799c16.66-3.51,33.12-7.8701,49.77-11.4
		c16.38-4.06,32.78-8.03,49.25-11.74c30.29-7.48,60.68-14.53,90.96-22.05c17.49-4.91,35.19-9.05,52.62-14.1801
		c18.81-4.6899,37.3-10.58,56.16-15.1c10.48-2.97,21-5.81,31.63-8.26C660.56,847.8,688.38,841.83,716.57,838.69z"/>
	<path fill="#23262B" stroke="#23262B" stroke-width="0.594" d="M1142.98,931.87c6.65-5.05,11.62-11.85,15.86-18.96
		c2.5601,6.13,6.3,12.1801,6.38,18.9901c-1.5699,6.04-6.9299,10-11.34,14c-14.12,12.35-30.08,22.27-46.05,31.99
		c-14.7,8.48-30.37,15.93-47.23,18.75c-7.22,1.24-14.5699,1.4-21.85,1.98c-15.42,1.14-30.83-0.73-46.23-1.23
		c-0.82,0.76-1.62,1.55-2.39,2.35c-0.2,0.22-0.6,0.64-0.8,0.85c2.37-11.51,5.04-22.96,7.85-34.38l0.61-0.4901
		c0.09,0.82,0.27,2.45,0.36,3.26c14.06-0.45,28.1-1.36,42.11-2.66c19.59-1.93,39.37-4.06,58.22-9.98
		C1114.1899,949.98,1129.49,942.22,1142.98,931.87z"/>
	<path fill="#23262B" stroke="#23262B" stroke-width="0.594" d="M30.16,949.99c7.24,2.57,13.98,6.46,21.5,8.29
		c32.95,10.27,66.11,19.89,99.52,28.55c17.41,4.2,34.9,8.19,52.69,10.38c20.49,2.62,41.1,4.55,61.4,8.47
		c2.06,0.52,4.01,1.39,5.96,2.24c-0.75,8.66-1.28,17.35-1.95,26.02c-0.22,8.76-0.27,17.9301-4.41,25.91
		c-4.94,0.92-9.98,1.16-14.97,0.6c-20.73-1.13-41.11-5.3999-61.3-10c-9.35-2.1899-18.51-5.1-27.45-8.5699
		c-33.39-11.66-66.13-25.08-99.04-38.02c-8.9-3.86-18.08-7.05-26.97-10.94c-5.64-2.2-11.02-5.25-17.08-6.16
		c0.49,1.12,0.99,2.25,1.49,3.39c-0.86,0.27-1.72,0.55-2.58,0.85c-0.97-0.65-1.91-1.32-2.85-1.97c3.12-6.82,6.66-13.46,9.39-20.46
		C26.02,962.48,27.94,956.18,30.16,949.99z"/>
	<path fill="#23262B" stroke="#23262B" stroke-width="0.594" d="M945,970.18c15.59-0.19,31.3,0.74,46.73-2.14
		c-4.5,21.05-9.41,42.03-12.43,63.36c-3.09-2.8201-6.92-4.98-11.24-4.54c-31.19,1.39-61.95,7.23-92.82,11.48
		c-23.29,3.62-46.54,7.5-69.81,11.1901c-20.94,3.1599-41.72,7.26-62.68,10.28c-14.62,2.0699-29.06,5.23-43.69,7.2799
		c-28.3,4.3201-56.46,9.28-84.8,13.3c-21.01,2.99-41.93,6.58-63.03,8.9399c-27.31,3.63-54.83,4.9401-82.29,6.8201
		c-7.42,0.88-14.91,0.5599-22.34,1.3099c-7.26,0.7001-14.57,0.2001-21.82,0.9301c-8.26,0.8199-16.57,0.2999-24.84,0.83
		c-17.3,1.49-34.69,0.3401-52.01,1.4301c-9.96,0.49-19.93,0.1799-29.88-0.36c-14.66-0.28-29.53-0.0701-43.89-3.42
		c-4.56-0.89-6.37-5.7-7.46-9.65c-1.66-5.4,1.53-10.5399,2.95-15.59c2.39-6.63,2.49-13.72,3.33-20.63
		c0.54-7.1801,8.53-11.12,15.04-10.76c13.6,0.8201,26.28,6.96,39.92,7.66c35.96,0.74,72.16,0.11,107.66-6.28
		c11.6-2.24,23.14-4.8,34.6-7.65c12.19-3.49,24.63-5.9399,36.92-9.0599c19.02-5.27,38.42-9.05,57.47-14.22
		c22.89-5.15,45.64-10.92,68.64-15.59c21.71-5.38,43.85-8.67,65.77-13.08c29.23-5.07,58.83-7.74,88.43-9.53
		c7.89,0.2,15.69-1.41,23.58-1.22c9.16,0.14,18.31-0.15,27.45-0.69C873.96,969.69,909.49,970.43,945,970.18z"/>
	<path fill="#23262B" stroke="#23262B" stroke-width="0.594" d="M962.77,1093.65c4.27-1.3301,7.23-4.85,10.44-7.74
		c-1.09,16.6599-1.35,33.39-0.48,50.08c0.5,5.62-3,10.37-5.89,14.84c-3.3,4.99-7.75,9.2301-13.14,11.88
		c-19.25,10.17-39.82,18.37-61.41,21.76c-20.85,3.72-42.09,4.25-63.08,6.91c-23.22,2.61-46.39,5.61-69.62,8.0699
		c-45.84,4.64-91.65,9.4601-137.61,12.64c-50.57,3.9501-101.12,8.0601-151.73,11.4301c-25.42,1.71-50.78,3.9299-76.23,5.25
		c-10.96,1.14-21.99,1.14-32.97,2.08c-10.9-0.14-21.77,1.85-32.66,0.72c-16.26-1.73-31.86-6.88-47.3-12.0299
		c1.01-8.4701,3.14-16.92,2.06-25.5c-0.31-12.4501-4.52-24.37-5.19-36.77c24.34,0.85,48.69,0.3199,73.04,0.84
		c11,0,21.99,0.83,33,0.47c22.34-0.86,44.7-0.6499,67.05-0.97c7.66-0.58,15.33-0.95,23.02-0.95c27.34-1.9701,54.7-3.79,81.95-6.79
		c22.09-2.27,44.03-5.7,66.03-8.71c19.37-2.3101,38.64-5.35,57.97-8.01c44.85-5.3,89.69-10.66,134.57-15.74
		c35.1-4.6801,70.36-8.3301,105.2599-14.49C934.28,1100.55,948.86,1098.33,962.77,1093.65z"/>
	<path fill="#23262B" stroke="#23262B" stroke-width="0.594" d="M968.02,1207.1899c0.91-1.47,1.79-2.96,2.75-4.3899
		c0.2,11.2799,1.62,22.5,1.77,33.7899c0.92,13.13-0.29,26.3101,0.88,39.4301c-85.47,0.0699-170.94-0.01-256.42,0.03
		c-10.1-0.12-20.22,0.35-30.31-0.4401c31.52-3.17,63.04-6.3099,94.47-10.29c27.5-2.95,55-5.9399,82.41-9.6699
		c17.17-2.29,34.72-3.35,51.23-9.02c11.25-4.01,22.71-7.74,33.1-13.76c7.2-3.85,12.3-10.4399,17.23-16.75
		C967.2,1213.6,968.97,1210.5601,968.02,1207.1899z"/>
	<path fill="#FDFDFD" stroke="#FDFDFD" stroke-width="0.594" d="M272.77,585.76c32.31-19.77,64.67-39.44,96.99-59.2
		c-0.8,5.72-1.15,11.5-0.57,17.26c0.08,1.18,0.13,2.37,0.17,3.56c-4.87,1.48-9.27,4.09-13.91,6.12
		c-21.06,10.23-42.22,20.41-62,32.99c-17.85,11.08-35.43,22.57-53.22,33.75c-5.57,3.25-11,7.37-17.65,7.96
		c-4.39,0.85-9.99-0.6-13.23,3.24c-0.83,3.09,2.06,5.17,3.63,7.4c-5.22-2.9301-11.1-4.19-16.9-5.41
		C221.28,616.97,247.2,601.64,272.77,585.76z"/>
	<path fill="#FDFDFD" stroke="#FDFDFD" stroke-width="0.594" d="M624.37,674.44c7.7-2.36,17.13,4.22,16.45,12.51
		c-0.12,4.05-1.54,8.54-5.36,10.55c-4.14,2.12-9.42,3.28-13.67,0.81c-3.12-1.72-6.61-3.84-7.73-7.43
		C612.84,683.96,616.6,675.17,624.37,674.44z"/>
	<path fill="#FDFDFD" stroke="#FDFDFD" stroke-width="0.594" d="M1144.1801,867.95c5.8099,6.99,9.1599,15.73,11.1399,24.52
		c-1.7999-2.67-2.88-5.71-4.12-8.64C1148.98,878.48,1146.34,873.32,1144.1801,867.95z"/>
	<path fill="#FEFEFE" stroke="#FEFEFE" stroke-width="0.594" d="M756.63,578.68c5.95-3.96,12.54-7.01,19.54-8.58
		c9.78-1.4,19.49,1,29.07,2.69c6.88,0.82,13.72,2.71,19.8,6.08c3.6,1.97,5.01,6.09,6.72,9.56c-22.73-0.13-45.25,3.75-67.36,8.73
		C763.67,590.48,762.26,583.05,756.63,578.68z"/>
	<path fill="#888888" stroke="#888888" stroke-width="0.594" d="M1027.01,576.6c-2.84,1.64-1.29-4.04,0.0699-0.83L1027.01,576.6z"/>
	<path fill="#23272B" stroke="#23272B" stroke-width="0.594" d="M1027.08,575.77c4.24,4.52,8.41,9.12,11.9301,14.23
		c5.4399,7.78,11.16,15.45,15.17,24.11c-6.51,10.26-11.78,21.35-14.9901,33.09c-0.1299-13.52-0.46-27.58-6.22-40.09
		c-2.5499-5.63-3.1-11.85-4.35-17.84c-0.79-4.18-2.01-8.38-1.61-12.67L1027.08,575.77z"/>
	<path fill="#FAFCF9" stroke="#FAFCF9" stroke-width="0.594" d="M835.3,584.3c1.46,0.32,2.99,2.89,2.47,4.43
		C835.79,588.98,835.08,585.82,835.3,584.3z"/>
	<path fill="#FAFCF9" stroke="#FAFCF9" stroke-width="0.594" d="M838.01,590.54c4.06,1.29,5.18,6,7.08,9.36
		C842.34,597.1,839.72,594.1,838.01,590.54z"/>
	<path fill="#FAFCF9" stroke="#FAFCF9" stroke-width="0.594" d="M58.96,818.19c-1.23-3.89,0.08-7.89,3.03-10.62
		C60.92,811.09,59.46,814.5,58.96,818.19z"/>
	<path fill="#FAFCF9" stroke="#FAFCF9" stroke-width="0.594" d="M0,1028.29c0.67,2.24,1.85,4.37,2.14,6.73
		c-0.35,3.26-1.52,6.37-2.14,9.6V1028.29z"/>
	<path fill="#020202" stroke="#020202" stroke-width="0.594" d="M717.08,674.08c2.61-0.12,5.25,0.07,7.74,0.96
		c0.55,9.3-1.16,18.54-2.25,27.75c-0.37,4.82-3.69,9.9901-8.98,10.03c-0.89-4.02-0.64-8.15-0.03-12.18
		C714.33,691.74,715.61,682.89,717.08,674.08 M719.2,676.22c-2.14,11.26-3.26,22.6801-4.06,34.1c2.83-1.29,4.63-3.97,4.9-7.05
		c1.37-8.84,2.39-17.76,2.83-26.69C721.64,676.43,720.42,676.31,719.2,676.22z"/>
	<path fill="#FCFCFC" stroke="#FCFCFC" stroke-width="0.594" d="M719.2,676.22c1.22,0.09,2.44,0.21,3.67,0.36
		c-0.44,8.93-1.46,17.85-2.83,26.69c-0.27,3.08-2.07,5.76-4.9,7.05C715.94,698.9,717.06,687.48,719.2,676.22z"/>
	<path fill="#5E5C5D" stroke="#5E5C5D" stroke-width="0.594" d="M1091.16,689.34C1094.48,689.47,1089.61,692.32,1091.16,689.34z"/>
	<path fill="#7B4D3E" stroke="#7B4D3E" stroke-width="0.594" d="M1137.98,963.94c8.39-5.67,16.0801-12.28,23.77-18.85
		c14.36,30.96,27.12,62.69,38.02,95.04c5.78,18.0599,11.21,36.34,13.9,55.17c7.0299,46.5499,8.1799,93.71,8.7899,140.7
		c-0.13,13.48,0.6901,27.17-2.22,40.4399c-9.73-0.7599-19.49-0.3199-29.24-0.4199c-29,0.02-58,0-87,0.01
		c-22.05,0.11-44.11-0.29-66.15,0.26c1.9601-13.0601-0.53-26.1901-0.16-39.3c0.05-21.28-1.5399-43.92,8.4601-63.46
		c3.76-10.41,9.4399-19.9301,14.95-29.47c2.75-4.8201,6.61-9.1001,8.02-14.6001c-4.49,2.88-6.64,7.9-9.35,12.26
		c-5.55,8.8401-10.14,18.22-14.87,27.51c-4.4-8.7999-8.15-17.91-12.23-26.85c-12.58-31.28-23.7601-63.1-35.39-94.74
		c-2.1801-5.5701-3.14-11.98-7.76-16.2001c-1.23-3.87-2.27-7.7899-3.22-11.72c-0.43,1.8101-0.82,3.63-1.16,5.47
		c0.74-8.2999,2.69-16.4199,4.19-24.5999c0.2-0.21,0.6-0.63,0.8-0.85c4.48,3.73,10.49,2.63,15.86,2.94
		c19.74,1.26,39.75,1.18,59.27-2.37C1092.2,994.67,1115.4,978.9,1137.98,963.94z"/>
	<path fill="#7B4D3E" stroke="#7B4D3E" stroke-width="0.594" d="M6.15,1038.86c12.25,7.86,26.09,12.58,39.85,17.0701
		c28.65,8.72,57.88,15.33,87.09,21.86c26.52,5.3199,52.8,11.74,79.16,17.7899c11.84,2.53,23.81,4.9601,35.98,4.86
		c-1.91,0.2401-3.81,0.4801-5.71,0.7401c-0.9,1.6-1.83,3.1899-2.76,4.7899c-1.43-0.6599-2.84-1.36-4.38-1.6699
		c-2.52,3.8999-3.56,8.51-5.21,12.8099c-11.15,30.86-22.22,61.75-33.44,92.59c-1.16,3.29-1.94,6.7001-2.51,10.15
		c-19.6-7.09-38.67-16.26-59.36-19.7999c-10.16-2.02-20.57-1.41-30.86-1.29c-9.65,0.7-19.35,1.33-28.87,3.21
		c-0.02,0.86-0.06,2.5901-0.08,3.4501c9.36,0.1,18.58-1.8401,27.91-2.17c12.51-0.4,25.21-0.6899,37.44,2.39
		c13.53,3.1899,26.5,8.29,39.36,13.47c33.79,12,65.13,29.79,98.69,42.37c8.72,3.26,17.35,6.79,26.13,9.89
		c3.29,1.14,6.48,2.52,9.56,4.15c-5.27,1.4299-10.75,1.09-16.15,1.02C198.66,1276.46,99.33,1276.63,0,1276.46v-225.83
		c1.1-0.59,2.2-1.16,3.31-1.7C4.29,1045.58,5.21,1042.21,6.15,1038.86z"/>
	<path fill="#484848" stroke="#484848" stroke-width="0.594" d="M275.2,964.74c1.5,0.34,1.45,4.14-0.02,4.53
		C274.24,968.03,274.23,965.94,275.2,964.74z"/>
	<path fill="#070100" stroke="#070100" stroke-width="0.594" d="M994.18,1046.64c-1.66-5.03-4.33-9.84-4.66-15.2001
		c4.62,4.2201,5.58,10.63,7.76,16.2001c11.6299,31.64,22.81,63.46,35.39,94.74c4.08,8.9399,7.83,18.05,12.23,26.85
		c4.73-9.29,9.3199-18.6699,14.87-27.51c2.71-4.36,4.86-9.38,9.35-12.26c-1.41,5.5-5.27,9.78-8.02,14.6001
		c-5.51,9.5399-11.1899,19.0599-14.95,29.47c-10,19.5399-8.41,42.1799-8.4601,63.46c-0.37,13.11,2.1201,26.24,0.16,39.3
		l-0.16,1.1499c-0.84,0.01-2.5299,0.03-3.37,0.04c1.16-3.71,1.5801-7.5699,1.4501-11.4299c-0.29-13.6801-0.16-27.39-0.99-41.05
		c1.01-9.36,0.0599-18.85,1.77-28.14c0.7999-8.59,4.0399-16.62,6.6499-24.72c-2.4299-5.6901-5.08-11.29-7.59-16.9401
		c-9.12-19.5199-16.09-39.9299-23.73-60.0499C1006.05,1078.96,1000.04,1062.83,994.18,1046.64z"/>
	<path fill="#513428" stroke="#513428" stroke-width="0.594" d="M1037.85,1276.29c22.04-0.55,44.1-0.15,66.15-0.26
		c29-0.01,58,0.01,87-0.01c9.75,0.1,19.51-0.34,29.24,0.4199l-0.26,0.9901c-60.76,0.0099-121.52,0.0099-182.29,0.0099
		L1037.85,1276.29z"/>
</g>
</svg>
