<?xml version="1.0" encoding="utf-8"?>
<!DOCTYPE svg PUBLIC "-//W3C//DTD SVG 1.1//EN" "http://www.w3.org/Graphics/SVG/1.1/DTD/svg11.dtd">
<svg version="1.1" id="Layer_1" xmlns="http://www.w3.org/2000/svg" xmlns:xlink="http://www.w3.org/1999/xlink" x="0px" y="0px"
	 viewBox="0 0 1726 1920" enable-background="new 0 0 1726 1920" xml:space="preserve">
<g>
	<path fill="#FFFFFF" stroke="#FFFFFF" stroke-width="0.594" d="M558.03,464.91c2.08-1.28,4.48-1.76,6.91-1.63
		c13.05,0.14,26.09,0.06,39.14,0.03c2.1-0.11,4.09,0.6,5.9,1.63c-8.64-0.74-17.32-0.5-25.98-0.6
		C575.34,464.44,566.66,464.17,558.03,464.91z"/>
	<path fill="#FFFFFF" stroke="#FFFFFF" stroke-width="0.594" d="M1029.98,532.19c19.89,4.7,38.5701,13.24,56.97,21.95
		c3.3,2.1,8.0701,3.11,9.42,7.25c1.08,2.98,0.46,6.3-0.78,9.13c-18.77,2.77-37.7799,3.27-56.5599,5.83
		c-7.27-0.17-14.38,1.65-21.65,1.26c3.01-2.15,6.59-3.37,9.4301-5.79C1038.73,562.72,1040.67,542.97,1029.98,532.19z"/>
	<path fill="#FFFFFF" stroke="#FFFFFF" stroke-width="0.594" d="M538.69,600.72c6.56-4.12,12.8-8.74,19.48-12.68
		c-4.79,8.35-5.75,18.23-4.8,27.65c2.06,4.01,5.34,7.21,8.15,10.69c-7.83-0.08-15.69,0.15-23.51-0.25
		c-6.45-1.16-13.12-0.18-19.49-1.81c-2.81-1.63-1.61-5.5-1.8-8.19C523.78,610.63,531.11,605.48,538.69,600.72z"/>
	<path fill="#FFFFFF" stroke="#FFFFFF" stroke-width="0.594" d="M950.78,926.6c18.09-2.73,36.37-3.93,54.35-7.31
		c-4.28,5.95-10.12,10.4901-15.58,15.28c-9.08,7.74-18.62,14.97-28.86,21.11c-15.7,8.97-33.06,14.38-50.28,19.59
		c-22.42,6.02-45.21,11.06-68.36,13.14c-6.31,0.97-12.73,0.6801-19.04,1.61c-22.65,0.6-45.37,0.6-67.91-1.87
		c-31.38-2.19-62.44-10.84-89.9-26.32c-4.73-2.85-9.99-4.85-14.38-8.23c6.97,1.26,14.09,1.39,21.15,0.89
		c25.7-2.57,51.25-6.92,77.11-7.81c7.93-1.08,15.97-0.52,23.9-1.6c35.78-1.81,71.45-4.92,107.05-9.17
		C903.66,933.17,927.19,929.66,950.78,926.6z"/>
	<path fill="#050101" stroke="#050101" stroke-width="0.594" d="M643.75,61.74c38.1-18.17,79.84-29.86,122.25-29.87
		c35.68,0.2,70.93,7.3,105.22,16.72c12.51,3.66,25.22,6.84,37.25,11.92C954.51,76.97,999,98.18,1039.8,125.22
		c9.0199,5.92,17.47,12.69,26.6599,18.33c17.5,15.41,35.23,31.1,48.36,50.56c11.67,17.16,20.26,36.21,27.3601,55.66
		c6.35,16.73,11.12,34,15.61,51.31c11.36,46.99,18.0599,95.03,21.6899,143.19c1.41,21.14,5.86,41.95,7.85,63.04
		c0.5701,11.02,2.5601,21.91,4.15,32.82c1.78,11.46,5.0701,22.62,7.51,33.95c5.5,23.93,10.85,47.9,15.28,72.05
		c7,38.23,11.72,76.98,12.04,115.87c-0.5,12.08-0.91,24.16-1.05,36.26c-1.03,10.94-0.53,21.95-1.58,32.89
		c-0.38,12.53-1.7301,25-2.5701,37.5099c3.65-2.02,7.08-4.94,8.3-9.08c2.33-7.34,3.89-14.94,4.8099-22.59
		c0.8301-14.64-0.1-29.35,1.01-43.98c0.29-21.16,5.15-41.93,6.11-63.03c0.1801-12.85-0.6799-25.98-5.39-38.06
		c-3.1599-7.76-8.0499-14.61-11.99-21.96c-4.59-8.45-7.4099-17.8-8.75-27.29c-1.9299-15.26-2.51-30.64-3.1499-45.99
		c-0.8501-9.87-0.4301-19.78-0.26-29.67c-0.1801-4.71,0.6499-9.85-1.5901-14.18c-3.71-4.58-9.72-6.1-14.7799-8.66
		c0.3899-0.62,1.1799-1.85,1.5699-2.46c6.1801,2.21,13.25,4.71,16.63,10.77c3.66,11.56,0,23.69,1.03,35.5
		c0.52,4.66,0.87,9.34,0.84,14.03c-0.21,7.39,1.27,14.67,1.12,22.06c0.9301,10.33,1.72,20.79,4.5,30.84
		c2.8199,10.16,8.91,18.91,14.02,28c4.77,7.85,6.92,16.9301,8.27,25.92c3.75,25.81-3.29,51.4-4.6801,77.1
		c-0.13,5.69-0.4199,11.38-0.9,17.06c-0.2899,11.42,0.1901,22.86-0.2999,34.27c-1.05,8.1-2.8201,16.13-5.36,23.9
		c-1.5801,5.32-6.24,8.8701-11.15,10.94c-2.37,20.3-6.09,40.45-11.7001,60.12c-0.7799-1.5-1.5499-2.98-2.2999-4.46
		c13.4199-48.71,14.0499-99.6,15.58-149.74c0.77-12.01,0.86-24.06,0-36.06c-0.78-21.07-2.99-42.07-6.0599-62.92
		c-3.6901-23.85-7.8301-47.63-13.1801-71.16c-4.33-21.4-9.9399-42.52-14.41-63.89c-2.0599-9.38-2.97-18.95-4.6899-28.39
		c-3.35,1.19-8.72,1.4-9.46-3.11c-3.87-24.77-4.91-50.02-10.66-74.49c-1.87-8.6-7.03-15.91-12.4501-22.65
		c-5.09-6.24-9.86-12.78-15.5299-18.52c-11.4301-11.65-16.8101-27.43-22.6801-42.29c-5.03-14.05-9.5699-28.37-12.08-43.11
		c-1.4301-8.02-1.54-16.26-0.11-24.29c1.4399-8.37,3.75-16.59,4.47-25.08c1.59-10.84,0.37-21.79-0.41-32.63
		c-1.6-11.51-4.9-22.98-10.8199-33.03c-11.12-17.73-25.05-33.46-38.91-49.04c-1.96-1.99-0.96-4.91-0.77-7.33
		c-44.09-32.42-93.74-56.64-144.99-75.46c-42.11-14.75-85.78-26.17-130.47-28.94c-40.57-2.64-80.88,7.31-118.27,22.43
		c-14.65,5.89-29,12.67-42.54,20.81c3.59,4.26,7.76,7.96,11.87,11.71c9.83,9.59,20.11,18.87,31.76,26.24
		c11.15,7.42,24.33,12.3,37.83,12.37c19.53-0.85,38.35-7.61,57.97-7.51c22.21-0.5,44.25,4.96,66.46,2.91
		c12.2-1.01,23.4-6.78,33.04-14.05c13.28-9.91,24.26-22.43,35.81-34.2c3.63-4.06,6.91-8.43,10.66-12.39
		c0.84,0.82,1.65,1.69,2.36,2.65c-11.46,13.06-23.26,25.86-35.92,37.79c-11.8,10.56-25.4,20.37-41.41,22.86
		c-12.89,2.39-26.01,0.73-38.93-0.37c-14.57-1.44-29.35-2.86-43.92-0.54c-18.2599,2.42-36.47,8.31-55.06,5.57
		c-15.09-1.62-28.28-9.93-40.11-18.88c-12.87-9.77-24.6-20.92-36.02-32.31c-33.46,19.27-64.34,42.64-94.06,67.19
		c-16.84,14.1-33.71,28.2-49.45,43.54c-6.68,6.62-13.7,13.01-19.66,20.29c-4.96,14.62-12.8,28.04-19.01,42.13
		c-8.3,18.62-17.05,37.6-19.09,58.12c-2.03,24.08,6.24,47.27,8.63,71c2.03,20.89,11.13,40.78,10.09,62.01
		c-0.31,11.02-3.16,22.09-8.88,31.57c-8.02,13.46-18.29,25.5-25.44,39.48c-4.71,9.36-5.22,19.96-6.83,30.12
		c-2.83,18.5-4.28,37.19-4.79,55.89c-0.99,9.95-0.59,19.96-1.17,29.93c-1.13,12.97-0.23,26.03-1.55,39
		c-0.71,7.68,0.8,15.73-1.68,23.15c-3.18,2.75-7.55-0.19-10.99-1.07c2.91,10.4,8.36,19.77,13.85,28.98
		c8.98,15.48,11.55,33.48,14.24,50.88c3.57,23.36,5.75,47.03,12.3,69.82c2.92,9.38,4.11,19.17,5.97,28.79
		c3.62,20.9901,8.42,41.75,13.59,62.4c-0.84,0.81-1.67,1.63-2.49,2.47c-7.65-28.29-12.87-57.1299-18.18-85.92
		c-3.26-12.26-6.54-24.54-8.58-37.07c-3.61-24.13-5.76-48.58-12.07-72.22c-4.59-17.78-18.9-31.45-21.92-49.8
		c-1.96-13.02-2.31-26.22-3.26-39.34c-4.77,0.64-9.85,0.9-14.06,3.47c-2.76,1.68-2.22,5.28-1.94,8.0099
		c1.41,9.39,4.79,18.32,7.55,27.37c4.02,12.81,14.35,23.23,15.47,37.01c1.06,8.99-1.55,17.73-3.01,26.5
		c-2.06,18.28-8.33,36.02-8.04,54.57c0.02,8.66,2.4,17.23,6.7,24.74c4.7,8.29,10.95,15.67,14.74,24.49
		c4.67,9.85,5.38,20.91,6.16,31.61c1.19,15.65,0.64,31.59,4.39,46.92c1.85,8.67,9.85,13.77,17.22,17.48
		c7.86,3.69,16.1,6.81,24.65,8.47c0.68,0.87,1.35,1.77,2.03,2.68c-1.95,0.39-3.99,0.67-5.91-0.01c-8.16-2.36-16.19-5.32-23.81-9.09
		c-7.36-3.88-15.02-9.3-17.03-17.89c-5.76-22.97-2.34-47.12-7.6-70.16c-3.09-13.59-13.03-23.86-19.25-35.95
		c-3.65-6.86-5.07-14.63-5.41-22.33c-0.32-16.4,3.87-32.39,6.98-48.37c0.86-8.42,3.08-16.62,4.08-25.02
		c0.96-7.97-0.96-16.13-4.83-23.12c-4.17-7.65-8.66-15.23-11.29-23.59c-2.75-8.8199-5.82-17.64-6.97-26.84
		c-0.44-3.4-0.28-7.65,2.86-9.78c4.53-3.14,10.24-3.42,15.51-4.29c-0.15-6.63-0.1-13.27-0.46-19.88
		c-1.23-9.92-0.62-19.93-1.04-29.88c-1-9.35-0.7-18.76-0.92-28.14c-0.16-30.56-0.18-61.12,0.01-91.68
		c0.14-6.95-0.08-13.94,0.8-20.86c0.59-7.42-0.07-14.91,0.92-22.3c0.82-5.71,0.15-11.52,1.06-17.21
		c2.57-31.61,5.02-63.83,16.12-93.84c7.21-19.85,15.62-39.33,26.16-57.65c10.66-19.04,23.73-36.66,37.97-53.14
		c22.62-25.12,48.11-47.4,74.15-68.87c28.88-23.97,58.94-46.72,91.36-65.73c1.71-0.77,2.21-2.64,2.9-4.21
		c1.92-0.08,3.92-0.07,5.64-1.07C626.89,70.32,635.12,65.63,643.75,61.74 M1055.77,141.35c-0.15,0.46-0.4401,1.39-0.5801,1.85
		c5.05,3.42,8.66,8.39,12.67,12.9c5.1,5.93,10.14,11.91,14.96,18.08c7.88,10.17,15.9901,20.54,20.38,32.79
		c6.03,14.54,6.2101,30.54,6.76,46.02c0.54,16.99-7.4199,33.02-6.23,50.03c2.38,20.35,8.6901,40.03,16.29,58.98
		c3.89,9.1,8,18.2,13.58,26.41c6.4,9.47,16.62,15.42,23.4,24.58c5.74,7.25,9,16.12,10.75,25.13c4.88,24.02,6.84,48.5,10.1899,72.75
		c0.1201,3.41,3.52,1.77,5.5601,1.34c-1.75-21.43-6.9301-42.53-7.15-64.09c-0.98-10.34-1.7-20.71-3.28-30.97
		c-0.3199-11.11-1.8899-22.12-3.09-33.15c-1.5499-12.32-3.34-24.63-6.0499-36.76c-1.42-6.12-2.02-12.42-3.9801-18.41
		c-1.7699-10.99-4.3099-21.86-7.1599-32.62c-4.4301-18.09-10.05-35.87-16.8-53.22c-9.14-22.66-20.33-44.93-36.73-63.27
		c-8.36-9.3-17.4301-17.96-27.02-25.98C1066.85,149.47,1061.85,144.63,1055.77,141.35 M434.37,233.35
		c-4.96,6.39-8.75,13.7-14.67,19.31c-14.82,21.94-26.07,46.14-35.11,70.98c-2.87,7.68-5.63,15.43-7.42,23.45
		c-6.27,26.87-8.45,54.45-10.25,81.91c-0.11,8.68-1.31,17.31-1.21,26c0.06,11.25-1.64,22.47-0.78,33.72
		c-0.35,21.18-0.34,42.39,0,63.57c-0.49,5.9,0.04,11.82,0.3,17.72c0.13,8.38,0.26,16.76,0.44,25.14c0.02,4.48-0.15,9,0.5,13.46
		c-0.51,3.92-0.64,7.94,0.07,11.86c-0.28,2.8101,0.21,5.63,0.32,8.45c0.63,7.68-0.92,15.71,2.3,22.97h-1
		c0.24,4.23-0.23,8.5,0.49,12.7c0,0.86,0.07,1.72,0.23,2.58c0.5,4.11,0.14,8.28,0.78,12.38c-0.15,1.23-0.22,2.97,1,3.7
		c-0.16,2.03-0.11,4.08-0.07,6.12c2.08,0.49,4.11,1.18,6.13,1.9l0.25,0.44c0.54,0,1.61,0.0099,2.15,0.0099
		c2.29-10.4,0.97-21.16,1.77-31.71c1.07-11.23,0.41-22.52,1.16-33.77c1.14-8.71,0.24-17.53,1.17-26.25
		c1.01-7.18,0.17-14.48,1.32-21.65c0.82-14.96,1.99-29.94,4.39-44.7401c1.68-10.75,6.42-20.72,12.1-29.89
		c8.29-13,19.25-24.48,24.76-39.1c4.89-13.6,4.37-28.56,1.24-42.49c-2.7-12.68-6.34-25.19-7.68-38.13
		c-2.27-21.76-9.5-42.95-8.97-64.99c-0.18-9.75,1.1-19.54,4.06-28.84c7.5-24.49,19.48-47.25,30.61-70.22
		C440.69,223.92,437.85,228.9,434.37,233.35z"/>
	<path fill="#A39997" stroke="#A39997" stroke-width="0.594" d="M661.12,58.06c37.39-15.12,77.7-25.07,118.27-22.43
		c44.69,2.77,88.36,14.19,130.47,28.94c-1.2,0.65-2.39,1.29-3.52,2.03c-0.71-0.96-1.52-1.83-2.36-2.65
		c-3.75,3.96-7.03,8.33-10.66,12.39c-11.55,11.77-22.53,24.29-35.81,34.2c-9.64,7.27-20.84,13.04-33.04,14.05
		c-22.21,2.05-44.25-3.41-66.46-2.91c-19.62-0.1-38.44,6.66-57.97,7.51c-13.5-0.07-26.68-4.95-37.83-12.37
		c-11.65-7.37-21.93-16.65-31.76-26.24c-4.11-3.75-8.28-7.45-11.87-11.71C632.12,70.73,646.47,63.95,661.12,58.06z"/>
	<path fill="#A39997" stroke="#A39997" stroke-width="0.594" d="M1055.77,141.35c6.08,3.28,11.08,8.12,16.47,12.39
		c9.59,8.02,18.66,16.68,27.02,25.98c16.4,18.34,27.59,40.61,36.73,63.27c6.75,17.35,12.37,35.13,16.8,53.22
		c2.85,10.76,5.39,21.63,7.1599,32.62c2.3401,19.92,4.99,39.8,8.4301,59.56c1.76,9.55,2.35,19.31,4.6899,28.76
		c1.5801,10.26,2.3,20.63,3.28,30.97c0.22,21.56,5.4,42.66,7.15,64.09c-2.04,0.43-5.4399,2.07-5.5601-1.34
		c-3.35-24.25-5.3099-48.73-10.1899-72.75c-1.75-9.01-5.01-17.88-10.75-25.13c-6.78-9.16-17-15.11-23.4-24.58
		c-5.58-8.21-9.6899-17.31-13.58-26.41c-7.6-18.95-13.91-38.63-16.29-58.98c-1.1899-17.01,6.77-33.04,6.23-50.03
		c-0.5499-15.48-0.73-31.48-6.76-46.02c-4.3899-12.25-12.5-22.62-20.38-32.79c-4.8199-6.17-9.86-12.15-14.96-18.08
		c-4.01-4.51-7.62-9.48-12.67-12.9C1055.33,142.74,1055.62,141.81,1055.77,141.35z"/>
	<path fill="#FFD9C4" stroke="#FFD9C4" stroke-width="0.594" d="M906.34,66.6c1.1299-0.74,2.3199-1.38,3.52-2.03
		c51.25,18.82,100.9,43.04,144.99,75.46c-0.1899,2.42-1.1899,5.34,0.77,7.33c13.86,15.58,27.79,31.31,38.91,49.04
		c5.9199,10.05,9.22,21.52,10.8199,33.03c0.78,10.84,2,21.79,0.41,32.63c-0.72,8.49-3.03,16.71-4.47,25.08
		c-1.4301,8.03-1.3201,16.27,0.11,24.29c2.51,14.74,7.0499,29.06,12.08,43.11c5.87,14.86,11.25,30.64,22.6801,42.29
		c5.6699,5.74,10.4399,12.28,15.5299,18.52c5.42,6.74,10.5801,14.05,12.4501,22.65c5.75,24.47,6.79,49.72,10.66,74.49
		c0.74,4.51,6.11,4.3,9.46,3.11c1.72,9.44,2.63,19.01,4.6899,28.39c4.4701,21.37,10.0801,42.49,14.41,63.89
		c5.35,23.53,9.49,47.31,13.1801,71.16c3.0699,20.85,5.2799,41.85,6.0599,62.92c0.86,12,0.77,24.05,0,36.06
		c-1.53,50.14-2.16,101.03-15.58,149.74c-5.96,21.03-14.14,41.42-24.5701,60.64c-1.1399,2.16-2.6599,4.08-4.0199,6.1
		c-7.1801,14.8-16.8401,28.22-26.14,41.74c-21.99,31.2-46.14,60.91-72.2001,88.8101c-27.8199,29.96-58.0599,57.7899-91.1299,81.88
		c-28.77,20.6699-59.92,38.6899-93.86,49.3199c-25.69,8.41-53.2,11.1801-80.05,8.03c-20.62-2.0701-40.72-7.49-60.32-14.0601
		c-37.6-13.2-73.02-31.97-106.55-53.39c-49.71-32.01-95.88-69.5199-137.62-111.38c-12.4-13.0299-25.05-26.0299-34.89-41.1799
		c-12.12-18.71-21.51-39.13-28.88-60.13c-6.46-16.33-11.06-33.31-15.75-50.2c-5.17-20.65-9.97-41.41-13.59-62.4
		c-1.86-9.62-3.05-19.41-5.97-28.79c-6.55-22.79-8.73-46.46-12.3-69.82c-2.69-17.4-5.26-35.4-14.24-50.88
		c-5.49-9.21-10.94-18.58-13.85-28.98c3.44,0.88,7.81,3.82,10.99,1.07c2.48-7.42,0.97-15.47,1.68-23.15
		c1.32-12.97,0.42-26.03,1.55-39c0.58-9.97,0.18-19.98,1.17-29.93c0.51-18.7,1.96-37.39,4.79-55.89
		c1.61-10.16,2.12-20.76,6.83-30.12c7.15-13.98,17.42-26.02,25.44-39.48c5.72-9.48,8.57-20.55,8.88-31.57
		c1.04-21.23-8.06-41.12-10.09-62.01c-2.39-23.73-10.66-46.92-8.63-71c2.04-20.52,10.79-39.5,19.09-58.12
		c6.21-14.09,14.05-27.51,19.01-42.13c5.96-7.28,12.98-13.67,19.66-20.29c15.74-15.34,32.61-29.44,49.45-43.54
		c29.72-24.55,60.6-47.92,94.06-67.19c11.42,11.39,23.15,22.54,36.02,32.31c11.83,8.95,25.02,17.26,40.11,18.88
		c18.59,2.74,36.8-3.15,55.06-5.57c14.57-2.32,29.35-0.9,43.92,0.54c12.92,1.1,26.04,2.76,38.93,0.37
		c16.01-2.49,29.61-12.3,41.41-22.86C883.08,92.46,894.88,79.66,906.34,66.6 M979.73,415.42c-13.76,2.95-27.49,6.11-40.98,10.1
		c-15.3,4.29-30.52,8.94-45.2,15.02c-2.43,1.09-5.02,2.15-6.73,4.27c-2.64,3.23-3.81,7.35-4.75,11.35
		c-1.27,6.23-1.92,12.6-1.59,18.96c12.2,3.66,24.83,5.84,37.5,7.05c8.9,0.83,17.53-1.96,26.04-4.16
		c27.83-7.99,55.41-17.26,83.99-22.33c11.34-1.91,23.11-3.65,34.47-0.89c20.76,4.71,39.23,15.79,57.4401,26.37
		c6.01,3.39,11.73,7.45,18.25,9.83c2.22,1.1,5.98,0.05,5.26-3.02c-1.7301-5.74-5.66-10.48-9.14-15.26
		c-6.1901-7.78-12.48-15.6-19.9401-22.19c-0.51-1.3-1.58-2.38-2.88-2.86c-7.15-7.95-15.65-14.58-24.1699-20.98
		c-8.51-6.24-17.7301-11.65-27.65-15.3c-8.53-3-17.7101-3.43-26.66-3.26C1015.05,408.83,997.25,411.57,979.73,415.42 M558.03,464.91
		c-8.6801,0.91-17.42,1.37-26.04,2.84c-13.84,2.18-28.27,5.02-39.79,13.49c-11.94,9.36-20.36,22.35-27.52,35.54
		c-9.76,18.48-17.17,38.1899-22.31,58.45c-1.22,4.2-1.52,8.58-1.11,12.93c3.52,1.7401,5.56-2.19,7.26-4.6
		c9.62-15.25,18.57-31.02,30.14-44.92c8.77-10.36,19.04-21.01,32.85-23.93c16.25-3.43,32.95-3.6,49.5-3.91
		c39.41-0.34,78.79,1.78,118.05,4.72c3.68-0.18,7.34,1.15,10.99,0.25c-6.14-12.7-11.2-26.35-20.93-36.88
		c-3.61-3.98-8.16-7.31-13.52-8.36c-14.98-3.43-30.38-4.32-45.62-5.59c-1.81-1.03-3.8-1.74-5.9-1.63
		c-13.05,0.03-26.09,0.11-39.14-0.03C562.51,463.15,560.11,463.63,558.03,464.91 M983.77,518.92c-10.4,3.98-18.92,11.38-27.72,17.96
		c-9.84,2.92-19.65,6.85-27.45,13.73c-3.7,3.44-8.25,6.19-11.03,10.46c1.34,2.94,4.01,0.26,5.43-1.11
		c7.97-7.82,17.2-14.53,27.9-18.03c-8.47,9.23-16.58,18.78-24.32,28.63c-2.37,2.94-4.44,6.21-7.6,8.39
		c-1.13,0.59-1.4,1.86-1.84,2.94c-0.98,2.84-3.61,4.99-3.59,8.17c16.8-0.2,33.62-0.17,50.43-0.61c11.99-0.7,24.01-0.67,36.01-1.17
		c8.06-1.0601,16.25-0.27,24.3-1.55c11.64-0.39,23.13-2.59,34.72-3.68c13.35-1.62,26.78-2.97,39.88-6.09
		c5.09-1.7401,11.1-2.91,14.48-7.4901c2.78-3.91-0.55-8.48-3.25-11.4c0-0.54,0-1.61,0-2.14c0.71-0.23,2.15-0.67,2.87-0.9
		c-0.73-1.25-1.35-2.6-2.58-3.41c-5.86-4.55-11.77-9.04-17.9701-13.11c-15.84-11.03-34.6899-16.25-52.74-22.42
		c-1.84-0.83-5.13-1.26-4.1799,1.8199c3.6,1.92,7.7,2.61,11.5,4.07c0.16,0.62,0.47,1.87,0.63,2.49
		c-13.0801-4.9-26.65-8.92-40.66-9.79C999.09,514.6,991.13,516.03,983.77,518.92 M571.53,568.25
		c-13.6801,3.64-25.34,12.29-36.04,21.24c-10.3,8.66-20.35,17.63-30,27.02c-1.94,2.04-4.39,4.39-3.9,7.5c0.47,3.41,2.38,7.7,6.29,8
		c10.8,1.44,21.71,0.92,32.56,1.37c20.19,0.57,40.39,0.11,60.58-0.48c14.88-0.64,29.61-3.08,44.11-6.42
		c13.46-2.94,27.15-4.86,40.46-8.44c-0.15-4-2.38-7.78-5.55-10.14c-10.61-7.5-22.08-13.67-33.18-20.36
		c7.29,2.25,14.87,4.07,21.43,8.14c2.92,1.59,5.47,3.91,8.65,4.98c0.47-0.41,1.41-1.23,1.89-1.64
		c-8.48-7.56-19.45-11.47-30.24-14.45c-2.34-0.79-4.76,0.02-7.13-0.07c-10.5-4.16-19.77-11.04-30.54-14.54
		C598.09,567.04,584.46,564.57,571.53,568.25 M750.66,570.61c-0.41,3.69,0.03,7.39,0.6201,11.04
		c1.48,12.11,2.6299,24.25,3.7599,36.4c0.35,9.48,1.93,18.96,0.68,28.43c-0.6,10.55-1.72,21.05-3.1299,31.52
		c-0.29,2.26-1.45,4.27-2.3701,6.33c1.59,0.5,4.44,0.88,4.7-1.44c1.75-7.85,2.13-15.93,3.29-23.87c0.65-11.21,2.19-22.48,0.6-33.69
		c-1.02-17.44-3.28-34.78-5.22-52.15C753.81,571.35,751.91,571.17,750.66,570.61 M520.56,591.58c-5.48,4.47-10.99,8.97-15.9,14.09
		c-4.91,5.44-9.6,11.09-14.06,16.91c-0.98,1.15-1.45,2.59-1.68,4.07c0.68,0.0099,2.05,0.04,2.73,0.05
		c6.71-8.55,13.22-17.39,21.48-24.54c5.35-4.41,10.27-9.62,16.87-12.18c-0.65-0.84-1.29-1.67-1.93-2.5
		C525.38,588.47,522.75,589.69,520.56,591.58 M1075.8101,610.92c-23.0601,7.2-46.25,14.29-70.05,18.62
		c-14.87,2.8-30.06,0.63-44.75-2.16c-11.72-2.47-23.39-5.24-34.85-8.74c-1.43-0.27-3.27-1.24-4.16,0.45
		c-0.13,1.84,1.8,2.19,3.16,2.69c18.2,5.33,36.67,10.15,55.6201,11.8c13.73,1.91,27.48-0.91,40.86-3.83
		c19.88-4.85,39.5699-10.53,58.99-16.98c2.29-0.91,4.73-1.1,7.1801-1.15c3.33-1.1,6.4099-2.86,9.4199-4.65
		c-0.46-0.95-0.9299-1.8799-1.4-2.79C1089.15,606.41,1082.5601,608.9,1075.8101,610.92 M687.98,652.01
		c-6.84,7.81-13.96,15.74-23.15,20.84c-15.71,8.53-32.87,14.28-50.45,17.39c-19.66,2.6-39.45,0.15-59.09-1.14
		c-0.03,0.67-0.07,2.01-0.1,2.67c6.15,1.39,12.5,1.35,18.74,2.1c10,0.41,20.01,1.2,30.02,0.52c17.59-0.54,34.55-6.13,50.68-12.8
		c8.38-3.79,16.87-7.91,23.5-14.44c4.63-4.48,9.35-9,13.11-14.25C691.68,650.69,688.91,650.44,687.98,652.01 M928.18,723.17
		c-1.32,0.59-1.14,1.98-0.15,2.81c3.45,3.2,7.36,6.03,9.98,10.05c5.51,8.6,10.16,17.9399,12.19,28.03
		c1.89,11.36-3.45,22.83-11.34,30.8c-4.21,4.04-9.18,7.89-15.09,8.84c-8.56,0.51-16.23-4.94-24.79-4.4
		c-9.67-0.46-17.03,7.01-23.77,12.9c-7.51,6.19-13.51,14.19-22.07,19.04c-11.23,5.56-24.8,8.07-36.76,3.37
		c-12.85-6.01-24.17-14.74-36.66-21.39c-8.92-5.08-19.73-2.64-28.84,0.64c-7.33,2.34-11.82,9.3-18.8,12.25
		c-3.59,1.75-7.6,0.36-10.94-1.27c-8.41-4.45-15.79-10.92-21.4-18.59c-6.78-9.32-7.32-21.91-3.98-32.62
		c4.15-10.49,10.24-20.06,16.33-29.5c1.08-1.28,0.96-3.46-1.07-3.51c-2.67,2.56-4.42,5.89-6.39,8.99
		c-3.89,6.55-7.91,13.06-10.9,20.09c-3.37,7.82-3.73,16.65-2.49,24.97c2.2,11.83,10.97,20.88,20.15,27.96
		c4.94,3.61,10.4,7.05,16.6,7.74c4.67,0.12,8.38-3.04,12.28-5.11c9.2-1.52,18.47-2.45,27.73-3.51c8.62-0.69,16.97,2.29,24.88,5.37
		c10.46,4.18,19.9,11.31,31.29,12.87c9.86,1.64,19.8-1.2,28.84-4.99c7.13-3.06,12-9.38,18.22-13.78
		c3.68-3.65,8.52-5.6899,13.01-8.12c4.88-2.58,10.16-4.55,15.7-5.03c9.99-1.59,20.58,1.11,30.16-2.9
		c11.72-5.63,20.16-17.05,23.23-29.57c1.15-6.88,0.47-14.05-2.15-20.53c-4.05-10.46-8.83-21.27-17.61-28.65
		C931.92,725.17,930.48,722.97,928.18,723.17 M948.09,728.23c-1.92,0.92,0.54,2.57,1.3,3.38c4.54,3.45,9.23,6.72,13.73,10.24
		c21.66,16.78,44.31,32.8,62.17,53.82c11.73,13.77,22.62,28.23,33.25,42.85c0.6,1.22,1.96,1.47,3.22,1.26
		c1.1899-2.1201-1.22-3.71-2.12-5.41c-15.08-20.33-30.0601-40.99-48.65-58.32c-14.32-13.2-30.11-24.63-45.47-36.55
		c-5.49-4.02-10.72-8.45-16.57-11.91L948.09,728.23 M687,753.95c-10.1,12.64-20.09,25.41-29.44,38.64
		c-15.73,21.67-26.7,46.29-37.28,70.7599c-0.98,1.5-1.57,5.3,1.35,4.32c1.83-2.45,2.62-5.48,3.92-8.22
		c8.66-19.43,17.38-39,29.14-56.81c9.71-14.41,20.29-28.21,31.1-41.82c2-2.57,4.47-4.89,5.4901-8.08
		C689.63,752.08,687.98,752.42,687,753.95 M882.6,900.82c-12.66,2.74-24.56,8.08-37.05,11.4c-13.53,3.6-27.79,3.54-41.58,1.59
		c-10.8-1.21-21.74-3.32-32.61-1.62c-9.28,0.87-18.26,3.55-27.2,6.04c-23.5,7.22-46.52,15.9-69.68,24.12
		c-9.4,3.9301-19.69,4.31-29.66,5.51c-2.41,0.41-6.63,1.76-5.05,4.98c4.11,6.8,10.08,12.24,16.32,17.0699
		c16.02,13.15,32.5699,25.69,49.86,37.14c15.2,9.74,31.02,19.46,48.96,23.09c23.33,5.88,47.61,3.37,71.15,0.29
		c24.27-2.42,48.57-5.2401,72.29-11.1301c19.94-4.56,39.6-12.27,55.45-25.49c13.78-11.87,26.43-25.07,37.51-39.49
		c9.28-11.89,18.42-23.94,26.62-36.6c1.93-2.3-0.62-4.3199-1.97-6.03c-5.68-0.08-11.36,0.07-17.03-0.2
		c-6.01,0.05-11.92-1.24-17.93-1.19c-9.94-1.08-19.97-1.48-29.8-3.41c-14.05-2.68-27.89-6.75-42.23-7.61
		C900.16,899.16,891.23,898.73,882.6,900.82z"/>
	<path fill="#FFD9C4" stroke="#FFD9C4" stroke-width="0.594" d="M350.48,655.53c4.21-2.57,9.29-2.83,14.06-3.47
		c0.95,13.12,1.3,26.32,3.26,39.34c3.02,18.35,17.33,32.02,21.92,49.8c6.31,23.64,8.46,48.09,12.07,72.22
		c2.04,12.53,5.32,24.81,8.58,37.07c5.31,28.79,10.53,57.63,18.18,85.92c2.19,8.95,5.02,17.72,7.52,26.59
		c-0.43-0.07-1.28-0.23-1.7-0.3c-8.55-1.66-16.79-4.78-24.65-8.47c-7.37-3.71-15.37-8.81-17.22-17.48
		c-3.75-15.33-3.2-31.27-4.39-46.92c-0.78-10.7-1.49-21.76-6.16-31.61c-3.79-8.8199-10.04-16.2-14.74-24.49
		c-4.3-7.51-6.68-16.08-6.7-24.74c-0.29-18.55,5.98-36.29,8.04-54.57c1.46-8.77,4.07-17.51,3.01-26.5
		c-1.12-13.78-11.45-24.2-15.47-37.01c-2.76-9.05-6.14-17.98-7.55-27.37C348.26,660.81,347.72,657.21,350.48,655.53z"/>
	<path fill="#FFD9C4" stroke="#FFD9C4" stroke-width="0.594" d="M1156.33,1036.33c3.17-4.4099,5.91-9.12,9.3201-13.34
		c-4.4,9.97-8.5601,20.0701-12.48,30.25c-5.36,13.9-5.6801,28.97-6.8201,43.63c-3.1899,21.71-6.48,43.42-9.5499,65.15
		c-0.24,6.23-3.2301,11.84-5.1101,17.6699c-7.6699,22.3401-15.5599,44.65-21.45,67.54c-4.96,20.8201-8.37,42.03-14.6899,62.52
		c-7.16,24.37-13.52,49.05-22.99,72.66c-10.8601,28.5599-28.52,54.4399-50.78,75.3199c-7.46,3.14-15.3701,5.29-22.9901,8.0701
		c-9.3,3.01-18.08,7.34-27.2,10.8199c-11.52,4.6-23.46,7.97-35.22,11.84c-17.02,5.5901-34.52,9.9601-52.34,11.98
		c-20.75,2.8301-41.63-0.71-62.0601-4.3199c-20.64-3.9399-40.96-9.42-61.16-15.16c-21.48-6.35-42.21-14.98-62.64-24.1
		c-2.24-0.9299-4.39-2.3099-6.86-2.35c-1.06-0.08-2.18-0.0701-3-0.8c-17.07-12.6699-35.31-24.6-48.06-41.98
		c-8.68-10.98-14.45-23.9-18.94-37.0699c-10.68-30.63-17.64-62.41-23.9-94.1801c-4.7599-5.41-7.8-12.04-11.71-18.0499
		c-15.42-26.1101-31.22-52.2001-42.67-80.3501c-12.23-35.09-27.3-69.12-43.31-102.61c5.48,4.41,9.79,10.0801,14.98,14.8401
		c30.45,29.8099,63.16,57.3199,97.73,82.25c31.84,22.86,65.32,43.59,100.83,60.2599c27.06,12.63,55.38,23,84.84,28.3501
		c11.52,2.0199,23.16,3.7799,34.9,3.5599c40.02,1.41,78.97-12.29,113.77-31.1c35.43-19.4,67.53-44.38,97.15-71.73
		C1085.9,1126.92,1123.3199,1083.12,1156.33,1036.33z"/>
	<path fill="#A3A8AC" stroke="#A3A8AC" stroke-width="0.594" d="M434.37,233.35c3.48-4.45,6.32-9.43,10.38-13.41
		c-11.13,22.97-23.11,45.73-30.61,70.22c-2.96,9.3-4.24,19.09-4.06,28.84c-0.53,22.04,6.7,43.23,8.97,64.99
		c1.34,12.94,4.98,25.45,7.68,38.13c3.13,13.93,3.65,28.89-1.24,42.49c-5.51,14.62-16.47,26.1-24.76,39.1
		c-5.68,9.17-10.42,19.14-12.1,29.89c-2.4,14.8-3.57,29.78-4.39,44.7401c-1.15,7.17-0.31,14.47-1.32,21.65
		c-0.93,8.72-0.03,17.54-1.17,26.25c-0.75,11.25-0.09,22.54-1.16,33.77c-0.8,10.55,0.52,21.31-1.77,31.71
		c-0.54,0-1.61-0.0099-2.15-0.0099l-0.25-0.44c-1.33-2.31-2.74-4.57-4.17-6.82c0.26-13.19-1.82-26.29-2.39-39.45
		c-0.24-7.81-0.97-15.58-1.43-23.37c-0.3-11.96-2.13-23.82-1.86-35.8c-0.49,3.08-0.81,6.2-0.9,9.32
		c-0.18-8.38-0.31-16.76-0.44-25.14c-0.26-5.9-0.79-11.82-0.3-17.72c1.04-8.06,0.36-16.2,0.51-24.29
		c-0.3-13.09,0.66-26.23-0.51-39.28c-0.86-11.25,0.84-22.47,0.78-33.72c-0.1-8.69,1.1-17.32,1.21-26
		c1.8-27.46,3.98-55.04,10.25-81.91c1.79-8.02,4.55-15.77,7.42-23.45c9.04-24.84,20.29-49.04,35.11-70.98
		C425.62,247.05,429.41,239.74,434.37,233.35z"/>
	<path fill="#817570" stroke="#817570" stroke-width="0.594" d="M1159.95,328.83c1.9601,5.99,2.5601,12.29,3.9801,18.41
		c2.71,12.13,4.5,24.44,6.0499,36.76c1.2001,11.03,2.77,22.04,3.09,33.15c-2.34-9.45-2.9299-19.21-4.6899-28.76
		C1164.9399,368.63,1162.29,348.75,1159.95,328.83z"/>
	<path fill="#0E0503" stroke="#0E0503" stroke-width="0.594" d="M979.73,415.42c17.52-3.85,35.32-6.59,53.26-7.3
		c8.95-0.17,18.13,0.26,26.66,3.26c9.9199,3.65,19.14,9.06,27.65,15.3c8.5199,6.4,17.0199,13.03,24.1699,20.98
		c-2.37-0.82-4.64-1.97-6.4099-3.75c-6.88-6.5-14.2401-12.48-21.92-17.99c-11.28-7.69-23.86-14.22-37.67-15.44
		c-9.4099-1.91-18.86,0.17-28.25,0.89c-15.99,1.64-31.85,4.51-47.48,8.25c-21.09,4.84-41.98,10.64-62.44,17.72
		c-5.43,2.22-11.16,3.8-16.31,6.66c-3.86,2.06-5.54,6.41-6.53,10.43c-1.46,6.32-2.66,12.87-1.61,19.36
		c10.2401,2.9,20.78,4.5,31.28,6.14c4.21,0.69,8.51,0.77,12.72-0.01c10.86-1.83,21.34-5.3,31.9301-8.24
		c28.92-8.66,58.03-17.93,88.28-20.41c13.0199-0.07,25.8899,3.52,37.6399,8.97c16.3501,6.9,31.3101,16.55,46.5901,25.47
		c3.14,1.84,6.6,3.72,10.39,2.88c-3.87-9.77-11.1001-17.61-17.88-25.44c-3.39-4.01-7.9501-7.37-9.4501-12.63
		c7.4601,6.59,13.75,14.41,19.9401,22.19c3.48,4.78,7.4099,9.52,9.14,15.26c0.72,3.07-3.04,4.12-5.26,3.02
		c-6.52-2.38-12.24-6.44-18.25-9.83c-18.2101-10.58-36.6801-21.66-57.4401-26.37c-11.36-2.76-23.13-1.02-34.47,0.89
		c-28.58,5.07-56.16,14.34-83.99,22.33c-8.51,2.2-17.14,4.99-26.04,4.16c-12.67-1.21-25.3-3.39-37.5-7.05
		c-0.33-6.36,0.32-12.73,1.59-18.96c0.94-4,2.11-8.12,4.75-11.35c1.71-2.12,4.3-3.18,6.73-4.27c14.68-6.08,29.9-10.73,45.2-15.02
		C952.24,421.53,965.97,418.37,979.73,415.42z"/>
	<path fill="#2B2622" stroke="#2B2622" stroke-width="0.594" d="M1017.22,411.37c9.39-0.72,18.8401-2.8,28.25-0.89
		c13.8101,1.22,26.39,7.75,37.67,15.44c7.6799,5.51,15.04,11.49,21.92,17.99c1.7699,1.78,4.0399,2.93,6.4099,3.75
		c1.3,0.48,2.37,1.56,2.88,2.86c1.5,5.26,6.0601,8.62,9.4501,12.63c6.7799,7.83,14.01,15.67,17.88,25.44
		c-3.79,0.84-7.25-1.04-10.39-2.88c-15.28-8.92-30.24-18.57-46.5901-25.47c-11.75-5.45-24.62-9.04-37.6399-8.97
		c-30.2501,2.48-59.36,11.75-88.28,20.41c-10.59,2.94-21.07,6.41-31.9301,8.24c-4.21,0.78-8.5099,0.7-12.72,0.01
		c-10.5-1.64-21.04-3.24-31.28-6.14c-1.05-6.49,0.15-13.04,1.61-19.36c0.99-4.02,2.67-8.37,6.53-10.43
		c5.15-2.86,10.88-4.44,16.31-6.66c20.46-7.08,41.35-12.88,62.44-17.72C985.37,415.88,1001.23,413.01,1017.22,411.37z"/>
	<path fill="#2B2622" stroke="#2B2622" stroke-width="0.594" d="M553.96,467.21c13.0099-0.67,26.03-1.66,39.06-1.12
		c15.15,0.92,30.35,1.35,45.41,3.42c8.74,1.4,18.38,1.73,25.72,7.28c7.58,6.13,12.31,14.91,16.58,23.5
		c2.12,4.15,4.25,8.33,5.66,12.8c-6.06,1.8799-12.32-0.03-18.46-0.27c-38.24-2.6-76.58-4.78-114.93-3.67
		c-9.71-0.03-19.42,0.64-29.08,1.63c-8.89,1.14-18.17,2.42-25.87,7.36c-11.59,7.48-20.48,18.3-28.56,29.32
		c-5.52,8.19-11.2,16.3-16.19,24.83c-2.59,4.26-5.07,8.62-8.37,12.38c-0.66-1.14-1.93-2.18-1.72-3.62c0.5-4.66,2.02-9.14,3.23-13.65
		c4.06-13.08,8.29-26.17,14.46-38.44c6.15-13.47,13.42-26.62,23.37-37.68c5.16-5.69,11.02-11.03,18.26-13.89
		C518.83,470.71,536.52,468.53,553.96,467.21z"/>
	<path fill="#090302" stroke="#090302" stroke-width="0.594" d="M558.03,464.91c8.6299-0.74,17.31-0.47,25.97-0.57
		c8.66,0.1,17.34-0.14,25.98,0.6c15.24,1.27,30.64,2.16,45.62,5.59c5.36,1.05,9.91,4.38,13.52,8.36
		c9.73,10.53,14.79,24.18,20.93,36.88c-3.65,0.9-7.31-0.43-10.99-0.25c-39.26-2.94-78.64-5.06-118.05-4.72
		c-16.55,0.31-33.25,0.48-49.5,3.91c-13.81,2.92-24.08,13.57-32.85,23.93c-11.57,13.9-20.52,29.67-30.14,44.92
		c-1.7,2.41-3.74,6.34-7.26,4.6c-0.41-4.35-0.11-8.73,1.11-12.93c5.14-20.26,12.55-39.97,22.31-58.45
		c7.16-13.19,15.58-26.18,27.52-35.54c11.52-8.47,25.95-11.31,39.79-13.49C540.61,466.28,549.35,465.82,558.03,464.91
		 M553.96,467.21c-17.44,1.32-35.13,3.5-51.43,10.18c-7.24,2.86-13.1,8.2-18.26,13.89c-9.95,11.06-17.22,24.21-23.37,37.68
		c-6.17,12.27-10.4,25.36-14.46,38.44c-1.21,4.5099-2.73,8.99-3.23,13.65c-0.21,1.44,1.06,2.48,1.72,3.62
		c3.3-3.76,5.78-8.12,8.37-12.38c4.99-8.53,10.67-16.64,16.19-24.83c8.08-11.02,16.97-21.84,28.56-29.32
		c7.7-4.94,16.98-6.22,25.87-7.36c9.66-0.99,19.37-1.66,29.08-1.63c38.35-1.11,76.69,1.07,114.93,3.67
		c6.14,0.24,12.4,2.15,18.46,0.27c-1.41-4.47-3.54-8.65-5.66-12.8c-4.27-8.59-9-17.37-16.58-23.5c-7.34-5.55-16.98-5.88-25.72-7.28
		c-15.06-2.07-30.26-2.5-45.41-3.42C579.99,465.55,566.97,466.54,553.96,467.21z"/>
	<path fill="#FDFDFE" stroke="#FDFDFE" stroke-width="0.594" d="M364.93,488.72c1.17,13.05,0.21,26.19,0.51,39.28
		c-0.15,8.09,0.53,16.23-0.51,24.29C364.59,531.11,364.58,509.9,364.93,488.72z"/>
	<path fill="#FDFDFE" stroke="#FDFDFE" stroke-width="0.594" d="M370.36,683.25c0.47,0.3,1.42,0.9,1.89,1.2
		c1.43,2.25,2.84,4.51,4.17,6.82c-2.02-0.72-4.05-1.41-6.13-1.9C370.25,687.33,370.2,685.28,370.36,683.25z"/>
	<path fill="#FDFDFE" stroke="#FDFDFE" stroke-width="0.594" d="M1116.09,1572.1899c-1.15-2.6299,0.91-5.0499,1.79-7.4099
		C1117.45,1567.27,1116.8,1569.74,1116.09,1572.1899z"/>
	<path fill="#020101" stroke="#020101" stroke-width="0.594" d="M983.77,518.92c7.36-2.89,15.32-4.32,23.22-4.24
		c14.01,0.87,27.58,4.89,40.66,9.79c15.33,6.1201,30.37,13.02,44.8099,21.04c6.2201,3.68,12.4701,7.48,17.66,12.56
		c2.7,2.92,6.03,7.49,3.25,11.4c-3.38,4.58-9.39,5.75-14.48,7.4901c-13.1,3.12-26.53,4.47-39.88,6.09
		c-11.59,1.09-23.08,3.29-34.72,3.68c-8.05,1.28-16.2401,0.49-24.3,1.55c-12,0.5-24.02,0.47-36.01,1.17
		c-16.81,0.44-33.63,0.41-50.43,0.61c-0.02-3.18,2.61-5.33,3.59-8.17c0.44-1.08,0.71-2.35,1.84-2.94c3.16-2.18,5.23-5.45,7.6-8.39
		c7.74-9.85,15.85-19.4,24.32-28.63c-10.7,3.5-19.9301,10.21-27.9,18.03c-1.42,1.37-4.09,4.05-5.43,1.11
		c2.78-4.27,7.33-7.02,11.03-10.46c7.8-6.88,17.61-10.81,27.45-13.73C964.85,530.3,973.37,522.9,983.77,518.92 M1001.66,531.08
		c2.51,1.85,5.35,4.84,8.72,4.17c3.28,4.19,6.6,9.07,5.44,14.71c-0.22,5.82-5.11,9.49-9.27,12.78c-0.79-0.11-1.57-0.08-2.34,0.1
		c-5.2,0.43-10.86-0.57-14.7-4.3701c-2.76-2.37-3.36-6.11-4.88-9.22c0.85-3,1.25-6.16,2.63-8.99c1.59-2.63,3.83-4.78,5.7-7.2
		c-7.71,2.56-17.14,3.52-22.08,10.8c-4.21,5.16-4.52,12.3-3.17,18.55c1.4,5.51,5.85,9.9,11.13,11.82
		c9.64,4.29,21.18,5.07,30.8799,0.54c4.39-1.93,9.3701-2.75,13.13-5.91c3.99-3.38,8.03-7.25,9.52-12.43
		c1.85-6.29,0.92-13.5-2.85-18.92c-3.15-4.28-8.68-5.53-13.57-6.64C1011.25,530.05,1006.15,528.85,1001.66,531.08 M1029.98,532.19
		c10.6901,10.78,8.75,30.53-3.1699,39.63c-2.8401,2.42-6.42,3.64-9.4301,5.79c7.27,0.39,14.38-1.43,21.65-1.26
		c18.78-2.56,37.7899-3.06,56.5599-5.83c1.24-2.83,1.86-6.15,0.78-9.13c-1.35-4.14-6.12-5.15-9.42-7.25
		C1068.55,545.43,1049.87,536.89,1029.98,532.19 M935.46,572.4c-1.79,2.91-1.97,6.93-0.47,10.0699c7.98-0.36,16-0.3,23.97-1.14
		c7.82-0.57,15.71-0.33,23.49-1.57c-5.4-2.32-11.74-3.78-15.28-8.91c-5.93-8.24-4.48-19.44-0.77-28.3
		C955.58,551.96,945.72,562.41,935.46,572.4 M1100.4,561.84c-0.15,2.39-0.22,4.78-0.25,7.19c1.24-0.44,2.49-0.89,3.75-1.33
		C1104.0601,565.06,1102.5699,563.11,1100.4,561.84 M924.08,583.16c2.56,0.31,5.14,0.42,7.73,0.47c-0.29-2.21-0.64-4.41-1.09-6.58
		C928.17,578.69,926.01,580.84,924.08,583.16z"/>
	<path fill="#090100" stroke="#090100" stroke-width="0.594" d="M1035.52,517.91c-0.9501-3.08,2.34-2.65,4.1799-1.8199
		c18.05,6.17,36.9,11.39,52.74,22.42c6.2001,4.07,12.1101,8.56,17.9701,13.11c1.23,0.81,1.85,2.16,2.58,3.41
		c-0.72,0.23-2.16,0.67-2.87,0.9c-6.5599-5.92-13.98-10.84-21.29-15.78c-12.6899-8.62-27.5199-13.05-41.8099-18.17
		C1043.22,520.52,1039.12,519.83,1035.52,517.91z"/>
	<path fill="#090100" stroke="#090100" stroke-width="0.594" d="M750.66,570.61c1.25,0.56,3.15,0.74,2.9301,2.57
		c1.94,17.37,4.2,34.71,5.22,52.15c1.59,11.21,0.05,22.48-0.6,33.69c-1.16,7.94-1.54,16.02-3.29,23.87
		c-0.26,2.32-3.11,1.94-4.7,1.44c0.92-2.06,2.08-4.07,2.3701-6.33c1.41-10.47,2.53-20.97,3.1299-31.52
		c1.25-9.47-0.33-18.95-0.68-28.43c-1.13-12.15-2.28-24.29-3.7599-36.4C750.69,578,750.25,574.3,750.66,570.61z"/>
	<path fill="#090100" stroke="#090100" stroke-width="0.594" d="M1075.8101,610.92c6.75-2.02,13.34-4.51,20.0199-6.74
		c0.4701,0.91,0.9401,1.84,1.4,2.79c-3.01,1.79-6.09,3.55-9.4199,4.65c-2.4501,0.05-4.89,0.24-7.1801,1.15
		c-19.42,6.45-39.11,12.13-58.99,16.98c-13.38,2.92-27.13,5.74-40.86,3.83c-18.95-1.65-37.42-6.47-55.6201-11.8
		c-1.36-0.5-3.29-0.85-3.16-2.69c0.89-1.69,2.73-0.72,4.16-0.45c11.46,3.5,23.13,6.27,34.85,8.74c14.69,2.79,29.88,4.96,44.75,2.16
		C1029.5601,625.21,1052.75,618.12,1075.8101,610.92z"/>
	<path fill="#FBE9D7" stroke="#FBE9D7" stroke-width="0.594" d="M1047.02,521.98c14.29,5.12,29.12,9.55,41.8099,18.17
		c7.3101,4.94,14.7301,9.86,21.29,15.78c0,0.53,0,1.6,0,2.14c-5.1899-5.08-11.4399-8.88-17.66-12.56
		c-14.4399-8.02-29.48-14.92-44.8099-21.04C1047.49,523.85,1047.1801,522.6,1047.02,521.98z"/>
	<path fill="#1A1A1A" stroke="#1A1A1A" stroke-width="0.594" d="M1001.66,531.08c4.4901-2.23,9.59-1.03,14.29-0.21
		c4.89,1.11,10.42,2.36,13.57,6.64c3.77,5.42,4.7,12.63,2.85,18.92c-1.49,5.18-5.53,9.05-9.52,12.43
		c-3.7599,3.16-8.74,3.98-13.13,5.91c-9.7,4.53-21.24,3.75-30.8799-0.54c-5.28-1.92-9.73-6.31-11.13-11.82
		c-1.35-6.25-1.04-13.39,3.17-18.55c4.94-7.28,14.37-8.24,22.08-10.8c-1.87,2.42-4.11,4.57-5.7,7.2c-1.38,2.83-1.78,5.99-2.63,8.99
		c-0.58-0.89-1.17-1.76-1.76-2.61c-3.23,4.2-6.78,8.74-7.27,14.2c0.52,4.15,3.6801,9.2,8.38,8.94c3.58,0.04,7.14,0.47,10.73,0.49
		c3.63-0.56,6.71-2.78,9.95-4.39c-0.16-1.02-0.3199-2.04-0.45-3.04c0.77-0.1801,1.55-0.21,2.34-0.1c5.72,2.07,12.45,1.65,17.65-1.54
		c2.05-2.79,2.1901-6.49,2.51-9.82c0.5701-6.6-3.73-12.52-8.5599-16.53c-2.36-2.02-5.32-0.5099-7.77,0.4
		C1007.01,535.92,1004.17,532.93,1001.66,531.08z"/>
	<path fill="#2D2D2D" stroke="#2D2D2D" stroke-width="0.594" d="M1010.38,535.25c2.45-0.91,5.41-2.42,7.77-0.4
		c4.83,4.01,9.13,9.9301,8.5599,16.53c-0.3199,3.33-0.46,7.03-2.51,9.82c-5.2,3.19-11.9299,3.61-17.65,1.54
		c4.16-3.29,9.05-6.96,9.27-12.78C1016.98,544.32,1013.66,539.44,1010.38,535.25z"/>
	<path fill="#FDDAC6" stroke="#FDDAC6" stroke-width="0.594" d="M1191.48,540.13c1.85,0.46,3.7001,0.96,5.52,1.58
		c-0.39,0.61-1.1801,1.84-1.5699,2.46c5.0599,2.56,11.0699,4.08,14.7799,8.66c2.24,4.33,1.41,9.47,1.5901,14.18
		c-0.17,9.89-0.5901,19.8,0.26,29.67c0.6399,15.35,1.22,30.73,3.1499,45.99c-0.33,1.14-0.64,2.3-0.9399,3.46
		c-4.4301-24.15-9.78-48.12-15.28-72.05C1196.55,562.75,1193.26,551.59,1191.48,540.13z"/>
	<path fill="#FEFEFE" stroke="#FEFEFE" stroke-width="0.594" d="M935.46,572.4c10.2599-9.9901,20.12-20.44,30.94-29.85
		c-3.71,8.86-5.16,20.06,0.77,28.3c3.54,5.13,9.88,6.59,15.28,8.91c-7.78,1.24-15.67,1-23.49,1.57
		c-7.97,0.84-15.9901,0.78-23.97,1.14C933.49,579.33,933.67,575.31,935.46,572.4z"/>
	<path fill="#FEFEFE" stroke="#FEFEFE" stroke-width="0.594" d="M623.29,585.6c8.26,2.98,15.69,7.66,23.42,11.73
		c6.44,3.84,13.03,7.43,19.3,11.54c2.4,2.7,2.15,8.98-2.26,9.57c-15.61,4.12-31.67,6.81-47.82,7.12c2.54-2.42,5.2-4.95,6.34-8.37
		C625.73,607.06,626.34,595.92,623.29,585.6z"/>
	<path fill="#292929" stroke="#292929" stroke-width="0.594" d="M975.6,560.84c0.4901-5.46,4.04-10,7.27-14.2
		c0.59,0.85,1.18,1.72,1.76,2.61c1.52,3.11,2.12,6.85,4.88,9.22c3.84,3.8,9.5,4.8,14.7,4.3701c0.13,1,0.29,2.02,0.45,3.04
		c-3.24,1.61-6.3199,3.83-9.95,4.39c-3.59-0.02-7.15-0.45-10.73-0.49C979.28,570.04,976.12,564.99,975.6,560.84z"/>
	<path fill="#CC1C1F" stroke="#CC1C1F" stroke-width="0.594" d="M1100.4,561.84c2.1699,1.27,3.66,3.22,3.5,5.86
		c-1.26,0.44-2.51,0.89-3.75,1.33C1100.1801,566.62,1100.25,564.23,1100.4,561.84z"/>
	<path fill="#020102" stroke="#020102" stroke-width="0.594" d="M571.53,568.25c12.93-3.68,26.56-1.21,39.39,1.71
		c10.77,3.5,20.04,10.38,30.54,14.54c2.37,0.09,4.79-0.72,7.13,0.07c10.79,2.98,21.7599,6.89,30.24,14.45
		c-0.48,0.41-1.42,1.23-1.89,1.64c-3.18-1.0699-5.73-3.39-8.65-4.98c-6.56-4.07-14.14-5.89-21.43-8.14
		c11.1,6.69,22.57,12.86,33.18,20.36c3.17,2.36,5.4,6.14,5.55,10.14c-13.31,3.58-27,5.5-40.46,8.44
		c-14.5,3.34-29.23,5.78-44.11,6.42c-20.19,0.59-40.39,1.05-60.58,0.48c-10.85-0.45-21.76,0.07-32.56-1.37
		c-3.91-0.3-5.82-4.59-6.29-8c-0.49-3.11,1.96-5.46,3.9-7.5c9.65-9.39,19.7-18.36,30-27.02
		C546.19,580.54,557.85,571.89,571.53,568.25 M588.4,581.26c-5.83,0.63-11.8,1.33-17.1,4c-4.04,2.06-9.01,3.6-11.11,7.99
		c-2.52,5-3.61,10.84-2.8,16.39c1.43,7.72,8.14,13.03,15.01,15.9c4.78,1.64,9.87,0.29,14.3199-1.67c5.28-2.57,10.84,2.41,16.15,0.05
		c5.24-1.97,11.24-3.61,14.59-8.47c3.74-5.69,4.32-12.87,3.64-19.48c-0.38-4.25-2.88-8.6-7.13-9.95
		C605.81,583.05,597.23,579.84,588.4,581.26 M623.29,585.6c3.05,10.32,2.44,21.46-1.02,31.59c-1.14,3.42-3.8,5.95-6.34,8.37
		c16.15-0.31,32.21-3,47.82-7.12c4.41-0.59,4.66-6.87,2.26-9.57c-6.27-4.11-12.86-7.7-19.3-11.54
		C638.98,593.26,631.55,588.58,623.29,585.6 M538.69,600.72c-7.58,4.76-14.91,9.91-21.97,15.41c0.19,2.69-1.0099,6.56,1.8,8.19
		c6.37,1.63,13.04,0.65,19.49,1.81c7.82,0.4,15.68,0.17,23.51,0.25c-2.81-3.48-6.09-6.68-8.15-10.69c-0.95-9.42,0.01-19.3,4.8-27.65
		C551.49,591.98,545.25,596.6,538.69,600.72 M670.43,611.96c-0.04,1.63-0.07,3.2599-0.08,4.91c1.91-0.39,3.81-0.81,5.72-1.25
		C675.37,612.99,672.87,612.13,670.43,611.96 M510.45,622.87c1.25,0.53,2.5,1.05,3.77,1.57c-0.14-1.91-0.29-3.8-0.47-5.69
		C512.53,620.02,511.42,621.39,510.45,622.87z"/>
	<path fill="#BD1A1C" stroke="#BD1A1C" stroke-width="0.594" d="M924.08,583.16c1.93-2.3199,4.09-4.47,6.64-6.11
		c0.45,2.17,0.8,4.37,1.09,6.58C929.22,583.58,926.64,583.47,924.08,583.16z"/>
	<path fill="#141414" stroke="#141414" stroke-width="0.594" d="M588.4,581.26c8.83-1.42,17.41,1.79,25.5699,4.76
		c4.25,1.35,6.75,5.7,7.13,9.95c0.6801,6.61,0.1,13.79-3.64,19.48c-3.35,4.86-9.35,6.5-14.59,8.47c-5.31,2.36-10.87-2.62-16.15-0.05
		c-4.45,1.96-9.54,3.31-14.3199,1.67c-6.87-2.87-13.58-8.18-15.01-15.9c-0.81-5.55,0.28-11.39,2.8-16.39
		c2.1-4.39,7.07-5.93,11.11-7.99C576.6,582.59,582.57,581.89,588.4,581.26 M592.58,585.03c-5.73-1.11-11.48,1.05-15.81,4.77
		c0.71-1.29,1.35-2.61,2-3.92c-3.77,1.55-7.73,3.25-10.3,6.56c-2.36,3.04-4.5099,6.28-6.27,9.71c-1.36,2.6-1.77,6.04,0.24,8.44
		c2.66,3.27,5.58,6.47,9.04,8.92c4.44,1.57,8.9-1.46,13.42-1.24c5.6,0.32,11.28,1.5,16.86,0.37c2.72-1.05,5-2.98,7.73-4.03
		c2.27-1.06,4.91-1.54,6.8-3.28c3.06-3.64,3.17-9.18,0.43-13.04c-4.05-6.16-9.7599-11.4-16.46-14.53
		C597.67,582.3,594.92,583.88,592.58,585.03z"/>
	<path fill="#212121" stroke="#212121" stroke-width="0.594" d="M592.58,585.03c2.34-1.15,5.09-2.73,7.68-1.27
		c6.7,3.13,12.41,8.37,16.46,14.53c2.7401,3.86,2.63,9.4-0.43,13.04c-1.89,1.74-4.53,2.22-6.8,3.28c-2.73,1.05-5.01,2.98-7.73,4.03
		c-5.58,1.13-11.26-0.05-16.86-0.37c-4.52-0.22-8.98,2.81-13.42,1.24c-3.46-2.45-6.38-5.65-9.04-8.92c-2.01-2.4-1.6-5.84-0.24-8.44
		c1.76-3.4301,3.91-6.67,6.27-9.71c2.57-3.31,6.53-5.01,10.3-6.56c-0.65,1.31-1.29,2.63-2,3.92c-3.25,5.41-6.29,12.37-3.01,18.48
		c5.28,10.68,22.35,10.84,28.79,1.25c3.31-4.96,2.89-11.8701-0.29-16.79C599.98,589.18,596.26,586.91,592.58,585.03z"/>
	<path fill="#010101" stroke="#010101" stroke-width="0.594" d="M576.77,589.8c4.33-3.72,10.08-5.88,15.81-4.77
		c3.68,1.8799,7.4,4.15,9.68,7.71c3.18,4.92,3.6,11.83,0.29,16.79c-6.44,9.59-23.51,9.43-28.79-1.25
		C570.48,602.17,573.52,595.21,576.77,589.8z"/>
	<path fill="#777777" stroke="#777777" stroke-width="0.594" d="M365.67,595.15c0.09-3.12,0.41-6.2401,0.9-9.32
		c-0.27,11.98,1.56,23.84,1.86,35.8c0.46,7.79,1.19,15.56,1.43,23.37c0.57,13.16,2.65,26.26,2.39,39.45c-0.47-0.3-1.42-0.9-1.89-1.2
		c-1.22-0.73-1.15-2.47-1-3.7c1.08-4.42,1.03-9,0.6-13.5c-0.35,0.28-1.03,0.84-1.38,1.12c-0.16-0.86-0.23-1.72-0.23-2.58
		c0.79-4.1801,1.06-8.47,0.51-12.7c-3.22-7.26-1.67-15.29-2.3-22.97c-0.11-2.82-0.6-5.64-0.32-8.45c0.76-3.93,0.84-7.96-0.07-11.86
		C365.52,604.15,365.69,599.63,365.67,595.15z"/>
	<path fill="#080100" stroke="#080100" stroke-width="0.594" d="M520.56,591.58c2.19-1.89,4.82-3.11,7.51-4.1
		c0.64,0.83,1.28,1.66,1.93,2.5c-6.6,2.56-11.52,7.77-16.87,12.18c-8.26,7.15-14.77,15.9901-21.48,24.54
		c-0.68-0.01-2.05-0.04-2.73-0.05c0.23-1.48,0.7-2.92,1.68-4.07c4.46-5.82,9.15-11.47,14.06-16.91
		C509.57,600.55,515.08,596.05,520.56,591.58z"/>
	<path fill="#080100" stroke="#080100" stroke-width="0.594" d="M687.98,652.01c0.93-1.57,3.7-1.32,3.26,0.89
		c-3.76,5.25-8.48,9.77-13.11,14.25c-6.63,6.53-15.12,10.65-23.5,14.44c-16.13,6.67-33.09,12.2599-50.68,12.8
		c-10.01,0.68-20.02-0.11-30.02-0.52c-6.24-0.75-12.59-0.71-18.74-2.1c0.03-0.66,0.07-2,0.1-2.67
		c19.64,1.29,39.43,3.7401,59.09,1.14c17.58-3.11,34.74-8.86,50.45-17.39C674.02,667.75,681.14,659.82,687.98,652.01z"/>
	<path fill="#080100" stroke="#080100" stroke-width="0.594" d="M948.09,728.23l0.86-0.64c5.85,3.46,11.08,7.89,16.57,11.91
		c15.36,11.92,31.15,23.35,45.47,36.55c18.59,17.33,33.5701,37.99,48.65,58.32c0.9,1.7,3.3099,3.29,2.12,5.41
		c-1.26,0.21-2.62-0.04-3.22-1.26c-10.63-14.62-21.52-29.08-33.25-42.85c-17.86-21.02-40.51-37.04-62.17-53.82
		c-4.5-3.52-9.19-6.79-13.73-10.24C948.63,730.8,946.17,729.15,948.09,728.23z"/>
	<path fill="#A1A1A3" stroke="#A1A1A3" stroke-width="0.594" d="M366.17,608.61c0.91,3.9,0.83,7.93,0.07,11.86
		C365.53,616.55,365.66,612.53,366.17,608.61z"/>
	<path fill="#C21B28" stroke="#C21B28" stroke-width="0.594" d="M670.43,611.96c2.44,0.17,4.94,1.03,5.64,3.66
		c-1.91,0.44-3.81,0.86-5.72,1.25C670.36,615.22,670.39,613.59,670.43,611.96z"/>
	<path fill="#6B181C" stroke="#6B181C" stroke-width="0.594" d="M510.45,622.87c0.97-1.48,2.08-2.85,3.3-4.12
		c0.18,1.89,0.33,3.78,0.47,5.69C512.95,623.92,511.7,623.4,510.45,622.87z"/>
	<path fill="#FDDAC5" stroke="#FDDAC5" stroke-width="0.594" d="M1215.21,642.67c1.3401,9.49,4.16,18.84,8.75,27.29
		c3.9401,7.35,8.8301,14.2,11.99,21.96c4.7101,12.08,5.5701,25.21,5.39,38.06c-0.96,21.1-5.8199,41.87-6.11,63.03
		c-1.11,14.63-0.1799,29.34-1.01,43.98c-0.9199,7.65-2.48,15.25-4.8099,22.59c-1.2201,4.14-4.65,7.06-8.3,9.08
		c0.84-12.5099,2.1901-24.98,2.5701-37.5099c1.0499-10.94,0.5499-21.95,1.58-32.89c0.14-12.1,0.55-24.18,1.05-36.26
		c-0.3201-38.89-5.04-77.64-12.04-115.87C1214.5699,644.97,1214.88,643.81,1215.21,642.67z"/>
	<path fill="#D9D9D9" stroke="#D9D9D9" stroke-width="0.594" d="M367.86,651.89h1c0.55,4.23,0.28,8.52-0.51,12.7
		C367.63,660.39,368.1,656.12,367.86,651.89z"/>
	<path fill="#C6C7C8" stroke="#C6C7C8" stroke-width="0.594" d="M368.58,667.17c0.35-0.28,1.03-0.84,1.38-1.12
		c0.43,4.5,0.48,9.08-0.6,13.5C368.72,675.45,369.08,671.28,368.58,667.17z"/>
	<path fill="#040101" stroke="#040101" stroke-width="0.594" d="M928.18,723.17c2.3-0.2,3.74,2,5.39,3.25
		c8.78,7.38,13.56,18.19,17.61,28.65c2.62,6.48,3.3,13.65,2.15,20.53c-3.07,12.52-11.51,23.94-23.23,29.57
		c-9.58,4.01-20.17,1.31-30.16,2.9c-5.54,0.48-10.82,2.45-15.7,5.03c-4.49,2.4301-9.33,4.47-13.01,8.12
		c-6.22,4.4-11.09,10.72-18.22,13.78c-9.04,3.79-18.98,6.63-28.84,4.99c-11.39-1.56-20.83-8.69-31.29-12.87
		c-7.91-3.08-16.26-6.06-24.88-5.37c-9.26,1.06-18.53,1.99-27.73,3.51c-3.9,2.07-7.61,5.23-12.28,5.11
		c-6.2-0.69-11.66-4.13-16.6-7.74c-9.18-7.08-17.95-16.13-20.15-27.96c-1.24-8.32-0.88-17.15,2.49-24.97
		c2.99-7.03,7.01-13.54,10.9-20.09c1.97-3.1,3.72-6.43,6.39-8.99c2.03,0.05,2.15,2.23,1.07,3.51
		c-6.09,9.44-12.1801,19.01-16.33,29.5c-3.34,10.71-2.8,23.3,3.98,32.62c5.61,7.67,12.99,14.14,21.4,18.59
		c3.34,1.6299,7.35,3.02,10.94,1.27c6.98-2.95,11.47-9.91,18.8-12.25c9.11-3.28,19.92-5.72,28.84-0.64
		c12.4901,6.65,23.8101,15.38,36.66,21.39c11.96,4.7,25.53,2.19,36.76-3.37c8.56-4.85,14.56-12.85,22.07-19.04
		c6.74-5.89,14.1-13.36,23.77-12.9c8.56-0.54,16.23,4.91,24.79,4.4c5.91-0.95,10.88-4.8,15.09-8.84
		c7.89-7.97,13.23-19.44,11.34-30.8c-2.03-10.09-6.68-19.43-12.19-28.03c-2.62-4.02-6.53-6.85-9.98-10.05
		C927.04,725.15,926.86,723.76,928.18,723.17z"/>
	<path fill="#090200" stroke="#090200" stroke-width="0.594" d="M687,753.95c0.98-1.53,2.63-1.87,4.28-1.21
		c-1.02,3.19-3.4901,5.51-5.4901,8.08c-10.81,13.61-21.39,27.41-31.1,41.82c-11.76,17.81-20.48,37.38-29.14,56.81
		c-1.3,2.74-2.09,5.77-3.92,8.22c-2.92,0.98-2.33-2.82-1.35-4.32c10.58-24.47,21.55-49.09,37.28-70.7599
		C666.91,779.36,676.9,766.59,687,753.95z"/>
	<path fill="#060101" stroke="#060101" stroke-width="0.594" d="M882.6,900.82c8.63-2.09,17.56-1.66,26.37-1.54
		c14.34,0.86,28.1801,4.93,42.23,7.61c9.83,1.93,19.86,2.33,29.8,3.41c6.01-0.05,11.92,1.24,17.93,1.19
		c5.67,0.27,11.35,0.12,17.03,0.2c1.35,1.71,3.9,3.73,1.97,6.03c-8.2,12.66-17.34,24.71-26.62,36.6
		c-11.08,14.42-23.73,27.62-37.51,39.49c-15.85,13.22-35.51,20.93-55.45,25.49c-23.72,5.89-48.02,8.71-72.29,11.1301
		c-23.54,3.08-47.82,5.59-71.15-0.29c-17.94-3.63-33.7599-13.35-48.96-23.09c-17.29-11.45-33.84-23.99-49.86-37.14
		c-6.2401-4.83-12.21-10.27-16.32-17.0699c-1.58-3.22,2.64-4.57,5.05-4.98c9.97-1.2,20.26-1.58,29.66-5.51
		c23.16-8.22,46.18-16.9,69.68-24.12c8.94-2.49,17.92-5.17,27.2-6.04c10.87-1.7,21.81,0.41,32.61,1.62
		c13.79,1.95,28.05,2.01,41.58-1.59C858.04,908.9,869.94,903.56,882.6,900.82 M879.63,904.75c-10.86,2.52-21.02,7.29-31.8,10.08
		c-12.22,3.28-25.06,4.14-37.62,2.77c-12.06-1.15-24.1-3.66-36.26-2.59c-13.03,1.05-25.55,5.1-37.93,9.06
		c-21.41,6.8-42.38,14.89-63.59,22.26c-6.9,2.54-14.28,2.86-21.45,4.07c13.29,2.36,26.76,0.24,40.01-1.3
		c24.57-3.18,49.24-5.61,73.99-6.63c25.34-1.64,50.71-3.1299,76.01-5.54c46.32-4.34,92.3-11.54,138.46-17.25
		c9.28-1.25,18.79-1.62,27.79-4.43c-22.08-1.85-44.5-2.06-66.14-7.37C921.08,903.23,899.92,899.55,879.63,904.75 M1005.72,923.72
		c-3.77,4.8701-8.78,8.53-13.3,12.66c-9.12,7.68-18.53,15.09-28.76,21.25c-12.19,7.44-25.78,12.12-39.23,16.71
		c-25.54,8.08-51.81,13.94-78.45,16.9c-8.98,1.21-18.05,1.16-27.02,2.32c-12.26,0.1-24.53-0.01-36.78,0.05
		c-5.71-0.86-11.48-1.04-17.24-1.24c-14.63-1.36-29.31-2.72-43.69-5.84c-17.25-3.97-34.21-9.6-49.9-17.8701
		c-8.95-4.19-17.15-9.81-26.21-13.75c2.45,3.19,5.12,6.22,8.26,8.7401c17.02,14.14,34.55,27.71,52.99,39.97
		c15.07,9.75,30.74,19.47,48.48,23.42c19.36,4.8099,39.55,4.09,59.21,1.74c15.49-1.9301,31.06-3.22,46.52-5.47
		c21.9901-3.43,44.2-7.26,64.84-15.9c14.26-5.98,26.89-15.28,37.63-26.33c14.4-13.45,26.48-29.07,38.14-44.89
		c4.6-6.38,9.55-12.56,13.42-19.42C1010.46,917.14,1008.13,920.79,1005.72,923.72 M950.78,926.6
		c-23.59,3.06-47.1201,6.57-70.75,9.31c-35.6,4.25-71.27,7.36-107.05,9.17c-7.93,1.08-15.97,0.52-23.9,1.6
		c-25.86,0.89-51.41,5.24-77.11,7.81c-7.06,0.5-14.18,0.37-21.15-0.89c4.39,3.38,9.65,5.38,14.38,8.23
		c27.46,15.48,58.52,24.13,89.9,26.32c22.54,2.47,45.26,2.47,67.91,1.87c6.31-0.93,12.73-0.64,19.04-1.61
		c23.15-2.08,45.94-7.12,68.36-13.14c17.22-5.21,34.58-10.62,50.28-19.59c10.24-6.14,19.78-13.37,28.86-21.11
		c5.46-4.79,11.3-9.33,15.58-15.28C987.15,922.67,968.87,923.87,950.78,926.6z"/>
	<path fill="#CEAE9F" stroke="#CEAE9F" stroke-width="0.594" d="M879.63,904.75c20.29-5.2,41.45-1.52,61.47,3.13
		c21.64,5.31,44.06,5.52,66.14,7.37c-9,2.81-18.51,3.18-27.79,4.43c-46.16,5.71-92.14,12.91-138.46,17.25
		c-25.3,2.41-50.67,3.9-76.01,5.54c-24.75,1.02-49.42,3.45-73.99,6.63c-13.25,1.54-26.72,3.66-40.01,1.3
		c7.17-1.21,14.55-1.53,21.45-4.07c21.21-7.37,42.18-15.46,63.59-22.26c12.38-3.96,24.9-8.01,37.93-9.06
		c12.16-1.07,24.2,1.44,36.26,2.59c12.56,1.37,25.4,0.51,37.62-2.77C858.61,912.04,868.77,907.27,879.63,904.75z"/>
	<path fill="#CEAE9F" stroke="#CEAE9F" stroke-width="0.594" d="M1005.72,923.72c2.41-2.93,4.7401-6.58,8.91-6.95
		c-3.87,6.86-8.82,13.04-13.42,19.42c-11.66,15.82-23.7401,31.44-38.14,44.89c-10.74,11.05-23.37,20.35-37.63,26.33
		c-20.64,8.64-42.85,12.47-64.84,15.9c-15.46,2.2501-31.03,3.54-46.52,5.47c-19.66,2.35-39.85,3.0699-59.21-1.74
		c-17.74-3.95-33.41-13.67-48.48-23.42c-18.44-12.26-35.97-25.83-52.99-39.97c-3.14-2.52-5.81-5.55-8.26-8.7401
		c9.06,3.94,17.26,9.56,26.21,13.75c15.69,8.27,32.65,13.9,49.9,17.8701c14.38,3.12,29.06,4.48,43.69,5.84
		c5.76,0.2,11.53,0.38,17.24,1.24c-1.2,0.32-2.38,0.71-3.53,1.17c8.09,0.72,16.22,0.11,24.33,0.17c7.07-0.02,14.16,0.46,21.22-0.27
		c-1.74-0.44-3.49-0.82-5.24-1.12c8.97-1.16,18.04-1.11,27.02-2.32c26.64-2.96,52.91-8.82,78.45-16.9
		c13.45-4.59,27.04-9.27,39.23-16.71c10.23-6.16,19.64-13.57,28.76-21.25C996.94,932.25,1001.95,928.59,1005.72,923.72z"/>
	<path fill="#040304" stroke="#040304" stroke-width="0.594" d="M1182.45,988.4c10.4301-19.22,18.6101-39.61,24.5701-60.64
		c0.75,1.48,1.52,2.96,2.2999,4.46c-2.34,8.33-5.3899,16.4301-8.4299,24.52c53.36,33.82,106.4,68.15,160.4399,100.89
		c8.28,4.79,16.3301,10.05,25.01,14.11c7.88,3.47,16.53,0.87,24.67,0.05c7.14-1.0701,14.24,0.9199,21.04,2.9399
		c49.85,14.52,99.1799,30.75,148.6,46.64c10.1699,3.15,19.6899,8.09,29.9299,11.08c29.05,9.91,59.3301,15.88,89.79,19.3501
		c8.49,1.0599,17.59-3.3401,25.63,0.8899v5.26c-4.17-4.35-10.5-3.33-15.87-2.75c-10.3199,1.41-20.54-1.1699-30.7-2.61
		c-30-4.4199-59.7001-11.74-87.79-23.24c-17.78-6.7899-36.0601-12.12-54.15-17.98c-28.62-9.0699-57.1-18.5699-85.9299-26.98
		c-9.88-2.87-19.5801-6.42-29.7001-8.38c-12.0699-2.55-24.5599,4.03-36.4-0.5701c-6.27-2.7799-12.13-6.4199-18.0599-9.83
		c-32.61-19.53-64.72-39.85-96.87-60.12c-23.5701-14.91-46.91-30.21-70.5901-44.93c-5.6599,11.82-11.35,23.62-17.0399,35.42
		c23.75,26.64,47.59,53.21,70.84,80.3c11.74,13.5699,23.79,26.9,35.21,40.75c25.4401,30.2999,50.9601,60.5599,75.1101,91.9199
		c12.4199,15.37,24,31.4,35.5299,47.4501c3.26,4.46,6.24,9.13,9.1901,13.8099c6.97,11.26,14.6599,22.29,18.97,34.9401
		c2.37,6.73,2.4301,14.02,1.42,21.02c-2.4601,18.1499-10.66,34.84-19.3501,50.73c-7.38,12.72-15.6799,24.88-23.88,37.0699
		c-6.1799,8.9601-12.74,17.78-17.4199,27.65c-1.74,3.21-1.5,7.21,0.72,10.15c4.64,6.5599,12.0601,10.29,18.92,14.09
		c7.86,4.04,14.6899,9.9501,23.1,12.9501c19.8,8.5199,40.24,15.59,59.42,25.5099c13.1699,6.51,25.61,14.62,36.5599,24.4401
		c6.15,6,11.8,12.9299,14.83,21.0699c2.64,10.38,0.3401,21.1901-1.7899,31.4601c-1.6,8.89-4.8101,17.36-6.97,26.12
		c-9.51,32.38-21.7101,63.86-33.6001,95.4099c-28.7899,73.17-59.6899,145.4901-91.98,217.1801h-6.1799
		c1.22-4.95,2.7-9.84,4.5599-14.58c1.11,0.38,2.23,0.7999,3.38,1.23c14.25-30.79,27.48-62.0601,40.95-93.2101
		c25.8401-61.11,51.1801-122.5,72.55-185.34c5.63-17.89,11.64-35.74,14.99-54.24c1.2001-7.0599,2.47-14.39,0.85-21.47
		c-2.1599-7.61-7.23-13.99-12.72-19.49c-11.9299-11.74-26.6799-20.0601-41.5699-27.4301
		c-18.02-8.9399-36.9501-15.8099-55.49-23.5599c-8.4601-3.39-15.5801-9.1901-23.6001-13.39c-6.6899-3.64-13.71-7.3201-18.4299-13.49
		c-2.51-3.37-4.54-7.8-3.03-12.01c2.51-7.49,7.3101-13.91,11.58-20.46c12.63-18.5701,25.7001-36.9401,36.05-56.92
		c7.35-14.5601,13.87-30.09,14.4301-46.62c0.3199-7.5701-2.17-14.91-5.55-21.5801c-8.15-16.22-18.6-31.1399-28.99-45.98
		c-19.48-26.97-40.09-53.1-61.12-78.86c-47.15-57.62-96.15-113.71-145.83-169.15c-1.39-1.49-2.8101-2.93-4.2301-4.36
		c-7.3999,14.73-13.7,29.9799-20.0499,45.19c-4.53,11.09-8.54,22.59-9.23,34.6599c-1.37,11.38,0.5499,22.75,1.24,34.1101
		c0.86,12.6599,2.14,25.2899,2.5699,37.98c1.15,10.64,0.4301,21.37,1.58,32.02c0.27,13.5399,0.39,27.11-0.0699,40.6399
		c-1.04,9.14-0.4399,18.3501-1.14,27.51c-4.16,76.79-9.47,153.62-19.11,229.9501c-3.45,25.4299-7.3199,50.83-13.05,75.85
		c-6.5699,30.4-15.08,60.3199-24.0299,90.1c-2.03,7.97-5.4,15.5801-6.65,23.74c-0.58,4.0801-2.89,7.6-4.12,11.48
		c-6.41,20.9301-12.64,41.9401-17.61,63.27c-7.63,37.38-13.49,75.11-18.11,112.98c-1.1901,10.4501-2.6101,20.9-2.64,31.4401
		c-0.04,10.01,0.2999,20.02,1.2899,29.99h-3.3199c-1.4401-13.96-1.8-28.0601-0.79-42.0601c1.79-19.33,4.24-38.6,7.1-57.7999
		c4.1101-26.6801,8.1901-53.39,14.2001-79.72c4.15-19.55,10.96-38.39,15.78-57.75c-7.5901,5.84-14.17,12.87-21.5601,18.96
		c-4.73,3.8-9.21,8.72-15.58,9.47c-0.48-3.25-0.04-6.5599,1.78-9.33c9.47-15.8301,20.5099-30.78,28.36-47.54
		c8.1699-18.35,16.39-36.6799,23.7899-55.36c6.14-15.45,12.3301-30.9399,16.88-46.95c1.62-5.9401,2.91-12.41,0.5801-18.3501
		c-3.91-11.33-13.12-19.46-20.63-28.38c-5.27-6.1299-9.23-13.2999-14.87-19.11c-2.75-2.8099-6.6901-5.45-10.78-4.21
		c-4.33,1.3101-8.04,4.03-11.8101,6.4301c-29.2899,19.3999-57.34,40.5699-85.5599,61.48c-17.37,12.9399-34.67,25.99-52,38.97
		c-9.92,7.05-19.15,15.1801-30.04,20.75c-1.56,9.13-6.66,17.08-9.4,25.86c-8.32,20.67-13.84,42.4401-16.43,64.58
		c-2.36,21.27-3.57,42.66-3.91,64.0601c-0.3,12.67,0.89,25.3199,0.65,38c0.56,39.33,0.24,78.66,0.32,118h-24.71
		c0.3-24.34-0.21-48.6801,0.41-73.01c0.96-15.66,0.66-31.34,0.73-47.01c-0.06-10.6899,1.53-21.2999,1.27-31.98
		c-0.31-12.02,0.98-23.98,1.14-35.98c0.76-12.65,1.19-25.36,3.42-37.86c3.17-18.16,7.91-36.02,13.5-53.5701
		c1.4901-4.1699-0.56-8.39-2.0099-12.24c-5.05-11.71-13.6-21.65-23.4901-29.59c-31.09-25.4301-63.5-49.1801-95.41-73.5701
		c-35.64-26.72-71.1-53.6899-107.22-79.7599c-7.04-5.01-14.63-9.55-22.98-11.9701c-4.52-1.39-9.51-0.0299-12.82,3.3
		c-7.45,7.08-13.0099,16.11-16.4,25.79c-2.48,6.86-1.93,14.2999-1.31,21.4399c2.2,21.52,5.56,42.9,9.63,64.14
		c4.04,22.02,8.56,43.98,14.62,65.54c8.28,27.0399,24.22,50.71,37.79,75.25c1.73,2.99,2.49,6.3999,2.64,9.84
		c-3.69,0.14-7.15-1.23-10.01-3.48c-10.1-7.28-19.43-15.5601-28.66-23.89l-0.64-0.5l-0.52,0.66c0.18,0.3899,0.55,1.1799,0.73,1.5699
		c5.9,17.77,10.22,36.01,15.13,54.08c16.61,64.16,32.8,128.4301,48.6,192.8h-4.06c-1.71-5.53-2.37-11.29-3.58-16.92
		c-10.49-42.09-21.02-84.1699-31.7-126.2c-10.89-41.64-20.72-83.61-34.43-124.4401c-12.27-38.5199-26.43-76.46-36.47-115.6499
		c-8.56-32.5901-14.23-66.0801-14.91-99.8101c0.55-19.26,2-38.51,5.08-57.54c3.84-27.1499,9.73-54.0399,11.61-81.4299
		c1.78-19.8,0.34-39.8101-3.6-59.26c-3.96-19.5601-9.41-38.86-16.6-57.48c-14.62-33.23-26.5-67.65-42.92-100.0701
		c-5.6-10.9299-12.89-20.87-20.72-30.2899c-3.57-4.12-5.16-9.42-7.91-14.03c-7.79-13.05-13.99-26.96-19.73-41
		c-5.39,23.54-9.85,47.3-15.82,70.72c-4.36,18.6-9.44,37.02-14.7,55.39c-6.28,20.45-12.8,40.87-21.47,60.46
		c-22.78,50.7001-54.35,96.7101-85.47,142.53c-4.74,7.27-8.82,14.97-14.18,21.8301c-4.98,6.95-11.48,14.0099-11.46,23.1
		c-0.18,5.3099,4.74,8.45,8.47,11.27c25.11,17.23,53.32,30.2799,75.57,51.4299c6.06,6.12,11.98,13.49,12.67,22.42
		c0.27,7.59-5.11,13.86-10.77,18.26c-11.58,8.88-25.23,14.39-38.35,20.5399c-16.84,7.4801-33.85,14.8201-49.52,24.61
		c-9.89,6.4801-19.67,14.1101-25.25,24.8c-2.74,5.0701-3.76,10.96-3.03,16.67c2.13,18.13,8.58,35.35,14.49,52.5
		c14.25,38.35,30.97,75.73,48.15,112.84c30.62,65.67,63.28,130.36,96.47,194.75h-3.98c-27.88-53.3101-54.73-107.17-80.88-161.35
		c-20.07-42.49-39.86-85.17-57.16-128.88c-7.14-18.75-14.07-37.64-18.71-57.1901c-1.78-8.6799-3.92-18.0199-0.53-26.6
		c5.25-13.96,17.35-23.71,29.64-31.34c15.91-9.78,33.06-17.29,50.12-24.79c11.5-5.21,23.08-10.4199,33.59-17.49
		c3.88-2.71,7.57-5.89,10.05-9.97c2.83-4.6801,2.38-10.79-0.37-15.39c-4.25-7.17-10.09-13.3199-16.69-18.37
		c-20.84-17.25-45.34-29.15-67.56-44.38c-4.45-3.4301-9.94-7.28-10.31-13.4301c-0.28-8.6,4.65-16.1399,9.72-22.6499
		c5.23-6.61,9.53-13.8501,14.04-20.9501c20.37-31.0599,42.04-61.3099,60.42-93.62c9.44-15.3199,17.19-31.59,25.23-47.6699
		c6.95-15.3101,12.79-31.0901,17.94-47.0801c10.8-33.86,19.65-68.3099,27.13-103.0399c3.44-14.8201,6.75-29.6901,9.15-44.72
		c-7.41,3.69-14.16,8.52-21.28,12.7c-8.18,4.71-15.69,10.45-23.93,15.05c-12.09,7.54-24.11,15.21-36.13,22.8699
		c-8.6,5.2101-16.62,11.3101-24.51,17.53c-14.21,11.53-28.51,23.7-45.96,30c-20.78,8.67-43.81,4.79-65.38,9.6
		c-28.36,6.0601-55.91,15.2001-83.69,23.4c-21.46,6.54-42.72,13.6801-63.96,20.88c-16.17,5.22-32.38,10.41-48.98,14.1
		c-10.05,2.51-20.22,4.51-30.27,7.03v-3.86c11.71-2.55,23.38-5.28,35.02-8.15c18.78-4.3099,36.98-10.72,55.26-16.71
		c20.94-7.1,41.97-13.9601,63.18-20.23c26.5-7.99,52.96-16.4701,80.23-21.52c18.99-2.88,38.93-0.55,57.12-7.87
		c23.66-8.7001,40.75-28.0801,61.39-41.7001c30.16-19.88,61.1-38.54,91.61-57.8799c-2.99-7.63-5.54-15.43-7.74-23.33
		c-2.5-8.87-5.33-17.64-7.52-26.59c0.82-0.84,1.65-1.66,2.49-2.47c4.69,16.89,9.29,33.87,15.75,50.2
		c7.37,21,16.76,41.42,28.88,60.13c9.84,15.15,22.49,28.15,34.89,41.1799c41.74,41.8601,87.91,79.37,137.62,111.38
		c33.53,21.42,68.95,40.1901,106.55,53.39c19.6,6.5701,39.7,11.99,60.32,14.0601c26.85,3.15,54.36,0.38,80.05-8.03
		c33.94-10.63,65.09-28.65,93.86-49.3199c33.07-24.0901,63.31-51.92,91.1299-81.88c26.0601-27.9,50.2101-57.6101,72.2001-88.8101
		c9.2999-13.52,18.96-26.94,26.14-41.74C1179.79,992.48,1181.3101,990.56,1182.45,988.4 M1156.33,1036.33
		c-33.01,46.79-70.4299,90.5901-112.4099,129.5701c-29.6201,27.35-61.72,52.33-97.15,71.73c-34.8,18.8099-73.75,32.51-113.77,31.1
		c-11.74,0.22-23.38-1.54-34.9-3.5599c-29.46-5.3501-57.78-15.7201-84.84-28.3501c-35.51-16.6699-68.99-37.3999-100.83-60.2599
		c-34.57-24.9301-67.28-52.4401-97.73-82.25c-5.19-4.76-9.5-10.4301-14.98-14.8401c16.01,33.49,31.08,67.52,43.31,102.61
		c11.45,28.15,27.25,54.24,42.67,80.3501c3.91,6.0099,6.95,12.6399,11.71,18.0499c6.26,31.77,13.22,63.55,23.9,94.1801
		c4.49,13.1699,10.26,26.09,18.94,37.0699c12.75,17.38,30.99,29.3101,48.06,41.98c0.82,0.73,1.94,0.7201,3,0.8
		c2.47,0.04,4.62,1.42,6.86,2.35c20.43,9.12,41.16,17.75,62.64,24.1c20.2,5.74,40.52,11.2201,61.16,15.16
		c20.4301,3.61,41.3101,7.15,62.0601,4.3199c17.8199-2.0199,35.3199-6.3899,52.34-11.98c11.76-3.87,23.7-7.24,35.22-11.84
		c9.12-3.48,17.9-7.8099,27.2-10.8199c7.62-2.78,15.53-4.9301,22.9901-8.0701c22.26-20.88,39.9199-46.76,50.78-75.3199
		c9.47-23.61,15.83-48.29,22.99-72.66c6.3199-20.49,9.73-41.7,14.6899-62.52c5.89-22.89,13.78-45.2,21.45-67.54
		c1.88-5.83,4.8701-11.4399,5.1101-17.6699c3.0699-21.73,6.36-43.4401,9.5499-65.15c1.14-14.66,1.4601-29.73,6.8201-43.63
		c3.9199-10.1799,8.08-20.28,12.48-30.25C1162.24,1027.21,1159.5,1031.92,1156.33,1036.33 M1147.27,1121
		c-1.91,15.6801-5.0801,31.1899-6.53,46.9399c0.0601,2.9-2.48,4.77-3.2,7.4c-1.76,7.25-4.24,14.3201-7.4501,21.04
		c-1.71,6.5699-2.49,13.73-7.0699,19.12c0.0699,2.25,0.1,4.5601-0.74,6.71c-3.15,8.3-5.26,16.9301-7.51,25.5
		c-1.7001,8.37-4.3,16.55-5.28,25.0601c-2.14,10.01-4.67,19.95-6.9,29.95c-6.6699,18.37-10.45,37.64-16.9099,56.1
		c-1.8201,4.65-2.13,9.8201-4.6801,14.1901c-1.66,2.91-3.1801,5.9399-3.9399,9.24c-2.0801,8.4399-6.4801,16.02-9.8201,23.99
		c-1.17,2.9401-3.27,5.33-5.0599,7.89c-8.3101,12.79-16.1901,26.13-27.39,36.66c-5.42,5.25-9.8101,11.5299-15.71,16.2899
		c-7.12,5.8501-13.38,12.65-20.24,18.79c-5.38,5.0699-11.82,8.77-17.56,13.41c-6.7401,5.33-14.23,9.63-20.92,15.0499
		c-9.35,6.9501-19.02,13.53-27.68,21.37c-2.51,2.4701-4.9,5.0801-7.66,7.3101c-7,5.63-13.09,12.26-19.38,18.65
		c-5.91,6.75-12.83,12.51-18.77,19.23c-5.73,5.59-10.37,12.38-17.03,16.95c-3.38,2.37-6.7-1.5699-9.42-3.26
		c-16.77-10.38-32.9-21.7999-49.38-32.64c-5.36-3.1599-9.32-8.08-14.44-11.5599c-9.58-7.76-19.13-15.54-28.7-23.3
		c-3.59-3.08-6.7-6.6899-10.6-9.39c-8.48-6.09-15.65-13.75-23.98-20.0099c-6.81-6.2201-14.01-12-21.01-18
		c-5.05-4.9901-10.25-9.8501-15.97-14.0701c-2.36-1.71-5.6801-1.9299-7.42-4.49c-6.17-7.4399-14.87-11.97-22.68-17.39
		c-3.19-2.4399-5.71-5.63-8.77-8.21c-3.66-3.38-8.21-5.73-11.33-9.6801c-3.38-4.2899-7.76-7.74-10.57-12.47
		c-1.51-2.53-3.25-5.01-5.93-6.38c-1.39-7.55-6.66-13.42-8.97-20.61c-4.91-11.47-7.8-23.64-11.69-35.46
		c-2.06-5.0901-2.68-10.5801-4.09-15.8501c-2.01-7.21-3.65-14.5099-5.13-21.83c-0.82-4.53-3.1-8.67-3.55-13.26
		c-0.44-5.12-2.62-9.84-3.41-14.88c-0.61-4.03-2.99-7.4199-5.05-10.7999c-2.67-4.3101-5.45-8.54-8.4-12.65
		c-3.06-4.2101-4.48-9.3101-7.37-13.61c-4.64-7.38-7.98-15.75-14.03-22.12c-0.26,6.4299,3.04,12.26,3.41,18.64
		c0.42,6.5499,2.25,12.96,2.22,19.5499c0.38,11.96,0.91,23.98-0.39,35.9c-0.42,14.16-3.53,28.0699-4.88,42.14
		c0.16,4.77-2.08,9.12-2.57,13.7999c-0.97,5.75-1.85,11.5-2.57,17.29c-3.65,17.2-4.72,34.83-5.69,52.34
		c-0.77,6.4501-0.72,12.9601-0.48,19.4501c1.11,10.97,1.05,22.0599,2.92,32.97c2.6,11.71,3.19,23.83,6.74,35.35
		c1.05,3.1901,1.91,6.48,2.1,9.87c0.3,5.86,2.99,11.2001,4.14,16.9c1.09,5.1901,2.86,10.1901,4.5099,15.22
		c3.4301,14.0801,8.29,27.75,12.73,41.54c3.86,8.7,5.43,18.16,9.02,26.98c3.34,11.42,7.76,22.49,11.09,33.9301
		c1.1,3.23,1.79,7.0499,4.77,9.1699c10.42,7.53,19.24,17.2201,30.34,23.8201c-1.72-5.26-5.34-9.5601-7.61-14.5601
		c-5.1-8.86-10.89-17.36-15.18-26.6699c-3.73-8.26-8.04-16.26-11.4-24.67c-3.57-10.1901-6.5-20.59-8.84-31.12
		c-2.24-10.97-5.54-21.7-7.2-32.79c-1.22-10.87-4.31-21.38-5.69-32.22c-2.53-12.17-3.59-24.55-5.1-36.86
		c-0.84-8.99-2.38-18.17-0.53-27.13c3.27-11.1,9.36-21.3,17.09-29.86c4.21-4.85,10.95-7.89,17.38-6.22
		c7.6,1.8999,14.8,5.38,21.28,9.7799c5.49,4.25,11.6,7.64,17.08,11.91c8.56,7.64,18.8,13.05,27.54,20.46
		c6.65,5.8101,14.21,10.4301,21.25,15.74c38.56,29.4501,77.7,58.13,115.82,88.1801c3.82,3.25,8.24,5.6899,12.07,8.9301
		c8.4,7.25,17.34,13.9299,25,22c5.71,6.5199,10.23,13.9399,14.56,21.4099c3.26-5.12,4.9-11.46,9.95-15.26
		c6.71-5.6599,16.38-4.5,23.44-9.5c8.26-5.6699,16.59-11.2799,24.2-17.8199c8.03-6.76,17.07-12.1801,25.1-18.9301
		c6.21-4.4299,12.51-8.74,18.4-13.6c8.97-7.1,18.7-13.1899,27.5-20.5c7.15-5.98,15.33-10.54,22.59-16.38
		c8.96-6.37,17.53-13.2999,26.82-19.21c5.29-3.37,9.95-7.67,15.58-10.5c5.62-2.9401,10.52-7.4,16.75-9.09
		c4.02-0.15,7.78,2.1799,10.8201,4.6599c7.58,6.91,12.45,16.15,19.33,23.7001c4.4301,4.59,8.6901,9.35,12.55,14.45
		c3.25,3.9,5.0299,8.72,7.72,12.99c2.2-15.48,5.58-30.78,7.12-46.35c1.6899-10.33,2.03-20.83,3.83-31.15
		c1.39-12.33,2.4501-24.7,4.05-37c0.53-5.1899,0.55-10.4299,1.5-15.5599c1.4301-7.62,0.55-15.4301,1.88-23.05
		c1.47-8.28,0.66-16.73,1.87-25.03c0.76-5.8999,1.46-11.83,1.38-17.7799c-0.1801-7.13,1.99-14.0601,1.84-21.1901
		c0.03-10.3099,0.9-20.58,1.25-30.88c1.11-7.37,0.4-14.84,1.39-22.22c0.37-5.97,1.3201-11.92,1.3101-17.9
		c-0.8201-12.6799,1.5699-25.3,1.0599-37.99c-0.4-11.86,1.04-23.9-1.52-35.59c-0.6699-5.53,0.76-11.0801-0.1699-16.61
		c-0.0901-10.52-3.17-20.92-1.66-31.4601C1148.39,1122.01,1147.64,1121.34,1147.27,1121 M552.2,1211.26
		C550.66,1214.28,555.52,1211.41,552.2,1211.26 M696.74,1459.91c3.25,3.5699,7.46,6.0599,10.96,9.37
		c22.19,19.53,44.68,38.73,67.35,57.7c15.38,12.6901,30.66,25.5801,47.13,36.86c15.04,10.36,30.28,20.4501,45.93,29.86
		c5.07-4.46,9.3-9.75,14.02-14.5499c23.61-24.1,46.93-48.9401,74.9-68.1c16.15-11.3301,32.77-22.24,46.93-36.1101
		c3.19-3.2599,7.06-5.98,9.37-10.0199c-3.89,0.51-7.58,1.88-11.23,3.24c-16.45,5.5299-31.9,13.7-48.67,18.2999
		c-22.03,7.3401-44.34,14.4401-67.48,17.2101c-24.64,3.21-49.43-1.0901-73.51-6.0901c-18.3-3.72-36.25-8.88-54.23-13.84
		C737.17,1477.3,716.82,1468.84,696.74,1459.91 M1116.09,1572.1899c0.7101-2.45,1.36-4.9199,1.79-7.4099
		C1117,1567.14,1114.9399,1569.5601,1116.09,1572.1899 M637.23,1693.16c-0.53,1.6,0.02,2.1599,1.66,1.6699
		C639.4,1693.1801,638.85,1692.62,637.23,1693.16 M1050.15,1705.4c-0.47,1.38,0.01,1.86,1.4299,1.4399
		C1052.02,1705.42,1051.54,1704.9399,1050.15,1705.4z"/>
	<path fill="#171717" stroke="#171717" stroke-width="0.594" d="M1182.9,995.98c5.6899-11.8,11.38-23.6,17.0399-35.42
		c23.6801,14.72,47.02,30.02,70.5901,44.93c32.15,20.27,64.26,40.59,96.87,60.12c5.9299,3.41,11.7899,7.05,18.0599,9.83
		c11.8401,4.6001,24.3301-1.98,36.4,0.5701c10.12,1.96,19.8201,5.51,29.7001,8.38c28.83,8.41,57.3099,17.91,85.9299,26.98
		c18.09,5.86,36.37,11.1901,54.15,17.98c28.09,11.5,57.79,18.8201,87.79,23.24c10.1599,1.4401,20.38,4.02,30.7,2.61
		c5.37-0.58,11.7-1.6,15.87,2.75V1920h-338.27c32.29-71.6899,63.1901-144.01,91.98-217.1801
		c11.89-31.5499,24.0901-63.0299,33.6001-95.4099c2.1599-8.76,5.37-17.23,6.97-26.12c2.13-10.27,4.4299-21.0801,1.7899-31.4601
		c-3.0299-8.14-8.6799-15.0699-14.83-21.0699c-10.95-9.8201-23.39-17.9301-36.5599-24.4401
		c-19.1801-9.9199-39.62-16.99-59.42-25.5099c-8.41-3-15.24-8.91-23.1-12.9501c-6.86-3.7999-14.28-7.53-18.92-14.09
		c-2.22-2.9401-2.46-6.9401-0.72-10.15c4.6799-9.87,11.24-18.6899,17.4199-27.65c8.2001-12.1899,16.5-24.35,23.88-37.0699
		c8.6901-15.89,16.89-32.5801,19.3501-50.73c1.01-7,0.95-14.29-1.42-21.02c-4.3101-12.65-12-23.6801-18.97-34.9401
		c-2.9501-4.6799-5.9301-9.35-9.1901-13.8099c-11.5299-16.05-23.11-32.0801-35.5299-47.4501
		c-24.15-31.36-49.67-61.62-75.1101-91.9199c-11.4199-13.85-23.47-27.1801-35.21-40.75
		C1230.49,1049.1899,1206.65,1022.62,1182.9,995.98z"/>
	<path fill="#171717" stroke="#171717" stroke-width="0.594" d="M422.81,1003.79c7.12-4.18,13.87-9.0099,21.28-12.7
		c-2.4,15.03-5.71,29.9-9.15,44.72c-7.48,34.73-16.33,69.1799-27.13,103.0399c-5.15,15.99-10.99,31.77-17.94,47.0801
		c-8.04,16.08-15.79,32.35-25.23,47.6699c-18.38,32.3101-40.05,62.5601-60.42,93.62c-4.51,7.1-8.81,14.3401-14.04,20.9501
		c-5.07,6.51-10,14.0499-9.72,22.6499c0.37,6.15,5.86,10,10.31,13.4301c22.22,15.23,46.72,27.13,67.56,44.38
		c6.6,5.05,12.44,11.2,16.69,18.37c2.75,4.6,3.2,10.71,0.37,15.39c-2.48,4.08-6.17,7.26-10.05,9.97
		c-10.51,7.0701-22.09,12.28-33.59,17.49c-17.06,7.5-34.21,15.01-50.12,24.79c-12.29,7.63-24.39,17.38-29.64,31.34
		c-3.39,8.5801-1.25,17.92,0.53,26.6c4.64,19.55,11.57,38.4401,18.71,57.1901c17.3,43.71,37.09,86.39,57.16,128.88
		c26.15,54.1799,53,108.0399,80.88,161.35H0v-755.75c10.05-2.52,20.22-4.52,30.27-7.03c16.6-3.6899,32.81-8.88,48.98-14.1
		c21.24-7.2,42.5-14.34,63.96-20.88c27.78-8.2,55.33-17.34,83.69-23.4c21.57-4.8099,44.6-0.9299,65.38-9.6
		c17.45-6.3,31.75-18.47,45.96-30c7.89-6.22,15.91-12.3199,24.51-17.53c12.02-7.6599,24.04-15.33,36.13-22.8699
		C407.12,1014.24,414.63,1008.5,422.81,1003.79z"/>
	<path fill="#DCC2B8" stroke="#DCC2B8" stroke-width="0.594" d="M778.65,994.78c1.15-0.46,2.33-0.85,3.53-1.17
		c12.25-0.06,24.52,0.05,36.78-0.05c1.75,0.3,3.5,0.68,5.24,1.12c-7.06,0.73-14.15,0.25-21.22,0.27
		C794.87,994.89,786.74,995.5,778.65,994.78z"/>
	<path fill="#3A4C4C" stroke="#3A4C4C" stroke-width="0.594" d="M431.63,1066.6c5.97-23.4199,10.43-47.18,15.82-70.72
		c5.74,14.04,11.94,27.95,19.73,41c2.75,4.61,4.34,9.91,7.91,14.03c7.83,9.4199,15.12,19.36,20.72,30.2899
		c16.42,32.42,28.3,66.8401,42.92,100.0701c7.19,18.62,12.64,37.9199,16.6,57.48c3.94,19.45,5.38,39.46,3.6,59.26
		c-1.88,27.39-7.77,54.28-11.61,81.4299c-3.08,19.03-4.53,38.28-5.08,57.54c0.68,33.73,6.35,67.22,14.91,99.8101
		c10.04,39.1899,24.2,77.13,36.47,115.6499c13.71,40.8301,23.54,82.8,34.43,124.4401c10.68,42.03,21.21,84.11,31.7,126.2
		c1.21,5.63,1.87,11.39,3.58,16.92H413.25c-33.19-64.39-65.85-129.08-96.47-194.75c-17.18-37.11-33.9-74.49-48.15-112.84
		c-5.91-17.15-12.36-34.37-14.49-52.5c-0.73-5.7101,0.29-11.6,3.03-16.67c5.58-10.6899,15.36-18.3199,25.25-24.8
		c15.67-9.7899,32.68-17.1299,49.52-24.61c13.12-6.1499,26.77-11.6599,38.35-20.5399c5.66-4.4,11.04-10.67,10.77-18.26
		c-0.69-8.9301-6.61-16.3-12.67-22.42c-22.25-21.15-50.46-34.2-75.57-51.4299c-3.73-2.8201-8.65-5.9601-8.47-11.27
		c-0.02-9.0901,6.48-16.15,11.46-23.1c5.36-6.8601,9.44-14.5601,14.18-21.8301c31.12-45.8199,62.69-91.83,85.47-142.53
		c8.67-19.59,15.19-40.01,21.47-60.46C422.19,1103.62,427.27,1085.2,431.63,1066.6z"/>
	<path fill="#3A4C4C" stroke="#3A4C4C" stroke-width="0.594" d="M1180.33,999.09c1.42,1.43,2.8401,2.87,4.2301,4.36
		c49.6799,55.44,98.6799,111.53,145.83,169.15c21.03,25.76,41.64,51.89,61.12,78.86c10.39,14.8401,20.84,29.76,28.99,45.98
		c3.38,6.67,5.87,14.01,5.55,21.5801c-0.5601,16.53-7.0801,32.0599-14.4301,46.62c-10.35,19.98-23.42,38.35-36.05,56.92
		c-4.2699,6.5499-9.0699,12.97-11.58,20.46c-1.51,4.21,0.52,8.64,3.03,12.01c4.72,6.1699,11.74,9.85,18.4299,13.49
		c8.02,4.2,15.14,10,23.6001,13.39c18.5399,7.75,37.47,14.62,55.49,23.5599c14.89,7.37,29.64,15.6901,41.5699,27.4301
		c5.49,5.5,10.5601,11.88,12.72,19.49c1.62,7.08,0.3501,14.41-0.85,21.47c-3.35,18.5-9.36,36.35-14.99,54.24
		c-21.37,62.84-46.71,124.23-72.55,185.34c-13.47,31.15-26.7,62.42-40.95,93.2101c-1.15-0.4301-2.27-0.85-3.38-1.23
		c-1.86,4.74-3.34,9.63-4.5599,14.58H1178.95c-5.1899-3.3101-11.3999-2.4399-16.71,0H1051.2c-0.99-9.97-1.33-19.98-1.2899-29.99
		c0.0299-10.54,1.45-20.99,2.64-31.4401c4.62-37.87,10.48-75.6,18.11-112.98c4.97-21.33,11.2-42.34,17.61-63.27
		c1.23-3.88,3.54-7.3999,4.12-11.48c1.25-8.1599,4.62-15.77,6.65-23.74c8.95-29.78,17.46-59.7,24.0299-90.1
		c5.7301-25.02,9.6001-50.42,13.05-75.85c9.64-76.3301,14.95-153.16,19.11-229.9501c0.7001-9.1599,0.1-18.37,1.14-27.51
		c0.46-13.5299,0.34-27.1,0.0699-40.6399c-1.1499-10.65-0.4299-21.38-1.58-32.02c-0.4299-12.6901-1.71-25.3201-2.5699-37.98
		c-0.6901-11.3601-2.61-22.7301-1.24-34.1101c0.6899-12.0699,4.7-23.5699,9.23-34.6599
		C1166.63,1029.0699,1172.9301,1013.82,1180.33,999.09z"/>
	<path fill="#0B0B0B" stroke="#0B0B0B" stroke-width="0.594" d="M1147.27,1121c0.37,0.34,1.12,1.01,1.49,1.34
		c-1.51,10.54,1.5699,20.9401,1.66,31.4601c0.9299,5.5299-0.5,11.08,0.1699,16.61c2.5601,11.6899,1.12,23.73,1.52,35.59
		c0.51,12.6899-1.88,25.3101-1.0599,37.99c0.01,5.98-0.9401,11.9301-1.3101,17.9c-0.99,7.38-0.28,14.85-1.39,22.22
		c-0.35,10.3-1.22,20.5701-1.25,30.88c0.15,7.13-2.02,14.0601-1.84,21.1901c0.08,5.95-0.62,11.88-1.38,17.7799
		c-1.21,8.3-0.4,16.75-1.87,25.03c-1.33,7.62-0.45,15.4301-1.88,23.05c-0.95,5.13-0.97,10.37-1.5,15.5599
		c-1.6,12.3-2.66,24.67-4.05,37c-1.7999,10.3201-2.14,20.8201-3.83,31.15c-1.54,15.5699-4.92,30.87-7.12,46.35
		c-2.6901-4.27-4.47-9.09-7.72-12.99c-3.86-5.1-8.12-9.86-12.55-14.45c-6.88-7.55-11.75-16.79-19.33-23.7001
		c-3.04-2.48-6.8-4.8099-10.8201-4.6599c-6.23,1.6899-11.13,6.1499-16.75,9.09c-5.63,2.83-10.2899,7.13-15.58,10.5
		c-9.29,5.91-17.86,12.84-26.82,19.21c-7.26,5.84-15.44,10.4-22.59,16.38c-8.8,7.3101-18.53,13.4-27.5,20.5
		c-5.89,4.86-12.1899,9.17-18.4,13.6c-8.03,6.75-17.07,12.17-25.1,18.9301c-7.61,6.54-15.9399,12.15-24.2,17.8199
		c-7.06,5-16.73,3.8401-23.44,9.5c-5.05,3.8-6.69,10.14-9.95,15.26c-4.33-7.47-8.85-14.89-14.56-21.4099
		c-7.66-8.0701-16.6-14.75-25-22c-3.83-3.2401-8.25-5.6801-12.07-8.9301c-38.12-30.05-77.26-58.73-115.82-88.1801
		c-7.04-5.3099-14.6-9.9299-21.25-15.74c-8.74-7.4099-18.98-12.8199-27.54-20.46c-5.48-4.27-11.59-7.66-17.08-11.91
		c-6.48-4.3999-13.68-7.88-21.28-9.7799c-6.4301-1.67-13.17,1.37-17.38,6.22c-7.73,8.5599-13.82,18.76-17.09,29.86
		c-1.85,8.96-0.31,18.14,0.53,27.13c1.5099,12.3099,2.5699,24.6899,5.1,36.86c1.38,10.84,4.47,21.35,5.69,32.22
		c1.66,11.0901,4.96,21.8201,7.2,32.79c2.34,10.53,5.27,20.9299,8.84,31.12c3.36,8.41,7.67,16.41,11.4,24.67
		c4.29,9.3099,10.08,17.8099,15.18,26.6699c2.27,5,5.89,9.3,7.61,14.5601c-11.1-6.6-19.92-16.29-30.34-23.8201
		c-2.98-2.12-3.67-5.9399-4.77-9.1699c-3.33-11.4401-7.75-22.51-11.09-33.9301c-3.59-8.8199-5.16-18.28-9.02-26.98
		c-4.44-13.79-9.3-27.46-12.73-41.54c-1.65-5.0299-3.42-10.0299-4.5099-15.22c-1.15-5.7-3.84-11.04-4.14-16.9
		c-0.19-3.39-1.05-6.6799-2.1-9.87c-3.55-11.52-4.14-23.64-6.74-35.35c-1.87-10.91-1.81-22-2.92-32.97
		c-0.24-6.49-0.29-13,0.48-19.4501c0.97-17.51,2.04-35.14,5.69-52.34c0.72-5.79,1.6-11.54,2.57-17.29
		c0.49-4.6799,2.73-9.0299,2.57-13.7999c1.35-14.0701,4.46-27.98,4.88-42.14c1.3-11.92,0.77-23.9401,0.39-35.9
		c0.03-6.59-1.8-13-2.22-19.5499c-0.37-6.38-3.67-12.2101-3.41-18.64c6.05,6.37,9.39,14.74,14.03,22.12
		c2.89,4.2999,4.31,9.3999,7.37,13.61c2.95,4.11,5.73,8.34,8.4,12.65c2.06,3.38,4.44,6.7699,5.05,10.7999
		c0.79,5.04,2.97,9.76,3.41,14.88c0.45,4.59,2.73,8.73,3.55,13.26c1.48,7.3201,3.12,14.62,5.13,21.83
		c1.41,5.27,2.03,10.76,4.09,15.8501c3.89,11.8199,6.78,23.99,11.69,35.46c2.31,7.1899,7.58,13.0599,8.97,20.61
		c2.68,1.37,4.42,3.85,5.93,6.38c2.81,4.73,7.19,8.1801,10.57,12.47c3.12,3.9501,7.67,6.3,11.33,9.6801
		c3.0601,2.58,5.58,5.77,8.77,8.21c7.81,5.42,16.51,9.9501,22.68,17.39c1.74,2.5601,5.06,2.78,7.42,4.49
		c5.72,4.22,10.92,9.08,15.97,14.0701c7,6,14.2,11.7799,21.01,18c8.33,6.2599,15.5,13.9199,23.98,20.0099
		c3.9,2.7001,7.01,6.3101,10.6,9.39c9.5699,7.76,19.12,15.54,28.7,23.3c5.12,3.48,9.08,8.4,14.44,11.5599
		c16.48,10.8401,32.61,22.26,49.38,32.64c2.72,1.6901,6.04,5.63,9.42,3.26c6.66-4.5699,11.3-11.36,17.03-16.95
		c5.94-6.72,12.86-12.48,18.77-19.23c6.29-6.39,12.38-13.02,19.38-18.65c2.76-2.23,5.15-4.84,7.66-7.3101
		c8.66-7.84,18.33-14.4199,27.68-21.37c6.69-5.4199,14.18-9.72,20.92-15.0499c5.74-4.64,12.18-8.3401,17.56-13.41
		c6.86-6.14,13.12-12.9399,20.24-18.79c5.9-4.76,10.29-11.0399,15.71-16.2899c11.2-10.53,19.08-23.87,27.39-36.66
		c1.7899-2.5601,3.8899-4.95,5.0599-7.89c3.34-7.97,7.74-15.55,9.8201-23.99c0.7599-3.3,2.2799-6.33,3.9399-9.24
		c2.55-4.37,2.86-9.54,4.6801-14.1901c6.46-18.46,10.24-37.73,16.9099-56.1c2.23-10,4.76-19.9399,6.9-29.95
		c0.98-8.51,3.58-16.6901,5.28-25.0601c2.25-8.5699,4.36-17.2,7.51-25.5c0.84-2.1499,0.8099-4.46,0.74-6.71
		c4.58-5.39,5.36-12.55,7.0699-19.12c3.2101-6.72,5.6901-13.79,7.4501-21.04c0.72-2.63,3.26-4.5,3.2-7.4
		C1142.1899,1152.1899,1145.36,1136.6801,1147.27,1121z"/>
	<path fill="#ADADAD" stroke="#ADADAD" stroke-width="0.594" d="M552.2,1211.26C555.52,1211.41,550.66,1214.28,552.2,1211.26z"/>
	<path fill="#3B3B3B" stroke="#3B3B3B" stroke-width="0.594" d="M595.79,1436.76c3.31-3.33,8.3-4.6901,12.82-3.3
		c8.35,2.42,15.94,6.9601,22.98,11.9701c36.12,26.0699,71.58,53.0399,107.22,79.7599c31.91,24.39,64.32,48.14,95.41,73.5701
		c9.89,7.9399,18.44,17.88,23.4901,29.59c1.45,3.85,3.5,8.0701,2.0099,12.24c-5.59,17.55-10.33,35.41-13.5,53.5701
		c-2.23,12.5-2.66,25.21-3.42,37.86c-0.16,12-1.45,23.96-1.14,35.98c0.26,10.6801-1.33,21.29-1.27,31.98
		c-0.07,15.67,0.23,31.35-0.73,47.01c-0.62,24.33-0.11,48.67-0.41,73.01H667.39c-15.8-64.37-31.99-128.64-48.6-192.8
		c-4.91-18.0699-9.23-36.3099-15.13-54.08c0.11-0.4301,0.32-1.3,0.4301-1.73c9.23,8.33,18.56,16.61,28.66,23.89
		c2.86,2.25,6.32,3.62,10.01,3.48c-0.15-3.4401-0.91-6.85-2.64-9.84c-13.57-24.54-29.51-48.2101-37.79-75.25
		c-6.06-21.5601-10.58-43.52-14.62-65.54c-4.07-21.24-7.43-42.62-9.63-64.14c-0.62-7.14-1.17-14.58,1.31-21.4399
		C582.78,1452.87,588.34,1443.84,595.79,1436.76z"/>
	<path fill="#3B3B3B" stroke="#3B3B3B" stroke-width="0.594" d="M1060.33,1488.3c3.77-2.4,7.4801-5.12,11.8101-6.4301
		c4.09-1.24,8.03,1.4,10.78,4.21c5.64,5.8101,9.6,12.9801,14.87,19.11c7.51,8.92,16.72,17.05,20.63,28.38
		c2.33,5.9401,1.0399,12.41-0.5801,18.3501c-4.5499,16.01-10.74,31.5-16.88,46.95c-7.3999,18.6801-15.62,37.01-23.7899,55.36
		c-7.8501,16.76-18.89,31.71-28.36,47.54c-1.8201,2.77-2.26,6.08-1.78,9.33c6.37-0.75,10.85-5.6699,15.58-9.47
		c7.39-6.09,13.97-13.12,21.5601-18.96c-4.8201,19.36-11.63,38.2-15.78,57.75c-6.01,26.33-10.09,53.0399-14.2001,79.72
		c-2.86,19.2-5.3099,38.47-7.1,57.7999c-1.01,14-0.65,28.1001,0.79,42.0601H863.96c-0.08-39.34,0.24-78.67-0.32-118
		c0.24-12.6801-0.95-25.33-0.65-38c0.34-21.4,1.55-42.79,3.91-64.0601c2.59-22.1399,8.11-43.9099,16.43-64.58
		c2.74-8.78,7.84-16.73,9.4-25.86c10.89-5.5699,20.12-13.7,30.04-20.75c17.33-12.98,34.63-26.03,52-38.97
		C1002.99,1528.87,1031.04,1507.7,1060.33,1488.3z"/>
	<path fill="#7F5859" stroke="#7F5859" stroke-width="0.594" d="M696.74,1459.91c20.08,8.9299,40.43,17.39,61.47,23.83
		c17.98,4.96,35.93,10.12,54.23,13.84c24.08,5,48.87,9.3,73.51,6.0901c23.14-2.77,45.45-9.87,67.48-17.2101
		c16.77-4.6,32.22-12.77,48.67-18.2999c3.65-1.36,7.34-2.73,11.23-3.24c-2.31,4.0399-6.18,6.76-9.37,10.0199
		c-14.16,13.8701-30.78,24.78-46.93,36.1101c-27.97,19.1599-51.29,44-74.9,68.1c-4.72,4.7999-8.95,10.09-14.02,14.5499
		c-15.65-9.4099-30.89-19.5-45.93-29.86c-16.47-11.2799-31.75-24.1699-47.13-36.86c-22.67-18.97-45.16-38.1699-67.35-57.7
		C704.2,1465.97,699.99,1463.48,696.74,1459.91z"/>
	<path fill="#8E8F8F" stroke="#8E8F8F" stroke-width="0.594" d="M603.45,1670.89l0.64,0.5c-0.11,0.4299-0.32,1.2999-0.4301,1.73
		c-0.18-0.39-0.55-1.1801-0.73-1.5699L603.45,1670.89z"/>
	<path fill="#7E7E7E" stroke="#7E7E7E" stroke-width="0.594" d="M637.23,1693.16c1.62-0.54,2.17,0.02,1.66,1.6699
		C637.25,1695.3199,636.7,1694.76,637.23,1693.16z"/>
	<path fill="#515151" stroke="#515151" stroke-width="0.594" d="M1050.15,1705.4c1.39-0.4601,1.87,0.02,1.4299,1.4399
		C1050.16,1707.26,1049.6801,1706.78,1050.15,1705.4z"/>
	<path fill="#010405" stroke="#010405" stroke-width="0.594" d="M1162.24,1920c5.3101-2.4399,11.52-3.3101,16.71,0H1162.24z"/>
</g>
</svg>
