<?xml version="1.0" encoding="utf-8"?>
<!DOCTYPE svg PUBLIC "-//W3C//DTD SVG 1.1//EN" "http://www.w3.org/Graphics/SVG/1.1/DTD/svg11.dtd">
<svg version="1.1" id="Layer_1" xmlns="http://www.w3.org/2000/svg" xmlns:xlink="http://www.w3.org/1999/xlink" x="0px" y="0px"
	 viewBox="0 0 1280 1275" enable-background="new 0 0 1280 1275" xml:space="preserve">
<g id="_x23_ffffffff">
</g>
<g>
	<path fill="#040201" stroke="#040201" stroke-width="0.594" d="M606.4,61.44c1.92-0.34,4.3-1.44,5.87,0.3
		c1.08,2.32,0,4.92-0.26,7.32c17.99-0.85,35.98-1.79,53.95-3.06c6.23,0.17,12.43-1.39,18.65-0.61c2.94,1,2.06,4.5,1.58,6.79
		c16.53,4.49,33.6,6.63,50.22,10.81c-0.03,1.55-0.09,3.09-0.14,4.64c22.62,14.8,45.41,29.35,68.12,44.01
		c2.44,1.27,3.39,3.94,4.94,6.04c20.9,26.25,43.48,51.38,60.85,80.22c19.42,33.72,33.39,70.73,39.52,109.22
		c2.78,17.56,5.04,35.2,6.98,52.87c1.65,18.43,2.87,36.89,4.11,55.35c1.59-1.32,2.92-3.53,5.25-3.42c4.75-0.16,8.96,2.62,12.53,5.47
		c4.01,3.44,8.01,7.48,9.54,12.68c1.28,7.59-0.23,15.31-0.94,22.89c-2.15,15.12-4.93,30.15-8.28,45.04
		c-1.27,5.77-6,10.01-7.17,15.81c-2.36,9.71-3.61,19.64-5.3799,29.46c-2.6,17.13-5.02,34.36-4.85,51.73
		c-0.32,10.49,1.1,21.43-2.98,31.42c-1,2.17-1.62,5.76-4.52,5.96c-2.34-0.88-3.18-3.58-4.59-5.43c0.12,4.33,0.05,8.68-0.11,13.02
		c-0.6,11.32,0.06,22.6801-1.16,33.97c-0.7,21.85-5.55,43.56-14.79,63.41c-7.8701,17.25-19.33,32.47-30.01,48.03
		c-11.95,16.44-24.36,32.58-37.72,47.9c16.13,8.86,31.51,19.06,46.82,29.28c16.58,11.45,32.96,23.47,46.77,38.25
		c13.9,14.02,26.6,29.36,36.42,46.55c9.62,17.05,18.32,34.99,21.94,54.38c2.56,11.76,3.61,23.77,6.08,35.55
		c1.6,9.1799,4.27,18.11,7.01,27.01c13.55,46.76,27.0099,93.61,43.52,139.45c6.49,17.4301,13.0699,34.9399,22.1,51.25h-3.87
		c-10.79-20.1801-18.4301-41.8101-26.09-63.3c-13.54-39.0499-25.05-78.75-36.61-118.4199c-3.03-10.73-6.66-21.3201-8.78-32.28
		c-4.24-20.3101-5.29-41.42-13.06-60.87c-5.93-14.66-13.27-28.77-21.93-42c-10.26-15.41-22.96-29-36.09-41.98
		c-15.2-14.47-32.6201-26.34-50.04-37.95c-11.16-7.33-22.53-14.34-34.01-21.16c0.7401,22.35,2.46,44.75,6.77,66.72
		c2.04,9.65,4.92,19.24,9.9,27.81c8.55,15.54,22.56,27.03,32.2,41.8c4.17,6.07,7.34,12.73,10.54,19.35
		c5.66,12,11.08,24.13,15.41,36.6901c1.89,5.9299,4.48,12.11,3.14,18.46c-3.03,0.78-5.83-0.5599-7.87-2.74
		c-3.37-3.1-6.36-6.5699-9.41-9.97c0.77-0.8,1.5601-1.5701,2.3701-2.3401c3.86,4.05,7.19,8.8501,12.19,11.62
		c-1.32-9.6399-5.3101-18.6299-8.8101-27.62c-6.18-14.41-12.24-29.03-20.75-42.2499c-9.28-13.87-22.29-24.86-30.71-39.35
		c-10.07-16.12-12.65-35.37-15.14-53.84c-1.78-14.48-2.23-29.07-3.61-43.58c-4.74,5.4-10.93,10.1-13,17.28
		c-10.93,28.77-22.26,57.45-30.93,87c-1.94,6.11-2.73,12.52-2.54,18.92c-0.18,7.06,3.55,13.31,5.69,19.83
		c5.95,16.38,14.85,31.41,23.45,46.4999c22.97,41.16,45.18,82.74,67.82,124.0701c2.15,3.64,3.35,8.08,7,10.6
		c2.26,3.02,1.25,7.38,4.28,9.99c3.78,7.4401,8.0099,14.65,12.04,21.97c-1.67-3.62-3.48-7.1499-5.26-10.7
		c0.71-0.41,2.12-1.23,2.82-1.64c12.52,24.38,25.04,48.76,37.08,73.38h-4.93c-18.3701-33.08-36.5601-66.26-54.6-99.52
		c-0.92,0.4301-1.82,0.87-2.72,1.3201c-5.29-8.24-9.71-17.01-14.66-25.4601c0.56-0.7,1.68-2.12,2.24-2.8199
		c2.36,4.12,4.72,8.25,7.05,12.4c-7.77-14.3501-15.14-28.9601-23.73-42.8401c-3.2-8.11-8.11-15.37-12.08-23.1
		c-5.89-10.73-11.61-21.5499-17.61-32.21c-7.25-13.4401-15.26-26.46-22.19-40.07c-0.37-1.11-1.12-1.59-2.24-1.45
		c-12.33,0.62-24.69,0.34-37.04,0.35c-13.04-0.53-26.03-2.84-38.32-7.27c-33.99-11.78-66.91-26.39-99.57-41.41
		c-21.79-10.27-43.5-20.78-64.61-32.41c-51.67-28.25-100.79-60.81-150.24-92.71c-22.97-14.93-46.12-29.62-68.33-45.68
		c-1.67-1.32-3.46-2.63-4.55-4.49c-0.79-2.84,1.98-4.91,4-6.32c5.2-3.45,11.35-4.95,17.24-6.76c11.34-3.4,22.72-6.66,34.11-9.87
		c1.71-7.43,2.52-15.03,2.97-22.63c-17.28,4.12-34.31,9.22-51.28,14.44c0.45-1.32,0.91-2.62,1.37-3.91
		c16.52-5.27,33.22-10.03,50.09-14.03c1.16-7.78,1.13-15.65,1.78-23.47c0.03-11.13,1.14-22.23,0.85-33.37
		c-7.08,0.91-14.35,1.25-21.41,0c-4.84-0.82-9.5-3.51-11.82-7.96c-4.82-8.6-7.03-18.32-10.41-27.5c-2.99-9.1-7.15-17.76-12.11-25.93
		c-9.23-15.44-19.19-30.5-30.49-44.5c-6.5-8.26-17.06-12.3-22.86-21.2c-4.92-7.37-5.82-16.44-7.14-24.97
		c-1.63-10.82-2.09-21.75-2.59-32.66c-0.32-10.55,1.78-21.59,8.09-30.25c3.27-4.6,8.56-7.86,14.32-7.69
		c9.66,0.56,19.17,2.59,28.53,4.99c-1.42-5.85-2.39-11.81-3.17-17.78c-2.99-19.79-4.96-39.75-5.71-59.74
		c-0.93-11.2,0.54-22.39,0.36-33.59c1.16-17.59,2.02-35.22,4.23-52.72c3.16-24.24,6.13-49.29,17.62-71.27
		c8.96-17.62,21.07-33.34,33.08-48.95c8.57-10.45,13.47-23.2,20.15-34.81c0.89-1.75,2.55-3.63,4.69-2.47
		c1.04,1.54,1.51,3.38,2.23,5.08c2.09-4.06,3.82-8.42,6.96-11.81c1.65-1.86,4.72-2.21,6.73-0.74c4.74,3.52,6.18,9.93,11.09,13.27
		c3.28-5.41,3.42-12.01,6.58-17.47c4.8-0.08,3.77,6.25,7.72,7.77c2.38-3.86,4.41-7.93,6.98-11.68c3.86-5.72,9.48-9.85,14.39-14.61
		c12.43-10.94,24.75-22.09,38.16-31.84c3.57-2.87,8.35-1.84,12.38-0.72c4.81,1.49,9.66-0.43,14.29-1.69
		C545.08,79.54,575.56,69.88,606.4,61.44 M510.07,93c-3.19,0.95-6.62,1.47-9.88,0.56c-3.25-0.71-6.89-2.62-9.97-0.37
		c-6.61,4.25-12.47,9.54-18.53,14.51c-9.99,8.66-20.1,17.2-29.59,26.41c-5.01,4.66-7.72,11.04-11.13,16.83
		c-0.58,1.22-1.58,2.55-1,3.97c4.18,14.54,8.62,29.02,13.73,43.26c4.34,10.54,11.89,19.34,19.1,28c3.32-8.31,6.79-16.83,12.82-23.58
		c1.74-2.03,3.96-3.63,6.47-4.55c8.96-3.5,18.51-4.97,27.86-7.02c18.26-3.4,36.61-6.21,55-8.79c35.82-4.42,71.9-9.15,108.06-6.92
		c24.15,0.57,48.14,4.02,71.98,7.74c9.42,1.86,18.93,3.24,28.25,5.6c11.24,2.22,23.36,3.16,32.88,10.24
		c12.81,8.99,16.76,25.08,25.94,37.03c11.34,15.15,25.46,28.72,32.26,46.78c8.6,23.94,12.17,49.27,18.03,73.94
		c1.2,6.05,8,8.25,10.3,13.66c1.96,4.55,2.77,9.47,3.77,14.3c6.07,29.68,9.1,59.88,11,90.08c1.2,0.76,2.4,1.53,3.6,2.32
		c2.35-9.86,3.38-20,6.29-29.73c1.41-3.69,0.21-7.5-0.3-11.22c-0.79-5.63-0.14-11.33-0.71-16.97c-1.5-19.71-2.68-39.47-5.44-59.06
		c-2.12-16.72-4.25-33.47-7.95-49.93c-4.9-22.32-12.46-44.06-22.35-64.66c-5.83-12.98-12.64-25.53-20.64-37.31
		c-17.11-25.78-38.17-48.62-56.91-73.15c-22.62-15.13-45.9-29.32-68.49-44.52c-1.89-1.07-2.43-3.21-2.8-5.18
		c-13.85-2.82-27.73-5.44-41.53-8.46c-2.39-0.74-5.34-0.93-6.98-3.02c-0.32-1.64-0.3-3.32-0.36-4.99
		c-22.99,0.37-45.88,3.11-68.87,3.47c-1.73-0.17-3.88,0.19-4.97-1.49c-0.38-2.18-0.16-4.39-0.09-6.58
		C575.88,73.47,543.1,83.65,510.07,93 M421.41,146.93c-1.47,5.1-2.03,11.5-6.87,14.67c-4.91,0.44-7.19-5.19-9.6-8.54
		c-1.59-2-3.33-6.34-6.49-4.63c-4,4.1-4.91,10.2-8.71,14.42c-0.41,0.01-1.24,0.03-1.65,0.04c-2.65,0.14-1.15-5.05-3.81-4.52
		c-6.32,11.27-11.29,23.42-19.45,33.57c-17.45,22.57-35.64,46.04-42.59,74.27c-4.48,18.1-6.81,36.66-8.75,55.18
		c-2.36,26.48-4.13,53.07-3.24,79.66c1.2,23.81,4.13,47.5,8.08,70.99c2.1-0.59,4.14-2.03,6.37-1.78c3.71,1.79,5.96,5.47,9.14,7.97
		c1.69-3.25,2.93-7.2,6.42-8.98c4.64-2.43,9.53-4.87,14.85-5.2c-0.32,1.54-3.93,2.29-2.11,3.89c4.73,3.25,8.87,7.31,13.77,10.31
		c0.39-4.04,0.67-8.25,2.7-11.87c4.11-7.73,8.87-15.09,13.2-22.71c4.21-7.66,10.76-13.91,13.85-22.22
		c3.06-7.03,1.68-14.85,0.05-22.05c-2.98-11.89-5.63-24.06-5.24-36.4c0.16-9.1-0.3-18.22,0.3-27.31c0.73-6.41,0.16-12.88,0.86-19.29
		c1.22-15.6,1.62-31.52,6.42-46.54c4.51-11.15,12.39-20.63,21.07-28.81c6.59-5.41,13.22-11.75,21.97-13.17
		c5.74-1.27,11.57-0.07,17.35,0.16c-6.2-9.2-14.28-17.3-18.43-27.78c-5.43-14.43-9.56-29.31-14.15-43.99
		C423.76,153.9,422.61,150.38,421.41,146.93 M563.02,185.96c-22.65,3.16-45.29,6.58-67.62,11.61c-4.11,1-8.23,2.08-12.18,3.62
		c-3.4,1.33-5.85,4.21-7.91,7.11c-4.11,5.97-6.88,12.73-9.43,19.48c-0.68,1.36-0.25,2.87-0.16,4.31c-3.57,0.69-7.07-0.83-10.63-0.9
		c-7.22-0.7-15.17-0.88-21.34,3.55c-13.06,8.67-24.39,20.53-31.12,34.78c-4.66,12.59-4.92,26.19-6.36,39.4
		c-0.51,10.02-1.23,20.02-1.1,30.07c-0.54,11.34-0.68,22.71,0.01,34.04c0.26,14.25,7.25,27.61,6.41,41.92
		c-1.1,11.2-9.14,19.64-14.97,28.67c-4.27,7.38-8.71,14.65-12.96,22.04c-2.73,4.77-4.54,10.72-2.5,16.07
		c2.94,2.81,6.46,4.94,9.65,7.47c2.89,2.29,6.47,3.43,10.12,3.71c13.21,1.41,26.52,2.8,39.82,1.81c0.27-3.57-0.29-7.15,0.07-10.7
		c0.46-2.86,3.56-4.16,6.17-4.04c5.15-0.03,10.64,2.03,15.55-0.41c4.99-2.86,5.82-9.36,10.33-12.72c2.11-1.92,5.06-1.93,7.72-2.37
		c12.48-0.07,24.92-1.18,37.41-1.02c27.12-0.11,54.25-0.12,81.37,0.09c10.41,0.43,20.84,0.84,31.27,0.86
		c8.4,1.08,17.11,0.24,25.34,2.59c6.58,3.73,6.63,12.2,9.58,18.36c2.14,4.87,7.97,5.65,12.63,6.27c8.25,0.49,16.55,0.25,24.77-0.61
		c8.66-0.66,18.06,1.4,26.02-3.01c0.02-6.35,0.06-12.7-0.05-19.05c-0.29-2.18,1.56-3.69,3.09-4.89c5.5-3.94,12.62-4.03,19.11-4.56
		c-3.07-1.58-6.44-3.38-7.91-6.67c-0.3-4.73,0.88-9.53,2.82-13.81c1.61-3.53,5.55-4.79,8.96-5.89c11.42-3.59,23.35-5.3,35.23-6.57
		c21.04-1.17,41.9,2.47,62.76,4.65c6.98,0.91,14.04,1.32,20.92,2.91c6.78,1.6,12.69,5.62,18.01,9.98c2,1.85,4.28,3.92,4.82,6.7
		c-0.16,2.47-3.07,2.29-4.84,2.67c2.72,0.23,5.52,1.11,7.34,3.29c4.7,5.2,5.73,12.43,8.73,18.57c1.9901-0.15,3.98-0.41,5.98-0.68
		c-1.91-32.65-5.42-65.3-12.53-97.26c-0.78-3.62-2.06-7.37-5.01-9.8c-3.1299-2.68-6.4-5.65-7.22-9.89
		c-3.13-12.48-5.29-25.18-8.2-37.7c-4.1-17.1-7.21-35.03-16.95-50.04c-9.12-14.89-22.68-26.56-31.06-41.96
		c-3.67-6.32-6.69-13.05-11.12-18.89c-4.54-6.09-11.15-10.52-18.38-12.76c-5.6-1.89-11.49-2.59-17.26-3.67
		C726.34,181.65,675.03,175.76,623.94,179.27C603.58,180.92,583.26,183.15,563.02,185.96 M753.23,434.3
		c-4.25,1.19-8.68,2.14-12.56,4.29c-2.9,2.59-3.46,6.79-3.95,10.44c-1.21,5.28,5.83,8.33,10.0601,6.88
		c7.86-3.2,16.3-4.45,24.48-6.57c9.15-1.72,18.37-3.67,27.74-3.39c16.69-0.17,33.31,1.59,49.96,2.46
		c11.12,0.62,22.24,2.06,33.4,1.52c-4.44-5.86-11.1-9.85-17.97-12.22c-10.74-2.48-21.82-2.89-32.71-4.34
		c-13.18-1.77-26.41-3.08-39.69-3.7C778.92,429.32,765.96,431.59,753.23,434.3 M924.17,437.21c-4.89,11.41-6.47,23.9-8.88,36
		c-0.35,3.13-2.04,6.6,0.02,9.49c3.24,5.5,0,11.66-0.76,17.35c-0.67,37.01-2.93,73.94-4.35,110.92
		c-1.09,12.41-1.08,25.38,3.78,37.0601c4.48-7.59,3.65-16.61,4.19-25.04c0.02-12.35-0.08-24.75,1.65-37.01
		c2.1-17.59,4.83-35.11,8.46-52.44c0.71-4.12,3.04-7.64,5.15-11.15c2.44-3.97,2.81-8.72,3.87-13.15c2.04-8.89,3.44-17.91,5.04-26.88
		c1.3799-10.35,3.52-20.79,2.58-31.26c-2.39-6.32-7.72-11.29-13.59-14.45C929.04,435.56,925.34,433.76,924.17,437.21 M767.61,453.64
		c-5.86,1.76-12.14,2.24-17.7,4.89c30.95-3.08,62.05-3.9,93.11-5.26c7.62-0.46,15.38,0.88,22.9-0.8
		c-22.02-0.12-43.9-3.26-65.92-3.25C789.04,448.88,778.28,451.46,767.61,453.64 M732.95,463.72c-2.48,0.54-5.82,0.41-7.19,2.98
		c-1.47,3.24-0.69,6.9-0.59,10.33c0.34,4.63,0.12,10.16-3.94,13.22c-6.84,5.55-16.21,3.29-24.29,3.91
		c-9.3,0.97-18.65,1.06-27.98,0.84c-4.96-0.38-10.42-1.25-14.14-4.83c-4.95-5.08-4.05-13.1-8.43-18.49
		c-1.73-2.26-4.82-2.22-7.38-2.57c-21.62-1.91-43.34-1.6-65-2.3c-23-0.21-46.01-0.27-69.01,0.12c-12.57,0.58-25.19,0.08-37.72,1.4
		c-6.31,2.18-6.58,10.62-12.28,13.73c-6.1,4.04-13.55,0.41-20.14,1.8c2.11,2.74,5.65,5.21,5.2,9.11c-0.49,4.38-0.88,8.78-0.48,13.19
		c-0.14,6.94,1.25,14.44-2.38,20.77c7.28,0.46,14.57,0.25,21.85,0.16c2.18,0.08,4.17-0.8701,6-1.95c0.39,0.9,0.69,1.84,0.88,2.82
		c0.99,11.83,2.21,23.98,7.14,34.93c1.68,3.74,4.4,7.83,8.84,8.34c13.23,2.41,26.73,1.59,40.1,1.59c33.18-1.14,66.34-3.11,99.4-6.28
		c6.7401-0.5099,13.46-1.5,20.04-3.04c3.54-0.82,7.26-3.08,8.09-6.87c1.46-7.44,1.72-15.03,2.33-22.57
		c0.52-7.21-0.16-14.48,0.68-21.66c1.33-4.54,3.94-9.18,8.11-11.63c7.57-2.06,15.54-1.69,23.33-2.15c10.33-0.85,20.7-0.33,31.05-0.6
		c4.84-0.21,10.54,2.09,11.72,7.27c3.59,12.11,1.44,25.41,6.84,37.09c2.04,5.45,5.46,12.77,12.31,12.5
		c31.7,0.67,63.34-1.86,94.9301-4.28c12.83-1.5099,25.78-2.49,38.43-5.28c3.58-0.93,7.94-1.56,9.92-5.14
		c5.14-8.54,5.53-18.85,6.46-28.51c0.43-2.67,0.49-5.64,2.08-7.91c3.1-2.64,7.35-0.56,10.96-1c2.05-2.33,2.86-5.45,3.7-8.36
		c1.05-4.09,1.62-8.97-1.39-12.4c-1.74-1.98-3.97-4.74-6.94-3.95c-2.94,0.22-6.86,1.88-8.88-1.2c-3.66-5.69-3.91-13.21-8.86-18.16
		c-1.52-1.94-4.17-1.64-6.33-1.88c-18.02-0.55-36.03,0.08-54.04,0.38C794.94,459.02,763.8,459.7,732.95,463.72 M720.85,474.47
		c0.64,3.35-0.21,6.74-0.47,10.1c0.28,0.04,0.86,0.12,1.14,0.16c0.33-6-0.35-11.99,0.16-17.99
		C719.68,468.87,720.6,471.89,720.85,474.47 M343.59,469.52c-1.49,1.04-4.97,1.76-4.22,4.1c4.62,5.04,9.45,9.89,14.24,14.78
		c7.87,7.8,15.36,16.18,24.8,22.15c2.89,1.78,6.13,3.11,9.54,3.39c15.03,1.57,30.19-1.23,45.2,0.97c1.04-4.23,0.92-8.61,1.14-12.92
		c-10.07,1.09-20.19,0-30.28,0.1c-6-0.23-12.07,0.28-17.99-0.86c-5.03-0.87-9.24-4.01-13.06-7.19
		c-8.13-7.19-16.03-14.64-23.86-22.15C347.56,470.55,345.87,467.77,343.59,469.52 M350.94,470.75c2.51,3.57,6.21,6,9.26,9.06
		c5.5,4.83,10.59,10.12,16.36,14.64c3.61,2.7,7.72,5.3,12.4,5.24c10.99,0.94,22.03,0.56,33.04,0.71c4.28-0.08,8.62,0.34,12.84-0.59
		c-0.19-1.28-0.38-2.54-0.61-3.8c-3.14,2.65-7.38,2.39-11.23,2.47c-7.32-0.19-14.64-0.33-21.91-1.16c-7.26-0.8-15.31-0.34-21.5-4.86
		c-8.45-6.19-16.87-12.44-24.87-19.21C353.56,472.27,352.28,471.44,350.94,470.75 M277.97,475.99c-5.44,5-7.75,12.44-9.33,19.44
		c-1.07,17.91,0.3,35.94,3.55,53.58c1,5.51,2.66,11.14,6.28,15.54c5.76,7.01,14.32,10.92,20.22,17.8
		c6.64,7.79,12.52,16.21,18.29,24.65c9.96,15.22,20.34,30.55,26,48c2.72,7.64,4.89,15.48,8.07,22.96c1.75,3.87,3.98,8.2,8.37,9.52
		c7.47,2.38,15.48,1.9,23.15,0.89c1.22-0.34,2.35-0.96,3.53-1.43c-11.96-34.33-21.33-69.53-28.6-105.13
		c-0.77-2.89,0.38-5.91-0.61-8.74c-1.69-5.48-3.11-11.09-3.22-16.86c-1.13,0.62-2.08,2.03-3.5,1.78c-1.51-1.07-1.88-3.02-2.47-4.65
		c-3.05-10.42-5.75-20.9301-8.46-31.44c-1.64-7.55-4.13-14.94-4.83-22.68c-0.74-4.91-0.43-9.89-1.09-14.8
		c-0.06-1.27-0.8-2.34-1.67-3.19c-15.18-2.57-30.01-8.7-45.66-8.52C282.95,472.55,280.16,474,277.97,475.99 M321.25,475.6
		c2.02,0.53,4.06,1.04,6.12,1.44c-0.98-1.39-2.22-2.54-3.46-3.67C322.92,473.98,321.21,474.09,321.25,475.6 M336.96,486.95
		c-0.05,11.11,2.32,22.05,5.25,32.71c2.44,10.56,5.64,20.9301,8.12,31.48c1.41-0.95,2.54-2.65,4.31-2.83
		c1.88,1.63,1.7,4.41,2.15,6.66c0.68,7.82,2.35,15.5601,5.31,22.83c0.71-1.84,0.9-3.82,0.93-5.77c0.39-12.6801,1.74-25.3101,1.7-38
		c0.79-9.59,0.39-19.21,1.23-28.8c-9.97-9.34-19.32-19.33-29.03-28.93C334.45,479.58,337.21,483.34,336.96,486.95 M434.06,485.94
		c-0.05,3.84,0.14,7.8,2.38,11.08c0.09,9.38-2,18.68-0.94,28.05c1.95-1.78,2-4.6,2.16-7.04c0.01-8.37-0.08-16.75,0.64-25.08
		C438.45,489.94,435.89,487.93,434.06,485.94 M664.13,503.41c-1.89,0.06-3.34,1.25-4.38,2.72c12.52-2.9,25.48-2.32,38.25-2.54
		c7.11,0.22,14.4-0.7,21.36,1.14c2.98,0.99,3.07,4.59,3.52,7.19c0.55,12.26,0.67,24.98,6.06,36.31c2.38,4.95,4.53,12.26,11.03,12.73
		c12.3101,0,24.67,0.3,36.96-0.66c21.4-0.62,42.79-1.71,64.09-3.89c15.07-1.4,30.24-2.39,45.09-5.41c3.27-0.6,4.2-4.26,5.04-6.97
		c-4.7,3.68-10.65,4.68-16.36,5.74c-19.77,3.36-39.82,4.84-59.8,6.33c-21.33,1.17-42.67,2.59-64.05,2.51
		c-4.31-0.35-9.24,0.22-12.78-2.76c-3.77-2.85-5.78-7.28-7.47-11.55c-5.16-10.9-4.38-23.24-6.36-34.87
		c-0.52-2.58-1.19-5.64-3.77-6.92c-3.93-1.8-8.36-0.97-12.51-0.81C693.4,501.88,678.68,501.49,664.13,503.41 M663.21,507.4
		c-0.21,18.54,0.03,37.08-0.73,55.61c-0.2,3.66,2.58,8.66-1.44,11.12c-0.98-22.06,0.72-44.14,0.35-66.22c-0.8,0.13-2.4,0.4-3.2,0.53
		c-0.87,1.45-2.08,2.85-2.19,4.61c-0.71,12.31-0.57,24.68-1.97,36.95c-0.67,4.36,0.4,8.86-0.84,13.15c-0.76,2.8-1.96,6.25-5.15,6.99
		c-9.6,2.47-19.49,3.58-29.33,4.62c-13.54,1.61-27.12,2.79-40.73,3.59c-16.5,0.7-32.93,2.09-49.43,2.75l-0.57,0.45
		c-12.31-0.03-24.63,0.16-36.94,0.01l-0.58-0.43c-7.48-0.81-16.47-1.66-20.95-8.6c-6.4-10.1201-6.81-22.52-9.15-33.95
		c-0.4-1.65-0.92-3.61-2.67-4.29c-3.6-0.55-7.12,0.57-10.68,0.85c-4.9,0.6-8.83-2.96-12.35-5.82c-3.24-2.39-2.33-6.79-2.91-10.26
		c-0.43-0.29-1.3-0.88-1.74-1.17c-13.89-0.66-27.81,0.21-41.7-0.27c-7.29-0.97-13.54-5.04-19.1-9.61
		c-1.24,25.76-1.4,51.62-4.15,77.29c-1.22,0.03-2.43,0.03-3.63,0.01c2.97,11.9,5.38,23.94,8.47,35.81
		c10.49,40.48,23.09,80.7,41.89,118.17c8.89,17.58,19.61,34.35,33.09,48.79c11.38,12.65,24.11,24.01,37.33,34.7
		c23.29,18.68,48.4,35.0099,74.41,49.65c19.21,10.65,38.79,20.81,59.37,28.55c15.96,5.84,33.05,8.35,50.01,8.05
		c7.64-0.1201,15.32,0.1899,22.93-0.6801c6.02-0.5099,12.09-0.12,18.11-0.9c10.76-0.42,21.6,0.45,32.32-0.65
		c15.31-0.24,30.72-5.24,43-14.46c10.81-8.4,20.27-18.3701,29.52-28.4301c15.26-16.9,29.54-34.66,43.15-52.9
		c9.52-13.24,19.14-26.44,27.52-40.44c12.31-20.82,20.09-44.46,21.62-68.64c2.44-23.57,1.01-47.31,2.19-70.94
		c0.18-8.03-0.14-16.08,0.58-24.08c1.64-33.7599,3.09-67.52,4.26-101.29c-3.68,1.09-7.46,0.25-11.2,0.29
		c-1.68,9.73-1.5,19.82-4.76,29.25c-1.89,4.78-1.73,10.23-4.34,14.7401c-1.4901,2.66-4.81,2.93-7.45,3.61
		c-10.89,2.17-22.02,2.75-33.02,4.06c-26.41,2.6-52.91,4.15-79.42,5.09c-10.96-0.11-21.93,1-32.87,0c-4-0.68-6.38-4.33-8.14-7.64
		c-3.11-6.05-5.6-12.45-7.09-19.1c-2.0099-9.04-1.02-18.41-2.52-27.51c-0.92-2.47-4.02-2.46-6.21-2.48
		c0.08,2.87,0.11,5.75,0.42,8.62c1.83,23.01,2.33,46.33,7.95,68.86c2.2,8.53,6.79,16.15,11.65,23.41c0.75,1.01,1.17,2.17,1.27,3.46
		c-0.45-0.25-1.36-0.76-1.81-1.01c-3.47-4.67-6.37-9.76-9.04-14.92c-3.24-6.29-4.64-13.27-6.03-20.15
		c-4.15-22.59-4.69-45.6-6.45-68.43c-12.38-0.83-24.78,0.34-37.16,0.22C670.99,505.84,667.12,506.83,663.21,507.4 M438.97,530.34
		c2.83,2.25,6.4,3.8199,10.06,2.72c4.02-0.63,10.45-2.47,12.35,2.56c3.31,11.96,2.92,25.29,9.86,36.04
		c2.89,4.63,8.46,6.1,13.53,6.78c19.97,2.9,40.17,0.74,60.19-0.18c33.46-1.8,67.07-3.33,100.12-9.23
		c3.94-0.1801,6.11-3.65,6.31-7.29c-6.83,6.46-16.71,6.4-25.43,7.88c-39.23,3.54-78.55,6.55-117.96,6.59
		c-9.39-0.08-18.89,0.17-28.11-1.94c-5.24-1.15-8.26-6.2-10.34-10.72c-4.25-10.58-5.96-22.04-6.73-33.35
		C454.87,530.48,446.91,530.88,438.97,530.34 M386.9,690.5c-0.39,25.19-1.21,50.43-4.27,75.47c-1.11,6.7-1.92,13.88-6.12,19.5
		c-7.77,11.04-19.2,18.64-30.08,26.3c28.73,19.34,57.97,37.9,87.02,56.75c42.46,27.46,85.32,54.46,130.17,77.89
		c39.89,20.48,80.73,39.11,122.4,55.66c19.52,7.32,39.36,15.99,60.61,15.72c9.92,0.97,19.94,0.29,29.91,0.39
		c-0.07-0.77-0.21-2.3-0.28-3.07c-1.42-6.29-2.46-12.66-3.18-19.05c-1.13-10.93-1.98-22.17,1.17-32.87
		c8.44-29.62,19.93-58.25,30.72-87.07c-6.05,6.23-12.23,12.36-19.0699,17.72c-9.69,7.98-21.7,12.72-33.9301,15.12
		c-14.83,2.78-30,1.14-44.98,2.14c-9.38-0.19-18.68,1.03-28.05,1.02c-15.47,1.02-31.1,0.2-46.31-2.86
		c-23.04-5.11-44.09-16.28-64.94-26.96c-27.51-14.66-54.06-31.21-78.89-50.09c-26.75-20.64-52.32-43.97-69.89-73.16
		c-12.46-20.65-22.07-42.88-30.35-65.49C388.15,692.45,387.6,691.43,386.9,690.5 M777.08,1000.8c0.63,5.73,2.02,11.35,3.12,17.02
		c1.46-0.13,2.93-0.27,4.4-0.49C781.55,1012.06,780.39,1005.87,777.08,1000.8z"/>
	<path fill="#60412F" stroke="#60412F" stroke-width="0.594" d="M510.07,93c33.03-9.35,65.81-19.53,98.85-28.8
		c-0.07,2.19-0.29,4.4,0.09,6.58c1.09,1.68,3.24,1.32,4.97,1.49c22.99-0.36,45.88-3.1,68.87-3.47c0.06,1.67,0.04,3.35,0.36,4.99
		c1.64,2.09,4.59,2.28,6.98,3.02c13.8,3.02,27.68,5.64,41.53,8.46c0.3701,1.97,0.91,4.11,2.8,5.18
		c22.59,15.2,45.87,29.39,68.49,44.52c18.74,24.53,39.8,47.37,56.91,73.15c8,11.78,14.81,24.33,20.64,37.31
		c9.89,20.6,17.45,42.34,22.35,64.66c3.7,16.46,5.83,33.21,7.95,49.93c2.76,19.59,3.94,39.35,5.44,59.06
		c0.57,5.64-0.08,11.34,0.71,16.97c0.51,3.72,1.71,7.53,0.3,11.22c-2.91,9.73-3.94,19.87-6.29,29.73c-1.2-0.79-2.4-1.56-3.6-2.32
		c-1.9-30.2-4.93-60.4-11-90.08c-1-4.83-1.81-9.75-3.77-14.3c-2.3-5.41-9.1-7.61-10.3-13.66c-5.86-24.67-9.43-50-18.03-73.94
		c-6.8-18.06-20.92-31.63-32.26-46.78c-9.18-11.95-13.13-28.04-25.94-37.03c-9.52-7.08-21.64-8.02-32.88-10.24
		c-9.32-2.36-18.83-3.74-28.25-5.6c-23.84-3.72-47.83-7.17-71.98-7.74c-36.16-2.23-72.24,2.5-108.06,6.92
		c-18.39,2.58-36.74,5.39-55,8.79c-9.35,2.05-18.9,3.52-27.86,7.02c-2.51,0.92-4.73,2.52-6.47,4.55
		c-6.03,6.75-9.5,15.27-12.82,23.58c-7.21-8.66-14.76-17.46-19.1-28c-5.11-14.24-9.55-28.72-13.73-43.26
		c-0.58-1.42,0.42-2.75,1-3.97c3.41-5.79,6.12-12.17,11.13-16.83c9.49-9.21,19.6-17.75,29.59-26.41
		c6.06-4.97,11.92-10.26,18.53-14.51c3.08-2.25,6.72-0.34,9.97,0.37C503.45,94.47,506.88,93.95,510.07,93z"/>
	<path fill="#60412F" stroke="#60412F" stroke-width="0.594" d="M421.41,146.93c1.2,3.45,2.35,6.97,5.31,9.34
		c4.59,14.68,8.72,29.56,14.15,43.99c4.15,10.48,12.23,18.58,18.43,27.78c-5.78-0.23-11.61-1.43-17.35-0.16
		c-8.75,1.42-15.38,7.76-21.97,13.17c-8.68,8.18-16.56,17.66-21.07,28.81c-4.8,15.02-5.2,30.94-6.42,46.54
		c-0.7,6.41-0.13,12.88-0.86,19.29c-0.6,9.09-0.14,18.21-0.3,27.31c-0.39,12.34,2.26,24.51,5.24,36.4
		c1.63,7.2,3.01,15.02-0.05,22.05c-3.09,8.31-9.64,14.56-13.85,22.22c-4.33,7.62-9.09,14.98-13.2,22.71
		c-2.03,3.62-2.31,7.83-2.7,11.87c-4.9-3-9.04-7.06-13.77-10.31c-1.82-1.6,1.79-2.35,2.11-3.89c-5.32,0.33-10.21,2.77-14.85,5.2
		c-3.49,1.78-4.73,5.73-6.42,8.98c-3.18-2.5-5.43-6.18-9.14-7.97c-2.23-0.25-4.27,1.19-6.37,1.78c-3.95-23.49-6.88-47.18-8.08-70.99
		c-0.89-26.59,0.88-53.18,3.24-79.66c1.94-18.52,4.27-37.08,8.75-55.18c6.95-28.23,25.14-51.7,42.59-74.27
		c8.16-10.15,13.13-22.3,19.45-33.57c2.66-0.53,1.16,4.66,3.81,4.52c0.41-0.01,1.24-0.03,1.65-0.04c3.8-4.22,4.71-10.32,8.71-14.42
		c3.16-1.71,4.9,2.63,6.49,4.63c2.41,3.35,4.69,8.98,9.6,8.54C419.38,158.43,419.94,152.03,421.41,146.93z"/>
	<path fill="#60412F" stroke="#60412F" stroke-width="0.594" d="M495.72,445.76c12.73-6.2,27.34-7.67,41.29-6.15
		c5.02,0.21,10.05,0.4,15.05,0.93c15.65,0.49,31.34-0.46,46.98,0.7c4.91,0.4,10.15-0.23,14.7401,1.9c3.85,2.37,7.22,5.6,9.95,9.2
		c1.94,2.43,0.46,6.18-1.87,7.72c-4.74,0.79-9.54-0.13-14.26-0.53c-13.19-1.16-26.38-2.5-39.63-2.53
		c-9.6299-1.03-19.31-0.57-28.97-0.68c-23.08-0.48-46.04,2.42-68.98,4.52C478.1,455.05,486.75,450.03,495.72,445.76z"/>
	<path fill="#FFE1D9" stroke="#FFE1D9" stroke-width="0.594" d="M563.02,185.96c20.24-2.81,40.56-5.04,60.92-6.69
		c51.09-3.51,102.4,2.38,152.28,13.42c5.77,1.08,11.66,1.78,17.26,3.67c7.23,2.24,13.84,6.67,18.38,12.76
		c4.43,5.84,7.45,12.57,11.12,18.89c8.38,15.4,21.94,27.07,31.06,41.96c9.7401,15.01,12.85,32.94,16.95,50.04
		c2.91,12.52,5.07,25.22,8.2,37.7c0.82,4.24,4.09,7.21,7.22,9.89c2.95,2.43,4.23,6.18,5.01,9.8c7.11,31.96,10.62,64.61,12.53,97.26
		c-2,0.27-3.99,0.53-5.98,0.68c-3-6.14-4.03-13.37-8.73-18.57c-1.82-2.18-4.62-3.06-7.34-3.29c1.77-0.38,4.68-0.2,4.84-2.67
		c-0.54-2.78-2.82-4.85-4.82-6.7c-5.32-4.36-11.23-8.38-18.01-9.98c-6.8799-1.59-13.94-2-20.92-2.91
		c-20.86-2.18-41.72-5.82-62.76-4.65c-11.88,1.27-23.81,2.98-35.23,6.57c-3.41,1.1-7.35,2.36-8.96,5.89
		c-1.94,4.28-3.12,9.08-2.82,13.81c1.47,3.29,4.84,5.09,7.91,6.67c-6.49,0.53-13.61,0.62-19.11,4.56c-1.53,1.2-3.38,2.71-3.09,4.89
		c0.11,6.35,0.07,12.7,0.05,19.05c-7.96,4.41-17.36,2.35-26.02,3.01c-8.22,0.86-16.52,1.1-24.77,0.61
		c-4.66-0.62-10.49-1.4-12.63-6.27c-2.95-6.16-3-14.63-9.58-18.36c-8.23-2.35-16.94-1.51-25.34-2.59c0.42-0.2,1.28-0.59,1.71-0.78
		c3.38-1.45,5.4-5.06,5.82-8.58c-0.45-2.58-1.18-5.09-1.48-7.68c-3.76-0.12-5.91-3.43-8.69-5.44c-2.16-1.78-4.8-2.95-7.58-3.31
		c-18.74-2.13-37.63-0.64-56.42-1.68c-16.18-0.22-32.73-3.05-48.58,1.54c-13.75,4.27-26.19,11.89-37.97,20.02
		c-2.34,1.13-0.88,3.77-0.69,5.67c1.51,0.06,3.04,0.11,4.56,0.18l-0.73,0.13c-2.66,0.44-5.61,0.45-7.72,2.37
		c-4.51,3.36-5.34,9.86-10.33,12.72c-4.91,2.44-10.4,0.38-15.55,0.41c-2.61-0.12-5.71,1.18-6.17,4.04c-0.36,3.55,0.2,7.13-0.07,10.7
		c-13.3,0.99-26.61-0.4-39.82-1.81c-3.65-0.28-7.23-1.42-10.12-3.71c-3.19-2.53-6.71-4.66-9.65-7.47c-2.04-5.35-0.23-11.3,2.5-16.07
		c4.25-7.39,8.69-14.66,12.96-22.04c5.83-9.03,13.87-17.47,14.97-28.67c0.84-14.31-6.15-27.67-6.41-41.92
		c-0.69-11.33-0.55-22.7-0.01-34.04c-0.13-10.05,0.59-20.05,1.1-30.07c1.44-13.21,1.7-26.81,6.36-39.4
		c6.73-14.25,18.06-26.11,31.12-34.78c6.17-4.43,14.12-4.25,21.34-3.55c3.56,0.07,7.06,1.59,10.63,0.9
		c-0.09-1.44-0.52-2.95,0.16-4.31c2.55-6.75,5.32-13.51,9.43-19.48c2.06-2.9,4.51-5.78,7.91-7.11c3.95-1.54,8.07-2.62,12.18-3.62
		C517.73,192.54,540.37,189.12,563.02,185.96z"/>
	<path fill="#FFE1D9" stroke="#FFE1D9" stroke-width="0.594" d="M663.21,507.4c3.91-0.57,7.78-1.56,11.77-1.41
		c12.38,0.12,24.78-1.05,37.16-0.22c1.76,22.83,2.3,45.84,6.45,68.43c1.39,6.88,2.79,13.86,6.03,20.15
		c2.67,5.16,5.57,10.25,9.04,14.92c0.45,0.25,1.36,0.76,1.81,1.01c-0.1-1.29-0.52-2.45-1.27-3.46c-4.86-7.26-9.45-14.88-11.65-23.41
		c-5.62-22.53-6.12-45.85-7.95-68.86c-0.31-2.87-0.34-5.75-0.42-8.62c2.19,0.02,5.29,0.01,6.21,2.48c1.5,9.1,0.51,18.47,2.52,27.51
		c1.4901,6.65,3.98,13.05,7.09,19.1c1.76,3.31,4.14,6.96,8.14,7.64c10.94,1,21.91-0.11,32.87,0c26.51-0.94,53.01-2.49,79.42-5.09
		c11-1.31,22.13-1.89,33.02-4.06c2.64-0.68,5.96-0.95,7.45-3.61c2.61-4.51,2.45-9.96,4.34-14.7401c3.26-9.43,3.08-19.52,4.76-29.25
		c3.74-0.04,7.52,0.8,11.2-0.29c-1.17,33.77-2.62,67.53-4.26,101.29c-0.72,8-0.4,16.05-0.58,24.08
		c-1.18,23.63,0.25,47.37-2.19,70.94c-1.53,24.18-9.31,47.82-21.62,68.64c-8.38,14-18,27.2-27.52,40.44
		c-13.61,18.24-27.89,36-43.15,52.9c-9.25,10.06-18.71,20.03-29.52,28.4301c-12.28,9.22-27.69,14.22-43,14.46
		c-6.04-1.36-12.24-0.68-18.36-0.79c-5.79,0.03-11.59-0.23-17.36,0.27c1.11,0.41,2.25,0.8,3.4,1.17c-6.02,0.78-12.09,0.39-18.11,0.9
		c-7.61,0.87-15.29,0.56-22.93,0.6801c-16.96,0.3-34.05-2.21-50.01-8.05c-20.58-7.74-40.16-17.9-59.37-28.55
		c-26.01-14.64-51.12-30.97-74.41-49.65c-13.22-10.69-25.95-22.05-37.33-34.7c-13.48-14.44-24.2-31.21-33.09-48.79
		c-18.8-37.47-31.4-77.69-41.89-118.17c-3.09-11.87-5.5-23.91-8.47-35.81c1.2,0.02,2.41,0.02,3.63-0.01
		c2.75-25.67,2.91-51.53,4.15-77.29c5.56,4.57,11.81,8.64,19.1,9.61c-0.34,0.31-1.01,0.91-1.35,1.22
		c14.92,0.52,29.87,0.06,44.79,0.22c0.58,3.47-0.33,7.87,2.91,10.26c3.52,2.86,7.45,6.42,12.35,5.82c3.56-0.28,7.08-1.4,10.68-0.85
		c1.75,0.68,2.27,2.64,2.67,4.29c2.34,11.43,2.75,23.83,9.15,33.95c4.48,6.9399,13.47,7.79,20.95,8.6l0.58,0.43
		c1.84,1.86,4.59,1.41,6.96,1.51c7.67-0.14,15.34-0.05,23.01,0.05c2.37-0.12,5.17,0.36,6.97-1.57l0.57-0.45
		c16.5-0.66,32.93-2.05,49.43-2.75c13.61-0.8,27.19-1.98,40.73-3.59c9.84-1.04,19.73-2.15,29.33-4.62c3.19-0.74,4.39-4.19,5.15-6.99
		c1.24-4.29,0.17-8.79,0.84-13.15c1.4-12.27,1.2599-24.64,1.97-36.95c0.11-1.76,1.32-3.16,2.19-4.61c0.8-0.13,2.4-0.4,3.2-0.53
		c0.37,22.08-1.33,44.16-0.35,66.22c4.02-2.46,1.2401-7.46,1.44-11.12C663.24,544.48,663,525.94,663.21,507.4 M755.76,624.83
		c3.29,6.34,10.78,8.76,15.17,14.21c4.94,4.84,4.01,12.58,1.81,18.5c-1.63,4.01-4.8,8.6-9.68,8.33c-8.53,0.78-17.36-4.1-25.59-0.38
		c-4.8,3.77-5.61,10.74-10.4399,14.56c-5.3701,4.18-12.51,4.53-19.04,4.6c-5.51,0.22-11.17-0.9-15.94-3.73
		c-6.35-4.23-11-11-18.44-13.54c-9.97-3.16-21.75-1.54-29.78,5.42c-3.46,2.49-6.97,6.73-11.73,5.31
		c-6.18-2.27-11.59-7.65-12.99-14.21c-0.83-7.3,0.69-14.55,1.66-21.75c-0.43,0.0099-1.3,0.04-1.73,0.05
		c-1.52,4.76-1.43,9.86-2.05,14.79c-0.81,5.72,0.73,11.94,4.87,16.12c3.42,3.7,7.83,7.42,13.15,7.33
		c6.68-1.67,10.62-8.23,17.03-10.51c7.53-2.69,16.26-3.13,23.6,0.41c6.59,3.47,10.89,10.06,17.57,13.41
		c6.48,2.95,13.8,2.99,20.7599,2.42c6.01-0.2,12.4301-1.99,16.39-6.8c3.35-3.8,4.39-9.34,8.45-12.51c6.66-1.38,13.63-0.1,20.29,0.99
		c4.2401,0.62,9.12-0.3199,11.91-3.8199c4.17-5.11,6.2-12.0601,5.34-18.61c-1.46-7.36-8.25-11.7-13.83-15.89
		C760.2,628.03,758.74,625.02,755.76,624.83 M650.9,758.76c-18.29,4.52-36.2,10.41-54.14,16.11c-0.91,0.93-1.55,2.06-2.28,3.14
		c5.35,5.92,11.65,10.93,18.53,14.99c10.99,6.5,22.23,12.59,33.61,18.39c11.95,5.97,24.25,12.24,37.84,13.02
		c12.19,0.72,24.35-1.3799,36.55-1.08c11.8,0.28,24.03-0.2,34.88-5.34c12.29-5.86,23.38-13.87,34.5-21.64
		c8.98-6.5699,18.15-13.06,25.63-21.35c1.21-1.22,2.57-3.49,0.77-4.83c-2.11-0.77-4.44-0.21-6.61-0.61
		c-19.08-4.54-37.62-11.49-57.09-14.33c-9.57-1.71-18.92,1.52-28.14,3.54c-13.49,2.76-26.87-1.58-40.2-3.21
		c-5.55-0.43-11.14-0.39-16.7-0.17C662.23,755.92,656.59,757.53,650.9,758.76z"/>
	<path fill="#5F4130" stroke="#5F4130" stroke-width="0.594" d="M753.23,434.3c12.73-2.71,25.69-4.98,38.76-4.63
		c13.28,0.62,26.51,1.93,39.69,3.7c10.89,1.45,21.97,1.86,32.71,4.34c6.87,2.37,13.53,6.36,17.97,12.22
		c-11.16,0.54-22.28-0.9-33.4-1.52c-16.65-0.87-33.27-2.63-49.96-2.46c-9.37-0.28-18.59,1.67-27.74,3.39
		c-8.18,2.12-16.62,3.37-24.48,6.57c-4.23,1.45-11.27-1.6-10.0601-6.88c0.4901-3.65,1.05-7.85,3.95-10.44
		C744.55,436.44,748.98,435.49,753.23,434.3z"/>
	<path fill="#5F4130" stroke="#5F4130" stroke-width="0.594" d="M336.96,486.95c0.25-3.61-2.51-7.37-0.03-10.65
		c9.71,9.6,19.06,19.59,29.03,28.93c-0.84,9.59-0.44,19.21-1.23,28.8c0.04,12.6899-1.31,25.3199-1.7,38
		c-0.03,1.95-0.22,3.93-0.93,5.77c-2.96-7.27-4.63-15.01-5.31-22.83c-0.45-2.25-0.27-5.03-2.15-6.66c-1.77,0.18-2.9,1.88-4.31,2.83
		c-2.48-10.55-5.68-20.92-8.12-31.48C339.28,509,336.91,498.06,336.96,486.95z"/>
	<path fill="#FED9D0" stroke="#FED9D0" stroke-width="0.594" d="M924.17,437.21c1.17-3.45,4.87-1.65,7.16-0.56
		c5.87,3.16,11.2,8.13,13.59,14.45c0.94,10.47-1.2,20.91-2.58,31.26c-1.6,8.97-3,17.99-5.04,26.88c-1.06,4.43-1.43,9.18-3.87,13.15
		c-2.11,3.51-4.44,7.03-5.15,11.15c-3.63,17.33-6.36,34.85-8.46,52.44c-1.73,12.26-1.63,24.66-1.65,37.01
		c-0.54,8.43,0.29,17.45-4.19,25.04c-4.86-11.6801-4.87-24.65-3.78-37.0601c1.42-36.98,3.68-73.91,4.35-110.92
		c0.76-5.69,4-11.85,0.76-17.35c-2.06-2.89-0.37-6.36-0.02-9.49C917.7,461.11,919.28,448.62,924.17,437.21z"/>
	<path fill="#040100" stroke="#040100" stroke-width="0.594" d="M505.42,438.48c15.85-4.59,32.4-1.76,48.58-1.54
		c18.79,1.04,37.68-0.45,56.42,1.68c2.78,0.36,5.42,1.53,7.58,3.31c2.78,2.01,4.93,5.32,8.69,5.44c0.3,2.59,1.03,5.1,1.48,7.68
		c-0.42,3.52-2.44,7.13-5.82,8.58c-14.2,0.14-28.24-2.56-42.42-2.75c-8.63-0.92-17.32-0.3-25.96-1.08
		c-17.61-0.67-35.25,0.05-52.81,1.48c-9.93,1.19-19.98,1.34-29.84,3.07c-1.52-0.07-3.05-0.12-4.56-0.18
		c-0.19-1.9-1.65-4.54,0.69-5.67C479.23,450.37,491.67,442.75,505.42,438.48 M495.72,445.76c-8.97,4.27-17.62,9.29-25.7,15.08
		c22.94-2.1,45.9-5,68.98-4.52c9.66,0.11,19.34-0.35,28.97,0.68c13.25,0.03,26.44,1.37,39.63,2.53c4.72,0.4,9.52,1.32,14.26,0.53
		c2.33-1.54,3.81-5.29,1.87-7.72c-2.73-3.6-6.1-6.83-9.95-9.2c-4.59-2.13-9.83-1.5-14.7401-1.9c-15.64-1.16-31.33-0.21-46.98-0.7
		c-5-0.53-10.03-0.72-15.05-0.93C523.06,438.09,508.45,439.56,495.72,445.76z"/>
	<path fill="#FAE2D9" stroke="#FAE2D9" stroke-width="0.594" d="M767.61,453.64c10.67-2.18,21.43-4.76,32.39-4.42
		c22.02-0.01,43.9,3.13,65.92,3.25c-7.52,1.68-15.28,0.34-22.9,0.8c-31.06,1.36-62.16,2.18-93.11,5.26
		C755.47,455.88,761.75,455.4,767.61,453.64z"/>
	<path fill="#393939" stroke="#393939" stroke-width="0.594" d="M732.95,463.72c30.85-4.02,61.99-4.7,93-6.53
		c18.01-0.3,36.02-0.93,54.04-0.38c2.16,0.24,4.81-0.06,6.33,1.88c4.95,4.95,5.2,12.47,8.86,18.16c2.02,3.08,5.94,1.42,8.88,1.2
		c2.97-0.79,5.2,1.97,6.94,3.95c3.01,3.43,2.44,8.31,1.39,12.4c-0.84,2.91-1.65,6.03-3.7,8.36c-3.61,0.44-7.86-1.64-10.96,1
		c-1.59,2.27-1.65,5.24-2.08,7.91c-0.9301,9.66-1.32,19.97-6.46,28.51c-1.98,3.58-6.34,4.21-9.92,5.14
		c-12.65,2.79-25.6,3.77-38.43,5.28c-31.59,2.42-63.23,4.95-94.9301,4.28c-6.85,0.27-10.27-7.05-12.31-12.5
		c-5.4-11.68-3.25-24.98-6.84-37.09c-1.18-5.18-6.88-7.48-11.72-7.27c-10.35,0.27-20.72-0.25-31.05,0.6
		c-7.79,0.46-15.76,0.09-23.33,2.15c-4.17,2.45-6.78,7.09-8.11,11.63c-0.84,7.18-0.16,14.45-0.68,21.66
		c-0.61,7.54-0.87,15.13-2.33,22.57c-0.83,3.79-4.55,6.05-8.09,6.87c-6.58,1.54-13.3,2.53-20.04,3.04
		c-33.06,3.17-66.22,5.14-99.4,6.28c-13.37,0-26.87,0.82-40.1-1.59c-4.44-0.51-7.16-4.6-8.84-8.34c-4.93-10.95-6.15-23.1-7.14-34.93
		c-0.19-0.98-0.49-1.92-0.88-2.82c-1.83,1.08-3.82,2.03-6,1.95c-7.28,0.09-14.57,0.3-21.85-0.16c3.63-6.33,2.24-13.83,2.38-20.77
		c-0.4-4.41-0.01-8.81,0.48-13.19c0.45-3.9-3.09-6.37-5.2-9.11c6.59-1.39,14.04,2.24,20.14-1.8c5.7-3.11,5.97-11.55,12.28-13.73
		c12.53-1.32,25.15-0.82,37.72-1.4c23-0.39,46.01-0.33,69.01-0.12c21.66,0.7,43.38,0.39,65,2.3c2.56,0.35,5.65,0.31,7.38,2.57
		c4.38,5.39,3.48,13.41,8.43,18.49c3.72,3.58,9.18,4.45,14.14,4.83c9.33,0.22,18.68,0.13,27.98-0.84
		c8.08-0.62,17.45,1.64,24.29-3.91c4.06-3.06,4.28-8.59,3.94-13.22c-0.1-3.43-0.88-7.09,0.59-10.33
		C727.13,464.13,730.47,464.26,732.95,463.72z"/>
	<path fill="#FEFEFD" stroke="#FEFEFD" stroke-width="0.594" d="M501.16,461.28c17.56-1.43,35.2-2.15,52.81-1.48
		c8.64,0.78,17.33,0.16,25.96,1.08c14.18,0.19,28.22,2.89,42.42,2.75c-0.43,0.19-1.29,0.58-1.71,0.78
		c-10.43-0.02-20.86-0.43-31.27-0.86c-27.12-0.21-54.25-0.2-81.37-0.09c-12.49-0.16-24.93,0.95-37.41,1.02l0.73-0.13
		C481.18,462.62,491.23,462.47,501.16,461.28z"/>
	<path fill="#FBFDFC" stroke="#FBFDFC" stroke-width="0.594" d="M720.85,474.47c-0.25-2.58-1.17-5.6,0.83-7.73
		c-0.51,6,0.17,11.99-0.16,17.99c-0.28-0.04-0.86-0.12-1.14-0.16C720.64,481.21,721.49,477.82,720.85,474.47z"/>
	<path fill="#FBFDFC" stroke="#FBFDFC" stroke-width="0.594" d="M321.25,475.6c-0.04-1.51,1.67-1.62,2.66-2.23
		c1.24,1.13,2.48,2.28,3.46,3.67C325.31,476.64,323.27,476.13,321.25,475.6z"/>
	<path fill="#FBFDFC" stroke="#FBFDFC" stroke-width="0.594" d="M777.08,1000.8c3.31,5.07,4.47,11.26,7.52,16.53
		c-1.47,0.22-2.94,0.36-4.4,0.49C779.1,1012.15,777.71,1006.53,777.08,1000.8z"/>
	<path fill="#FBFDFC" stroke="#FBFDFC" stroke-width="0.594" d="M839.11,1118.08c8.59,13.88,15.96,28.49,23.73,42.8401
		c-2.33-4.15-4.69-8.28-7.05-12.4C850.21,1138.38,843.81,1128.6801,839.11,1118.08z"/>
	<path fill="#FBFDFC" stroke="#FBFDFC" stroke-width="0.594" d="M883.78,1191.99c3.31,3.02,4.59,7.48,6.78,11.27
		c1.78,3.55,3.59,7.08,5.26,10.7C891.79,1206.64,887.56,1199.4301,883.78,1191.99z"/>
	<path fill="#DF9970" stroke="#DF9970" stroke-width="0.594" d="M343.59,469.52c2.28-1.75,3.97,1.03,5.51,2.37
		c7.83,7.51,15.73,14.96,23.86,22.15c3.82,3.18,8.03,6.32,13.06,7.19c5.92,1.14,11.99,0.63,17.99,0.86
		c10.09-0.1,20.21,0.99,30.28-0.1c-0.22,4.31-0.1,8.69-1.14,12.92c-15.01-2.2-30.17,0.6-45.2-0.97c-3.41-0.28-6.65-1.61-9.54-3.39
		c-9.44-5.97-16.93-14.35-24.8-22.15c-4.79-4.89-9.62-9.74-14.24-14.78C338.62,471.28,342.1,470.56,343.59,469.52z"/>
	<path fill="#C9C4A4" stroke="#C9C4A4" stroke-width="0.594" d="M350.94,470.75c1.34,0.69,2.62,1.52,3.78,2.5
		c8,6.77,16.42,13.02,24.87,19.21c6.19,4.52,14.24,4.06,21.5,4.86c7.27,0.83,14.59,0.97,21.91,1.16c3.85-0.08,8.09,0.18,11.23-2.47
		c0.23,1.26,0.42,2.52,0.61,3.8c-4.22,0.93-8.56,0.51-12.84,0.59c-11.01-0.15-22.05,0.23-33.04-0.71c-4.68,0.06-8.79-2.54-12.4-5.24
		c-5.77-4.52-10.86-9.81-16.36-14.64C357.15,476.75,353.45,474.32,350.94,470.75z"/>
	<path fill="#FFD9D0" stroke="#FFD9D0" stroke-width="0.594" d="M277.97,475.99c2.19-1.99,4.98-3.44,8.02-3.28
		c15.65-0.18,30.48,5.95,45.66,8.52c0.87,0.85,1.61,1.92,1.67,3.19c0.66,4.91,0.35,9.89,1.09,14.8c0.7,7.74,3.19,15.13,4.83,22.68
		c2.71,10.5099,5.41,21.02,8.46,31.44c0.59,1.6299,0.96,3.58,2.47,4.65c1.42,0.25,2.37-1.16,3.5-1.78
		c0.11,5.77,1.53,11.38,3.22,16.86c0.99,2.83-0.16,5.85,0.61,8.74c7.27,35.6,16.64,70.8,28.6,105.13c-1.18,0.47-2.31,1.09-3.53,1.43
		c-7.67,1.01-15.68,1.49-23.15-0.89c-4.39-1.32-6.62-5.65-8.37-9.52c-3.18-7.48-5.35-15.32-8.07-22.96
		c-5.66-17.45-16.04-32.78-26-48c-5.77-8.44-11.65-16.86-18.29-24.65c-5.9-6.88-14.46-10.79-20.22-17.8
		c-3.62-4.4-5.28-10.03-6.28-15.54c-3.25-17.64-4.62-35.67-3.55-53.58C270.22,488.43,272.53,480.99,277.97,475.99 M289.11,483.15
		c0.34,1.13,0.49,2.51,1.8,2.99c9.58,5.61,20,11.39,25.63,21.39c5.72,9.85,9.39,20.69,13.53,31.25
		c6.84,18.39,14.02,36.7,19.24,55.64c1.15,4.48,2.13,9.56-0.16,13.87c-2.43,4.71-5.51,9.71-4.63,15.25
		c1.34,9.02,4.27,17.76,7.67,26.2c0.54,2.18,5.24,2.22,4.52-0.44c-3.24-3.31-3.95-8.04-5.55-12.21c-1.6-5.89-3.89-11.9-3.13-18.1
		c1.16-5.28,5.47-9.41,5.83-14.92c0.53-6.63-2.13-12.89-3.81-19.17c-6.94-21.81-15.16-43.19-23.55-64.48
		c-3.68-8.44-7.31-17.34-14.23-23.69c-5.74-5.11-12.24-9.31-18.93-13.07C292.1,482.67,290.55,482.88,289.11,483.15z"/>
	<path fill="#FFD9D0" stroke="#FFD9D0" stroke-width="0.594" d="M386.9,690.5c0.7,0.93,1.25,1.95,1.66,3.06
		c8.28,22.61,17.89,44.84,30.35,65.49c17.57,29.19,43.14,52.52,69.89,73.16c24.83,18.88,51.38,35.43,78.89,50.09
		c20.85,10.68,41.9,21.85,64.94,26.96c15.21,3.06,30.84,3.88,46.31,2.86c9.37,0.01,18.67-1.21,28.05-1.02
		c14.98-1,30.15,0.64,44.98-2.14c12.23-2.4,24.2401-7.14,33.9301-15.12c6.84-5.36,13.02-11.4901,19.0699-17.72
		c-10.79,28.82-22.28,57.45-30.72,87.07c-3.15,10.7-2.3,21.94-1.17,32.87c0.72,6.39,1.76,12.76,3.18,19.05
		c-1.1,0.59-2.09,1.5-3.35,1.73c-8.74,0.78-17.65-1.08-26.28,0.95c-21.25,0.27-41.09-8.4-60.61-15.72
		c-41.67-16.55-82.51-35.18-122.4-55.66c-44.85-23.43-87.71-50.43-130.17-77.89c-29.05-18.85-58.29-37.41-87.02-56.75
		c10.88-7.66,22.31-15.26,30.08-26.3c4.2-5.62,5.01-12.8,6.12-19.5C385.69,740.93,386.51,715.69,386.9,690.5z"/>
	<path fill="#070100" stroke="#070100" stroke-width="0.594" d="M289.11,483.15c1.44-0.27,2.99-0.48,4.23,0.51
		c6.69,3.76,13.19,7.96,18.93,13.07c6.92,6.35,10.55,15.25,14.23,23.69c8.39,21.29,16.61,42.67,23.55,64.48
		c1.68,6.28,4.34,12.54,3.81,19.17c-0.36,5.51-4.67,9.64-5.83,14.92c-0.76,6.2,1.53,12.21,3.13,18.1c1.6,4.17,2.31,8.9,5.55,12.21
		c0.72,2.66-3.98,2.62-4.52,0.44c-3.4-8.44-6.33-17.18-7.67-26.2c-0.88-5.54,2.2-10.54,4.63-15.25c2.29-4.31,1.31-9.39,0.16-13.87
		c-5.22-18.94-12.4-37.25-19.24-55.64c-4.14-10.5601-7.81-21.4-13.53-31.25c-5.63-10-16.05-15.78-25.63-21.39
		C289.6,485.66,289.45,484.28,289.11,483.15z"/>
	<path fill="#D1CAAF" stroke="#D1CAAF" stroke-width="0.594" d="M434.06,485.94c1.83,1.99,4.39,4,4.24,7.01
		c-0.72,8.33-0.63,16.71-0.64,25.08c-0.16,2.4399-0.21,5.2599-2.16,7.04c-1.06-9.37,1.03-18.67,0.94-28.05
		C434.2,493.74,434.01,489.78,434.06,485.94z"/>
	<path fill="#CEC8AD" stroke="#CEC8AD" stroke-width="0.594" d="M664.13,503.41c14.55-1.92,29.27-1.53,43.92-1.71
		c4.15-0.16,8.58-0.99,12.51,0.81c2.58,1.28,3.25,4.34,3.77,6.92c1.98,11.63,1.2,23.97,6.36,34.87c1.69,4.27,3.7,8.7,7.47,11.55
		c3.54,2.98,8.47,2.41,12.78,2.76c21.38,0.08,42.72-1.34,64.05-2.51c19.98-1.49,40.03-2.97,59.8-6.33
		c5.71-1.06,11.66-2.06,16.36-5.74c-0.84,2.71-1.77,6.37-5.04,6.97c-14.85,3.02-30.02,4.01-45.09,5.41
		c-21.3,2.1801-42.69,3.27-64.09,3.89c-12.29,0.96-24.65,0.66-36.96,0.66c-6.5-0.47-8.65-7.78-11.03-12.73
		c-5.39-11.33-5.51-24.05-6.06-36.31c-0.45-2.6-0.54-6.2-3.52-7.19c-6.96-1.84-14.25-0.92-21.36-1.14
		c-12.77,0.22-25.73-0.36-38.25,2.54C660.79,504.66,662.24,503.47,664.13,503.41z"/>
	<path fill="#FFFBF5" stroke="#FFFBF5" stroke-width="0.594" d="M386.96,518.84c0.34-0.31,1.01-0.91,1.35-1.22
		c13.89,0.48,27.81-0.39,41.7,0.27c0.44,0.29,1.31,0.88,1.74,1.17C416.83,518.9,401.88,519.36,386.96,518.84z"/>
	<path fill="#CBC5AA" stroke="#CBC5AA" stroke-width="0.594" d="M438.97,530.34c7.94,0.54,15.9,0.14,23.85-0.14
		c0.77,11.31,2.48,22.77,6.73,33.35c2.08,4.52,5.1,9.57,10.34,10.72c9.22,2.11,18.72,1.86,28.11,1.94
		c39.41-0.04,78.73-3.05,117.96-6.59c8.72-1.48,18.6-1.42,25.43-7.88c-0.2,3.64-2.37,7.11-6.31,7.29
		c-33.05,5.9-66.66,7.43-100.12,9.23c-20.02,0.92-40.22,3.08-60.19,0.18c-5.07-0.68-10.64-2.15-13.53-6.78
		c-6.94-10.75-6.55-24.08-9.86-36.04c-1.9-5.03-8.33-3.19-12.35-2.56C445.37,534.16,441.8,532.59,438.97,530.34z"/>
	<path fill="#FFF9F7" stroke="#FFF9F7" stroke-width="0.594" d="M491.04,581.56c12.31,0.15,24.63-0.04,36.94-0.01
		c-1.8,1.93-4.6,1.45-6.97,1.57c-7.67-0.1-15.34-0.19-23.01-0.05C495.63,582.97,492.88,583.42,491.04,581.56z"/>
	<path fill="#060000" stroke="#060000" stroke-width="0.594" d="M755.76,624.83c2.98,0.19,4.44,3.2,6.76,4.7
		c5.58,4.1899,12.37,8.53,13.83,15.89c0.86,6.55-1.17,13.5-5.34,18.61c-2.79,3.5-7.67,4.4399-11.91,3.8199
		c-6.66-1.09-13.63-2.37-20.29-0.99c-4.06,3.17-5.1,8.71-8.45,12.51c-3.96,4.81-10.38,6.6-16.39,6.8
		c-6.96,0.57-14.28,0.53-20.7599-2.42c-6.68-3.35-10.98-9.94-17.57-13.41c-7.34-3.54-16.07-3.1-23.6-0.41
		c-6.41,2.28-10.35,8.84-17.03,10.51c-5.32,0.09-9.73-3.63-13.15-7.33c-4.14-4.18-5.68-10.4-4.87-16.12
		c0.62-4.93,0.53-10.03,2.05-14.79c0.43-0.01,1.3-0.04,1.73-0.05c-0.97,7.2-2.49,14.45-1.66,21.75c1.4,6.56,6.81,11.94,12.99,14.21
		c4.76,1.42,8.27-2.82,11.73-5.31c8.03-6.96,19.81-8.58,29.78-5.42c7.44,2.54,12.09,9.31,18.44,13.54
		c4.77,2.83,10.43,3.95,15.94,3.73c6.53-0.07,13.67-0.42,19.04-4.6c4.83-3.82,5.64-10.79,10.4399-14.56
		c8.23-3.72,17.0601,1.16,25.59,0.38c4.88,0.27,8.05-4.32,9.68-8.33c2.2-5.92,3.13-13.66-1.81-18.5
		C766.54,633.59,759.05,631.17,755.76,624.83z"/>
	<path fill="#3A7C7A" stroke="#3A7C7A" stroke-width="0.594" d="M329.37,766.49c16.97-5.22,34-10.32,51.28-14.44
		c-0.45,7.6-1.26,15.2-2.97,22.63c-11.39,3.21-22.77,6.47-34.11,9.87c-5.89,1.81-12.04,3.31-17.24,6.76c-2.02,1.41-4.79,3.48-4,6.32
		c1.09,1.86,2.88,3.17,4.55,4.49c22.21,16.06,45.36,30.75,68.33,45.68c49.45,31.9,98.57,64.46,150.24,92.71
		c21.11,11.63,42.82,22.14,64.61,32.41c32.66,15.02,65.58,29.63,99.57,41.41c12.29,4.43,25.28,6.74,38.32,7.27
		c12.35-0.0099,24.71,0.27,37.04-0.35c1.12-0.14,1.87,0.34,2.24,1.45c6.93,13.61,14.94,26.6299,22.19,40.07
		c-0.86,0.83-1.71,1.6699-2.56,2.53c-5.75-7.3-11.01-15.01-17.27-21.89c-3.64-3.76-8.4901-7.77-14.07-6.92
		c-3.53,1.9401-4.93,6.03-6.57,9.47c-7.05,16.65-12.77,33.8101-19.45,50.61c-7.79,19.8301-16.26,39.4701-27.04,57.88
		c-5.11,8.6101-10.85,16.9401-17.98,24.02c-5.86,5.9501-13.26,10.9601-21.7,12.0701c-8.9901,1.12-17.8101-1.79-25.95-5.3
		c-15.4-7.0699-28.98-17.4-42.08-28c-44.1-36.22-84.1-77.77-132.54-108.46c-66.17-41.95-136.05-77.6201-203.41-117.57
		c-10.63-6.57-21.46-12.94-31.17-20.84c-2.12-1.95-5.34-4.4-4.01-7.67c1.99-5.81,7.33-9.47,11.85-13.23
		c8.91-6.9,19.06-13.78,23.24-24.74c3.64-10.45-0.17-21.42-2.76-31.65c-2.88-10.87-6.85-22.19-4.43-33.54
		c1.26-6.18,6.17-10.63,11.42-13.64C297.41,777.27,313.57,772.09,329.37,766.49z"/>
	<path fill="#3A7C7A" stroke="#3A7C7A" stroke-width="0.594" d="M809.01,875.08c2.07-7.18,8.26-11.88,13-17.28
		c1.38,14.51,1.83,29.1,3.61,43.58c2.49,18.47,5.07,37.72,15.14,53.84c8.42,14.4901,21.43,25.48,30.71,39.35
		c8.51,13.22,14.57,27.84,20.75,42.2499c3.5,8.9901,7.4901,17.9801,8.8101,27.62c-5-2.7699-8.33-7.5699-12.19-11.62
		c-10.2401-11.59-19.78-24.22-32.82-32.8799c-8.41-5.79-17.01-11.46-26.44-15.44c-5.77-2.23-12.23-3.73-18.37-2.31
		c-4.09,1.26-4.42,6.23-4.59,9.81c-0.06,9.72,1.5,19.39,3.5,28.88c1.69,8.46,5.56,16.24,9.06,24.0599
		c8.07,17,16.74,33.7101,25.54,50.3501c8.55,14.45,15.52,29.76,23.45,44.5499c3.77,7.39,7.95,14.5701,11.33,22.16
		c-3.65-2.52-4.85-6.96-7-10.6c-22.64-41.3301-44.85-82.91-67.82-124.0701c-8.6-15.09-17.5-30.1199-23.45-46.4999
		c-2.14-6.52-5.87-12.77-5.69-19.83c-0.19-6.4,0.6-12.81,2.54-18.92C786.75,932.53,798.08,903.85,809.01,875.08z"/>
	<path fill="#070101" stroke="#070101" stroke-width="0.594" d="M650.9,758.76c5.69-1.23,11.33-2.84,17.15-3.37
		c5.56-0.22,11.15-0.26,16.7,0.17c13.33,1.63,26.71,5.97,40.2,3.21c9.22-2.02,18.57-5.25,28.14-3.54
		c19.47,2.84,38.0099,9.79,57.09,14.33c2.17,0.4,4.5-0.16,6.61,0.61c1.8,1.34,0.44,3.61-0.77,4.83
		c-7.48,8.29-16.65,14.78-25.63,21.35c-11.12,7.77-22.21,15.78-34.5,21.64c-10.85,5.14-23.08,5.62-34.88,5.34
		c-12.2-0.3-24.36,1.8-36.55,1.08c-13.59-0.78-25.89-7.05-37.84-13.02c-11.38-5.8-22.62-11.89-33.61-18.39
		c-6.88-4.06-13.18-9.07-18.53-14.99c0.73-1.08,1.37-2.21,2.28-3.14C614.7,769.17,632.61,763.28,650.9,758.76 M716.99,763.17
		c-8.15,0.17-16.18-1.57-24.16-3.02c-10.53-1.85-21.46-2.46-31.98-0.23c-16.34,3.57-32.38,8.37-48.31,13.44
		c-2.91,0.85-5.86,1.64-8.56,3.04c2.97,0.52,5.96,1,8.92,1.64c13.66,3.23,27.69,4.37,41.58,6.29c14.36,1.23,28.69,3.58,43.12,3.54
		c4.08,0.86,8.27,0.45,12.4,0.56c4.13-0.1,8.33,0.34,12.41-0.54c16.05-0.44,31.9301-3.69,47.69-6.63
		c12.45-2.45,24.79-5.45,37.09-8.58c-5.61-2.52-11.86-3.11-17.62-5.22c-13.03-3.48-25.99-7.96-39.5-9.06
		C738.7,757.15,728.23,762.85,716.99,763.17 M748.06,790.22c-29.97,4.8101-60.54,3.28-90.52-0.62c-18.5-2.35-36.66-6.91-55.23-8.87
		c1.96,2.4,4.59,4.1,7.09,5.89c10.78,7.2,22.36,13.13,33.79,19.22c9.69,4.94,19.38,10.1299,29.86,13.21
		c15.69,4.46,31.98,0.29,47.95,0.96c11.65,0.39,23.77-0.25,34.41-5.52c11.32-5.59,21.72-12.84,31.9901-20.13
		c8.13-6.09,16.75-11.72,23.66-19.23C790.3,781.08,769.41,786.82,748.06,790.22z"/>
	<path fill="#F1ABAD" stroke="#F1ABAD" stroke-width="0.594" d="M716.99,763.17c11.24-0.32,21.71-6.02,33.08-4.77
		c13.51,1.1,26.47,5.58,39.5,9.06c5.76,2.11,12.01,2.7,17.62,5.22c-12.3,3.13-24.64,6.13-37.09,8.58
		c-15.7599,2.94-31.64,6.19-47.69,6.63c-5.3799-1.42-10.94-0.79-16.42-0.95c-2.83-0.11-5.63,0.35-8.39,0.93
		c-14.43,0.04-28.7599-2.31-43.12-3.54c-13.89-1.92-27.92-3.06-41.58-6.29c-2.96-0.64-5.95-1.12-8.92-1.64
		c2.7-1.4,5.65-2.19,8.56-3.04c15.93-5.07,31.97-9.87,48.31-13.44c10.52-2.23,21.45-1.62,31.98,0.23
		C700.81,761.6,708.84,763.34,716.99,763.17z"/>
	<path fill="#F1ABAD" stroke="#F1ABAD" stroke-width="0.594" d="M748.06,790.22c21.35-3.4,42.24-9.14,63-15.09
		c-6.91,7.51-15.53,13.14-23.66,19.23c-10.27,7.29-20.67,14.54-31.9901,20.13c-10.64,5.27-22.7599,5.91-34.41,5.52
		c-15.97-0.67-32.26,3.5-47.95-0.96c-10.48-3.08-20.17-8.27-29.86-13.21c-11.43-6.09-23.01-12.02-33.79-19.22
		c-2.5-1.79-5.13-3.49-7.09-5.89c18.57,1.96,36.73,6.52,55.23,8.87C687.52,793.5,718.09,795.03,748.06,790.22z"/>
	<path fill="#000507" stroke="#000507" stroke-width="0.594" d="M279.2,784.24c15.85-9.99,33.88-15.77,51.54-21.66
		c-0.46,1.29-0.92,2.59-1.37,3.91c-15.8,5.6-31.96,10.78-46.43,19.41c-5.25,3.0099-10.16,7.46-11.42,13.64
		c-2.42,11.35,1.55,22.67,4.43,33.54c2.59,10.23,6.4,21.2,2.76,31.65c-4.18,10.96-14.33,17.84-23.24,24.74
		c-4.52,3.76-9.86,7.42-11.85,13.23c-1.33,3.27,1.89,5.72,4.01,7.67c9.71,7.9,20.54,14.27,31.17,20.84
		c67.36,39.95,137.24,75.62,203.41,117.57c48.44,30.6899,88.44,72.24,132.54,108.46c13.1,10.6,26.68,20.9301,42.08,28
		c8.14,3.51,16.96,6.42,25.95,5.3c8.4399-1.11,15.84-6.12,21.7-12.0701c7.13-7.08,12.87-15.4099,17.98-24.02
		c10.78-18.4099,19.25-38.0499,27.04-57.88c6.68-16.7999,12.4-33.96,19.45-50.61c1.64-3.4399,3.04-7.5299,6.57-9.47
		c5.58-0.85,10.43,3.16,14.07,6.92c6.2599,6.88,11.52,14.59,17.27,21.89c10.12,15.6799,19.48,31.84,28.64,48.1
		c1,1.6899,2.31,3.1899,3.61,4.6799c4.7,10.6001,11.1,20.3,16.68,30.4401c-0.56,0.7-1.68,2.12-2.24,2.8199
		c-10.3-17.96-20.55-35.9399-31.03-53.7999c-7.96-13.24-15.36-26.91-25.07-38.99c-4.8-6.1001-9.12-12.9301-15.69-17.3
		c-1.92-1.04-5.25-2.85-6.57-0.08c-3.24,5.1699-5.11,11.0499-7.42,16.6599c-8.34,21.8501-16.1,43.9401-25.66,65.3
		c-7.04,15.7-14.69,31.24-24.73,45.28c-5.25,7.25-11.19,14.1799-18.6,19.3099c-5.52,3.6901-11.9901,6.39-18.73,6.2001
		c-11.54,0.5499-22.5-4.14-32.44-9.52c-14.84-8.27-28.22-18.87-41.27-29.6901c-42.77-36.02-82.42-76.3099-130.25-105.85
		c-59.81-37.44-122.38-70.17-183.39-105.56c-15.98-9.53-32.44-18.53-46.99-30.21c-9.64,12.55-18.72,25.54-29.01,37.58
		c-6.77,8.22-14.42,15.78-23.33,21.68c-8.81,6.29-18.7,10.9901-27.08,17.88c-8.16,6.68-11.84,17.42-20.73,23.35
		c-11.05,7.72-25.83,4.82-37.29,11.6299c-9.46,5.5701-16.81,13.9601-23.95,22.15c-10.15,12.47-20.13,25.35-26.98,39.99
		c-5.37,11.02-9.14,22.84-15.78,33.22c-9.17,14.8301-20.07,28.5-30.68,42.3201c-3.54,4.5599-7.14,9.09-10.88,13.49v-5.05
		c5.27-7.13,11.05-13.88,16.33-21.01c9.55-12.9299,19.75-25.5499,27.02-39.96c5.66-11.73,9.93-24.14,16.66-35.33
		c7.13-11.5801,15.36-22.48,24.22-32.79c7.31-8.08,14.9-16.47,24.86-21.27c10.11-5.02,22.08-3.66,32.16-8.71
		c9.76-5.22,13.57-16.38,21.57-23.47c11.22-9.83,25.42-15.48,36.67-25.31c5.89-4.78,10.86-10.55,15.72-16.33
		c9.7-11.69,18.73-23.9,27.64-36.19c-1.36-2.11-3.11-4.3-2.82-6.96c0.33-5.08,3.94-9.14,7.53-12.41
		c7.6-6.77,16.58-12.02,23.14-19.92c3.74-4.34,6.13-9.9,5.95-15.68c-0.21-18.44-11.1-35.34-9.04-54
		C268.13,794.52,272.87,787.99,279.2,784.24z"/>
	<path fill="#FCC8CD" stroke="#FCC8CD" stroke-width="0.594" d="M697.6,787.87c2.76-0.58,5.56-1.04,8.39-0.93
		c5.48,0.16,11.04-0.47,16.42,0.95c-4.08,0.88-8.28,0.44-12.41,0.54C705.87,788.32,701.68,788.73,697.6,787.87z"/>
	<path fill="#65D8D5" stroke="#65D8D5" stroke-width="0.594" d="M825.79,857.04c11.48,6.82,22.85,13.83,34.01,21.16
		c17.42,11.61,34.84,23.48,50.04,37.95c13.1299,12.98,25.83,26.5699,36.09,41.98c8.66,13.23,16,27.34,21.93,42
		c7.77,19.45,8.82,40.5599,13.06,60.87c2.12,10.96,5.75,21.55,8.78,32.28c11.56,39.6699,23.07,79.37,36.61,118.4199
		c7.6599,21.49,15.2999,43.12,26.09,63.3H930.46c-12.04-24.62-24.56-49-37.08-73.38c-13.9-27.38-27.98-54.67-42.03-81.98
		c-8.87-14.85-16.36-30.48-24.14-45.91c-4.46-9.3199-9.25-18.54-12.45-28.38c-3.15-12.09-5.38-24.64-4.34-37.17
		c-0.11-2.4,2.59-3.34,4.57-3.25c8.15-0.07,15.8,3.32,22.7,7.38c11.47,6.8,23.05,13.96,32.05,23.96
		c5.77,6.12,11.13,12.61,16.73,18.89c3.05,3.4,6.04,6.87,9.41,9.97c2.04,2.1801,4.84,3.52,7.87,2.74
		c1.34-6.35-1.25-12.53-3.14-18.46c-4.33-12.5601-9.75-24.6901-15.41-36.6901c-3.2-6.62-6.37-13.28-10.54-19.35
		c-9.64-14.77-23.65-26.26-32.2-41.8c-4.98-8.57-7.86-18.16-9.9-27.81C828.25,901.79,826.53,879.39,825.79,857.04z"/>
	<path fill="#65D8D5" stroke="#65D8D5" stroke-width="0.594" d="M216.7,950.67c10.29-12.04,19.37-25.03,29.01-37.58
		c14.55,11.68,31.01,20.68,46.99,30.21c61.01,35.39,123.58,68.12,183.39,105.56c47.83,29.54,87.48,69.83,130.25,105.85
		c13.05,10.8201,26.43,21.42,41.27,29.6901c9.94,5.38,20.9,10.0699,32.44,9.52c6.74,0.1899,13.21-2.51,18.73-6.2001
		c7.41-5.13,13.35-12.0599,18.6-19.3099c10.04-14.04,17.69-29.5801,24.73-45.28c9.56-21.36,17.32-43.45,25.66-65.3
		c2.31-5.61,4.18-11.49,7.42-16.6599c1.32-2.77,4.65-0.9601,6.57,0.08c6.57,4.37,10.89,11.2,15.69,17.3
		c9.71,12.08,17.11,25.75,25.07,38.99c10.48,17.86,20.73,35.84,31.03,53.7999c4.95,8.4501,9.37,17.2201,14.66,25.4601
		c0.9-0.4501,1.8-0.89,2.72-1.3201c18.04,33.26,36.23,66.4401,54.6,99.52H0v-98.62c3.74-4.4,7.34-8.9301,10.88-13.49
		c10.61-13.8201,21.51-27.49,30.68-42.3201c6.64-10.38,10.41-22.2,15.78-33.22c6.85-14.64,16.83-27.52,26.98-39.99
		c7.14-8.1899,14.49-16.58,23.95-22.15c11.46-6.8099,26.24-3.91,37.29-11.6299c8.89-5.93,12.57-16.67,20.73-23.35
		c8.38-6.89,18.27-11.59,27.08-17.88C202.28,966.45,209.93,958.89,216.7,950.67 M371.96,1182c0.71,3.48,3.76,5.66,5.75,8.4
		c8.87,11.11,17.93,22.46,23.11,35.85c4.71,11.74,8.37,23.86,11.91,35.99c0.88,2.33,0.62,5.62,3.22,6.86
		c-0.1-1.53-0.16-3.0499-0.58-4.51c-3.51-12.48-7.33-24.89-11.98-37c-5.17-14.26-14.55-26.4-23.95-38.09
		C377.13,1186.83,375.2,1183.65,371.96,1182z"/>
	<path fill="#FFF9F6" stroke="#FFF9F6" stroke-width="0.594" d="M703.64,906.28c5.77-0.5,11.57-0.2401,17.36-0.27
		c6.12,0.11,12.32-0.57,18.36,0.79c-10.72,1.1-21.56,0.23-32.32,0.65C705.89,907.08,704.75,906.69,703.64,906.28z"/>
	<path fill="#000607" stroke="#000607" stroke-width="0.594" d="M806.62,1012c0.17-3.58,0.5-8.55,4.59-9.81
		c6.14-1.42,12.6,0.08,18.37,2.31c9.43,3.98,18.03,9.65,26.44,15.44c13.04,8.66,22.58,21.29,32.82,32.8799
		c-0.81,0.77-1.6,1.54-2.3701,2.3401c-5.6-6.28-10.96-12.77-16.73-18.89c-9-10-20.58-17.16-32.05-23.96
		c-6.9-4.06-14.55-7.45-22.7-7.38c-1.98-0.09-4.68,0.85-4.57,3.25c-1.04,12.53,1.19,25.08,4.34,37.17
		c3.2,9.84,7.99,19.0601,12.45,28.38c7.78,15.4301,15.27,31.0601,24.14,45.91c14.05,27.3099,28.13,54.6,42.03,81.98
		c-0.7,0.41-2.11,1.23-2.82,1.64c-2.19-3.79-3.47-8.25-6.78-11.27c-3.03-2.61-2.02-6.97-4.28-9.99
		c-3.38-7.59-7.56-14.77-11.33-22.16c-7.93-14.7899-14.9-30.1-23.45-44.5499c-8.8-16.64-17.47-33.3501-25.54-50.3501
		c-3.5-7.8199-7.37-15.6-9.06-24.0599C808.12,1031.39,806.56,1021.72,806.62,1012z"/>
	<path fill="#000607" stroke="#000607" stroke-width="0.594" d="M371.96,1182c3.24,1.65,5.17,4.83,7.48,7.5
		c9.4,11.6899,18.78,23.83,23.95,38.09c4.65,12.11,8.47,24.52,11.98,37c0.42,1.4601,0.48,2.98,0.58,4.51
		c-2.6-1.24-2.34-4.53-3.22-6.86c-3.54-12.13-7.2-24.25-11.91-35.99c-5.18-13.39-14.24-24.74-23.11-35.85
		C375.72,1187.66,372.67,1185.48,371.96,1182z"/>
	<path fill="#FEF7EF" stroke="#FEF7EF" stroke-width="0.594" d="M772.91,1016.84c1.26-0.23,2.25-1.14,3.35-1.73
		c0.07,0.77,0.21,2.3,0.28,3.07c-9.97-0.1-19.99,0.58-29.91-0.39C755.26,1015.76,764.17,1017.62,772.91,1016.84z"/>
	<path fill="#4E7C7B" stroke="#4E7C7B" stroke-width="0.594" d="M809.42,1062.77c6,10.66,11.72,21.48,17.61,32.21
		c3.97,7.73,8.8799,14.99,12.08,23.1c-1.3-1.49-2.61-2.99-3.61-4.6799c-9.16-16.26-18.52-32.42-28.64-48.1
		C807.71,1064.4399,808.56,1063.6,809.42,1062.77z"/>
</g>
</svg>
