<?xml version="1.0" encoding="utf-8"?>
<!DOCTYPE svg PUBLIC "-//W3C//DTD SVG 1.1//EN" "http://www.w3.org/Graphics/SVG/1.1/DTD/svg11.dtd">
<svg version="1.1" id="Layer_1" xmlns="http://www.w3.org/2000/svg" xmlns:xlink="http://www.w3.org/1999/xlink" x="0px" y="0px"
	 viewBox="0 0 1672 1920" enable-background="new 0 0 1672 1920" xml:space="preserve">
<g>
	<path fill="#3D3733" stroke="#3D3733" stroke-width="0.594" d="M823.26,32.21c2.06-2.04,3.51-4.73,5.88-6.43
		c3.37-0.07,6.7,1.12,10.12,0.77c4.94-0.44,9.76,1.76,14.7,0.67c4.52-1.12,8.74,1.86,13.29,1.42c3.32,0.22,6.68-1.26,9.94-0.5
		c0.23,0.75,0.47,1.5,0.73,2.25c5.34,0.27,10.74-0.4,16.06,0.52c7.27,1.33,14.71,0.89,22,2.13c5.66,0.94,11.43-0.09,17.08,0.94
		c9.49,1.56,19.06,2.69,28.66,3.24c2.01-0.02,4.21-0.2,5.89,1.17c1.82,1.58,4.31,1.3,6.56,1.58c6.75,1.3,13.57,2.21,20.32,3.51
		c4.99,0.89,10.42,0.3,14.94,3.03c5.23,3.23,11.69,2.44,17.2,4.87c6.76,2.74,13.37,5.84,19.85,9.19c3.49,1.8,6.72,4.09,10.41,5.51
		c4.13,1.59,7.52,4.5,11.13,6.98c2.4,1.78,5.5699,1.6,8.23,2.75c2.95,2.29,5.37,5.22,8.51,7.3c1.5,1.92,3.2,3.68,5.27,5
		c4.15,3.09,8.96,5.39,12.37,9.4c1.75,2.32,4.76,2.66,7.1899,3.94c1.51,1.82,1.48,4.41,2.52,6.48c1.6801,1.06,3.6,1.69,5.3101,2.73
		c2.0699,2.56,3.37,5.78,6.1699,7.72c3,2.86,6.79,4.57,10.37,6.56c1.3,2.62,2.5,5.36,4.8501,7.25
		c3.1599,2.62,2.5099,7.62,5.8999,10.08c2.37,1.98,4.4401,4.29,6.14,6.87c2.48,3.8,6.53,6.27,8.7001,10.3
		c2.25,4.26,6.13,7.32,8.5199,11.49c2.1801,3.7,5.2001,6.77,8.2401,9.77c2.33,2.11,3.0099,5.26,4.1799,8.04
		c0.97,2.86,4.6,3.94,5.14,7.04c1.58,7.68,5.65,14.46,9.04,21.43c3.5299,8.2,7.0599,16.4,10.5199,24.64
		c1.9301,5.21,6.1001,9.39,6.9401,15.04c-0.72,1.23-0.5699,2.36,0.4399,3.38c1.2401,3.92,5.42,6.23,5.9601,10.4
		c0.6799,4.35,3.0599,8.12,4.49,12.23c1.5699,4.57,3.0699,9.19,4.9,13.67c-1.3401,1.51-0.6901,3.54,0.99,4.45
		c1.88,4.37,3.76,8.76,6.11,12.91c-0.38,1.5,0.4299,3.06,2.1,3.17c0.05,10.35,5.1901,19.57,7.25,29.52
		c0.92,4.22,2.72,8.16,4.23,12.19c-0.97,2.11,0.4,3.97,2.5601,4.39l-0.01,0.47c-1.14,1.88-1.02,3.99-0.03,5.91
		c3.5601,9.85,4.7,20.36,7.78,30.35c-0.52,1.34-0.17,2.39,1.0699,3.14c2.11,11.18,4.5901,22.48,4.05,33.93
		c-0.23,13.37,0.9199,26.87-1.55,40.11c-1.4099,7.38-1.52,15.11-4.51,22.11c0.1801-5.74,1.5801-11.32,2.29-16.98
		c0.91-13.75,3.2-27.46,2.52-41.28c-0.64-8.7-0.96-17.46-2.8-26.01c-4.2-21.7-10.37-42.97-16.88-64.07
		c-4.9099-16.69-10.2899-33.24-16.4399-49.53c-6.6-18.9-14.65-37.23-22.22-55.74c-5.8-13.69-11.42-27.48-18.54-40.55
		c-5.03-8.04-9.3-16.53-14.53-24.45c-13.0499-18.94-28-36.5-43.59-53.39c-5.65-5.7-10.59-12.09-16.85-17.18
		c-7.8401-7.53-15.77-15.03-24.61-21.4c-15.89-11.73-32.77-22.25-50.9401-30.04c-8.61-4.48-17.96-7.09-27.27-9.64
		c-36.75-8.9-74.47-12.54-112.0699-15.7c-13.32-1.08-26.69-1.42-40.02-2.37c-7.69-0.55-15.52-1.29-23.15,0.04
		c-3.2,1.46-6.44,3.14-10.09,2.64C822.89,33.23,823.14,32.55,823.26,32.21z"/>
	<path fill="#3A1C11" stroke="#3A1C11" stroke-width="0.594" d="M832.86,30.93c7.63-1.33,15.46-0.59,23.15-0.04
		c13.33,0.95,26.7,1.29,40.02,2.37c37.6,3.16,75.3199,6.8,112.0699,15.7c9.31,2.55,18.66,5.16,27.27,9.64
		c18.17,7.79,35.05,18.31,50.9401,30.04c8.84,6.37,16.7699,13.87,24.61,21.4c6.26,5.09,11.2,11.48,16.85,17.18
		c15.59,16.89,30.54,34.45,43.59,53.39c5.23,7.92,9.5,16.41,14.53,24.45c7.12,13.07,12.74,26.86,18.54,40.55
		c7.5699,18.51,15.62,36.84,22.22,55.74c6.15,16.29,11.53,32.84,16.4399,49.53c6.51,21.1,12.6801,42.37,16.88,64.07
		c1.8401,8.55,2.16,17.31,2.8,26.01c0.6799,13.82-1.61,27.53-2.52,41.28c-0.71,5.66-2.11,11.24-2.29,16.98
		c-0.36,2.64-0.5,5.3-0.46,7.97c-5.89-6.97-15.59-9.25-24.34-8.04c-6,0.42-11.6801,2.92-16.37,6.62
		c-6.4701,5.16-12.53,10.94-17.25,17.78c-18.36,25.19-31.6801,54.16-53.61,76.63c-1.87,0.37-3.7301,0.74-5.5901,1.12
		c0.8401,0.57,1.65,1.19,2.4401,1.87c-3.1801,0.3-6.5601,0.26-9.23-1.72c-8.16-5.48-14.16-13.6-18.9801-22.03
		c-4.7699-8.27-5.09-18.14-5.21-27.43c-0.13-9.29,0.09-18.59-0.16-27.87c-1.1899-9.72-1.37-19.61-0.1399-29.33
		c0.5199,1.04,1.08,2.08,1.6699,3.11c-0.6799-14.38,2.2001-28.72,0.46-43.08c-0.71-4.97-0.23-9.98-0.5399-14.96
		c-0.98,2.34-1.01,4.9-1.1901,7.4c-1.7899-20-4.97-40.33-14.34-58.34c-14.98-29.18-38.41-52.72-61.49-75.56
		c-9.8-9.6-17.96-20.68-27.26-30.73c-8.5-8.89-18.69-16.11-29.92-21.11c-15.59-7.35-31.61-13.74-47.56-20.23
		c-21.03-8.08-42.15-16.05-63.75-22.5c-17.49-4.86-34.97-10.26-53.06-12.4c-7.65-0.25-15.73-1.23-22.96,1.91
		c-9.66,3.99-18,10.41-26.37,16.53c-1.52,0.89-3.33,2.7-5.19,1.65c-1.22-2.19-0.49-4.77-0.71-7.14c-1.25-0.6-2.77-0.67-3.78-1.65
		c-0.12-3.61,0.9-7.14,0.8-10.75l-0.91-0.53c-4.01,1.11-7.41,5.15-11.87,3.85c-2.7-3.93,1.68-8.82-0.4901-12.82
		c-4.52-1.24-9.91-0.51-13.48,2.69c-3.63,3.1-6.78,6.74-10.51,9.73c-0.59-0.14-1.76-0.43-2.34-0.57
		c-5.76,3.95-10.74,9.41-17.65,11.4c-9.01,3.04-18.46,0.42-27.52-0.86c-11.48-1.6-22.17,3.74-32.59,7.68
		c-6.46,2.15-11.69,6.83-18.22,8.78c-3.36,1.01-6.54,2.52-9.31,4.68c-3.99,3.36-10.78,2.65-13.05,8.08c0.52,0.05,1.56,0.15,2.08,0.2
		c-16.53,9.21-32.92,19.03-47.01,31.77c-13.49,12.01-21.47,29.32-24.32,46.96c-1.92,10.47-1.43,21.15-2.38,31.71
		c-0.37,1.41-0.95,2.8-0.99,4.28c-0.28,9.49,0.28,19.02-0.73,28.48c-1.38,8.72,1.35,17.37,0.6,26.13c0.4-0.14,1.2-0.41,1.6-0.55
		c1.87,31.1,6.27,62,11.25,92.74c0.89,6.03,2.9,11.97,2.66,18.13c0,1.35-1.2,2.27-1.83,3.36c-1.49,1.97-3.04,4.12-3.25,6.66
		c1.25,2.8,2.77,5.53,3.01,8.66c0.72,6.27,3.34,12.61,1.89,18.95c-0.52,0.46-1.55,1.4-2.07,1.86c-3.11-5.81-5.55-12.02-9.32-17.43
		c-3.44-1.53-7.49-0.93-11.19-1.08c1.17-1.12,3.03-2.09,2.91-3.97c0.45-3.05-1.96-5.24-3.6801-7.3799c1.26-3.19-2.29-5.46-3.95-7.7
		c-8.13-8.03-14.7-17.39-21.66-26.39c-7.34-10.56-13.9-21.78-17.98-34.03c-2.85-8.89-6.03-17.73-7.93-26.89
		c-1.38-7.6-3.59-15.04-4.53-22.73c-2.67-15.42-5.03-30.92-5.7-46.57c0.42-13.06,3.17-25.94,7.44-38.27
		c8.83-29.54,13.5-60.32,24.87-89.1c4.02-11.91,10.18-22.95,16.13-33.98c10.13-17.55,21.63-34.26,33.3-50.8
		c7.64-10.35,15.52-20.52,22.6-31.26c4.35-8.29,9.59-16.2,16.21-22.86c5.71-5.11,12.12-9.44,18.77-13.26
		c33.04-17.8,67.46-34.53,104.68-41.34c15.64-3.52,31.48-6.12,47.31-8.68c10.57-2.36,21.4-3.14,32.0601-4.96
		c11.5099-2.29,23.24-3.25,34.83-5.05c3.67-0.74,7.41-1.15,11.16-1.09C826.42,34.07,829.66,32.39,832.86,30.93 M822.44,35.15
		c0.2,1.34,0.9,1.56,2.11,0.68C824.33,34.49,823.63,34.26,822.44,35.15z"/>
	<path fill="#3A1C11" stroke="#3A1C11" stroke-width="0.594" d="M846.04,480.85c24.86-2.96,49.94-4.13,74.96-3.1
		c19.42,1.26,38.01,7.76,55.59,15.78c7.53,3.58,15.35,6.66,22.44,11.1c2.03,4.36,7.92,4.81,9.95,9.16c-4.2,2.56-8.68,6.27-13.9,5.45
		c-3.99-1.8-8.2-2.93-12.46-3.86c-10.39-3.74-21.13-6.41-31.89-8.84c-10.12-1.58-20.38-3.61-30.64-2.58
		c-3.81-0.23-7.79-1.74-11.3701,0.3c-2.35,0.07-4.67-0.23-6.98-0.53c1.87-0.19,3.68-0.72,5.47-1.32
		c-10.43-0.53-20.95-2.05-31.36-0.38c-4.05,0.72-7.85-2.48-11.87-0.99c-3.86,1.13-7.88,1.19-11.85,1.31
		c1.02,0.4,2.02,0.86,3.01,1.38c-13.39,1.78-25.79,7.32-38.09,12.57c-1.95-0.82-5.11-1.59-4.76-4.33
		c0.32-6.99,1.22-14.14,4.13-20.57c1.35-3.23,4.32-5.49,7.63-6.44C831.19,482.74,838.67,481.92,846.04,480.85z"/>
	<path fill="#3D3732" stroke="#3D3732" stroke-width="0.594" d="M808.19,33.31c4.95-1.01,10.01-1.89,15.07-1.1
		c-0.12,0.34-0.37,1.02-0.49,1.36c-3.75-0.06-7.49,0.35-11.16,1.09c-11.59,1.8-23.32,2.76-34.83,5.05
		c-10.66,1.82-21.4901,2.6-32.0601,4.96c-15.83,2.56-31.67,5.16-47.31,8.68c-37.22,6.81-71.64,23.54-104.68,41.34
		c-6.65,3.82-13.06,8.15-18.77,13.26c-6.62,6.66-11.86,14.57-16.21,22.86c-7.08,10.74-14.96,20.91-22.6,31.26
		c-11.67,16.54-23.17,33.25-33.3,50.8c-5.95,11.03-12.11,22.07-16.13,33.98c-11.37,28.78-16.04,59.56-24.87,89.1
		c-4.27,12.33-7.02,25.21-7.44,38.27c0.67,15.65,3.03,31.15,5.7,46.57c0.94,7.69,3.15,15.13,4.53,22.73c1.9,9.16,5.08,18,7.93,26.89
		c4.08,12.25,10.64,23.47,17.98,34.03c6.96,9,13.53,18.36,21.66,26.39c1.66,2.24,5.21,4.51,3.95,7.7
		c-4.2-2.65-7.03-6.78-10.21-10.47c-6.35-7.11-11.08-15.49-17.47-22.56c-1.92-2.05-4.74-3.32-5.96-5.95
		c-2.68-6.07-4.54-12.53-7.95-18.26c-4.63-7.02-5.07-15.71-8.52-23.25c0.47-1.61,0.11-3.29-1.04-4.5l0.12-0.62
		c-0.24-0.53-0.71-1.6-0.95-2.14c-0.95-5.28-2.83-10.36-3.42-15.71c-0.19-1.38-0.35-2.77-0.63-4.13c-0.36-1.98-0.98-3.88-1.64-5.77
		c-0.95-2.55-0.72-5.5-2.49-7.72c-0.6-6.12-0.7-12.29-1.76-18.37c-0.92-15.25-2.63-30.74,0.05-45.91c1.14-1.14,1.34-2.82,0.72-4.27
		c-0.22-6.33,3.91-11.4,5.75-17.17c3.09-6.89,2.86-14.58,4.16-21.88c0.86-3.17,2.97-5.84,3.82-9.02c1.94-7.23,3.09-14.67,3.36-22.15
		c-0.05,1.08,1.64,3.05,2.22,1.2c-0.13-1.17-0.82-1.81-2.09-1.91l0.14-0.63c2.91-0.84,3.1-3.93,3.68-6.42
		c1.58-5.79,3.74-11.45,4.19-17.48c0.08-2.91,2.34-4.98,3.78-7.3c2.46-3.43,3.12-7.69,4.16-11.68c0.5-0.37,1.51-1.11,2.02-1.48
		c0.27-0.92-0.37-1.76-0.44-2.65c1.68-2.29,3.87-4.3,4.54-7.2c0.65-1.64,1.25-3.3,1.83-4.96c2.71-2.59,4.83-5.74,4.55-9.64
		c0.84-0.22,1.72-0.35,2.56-0.62c1.25-1.01,0.75-2.74,0.87-4.12c3-6.79,7.72-12.6,12.52-18.19c2.09-2.41,3.44-5.33,4.47-8.32
		c1.59-0.13,3.67-0.2,4.11-2.14c0.19-2.16-0.13-4.32-0.17-6.48c2.17-1.85,3.38-4.45,4.98-6.75c2.33-1.99,5.54-2.93,7.28-5.61
		c2.46-3.52,4.75-7.17,7.62-10.39c2.85-4.2,7.86-7.53,8.43-12.88c0.84-2.02,1.81-3.98,2.87-5.89c1.8701-0.37,3.05-1.88,3.26-3.73
		c2.04-3.55,3.42-7.58,6.47-10.46c2.84-2.64,3.13-7.37,6.87-9.09c4.32-2.33,8.9-4.23,12.84-7.21c2.29-1.73,4.79-3.16,7.3-4.54
		c3.35-1.54,6.48-3.48,9.3-5.86c5.27-4.16,12.54-4.55,17.5-9.24c2.85,0.16,6.3,0.16,7.91-2.67l-0.66-0.69
		c0.21-0.18,0.65-0.56,0.86-0.75c4.01,1.72,7.52-1.18,9.91-4.12c3.4399-0.79,7.18-0.67,10.28-2.69c0.49-0.26,1.47-0.78,1.96-1.04
		c3.17-1.61,7.63-0.91,9.33-4.69c1.1801-0.11,2.36-0.22,3.55-0.32c1.83,0.7,3.91,0.36,5.19-1.22c3.1-1.48,6.37-2.68,9.78-3.26
		c3.21,0.63,6.02-0.84,8.52-2.71c7.22-0.97,14.27-2.96,21.53-3.77c0.63-0.28,1.89-0.83,2.52-1.11c3.56-2.88,8.24-2.11,12.48-2.36
		c8.62-1.29,17.16-3.25,25.86-3.96c5.1299-0.5,10.06-2.12,15.16-2.85c3.14-0.35,5.69-2.44,8.7-3.24c3.73-0.61,7.5,0.14,11.26,0
		c3.39-0.05,6.64-1.21,10.03-1.32c3.66-0.12,7.33-0.08,10.99-0.35C805.34,34.56,807.01,34.43,808.19,33.31 M769.23,37.36
		c-1.24,1.55,1.57,2.84,2.51,1.47C772.95,37.27,770.15,36,769.23,37.36z"/>
	<path opacity="0.44" fill="#080808" stroke="#080808" stroke-width="0.594" enable-background="new    " d="M803.92,33.89
		c1.12-1.19,2.84-1.33,4.27-0.58C807.01,34.43,805.34,34.56,803.92,33.89z"/>
	<path fill="#FDFEFD" stroke="#FDFEFD" stroke-width="0.594" d="M822.44,35.15c1.19-0.89,1.89-0.66,2.11,0.68
		C823.34,36.71,822.64,36.49,822.44,35.15z"/>
	<path fill="#FDFEFD" stroke="#FDFEFD" stroke-width="0.594" d="M939.48,554.2c-0.47-3.26-2.32-6.09-3.05-9.28
		c8.66,3.41,17.6,6.77,24.81,12.84c1.16,1.06,2.51,2.27,2.56,3.99c-1.36,1.37-3.05,2.32-4.59,3.46c-2.62,1.69-4.37,4.53-7.38,5.63
		c-7.03,3.05-14.29,5.8199-21.85,7.2c1.98-2.02,4.16-3.87,5.92-6.1C939.68,566.92,940.45,560.26,939.48,554.2z"/>
	<path fill="#030203" stroke="#030203" stroke-width="0.594" d="M961.72,37.22c1.7-0.48,3.36-1.28,5.15-1.47
		c2.71,0.85,4.94,2.69,7.3,4.22c-2.25-0.28-4.74,0-6.56-1.58C965.93,37.02,963.73,37.2,961.72,37.22z"/>
	<path fill="#030203" stroke="#030203" stroke-width="0.594" d="M634.16,69.08c4.01-2.04,8.61-1.95,12.9-2.99
		c-3.1,2.02-6.84,1.9-10.28,2.69c-2.39,2.94-5.9,5.84-9.91,4.12C628.78,70.78,631.71,70.32,634.16,69.08z"/>
	<path fill="#030203" stroke="#030203" stroke-width="0.594" d="M454.38,420.99c0.19-1.19,0.41-2.36,0.62-3.54
		c1.77,2.22,1.54,5.17,2.49,7.72c0.66,1.89,1.28,3.79,1.64,5.77C457.25,427.78,455.25,424.61,454.38,420.99z"/>
	<path fill="#030203" stroke="#030203" stroke-width="0.594" d="M638.47,554.68c7.79-1.1,15.65,0.1,23.47-0.08
		c2.71,0.03,5.25,1.1,7.85,1.76c6.45,2.07,13.46,3.56,18.62,8.26c5.4901,4.9,10.6201,10.95,12.06,18.37c0.2,4.3-3.18,7.71-6.53,9.91
		c-13.16,8.39-28.28,14.19-43.94,15.17c-12.48,0.35-24.82-2.22-36.77-5.56c-7.64-2.03-14.3-6.53-20.62-11.11
		c-2.29-1.32-1.66-4.6-0.64-6.55c3.71-6.03,8.14-11.72,13.54-16.34C614.99,561.04,626.59,556.5,638.47,554.68 M648.48,559.63
		l-0.51,0.51c-4.6899-0.57-8.91,1.61-12.72,4.04c-4.68,2.58-7.33,7.73-8.45,12.78c-0.59,6.95,2.92,13.69,8,18.27
		c2.46,1.83,5.19,3.84,8.41,3.81c3.39,1.34,7.28,1.68,10.81,0.61c0.45,1.55,2.23,1.43,3.06,2.6c1.49,0.37,2.52-1,3.69-1.65
		c5.33-0.95,10.44-2.85,15.59-4.45c7.35-2.2,13.39-7.38,18.27-13.12c-1-3.11-2.95-6.1-5.43-8.26c-2.18-1.55-2.87-4.49-5.36-5.68
		c-3.92-2.09-7.56-4.97-11.98-5.92c-0.61-2.06-3.99-0.36-5.65-0.23c-2.5-1.11-4.9-2.44-7.42-3.49
		C655.38,559.06,651.86,559.04,648.48,559.63 M607.03,577.09c-3.39,2.7-7.04,5.59-8.4901,9.86c0.73,2.27,3.09,3.43,5.04,4.51
		c5.88,2.74,12.15,4.59,18.45,6.11c6.71,1.03,13.18,3.12,19.89,4.16c-3.13-2.13-7-3.14-9.58-6.06c-6.76-5.83-9.86-16.02-5.89-24.28
		c1.16-3.16,4.01-5.24,5.44-8.2C623.11,566.82,614.68,571.42,607.03,577.09z"/>
	<path fill="#060504" stroke="#060504" stroke-width="0.594" d="M769.23,37.36c0.92-1.36,3.72-0.09,2.51,1.47
		C770.8,40.2,767.99,38.91,769.23,37.36z"/>
	<path opacity="0.56" fill="#050504" stroke="#050504" stroke-width="0.594" enable-background="new    " d="M706.92,49.08
		c-0.34-1.54,1.64-2.54,2.52-1.11C708.81,48.25,707.55,48.8,706.92,49.08z"/>
	<path opacity="0.75" fill="#0D0A09" stroke="#0D0A09" stroke-width="0.594" enable-background="new    " d="M676.87,55.56
		c2.75-1.16,5.54-2.27,8.52-2.71C682.89,54.72,680.08,56.19,676.87,55.56z"/>
	<path opacity="0.69" fill="#0B0908" stroke="#0B0908" stroke-width="0.594" enable-background="new    " d="M661.9,60.04
		c1.03-2.11,3.31-1.98,5.19-1.22C665.81,60.4,663.73,60.74,661.9,60.04z"/>
	<path fill="#080401" stroke="#080401" stroke-width="0.594" d="M653.49,60.65c1.61-0.22,3.23-0.21,4.86-0.29
		c-1.7,3.78-6.16,3.08-9.33,4.69C650.5,63.59,651.68,61.75,653.49,60.65z"/>
	<path fill="#080401" stroke="#080401" stroke-width="0.594" d="M853.85,539.85c15.21-7.15,31.7-11.16,48.27-13.58
		c12.95-0.05,26.1-0.9,38.86,1.84c6.39,2.05,12.8,4.58,18.24,8.59c0.8101,0.78,2.8701,1.78,1.71,3.15
		c-2.55-0.09-4.13-2.44-6.31-3.44c-5.41-2.83-10.99-5.61-17.04-6.74c-5.52-0.55-11.01-1.45-16.57-1.31
		c-8.26,0.12-16.67-0.89-24.77,1.14c-13.14,2.4-26.25,5.5-38.41,11.18c-2.84,1.08-5.47,3-8.58,3.11
		C849.05,541.23,852.13,540.84,853.85,539.85z"/>
	<path fill="#1A090D" stroke="#1A090D" stroke-width="0.594" d="M618.76,77.01c1.04-3.12,4.66-2.64,7.25-3.36l0.66,0.69
		C625.06,77.17,621.61,77.17,618.76,77.01z"/>
	<path fill="#1A090D" stroke="#1A090D" stroke-width="0.594" d="M666.21,562.94c1.66-0.13,5.04-1.83,5.65,0.23
		c-0.4,0-1.21,0-1.61,0.01c4.36,3.71,6.98,9.18,7.6,14.84c0.51,6.07-3.0699,11.54-7.15,15.68c-2.79,2.99-6.65,4.55-9.93,6.9
		c-1.17,0.65-2.2,2.02-3.69,1.65c-0.83-1.17-2.61-1.05-3.06-2.6c4.3-1.19,8.85-2.34,12.29-5.36c4.05-3.5099,8.46-7.55,8.87-13.2599
		C676.61,573.7,671.36,567.42,666.21,562.94z"/>
	<path fill="#010101" stroke="#010101" stroke-width="0.594" d="M1084.76,83.11c2.59,0.67,4.1899,2.66,5.27,5
		C1087.96,86.79,1086.26,85.03,1084.76,83.11z"/>
	<path fill="#010101" stroke="#010101" stroke-width="0.594" d="M555.22,127.14c0.01-1.95,1.2401-3.57,3.26-3.73
		C558.27,125.26,557.09,126.77,555.22,127.14z"/>
	<path fill="#010101" stroke="#010101" stroke-width="0.594" d="M1251.16,363.2c-2.16-0.42-3.53-2.28-2.5601-4.39
		C1249.8101,360,1251.74,361.21,1251.16,363.2z"/>
	<path fill="#010101" stroke="#010101" stroke-width="0.594" d="M312.18,1533.83c0.6,0.0701,1.81,0.2201,2.42,0.3
		c0.32,7.27,0.07,14.58-0.7,21.8199c-0.56,7.3301-0.1,14.7001-0.39,22.05c-1.3,18.97-1.04,38.03-0.15,57.01
		c-0.49,7.38,1.45,14.6,1.34,21.97c1.53,21.7001,3.03,43.42,4.77,65.12c0.53,14.97,2.42,29.88,2.19,44.88
		c-0.11,8.7001,0.78,17.37,0.7,26.0801c0.58,14.3999-0.01,28.84,1.05,43.23c0.44,15.5699-0.09,31.1599,0.76,46.73
		c0.39,6.71-0.29,13.47,0.75,20.15c0.79,5.58,0.33,11.21,0.32,16.83h-3.99c-0.47-14.34-0.62-28.6801-0.63-43.01
		c0.08-7.6899-1.17-15.3099-0.91-22.99c-0.35-27.33-1.02-54.66-1.48-81.98c-0.99-9.98-0.06-20.04-1.34-29.99
		c-0.46-13.28-1.83-26.49-2.51-39.76c-1.28-11.39-1.25-22.9-2.89-34.24c-0.05-7.7001-1.37-15.3201-1.18-23.03
		c-1.5-13.28-0.89-26.66-1.08-40c0.35-14.67-0.47-29.38,1.01-44C310.86,1551.97,309.36,1542.54,312.18,1533.83z"/>
	<path fill="#010101" stroke="#010101" stroke-width="0.594" d="M1430.03,1675.99c0-1.46,0.72-2.1799,2.15-2.17
		c0.22,4.4501-1.55,8.67-2.42,12.9801c-9.29,39.35-18.28,78.7899-25.48,118.58c-6.62,34.3-11.75,68.89-14.52,103.72
		c-0.12,1.53-0.12,4.4501-2.49,3.66C1393.51,1832.62,1411.86,1754.1,1430.03,1675.99z"/>
	<path opacity="0.65" fill="#030001" stroke="#030001" stroke-width="0.594" enable-background="new    " d="M591.96,92.11
		c2.28-3.1,5.45-5.26,9.3-5.86C598.44,88.63,595.31,90.57,591.96,92.11z"/>
	<path opacity="0.65" fill="#030001" stroke="#030001" stroke-width="0.594" enable-background="new    " d="M1160.91,913.01
		c2.2899-0.04,4.64-0.49,6.9199,0.06c2.9501,1.06,5.4,3.12,7.9,4.97c1.54,1.98,3.11,3.94,4.65,5.93
		c-1.17,0.47-2.3199,0.95-3.46,1.44c-2.3301-2.49-4.5701-5.06-6.9801-7.44C1167.47,915.42,1163.75,914.97,1160.91,913.01z"/>
	<path opacity="0.76" fill="#0B090A" stroke="#0B090A" stroke-width="0.594" enable-background="new    " d="M545.02,137.07
		c1.75-2.27,4.87-2.8,7.33-4.04c-0.5699,5.35-5.58,8.68-8.43,12.88C544.33,142.98,544.06,139.9,545.02,137.07z"/>
	<path opacity="0.76" fill="#0B090A" stroke="#0B090A" stroke-width="0.594" enable-background="new    " d="M497.68,208.65
		c1.51-1.93,3.57-3.3,5.43-4.86c-0.12,1.38,0.38,3.11-0.87,4.12c-0.84,0.27-1.72,0.4-2.56,0.62c0.28,3.9-1.84,7.05-4.55,9.64
		C495.61,214.93,495.78,211.44,497.68,208.65z"/>
	<path opacity="0.95" fill="#363330" stroke="#363330" stroke-width="0.594" enable-background="new    " d="M520.1,177.28
		c-0.55-3.57,1.22-6.5,3.94-8.62c0.04,2.16,0.36,4.32,0.17,6.48C523.77,177.08,521.69,177.15,520.1,177.28z"/>
	<path fill="#FEF2DC" stroke="#FEF2DC" stroke-width="0.594" d="M727.12,200.13c3.57-3.2,8.96-3.93,13.48-2.69
		c2.17,4-2.21,8.89,0.4901,12.82c4.46,1.3,7.86-2.74,11.87-3.85l0.91,0.53c0.1,3.61-0.92,7.14-0.8,10.75
		c1.01,0.98,2.53,1.05,3.78,1.65c0.22,2.37-0.5099,4.95,0.71,7.14c1.86,1.05,3.67-0.76,5.19-1.65c8.37-6.12,16.71-12.54,26.37-16.53
		c7.23-3.14,15.31-2.16,22.96-1.91c18.09,2.14,35.57,7.54,53.06,12.4c21.6,6.45,42.72,14.42,63.75,22.5
		c15.95,6.49,31.97,12.88,47.56,20.23c11.23,5,21.42,12.22,29.92,21.11c9.3,10.05,17.46,21.13,27.26,30.73
		c23.08,22.84,46.51,46.38,61.49,75.56c9.37,18.01,12.55,38.34,14.34,58.34c0.36,15.84,0.24,31.7-0.3999,47.53
		c-1.2301,9.72-1.05,19.61,0.1399,29.33c0.25,9.28,0.03,18.58,0.16,27.87c0.12,9.29,0.4401,19.16,5.21,27.43
		c4.8201,8.43,10.8201,16.55,18.9801,22.03c2.6699,1.98,6.0499,2.02,9.23,1.72c1.83,17.59,2.4399,35.28,3.6699,52.92
		c0.2201,16.64,0.4501,33.28,0.24,49.91c-0.2799,8.42,0.2201,16.88-0.95,25.25c-0.87,23.99-3.7,47.89-8.0599,71.5
		c-4.03,20.97-9.6001,41.82-18.76,61.2c-8.42,17.57-20.5701,33.03-33.4701,47.52C1063.05,936.16,1037.77,958.09,1011.32,978.34
		c-32.97,24.99-67.87,47.57-104.86,66.18c-18.89,9.66-38.4901,18.01-58.77,24.3099c-18.6,5.63-38.19,9.92-57.68,7.17
		c-21.9-3.76-41.72-14.92-59.19-28.26c-1.69-1.36-3.43-2.66-5.09-4.02c-10.52-8.9199-20.67-18.28-30.09-28.36
		c-27.35-29.18-50.89-61.72-72.04-95.61c-0.0699-0.13-0.23-0.37-0.31-0.5c-0.4-0.64-1.2-1.91-1.6-2.55
		c-0.06-0.1-0.19-0.31-0.26-0.42c-0.94-1.55-1.86-3.09-2.79-4.6c-0.06-0.1-0.18-0.3-0.24-0.4c-7.04-11.89-14.2401-23.79-19.08-36.79
		c-6.53-16.78-9.2-34.7-11.4-52.47c-1.99-16.24-4.14-32.49-7.77-48.46c-8.86-42.97-16.92-86.11-24.61-129.3
		c-0.5099-3.08-1.44-6.15-1.16-9.29c8.41,9.57,17.79,19.16,30.13,23.4c12.68,4.27,26.25,4.4,39.49,4.29
		c11.42,0.04,22.79-1.28,34.09-2.81c12.47-1.15,24.85-5.37,34.96-12.83c7.95-6.33,13.42-15.2,17.58-24.35
		c3.01-6.67,4.03-13.98,5.09-21.15c1.3-1.31,2.89-2.3,4.09-3.71c1.75-2.45,2.3-5.54,3.96-8.04c3.31-2.18,7.12-3.58,10.95-4.57
		c-1.4399,19.45-4.08,38.8-6.52,58.15c-2.76,19.9301-7.27,39.59-13.07,58.85c-1.79,5.61-3.53,11.32-6.44,16.48
		c-3.82,6.66-11.32,10.17-14.98,16.94c-4.55,8.49-7.05,18.66-4.35,28.14c1.65,5.26,4.54,10.72,9.74,13.19
		c5.13,2.32,11.1801,0.01,16.23,2.71c6.71,3.35,12.4,8.36,18.92,12.05c5.29,2.92,10.63,6.38,16.83,6.8
		c9.72,0.49,19.67,0.31,29.05-2.54c3.69-1.14,7.33-3.03,9.69-6.16c3.46-4.73,4.3-10.74,7.35-15.68c4.73,0.16,9.34,1.91,14.02,2.74
		c7.39,1.32,14.08,6.16,21.83,5.27c4.02-0.41,8.31-0.95,11.55-3.59c4.43-3.19,5.78-8.81,7.37-13.71c2.93-10.8,5.79-22.53,1.95-33.48
		c-2.36-7-4.68-14.23-9.09-20.24c-0.43-0.01-1.31-0.02-1.75-0.02c0.74,3.17,2.78,5.79,4.07,8.7401c2.5,5.58,4.63,11.35,5.91,17.34
		c1.3799,6.99-0.1801,14.08-1.67,20.92c-1.16,4.72-2.39,9.47-4.39,13.92c-0.99,2.21-2.59,4.36-4.9399,5.22
		c-11.66-3.45-22.71-9.47-35.02-10.4c-3.54-0.2401-7.34,0.69-9.83,3.35c-4.92,5.45-5.16,13.52-9.9,19.07
		c-4.4301,4.67-11.21,5.59-17.25,6.49c-10.07,0.98-21.27,2.25-30.19-3.6c-8.82-4.14-15.9301-11.13-24.82-15.09
		c-5.5-2.63-12.55,0.66-17.36-3.74c-6.34-5.75-8.23-15.16-6.66-23.32c1.48-7.33,4.32-14.84,10.17-19.82
		c4.56-3.85,8.99-8.16,11.26-13.82c4.89-11.63,7.92-23.92,11-36.12c6.51-25.67,8.93-52.1,12.07-78.32
		c0.77-5.84,0.67-11.91,2.81-17.48c17.09-3.29,35.09-6.13,52.13-1.05c1.03,5.81,0.91,11.73,1.22,17.6
		c1.13,15.98,4.1,31.8,8.03,47.31c0.52,0.12,1.57,0.36,2.09,0.49C799.35,635.54,795.91,622.44,794.6,609
		c-0.6-8.32-1.45-16.64-1.2599-25c3.29,0.06,6.56,0.86,9.59,2.15c1.4,1.23,2.4,2.86,3.8,4.12c1.85,0.9,4.01,0.75,6,1.2
		c3.02,5.67,4.79,12.01,8.54,17.32c6.54,9.38,15.81,16.63,25.83,22.01c11.98,6.43,25.9301,6.45,39.13,7.73
		c13.28,0.5099,26.79,0.58,39.8-2.48c15.28-4.25,30.61-10.65,42.0099-22.01c9.46-9.12,14.56-22.06,15.44-35.04
		c0.47-12.97,0.05-26.03-2.39-38.79c-1.82-8.7-6.31-17.51-14.4-21.87c-10.88-5.79-22.89-8.93-34.74-12.07
		c21.08,0.07,40.81,8.42,60.85,13.88c5.45,1.7599,11.31-0.42,15.89-3.44c1.54-1.08,3.63-3.37,1.85-5.17
		c-3.29-3.09-7.52-4.93-11.5099-6.91c-7.09-4.44-14.91-7.52-22.44-11.1c-17.58-8.02-36.17-14.52-55.59-15.78
		c-25.02-1.03-50.1,0.14-74.96,3.1c-7.37,1.07-14.85,1.89-21.99,4.11c-3.31,0.95-6.28,3.21-7.63,6.44
		c-2.91,6.43-3.81,13.58-4.13,20.57c-0.35,2.74,2.81,3.51,4.76,4.33c12.3-5.25,24.7-10.79,38.09-12.57
		c3.64-0.23,7.3-0.38,10.95-0.21c-2.6801,1.41-5.67,2-8.51,2.99c-9.56,3.3-18.74,7.62-27.58,12.53
		c-9.15,5.1-17.69,12.46-21.44,22.52c-3.8,8.59-3.76,18.23-2.85,27.41c0.74,3.4-3.43,4.5-5.82,5.6c-2.93-0.33-5.8-1.09-8.57-2.02
		c-1.34-3.86-0.08-8.26-0.65-12.33c-0.54,0.03-1.62,0.08-2.15,0.1c-0.22,3.83,0.23,7.69-0.29,11.51
		c-12.07-0.35-24.14-0.39-36.21-0.18c-5.77,0.0699-11.39,1.46-17,2.58c-3.25-7.75-6.41-15.58-10.3-23.02
		c-0.43-0.11-1.3-0.34-1.73-0.45c1.81,8.52,7.23,15.81,9.55,24.2c-5.9,1.8-11.69,5.97-18.08,4.64c-2.04-7.59-4.12-15.58-9.56-21.53
		c-8.6801-9.64-19.32-17.7-31.36-22.62c-8.19-2.85-16.92-3.8-25.53-4.19c-9.62-1.19-19.34-0.89-29.01-0.97
		c-6.75,0.05-13.52-0.2599-20.24,0.4901c-5.05,0.46-9.97,1.7-14.9,2.79c0.62-0.55,1.28-1.07,1.97-1.53
		c10.61-5.54,22.63-7.3,34.41-8.4c7.2-0.44,14.44-0.46,21.64-0.01c16.48,1.01,32.07,6.86,48.31,9.29c3.73,0.69,7.47,1.69,11.3,1.46
		c-2.26-5.35-4.41-10.78-6.96-16.01c-1.9901-3.6-5.03-6.84-9.0601-8.05c-9.42-2.97-19.37-3.68-29.18-4.03
		c-4.82-0.61-9.67-0.77-14.48,0.02c-9.7,0.31-19.26,2.01-28.8,3.64c-11.37,2.16-22.73,4.6-33.69,8.34
		c-5.73,1.87-10.58,5.61-14.76,9.86c-3.1,2.71-5.83,5.81-8.28,9.11c-1.4,1.99-3.11,4.26-2.39,6.86c6.08,1.22,11.32-3.58,17.03-5.02
		c-10.99,8.94-22.49,18.89-26.98,32.82c-0.79-1.48-1.19-3.13-1.42-4.77c-1.52-9.66-3.49-19.25-5.14-28.89
		c-0.31-1.99-1.04-3.99-0.52-6c0.63-1.09,1.83-2.01,1.83-3.36c0.24-6.16-1.77-12.1-2.66-18.13c-4.98-30.74-9.38-61.64-11.25-92.74
		c-1.54-19.4,0.22-38.9-0.48-58.34c0.95-10.56,0.46-21.24,2.38-31.71c2.85-17.64,10.83-34.95,24.32-46.96
		c14.09-12.74,30.48-22.56,47.01-31.77c16.23-9.06,33.1-16.98,50.37-23.87c5.29-2.08,10.88-3.86,16.65-3.51
		c9.0099,0.26,17.83,3.77,26.9,2.22c9.67-1.48,17.69-7.77,24.68-14.23C720.34,206.87,723.49,203.23,727.12,200.13 M804.31,855.22
		c-12.8,0.59-25.13,6.47-38.06,4.08c-8.47-2.07-16.9,0.83-25.1,2.7c-13.7,3.2-27.21,7.47-41.21,9.21
		c-5.28,0.83-10.68,1.94-15.96,0.5c-2.25-0.57-2.33,2.45-1.39,3.7c8.68,15.66,21.5,28.39,34.15,40.85
		c6.97,6.36,13.25,13.74,21.69,18.26c8.04,4.37,16.49,7.97,25.08,11.15c7.51,2.86,15.65,1.62,23.49,1.71
		c12.17-0.09,25.1-0.3,36.06-6.3c15.41-8.27,29.51-18.82,42.46-30.55c7.46-6.2,14.2-13.25,19.82-21.16
		c5.92-8.41,12.31-16.5,17.81-25.19c1.2599-2.18,2.87-5.12,1.09-7.46c-2.61-1.61-5.24,0.8-7.61,1.75
		c-12.5,1.46-25.12,1.38-37.68,1.23c-14.37-1.01-28.6-3.58-42.98-4.46C812.1,854.61,808.17,854.53,804.31,855.22z"/>
	<path fill="#FEF2DC" stroke="#FEF2DC" stroke-width="0.594" d="M1216.79,505.77c4.6899-3.7,10.37-6.2,16.37-6.62
		c8.75-1.21,18.45,1.07,24.34,8.04c6.37,11.94,8.51,25.51,10.88,38.69c2.13,14.57,3.61,29.42,1.53,44.09
		c-1.3201,1.72-1.42,3.9-0.9401,5.96c-0.95,4.31-1.97,8.62-3.08,12.9c-1.13,3.05-2.0701,6.17-2.75,9.36
		c-0.51,1.53-0.99,3.08-1.4301,4.64c-1.2999,1.07-1.73,2.74-1.5,4.36c-3.37,10.63-5.4299,21.68-5.6499,32.85
		c-0.39,11.25-2.67,22.71-8.9601,32.2401c-0.0699,0.11-0.2,0.33-0.27,0.43c-0.4099,0.63-1.24,1.89-1.6499,2.5099
		c-0.0801,0.1201-0.2401,0.36-0.3201,0.48c-4.77,6.99-10.33,13.4-16.02,19.65c-9.7899,10.44-19.85,20.79-31.62,29.03
		c-0.1,0.07-0.2999,0.21-0.4,0.28c-1.83,1.3-3.6899,2.55-5.5599,3.75c-0.11,0.07-0.33,0.21-0.4401,0.28
		c-3.5099,2.29-7.2,4.35-11.1399,5.78c-3.28,0.85-7.02,0.28-9.1001-2.6c-5.49-6.67-10.11-14.02-14.6499-21.36
		c-1.88-3.91-4.29-7.97-3.89-12.46c0.22-11.35,0.25-22.7,0.23-34.05c-0.1901-12.67,0.1899-25.37-1.09-38
		c0.08-8.37-1.0801-16.67-1.3-25.02c-1.0601-6.92-0.7-13.99-2.45-20.8c21.9299-22.47,35.25-51.44,53.61-76.63
		C1204.26,516.71,1210.3199,510.93,1216.79,505.77 M1233.63,530.61c-4.9401,4.39-10.02,8.64-14.64,13.37
		c-14.95,14.12-24.64,32.54-34.92,50.08c-1.9299,3.04-2.1,6.92-1.2899,10.34c2.53,5.54,7.1,10.0099,8.83,15.96
		c2.35,7.77,4.77,16.58,1.04,24.32c-3.65,6.42-9.04,11.61-13.8,17.2c-3.5,4.04-8.0499,8.28-7.5599,14.14
		c0.26,8.31,1.0599,16.59,0.9199,24.92c0.4401,0.02,1.3201,0.05,1.75,0.06c0.5801-4.63,0.16-9.34,0.26-14
		c-0.09-5.58-2.38-11.81,0.89-16.91c6.02-8.54,14.46-15.26,19.5701-24.46c4.2-8.6,1.47-18.45-1.29-27.05
		c-1.84-5.77-6.5-10.04-8.67-15.63c-1.1799-5.07,2.25-9.38,4.6901-13.45c7.09-12.61,14.5299-25.13,23.85-36.24
		c6.8199-7.85,14.73-14.64,22.52-21.5c0.7899-0.66,1.14-1.52,1.03-2.58C1235.59,529.27,1234.48,529.77,1233.63,530.61
		 M1252.6801,542.92c1.5499,4.88,3.5199,9.65,4.72,14.65c2.25,7.86,1.3199,16.14,0.22,24.1c-1.91,11.74-3.39,23.56-5.89,35.19
		l-0.8099-0.01c-2.78-8.66-4.4-17.62-6.5-26.44c-0.3501-0.21-1.05-0.64-1.39-0.86l-0.65,0.72c0.79,7.08,2.78,14.07,4.52,21.01
		c1.02,3.16,1.5,6.64,3.53,9.37c0.5199-0.01,1.58-0.03,2.11-0.04c2.02-3.59,2.1799-7.85,3.11-11.79
		c1.8199-12.24,4.33-24.41,5.25-36.76c0.96-9.79-2.17-19.31-5.5701-28.34C1255.27,542.29,1252.5,540.31,1252.6801,542.92
		 M1223.11,625.23c-0.8199,2.03,1.21,3.9,1.9,5.74c5.4,9.2,6,20.47,3.75,30.7c-0.78,2.58-1.47,6.23-4.73,6.61
		c-7.73,0.45-13.61-5.2-20.47-7.67c-2.27-0.59-5.0701-0.73-6.79,1.13c-4.5,4.29-6.96,11.03-5.38,17.16c0.04,0.98,0.54,1.62,1.5,1.91
		c0.1899-0.26,0.5599-0.79,0.75-1.06c-0.28-3.98-0.76-8.18,1.3199-11.81c1.4401-2.57,3.55-6.27,7.0601-5.45
		c6.87,2.25,12.5699,7.74,20.09,8.06c3.3101,0.69,6.66-1.44,7.7001-4.61c2.49-7.01,2.96-14.67,2.0299-22.02
		c-0.75-6.68-3.96-12.74-7.26-18.47C1224.21,625.4,1223.48,625.29,1223.11,625.23z"/>
	<path fill="#FEF2DC" stroke="#FEF2DC" stroke-width="0.594" d="M882.28,507.11c13.62-1.8,27.34,0.85,40.53,4.16
		c14.33,3.95,28.64,8.74,41.43,16.48c5.69,3.36,8.83,9.82,9.4,16.26c0.79,9.08-0.53,18.17-0.38,27.27
		c-0.08,10.93-0.84,23.03-8.28,31.73c-7.02,7.79-16.55,12.72-25.91,17.13c-11.49,5.01-23.58,8.96-36.1,10.27
		c-16.23,0.97-32.52-1.5699-48.02-6.33c-5.44-1.66-10.51-4.46-14.67-8.33c-7.42-7.19-13.75-15.59-18.04-25.01
		c-0.02-3.27,1.58-6.45,0.79-9.73c-0.77-4.17-1.5-9.36-6.14-10.88c-1.67-7.47-1.79-15.71-0.25-23.36
		c1.37-6.97,7.68-11.14,12.79-15.36C845.07,519.81,862.93,510.41,882.28,507.11 M853.85,539.85c-1.72,0.9901-4.8,1.38-4.6,3.94
		c3.11-0.11,5.74-2.03,8.58-3.11c12.16-5.68,25.27-8.78,38.41-11.18c8.1-2.03,16.51-1.02,24.77-1.14
		c5.56-0.14,11.05,0.76,16.57,1.31c6.05,1.13,11.63,3.91,17.04,6.74c2.18,1,3.76,3.35,6.31,3.44c1.16-1.37-0.9-2.37-1.71-3.15
		c-5.4399-4.01-11.85-6.54-18.24-8.59c-12.76-2.74-25.91-1.89-38.86-1.84C885.55,528.69,869.06,532.7,853.85,539.85 M865.28,550.27
		c-7.73,6.32-13.6201,14.54-19.17,22.75c-1.07,1.24-1,2.92-0.76,4.45c20,3.57,40.29,5.8701,60.61,6.4301
		c11.19,0.48,22.17-2.27,32.9-5.1c9.11-2.67,18.47-5.26,26.54-10.43c2.64-1.88,6-4.54,5.3-8.2c-1.06-3.25-4.24-5.12-6.85-7.04
		c-10.14-5.99-21.25-10.11-32.43-13.73c-9.53-2.84-19.34-5.82-29.41-4.92C888.51,535.86,876.03,542.24,865.28,550.27z"/>
	<path fill="#FEF2DC" stroke="#FEF2DC" stroke-width="0.594" d="M585.82,542.61c13.21-4.57,27.34-5.01,41.18-4.86
		c13.49,0.96,27.26,1.52,40.16,5.99c4.01,1.77,8.4301,3.06,11.76,6.03c-11.83-2.33-23.86-4.64-35.99-3.67
		c-13.37,1.03-26.68,3.53-39.45,7.62c-5.66,2.54-11.75,4.03-17.41,6.45c0.01,0.43,0.04,1.27,0.06,1.69
		c7.48-1.3,14.32-4.85,21.53-7.1c15.4301-4.11,31.39-7.36,47.44-6.39c8,0.48,15.83,2.28,23.7,3.63c0.58-0.3,1.74-0.9,2.32-1.21
		c6.24,3.53,11.96,8,17.1,12.9901c4.35,4.11,5.6801,10.31,6.5,16c-5.65,6.11-5.66,18.3799,2.52,22.28
		c-0.31,7.44-2.42,15.14-7.03,21.17c-7.46,10.18-16.79,19.49-28.52,24.56c-10.88,3.39-22.35,4.1-33.65,4.79
		c-7.64,0.99-15.37,0.77-23.05,0.68c-10.64-1.14-21.56-1.68-31.66-5.56c-8.39-3.2-15.3-9.19-21.62-15.4
		c-5.28-5.12-8.34-11.91-11.37-18.48c-2.28-5.33-4.47-10.94-4.21-16.83c0.2-8.38,3.73-16.18,7.22-23.65
		c3.22-7,8.6801-12.57,13.79-18.2C572.27,549.57,578.63,545.08,585.82,542.61 M638.47,554.68c-11.8799,1.82-23.48,6.36-32.96,13.83
		c-5.4,4.62-9.83,10.31-13.54,16.34c-1.02,1.95-1.65,5.23,0.64,6.55c6.32,4.58,12.98,9.08,20.62,11.11
		c11.95,3.34,24.29,5.91,36.77,5.56c15.66-0.98,30.78-6.78,43.94-15.17c3.35-2.2,6.73-5.61,6.53-9.91
		c-1.4399-7.42-6.5699-13.47-12.06-18.37c-5.16-4.7-12.17-6.19-18.62-8.26c-2.6-0.66-5.14-1.73-7.85-1.76
		C654.12,554.78,646.26,553.58,638.47,554.68z"/>
	<path fill="#FEF2DC" stroke="#FEF2DC" stroke-width="0.594" d="M506.79,559.61c0.95-4.68,4.64-8.35,9.14-9.73
		c3.7,0.15,7.75-0.45,11.19,1.08c3.77,5.41,6.21,11.62,9.32,17.43c1.44,3.6,3.36,7.03,4.53,10.74c-0.49,4.33-2.4,8.39-2.54,12.78
		c-0.25,4.51-0.33,9.15,0.93,13.55c1.85,6.67,4.01,13.39,7.97,19.15c1.79,2.53,1.64,5.74,2.25,8.66
		c7.97,45,16.07,89.98,25.38,134.73c0.21,1.68,0.98,3.52,0.12,5.15c-0.79,0.09-2.36,0.25-3.14,0.34
		c-5.04-3.56-8.02-9.05-11.09-14.23c-0.0099-1.48-0.72-2.83-1.98-3.58l-0.36-0.74c-0.06-0.12-0.18-0.37-0.24-0.49
		c-0.97-1.9-1.95-3.76-3-5.6c-0.94-2.05-1.93-4.06-2.99-6.04c-0.4301-0.93-0.86-1.84-1.29-2.75c-0.81-2.12-1.74-4.19-2.76-6.22
		c-7.92-18.52-11.94-38.7-11.41-58.84c-0.38-18.73-2.69-37.35-4.87-55.93c0.55-1.77,0.4-3.71-0.83-5.15c-1.09-4.38-2.38-8.7-4-12.9
		c-0.05-1.63-0.74-3.17-2.13-4.04c-0.19-0.3-0.56-0.9-0.74-1.2c-0.29-2.01-1.37-3.71-3.07-4.78c-1.81-2.14-3.65-4.26-5.57-6.3
		c-0.08-0.08-0.23-0.24-0.31-0.33C508.45,578.33,504.78,568.6,506.79,559.61z"/>
	<path fill="#FEF2DC" stroke="#FEF2DC" stroke-width="0.594" d="M1149.37,741c0.48-4.59-0.3-9.31,0.75-13.82
		c4.51,8.94,10.45,17.05,16.2,25.23c-0.38,0.66-1.13,1.97-1.5099,2.63c-1.5601,2-1.0901,4.6-0.6901,6.92
		c-0.3,6.65-0.01,13.32-0.5699,19.96c-0.9,9.31-0.2001,18.7-1.4,27.99c-0.47,21.71-3.72,43.21-5.3,64.84
		c-1.08,10.44-0.34,20.98-0.48,31.46c0.76,9.87,1.37,19.8,0.78,29.7c-13.1801,17.95-29.36,33.47-45.72,48.51
		c-26.51,24.1-53.6901,47.77-84.02,66.9901c-31.66,20.5499-63.84,40.27-96.0001,60.01c-36.43,22.2999-72.99,44.39-109.62,66.36
		c-4.27,2.45-8.3,5.35-12.84,7.2999c-11.57-16.98-24.36-33.1499-35.86-50.2c-8.9-12.63-15.72-26.52-22.72-40.24
		c-5.1-10.76-9.78-21.75-16.23-31.79c-1.62-3.58-5.14-6.88-4.5-11.0599c17.96,13.5699,38.42,24.87,60.92,28.37
		c20.45,2.46,40.96-1.9501,60.36-8.16c19.97-6.34,39.22-14.75,57.91-24.15c35.21-17.88,68.61-39.2,100.25-62.79
		c29.97-22.62,58.6199-47.26,83.41-75.54c13.4401-15.52,25.71-32.41,33.46-51.54C1141.0699,820.87,1146.35,780.68,1149.37,741z"/>
	<path fill="#27160A" stroke="#27160A" stroke-width="0.594" d="M696.62,220.69c6.91-1.99,11.89-7.45,17.65-11.4
		c0.58,0.14,1.75,0.43,2.34,0.57c-6.99,6.46-15.01,12.75-24.68,14.23c-9.07,1.55-17.89-1.96-26.9-2.22
		c-5.77-0.35-11.36,1.43-16.65,3.51c-17.27,6.89-34.14,14.81-50.37,23.87c-0.52-0.05-1.56-0.15-2.08-0.2
		c2.27-5.43,9.06-4.72,13.05-8.08c2.77-2.16,5.95-3.67,9.31-4.68c6.53-1.95,11.76-6.63,18.22-8.78c10.42-3.94,21.11-9.28,32.59-7.68
		C678.16,221.11,687.61,223.73,696.62,220.69z"/>
	<path opacity="0.8" fill="#121213" stroke="#121213" stroke-width="0.594" enable-background="new    " d="M487.68,226.66
		c1.66-1.49,3.71-2.42,5.62-3.53c-0.67,2.9-2.86,4.91-4.54,7.2c0.07,0.89,0.71,1.73,0.44,2.65c-0.51,0.37-1.52,1.11-2.02,1.48
		C487.22,231.87,486.87,229.17,487.68,226.66z"/>
	<path opacity="0.5" fill="#030201" stroke="#030201" stroke-width="0.594" enable-background="new    " d="M1212.13,256.89
		c1.02,1.01,1.17,2.14,0.4399,3.38C1211.5601,259.25,1211.41,258.12,1212.13,256.89z"/>
	<path opacity="0.79" fill="#0E0E0E" stroke="#0E0E0E" stroke-width="0.594" enable-background="new    " d="M471.37,277.34
		c0.21-2.61,2.15-4.48,3.68-6.42C474.47,273.41,474.28,276.5,471.37,277.34z"/>
	<path opacity="0.95" fill="#070503" stroke="#070503" stroke-width="0.594" enable-background="new    " d="M471.23,277.97
		c1.27,0.1,1.96,0.74,2.09,1.91c-0.58,1.85-2.27-0.12-2.22-1.2L471.23,277.97z"/>
	<path opacity="0.47" fill="#050302" stroke="#050302" stroke-width="0.594" enable-background="new    " d="M1228.91,301.02
		c-1.6801-0.91-2.3301-2.94-0.99-4.45C1228.87,297.85,1229.23,299.44,1228.91,301.02z"/>
	<path opacity="0.67" fill="#100F0E" stroke="#100F0E" stroke-width="0.594" enable-background="new    " d="M1235.02,313.93
		c1.2999,0.5,2.25,1.71,2.1,3.17C1235.45,316.99,1234.64,315.43,1235.02,313.93z"/>
	<path opacity="0.36" fill="#030302" stroke="#030302" stroke-width="0.594" enable-background="new    " d="M453.29,353.17
		c-0.71-1.46-0.5-3.17,0.72-4.27C454.63,350.35,454.43,352.03,453.29,353.17z"/>
	<path fill="#0B0300" stroke="#0B0300" stroke-width="0.594" d="M523.31,363.97c0.04-1.48,0.62-2.87,0.99-4.28
		c0.7,19.44-1.06,38.94,0.48,58.34c-0.4,0.14-1.2,0.41-1.6,0.55c0.75-8.76-1.98-17.41-0.6-26.13
		C523.59,382.99,523.03,373.46,523.31,363.97z"/>
	<path fill="#0B0300" stroke="#0B0300" stroke-width="0.594" d="M1109.46,447.26c0.1801-2.5,0.2101-5.06,1.1901-7.4
		c0.3099,4.98-0.17,9.99,0.5399,14.96c1.7401,14.36-1.1399,28.7-0.46,43.08c-0.59-1.03-1.15-2.07-1.6699-3.11
		C1109.7,478.96,1109.8199,463.1,1109.46,447.26z"/>
	<path fill="#0B0300" stroke="#0B0300" stroke-width="0.594" d="M863.98,501.04c4.02-1.49,7.82,1.71,11.87,0.99
		c10.41-1.67,20.9301-0.15,31.36,0.38c-1.79,0.6-3.6,1.13-5.47,1.32c-5.58-0.2-11.16-0.14-16.73-0.35
		c-10.13-0.55-19.89,2.87-29.28,6.21c-9.28,3.2-18.11,7.59-26.58,12.51c-7.88,4.56-14.91,11.16-18.36,19.73
		c-4.0099,8.67-3.67,18.51-2.82,27.8c2.05,0.03,4.1-0.2,6.14-0.53c-0.72-8.31-1.62-16.91,1.03-24.99c1.34-4.47,4.94-7.66,8.3-10.66
		c10.79-9.25,23.29-16.2,36.14-22.14c9.15-3.4,18.56-6.82,28.46-6.77c14.87-0.95,29.44,2.99,43.65,6.85
		c11.71,4.07,23.64,8.07,34.13,14.83c5.51,3.47,8.9,9.6,9.76,15.96c1.47,9.57-0.4,19.2-0.22,28.81c0.08,11.37-0.82,23.9-8.36,33.06
		c-6.87,7.86-16.25,12.96-25.55,17.41c-14.23,6.54-29.64,11.46-45.46,11.16c-15.06,0.27-30.1-2.53-44.34-7.37
		C841.64,622,834.72,613.54,828.4,605.6c-3.77-4.65-5.9301-10.33-9.33-15.2c-0.86,0.08-2.58,0.24-3.45,0.3199
		c4.19,18.08,18.89,31.89,35.3,39.44c6.56,3.14,13.85,4.14,21,5.01c17.7,1.56,35.78,2.63,53.29-1.11
		c15.2-4.29,30.56-10.55,41.79-22.05c7.96-7.99,12.75-18.81,14.04-29.97c1.17-12.93,0.35-26.0099-1.5099-38.84
		c-1.5601-9.14-5.78-18.88-14.47-23.26c-9.08-4.62-18.87-7.74-28.72-10.22c-9.09-2.35-18.2401-4.73-27.6201-5.46
		c3.58-2.04,7.5601-0.53,11.3701-0.3c10.2599-1.03,20.52,1,30.64,2.58c10.76,2.43,21.5,5.1,31.89,8.84
		c4.26,0.93,8.47,2.06,12.46,3.86c5.22,0.82,9.7-2.89,13.9-5.45c-2.03-4.35-7.92-4.8-9.95-9.16c3.99,1.98,8.22,3.82,11.5099,6.91
		c1.78,1.8-0.31,4.09-1.85,5.17c-4.58,3.02-10.44,5.2-15.89,3.44c-20.04-5.46-39.77-13.81-60.85-13.88
		c11.85,3.14,23.86,6.28,34.74,12.07c8.09,4.36,12.58,13.17,14.4,21.87c2.44,12.7599,2.86,25.82,2.39,38.79
		c-0.88,12.98-5.98,25.92-15.44,35.04c-11.4,11.36-26.73,17.76-42.0099,22.01c-13.01,3.06-26.52,2.99-39.8,2.48
		c-13.2-1.28-27.15-1.3-39.13-7.73c-10.02-5.38-19.29-12.63-25.83-22.01c-3.75-5.31-5.52-11.65-8.54-17.32
		c-1.99-0.45-4.15-0.3-6-1.2c-1.4-1.26-2.4-2.89-3.8-4.12c-3.03-1.29-6.3-2.09-9.59-2.15c-0.19,8.36,0.66,16.68,1.2599,25
		c1.31,13.44,4.75,26.54,7.1801,39.79c-0.52-0.13-1.57-0.37-2.09-0.49c-3.93-15.51-6.9-31.33-8.03-47.31
		c-0.31-5.87-0.19-11.79-1.22-17.6c-17.04-5.08-35.04-2.24-52.13,1.05c-2.14,5.57-2.04,11.64-2.81,17.48
		c-3.14,26.22-5.56,52.65-12.07,78.32c-3.08,12.2-6.11,24.49-11,36.12c-2.27,5.66-6.7,9.97-11.26,13.82
		c-5.85,4.98-8.69,12.49-10.17,19.82c-1.57,8.16,0.32,17.57,6.66,23.32c4.81,4.4,11.86,1.11,17.36,3.74
		c8.89,3.96,16,10.95,24.82,15.09c8.92,5.85,20.12,4.58,30.19,3.6c6.04-0.9,12.8199-1.82,17.25-6.49c4.74-5.55,4.98-13.62,9.9-19.07
		c2.49-2.66,6.29-3.59,9.83-3.35c12.31,0.93,23.36,6.95,35.02,10.4c2.35-0.86,3.95-3.01,4.9399-5.22c2-4.45,3.23-9.2,4.39-13.92
		c1.49-6.84,3.05-13.93,1.67-20.92c-1.28-5.99-3.41-11.76-5.91-17.34c-1.29-2.95-3.33-5.57-4.07-8.7401c0.44,0,1.32,0.01,1.75,0.02
		c4.41,6.01,6.73,13.24,9.09,20.24c3.84,10.95,0.98,22.68-1.95,33.48c-1.59,4.9-2.94,10.52-7.37,13.71
		c-3.24,2.64-7.53,3.18-11.55,3.59c-7.75,0.89-14.44-3.95-21.83-5.27c-4.68-0.83-9.29-2.58-14.02-2.74
		c-3.05,4.94-3.89,10.95-7.35,15.68c-2.36,3.13-6,5.02-9.69,6.16c-9.38,2.85-19.33,3.03-29.05,2.54c-6.2-0.42-11.54-3.88-16.83-6.8
		c-6.52-3.69-12.21-8.7-18.92-12.05c-5.05-2.7-11.1-0.39-16.23-2.71c-5.2-2.47-8.09-7.93-9.74-13.19c-2.7-9.48-0.2-19.65,4.35-28.14
		c3.66-6.77,11.16-10.28,14.98-16.94c2.91-5.16,4.65-10.87,6.44-16.48c5.8-19.26,10.31-38.92,13.07-58.85
		c2.44-19.35,5.08-38.7,6.52-58.15c-3.83,0.99-7.64,2.39-10.95,4.57c-1.66,2.5-2.21,5.59-3.96,8.04c-1.2,1.41-2.79,2.4-4.09,3.71
		c-1.06,7.17-2.08,14.48-5.09,21.15c-4.16,9.15-9.63,18.02-17.58,24.35c-10.11,7.46-22.49,11.68-34.96,12.83
		c-11.3,1.53-22.67,2.85-34.09,2.81c-13.24,0.11-26.81-0.02-39.49-4.29c-12.34-4.24-21.72-13.83-30.13-23.4
		c0.18-0.6,0.54-1.8,0.72-2.4c6.92,7.57,13.89,15.46,23,20.46c9.96,5.75,21.7,6.62,32.91,7.39c14.93,0.51,29.89-0.23,44.65-2.56
		c14.88-1.36,30.55-5.94,41.03-17.18c9.46-10.78,15.84-24.58,16.61-39c-0.82,0.05-2.46,0.15-3.27,0.2
		c-1.57,6.77-2.19,14.02-6.21,19.94c-7.78,11.64-18.09,22.05-30.97,27.89c-12.5099,4.16-25.84,4.21-38.83,5.5
		c-16.08,0.7-32.46,0.18-48.03-4.2401c-7.85-2.2-14.59-7.0099-20.66-12.29c-5.12-4.59-10.36-9.49-13.13-15.92
		c-3.59-7.55-7.77-15.2-8.3-23.71c-0.34-9.45,3.55-18.32,7.49-26.69c3.82-8.02,10.14-14.42,16.23-20.75
		c6.26-6.43,14.44-10.8,23.16-12.81c17.74-4.04,36.16-3.8,54.15-1.84c9.62,1.18,19.38,2.75,28.24,6.9
		c8.51,3.99,16.37,9.31,23.49,15.46c2.83,2.49,5.64,5.22,7.23,8.71c1.72,3.66,1.98,7.78,3.45,11.52c1.47,0.12,2.96,0.12,4.46,0.07
		c-1.14-9.89-6.34-19.08-13.86-25.55c-7.28-6.76-15.5-12.75-24.83-16.34c-11.91-4.17-24.67-4.28-37.12-5.17
		c-11.59,0.02-23.22-0.59-34.79,0.3c-0.83-0.69-1.64-1.39-2.44-2.08c6.72-0.75,13.49-0.44,20.24-0.4901
		c9.67,0.08,19.39-0.22,29.01,0.97c8.61,0.39,17.34,1.34,25.53,4.19c12.04,4.92,22.68,12.98,31.36,22.62
		c5.44,5.95,7.52,13.94,9.56,21.53c6.39,1.33,12.18-2.84,18.08-4.64c-2.32-8.39-7.74-15.68-9.55-24.2c0.43,0.11,1.3,0.34,1.73,0.45
		c3.89,7.44,7.05,15.27,10.3,23.02c5.61-1.12,11.23-2.51,17-2.58c12.07-0.21,24.14-0.17,36.21,0.18c0.52-3.82,0.07-7.68,0.29-11.51
		c0.53-0.02,1.61-0.07,2.15-0.1c0.57,4.07-0.69,8.47,0.65,12.33c2.77,0.93,5.64,1.69,8.57,2.02c2.39-1.1,6.56-2.2,5.82-5.6
		c-0.91-9.18-0.95-18.8199,2.85-27.41c3.75-10.06,12.29-17.42,21.44-22.52c8.84-4.91,18.02-9.23,27.58-12.53
		c2.84-0.99,5.83-1.58,8.51-2.99c-3.65-0.17-7.31-0.02-10.95,0.21c-0.99-0.52-1.99-0.98-3.01-1.38
		C856.1,502.23,860.12,502.17,863.98,501.04 M882.28,507.11c-19.35,3.3-37.21,12.7-52.85,24.3c-5.11,4.22-11.42,8.39-12.79,15.36
		c-1.54,7.65-1.42,15.89,0.25,23.36c4.64,1.52,5.37,6.71,6.14,10.88c0.79,3.28-0.8101,6.46-0.79,9.73
		c4.29,9.42,10.62,17.82,18.04,25.01c4.16,3.87,9.23,6.67,14.67,8.33c15.5,4.76,31.79,7.3,48.02,6.33
		c12.52-1.31,24.61-5.2599,36.1-10.27c9.36-4.41,18.89-9.34,25.91-17.13c7.44-8.7,8.2-20.8,8.28-31.73
		c-0.15-9.1,1.17-18.19,0.38-27.27c-0.57-6.44-3.71-12.9-9.4-16.26c-12.79-7.74-27.1-12.53-41.43-16.48
		C909.62,507.96,895.9,505.31,882.28,507.11 M585.82,542.61c-7.19,2.47-13.55,6.96-18.68,12.53c-5.11,5.63-10.57,11.2-13.79,18.2
		c-3.49,7.47-7.02,15.27-7.22,23.65c-0.26,5.89,1.93,11.5,4.21,16.83c3.03,6.57,6.09,13.36,11.37,18.48
		c6.32,6.21,13.23,12.2,21.62,15.4c10.1,3.88,21.02,4.42,31.66,5.56c7.68,0.09,15.41,0.31,23.05-0.68
		c11.3-0.69,22.77-1.4,33.65-4.79c11.73-5.07,21.06-14.38,28.52-24.56c4.61-6.03,6.72-13.73,7.03-21.17
		c-8.18-3.9-8.17-16.17-2.52-22.28c-0.8199-5.69-2.15-11.89-6.5-16c-5.14-4.9901-10.86-9.46-17.1-12.9901
		c-0.58,0.31-1.74,0.91-2.32,1.21c-7.87-1.35-15.7-3.15-23.7-3.63c-16.05-0.97-32.0099,2.28-47.44,6.39
		c-7.21,2.25-14.05,5.8-21.53,7.1c-0.02-0.42-0.05-1.26-0.06-1.69c5.66-2.42,11.75-3.91,17.41-6.45
		c12.77-4.09,26.08-6.59,39.45-7.62c12.13-0.97,24.16,1.34,35.99,3.67c-3.33-2.97-7.75-4.26-11.76-6.03
		c-12.9-4.47-26.67-5.03-40.16-5.99C613.16,537.6,599.03,538.04,585.82,542.61 M811.31,571.4c-3.05,1-5.73,2.8199-8.54,4.34
		c-2.91,2.01-6.44,0.17-9.55-0.27c-9.87-2.6299-20.14-1.62-30.22-1.83c-10.77-0.25-21.73,0.61-31.91,4.39
		c-5.08,1.15-9.6801,4.81-15.08,3.98c-3.44-0.11-7.22-1.18-10.4,0.58c-2.74,1.86-2.11,5.53-2.2,8.39
		c-0.0099,3.03,0.31,7.05,3.65,8.27c3.26,0.39,7.09,0.81,9.85-1.38c2.96-2.55,3.02-6.82,4.91-9.99c4.66-2.11,9.4-4.2,14.35-5.54
		c7.96-1.01,15.83-2.66,23.82-3.48c14.38-1.98,28.69,1.57,42.67,4.56c2.9,0.34,3.38,3.94,5.69,5.18
		c3.92,0.35,7.9301,0.19,11.79-0.63c0.82-4.78,0.84-10.12-1.73-14.4C816.19,572.49,813.81,571.39,811.31,571.4 M800,771.67
		c7.75,1.09,15.54,2.18,23.1,4.29c4.92,1.23,9.81,3,14.95,2.94c-1.76-1.51-4.12-1.92-6.2-2.77c-8.65-3.17-17.46-7.04-26.83-6.94
		C803.27,769.53,800.08,769.25,800,771.67z"/>
	<path fill="#0B0300" stroke="#0B0300" stroke-width="0.594" d="M613.01,509.95c9.54-1.63,19.1-3.33,28.8-3.64
		c1.53,0.2,2.89,1.03,4.41,1.32c-20.58,0.74-41.0099,4.57-60.68,10.61c-5.28,1.17-10.2599,3.5-14.67,6.6
		c-2.02,1.28-3.57,4.05-6.31,3.31c4.18-4.25,9.03-7.9901,14.76-9.86C590.28,514.55,601.64,512.11,613.01,509.95z"/>
	<path opacity="0.75" fill="#0A0807" stroke="#0A0807" stroke-width="0.594" enable-background="new    " d="M1251.12,369.58
		c-0.99-1.92-1.11-4.03,0.03-5.91C1251.36,365.63,1251.34,367.61,1251.12,369.58z"/>
	<path fill="#4F4F4F" stroke="#4F4F4F" stroke-width="0.594" d="M446.23,374.24C446.82,374.82,446.82,374.82,446.23,374.24z"/>
	<path opacity="0.55" fill="#020100" stroke="#020100" stroke-width="0.594" enable-background="new    " d="M1258.9,399.93
		c1.1699,0.75,1.52,1.8,1.0699,3.14C1258.73,402.32,1258.38,401.27,1258.9,399.93z"/>
	<path opacity="0.11" fill="#020202" stroke="#020202" stroke-width="0.594" enable-background="new    " d="M454.38,420.99
		c0.87,3.62,2.87,6.79,4.75,9.95c0.28,1.36,0.44,2.75,0.63,4.13c-0.99-1.59-2.28-2.97-3.77-4.09c-0.34,1-0.84,3.73-2.31,2.46
		C452.62,429.33,453.78,425.07,454.38,420.99z"/>
	<path opacity="0.51" fill="#020202" stroke="#020202" stroke-width="0.594" enable-background="new    " d="M463.18,450.78
		c0.24,0.54,0.71,1.61,0.95,2.14C463.89,452.39,463.42,451.32,463.18,450.78z"/>
	<path opacity="0.54" fill="#060404" stroke="#060404" stroke-width="0.594" enable-background="new    " d="M465.05,458.04
		c-1.54-1.02-2.15-2.94-1.04-4.5C465.16,454.75,465.52,456.43,465.05,458.04z"/>
	<path fill="#FBE875" stroke="#FBE875" stroke-width="0.594" d="M855.73,509.59c9.39-3.34,19.15-6.76,29.28-6.21
		c5.57,0.21,11.15,0.15,16.73,0.35c2.31,0.3,4.63,0.6,6.98,0.53c9.38,0.73,18.53,3.11,27.6201,5.46c-1.57,0.54-3.11,1.12-4.65,1.67
		c-14.21-3.86-28.78-7.8-43.65-6.85c-9.9-0.05-19.31,3.37-28.46,6.77C858.29,510.73,857,510.15,855.73,509.59z"/>
	<path fill="#391D11" stroke="#391D11" stroke-width="0.594" d="M641.81,506.31c4.81-0.79,9.66-0.63,14.48-0.02
		c9.81,0.35,19.76,1.06,29.18,4.03c4.03,1.21,7.07,4.45,9.0601,8.05c2.55,5.23,4.7,10.66,6.96,16.01c-3.83,0.23-7.57-0.77-11.3-1.46
		c-16.24-2.43-31.83-8.28-48.31-9.29c1.05-0.6,2.16-1,3.34-1.2c-9.04-1-18.18-0.65-27.24-0.16c0.57,0.34,1.69,1.03,2.26,1.37
		c-11.78,1.1-23.8,2.86-34.41,8.4c-0.69,0.46-1.35,0.98-1.97,1.53c4.93-1.09,9.85-2.33,14.9-2.79c0.8,0.6899,1.61,1.39,2.44,2.08
		c-8.53,1.36-17.41,2.18-25.22,6.12c-7,4.05-12.97,9.66-18.53,15.47c-5.48,5.62-9.37,12.52-12.27,19.77
		c-0.31-0.58-0.93-1.73-1.24-2.3c4.49-13.93,15.99-23.88,26.98-32.82c-5.71,1.44-10.95,6.2401-17.03,5.02
		c-0.72-2.6,0.99-4.87,2.39-6.86c2.45-3.3,5.18-6.4,8.28-9.11c2.74,0.74,4.29-2.03,6.31-3.31c4.41-3.1,9.39-5.4301,14.67-6.6
		c19.67-6.04,40.1-9.87,60.68-10.61C644.7,507.34,643.34,506.51,641.81,506.31z"/>
	<path fill="#F8DA3F" stroke="#F8DA3F" stroke-width="0.594" d="M829.15,522.1c8.47-4.92,17.3-9.31,26.58-12.51
		c1.27,0.56,2.56,1.14,3.85,1.72c-12.85,5.94-25.35,12.89-36.14,22.14c-3.36,3-6.96,6.19-8.3,10.66
		c-2.65,8.08-1.75,16.68-1.03,24.99c-2.04,0.33-4.09,0.56-6.14,0.53c-0.85-9.29-1.1899-19.13,2.82-27.8
		C814.24,533.26,821.27,526.66,829.15,522.1z"/>
	<path fill="#F8DA3E" stroke="#F8DA3E" stroke-width="0.594" d="M931.69,511.39c1.54-0.55,3.08-1.13,4.65-1.67
		c9.85,2.48,19.64,5.6,28.72,10.22c8.69,4.38,12.91,14.12,14.47,23.26c1.86,12.83,2.68,25.91,1.5099,38.84
		c-1.29,11.16-6.08,21.98-14.04,29.97c-11.23,11.5-26.59,17.76-41.79,22.05c-17.51,3.74-35.59,2.67-53.29,1.11
		c-7.15-0.87-14.44-1.87-21-5.01c-16.41-7.55-31.11-21.36-35.3-39.44c0.87-0.08,2.59-0.24,3.45-0.3199
		c3.4,4.87,5.56,10.55,9.33,15.2c6.3199,7.94,13.24,16.4,23.25,19.65c14.24,4.84,29.28,7.64,44.34,7.37
		c15.82,0.3,31.23-4.62,45.46-11.16c9.3-4.45,18.68-9.55,25.55-17.41c7.54-9.16,8.44-21.69,8.36-33.06
		c-0.18-9.61,1.69-19.24,0.22-28.81c-0.86-6.36-4.25-12.49-9.76-15.96C955.33,519.46,943.4,515.46,931.69,511.39 M884.09,633.34
		l0.35,0.66c7.07,0.68,14.24,0.3,21.33,0l0.08-0.75C898.6,632.95,891.33,632.9,884.09,633.34z"/>
	<path fill="#110400" stroke="#110400" stroke-width="0.594" d="M617.98,522.27c9.06-0.49,18.2-0.84,27.24,0.16
		c-1.18,0.2-2.29,0.6-3.34,1.2c-7.2-0.45-14.44-0.43-21.64,0.01C619.67,523.3,618.55,522.61,617.98,522.27z"/>
	<path fill="#060100" stroke="#060100" stroke-width="0.594" d="M1233.63,530.61c0.85-0.84,1.96-1.34,3.1801-1.43
		c0.11,1.06-0.2401,1.92-1.03,2.58c-7.79,6.86-15.7001,13.65-22.52,21.5c-9.3201,11.11-16.76,23.63-23.85,36.24
		c-2.4401,4.07-5.87,8.38-4.6901,13.45c2.17,5.59,6.8301,9.86,8.67,15.63c2.76,8.6,5.49,18.45,1.29,27.05
		c-5.1101,9.2-13.55,15.92-19.5701,24.46c-3.27,5.1-0.98,11.33-0.89,16.91c-0.1,4.66,0.3201,9.37-0.26,14
		c-0.4299-0.01-1.3099-0.04-1.75-0.06c0.14-8.33-0.6599-16.61-0.9199-24.92c-0.49-5.86,4.0599-10.1,7.5599-14.14
		c4.76-5.59,10.15-10.78,13.8-17.2c3.73-7.74,1.3099-16.55-1.04-24.32c-1.73-5.95-6.2999-10.42-8.83-15.96
		c-0.8101-3.42-0.64-7.3,1.2899-10.34c10.28-17.54,19.9701-35.96,34.92-50.08C1223.61,539.25,1228.6899,535,1233.63,530.61z"/>
	<path fill="#040201" stroke="#040201" stroke-width="0.594" d="M533.61,538.92c0.21-2.54,1.76-4.69,3.25-6.66
		c-0.52,2.01,0.21,4.01,0.52,6c1.65,9.64,3.62,19.23,5.14,28.89c0.23,1.64,0.63,3.29,1.42,4.77c0.31,0.57,0.93,1.72,1.24,2.3
		c-2.31,7.0601-4.9,14.25-4.86,21.77c-0.18,6.66,2.19,13.02,4.46,19.17c2.34,6.41,6.91,11.58,10.3199,17.41
		c-0.18,0.6-0.54,1.8-0.72,2.4c-0.28,3.14,0.65,6.21,1.16,9.29c7.69,43.19,15.75,86.33,24.61,129.3c-0.7-0.4-1.42-0.73-2.15-1.01
		c-2,0.5-3.96,1.45-6.06,0.94c0.78-0.09,2.35-0.25,3.14-0.34c0.86-1.63,0.09-3.47-0.12-5.15c-9.31-44.75-17.41-89.73-25.38-134.73
		c-0.61-2.92-0.46-6.13-2.25-8.66c-3.96-5.76-6.12-12.48-7.97-19.15c-1.26-4.4-1.18-9.04-0.93-13.55c0.14-4.39,2.05-8.45,2.54-12.78
		c-1.17-3.71-3.09-7.14-4.53-10.74c0.52-0.46,1.55-1.4,2.07-1.86c1.45-6.34-1.17-12.6801-1.89-18.95
		C536.38,544.45,534.86,541.72,533.61,538.92z"/>
	<path fill="#F8DB42" stroke="#F8DB42" stroke-width="0.594" d="M575.98,538.98c7.81-3.94,16.69-4.76,25.22-6.12
		c11.57-0.89,23.2-0.28,34.79-0.3c12.45,0.89,25.21,1,37.12,5.17c9.33,3.59,17.55,9.58,24.83,16.34
		c7.52,6.47,12.72,15.66,13.86,25.55c-1.5,0.05-2.99,0.05-4.46-0.07c-1.47-3.74-1.73-7.86-3.45-11.52
		c-1.59-3.4901-4.4-6.22-7.23-8.71c-7.12-6.15-14.98-11.47-23.49-15.46c-8.86-4.15-18.62-5.72-28.24-6.9
		c-17.99-1.96-36.41-2.2-54.15,1.84c-8.72,2.01-16.9,6.38-23.16,12.81c-6.09,6.33-12.41,12.73-16.23,20.75
		c-3.94,8.37-7.83,17.24-7.49,26.69c0.53,8.51,4.71,16.16,8.3,23.71c2.77,6.43,8.01,11.33,13.13,15.92
		c6.07,5.28,12.81,10.09,20.66,12.29c15.57,4.42,31.95,4.94,48.03,4.2401c12.99-1.29,26.32-1.34,38.83-5.5
		c12.88-5.84,23.19-16.25,30.97-27.89c4.02-5.92,4.64-13.17,6.21-19.94c0.81-0.05,2.45-0.15,3.27-0.2
		c-0.77,14.42-7.15,28.22-16.61,39c-10.48,11.24-26.15,15.82-41.03,17.18c-14.7599,2.33-29.72,3.07-44.65,2.56
		c-11.21-0.77-22.95-1.64-32.91-7.39c-9.11-5-16.08-12.89-23-20.46c-3.41-5.83-7.98-11-10.3199-17.41
		c-2.27-6.15-4.64-12.5099-4.46-19.17c-0.04-7.52,2.55-14.71,4.86-21.77c2.9-7.25,6.79-14.15,12.27-19.77
		C563.01,548.64,568.98,543.03,575.98,538.98z"/>
	<path fill="#030202" stroke="#030202" stroke-width="0.594" d="M865.28,550.27c10.75-8.03,23.23-14.41,36.73-15.79
		c10.07-0.9,19.88,2.08,29.41,4.92c11.18,3.62,22.29,7.74,32.43,13.73c2.61,1.92,5.79,3.79,6.85,7.04c0.7,3.66-2.66,6.32-5.3,8.2
		c-8.07,5.17-17.4301,7.76-26.54,10.43c-10.73,2.83-21.71,5.58-32.9,5.1c-20.32-0.56-40.61-2.86-60.61-6.4301
		c-0.24-1.53-0.31-3.21,0.76-4.45C851.66,564.81,857.55,556.59,865.28,550.27 M902.16,540.08c-4.09,1.71-7.95,4.56-9.3199,8.97
		c-1.1801,3.95-3.26,8.37-1.44,12.44c2.17,5.41,4.29,11.28,9.18,14.88c6.76,5.72,17.14,7.01,24.56,1.75
		c1.25,0.32,2.52,0.67,3.83,0.81c0.25-0.22,0.76-0.67,1.01-0.89c7.56-1.38,14.82-4.15,21.85-7.2c3.01-1.1,4.76-3.94,7.38-5.63
		c1.54-1.14,3.23-2.09,4.59-3.46c-0.05-1.72-1.4-2.93-2.56-3.99c-7.21-6.07-16.15-9.43-24.81-12.84l-0.2-0.63
		c-1.27-0.54-2.69-0.42-4.01-0.5099c-5.03-2.92-10.97-3.32-16.5-4.6801C911.27,537.99,906.21,537.51,902.16,540.08 M855.41,572.09
		c1.3,2.49,5.19,1.0099,7.56,1.74c13.1201,3.95,26.72,6.52,40.42,7.14c-2.09-2.1-4.93-3.24-7.05-5.31
		c-3.88-3.25-6.26-7.86-7.61-12.66c-0.72-6.9,1.44-13.59,4.09-19.85C878.46,549.99,866.52,560.9,855.41,572.09z"/>
	<path fill="#7B3E48" stroke="#7B3E48" stroke-width="0.594" d="M902.16,540.08c4.05-2.57,9.11-2.09,13.56-0.98
		c5.53,1.36,11.47,1.76,16.5,4.6801c5.21,6.18,6.29,15.0099,4.13,22.64c-1.89,5.29-6.58,8.88-11.21,11.7
		c-7.42,5.26-17.8,3.97-24.56-1.75c-4.89-3.6-7.01-9.47-9.18-14.88c-1.82-4.07,0.2599-8.49,1.44-12.44
		C894.21,544.64,898.07,541.79,902.16,540.08 M908.34,541.38c-2.67,0.48-5.14,2.13-6.26,4.66c-2.39,4.98-6.67,9.09-7.54,14.75
		c1,2.68,2.25,5.35,4.04,7.62c2.18,2.16,4.76,3.89,6.77,6.2401c2.97,3.74,8.3,3.61,12.63,3.31c4.27-0.2,6.25-4.43,8.7-7.28
		c3.3-4.69,6.62-10.4,4.95-16.35c-2.93-4.95-7.39-8.76-12.3-11.65C916.32,539.96,911.98,540.92,908.34,541.38z"/>
	<path fill="#864A53" stroke="#864A53" stroke-width="0.594" d="M908.34,541.38c3.64-0.46,7.98-1.42,10.99,1.3
		c4.91,2.89,9.37,6.7,12.3,11.65c1.67,5.95-1.65,11.66-4.95,16.35c-2.45,2.85-4.43,7.08-8.7,7.28c-4.33,0.3-9.66,0.43-12.63-3.31
		c-2.0099-2.35-4.59-4.08-6.77-6.2401c-1.79-2.27-3.04-4.94-4.04-7.62c0.87-5.66,5.15-9.77,7.54-14.75
		C903.2,543.51,905.67,541.86,908.34,541.38 M912.26,550.3c-4.21,1.33-7.76,6.12-6.33,10.62c2,3.93,6.14,7.19,10.76,6.64
		c3.88-0.36,8.62-3.09,8.32-7.54C925.65,553.57,918.29,548.1,912.26,550.3z"/>
	<path fill="#090200" stroke="#090200" stroke-width="0.594" d="M1252.6801,542.92c-0.1801-2.61,2.59-0.63,2.6499,0.8
		c3.4,9.03,6.53,18.55,5.5701,28.34c-0.92,12.35-3.4301,24.52-5.25,36.76c-0.9301,3.94-1.09,8.2-3.11,11.79
		c-0.53,0.01-1.5901,0.03-2.11,0.04c-2.03-2.73-2.51-6.21-3.53-9.37c-1.74-6.94-3.73-13.9301-4.52-21.01l0.65-0.72
		c0.34,0.22,1.0399,0.65,1.39,0.86c2.1,8.82,3.72,17.78,6.5,26.44l0.8099,0.01c2.5-11.63,3.98-23.45,5.89-35.19
		c1.1-7.96,2.03-16.24-0.22-24.1C1256.2,552.57,1254.23,547.8,1252.6801,542.92z"/>
	<path fill="#FEFEFE" stroke="#FEFEFE" stroke-width="0.594" d="M855.41,572.09c11.11-11.19,23.05-22.1,37.41-28.94
		c-2.65,6.2599-4.81,12.95-4.09,19.85c1.35,4.8,3.73,9.41,7.61,12.66c2.12,2.07,4.96,3.21,7.05,5.31
		c-13.7-0.62-27.3-3.1899-40.42-7.14C860.6,573.1,856.71,574.58,855.41,572.09z"/>
	<path fill="#FEFEFE" stroke="#FEFEFE" stroke-width="0.594" d="M607.03,577.09c7.65-5.67,16.08-10.27,24.86-13.9
		c-1.43,2.96-4.28,5.04-5.44,8.2c-3.97,8.26-0.87,18.45,5.89,24.28c2.58,2.92,6.45,3.93,9.58,6.06c-6.71-1.04-13.18-3.13-19.89-4.16
		c-6.3-1.52-12.57-3.37-18.45-6.11c-1.95-1.08-4.31-2.2401-5.04-4.51C599.99,582.68,603.64,579.79,607.03,577.09z"/>
	<path fill="#240E0F" stroke="#240E0F" stroke-width="0.594" d="M932.22,543.78c1.32,0.09,2.7401-0.03,4.01,0.5099l0.2,0.63
		c0.73,3.19,2.58,6.02,3.05,9.28c0.97,6.06,0.2,12.72-3.58,17.74c-1.76,2.23-3.94,4.08-5.92,6.1c-0.25,0.22-0.76,0.67-1.01,0.89
		c-1.31-0.14-2.58-0.49-3.83-0.81c4.63-2.82,9.32-6.41,11.21-11.7C938.51,558.79,937.43,549.96,932.22,543.78z"/>
	<path fill="#240E0F" stroke="#240E0F" stroke-width="0.594" d="M649.39,568.46c3.98-0.2401,8.67,0.54,10.88,4.28
		c3.48,4.71,0.79,11.95-4.64,13.76c-4.3,1.85-10.14,0.58-12.24-3.87C641.46,577.43,643.18,569.66,649.39,568.46 M649.31,570.27
		c-4.73,0.86-5.12,6.85-4.48,10.67c2.26,8.63,18.01,2.73,14.64-5.4C658.13,571.26,653.37,569.76,649.31,570.27z"/>
	<path fill="#341C1F" stroke="#341C1F" stroke-width="0.594" d="M912.26,550.3c6.03-2.2,13.39,3.27,12.75,9.72
		c0.3,4.45-4.44,7.18-8.32,7.54c-4.62,0.55-8.76-2.71-10.76-6.64C904.5,556.42,908.05,551.63,912.26,550.3 M912.32,552.36
		c-2.15,1.52-4.54,3.7-4.34,6.6c0.57,6.74,11.8,8.49,14.5,2.42C924.61,555.59,917.75,550.04,912.32,552.36z"/>
	<path fill="#4A3539" stroke="#4A3539" stroke-width="0.594" d="M912.32,552.36c5.43-2.32,12.29,3.23,10.16,9.02
		c-2.7,6.07-13.93,4.32-14.5-2.42C907.78,556.06,910.17,553.88,912.32,552.36z"/>
	<path fill="#854952" stroke="#854952" stroke-width="0.594" d="M648.48,559.63c3.38-0.59,6.9-0.57,10.31-0.18
		c2.52,1.05,4.92,2.38,7.42,3.49c5.15,4.48,10.4,10.76,8.97,18.09c-0.41,5.71-4.82,9.75-8.87,13.2599
		c-3.44,3.02-7.99,4.17-12.29,5.36c-3.53,1.0699-7.42,0.73-10.81-0.61c-2.52-2.89-5.51-5.41-7.54-8.69
		c-3.03-5.8199-4.43-13.09-1.49-19.22c2.87-5.61,10.47-5.69,13.79-10.99L648.48,559.63 M649.39,568.46c-6.21,1.2-7.93,8.97-6,14.17
		c2.1,4.45,7.94,5.72,12.24,3.87c5.43-1.81,8.12-9.05,4.64-13.76C658.06,569,653.37,568.22,649.39,568.46z"/>
	<path fill="#7A3B45" stroke="#7A3B45" stroke-width="0.594" d="M635.25,564.18c3.81-2.43,8.03-4.61,12.72-4.04
		c-3.3199,5.3-10.92,5.38-13.79,10.99c-2.94,6.13-1.54,13.4,1.49,19.22c2.03,3.28,5.02,5.8,7.54,8.69
		c-3.22,0.03-5.95-1.98-8.41-3.81c-5.08-4.58-8.59-11.32-8-18.27C627.92,571.91,630.57,566.76,635.25,564.18z"/>
	<path fill="#FDFDFD" stroke="#FDFDFD" stroke-width="0.594" d="M670.25,563.18c0.4-0.01,1.21-0.01,1.61-0.01
		c4.42,0.95,8.06,3.83,11.98,5.92c2.49,1.19,3.18,4.1299,5.36,5.68c2.48,2.16,4.43,5.15,5.43,8.26
		c-4.88,5.74-10.92,10.92-18.27,13.12c-5.15,1.6-10.26,3.5-15.59,4.45c3.28-2.35,7.14-3.91,9.93-6.9c4.08-4.14,7.66-9.61,7.15-15.68
		C677.23,572.36,674.61,566.89,670.25,563.18z"/>
	<path fill="#3D2C2E" stroke="#3D2C2E" stroke-width="0.594" d="M649.31,570.27c4.06-0.51,8.82,0.99,10.16,5.27
		c3.3701,8.13-12.3799,14.03-14.64,5.4C644.19,577.12,644.58,571.13,649.31,570.27z"/>
	<path fill="#BAA534" stroke="#BAA534" stroke-width="0.594" d="M811.31,571.4c2.5-0.01,4.88,1.09,7.1,2.17
		c2.57,4.28,2.55,9.62,1.73,14.4c-3.86,0.82-7.87,0.98-11.79,0.63c-2.31-1.24-2.79-4.84-5.69-5.18
		c-13.98-2.99-28.29-6.54-42.67-4.56c-7.99,0.82-15.86,2.47-23.82,3.48c-4.95,1.34-9.69,3.43-14.35,5.54
		c-1.89,3.17-1.95,7.44-4.91,9.99c-2.7599,2.19-6.59,1.77-9.85,1.38c-3.34-1.22-3.66-5.24-3.65-8.27c0.09-2.86-0.54-6.53,2.2-8.39
		c3.18-1.76,6.96-0.69,10.4-0.58c5.4,0.83,10-2.83,15.08-3.98c10.18-3.78,21.14-4.64,31.91-4.39c10.08,0.21,20.35-0.8,30.22,1.83
		c3.11,0.44,6.64,2.28,9.55,0.27C805.58,574.22,808.26,572.4,811.31,571.4z"/>
	<path opacity="0.78" fill="#88847A" stroke="#88847A" stroke-width="0.594" enable-background="new    " d="M515.3,584.37
		c0.08,0.09,0.23,0.25,0.31,0.33C515.53,584.62,515.38,584.46,515.3,584.37z"/>
	<path opacity="0.66" fill="#534F49" stroke="#534F49" stroke-width="0.594" enable-background="new    " d="M1268.97,595.93
		c-0.48-2.06-0.38-4.24,0.9401-5.96C1270.6,592.01,1270.48,594.27,1268.97,595.93z"/>
	<path opacity="0.54" fill="#2F2D29" stroke="#2F2D29" stroke-width="0.594" enable-background="new    " d="M521.18,591
		c1.7,1.07,2.78,2.77,3.07,4.78C521.83,595.43,520.88,593.22,521.18,591z"/>
	<path opacity="0.64" fill="#48443D" stroke="#48443D" stroke-width="0.594" enable-background="new    " d="M524.99,596.98
		c1.39,0.87,2.08,2.41,2.13,4.04C525.21,600.64,524.4,598.72,524.99,596.98z"/>
	<path fill="#040200" stroke="#040200" stroke-width="0.594" d="M1140.34,601.3c1.86-0.38,3.7201-0.75,5.5901-1.12
		c1.75,6.81,1.3899,13.88,2.45,20.8c0.22,8.35,1.38,16.65,1.3,25.02c1.2799,12.63,0.8999,25.33,1.09,38
		c0.02,11.35-0.01,22.7-0.23,34.05c-0.4,4.49,2.01,8.55,3.89,12.46c4.5399,7.34,9.1599,14.69,14.6499,21.36
		c2.0801,2.88,5.8201,3.45,9.1001,2.6c-4.1001,1.27-8.13-0.53-11.8601-2.06c-5.75-8.18-11.6899-16.29-16.2-25.23
		c-1.05,4.51-0.27,9.23-0.75,13.82c-3.02,39.68-8.3,79.87-23.42,116.98c-7.75,19.13-20.0199,36.02-33.46,51.54
		c-24.79,28.28-53.4399,52.92-83.41,75.54c-31.64,23.59-65.04,44.91-100.25,62.79c-18.69,9.4-37.94,17.8101-57.91,24.15
		c-19.4,6.21-39.91,10.62-60.36,8.16c-22.5-3.5-42.96-14.8-60.92-28.37c0.31-1.38,0.75-2.7201,1.18-4.05
		c17.47,13.34,37.29,24.5,59.19,28.26c19.49,2.75,39.08-1.54,57.68-7.17c20.28-6.2999,39.88-14.6499,58.77-24.3099
		c36.99-18.61,71.89-41.19,104.86-66.18c26.45-20.25,51.73-42.1801,74.1299-66.8701c12.9-14.49,25.05-29.95,33.4701-47.52
		c9.1599-19.38,14.73-40.23,18.76-61.2c4.36-23.61,7.1899-47.51,8.0599-71.5c1.17-8.37,0.67-16.83,0.95-25.25
		c0.2101-16.63-0.0199-33.27-0.24-49.91c-1.23-17.64-1.84-35.33-3.6699-52.92C1141.99,602.49,1141.1801,601.87,1140.34,601.3z"/>
	<path opacity="0.52" fill="#32302B" stroke="#32302B" stroke-width="0.594" enable-background="new    " d="M1263.14,618.19
		c0.6799-3.19,1.62-6.31,2.75-9.36C1265.72,612.14,1265.21,615.49,1263.14,618.19z"/>
	<path opacity="0.75" fill="#6A6463" stroke="#6A6463" stroke-width="0.594" enable-background="new    " d="M531.12,613.92
		c1.23,1.44,1.38,3.38,0.83,5.15C530.56,617.69,530.45,615.66,531.12,613.92z"/>
	<path opacity="0.58" fill="#46443C" stroke="#46443C" stroke-width="0.594" enable-background="new    " d="M1260.21,627.19
		c-0.23-1.62,0.2001-3.29,1.5-4.36C1262.54,624.48,1261.96,626.45,1260.21,627.19z"/>
	<path fill="#050200" stroke="#050200" stroke-width="0.594" d="M1223.11,625.23c0.37,0.06,1.1,0.17,1.47,0.22
		c3.3,5.73,6.51,11.79,7.26,18.47c0.9301,7.35,0.4601,15.01-2.0299,22.02c-1.04,3.17-4.39,5.3-7.7001,4.61
		c-7.52-0.32-13.22-5.81-20.09-8.06c-3.51-0.82-5.62,2.88-7.0601,5.45c-2.08,3.63-1.6,7.83-1.3199,11.81
		c-0.1901,0.27-0.5601,0.8-0.75,1.06c-0.96-0.29-1.46-0.93-1.5-1.91c-1.58-6.13,0.88-12.87,5.38-17.16
		c1.72-1.86,4.52-1.72,6.79-1.13c6.86,2.47,12.74,8.12,20.47,7.67c3.26-0.38,3.95-4.03,4.73-6.61c2.25-10.23,1.65-21.5-3.75-30.7
		C1224.3199,629.13,1222.29,627.26,1223.11,625.23z"/>
	<path fill="#EBD979" stroke="#EBD979" stroke-width="0.594" d="M884.09,633.34c7.24-0.44,14.5099-0.39,21.7599-0.09l-0.08,0.75
		c-7.09,0.3-14.26,0.68-21.33,0L884.09,633.34z"/>
	<path opacity="0.64" fill="#625F58" stroke="#625F58" stroke-width="0.594" enable-background="new    " d="M1245.33,692.71
		c0.0701-0.1,0.2001-0.32,0.27-0.43C1245.53,692.39,1245.4,692.61,1245.33,692.71z"/>
	<path opacity="0.72" fill="#6F6B61" stroke="#6F6B61" stroke-width="0.594" enable-background="new    " d="M1243.36,695.7
		c0.08-0.12,0.24-0.36,0.3201-0.48C1243.6,695.34,1243.4399,695.58,1243.36,695.7z"/>
	<path opacity="0.47" fill="#393531" stroke="#393531" stroke-width="0.594" enable-background="new    " d="M548.23,733.84
		c1.02,2.03,1.95,4.1,2.76,6.22C549.32,738.36,548.41,736.21,548.23,733.84z"/>
	<path opacity="0.37" fill="#1D1C18" stroke="#1D1C18" stroke-width="0.594" enable-background="new    " d="M552.28,742.81
		c1.06,1.98,2.05,3.99,2.99,6.04C553.08,747.54,552.48,745.19,552.28,742.81z"/>
	<path opacity="0.71" fill="#77756E" stroke="#77756E" stroke-width="0.594" enable-background="new    " d="M1195.3199,744.66
		c0.1001-0.0699,0.3-0.21,0.4-0.28C1195.62,744.45,1195.42,744.59,1195.3199,744.66z"/>
	<path opacity="0.73" fill="#86817A" stroke="#86817A" stroke-width="0.594" enable-background="new    " d="M1189.3199,748.69
		c0.1101-0.07,0.3301-0.21,0.4401-0.28C1189.65,748.48,1189.4301,748.62,1189.3199,748.69z"/>
	<path opacity="0.84" fill="#85837C" stroke="#85837C" stroke-width="0.594" enable-background="new    " d="M558.27,754.45
		c0.06,0.12,0.18,0.37,0.24,0.49C558.45,754.82,558.33,754.57,558.27,754.45z"/>
	<path opacity="0.62" fill="#4D4941" stroke="#4D4941" stroke-width="0.594" enable-background="new    " d="M1164.12,761.96
		c-0.4-2.32-0.87-4.92,0.6901-6.92C1165.47,757.36,1165.5601,759.89,1164.12,761.96z"/>
	<path opacity="0.55" fill="#403D38" stroke="#403D38" stroke-width="0.594" enable-background="new    " d="M558.87,755.68
		c1.26,0.75,1.97,2.1,1.98,3.58C559.19,758.89,558.36,757.25,558.87,755.68z"/>
	<path fill="#505151" stroke="#505151" stroke-width="0.594" d="M800,771.67c0.08-2.42,3.27-2.14,5.02-2.48
		c9.37-0.1,18.18,3.77,26.83,6.94c2.08,0.85,4.44,1.26,6.2,2.77c-5.14,0.06-10.03-1.71-14.95-2.94
		C815.54,773.85,807.75,772.76,800,771.67z"/>
	<path fill="#050202" stroke="#050202" stroke-width="0.594" d="M804.31,855.22c3.86-0.6899,7.79-0.61,11.66,0.02
		c14.38,0.88,28.61,3.45,42.98,4.46c12.56,0.15,25.18,0.23,37.68-1.23c2.37-0.95,5-3.36,7.61-1.75c1.78,2.34,0.17,5.28-1.09,7.46
		c-5.5,8.69-11.89,16.78-17.81,25.19c-5.6201,7.91-12.36,14.96-19.82,21.16c-12.95,11.73-27.05,22.28-42.46,30.55
		c-10.96,6-23.89,6.21-36.06,6.3c-7.84-0.09-15.98,1.15-23.49-1.71c-8.59-3.18-17.04-6.78-25.08-11.15
		c-8.44-4.52-14.72-11.9-21.69-18.26c-12.65-12.46-25.47-25.19-34.15-40.85c-0.94-1.25-0.86-4.27,1.39-3.7
		c5.28,1.44,10.68,0.33,15.96-0.5c14-1.7401,27.51-6.01,41.21-9.21c8.2-1.87,16.63-4.77,25.1-2.7
		C779.18,861.69,791.51,855.81,804.31,855.22 M778.94,863.43c-8.03,1.35-15.97-1.86-23.99-0.57c-21.66,4.29-42.7,11.7-64.82,13.57
		c-0.22,2.09,2.1,3.04,3.77,3.5c15.95,3.35,31.97,6.46,48.15,8.47c11.3,0.96,22.57,2.64,33.95,2.3199
		c13.23,0.41,26.32-1.9399,39.2-4.73c21.6-4.75,42.85-10.98,63.83-17.95c3.75-1.33,7.72-2.34,10.98-4.72
		c-12.15-0.19-24.35,1.28-36.47-0.17c-12.12-1.08-24.11-3.27-36.27-3.92C804.31,857.13,791.61,861.44,778.94,863.43 M879.17,873.23
		c-26.12,9.29-52.78,17.54-80.21,21.92c-27.4,4.45-55.18-0.03-82.15-5.15c-7.62-1.21-14.98-3.85-22.64-4.7
		c0.7,1.68,1.94,3.03,3.09,4.44c9.99,11.93,20.83,23.22,32.83,33.16c9.61,7.58,20.44,13.61,31.79,18.17
		c8.85,3.89,18.82,2.76,28.1,1.45c5.86-0.3,11.75,0.38,17.6-0.22c7.23-1.31,14.08-4.36,20.05-8.63
		c9.98-6.93,18.64-15.62,29.03-21.98c10.1-6.04,17.13-15.7,24.22-24.82c5-6.91,10.59-13.44,15.06-20.69
		C889.91,867.38,884.99,871.43,879.17,873.23z"/>
	<path fill="#FEE0E0" stroke="#FEE0E0" stroke-width="0.594" d="M778.94,863.43c12.67-1.99,25.37-6.3,38.33-4.2
		c12.16,0.65,24.15,2.84,36.27,3.92c12.12,1.45,24.32-0.02,36.47,0.17c-3.26,2.38-7.23,3.39-10.98,4.72
		c-20.98,6.97-42.23,13.2-63.83,17.95c-12.88,2.79-25.97,5.14-39.2,4.73c-11.38,0.32-22.65-1.36-33.95-2.3199
		c-16.18-2.01-32.2-5.12-48.15-8.47c-1.67-0.46-3.9901-1.41-3.77-3.5c22.12-1.87,43.16-9.28,64.82-13.57
		C762.97,861.57,770.91,864.78,778.94,863.43z"/>
	<path fill="#FFDFE0" stroke="#FFDFE0" stroke-width="0.594" d="M879.17,873.23c5.82-1.8,10.74-5.85,16.77-7.05
		c-4.47,7.25-10.06,13.78-15.06,20.69c-7.09,9.12-14.12,18.78-24.22,24.82c-10.39,6.36-19.05,15.05-29.03,21.98
		c-5.97,4.27-12.82,7.32-20.05,8.63c-5.85,0.6-11.74-0.08-17.6,0.22c-9.28,1.31-19.25,2.44-28.1-1.45
		c-11.35-4.56-22.18-10.59-31.79-18.17c-12-9.94-22.84-21.23-32.83-33.16c-1.15-1.41-2.39-2.76-3.09-4.44
		c7.66,0.85,15.02,3.49,22.64,4.7c26.97,5.12,54.75,9.6,82.15,5.15C826.39,890.77,853.05,882.52,879.17,873.23z"/>
	<path fill="#C1C0B4" stroke="#C1C0B4" stroke-width="0.594" d="M1156.37,906.21c0.14-10.48-0.6-21.02,0.48-31.46
		c0.27,9.68-0.13,19.36,0.16,29.04c0.01,0.5,0.01,1.51,0.01,2.01L1156.37,906.21z"/>
	<path opacity="0.16" fill="#010101" stroke="#010101" stroke-width="0.594" enable-background="new    " d="M1157.01,903.79
		c5.4299,1.19,10.1,4.51,15.63,5.46c4.03,0.48,5.5499,4.56,7.8199,7.33c1.9301,2.65,5.62,3.18,7.53,5.85
		c3.49,5,8.98,8.34,11.78,13.87c1.98,4.32,1.14,9.4,3.3099,13.68c1.3201,2.59,2.38,5.31,2.8301,8.21
		c-2.27-3.57-4.23-7.31-6.02-11.13c-0.91-5.02-4.01-9.19-6.33-13.61c-2.17-1.27-4.5801-2.06-6.7201-3.35
		c-0.23-6.41-5.46-10.46-9.8199-14.34c-4.71-5.33-12.1801-6.55-18.92-5.77c-0.5699-1.35-0.8199-2.79-1.08-4.19
		C1157.02,905.3,1157.02,904.29,1157.01,903.79z"/>
	<path fill="#070201" stroke="#070201" stroke-width="0.594" d="M1156.37,906.21l0.65-0.41c0.26,1.4,0.51,2.84,1.08,4.19
		c0.74,1.14,1.62,2.26,2.8101,3.02c2.84,1.96,6.5599,2.41,9.0299,4.96c-2.4199-1.31-5.1799-1.89-7.8799-1.25
		c0.59,5.72,1.5299,11.4901,0.8899,17.27c-0.21,1.49-1.23,2.7-2.0699,3.91c-9.87,12.35-20.26,24.34-31.8,35.19
		c-16.11,15.6-32.85,30.53-50.0499,44.92c-13.74,11.39-27.77,22.47-42.72,32.23c-31.3401,20.5701-63.3,40.14-95.2001,59.8201
		c-36.68,22.3999-73.42,44.7-110.27,66.8199c-8.16,4.59-15.72,10.39-24.65,13.45c-3.21,0.9501-2.67,4.9601-3.27,7.5601
		c-1.53,25.0499-1.69,50.21,0.08,75.26c1.29,13.5399,2.08,27.21,5.52,40.4399c4.2,17.9401,12.14,34.7001,21.29,50.6
		c11.29,19.3101,22.86,38.5901,37.01,55.9701c1.94,2.2899,3.52,5.01,6.05,6.75c43.61-66.39,88.93-131.65,133.94-197.11
		c45.72-66.3,91.6-132.4801,137.0001-199c12.4099-18.35,25.0099-36.5801,36.7699-55.36c5.3301-8.08,6.16-18.33,4.4701-27.66
		c-1.4801-7.8101-3.0901-15.98-8.13-22.3701c1.14-0.49,2.2899-0.97,3.46-1.44c3.08,3.5,4.54,7.98,6.39,12.17
		c0.0699-1.43,0.14-2.85,0.2-4.25c1.16,1.36,2.39,2.68,3.66,3.97c0.47,11.3,0.04,22.79-3.08,33.73
		c-1.7001,5.43-5.2001,10.0099-8.17,14.79c-21.28,32.55-43.4,64.54-65.39,96.61c-65.02,94.63-130.65,188.84-195.17,283.8101
		c-22.75,33.4199-44.72,67.35-66.92,101.13c-40.37,61.2-81.51,122.08-116.28,186.72c-18.68,33.96-34.82,69.23-50.23,104.77
		c-16.85,39.6499-32.91,79.62-48.11,119.9399c-5.36,13.96-10.5,28.14-17.63,41.3101c-4,0.62-2.05-4.1001-1.01-6.02
		c8.06-16.3201,13.73-33.65,20.5-50.51c6.55-17.0701,13.12-34.12,20.01-51.05c2.13-4.5699,0.83-9.6,0.42-14.35
		c-0.42-14.6-2.18-29.12-2.33-43.73c-0.66-10.34-1.02-20.6901-1.5-31.03c-0.75-41.99-2.45-83.97-2.09-125.98
		c-0.2401-23.14,0.79-46.27,1.9-69.38c1.43-21.58,3.81-43.17,8.9-64.22c10.62-45.63,26.36-89.88,43.62-133.37
		c6.7-16.4601,13.39-32.9501,20.83-49.1c1-2.8,3.83-4.4601,4.91-7.12c-0.12-9.7201-2.27-19.28-3.48-28.89
		c-2.82-22.89-6.33-45.8101-6.12-68.92c-0.42-9.67-0.45-19.33-0.06-28.99c0.49-13-0.4301-26.05,1.13-38.99
		c-0.15-2.51,1.17-6.65-2.14-7.5c1.98-1.03,4.38-1,6.19-2.4c-1.29,13.26-0.58,26.6-1.53,39.87c-0.24,18.35-0.37,36.71,0.62,55.03
		c1.6,25.79,5.95,51.3199,9.12,76.96c1.54,14.5801-1.85,28.9401-3.2599,43.37c-0.5,5.53-2.13,10.9501-2.04,16.54
		c1.46-0.29,2.93-0.66,4.32-1.26c0.19-4.33-0.78-8.88,1.02-12.99c10.18-25.28,14.49-52.9501,28.52-76.64
		c8.79-13.8101,19.97-25.9,31.45-37.49c3.1-2.67,1.39-7.36,3.41-10.55c1.13-1.4099,2.54-2.5399,3.75-3.87
		c-10.53-16.1799-22.81-31.15-33.6-47.1599c-7.37-10.3401-13.3-21.5901-19.36-32.7101c-7.05-9.6699-9.16-21.9399-15.71-31.85
		c-2.5099,0.45-3.85,2.64-5.05,4.66c0.86-2.78,2.38-5.29,3.24-8.05c0.34-2.71,0.08-5.4399-0.09-8.13
		c6.45,10.04,11.13,21.03,16.23,31.79c7,13.72,13.82,27.61,22.72,40.24c11.5,17.05,24.29,33.22,35.86,50.2
		c4.54-1.95,8.57-4.85,12.84-7.2999c36.63-21.97,73.19-44.0601,109.62-66.36c32.16-19.74,64.34-39.4601,96.0001-60.01
		c30.33-19.2201,57.51-42.89,84.02-66.9901c16.36-15.04,32.5399-30.56,45.72-48.51C1157.74,926.01,1157.13,916.08,1156.37,906.21
		 M793.77,1209.77c-3.89,4.13-7.73,8.29-11.36,12.65c-1.93,2.38-4.35,4.51-5.46,7.4299c5.03,0.09,10.06-0.66,15.09-0.24
		c2.21,0.0701,3.68,2.65,5.84,2.4501c0.58-8.9701,0.49-17.9901,0.76-26.9801C796.57,1206.1,795.35,1208.1801,793.77,1209.77
		 M772.89,1234.98c-6.94,8.91-10.89,19.66-14.83,30.13c-6.17,16.5601-10,33.9-16.71,50.27c-0.99,3.27-2.05,7.47-0.17,10.54
		c10.62,0.21,21.21-1.01,31.81-1.62c11.66-1.1801,24.08-2.7201,35.09,2.38c-1.7-7.2301-4.23-14.25-5.27-21.63
		c-3.76-22.7201-4.24-45.79-5.24-68.74c-6.14-4.13-13.69-2.4601-20.61-2.5C775.57,1233.96,773.78,1233.6,772.89,1234.98
		 M733.02,1279.8c-10.36,22.8099-19.85,46.0199-28.81,69.4199c-16.35,42.8301-31.12,86.49-39.7401,131.5901
		c-2.6899,13.5699-3.59,27.3799-4.95,41.11c-0.11,4.1899-0.13,8.3999-0.76,12.5699c-1.23,26.13-1.49,52.3-1.45,78.45
		c1.75-7.5199,0.59-15.34,1.84-22.9299c1.53-24.38,3.54-48.73,6.56-72.97c2.5099-21.25,5.3-42.51,9.95-63.4
		c5.16-23.39,14.6201-45.53,24.75-67.14c8.27-17.36,17.19-34.42,26.86-51.03c2.35-19.0699,5.61-38.0399,7.28-57.1899
		C733.76,1278.48,733.25,1278.99,733.02,1279.8 M766.01,1328.62c-7.64,0.72-15.31,0.92-22.98,1.05
		c-4.7-0.2101-9.59,2.3999-11.79,6.62c-10.13,16.9399-18.98,34.61-27.61,52.35c-9.93,21.15-19.1,42.87-24.25,65.75
		c-4.17,19.6899-7.46,39.59-9.37,59.63c-0.61,5.33-1.86,10.58-1.9,15.98c-2.06,16.27-3.1,32.64-4.63,48.95
		c0.04,6.7101-1.41,13.3201-1.21,20.04c-1.1,7.99-0.61,16.0701-1.77,24.0601c0,10.6599-1.12,21.2699-1.14,31.9399
		c0.12,7.34-0.92,14.66-0.53,22.01c0.86,13.65,0.18,27.35,1.2,41c0.64,7.3-0.05,14.67,0.85,21.97c0.99,6.9501,0.08,14.02,1.05,20.99
		c0.89,6.3101-0.04,12.74,1.02,19.05c1.13,5.91-0.41,12.1,1.41,17.91c1.94-2.91,2.28-6.55,3.93-9.61
		c11.81-28.5,23.95-56.88,37.21-84.7401c34.86-74.22,79.42-143.2799,124.58-211.5299c0.83-1.2201,1.57-2.55,1.56-4.05
		c1.31-12.95,2.3-25.96,2.07-38.99c0.65-22.9301,1.07-45.89,0.85-68.8199c-2.63-5.4301-6.23-10.4-9.03-15.76
		c-6.04-10.66-11.3-21.75-15.9-33.0901c-7.26-3.5399-15.59-5.0299-23.63-4.0699C779.27,1327,772.73,1328.88,766.01,1328.62
		 M838.36,1386.02c0.16,21.6799-0.68,43.35-0.69,65.03c0.07,10.36-1.12,20.6699-1.46,31.0199c5.29-6.1499,9.07-13.47,13.7599-20.08
		c6.8-10.35,13.76-20.6,20.3701-31.0699c-3.8-5.8101-8.71-10.8401-12.75-16.5C850.46,1405.45,844.72,1395.51,838.36,1386.02z"/>
	<path opacity="0.53" fill="#2A2A2A" stroke="#2A2A2A" stroke-width="0.594" enable-background="new    " d="M1158.1,909.99
		c6.74-0.78,14.2101,0.44,18.92,5.77c-0.3201,0.57-0.97,1.71-1.29,2.28c-2.5-1.85-4.95-3.91-7.9-4.97
		c-2.2799-0.55-4.63-0.1-6.9199-0.06C1159.72,912.25,1158.84,911.13,1158.1,909.99z"/>
	<path opacity="0.63" fill="#605C52" stroke="#605C52" stroke-width="0.594" enable-background="new    " d="M618.4,911.28
		c0.06,0.1,0.18,0.3,0.24,0.4C618.58,911.58,618.46,911.38,618.4,911.28z"/>
	<path opacity="0.58" fill="#59554E" stroke="#59554E" stroke-width="0.594" enable-background="new    " d="M621.43,916.28
		c0.07,0.11,0.2,0.3199,0.26,0.42C621.63,916.6,621.5,916.39,621.43,916.28z"/>
	<path opacity="0.95" fill="#4C4D4E" stroke="#4C4D4E" stroke-width="0.594" enable-background="new    " d="M1175.73,918.04
		c0.3201-0.57,0.97-1.71,1.29-2.28c4.36,3.88,9.59,7.93,9.8199,14.34c0.03,0.44,0.1,1.34,0.13,1.79c-0.0599,1.4-0.13,2.82-0.2,4.25
		c-1.85-4.19-3.3101-8.67-6.39-12.17C1178.84,921.98,1177.27,920.02,1175.73,918.04z"/>
	<path fill="#FFC5C4" stroke="#FFC5C4" stroke-width="0.594" d="M1162.0601,916.72c2.7-0.64,5.46-0.06,7.8799,1.25
		c2.41,2.38,4.65,4.95,6.9801,7.44c5.0399,6.39,6.6499,14.56,8.13,22.3701c1.6899,9.33,0.86,19.58-4.4701,27.66
		c-11.76,18.78-24.36,37.01-36.7699,55.36c-45.4,66.5199-91.28,132.7-137.0001,199c-45.01,65.46-90.33,130.72-133.94,197.11
		c-2.53-1.74-4.11-4.4601-6.05-6.75c-14.15-17.38-25.72-36.66-37.01-55.9701c-9.15-15.8999-17.09-32.6599-21.29-50.6
		c-3.44-13.23-4.23-26.9-5.52-40.4399c-1.77-25.05-1.61-50.2101-0.08-75.26c0.6-2.6,0.06-6.61,3.27-7.5601
		c8.93-3.0599,16.49-8.86,24.65-13.45c36.85-22.12,73.59-44.42,110.27-66.8199c31.9-19.6801,63.86-39.25,95.2001-59.8201
		c14.95-9.76,28.98-20.84,42.72-32.23c17.2-14.39,33.9399-29.32,50.0499-44.92c11.54-10.85,21.9301-22.84,31.8-35.19
		c0.84-1.21,1.86-2.42,2.0699-3.91C1163.59,928.21,1162.65,922.44,1162.0601,916.72z"/>
	<path fill="#FFC5C4" stroke="#FFC5C4" stroke-width="0.594" d="M730.99,1079.03c1.2-2.02,2.54-4.2101,5.05-4.66
		c6.55,9.91,8.66,22.1801,15.71,31.85c6.06,11.12,11.99,22.37,19.36,32.7101c10.79,16.0099,23.07,30.98,33.6,47.1599
		c-1.21,1.3301-2.62,2.4601-3.75,3.87c-2.02,3.1901-0.31,7.88-3.41,10.55c-11.48,11.59-22.66,23.6799-31.45,37.49
		c-14.03,23.6899-18.34,51.36-28.52,76.64c-1.8,4.11-0.83,8.66-1.02,12.99c-1.39,0.6-2.86,0.97-4.32,1.26
		c-0.09-5.59,1.54-11.01,2.04-16.54c1.41-14.4299,4.8-28.7899,3.2599-43.37c-3.17-25.64-7.52-51.1699-9.12-76.96
		c-0.99-18.3201-0.86-36.6801-0.62-55.03c0.95-13.27,0.24-26.61,1.53-39.87C729.61,1091.08,729.41,1084.91,730.99,1079.03z"/>
	<path opacity="0.69" fill="#7D7A73" stroke="#7D7A73" stroke-width="0.594" enable-background="new    " d="M623.29,919.25
		c0.08,0.13,0.2401,0.37,0.31,0.5C623.53,919.62,623.37,919.38,623.29,919.25z"/>
	<path opacity="0.59" fill="#0F0F0F" stroke="#0F0F0F" stroke-width="0.594" enable-background="new    " d="M1186.84,930.1
		c2.14,1.29,4.55,2.08,6.7201,3.35c2.3199,4.42,5.4199,8.59,6.33,13.61c-2.47-3.56-4.1-7.67-6.97-10.93
		c-0.63-0.83-1.4-0.92-2.29-0.27c-1.27-1.29-2.5-2.61-3.66-3.97C1186.9399,931.44,1186.87,930.54,1186.84,930.1z"/>
	<path fill="#6B6B6B" stroke="#6B6B6B" stroke-width="0.594" d="M1190.63,935.86c0.89-0.65,1.66-0.56,2.29,0.27
		c2.87,3.26,4.5,7.37,6.97,10.93c1.79,3.82,3.75,7.56,6.02,11.13c2.21,4.65,4.86,9.07,7.0299,13.75c0.29,0.52,0.8701,1.56,1.16,2.08
		c5.91,10.99,11.8101,21.99,17.72,32.99c0.3201,0.49,0.9801,1.48,1.3101,1.97c1.92,2.98,3.85,5.97,5.6899,9.01
		c0.3501,0.47,1.0601,1.42,1.41,1.9c6.4401,8.9399,12.77,18.65,14.0601,29.86c0.6899,25.21-2.11,50.3199-4.1001,75.42
		c-4.25,45.85-9.6899,91.6-16.8099,137.1c-3.5,21.86-7.3101,43.72-12.9401,65.15c-2.46,8.7899-4.9099,17.71-9.22,25.7999
		c-4.96,8.5701-14.8199,12.4401-23.85,15.14c-22.28,5.88-45.52,5.25-68.37,5.4401c-6.52,0.71-13.42,0.0399-19.59,2.5499
		c-3.0901,0.9501-3.78,5.5601-1,7.29c4.72,3.13,10.5299,3.88,15.97,5.01c25.51,4.72,51.72,6.35,76.53,14.34
		c5.6799,2.16,12.0499,4.25,15.83,9.33c2.33,3.0801-0.73,6.4401-2.27,9.1101c-10.2,14.5699-22.33,27.6599-34.13,40.9299
		c-47.99,52.6-98.2,103.1-148.24,153.74C968.67,1669.67,914.84,1722.84,860.79,1775.79c-49.47,48.2799-98.9,96.6-149.02,144.21
		H325.24c0.01-5.62,0.47-11.25-0.32-16.83c-1.04-6.6801-0.36-13.4401-0.75-20.15c-0.85-15.5701-0.32-31.16-0.76-46.73
		c-1.06-14.39-0.47-28.8301-1.05-43.23c0.08-8.7101-0.81-17.38-0.7-26.0801c0.23-15-1.66-29.91-2.19-44.88
		c-1.74-21.7-3.24-43.4199-4.77-65.12c0.11-7.37-1.83-14.59-1.34-21.97c-0.89-18.98-1.15-38.04,0.15-57.01
		c0.29-7.35-0.17-14.72,0.39-22.05c0.77-7.24,1.02-14.5499,0.7-21.8199c-0.61-0.08-1.82-0.23-2.42-0.3
		c-2.82,8.7101-1.32,18.14-1.94,27.17c-1.48,14.62-0.66,29.33-1.01,44c0.19,13.34-0.42,26.72,1.08,40
		c-0.19,7.71,1.13,15.33,1.18,23.03c1.64,11.34,1.61,22.85,2.89,34.24c0.68,13.27,2.05,26.48,2.51,39.76
		c1.28,9.95,0.35,20.01,1.34,29.99c0.46,27.3199,1.13,54.65,1.48,81.98c-0.26,7.6801,0.99,15.3,0.91,22.99
		c0.01,14.33,0.16,28.67,0.63,43.01H34.75c0.31-2.48,0.68-5.01,2.1-7.11c5.59-9.02,11.51-17.84,17.33-26.71
		c9.23-13.2201,18.21-26.87,30.24-37.77c8.02-7.67,17.2-14.0601,24.77-22.2101c10.07-10.3099,16.37-23.8099,19.54-37.76
		c6.66-26.3099,7.51-53.61,12.36-80.24c3.68-19.12,5.07-38.63,9.58-57.58c1.74-7.5599,5.4-14.59,10.57-20.36
		c4.98-5.67,10.91-10.52,15.18-16.8101c12.22-17.86,21.7-37.8899,25.8-59.23c3.9-17.33,7.22-34.9,13.38-51.61
		c6.86-17.9,14.87-35.45,25.32-51.5699c0.32-0.5,0.96-1.5,1.28-2c3.21-4.7001,6.5-9.3501,9.58-14.14
		c0.37-0.4501,1.13-1.36,1.5-1.8101c8.67-11.83,17.28-23.77,27.35-34.47c11.56-11.99,24.5-22.73,38.84-31.22
		c15.1-9.47,30.86-17.8101,46.55-26.23c0.52-0.28,1.58-0.8401,2.1-1.12c22.13-11.3401,44.29-22.62,66.73-33.3301
		c37.27-18.5499,75.58-34.9099,114-50.9299c17.72-7.1801,35.25-14.8301,53.08-21.74c0.54-0.26,1.61-0.78,2.14-1.04
		c4.25-1.6901,8.44-3.51,12.73-5.1c0.56-0.23,1.67-0.67,2.23-0.9c8.81-3.74,17.65-7.52,26.74-10.48c0.81,0.09,2.43,0.27,3.24,0.36
		c-3.63,5.89-9.2,10.22-13.89,15.23c-6.58,6.46-12.89,13.26-18.05,20.9301c-4.35,6.26-7.6,13.1799-11.1,19.9299
		c-20.06,39.55-38.5699,79.87-56.45,120.4501c-23.78,54.62-46.42,109.85-64.31,166.71c-6.57,21.6-12.75,43.41-16.25,65.74
		c-2.93,18.74-3.06,37.76-2.35,56.67c3.08,52.48,13.8,104.21,26.92,155.0299c5.83,22.03,12.4,43.8501,19.39,65.54
		c0.55,1.61,1.19,3.26,2.38,4.5699c0.51-0.09,1.53-0.2699,2.04-0.36c0.6-3.2999-1.4-6.37-2.19-9.47
		c-19.86-62.17-35.68-125.88-42.98-190.83c-2.19-23.27-3.1-46.78-0.94-70.0801c2.91-25.1399,9.61-49.6599,16.93-73.8199
		c11.12-36.0699,24.6-71.36,38.59-106.4c23.34-56.9399,48.47-113.16,75.59-168.4c7.78-15.11,14.52-31.1499,26.08-43.89
		c8.43-9.8199,18.74-17.9299,26.47-28.36c2.04-2.6599,4.03-5.35,6-8.0499c0.34-0.48,1.02-1.4501,1.36-1.9301
		c0.85-1.41,1.71-2.8099,2.57-4.2c0.33-0.49,1-1.4601,1.33-1.9501c1.72-2.88,3.43-5.7699,5.02-8.73c1.33-0.49,2.14-1.73,2.06-3.13
		c0.57-1.02,1.14-2.0299,1.73-3.01c0.31-0.5,0.94-1.51,1.25-2.01c4.2-7.45,8.55-14.7999,12.66-22.2899
		c3.77-6.8401,8.08-13.4,11.3-20.54c1.35-0.5,2.15-1.76,2.04-3.1799c1.3-2.3201,2.59-4.64,3.82-6.9901
		c0.29-0.5199,0.8799-1.5499,1.17-2.0699c0.63-1.28,1.27-2.55,1.9-3.8101c5.08-7.99,8.62-16.8799,14.04-24.6699
		c3.31,0.85,1.99,4.99,2.14,7.5c-1.5601,12.9399-0.64,25.99-1.13,38.99c-0.39,9.66-0.36,19.3199,0.06,28.99
		c-0.21,23.11,3.3,46.03,6.12,68.92c1.21,9.61,3.36,19.1699,3.48,28.89c-1.08,2.6599-3.91,4.3199-4.91,7.12
		c-7.44,16.1499-14.13,32.6399-20.83,49.1c-17.26,43.49-33,87.74-43.62,133.37c-5.09,21.0499-7.47,42.64-8.9,64.22
		c-1.11,23.11-2.14,46.24-1.9,69.38c-0.36,42.01,1.34,83.99,2.09,125.98c0.48,10.34,0.84,20.6901,1.5,31.03
		c0.15,14.61,1.91,29.13,2.33,43.73c0.41,4.75,1.71,9.78-0.42,14.35c-6.89,16.9301-13.46,33.98-20.01,51.05
		c-6.77,16.86-12.44,34.1899-20.5,50.51c-1.04,1.9199-2.99,6.64,1.01,6.02c7.13-13.17,12.27-27.3501,17.63-41.3101
		c15.2-40.3199,31.2599-80.29,48.11-119.9399c15.41-35.54,31.55-70.8101,50.23-104.77c34.77-64.64,75.91-125.52,116.28-186.72
		c22.2-33.78,44.17-67.7101,66.92-101.13c64.52-94.9701,130.15-189.1801,195.17-283.8101c21.99-32.0699,44.11-64.06,65.39-96.61
		c2.97-4.78,6.47-9.36,8.17-14.79C1190.67,958.65,1191.1,947.16,1190.63,935.86z"/>
	<path opacity="0.65" fill="#292929" stroke="#292929" stroke-width="0.594" enable-background="new    " d="M1212.9399,971.94
		c0.29,0.52,0.8701,1.56,1.16,2.08C1213.8101,973.5,1213.23,972.46,1212.9399,971.94z"/>
	<path opacity="0.58" fill="#1E1E1E" stroke="#1E1E1E" stroke-width="0.594" enable-background="new    " d="M1231.8199,1007.01
		c0.3201,0.49,0.9801,1.48,1.3101,1.97C1232.8,1008.49,1232.14,1007.5,1231.8199,1007.01z"/>
	<path opacity="0.66" fill="#2F2F2F" stroke="#2F2F2F" stroke-width="0.594" enable-background="new    " d="M1238.8199,1017.99
		c0.3501,0.47,1.0601,1.42,1.41,1.9C1239.88,1019.41,1239.17,1018.46,1238.8199,1017.99z"/>
	<path opacity="0.24" fill="#030303" stroke="#030303" stroke-width="0.594" enable-background="new    " d="M727.47,1067.77
		c-0.1299-8.04,1.78-16.4501-1.74-24.05c1.66,1.36,3.4,2.66,5.09,4.02c-0.43,1.33-0.87,2.67-1.18,4.05
		c-0.64,4.1799,2.88,7.48,4.5,11.0599c0.17,2.6901,0.43,5.42,0.09,8.13c-0.86,2.76-2.38,5.27-3.24,8.05
		c-1.58,5.88-1.38,12.0499-1.66,18.09c-1.81,1.4-4.21,1.37-6.19,2.4c-5.42,7.79-8.96,16.6799-14.04,24.6699
		c0.36-3.72,1.7401-7.2,3.69-10.36c2.83-4.6599,3.33-10.2799,6.08-14.97c1-1.78,2.24-3.4299,3.15-5.26
		c0.95-2.61-0.87-6.02,1.51-8.0699c1.5-1.9601,4.58-3.42,4-6.3101C727.24,1075.4,727.24,1071.58,727.47,1067.77z"/>
	<path fill="#020202" stroke="#020202" stroke-width="0.594" d="M1254.29,1049.75c0.5,3.53,0.21,7.1899,1.35,10.63
		c1.02,0.11,2.0599,0.21,3.12,0.3099c-1.37,12.7401-1.6,25.5801-2.6,38.3601c-1.3201,10.97-1.4701,22.0399-2.9501,33
		c-0.75,12.01-2.63,23.8999-3.59,35.8899c-2.95,27.75-6.6899,55.4-10.65,83.02c-4.88,30.11-9.38,60.4401-18.4299,89.65
		c-2.4401,6.98-4.87,14.38-10.1001,19.83c-5.49,5.4601-12.75,8.6901-20.0399,10.9701c-12.41,3.8099-25.4501,4.88-38.35,5.39
		c-12.9801,1.11-26.03,0.12-39.02,1.0399c-3.8101,0.3201-7.77,0.28-11.37,1.7001c-0.2001,0.35-0.6,1.0399-0.8,1.38
		c7.6801,3.62,16.27,4.33,24.53,5.7699c22.98,3.7301,46.47,5.7301,68.61,13.3601c6.4399,2.5,13.84,5.3999,16.9399,12.11
		c2.0601,4.36-1.7,8.47-3.7799,12.0399c-10.4401,14.65-22.67,27.92-34.6,41.3601c-48.2301,52.71-98.51,103.48-148.8301,154.1699
		c-79.36,79.65-159.61,158.4-240.3,236.6901c-21.9,21.25-44.03,42.2699-65.87,63.58h-5.79c50.12-47.61,99.55-95.9301,149.02-144.21
		c54.05-52.9501,107.88-106.12,161.31-159.6901c50.04-50.64,100.25-101.14,148.24-153.74c11.8-13.27,23.9301-26.36,34.13-40.9299
		c1.54-2.67,4.6-6.03,2.27-9.1101c-3.78-5.08-10.15-7.1699-15.83-9.33c-24.8101-7.99-51.02-9.62-76.53-14.34
		c-5.4401-1.13-11.25-1.88-15.97-5.01c-2.78-1.73-2.0901-6.34,1-7.29c6.1699-2.51,13.0699-1.84,19.59-2.5499
		c22.85-0.1901,46.09,0.4399,68.37-5.4401c9.03-2.7,18.89-6.5699,23.85-15.14c4.3101-8.09,6.76-17.01,9.22-25.7999
		c5.63-21.4301,9.4401-43.29,12.9401-65.15c7.12-45.5,12.5599-91.25,16.8099-137.1
		C1252.1801,1100.0699,1254.98,1074.96,1254.29,1049.75z"/>
	<path fill="#020202" stroke="#020202" stroke-width="0.594" d="M645.77,1216.53c3.04-0.1901,6.08-0.24,9.12-0.4501
		c-7.73,10.4301-18.04,18.54-26.47,28.36c-11.56,12.7401-18.3,28.78-26.08,43.89c-27.1201,55.24-52.25,111.4601-75.59,168.4
		c-13.99,35.04-27.47,70.3301-38.59,106.4c-7.32,24.16-14.02,48.6801-16.93,73.8199c-2.16,23.3-1.25,46.8101,0.94,70.0801
		c7.3,64.95,23.12,128.6599,42.98,190.83c0.79,3.1,2.79,6.17,2.19,9.47c-0.51,0.0901-1.53,0.27-2.04,0.36
		c-1.19-1.3099-1.83-2.96-2.38-4.5699c-6.99-21.6899-13.56-43.51-19.39-65.54c-13.12-50.8199-23.84-102.5499-26.92-155.0299
		c-0.71-18.91-0.58-37.9301,2.35-56.67c3.5-22.33,9.68-44.14,16.25-65.74c17.89-56.86,40.53-112.09,64.31-166.71
		c17.88-40.5801,36.39-80.9,56.45-120.4501c3.5-6.75,6.75-13.6699,11.1-19.9299c5.16-7.67,11.47-14.4701,18.05-20.9301
		c4.69-5.01,10.26-9.34,13.89-15.23C648.2,1216.8,646.58,1216.62,645.77,1216.53z"/>
	<path fill="#020202" stroke="#020202" stroke-width="0.594" d="M1235.6801,1710.67c4.21-2.4301,9.4099-3.1801,13.98-1.27
		c6.15,2.26,11.52,6.4,17.96,7.95c9.29,1.5801,19.39-1.86,28.0601,3c2.7699,0.92,3.6799,4.27,2.5,6.78
		c-2.4,6.23-6.63,11.98-6.8,18.9c-0.4,16.03,0.49,32.0699,0.55,48.1c6.37-0.25,12.62-1.77,18.95-2.55
		c1.28-0.1499,2.71-0.26,3.78,0.6901c0.58,2.77-0.5701,6.23-3.7201,6.72c-18.75,3.96-37.72,6.89-56.5599,10.39
		c-49.47,8.49-99.01,16.66-148.79,23.11c-12.1799,1.26-24.34,3.04-36.61,2.9c-37.63,0.7-75.12-3.47-112.41-8.01
		c-1.41-2.84-1.21-6.24-0.64-9.24c0.97-3,4.6-1.71,6.93-1.8101c23.4,1.7201,46.72,4.6001,70.17,5.6801
		c9.2899,0.99,18.6599,0.54,27.98,1.16c5.83-0.01,11.8099,0.47,17.54-0.7201c35.74-31.88,71.38-63.8899,107.5599-95.2899
		c6.9-5.5601,13.9401-11.14,21.91-15.11c4.62-2.2301,9.5,0.0299,13.59,2.3099C1226.62,1717.0699,1231.3,1712.62,1235.6801,1710.67
		 M1227.01,1717.35c-4.83,1.0801-8.6901-2.45-12.97-3.89c-3.2201-0.58-6.1901,1.14-8.86,2.7001
		c-15.9401,9.98-29.29,23.35-43.55,35.47c-26.52,23.7-53.42,47.01-79.6,71.08c23.1599-1.4199,46.1699-4.59,69.1599-7.64
		c46.2001-6.3999,92.3201-13.4099,138.4301-20.45c0.48-16.55-1.28-33.09-0.4-49.62c0.35-6.96,4.52-12.76,6.9501-19.05
		c0.9099-3.08-2.78-4.2899-5.03-4.96c-6.88-2.66-14.13,0.75-21.17-0.98c-9.1799-0.61-16.08-7.8-24.9399-9.37
		C1238.23,1710.09,1233.24,1715.72,1227.01,1717.35 M1273.38,1799.47c-41.75,6.4-83.51,12.7101-125.35,18.42
		c-24.9401,3.11-49.87,6.8199-75.03,7.4399c-35.8101,0.3201-71.47-3.34-107.06-6.73c-2.69,0.0701-5.61-0.8199-8.11,0.4301
		c-0.29,1.9099-0.45,3.96,0.24,5.85c5.67,1.74,11.75,1.49,17.57,2.5699c28.01,3.16,56.15,5.8,84.36,5.89
		c21.46,0.4601,42.74-2.7899,63.97-5.48c61.37-8.77,122.51-19.03,183.4601-30.33c2-0.47,5.6699-0.64,4.7899-3.67
		C1299.22,1795.26,1286.33,1797.6899,1273.38,1799.47z"/>
	<path fill="#707070" stroke="#707070" stroke-width="0.594" d="M1258.76,1060.6899c1.8099,0.0801,3.74,0.2101,5.29,1.3201
		c4.7899,3.08,9.21,6.6899,13.9399,9.87c0.48,0.35,1.4401,1.04,1.92,1.39c2.6799,1.87,5.36,3.76,8.09,5.59
		c0.48,0.36,1.42,1.0701,1.89,1.4301c10.37,7.1899,20.67,14.47,31.08,21.62c0.49,0.33,1.4601,1.01,1.9501,1.34
		c11.01,7.59,22.0599,15.11,33.09,22.66c0.51,0.3099,1.52,0.9199,2.03,1.23c10.1799,7.12,20.5599,13.96,31.01,20.6899
		c0.49,0.3301,1.47,1,1.95,1.3301c17.1,11.25,34.3,22.37,51.91,32.7999c0.5,0.3201,1.5,0.9601,1.99,1.28
		c19.95,12.04,39.9299,24.03,60.0699,35.73c0.51,0.3,1.53,0.91,2.05,1.2101c38.85,22.83,77.8099,45.47,116.9299,67.84
		c0.52,0.29,1.5601,0.86,2.0801,1.14c11.3199,6.65,22.73,13.1599,34.12,19.6899c3.96,2.35,8.2899,4.13,11.85,7.13V1920H717.56
		c21.84-21.3101,43.97-42.33,65.87-63.58c80.69-78.29,160.94-157.04,240.3-236.6901c50.3201-50.6899,100.6-101.46,148.8301-154.1699
		c11.9299-13.4401,24.1599-26.7101,34.6-41.3601c2.08-3.5699,5.84-7.6799,3.7799-12.0399c-3.1-6.7101-10.5-9.61-16.9399-12.11
		c-22.14-7.63-45.63-9.63-68.61-13.3601c-8.26-1.4399-16.85-2.1499-24.53-5.7699c0.2001-0.3401,0.6-1.03,0.8-1.38
		c3.6-1.42,7.5599-1.38,11.37-1.7001c12.99-0.9199,26.0399,0.0701,39.02-1.0399c12.8999-0.51,25.9399-1.5801,38.35-5.39
		c7.2899-2.28,14.5499-5.51,20.0399-10.9701c5.2301-5.45,7.66-12.85,10.1001-19.83c9.0499-29.21,13.5499-59.54,18.4299-89.65
		c3.9601-27.62,7.7001-55.27,10.65-83.02c0.96-11.99,2.84-23.8799,3.59-35.8899c1.48-10.9601,1.63-22.03,2.9501-33
		C1257.16,1086.27,1257.39,1073.4301,1258.76,1060.6899 M1430.03,1675.99c-18.17,78.11-36.52,156.63-42.76,236.77
		c2.37,0.79,2.37-2.13,2.49-3.66c2.77-34.83,7.9-69.4199,14.52-103.72c7.2-39.79,16.1899-79.23,25.48-118.58
		c0.87-4.3101,2.64-8.53,2.42-12.9801C1430.75,1673.8101,1430.03,1674.53,1430.03,1675.99 M1235.6801,1710.67
		c-4.38,1.95-9.0601,6.3999-14.0701,3.6899c-4.09-2.28-8.97-4.54-13.59-2.3099c-7.97,3.97-15.01,9.5499-21.91,15.11
		c-36.1799,31.4-71.8199,63.4099-107.5599,95.2899c-5.7301,1.1901-11.7101,0.7101-17.54,0.7201
		c-9.3201-0.62-18.6901-0.17-27.98-1.16c-23.45-1.08-46.77-3.96-70.17-5.6801c-2.33,0.1001-5.96-1.1899-6.93,1.8101
		c-0.57,3-0.77,6.4,0.64,9.24c37.29,4.54,74.78,8.71,112.41,8.01c12.27,0.14,24.4301-1.64,36.61-2.9
		c49.78-6.45,99.3201-14.62,148.79-23.11c18.84-3.5,37.8099-6.4301,56.5599-10.39c3.15-0.49,4.3-3.95,3.7201-6.72
		c-1.0701-0.9501-2.5-0.84-3.78-0.6901c-6.33,0.78-12.58,2.3-18.95,2.55c-0.0601-16.03-0.9501-32.0699-0.55-48.1
		c0.17-6.92,4.4-12.67,6.8-18.9c1.1799-2.51,0.2699-5.86-2.5-6.78c-8.67-4.86-18.77-1.4199-28.0601-3
		c-6.4399-1.5499-11.8099-5.6899-17.96-7.95C1245.09,1707.49,1239.89,1708.24,1235.6801,1710.67z"/>
	<path opacity="0.53" fill="#1E1E1E" stroke="#1E1E1E" stroke-width="0.594" enable-background="new    " d="M1277.99,1071.88
		c0.48,0.35,1.4401,1.04,1.92,1.39C1279.4301,1072.92,1278.47,1072.23,1277.99,1071.88z"/>
	<path opacity="0.5" fill="#1F1F1F" stroke="#1F1F1F" stroke-width="0.594" enable-background="new    " d="M1288,1078.86
		c0.48,0.36,1.42,1.0701,1.89,1.4301C1289.42,1079.9301,1288.48,1079.22,1288,1078.86z"/>
	<path opacity="0.53" fill="#232323" stroke="#232323" stroke-width="0.594" enable-background="new    " d="M1320.97,1101.91
		c0.49,0.33,1.4601,1.01,1.9501,1.34C1322.4301,1102.92,1321.46,1102.24,1320.97,1101.91z"/>
	<path opacity="0.6" fill="#262626" stroke="#262626" stroke-width="0.594" enable-background="new    " d="M1356.01,1125.91
		c0.51,0.3099,1.52,0.9199,2.03,1.23C1357.53,1126.83,1356.52,1126.22,1356.01,1125.91z"/>
	<path opacity="0.51" fill="#171717" stroke="#171717" stroke-width="0.594" enable-background="new    " d="M706.03,1130.0699
		c0.29-0.5199,0.8799-1.5499,1.17-2.0699C706.91,1128.52,706.32,1129.55,706.03,1130.0699z"/>
	<path opacity="0.37" fill="#0D0D0D" stroke="#0D0D0D" stroke-width="0.594" enable-background="new    " d="M700.17,1140.24
		c-0.48-1.53,0.42-3.03,2.04-3.1799C702.32,1138.48,701.52,1139.74,700.17,1140.24z"/>
	<path opacity="0.59" fill="#252525" stroke="#252525" stroke-width="0.594" enable-background="new    " d="M1389.05,1147.83
		c0.49,0.3301,1.47,1,1.95,1.3301C1390.52,1148.83,1389.54,1148.16,1389.05,1147.83z"/>
	<path opacity="0.49" fill="#1B1B1B" stroke="#1B1B1B" stroke-width="0.594" enable-background="new    " d="M1442.91,1181.96
		c0.5,0.3201,1.5,0.9601,1.99,1.28C1444.41,1182.92,1443.41,1182.28,1442.91,1181.96z"/>
	<path opacity="0.52" fill="#1B1B1B" stroke="#1B1B1B" stroke-width="0.594" enable-background="new    " d="M674.96,1185.08
		c0.31-0.5,0.94-1.51,1.25-2.01C675.9,1183.5699,675.27,1184.58,674.96,1185.08z"/>
	<path opacity="0.4" fill="#0F0F0F" stroke="#0F0F0F" stroke-width="0.594" enable-background="new    " d="M671.17,1191.22
		c-0.5-1.53,0.43-3.0399,2.06-3.13C673.31,1189.49,672.5,1190.73,671.17,1191.22z"/>
	<path opacity="0.66" fill="#262626" stroke="#262626" stroke-width="0.594" enable-background="new    " d="M664.82,1201.9
		c0.33-0.49,1-1.4601,1.33-1.9501C665.82,1200.4399,665.15,1201.41,664.82,1201.9z"/>
	<path fill="#FCC7C6" stroke="#FCC7C6" stroke-width="0.594" d="M793.77,1209.77c1.58-1.59,2.8-3.67,4.87-4.6901
		c-0.27,8.99-0.18,18.01-0.76,26.9801c-2.16,0.2-3.63-2.38-5.84-2.4501c-5.03-0.42-10.06,0.33-15.09,0.24
		c1.11-2.9199,3.53-5.0499,5.46-7.4299C786.04,1218.0601,789.88,1213.9,793.77,1209.77z"/>
	<path fill="#FCC7C6" stroke="#FCC7C6" stroke-width="0.594" d="M733.02,1279.8c0.23-0.8101,0.74-1.3201,1.53-1.52
		c-1.67,19.15-4.93,38.12-7.28,57.1899c-9.67,16.61-18.59,33.67-26.86,51.03c-10.1299,21.61-19.59,43.75-24.75,67.14
		c-4.65,20.89-7.44,42.15-9.95,63.4c-3.02,24.24-5.03,48.59-6.56,72.97c-1.25,7.59-0.09,15.41-1.84,22.9299
		c-0.04-26.1499,0.22-52.3199,1.45-78.45c0.63-4.17,0.65-8.38,0.76-12.5699c1.36-13.7301,2.26-27.54,4.95-41.11
		c8.6201-45.1001,23.39-88.76,39.7401-131.5901C713.17,1325.8199,722.66,1302.61,733.02,1279.8z"/>
	<path opacity="0.59" fill="#202020" stroke="#202020" stroke-width="0.594" enable-background="new    " d="M660.89,1208.03
		c0.34-0.48,1.02-1.4501,1.36-1.9301C661.91,1206.58,661.23,1207.55,660.89,1208.03z"/>
	<path opacity="0.53" fill="#212121" stroke="#212121" stroke-width="0.594" enable-background="new    " d="M1504.97,1218.97
		c0.51,0.3,1.53,0.91,2.05,1.2101C1506.5,1219.88,1505.48,1219.27,1504.97,1218.97z"/>
	<path opacity="0.72" fill="#292929" stroke="#292929" stroke-width="0.594" enable-background="new    " d="M616.8,1227.91
		c0.56-0.23,1.67-0.67,2.23-0.9C618.47,1227.24,617.36,1227.6801,616.8,1227.91z"/>
	<path opacity="0.61" fill="#202020" stroke="#202020" stroke-width="0.594" enable-background="new    " d="M601.93,1234.05
		c0.54-0.26,1.61-0.78,2.14-1.04C603.54,1233.27,602.47,1233.79,601.93,1234.05z"/>
	<path fill="#A14D4D" stroke="#A14D4D" stroke-width="0.594" d="M772.89,1234.98c0.89-1.38,2.68-1.02,4.07-1.1699
		c6.92,0.0399,14.47-1.63,20.61,2.5c1,22.95,1.48,46.0199,5.24,68.74c1.04,7.38,3.57,14.3999,5.27,21.63
		c-11.01-5.1001-23.43-3.5601-35.09-2.38c-10.6,0.61-21.19,1.83-31.81,1.62c-1.88-3.0701-0.82-7.27,0.17-10.54
		c6.71-16.37,10.54-33.71,16.71-50.27C762,1254.64,765.95,1243.89,772.89,1234.98z"/>
	<path opacity="0.53" fill="#1D1D1D" stroke="#1D1D1D" stroke-width="0.594" enable-background="new    " d="M1623.95,1288.02
		c0.52,0.29,1.5601,0.86,2.0801,1.14C1625.51,1288.88,1624.47,1288.3101,1623.95,1288.02z"/>
	<path fill="#CF5959" stroke="#CF5959" stroke-width="0.594" d="M766.01,1328.62c6.72,0.26,13.26-1.62,19.99-1.36
		c8.04-0.96,16.37,0.53,23.63,4.0699c4.6,11.3401,9.86,22.4301,15.9,33.0901c2.8,5.36,6.4,10.33,9.03,15.76
		c0.22,22.9299-0.2,45.8899-0.85,68.8199c0.23,13.03-0.76,26.04-2.07,38.99c0.01,1.5-0.73,2.83-1.56,4.05
		c-45.16,68.25-89.72,137.3099-124.58,211.5299c-13.26,27.8601-25.4,56.2401-37.21,84.7401c-1.65,3.0599-1.99,6.7-3.93,9.61
		c-1.82-5.8101-0.28-12-1.41-17.91c-1.06-6.3101-0.13-12.74-1.02-19.05c-0.97-6.97-0.06-14.0399-1.05-20.99
		c-0.9-7.2999-0.21-14.6699-0.85-21.97c-1.02-13.65-0.34-27.35-1.2-41c-0.39-7.35,0.65-14.67,0.53-22.01
		c0.02-10.67,1.14-21.28,1.14-31.9399c1.16-7.99,0.67-16.0701,1.77-24.0601c-0.2-6.72,1.25-13.33,1.21-20.04
		c1.53-16.3099,2.57-32.6799,4.63-48.95c0.04-5.4,1.29-10.65,1.9-15.98c1.91-20.04,5.2-39.9401,9.37-59.63
		c5.15-22.88,14.32-44.6,24.25-65.75c8.63-17.74,17.48-35.41,27.61-52.35c2.2-4.2201,7.09-6.8301,11.79-6.62
		C750.7,1329.54,758.37,1329.34,766.01,1328.62 M755.66,1339.63c-6.81,12.9399-12.06,26.64-18.1,39.96
		c-0.78,2.03-2.06,4.14-1.5,6.42c1.39,0.8099,3.18,0.27,3.61-1.34c6.19-13.79,11.73-27.9,18.54-41.4c0.91-2.15,3.17-4.36,5.67-3.12
		c0.97,2.47,0.49,5.23,0.59,7.84c-0.39,9.39-1.45,18.75-2.81,28.0601c-0.5099,1.5,0.28,2.87,1.4901,3.7699
		c0.83-0.2699,1.59-0.6799,2.28-1.21c0.79-9.5599,2.27-19.0599,2.96-28.62c-0.07-4.08,0.68-8.49-1.19-12.26
		C764.15,1334.22,757.96,1336.15,755.66,1339.63z"/>
	<path fill="#130101" stroke="#130101" stroke-width="0.594" d="M755.66,1339.63c2.3-3.48,8.4901-5.41,11.54-1.9
		c1.87,3.77,1.12,8.1801,1.19,12.26c-0.69,9.5601-2.17,19.0601-2.96,28.62c-0.69,0.53-1.45,0.9401-2.28,1.21
		c-1.21-0.8999-2-2.2699-1.4901-3.7699c1.36-9.3101,2.42-18.67,2.81-28.0601c-0.1-2.61,0.38-5.37-0.59-7.84
		c-2.5-1.24-4.76,0.97-5.67,3.12c-6.81,13.5-12.35,27.61-18.54,41.4c-0.43,1.61-2.22,2.1499-3.61,1.34
		c-0.56-2.28,0.72-4.39,1.5-6.42C743.6,1366.27,748.85,1352.5699,755.66,1339.63z"/>
	<path opacity="0.49" fill="#171717" stroke="#171717" stroke-width="0.594" enable-background="new    " d="M366.02,1341.17
		c0.52-0.28,1.58-0.8401,2.1-1.12C367.6,1340.33,366.54,1340.89,366.02,1341.17z"/>
	<path fill="#FDC5C4" stroke="#FDC5C4" stroke-width="0.594" d="M838.36,1386.02c6.36,9.49,12.1,19.4299,19.23,28.4
		c4.04,5.6599,8.95,10.6899,12.75,16.5c-6.61,10.47-13.57,20.72-20.3701,31.0699c-4.6899,6.61-8.47,13.9301-13.7599,20.08
		c0.34-10.35,1.53-20.6599,1.46-31.0199C837.68,1429.37,838.52,1407.7,838.36,1386.02z"/>
	<path opacity="0.54" fill="#1F1F1F" stroke="#1F1F1F" stroke-width="0.594" enable-background="new    " d="M251.78,1434.9
		c0.37-0.4501,1.13-1.36,1.5-1.8101C252.91,1433.54,252.15,1434.45,251.78,1434.9z"/>
	<path opacity="0.52" fill="#1F1F1F" stroke="#1F1F1F" stroke-width="0.594" enable-background="new    " d="M240.92,1451.04
		c0.32-0.5,0.96-1.5,1.28-2C241.88,1449.54,241.24,1450.54,240.92,1451.04z"/>
	<path fill="#FFFFFF" stroke="#FFFFFF" stroke-width="0.594" d="M1227.01,1717.35c6.23-1.63,11.22-7.26,18.02-6.71
		c8.86,1.5699,15.76,8.76,24.9399,9.37c7.04,1.73,14.29-1.6801,21.17,0.98c2.25,0.67,5.9399,1.88,5.03,4.96
		c-2.4301,6.29-6.6001,12.0901-6.9501,19.05c-0.88,16.53,0.88,33.0699,0.4,49.62c-46.11,7.04-92.23,14.05-138.4301,20.45
		c-22.99,3.05-46,6.2201-69.1599,7.64c26.1799-24.0699,53.08-47.38,79.6-71.08c14.26-12.12,27.61-25.49,43.55-35.47
		c2.6699-1.5601,5.6399-3.28,8.86-2.7001C1218.3199,1714.9,1222.1801,1718.4301,1227.01,1717.35z"/>
	<path fill="#595959" stroke="#595959" stroke-width="0.594" d="M1273.38,1799.47c12.95-1.78,25.84-4.21,38.84-5.61
		c0.88,3.03-2.7899,3.2001-4.7899,3.67C1246.48,1808.83,1185.34,1819.09,1123.97,1827.86c-21.23,2.6901-42.51,5.9401-63.97,5.48
		c-28.21-0.09-56.35-2.73-84.36-5.89c-5.82-1.08-11.9-0.83-17.57-2.5699c-0.69-1.89-0.53-3.9401-0.24-5.85
		c2.5-1.25,5.42-0.36,8.11-0.4301c35.59,3.39,71.2499,7.05,107.06,6.73c25.16-0.62,50.09-4.33,75.03-7.4399
		C1189.87,1812.1801,1231.63,1805.87,1273.38,1799.47z"/>
</g>
</svg>
