<?xml version="1.0" encoding="utf-8"?>
<!DOCTYPE svg PUBLIC "-//W3C//DTD SVG 1.1//EN" "http://www.w3.org/Graphics/SVG/1.1/DTD/svg11.dtd">
<svg version="1.1" id="Layer_1" xmlns="http://www.w3.org/2000/svg" xmlns:xlink="http://www.w3.org/1999/xlink" x="0px" y="0px"
	 viewBox="0 0 1920 1916" enable-background="new 0 0 1920 1916" xml:space="preserve">
<g>
	<path fill="#FFFFFF" stroke="#FFFFFF" stroke-width="0.594" d="M835.86,692.33c20.3-0.72,40.2,3.99,60.27,6.27
		c-0.36,1.06-0.71,2.16-1.58,2.9301c-8.3,8.72-16.99,17.1-26.39,24.6299c-7,5.27-13.96,11.01-22.41,13.77
		c-5.23,2.76-10.95,4.4-16.65,5.89c4.28-2.45,8.78-4.9,11.72-8.99c5.11-7.11,5.82-16.51,4-24.86
		C843.61,704.79,840.98,697.65,835.86,692.33z"/>
	<path fill="#050201" stroke="#050201" stroke-width="0.594" d="M684.83,193.18c16.08-4.2,32.92-5.87,49.44-3.58
		c8.22,1.14,16.26,3.27,24.14,5.83c12.8,4.03,25.7401,7.81,39.03,9.85c33.32,4.53,67.08,4.02,100.44,8.22
		c17.61,2.75,34.08,10.04,50.15,17.46c3.5,1.73,7.3,3.08,10.23,5.75c20.15,18.14,40.04,36.76,57.26,57.77
		c7.34,8.7,12.86,18.69,18.5699,28.48c23.12,41.51,44.3401,84.04,67.29,125.64c9.12,16.38,18.24,32.79,28.73,48.35
		c10.8,15.66,25.36,28.33,41.05,38.92c15.36,10.34,30.96,20.68,43.7799,34.19c24.2401,26.02,43.3301,56.26,61.15,86.88
		c20.5,34.79,40.03,70.17,57.67,106.5c13.97,28.75,27.88,57.63,39.11,87.57c11.88,9.52,23.3101,19.62,35.4401,28.86
		c-0.5901,0.32-1.78,0.97-2.3701,1.29c-10.98-8.41-21.5099-17.3799-32.11-26.2599c0.67,2.81,1.42,5.61,2.12,8.43
		c-2.24-0.03-3.0199,1.84-3.35,3.78c-4.34-20.02-13.22-38.58-21.52-57.17c-11.6-26.21-24.87-51.64-37.58-77.33
		c-8.84-16.17-17.21-32.6-26.67-48.42c-13.1699-23.24-26.71-46.29-41.37-68.62c-7.88-11.05-15.7799-22.12-24.6599-32.4
		c-4.9501-5.36-9-11.62-14.8601-16.08c-8.9399-7.48-17.99-14.89-27.7599-21.26c-14.4701-9.53-28.7101-19.74-40.4501-32.58
		c-10.51-10.95-17.96-24.32-25.73-37.25c-9.12-15.42-17.49-31.26-26.09-46.97c-2.9601-6.19-6.9301-11.83-9.74-18.08
		c-3.29-7.21-7.78-13.78-11.03-21c-2.86-6.31-6.8-12.05-9.72-18.33c-2.2301-4.96-5.02-9.62-7.6801-14.34
		c-5.49-11.03-11.62-21.72-17.5-32.55c-6.5-11.19-13.16-22.45-21.91-32.07c-6.05-6.94-12.45-13.57-18.48-20.53
		c-4.19-4.82-9.2-8.81-13.87-13.13c-5.66-5.34-11.43-10.54-17.16-15.8c-6.06-5.85-14-9.04-21.52-12.52
		c-13.04-5.34-26.16-11.14-40.27-12.89c-22.96-3.09-46.14-3.7-69.22-5.4c-19.53-1.57-39.37-2.86-58.08-9.14
		c-19.33-5.83-39.3-12.67-59.79-10.13c-11.87,0.81-23.31,4.22-34.83,6.97c-18.8,5.2-37.2,11.93-56.34,15.81
		c-4.85,1.23-9.75-0.39-14.51-1.25c-5.62-1.08-10.97-3.2-16.59-4.24c-9.45-1.45-19.07-1.61-28.58-0.6
		c-20.21,1.23-40.73,4.32-59.17,13.1c-7.24,3.35-13.33,8.55-19.29,13.73c-5.25,4.07-9.56,9.13-13.83,14.19
		c-23.45,25.46-44.64,52.87-65.58,80.4c-3.95,4.86-5.1,11.14-7.16,16.88c-5.09,12.79-8.56,26.12-12.66,39.24
		c-6.59,21.74-11.95,43.84-15.89,66.21c-3.12,17.29-4.08,34.88-4.35,52.42c-1.04,11.35,0.21,22.72,0.26,34.08
		c1.56,46.37,6.46,92.61,14.09,138.37c6.73,40.17,16,79.91,28.1,118.8c4.29,15.67,9.79,30.95,14.81,46.39
		c19.96,59.67,43.6,118.07,69.44,175.43c2.3,5.8701,5.48,11.34,8,17.11c3.31,8.13,7.81,15.72,11.11,23.86
		c8.28,16.97,16.9,33.77,25.24,50.71c17.65,33.63,35.79,67.05,55.52,99.53c18.4,31.05,38.92,60.77,59.85,90.16
		c20.56,28.61,41.54,56.9299,63.31,84.64c52.75,68.12,107.83,134.4299,164.19,199.6c-1.3,0.7-2.57,1.4299-3.84,2.1599
		c-56.74-65.5399-112.06-132.34-165.2-200.84c-46.82-60.96-92.8-122.87-131.53-189.38c-44.18-76.02-83.04-155.11-116.79-236.3
		c-26.63-64.65-50.44-130.56-68.61-198.12c-18.45-70.62-28.47-143.35-31.74-216.18c-0.25-19.66-0.31-39.32,0.03-58.98
		c1.86-33,9.78-65.29,18.69-97.01c5.49-18.19,11.06-36.36,17.7-54.16c1.69-4.6,4.94-8.33,7.85-12.18
		c12.11-16.17,24.61-32.04,37.44-47.65c11.81-14.1,23.75-28.14,36.99-40.95c6.13-5.63,12.38-11.36,19.94-15.03
		c8.19-3.98,16.76-7.24,25.65-9.25c20.55-4.76,41.75-6.12,62.77-5.22c10.91,1.46,21.22,6.72,32.42,6.06
		c8.23-0.76,16.13-3.38,24.02-5.68C655.4,201.28,670.06,197.03,684.83,193.18z"/>
	<path fill="#050201" stroke="#050201" stroke-width="0.594" d="M848.42,263.44c2.81-0.73,5.68-2.22,8.67-1.53
		c6.11,1.2,11.72,4.02,17.36,6.57c18.37,7.74,36.14,16.84,53.54,26.55c19.3,11.25,38.15,24.12,52.58,41.4
		c17.36,19.66,32.72,40.97,47.2599,62.77c12.8101,18.78,24.8201,38.1,36.2301,57.77c3.8999,6.23,6.4099,13.25,10.75,19.22
		c3.0099,4.15,3.7,9.4,6.08,13.89c9.97,22.06,9.02,46.75,12.79,70.19c2.7599,19.23,11.36,37.4,23.6799,52.35
		c11.1801,13.12,23.67,25.04,35.23,37.82c5.51,6.12,10.02,13.06,13.41,20.57c10.16,19.2,14.6899,40.69,17.91,61.99
		c3.1899,17.52,5.5,35.19,6.9399,52.94c2.4301,27.95,4.11,55.95,5.65,83.96c1.76,24.68,2.17,49.46,4.54,74.11
		c1.2899,11.39,3.02,22.72,4.84,34.03c3.12,20.12,6.58,40.56,4.13,60.95c-1.02,8.29-2.8101,16.6901-7.05,23.99
		c-0.9199,2.1901-3.11,4.51-1.87,6.99c5.5,12.67,9.7001,25.85,15.4701,38.41c2.0499,4.05,3.0499,8.74,6.2899,12.11
		c1.38-7.9399,0.01-16.35,3.16-23.9399c1.5699,0.7799,3.46,1.3999,4.28,3.13c5.1,8.83,7.89,18.87,13.6899,27.33
		c1.71,2.33,5.0801,4.61,7.9401,2.88c5.2699-2.38,10.12-6.28,16.08-6.64c3.96-0.16,6.53,3.3,8.47,6.28
		c5.15,8.15,10.97,15.87,15.7001,24.2899c9.64,15.54,19.14,31.2101,30.0699,45.9c0.95,1.67,2.67,2.39,4.5701,2.41
		c0.9199-4.65,1.7699-9.4,1.1499-14.15c-0.99-8.2-1.27-16.47-2.35-24.66c-0.72-5.4199,0.86-10.75,2.01-15.99
		c3.08-0.7699,6.1,0.5901,8.09,2.9701c12.13,14.4399,22.53,30.1899,33.5601,45.46c10.9299,16,21.91,31.97,33.2999,47.65
		c5.3101,7.63,10.6901,15.24,16.5701,22.45c1.21,1.17,2.6799,3.37,4.5699,1.97c1.52-1.88,0.3401-4.36-0.08-6.3999
		c-7.5601-26.01-18.97-50.77-25.85-76.9801c-1.17-2.7999,2.9299-5.6599,4.9399-3.1799c4.7001,5.1699,7.8401,11.5599,11.61,17.4199
		c14.4401,25.17,28.7301,50.5601,46.14,73.8401c16.39,20.47,34.63,39.34,52.4,58.58c7.77,7.91,16.22,15.12,24.33,22.6801
		c1.8401,1.84,4.12,3.2,6.77,3.51c-0.1599-3.03-1-5.9701-2.74-8.4501c-10.5499-16.5599-20.78-33.4199-28.5599-51.49
		c-4.1001-10.4399-8.77-20.64-12.9701-31.03c-6.3199-15.6-13.4399-31.33-14.9299-48.2999c-0.03-4.9501-0.27-10.98,3.61-14.66
		c4.83-3.02,10.9399-2.6801,16.4-2.05c19.4399,2.8101,37.49,10.9901,55.5499,18.3201c17.8401,7.53,35.27,15.98,52.8,24.21
		c36.79,17.28,69.04,42.39,101.38,66.66c1.4399,1.37,3.39,1.1,5.1799,0.6899c-2.21-5.08-6.4199-8.7899-9.9399-12.9199
		c-8.3-9.42-16.88-18.61-24.3101-28.73c-8.6699-11.9601-19.12-22.63-26.5399-35.4701c-4.72-7.5699-7.16-16.26-9.17-24.87
		c-2.53-10.95-4.41-22.0599-5.38-33.26c-0.75-8.8899-1.7899-17.8099-0.9399-26.73c0.9099-10.72,1.6799-22.02,7.3199-31.48
		c4.35-8.1,13.11-12.21,21.04-16.01c-1.4,1.6-2.51,3.46-2.98,5.55c-3.67,2.85-7.9301,4.95-11.13,8.38
		c-5.03,5.0599-6.9601,12.21-8.4,18.99c-3.01,15.27-1.95,30.96-0.25,46.3099c2.73,17.9401,4.8,36.78,14.42,52.61
		c6.25,10.4501,14.7999,19.2401,21.97,29.03c10.38,14.42,22.75,27.22,34.45,40.55c3.99,4.77,8.62,9.21,11.25,14.95
		c1.67,2.76-1.9,6.3-4.6699,4.91c-4.03-1.4301-7.4-4.15-10.88-6.54c-32.65-24.0599-64.5801-49.83-101.4-67.4099
		c-29.5601-14.13-59.12-28.6101-90.3101-38.8601c-9.59-3-19.5599-6.2799-29.74-5.0199c-2.86,0.35-4.7,3.1699-5.0499,5.85
		c-1.02,7.7999,0.84,15.6,3.0499,23.0499c6.2101,19.8,15.1,38.6001,22.85,57.8301c7.63,19.87,19.5,37.6599,30.39,55.83
		c2.5801,4.5701,5.9,9,6.8401,14.28c0.7,3.37-3.3401,6.02-6.13,3.95c-7.38-4.35-13.42-10.5599-19.7001-16.2999
		c-13.4399-12.2301-25.71-25.64-38.25-38.75c-12.66-14.0601-25.5499-27.99-36.58-43.39c-10.62-15.03-20.09-30.8301-29.28-46.76
		c-6.13-10.26-11.6799-20.89-18.3199-30.8301c2.85,12.0701,7.8099,23.51,11.8099,35.2301c3.55,10.4299,7.59,20.6899,10.73,31.2699
		c1.5,5.3301,3.4701,10.7201,3.15,16.3501c0.03,2.83-3.4399,5.13-5.89,3.45c-5.2-3.39-8.5499-8.84-12.4399-13.53
		c-22.78-30.46-43.4-62.45-65.92-93.1c-4.7-6.12-9.04-12.63-14.71-17.91c-1.5,15.8101,2,31.53,1.13,47.3401
		c-0.16,2.9299-1.0801,6.5399-4.15,7.6799c-2.02,1.25-4.16-0.4399-5.76-1.61c-4.8199-4.2999-8.22-9.87-11.88-15.12
		c-12.77-19.05-23.86-39.1799-37-57.99c-1.64-1.83-3.0599-5.1-5.98-4.52c-6.35,1.3301-11.29,6.92-18.02,6.9401
		c-3.53,0.1699-6.5-2.27-8.34-5.05c-5.3201-7.85-8.66-16.78-12.66-25.3099c-1.14,7.5399,1.6,15.8099-2.27,22.7599
		c-1.99-0.2699-4.6,0.28-5.72-1.84c-4.09-6.6-6.95-13.88-9.9301-21.02c-3.84-9.59-8.11-19-11.74-28.6699
		c-9.76,14.97-23.01,27.5399-38.3199,36.75c-12.9,8-27.05,13.8199-41.46,18.48c-15.91,5.46-32.9601,4.88-49.54,4.8099
		c-8.03,0.2101-15.97-1.1799-23.99-1.0499c-56.07-3.3301-111.84-10.35-167.54-17.53c10.36,13.42,21.97,25.86,33.62,38.17
		c42.28,44.09,91.44,81.38,144.54,111.48c36.8199,20.49,76.97,34.1799,117.3199,45.88c76.4601,21.72,155,35.39,233.79,45.25
		c3.74,0.9,7.58,0.52,11.4,0.64c0.28,2.0599,0.4299,5.22-2.41,5.39c-19.85,4.2799-39.99,7.23-59.6899,12.1899
		c-6.7301,1.6-14.26,1.85-19.77,6.54c-6.15,5.21-11.24,11.5599-15.9601,18.0499c-3.3999,5.04-7.1799,10.39-7.5499,16.66
		c-0.52,3.01,2.6799,4.27,4.8099,5.46c13.5,6.37,28.03,10,42.38,13.92c11.0901,3.12,22.36,5.61,33.64,8.01
		c10.75,2.0699,21.42,4.91,32.39,5.66c9.86,0.6699,19.37-2.4601,28.6801-5.29c8.8199-2.78,18.1799-3.11,27.37-2.95
		c2.6699,0.0199,5.95,0.62,7.2,3.33c0.8101,2.5-0.86,4.88-2.5599,6.5599c-6.7101,6.6901-14.42,12.24-21.8301,18.1001
		c-8.39,6.2799-16.53,12.87-25.0499,18.97c-8.87,7.1799-19.2001,12.16-29.01,17.86c0.6599-2.63,2.1799-4.91,4.0499-6.85
		c5.0701-3.3201,10.55-5.98,15.5901-9.37c12.99-9.23,25.4399-19.1901,38.0699-28.89c5.38-4.8301,12.5601-8.1901,15.6899-15.0701
		c-8.8899-1.7899-17.96-0.13-26.62,1.9801c-9.8899,2.9099-19.96,5.75-30.2999,6.21c-30.3301-4.49-60.34-11.27-89.64-20.28
		c-8.7-3.01-17.8199-5.33-25.65-10.3099c-4.1699-2.26-3.6-7.9501-2.64-11.8501c2.52-7.6499,7.4301-14.25,12.36-20.5199
		c4.05-4.6001,7.27-10.15,12.7201-13.28c6.4099-4.55,14.4099-5.28,21.84-7.0601c11.01-2.5299,22.1-4.6799,33.16-6.9199
		c3.97-0.8301,8.1599-1.05,11.8199-2.9701c-2.41-0.62-4.84-1.1399-7.29-1.46c-33.9099-4.05-67.63-9.54-101.21-15.73
		c-45.42-8.53-90.6-18.65-134.85-32.09c-37.73-11.3501-74.9501-25.2001-109.2001-44.89
		c-49.2599-28.2101-94.6299-63.0901-134.84-103.16c-9.91-10.42-19.68-20.99-29.12-31.84c-24.26-27.86-45.91-57.89-66.22-88.7001
		c-11.3-16.99-22.15-34.29-31.7-52.3199c-28.87-56.81-48.22-117.88-64.68-179.28c-7.91-30.06-14.52-60.43-21.39-90.74
		c-2.2-10.27-3.1-20.75-4.01-31.19c-3.21-37.33-5.5-74.74-7.57-112.14c-1.25-8.24-0.39-16.59-1.31-24.85
		c-0.8199-8-0.34-16.04-0.67-24.05c-0.88-14.69-0.23-29.42-1.47-44.09c-1.29-12.97,1.06-25.92,0.91-38.9
		c0.62-27.84,1.84-55.92,8.34-83.12c1.42-5.99,3.4-11.95,6.77-17.14c5.53-8.26,11.85-16.14,19.81-22.19
		c13.66-11.63,29.48-20.24,45.2-28.69c9.99-4.39,19.69-9.45,29.97-13.17C813.6,274.69,830.99,268.97,848.42,263.44 M755,306.01
		c-17.32,9.92-34.42,21.33-46.63,37.41c-5.69,7.3-8.42,16.33-10.56,25.2c-3.44,15.58-4.7,31.52-5.99,47.38
		c0.18,7.7-1.33,15.31-1.09,23.01c-0.53,29.01-0.27,58.03,0.14,87.04c1.08,9.96,0.69,19.98,1.19,29.97
		c1.07,9.59,0.52,19.28,1.61,28.88c1.19,26.87,3.2,53.7,5.19,80.5099c1.06,5.15,0.32,10.46,1.4,15.61
		c0.89,4.45-0.43,9.24,1.46,13.49c17.4901-19.5,36.73-37.7,58.7-52.09c11.59-7.88,24.87-12.75,38.23-16.69
		c28.92-7.93,58.58-13.15,88.44-15.72c4.36-0.23,10.35-1.67,13.17,2.73c2.8,4.86,2.35,10.84,2.35,16.27
		c0.27,2.99-3.31,3.67-5.57,3.63c-12.02-0.32-24.03,0.04-36.04,0.26c-24.29,1.54-48.98,3.62-72,12.12
		c-6.79,2.46-13.09,6.02-19.39,9.49c-24.26,14.02-45.62,32.29-67.29,49.9c0.68,7.89,2.24,15.67,4.12,23.36
		c3.21,13.22,6.08,26.51,9.04,39.79c11.26,48.26,24.53,96.12,41.29,142.78c12.36,34.05,26.56,67.58,44.92,98.87
		c21.23,34.79,44.25,68.5099,69.59,100.44c40.45,5.91,81.06,10.66,121.74,14.6c15.34,1.3,30.62,3.03,46.02,3.64
		c6.9299,1.0599,13.97,0.71,20.97,0.99c11.62,0.97,23.34,1.11,34.96-0.02c6.88-0.03,13.72-1.29,20.2101-3.5599
		c19.33-5.99,38.21-14.38,54.1799-26.9801c13.22-10.34,23.75-23.8899,30.9501-39.0199c4.3099-10.17,6.6399-21.2301,6.3899-32.3
		c0.4301-15.13-2.25-30.07-4.4399-44.98c-3.1-20.82-6.63-41.67-7-62.74c-1.1901-6.8701-0.53-13.8701-1.12-20.78
		c-1.3-7.6-0.3201-15.35-1.4501-22.96c-1.4299-28.04-3.1699-56.08-5.4199-84.06c-1.35-16.9-3.4-33.74-6.27-50.46
		c-2.3101-14.18-4.1-28.54-8.47-42.27c-5.23-17.15-12.5601-34.14-24.73-47.56c-14.4-15.94-31.3301-29.87-42.64-48.38
		c-3.77-5.62-6.49-11.81-9.37-17.89c-0.8,3.8-0.61,7.9-2.5801,11.37c-3.1699,6.01-8.96,10-14.8099,13.12
		c-13.4501,7.45-27.9,12.84-42.49,17.56c-6.1801,2.29-12.58,4.04-18.45,7.0601c-1.84-6.53-1.25-13.34-1.34-20.03
		c-0.15-8.27,0.68-16.69,3.48-24.51c2.56-7.08,8.29-12.33,14.13-16.79c5.1-3.92,11.64-5.24,16.76-9.13c8.23-2.06,15.99-6,24.48-7.03
		c5.23,0.34,9.9401,3.02,14.4301,5.55c-2.0601-14.63-2.55-29.4301-4.79-44.03c-1.6799-11.12-5.46-21.8-9.95-32.06
		c-6.15,3.45-12.4501,7.1-17.04,12.55c-3.84,4.98-7.02,10.44-10.1,15.9c-10.28,19.31-21.39,38.16-31.55,57.52
		c-0.8199,1.9-1.72,4-4,4.42c-4.23-2.31-6.67-6.97-7.83-11.48c-1.08-8.7599,3.34-16.86,7.35-24.31
		c9.08-17.46,20.46-33.77,34.38-47.73c7.03-6.98,13.5699-14.82,22.27-19.81c-19.65-35.81-41.8201-70.24-66.05-103.12
		c-15.44-20.26-31.17-41.02-52.2401-55.8c-28.35-20.03-59.97-34.87-91.91-48.19c-1.54-0.9-3.21,0.23-4.73,0.52
		C819.34,276.51,785.95,288.85,755,306.01 M1036.1899,574.93c9.1101,0.37,15.15,7.98,20.6901,14.23c0.85,4.63,2.09,9.44,0.8,14.1201
		c-1.41,5.5-2.53,11.79-7.37,15.42c9.61-5.61,22.59-6.28,29.36-16.05c5.35-7.04,10.5199-15.45,9.6-24.65
		c-0.42-3.21-3.65-4.88-6.37-5.9c-10.55-3.65-21.88-3.92-32.92-3.27C1044.9301,569.52,1040.33,572.07,1036.1899,574.93
		 M1031.7,580.69c-2.1499,2.14-4.73,4.12-5.96,6.94c-0.38,4.73-3.59,8.65-3.68,13.44c-0.49,6.97-2.17,13.96-1.09,20.96
		c4.65,0.84,8.4401-2.89,13.02-2.77c4.86-0.05,10.14,0.03,14.27-2.97c1.89-1.13,1.72-3.56,2.1899-5.44
		c1.2001-0.56,3.0901-0.91,2.9301-2.63c0.42-5.8199,2.47-11.95-0.02-17.5699c-3.36-6.3-9.65-11.05-16.73-12.2
		C1034.64,577.78,1033.09,579.6,1031.7,580.69 M851.79,619.57c-10.89,0.96-21.62,3.23-32.19,6c-9.0099,2.24-18.3,3.6-26.98,7.01
		c-7.9,2.64-16.09,5.22-22.93,10.11c-2.73,3.03-7.01,3.4-10.12,5.86c-7.58,5.72-15.37,11.21-22.42,17.59
		c-3.1,2.8-6.85,5.07-9.04,8.74c0.26,0.21,0.79,0.65,1.05,0.87c4.66-1.8,8.2-5.53,12.28-8.29c8.91-7.03,18.29-13.56,28.55-18.48
		c11.69-5.96,23.53-12.63,36.78-14.22c8.03-1.51,16.04-3.41,24.25-3.74c5.73-0.17,11.22-2.29,16.99-1.99
		c16.56-1.8,33.25-0.5601,49.87-1.14c-0.03-4.15,1.33-9.55-2.21-12.62c-3.5-0.81-7.15-0.42-10.71-0.27
		C873.84,615.92,862.73,617.33,851.79,619.57z"/>
	<path fill="#050201" stroke="#050201" stroke-width="0.594" d="M1040.47,550.49c7.48-5.44,15.72-9.98,24.5901-12.69
		c6.1399-0.89,12.7-0.09,18.2599,2.69c0.1901,0.35,0.5701,1.05,0.76,1.4c-6.0599,0.41-11.7999-3.48-17.95-1.77
		c-9.58,2.71-18.22,8-26.14,13.91c-9.8,7.72-15.38,19.1899-21.25,29.87c-2.1,2.0699-2.8-1.33-1.42-2.6
		C1023.33,569.97,1029.66,557.99,1040.47,550.49z"/>
	<path fill="#71553F" stroke="#71553F" stroke-width="0.594" d="M709.94,193.12c20.49-2.54,40.46,4.3,59.79,10.13
		c18.71,6.28,38.55,7.57,58.08,9.14c23.08,1.7,46.26,2.31,69.22,5.4c14.11,1.75,27.23,7.55,40.27,12.89
		c7.52,3.48,15.46,6.67,21.52,12.52c5.73,5.26,11.5,10.46,17.16,15.8c4.67,4.32,9.68,8.31,13.87,13.13
		c6.03,6.96,12.4301,13.59,18.48,20.53c8.75,9.62,15.41,20.88,21.91,32.07c5.88,10.83,12.01,21.52,17.5,32.55
		c2.66,4.72,5.45,9.38,7.6801,14.34c2.9199,6.28,6.86,12.02,9.72,18.33c3.25,7.22,7.74,13.79,11.03,21
		c2.8099,6.25,6.7799,11.89,9.74,18.08c8.6,15.71,16.97,31.55,26.09,46.97c7.77,12.93,15.22,26.3,25.73,37.25
		c11.74,12.84,25.98,23.05,40.4501,32.58c9.7699,6.37,18.8199,13.78,27.7599,21.26c5.8601,4.46,9.91,10.72,14.8601,16.08
		c8.88,10.28,16.7799,21.35,24.6599,32.4c14.66,22.33,28.2001,45.38,41.37,68.62c9.4601,15.82,17.8301,32.25,26.67,48.42
		c12.71,25.69,25.98,51.12,37.58,77.33c8.3,18.59,17.1801,37.15,21.52,57.17c3.5801,17.34,6.29,35.13,13.9501,51.27
		c9.72,19.82,20.2899,39.51,34.6499,56.43c4.55,5.12,8.8501,10.46,13.41,15.59c12.03,10.78,24.33,21.39,38.12,29.9
		c24.3201,16.41,50.3101,30.09,76.22,43.77c16.25,7.2101,32.04,15.6101,49.04,21.01c9.34,3.38,19.12,5.6001,29.0601,6.17
		c7.5299,0.28,15.0699,1.4399,22.61,0.46c13.76-0.6499,27.46-2.09,41.1-4.0299c6.8-0.76,13.8099-2.7201,20.5699-0.5701
		c-2.0699,1.91-4.58,3.26-7.3199,3.9c-10.96,2.88-21.92,5.98-32.24,10.72c-7.9301,3.8-16.6901,7.91-21.04,16.01
		c-5.64,9.46-6.41,20.76-7.3199,31.48c-0.85,8.92,0.1899,17.8401,0.9399,26.73c0.97,11.2001,2.85,22.3101,5.38,33.26
		c2.01,8.61,4.4501,17.3,9.17,24.87c7.4199,12.8401,17.87,23.51,26.5399,35.4701c7.4301,10.12,16.01,19.3099,24.3101,28.73
		c3.52,4.13,7.73,7.84,9.9399,12.9199c-1.7899,0.41-3.74,0.6801-5.1799-0.6899c-32.34-24.27-64.59-49.38-101.38-66.66
		c-17.53-8.23-34.96-16.6799-52.8-24.21c-18.0599-7.33-36.11-15.51-55.5499-18.3201c-5.4601-0.63-11.5701-0.97-16.4,2.05
		c-3.88,3.6801-3.64,9.71-3.61,14.66c1.49,16.97,8.61,32.7,14.9299,48.2999c4.2001,10.39,8.87,20.5901,12.9701,31.03
		c7.7799,18.0701,18.01,34.9301,28.5599,51.49c1.74,2.48,2.5801,5.42,2.74,8.4501c-2.65-0.3101-4.9299-1.67-6.77-3.51
		c-8.11-7.5601-16.5599-14.77-24.33-22.6801c-17.77-19.24-36.01-38.11-52.4-58.58c-17.4099-23.28-31.7-48.67-46.14-73.8401
		c-3.7699-5.86-6.9099-12.25-11.61-17.4199c-2.01-2.48-6.11,0.38-4.9399,3.1799c6.88,26.2101,18.2899,50.9701,25.85,76.9801
		c0.42,2.0399,1.6,4.5199,0.08,6.3999c-1.89,1.4-3.36-0.7999-4.5699-1.97c-5.88-7.21-11.26-14.8199-16.5701-22.45
		c-11.3899-15.6801-22.37-31.65-33.2999-47.65c-11.03-15.27-21.4301-31.02-33.5601-45.46c-1.99-2.38-5.01-3.74-8.09-2.9701
		c-1.15,5.24-2.73,10.5701-2.01,15.99c1.08,8.1901,1.36,16.4601,2.35,24.66c0.62,4.75-0.23,9.5-1.1499,14.15
		c-1.9-0.02-3.6201-0.74-4.5701-2.41c-10.9299-14.6899-20.4299-30.36-30.0699-45.9c-4.7301-8.4199-10.55-16.1399-15.7001-24.2899
		c-1.9399-2.98-4.51-6.4401-8.47-6.28c-5.96,0.36-10.8101,4.26-16.08,6.64c-2.86,1.73-6.2301-0.55-7.9401-2.88
		c-5.7999-8.46-8.59-18.5-13.6899-27.33c-0.8201-1.7301-2.7101-2.3501-4.28-3.13c-3.15,7.59-1.78,16-3.16,23.9399
		c-3.24-3.37-4.24-8.0599-6.2899-12.11c-5.77-12.5601-9.9701-25.74-15.4701-38.41c-1.24-2.48,0.9501-4.7999,1.87-6.99
		c4.24-7.2999,6.03-15.7,7.05-23.99c2.45-20.39-1.01-40.83-4.13-60.95c-1.8199-11.31-3.55-22.64-4.84-34.03
		c-2.37-24.65-2.78-49.43-4.54-74.11c-1.54-28.01-3.22-56.01-5.65-83.96c-1.4399-17.75-3.75-35.42-6.9399-52.94
		c-3.2201-21.3-7.75-42.79-17.91-61.99c-3.39-7.51-7.9-14.45-13.41-20.57c-11.5599-12.78-24.0499-24.7-35.23-37.82
		c-12.3199-14.95-20.92-33.12-23.6799-52.35c-3.77-23.44-2.8201-48.13-12.79-70.19c-2.38-4.49-3.0701-9.74-6.08-13.89
		c-4.3401-5.97-6.8501-12.99-10.75-19.22c-11.41-19.67-23.42-38.99-36.2301-57.77c-14.54-21.8-29.9-43.11-47.2599-62.77
		c-14.43-17.28-33.28-30.15-52.58-41.4c-17.4-9.71-35.17-18.81-53.54-26.55c-5.64-2.55-11.25-5.37-17.36-6.57
		c-2.9901-0.69-5.86,0.8-8.67,1.53c-17.43,5.53-34.82,11.25-51.71,18.27c-10.28,3.72-19.98,8.78-29.97,13.17
		c-15.72,8.45-31.54,17.06-45.2,28.69c-7.96,6.05-14.28,13.93-19.81,22.19c-3.37,5.19-5.35,11.15-6.77,17.14
		c-6.5,27.2-7.72,55.28-8.34,83.12c0.15,12.98-2.2,25.93-0.91,38.9c1.24,14.67,0.59,29.4,1.47,44.09
		c0.33,8.01-0.15,16.05,0.67,24.05c0.92,8.26,0.06,16.61,1.31,24.85c2.07,37.4,4.36,74.81,7.57,112.14
		c0.91,10.44,1.81,20.92,4.01,31.19c6.87,30.31,13.48,60.68,21.39,90.74c16.46,61.4,35.81,122.47,64.68,179.28
		c9.55,18.03,20.4,35.33,31.7,52.3199c20.31,30.8101,41.96,60.8401,66.22,88.7001c9.44,10.85,19.21,21.4199,29.12,31.84
		c40.21,40.0699,85.58,74.95,134.84,103.16c34.25,19.6899,71.4701,33.5399,109.2001,44.89
		c44.25,13.4399,89.4299,23.5599,134.85,32.09c33.58,6.1899,67.3,11.6799,101.21,15.73c2.4501,0.3201,4.88,0.84,7.29,1.46
		c-3.66,1.92-7.85,2.14-11.8199,2.9701c-11.0601,2.24-22.15,4.39-33.16,6.9199c-7.4301,1.78-15.4301,2.51-21.84,7.0601
		c-5.4501,3.13-8.67,8.6799-12.7201,13.28c-4.9299,6.2699-9.84,12.87-12.36,20.5199c-0.96,3.9-1.5299,9.5901,2.64,11.8501
		c7.8301,4.98,16.9501,7.2999,25.65,10.3099c29.3,9.01,59.3099,15.79,89.64,20.28c10.34-0.46,20.41-3.3,30.2999-6.21
		c8.66-2.1101,17.7301-3.77,26.62-1.9801c-3.1299,6.88-10.3099,10.24-15.6899,15.0701c-12.63,9.7-25.08,19.66-38.0699,28.89
		c-5.04,3.39-10.52,6.0499-15.5901,9.37c-7.5,3.85-14.61,8.5599-20.61,14.5c-4.1,4.09-6.88,10.08-5.52,15.9299
		c1.6901,7.5701,7.4601,13.13,12.01,19.0801c4.51,6.13,11.0701,10.22,16.49,15.47c8.88,7.38,17.27,15.5,27.25,21.42
		c-2.51,1.6899-5.52,2.1-8.46,2.0499c-10.99,0.23-21.99-0.0699-32.95,0.6801c-7.0701,0.49-14.4401-0.3401-21.2301,1.96
		c-1.49,1.92-2.2699,4.3101-3.85,6.16c-2.4099,1.21-5.14,0.11-7.59-0.28c-10.51-2.1801-20.77-5.45-30.78-9.29
		c-16.6-7.87-28.75-22.46-44.63-31.4099c-2.28-1.99-5.48,1.08-4.49,3.58c2.5,9.46,7.86,17.76,12.77,26.1
		c3.36,6.47,7.6899,12.34,11.66,18.4301c5.3199,7.87,10.45,15.97,17.15,22.7899c15.8099,17.2201,33.08,33.14,51.6699,47.3301
		c1.91,1.47,3.14,3.59,4.3301,5.6699c-5.5901,1.42-11.15-0.5399-16.65-1.3199c-31.6901-4.99-62.9601-12.47-94.75-16.8199
		c-7.4601,0.21-12.7201,6.4199-18.3201,10.5499c-3.6699,2.9501-8.6799,3.26-13.13,2.39c-22.9299-4.34-45.23-11.33-67.7999-17.1801
		c-40.85-11.8899-81.91-23.2699-121.79-38.1699c-9.86-3.64-19.92-6.9-29.25-11.8101c-6.93-3.1699-13.19-7.59-20.12-10.74
		c-4.84-2.1899-9.44-5.1-14.66-6.3099c-2.9-0.75-6.29,1.52-6.33,4.61c-0.07,4.02,1.66,7.78,3.16,11.4299
		c4.97,11.27,12.07,21.4301,17.66,32.38c1.3,2.1901,1,6.4301-1.97,6.9c-5.86-3.99-10.77-9.2-16.12-13.8199
		c-14.84-13.52-29.64-27.0901-44.83-40.2001c-6.16-5.23-12.28-10.5299-18.93-15.12c-2.57-1.65-5.71-3.58-8.85-2.38
		c-2.44,0.6801-3.55,3.16-4.56,5.24c-1.61,3.1001-2.86,6.38-3.49,9.8301c-1.13,6.09-2.42,12.37-1.17,18.5499
		c0.66,3.3,0.92,6.6801,0.47,10.04c-1.58-0.48-3.36-0.76-4.4-2.16c-8.84-10.5699-18.11-20.7799-27.15-31.1799
		c-56.36-65.17-111.44-131.48-164.19-199.6c-21.77-27.7101-42.75-56.03-63.31-84.64c-20.93-29.39-41.45-59.11-59.85-90.16
		c-19.73-32.48-37.87-65.9-55.52-99.53c-8.34-16.9399-16.96-33.74-25.24-50.71c-3.3-8.14-7.8-15.73-11.11-23.86
		c-2.52-5.77-5.7-11.24-8-17.11c-25.84-57.36-49.48-115.76-69.44-175.43c-5.02-15.44-10.52-30.72-14.81-46.39
		c-12.1-38.89-21.37-78.63-28.1-118.8c-7.63-45.76-12.53-92-14.09-138.37c-0.05-11.36-1.3-22.73-0.26-34.08
		c0.27-17.54,1.23-35.13,4.35-52.42c3.94-22.37,9.3-44.47,15.89-66.21c4.1-13.12,7.57-26.45,12.66-39.24
		c2.06-5.74,3.21-12.02,7.16-16.88c20.94-27.53,42.13-54.94,65.58-80.4c4.27-5.06,8.58-10.12,13.83-14.19
		c5.96-5.18,12.05-10.38,19.29-13.73c18.44-8.78,38.96-11.87,59.17-13.1c9.5099-1.01,19.1299-0.85,28.58,0.6
		c5.62,1.04,10.97,3.16,16.59,4.24c4.76,0.86,9.66,2.48,14.51,1.25c19.14-3.88,37.54-10.61,56.34-15.81
		C686.63,197.34,698.07,193.93,709.94,193.12z"/>
	<path fill="#FFE4CF" stroke="#FFE4CF" stroke-width="0.594" d="M755,306.01c30.95-17.16,64.34-29.5,98.21-39.54
		c1.52-0.29,3.19-1.42,4.73-0.52c31.94,13.32,63.56,28.16,91.91,48.19c21.07,14.78,36.8,35.54,52.2401,55.8
		c24.2299,32.88,46.4,67.31,66.05,103.12c-8.7001,4.99-15.24,12.83-22.27,19.81c-13.92,13.96-25.3,30.27-34.38,47.73
		c-4.01,7.45-8.43,15.55-7.35,24.31c1.16,4.51,3.6,9.17,7.83,11.48c2.28-0.42,3.1801-2.52,4-4.42
		c10.16-19.36,21.27-38.21,31.55-57.52c3.08-5.46,6.26-10.92,10.1-15.9c4.59-5.45,10.89-9.1,17.04-12.55
		c4.49,10.26,8.27,20.94,9.95,32.06c2.24,14.6,2.73,29.4,4.79,44.03c-4.49-2.53-9.2001-5.21-14.4301-5.55
		c-8.49,1.03-16.25,4.97-24.48,7.03c-5.12,3.89-11.66,5.21-16.76,9.13c-5.84,4.46-11.57,9.71-14.13,16.79
		c-2.8,7.82-3.63,16.24-3.48,24.51c0.09,6.69-0.5,13.5,1.34,20.03c5.87-3.02,12.27-4.77,18.45-7.0601
		c14.59-4.72,29.0399-10.11,42.49-17.56c5.85-3.12,11.64-7.11,14.8099-13.12c1.9701-3.47,1.78-7.57,2.5801-11.37
		c2.88,6.08,5.6,12.27,9.37,17.89c11.3099,18.51,28.24,32.44,42.64,48.38c12.1699,13.42,19.5,30.41,24.73,47.56
		c4.37,13.73,6.1599,28.09,8.47,42.27c2.87,16.72,4.92,33.56,6.27,50.46c2.25,27.98,3.99,56.02,5.4199,84.06
		c1.13,7.61,0.15,15.36,1.4501,22.96c0.59,6.91-0.0701,13.91,1.12,20.78c0.37,21.0699,3.9,41.92,7,62.74
		c2.1899,14.91,4.87,29.85,4.4399,44.98c0.25,11.0699-2.08,22.13-6.3899,32.3c-7.2001,15.13-17.7301,28.6799-30.9501,39.0199
		c-15.97,12.6001-34.85,20.9901-54.1799,26.9801c-6.4901,2.2699-13.3301,3.5299-20.2101,3.5599c-11.62,1.13-23.34,0.99-34.96,0.02
		c-7-0.28-14.04,0.0699-20.97-0.99c-15.4-0.61-30.6801-2.34-46.02-3.64c-40.68-3.9399-81.29-8.6899-121.74-14.6
		c-25.34-31.9301-48.36-65.65-69.59-100.44c-18.36-31.29-32.56-64.82-44.92-98.87c-16.76-46.66-30.03-94.52-41.29-142.78
		c-2.96-13.28-5.83-26.57-9.04-39.79c-1.88-7.69-3.44-15.47-4.12-23.36c21.67-17.61,43.03-35.8799,67.29-49.9
		c6.3-3.47,12.6-7.03,19.39-9.49c23.02-8.5,47.71-10.58,72-12.12c12.01-0.22,24.02-0.58,36.04-0.26c2.26,0.04,5.84-0.64,5.57-3.63
		c0-5.43,0.45-11.41-2.35-16.27c-2.82-4.4-8.81-2.96-13.17-2.73c-29.86,2.57-59.52,7.79-88.44,15.72
		c-13.36,3.94-26.64,8.81-38.23,16.69c-21.97,14.39-41.21,32.59-58.7,52.09c-1.89-4.25-0.5699-9.04-1.46-13.49
		c-1.08-5.15-0.34-10.46-1.4-15.61c-1.99-26.81-4-53.64-5.19-80.5099c-1.09-9.6-0.54-19.29-1.61-28.88
		c-0.5-9.99-0.11-20.01-1.19-29.97c-0.41-29.01-0.67-58.03-0.14-87.04c-0.24-7.7,1.27-15.31,1.09-23.01
		c1.29-15.86,2.55-31.8,5.99-47.38c2.14-8.87,4.87-17.9,10.56-25.2C720.58,327.34,737.68,315.93,755,306.01 M1040.47,550.49
		c-10.8099,7.5-17.14,19.48-23.15,30.81c-1.38,1.27-0.68,4.67,1.42,2.6c5.87-10.6801,11.45-22.15,21.25-29.87
		c7.92-5.91,16.5601-11.2,26.14-13.91c6.15-1.71,11.89,2.18,17.95,1.77c-0.1899-0.35-0.5699-1.05-0.76-1.4
		c-5.5599-2.78-12.12-3.58-18.2599-2.69C1056.1899,540.51,1047.95,545.05,1040.47,550.49 M995.64,593.94
		c0.91,10.86,2.47,21.68,4.89,32.31c2.49,11.3,5.53,22.7,11.5,32.71c3.3199,5.8,8.03,10.59,12.65,15.35
		c8.8999,8.83,18.62,16.78,28.5099,24.48c13.3701,10.66,27.7201,20.1,40.4301,31.58c6.47,5.52,13.3199,10.65,19.12,16.91
		c4.12,4.23,5.09,10.3,6.2,15.86c0.15,1.74,0.8501,3.78-0.3999,5.31c-2.73,3.97-5.65,7.84-7.9301,12.09
		c-4.76,8.53-2.86,19.07-7.45,27.65c-2.9501,4.56-8.8201,5.6-13.6801,6.98c-3.3099,0.23-6.88,2.5-9.97,0.45
		c-6.8-3.18-14.65-6.73-22.21-4.35c-6.88,2.93-12.29,8.35-17.7301,13.31c-1.85,2-4.62,3.65-4.7799,6.65
		c2.23-0.11,3.6499-1.9,5.12-3.33c5.3199-5.37,11.0299-10.59,17.76-14.14c8.6-2.64,16.6,2.64,24.3199,5.65
		c7.74-2.05,16.9401-2.39,22.59-8.83c5.28-7.95,3.66-18.2,7.26-26.77c2.03-4.13,4.52-8.04,7.26-11.73
		c1.0701-1.56,2.88-2.93,2.64-5.03c-0.28-6.04-1.63-12.12-4.28-17.57c-3.71-6.11-9.6799-10.34-14.95-15
		c-7.5701-6.09-14.58-12.87-22.49-18.54c-16.66-12.56-33.6-24.86-48.99-38.99c-7.3701-7.08-15-14.37-19.25-23.84
		c-5.09-10.43-7.83-21.78-9.96-33.12c-1.65-9.35-3.23-18.73-3.7-28.21C995.98,591.07,995.15,591.79,995.64,593.94 M837.91,667.89
		c-15.77,2.29-30.29,9.76-43.2,18.84c-11.17,8.44-20.13,19.37-28.6,30.41c-0.98,1.36-3.16,4.14-0.17,4.51
		c6.69-9.1,13.82-17.92,21.97-25.76c8.46-8.37,18.9301-14.39,29.64-19.41c12.07-5.07,25.3-7.99,38.43-6.85
		c12.51,1.88,24.75,5.43,36.58,9.88c3.44,1.2,6.67,3.33,10.44,3.32c-0.53-3.03-4.01-3.32-6.29-4.46
		c-12.89-4.73-25.9901-9.29-39.65-11.12C850.68,667.06,844.21,666.7,837.91,667.89 M804.36,695.35
		c-9.45,5.6801-16.01,14.78-22.71,23.3c-8.26,10.87-16.02,22.11-23.52,33.5c-2.01,3.31-4.26,7.46-2.2,11.27
		c5.48,0,10.88-1.13,16.3-1.83c24.42-3.41,48.74-7.9,72.36-15.07c11.77-3.46,21.85-10.95,30.8-19.11
		c8.59-8.11,16.56-16.86,23.86-26.14c1.53-1.65,1.85-3.8,1.47-5.95c-1.28-0.51-2.54-1.05-3.84-1.42
		c-17.48-3.77-35.05-7.4301-52.89-9.03C830.15,684.11,815.89,687.49,804.36,695.35 M989.6,824.62c-0.56,3.7,1.19,7.22,1.85,10.8
		c1.32,4.62,1.63,10.23,5.65,13.47c8.35,5.81,18.88,7.48,28.84,6.24c0.1001-0.53,0.3101-1.58,0.42-2.11
		c-8.76,0.48-17.92-0.19-25.62-4.79c-6.54-3.49-6.02-11.98-7.99-18.17C991.93,828.31,992.36,823.91,989.6,824.62 M1172.8199,861.8
		c-10.71,7.67-21.7599,14.88-32.4399,22.59c-7.95,7.72-14.89,16.45-23.3,23.71c-6.85,6.37-16.2,8.84-23.63,14.38
		c-29.47,21.07-58.48,42.79-87.6899,64.23c-1.75,0.86-2.15,2.69-2.43,4.46c4.82,1.89,10.07,2.1,15.1,3.22
		c11.17,1.88,22.36,3.75,33.6301,4.98c12.5399,1.93,25.2899,1.07,37.9199,0.91c10.26-1.22,20.64-1.54,30.8101-3.52
		c7.02-2.16,13.4399-5.87,20.1699-8.79c7.67-3.15,12.14-10.56,17.91-16.1c4.22-4.83,10.25-7.82,13.76-13.28
		c6.28-9.19,7.17-20.79,7.77-31.57c1.98-17.23-0.4-34.51-1.78-51.68c-1.04-5.08-0.45-10.33-1.73-15.36
		C1175.42,860.33,1174,860.84,1172.8199,861.8z"/>
	<path fill="#FEFEFE" stroke="#FEFEFE" stroke-width="0.594" d="M1036.1899,574.93c4.14-2.86,8.7401-5.41,13.79-6.1
		c11.04-0.65,22.37-0.38,32.92,3.27c2.72,1.02,5.95,2.69,6.37,5.9c0.9199,9.2-4.25,17.61-9.6,24.65
		c-6.77,9.77-19.75,10.44-29.36,16.05c4.84-3.63,5.96-9.92,7.37-15.42c1.2899-4.6801,0.0499-9.4901-0.8-14.1201
		C1051.34,582.91,1045.3,575.3,1036.1899,574.93z"/>
	<path fill="#FEFEFE" stroke="#FEFEFE" stroke-width="0.594" d="M1769.24,1016.15c13.97-1.9,27.41-6.4301,41.1901-9.19
		c-3.55,1.86-7.5601,2.49-11.3501,3.66c-9.74,2.91-19.6799,5.12-29.7,6.78L1769.24,1016.15z"/>
	<path fill="#FEFEFE" stroke="#FEFEFE" stroke-width="0.594" d="M1727.85,1142.58c2.26,1.12,4.3201,2.6001,6.47,3.9601
		c3.05,3.02,6.5,5.58,10.01,8.0599c0.29,0.2001,0.88,0.62,1.17,0.8201c3.03,2.99,6.41,5.58,9.8199,8.12
		c0.41,0.33,0.8401,0.6699,1.28,1.0399c1.91,1.6901,3.77,3.4801,5.63,5.27l-1.2999,0.23
		C1749.9,1160.9301,1739.41,1151.08,1727.85,1142.58z"/>
	<path fill="#0D0D0D" stroke="#0D0D0D" stroke-width="0.594" d="M1031.7,580.69c1.39-1.09,2.9401-2.91,4.9301-2.24
		c7.08,1.15,13.37,5.9,16.73,12.2c2.49,5.62,0.4401,11.75,0.02,17.5699c0.16,1.72-1.73,2.07-2.9301,2.63
		c-0.47,1.88-0.2999,4.31-2.1899,5.44c-4.13,3-9.41,2.92-14.27,2.97c-4.58-0.12-8.37,3.61-13.02,2.77
		c-1.08-7,0.6-13.9901,1.09-20.96c0.09-4.79,3.3-8.71,3.68-13.44C1026.97,584.81,1029.55,582.83,1031.7,580.69z"/>
	<path fill="#0D0D0D" stroke="#0D0D0D" stroke-width="0.594" d="M820.41,696.42c4.04-1.53,8.71-3.81,12.97-1.8
		c5.9,4.54,7.79,12.26,8.93,19.27c1.87,8.2-0.15,17.35-5.64,23.78c-3.5,3.23-7.83,5.55-12.46,6.68
		c-5.88,1.89-11.94,3.4301-18.13,3.6801c-4.39-2.34-9.29-1.91-14.08-2c-5.15-0.8701-11.32-1.22-14.43-6.0601
		c3.49-7.79,9.84-13.72,15.03-20.35c4.44-5.85,10.1801-10.49,14.98-16.02C810.82,699.66,815.97,698.46,820.41,696.42z"/>
	<path fill="#0D0D0D" stroke="#0D0D0D" stroke-width="0.594" d="M1730.76,1478.45c4.74-2.61,7.35-7.7699,11.97-10.5499
		c-1.35,4.46-5.33,7.21-8.37,10.47c-5.4399,5.6-11.24,10.84-17.4,15.64C1720.02,1487.72,1725.16,1482.52,1730.76,1478.45z"/>
	<path fill="#080100" stroke="#080100" stroke-width="0.594" d="M995.64,593.94c-0.49-2.15,0.34-2.87,2.48-2.16
		c0.47,9.48,2.05,18.86,3.7,28.21c2.13,11.34,4.87,22.69,9.96,33.12c4.25,9.47,11.8799,16.76,19.25,23.84
		c15.39,14.13,32.33,26.43,48.99,38.99c7.91,5.67,14.9199,12.45,22.49,18.54c5.27,4.66,11.24,8.89,14.95,15
		c2.65,5.45,4,11.53,4.28,17.57c0.24,2.1-1.5699,3.47-2.64,5.03c-2.74,3.69-5.23,7.6-7.26,11.73c-3.6,8.57-1.98,18.82-7.26,26.77
		c-5.6499,6.44-14.85,6.78-22.59,8.83c-7.72-3.0099-15.72-8.29-24.3199-5.65c-6.7301,3.55-12.4401,8.77-17.76,14.14
		c-1.4701,1.43-2.89,3.22-5.12,3.33c0.1599-3,2.9299-4.65,4.7799-6.65c5.4401-4.96,10.8501-10.38,17.7301-13.31
		c7.5599-2.38,15.4099,1.17,22.21,4.35c3.09,2.05,6.66-0.22,9.97-0.45c4.86-1.38,10.73-2.42,13.6801-6.98
		c4.59-8.58,2.6899-19.12,7.45-27.65c2.28-4.25,5.2001-8.12,7.9301-12.09c1.25-1.53,0.5499-3.57,0.3999-5.31
		c-1.11-5.56-2.08-11.63-6.2-15.86c-5.8-6.26-12.65-11.39-19.12-16.91c-12.71-11.48-27.0599-20.92-40.4301-31.58
		c-9.8899-7.7-19.61-15.65-28.5099-24.48c-4.6201-4.76-9.3301-9.55-12.65-15.35c-5.97-10.01-9.01-21.41-11.5-32.71
		C998.11,615.62,996.55,604.8,995.64,593.94z"/>
	<path fill="#0D0D0C" stroke="#0D0D0C" stroke-width="0.594" d="M851.79,619.57c10.94-2.24,22.05-3.65,33.17-4.57
		c3.56-0.15,7.21-0.54,10.71,0.27c3.54,3.07,2.18,8.47,2.21,12.62c-16.62,0.58-33.31-0.66-49.87,1.14
		c-5.77-0.3-11.26,1.8199-16.99,1.99c-8.21,0.33-16.22,2.23-24.25,3.74c-13.25,1.59-25.09,8.26-36.78,14.22
		c-10.26,4.92-19.64,11.45-28.55,18.48c-4.08,2.7599-7.62,6.49-12.28,8.29c-0.2599-0.22-0.79-0.66-1.05-0.87
		c2.19-3.67,5.94-5.94,9.04-8.74c7.05-6.38,14.84-11.87,22.42-17.59c3.11-2.46,7.39-2.83,10.12-5.86
		c6.84-4.89,15.03-7.47,22.93-10.11c8.68-3.41,17.97-4.77,26.98-7.01C830.17,622.8,840.9,620.53,851.79,619.57z"/>
	<path fill="#070100" stroke="#070100" stroke-width="0.594" d="M837.91,667.89c6.3-1.19,12.77-0.83,19.15-0.64
		c13.66,1.83,26.76,6.39,39.65,11.12c2.28,1.14,5.7599,1.43,6.29,4.46c-3.77,0.01-7-2.12-10.44-3.32c-11.83-4.45-24.07-8-36.58-9.88
		c-13.13-1.14-26.36,1.78-38.43,6.85c-10.71,5.02-21.18,11.04-29.64,19.41c-8.15,7.84-15.28,16.66-21.97,25.76
		c-2.99-0.37-0.81-3.15,0.17-4.51c8.47-11.04,17.43-21.97,28.6-30.41C807.62,677.65,822.14,670.18,837.91,667.89z"/>
	<path fill="#070100" stroke="#070100" stroke-width="0.594" d="M989.6,824.62c2.76-0.71,2.33,3.69,3.15,5.44
		c1.97,6.19,1.45,14.68,7.99,18.17c7.7,4.6,16.86,5.27,25.62,4.79c-0.11,0.53-0.3199,1.58-0.42,2.11
		c-9.96,1.24-20.4899-0.43-28.84-6.24c-4.02-3.24-4.33-8.85-5.65-13.47C990.79,831.84,989.04,828.32,989.6,824.62z"/>
	<path fill="#020102" stroke="#020102" stroke-width="0.594" d="M804.36,695.35c11.53-7.86,25.79-11.24,39.63-10.48
		c17.84,1.6,35.41,5.26,52.89,9.03c1.3,0.37,2.56,0.91,3.84,1.42c0.38,2.15,0.0601,4.3-1.47,5.95c-7.3,9.28-15.27,18.03-23.86,26.14
		c-8.95,8.16-19.03,15.65-30.8,19.11c-23.6201,7.17-47.94,11.66-72.36,15.07c-5.42,0.7-10.82,1.83-16.3,1.83
		c-2.06-3.81,0.19-7.96,2.2-11.27c7.5-11.39,15.26-22.63,23.52-33.5C788.35,710.13,794.91,701.03,804.36,695.35 M835.86,692.33
		c5.12,5.32,7.75,12.46,8.96,19.64c1.82,8.35,1.11,17.75-4,24.86c-2.94,4.09-7.44,6.54-11.72,8.99c5.7-1.49,11.42-3.13,16.65-5.89
		c8.45-2.76,15.41-8.5,22.41-13.77c9.4-7.53,18.09-15.91,26.39-24.6299c0.87-0.77,1.22-1.8701,1.58-2.9301
		C876.06,696.32,856.16,691.61,835.86,692.33 M820.41,696.42c-4.44,2.04-9.59,3.24-12.83,7.18c-4.8,5.53-10.54,10.17-14.98,16.02
		c-5.19,6.63-11.54,12.56-15.03,20.35c3.11,4.84,9.28,5.19,14.43,6.0601c4.79,0.09,9.69-0.34,14.08,2
		c6.19-0.25,12.25-1.79,18.13-3.6801c4.63-1.13,8.96-3.45,12.46-6.68c5.49-6.43,7.51-15.58,5.64-23.78
		c-1.14-7.01-3.03-14.73-8.93-19.27C829.12,692.61,824.45,694.89,820.41,696.42 M872.78,726.11c3.31-0.39,5.03-3.41,6.45-6.05
		C876.67,721.56,873.73,723.06,872.78,726.11z"/>
	<path fill="#020102" stroke="#020102" stroke-width="0.594" d="M1734.3199,1146.54c4.1101,1.11,8.9301,3.58,10.01,8.0599
		C1740.8199,1152.12,1737.37,1149.5601,1734.3199,1146.54z"/>
	<path fill="#020102" stroke="#020102" stroke-width="0.594" d="M1745.5,1155.42c4.02,1.33,8.71,3.6599,9.8199,8.12
		C1751.91,1161,1748.53,1158.41,1745.5,1155.42z"/>
	<path fill="#252522" stroke="#252522" stroke-width="0.594" d="M872.78,726.11c0.95-3.05,3.89-4.55,6.45-6.05
		C877.81,722.7,876.09,725.72,872.78,726.11z"/>
	<path fill="#030202" stroke="#030202" stroke-width="0.594" d="M1418.84,742.15c12.7201-1.65,25.4701,0.28,38.2201,0.28
		c22.6799,1.39,45.12,5.41,67.5099,9.22c23.0901,4.38,46.26,8.36,69.28,13.13c44.17,8.68,88.27,17.85,132.01,28.53
		c43.72,11.08,87.03,23.68,130.25,36.54c21.2001,6.15,42.54,11.7401,63.89,17.3v6.21c-18.6-4.74-37.09-9.87-55.62-14.86
		c-44.52-13.12-89.02-26.36-134-37.83c-45.59-11.54-91.71-20.8-137.8-30.11c-23.39-4.33-46.6699-9.22-70.14-13.11
		c-20.35-3.39-40.6499-7.6-61.2999-8.6c-11.34-1.14-22.76-0.98-34.13-1c-12.97-0.03-25.92,0.92-38.75,2.69
		c-18.14,2.9-35.75,8.2401-53.52,12.72c-0.39-1.39-1.88-2.74-1.1899-4.22c0.24-1.56,2.1599-1.69,3.34-2.23
		C1363.49,748.78,1390.91,742.22,1418.84,742.15z"/>
	<path fill="#FFE0CB" stroke="#FFE0CB" stroke-width="0.594" d="M1388.26,750.54c12.83-1.77,25.78-2.72,38.75-2.69
		c11.37,0.02,22.79-0.14,34.13,1c20.65,1,40.95,5.21,61.2999,8.6c23.4701,3.89,46.75,8.78,70.14,13.11
		c46.0901,9.31,92.2101,18.57,137.8,30.11c44.98,11.47,89.48,24.71,134,37.83c18.53,4.99,37.02,10.12,55.62,14.86v106.51
		c-36.91,18.14-75,34.14-114.5699,45.53c-18.52,4.83-37.26,9.54-56.4301,10.61c-24.25,2.65-48.34-3.23-71.63-9.37
		c-41.5599-11.85-81.65-28.25-121.0699-45.83c-20.8501-9.29-41.41-19.19-61.89-29.25c-16.04-8.18-32.23-16.08-47.79-25.12
		c-13.39-7.93-25.9301-17.17-38.3099-26.57c-12.13-9.24-23.5601-19.34-35.4401-28.86c-11.23-29.94-25.14-58.82-39.11-87.57
		l0.98-0.18C1352.51,758.78,1370.12,753.44,1388.26,750.54z"/>
	<path fill="#FFE0CB" stroke="#FFE0CB" stroke-width="0.594" d="M1160.01,1112.04c15.3099-9.2101,28.5599-21.78,38.3199-36.75
		c3.63,9.6699,7.9,19.08,11.74,28.6699c2.9801,7.14,5.8401,14.42,9.9301,21.02c1.12,2.12,3.73,1.5701,5.72,1.84
		c3.87-6.95,1.13-15.22,2.27-22.7599c4,8.5299,7.34,17.46,12.66,25.3099c1.84,2.78,4.8099,5.22,8.34,5.05
		c6.73-0.02,11.67-5.61,18.02-6.9401c2.92-0.58,4.34,2.6901,5.98,4.52c13.14,18.8101,24.23,38.9399,37,57.99
		c3.66,5.25,7.0601,10.8201,11.88,15.12c1.6,1.17,3.74,2.86,5.76,1.61c3.0699-1.14,3.99-4.75,4.15-7.6799
		c0.87-15.8101-2.63-31.53-1.13-47.3401c5.6699,5.28,10.01,11.79,14.71,17.91c22.52,30.65,43.14,62.64,65.92,93.1
		c3.89,4.6901,7.24,10.14,12.4399,13.53c2.4501,1.6801,5.92-0.62,5.89-3.45c0.3201-5.63-1.65-11.02-3.15-16.3501
		c-3.14-10.58-7.1799-20.84-10.73-31.2699c-4-11.7201-8.96-23.16-11.8099-35.2301c6.64,9.9401,12.1899,20.5701,18.3199,30.8301
		c9.1901,15.9299,18.66,31.73,29.28,46.76c11.03,15.4,23.9199,29.33,36.58,43.39c12.54,13.11,24.8101,26.5199,38.25,38.75
		c6.28,5.74,12.3201,11.95,19.7001,16.2999c2.7899,2.0701,6.83-0.58,6.13-3.95c-0.9401-5.28-4.26-9.71-6.8401-14.28
		c-10.89-18.17-22.76-35.96-30.39-55.83c-7.75-19.23-16.6399-38.03-22.85-57.8301c-2.21-7.45-4.0699-15.25-3.0499-23.0499
		c0.35-2.6801,2.1899-5.5,5.0499-5.85c10.1801-1.26,20.15,2.0199,29.74,5.0199c31.1901,10.25,60.75,24.7301,90.3101,38.8601
		c36.8199,17.58,68.75,43.35,101.4,67.4099c3.48,2.39,6.85,5.11,10.88,6.54c2.7699,1.39,6.34-2.15,4.6699-4.91
		c-2.63-5.74-7.26-10.1799-11.25-14.95c-11.7-13.3301-24.0699-26.13-34.45-40.55c-7.17-9.7899-15.72-18.58-21.97-29.03
		c-9.62-15.83-11.6901-34.6699-14.42-52.61c-1.7-15.35-2.76-31.0399,0.25-46.3099c1.4399-6.78,3.37-13.9301,8.4-18.99
		c3.2-3.4301,7.46-5.53,11.13-8.38c5.0499,3.27,10.52,5.88,15.23,9.6899c31.22,22.3201,61.76,45.88,88.91,73.0901
		c11.98,12.75,24.5199,25.99,30.36,42.85c4.8999,12.71,7.5299,26.23,8.3999,39.8099c1.27,8.42-0.0399,16.87-0.6499,25.29
		c-1.76,17.41-6.6001,34.3099-12.2001,50.83c-11.24,32.25-26.2899,63.25-45.45,91.5701c-16.11,23.64-35.27,45.5499-58.4301,62.5399
		c-13.4399,9.52-27.89,18.37-44.12,22.0701c-20.24,4.99-41.11,6.53-61.85,7.58c-19.65,0.26-39.3199,0.38-58.96-0.22
		c-8.98-1.1801-18.0701-0.26-27.03-1.54c-4.99-0.51-10.02-0.12-14.98-0.9c-31.14-2.48-62.34-5.0099-93.28-9.45
		c4.26-5.77,10.33-9.7,16.05-13.86c9.8099-5.7,20.14-10.6801,29.01-17.86c8.5199-6.1,16.6599-12.6901,25.0499-18.97
		c7.41-5.8601,15.12-11.41,21.8301-18.1001c1.7-1.6799,3.37-4.0599,2.5599-6.5599c-1.25-2.71-4.53-3.3101-7.2-3.33
		c-9.1901-0.16-18.55,0.1699-27.37,2.95c-9.3101,2.83-18.8201,5.96-28.6801,5.29c-10.97-0.75-21.64-3.5901-32.39-5.66
		c-11.28-2.4-22.5499-4.89-33.64-8.01c-14.35-3.92-28.88-7.55-42.38-13.92c-2.13-1.1899-5.33-2.45-4.8099-5.46
		c0.37-6.27,4.15-11.62,7.5499-16.66c4.7201-6.49,9.8101-12.84,15.9601-18.0499c5.51-4.6901,13.0399-4.9401,19.77-6.54
		c19.7-4.96,39.84-7.91,59.6899-12.1899c2.84-0.17,2.6901-3.3301,2.41-5.39c-3.8201-0.12-7.66,0.26-11.4-0.64
		c-78.79-9.86-157.33-23.53-233.79-45.25c-40.35-11.7001-80.5-25.39-117.3199-45.88c-53.1-30.1-102.26-67.39-144.54-111.48
		c-11.65-12.3101-23.2599-24.75-33.62-38.17c55.7,7.1801,111.47,14.2,167.54,17.53c8.02-0.13,15.96,1.26,23.99,1.0499
		c16.58,0.0701,33.63,0.65,49.54-4.8099C1132.96,1125.86,1147.11,1120.04,1160.01,1112.04z"/>
	<path fill="#FFE0CB" stroke="#FFE0CB" stroke-width="0.594" d="M970.89,1660.67c11.61-1.86,23.39-1.4701,35.06-2.5801
		c23.1299-0.36,46.4-0.88,69.32,2.6801c9.7999,1.54,19.37,4.24,28.88,7.0499c12.5499,3.63,24.4199,9.2101,36.27,14.64
		C1175.21,1699.91,1211.34,1714.65,1245.34,1733.66c15.3401,8.8199,30.4701,18.37,43.1901,30.7999
		c9.6899,9.16,17.7,19.91,24.97,31.0601c8.38,13.09,16.9301,26.14,27.05,37.98c12.21,14.38,25.21,28.05,38.33,41.6
		c8.3199,9.03,17.1899,17.59,24.8099,27.25c3.3301,3.75,2.39,9.13,1.6101,13.65H847.64c1.52-11.13,2.69-22.34,5.4-33.26
		c3.73-15.14,7.04-30.38,10.31-45.63c4.38-20.89,9.67-41.62,12.7401-62.76c2.02-13.6799,2.3199-27.5499,1.79-41.34
		c-0.11-6.84,0.04-13.7-0.69-20.5c-0.77-6.55-0.22-13.17-1.07-19.7c-0.84-6.0601-0.19-12.2101-0.88-18.28
		c8.4,0.11,16.57-2.25,24.88-3.1801C923.75,1668.02,947.31,1664.3101,970.89,1660.67z"/>
	<path fill="#5DCDF3" stroke="#5DCDF3" stroke-width="0.594" d="M1373.83,854.9c10.6001,8.88,21.13,17.85,32.11,26.2599
		c14.17,11.03,28.8301,21.4901,44.4401,30.4c24.29,13.14,49.02,25.46,73.97,37.31c-0.65,0.37-1.9399,1.11-2.59,1.48
		c-20.58-9.21-40.87-19.05-61.0601-29.08c-12.6499-6.28-24.76-13.6-36.3999-21.58c-16.63-11.42-32.88-23.42-48.3501-36.36
		C1375.25,860.51,1374.5,857.71,1373.83,854.9z"/>
	<path fill="#090006" stroke="#090006" stroke-width="0.594" d="M1172.8199,861.8c1.1801-0.96,2.6001-1.47,4.0701-1.82
		c1.28,5.03,0.6899,10.28,1.73,15.36c1.38,17.17,3.76,34.45,1.78,51.68c-0.6,10.78-1.49,22.38-7.77,31.57
		c-3.51,5.46-9.54,8.45-13.76,13.28c-5.77,5.54-10.24,12.95-17.91,16.1c-6.73,2.92-13.1499,6.63-20.1699,8.79
		c-10.17,1.98-20.55,2.3-30.8101,3.52c-12.63,0.16-25.38,1.02-37.9199-0.91c-11.27-1.23-22.4601-3.1-33.6301-4.98
		c-5.03-1.12-10.28-1.33-15.1-3.22c0.28-1.77,0.68-3.6,2.43-4.46c29.21-21.44,58.22-43.16,87.6899-64.23
		c7.4301-5.54,16.78-8.01,23.63-14.38c8.41-7.2599,15.3501-15.99,23.3-23.71C1151.0601,876.68,1162.11,869.47,1172.8199,861.8
		 M1168.52,875.55c-12.22,18.96-23.7001,39.08-41.26,53.72c-13.78,11.77-30.3,19.59-46.41,27.59
		c-20.2899,9.95-40.97,19.07-61.61,28.27c-3.46,1.67-7.31,2.65-10.38,5.05c27.1801,4.54,54.65,10.27,82.34,7.34
		c9.76-0.82,19.5801-1.41,29.2201-3.22c6.6499-2.34,12.86-5.75,19.3199-8.53c7.24-2.99,11.5-9.88,16.78-15.27
		c4.39-4.98,10.62-8.11,14.28-13.77c4.75-6.95,5.73-15.55,6.86-23.67c0.38-11.34,1.51-22.72,0.2999-34.05
		c-0.12-10.8-2.24-21.44-2.49-32.21C1172.16,868.76,1170.76,872.6,1168.52,875.55 M1150.42,880.42
		c-3.8501,2.79-8.16,5.04-11.3201,8.66c-6.4199,7.23-13,14.33-20.15,20.85c-7.3099,6.56-17,9.37-24.83,15.16
		c-24.22,17.3799-48.14,35.18-72.16,52.8199c-2.11,1.59-4.56,2.84-6.13,5.02c14.73-6.03,29.09-12.98,43.59-19.57
		c19.59-9.41,39.24-18.82,57.75-30.24c6.2799-3.85,11.4199-9.2,16.35-14.6c9.33-10.53,17.52-22,25.28-33.72
		c3.5599-5.6,7.88-10.79,10.33-17.02C1162.64,871.61,1156.7,876.28,1150.42,880.42z"/>
	<path fill="#020303" stroke="#020303" stroke-width="0.594" d="M1372.6,867.11c0.3301-1.94,1.11-3.81,3.35-3.78
		c15.4701,12.94,31.7201,24.94,48.3501,36.36c11.6399,7.98,23.75,15.3,36.3999,21.58c20.1901,10.03,40.4801,19.87,61.0601,29.08
		c36.33,16.62,73.0599,32.45,110.53,46.36c23.49,8.62,47.3099,16.55,71.7799,21.95c5.9701,2.38,12.53,2.36,18.8501,3.17
		c6.72,0.01,13.62,0.82,20.2-0.97c8.79-0.83,17.58-1.77,26.26-3.46c10.02-1.66,19.96-3.87,29.7-6.78c3.79-1.17,7.8-1.8,11.3501-3.66
		c-13.78,2.7599-27.2201,7.29-41.1901,9.19c-11.3199,1.81-22.78,2.97-34.24,3.05c-25.17-0.77-49.7-7.28-73.64-14.64
		c-47-15.07-92.41-34.66-137.01-55.69c-24.95-11.85-49.6799-24.17-73.97-37.31c-15.61-8.91-30.27-19.37-44.4401-30.4
		c0.5901-0.3199,1.78-0.97,2.3701-1.29c12.3799,9.4,24.9199,18.64,38.3099,26.57c15.5601,9.04,31.75,16.94,47.79,25.12
		c20.48,10.06,41.0399,19.96,61.89,29.25c39.4199,17.58,79.51,33.98,121.0699,45.83c23.29,6.14,47.38,12.02,71.63,9.37
		c19.17-1.07,37.91-5.78,56.4301-10.61C1845,994.01,1883.09,978.01,1920,959.87v2.75c-13.21,6.63-26.6899,12.69-40.22,18.64
		c-8.36,3.77-17.02,6.79-25.4601,10.36c-10.6499,4.38-21.71,7.65-32.5399,11.54c-3.7101,1.38-7.6901,2.02-11.1801,3.91
		c8.59-1.5,16.66-5.09,24.9301-7.79c15.75-5.14,31-11.66,46.5699-17.29c12.87-3.6,25.0801-9.16,37.9-12.94v3.93
		c-4.45,2.19-9.28,3.39-13.89,5.12c-4.09,1.4901-7.99,3.45-12.13,4.77c-18.4399,4.99-35.65,13.55-53.83,19.34
		c-30.4601,10.79-61.87,19.55-94.14,22.53c-24.21,3.36-48.39-2.76-71.53-9.33c-35.5499-10.46-69.8199-24.71-104.03-38.86
		c-26.85-11.53-53.5199-23.48-79.87-36.07c-11.11-4.56-21.49-10.65-32.35-15.76c-13.4299-6.36-25.9299-14.46-38.2-22.79
		c-14.28-9.37-27.51-20.22-41.22-30.36c-0.9701,1.42-2.7201,2.83-2.05,4.77c2.16,9.91,4.3099,19.85,7.38,29.54
		c2.9299,9.41,8.27,17.77,12.28,26.72c8.37,15.12,17.4299,30.04,28.88,43.07c6.22,6.76,12.01,13.98,19.1899,19.8
		c11.12,10.48,23.84,19.04,36.64,27.3101c17.54,11.1699,35.62,21.45,54.03,31.1c10.09,5.91,20.72,10.84,31.38,15.64
		c9.37,4.62,19.1899,8.2,28.85,12.14c18.85,7.4199,39.54,9.1799,59.6,7.4199c17.15-0.88,34.12-3.63,51.13-5.8999
		c5.3101-0.77,11.03-1.6101,16.13,0.6c1.97,2.2999-2.27,4.4099-4.11,5.3199c-12.86,4.53-26.59,6.72-38.91,12.79
		c6.54,5.85,14.01,10.5499,20.8201,16.09c3.86,3.38,9.25,5.64,11.13,10.78c2.71,2.37,6.5699,3.1,8.8999,6.1
		c-0.12,0.5-0.38,1.51-0.51,2.01c2.51,2.23,5.27,4.17,8.28,5.71c11.5601,8.5,22.05,18.3501,33.0801,27.5
		c14.4399,13.9401,29.2799,27.8501,40.1799,44.86c4.65,6.7001,7.4401,14.42,9.89,22.14c7.99,23.5601,8.51,49.13,4.34,73.49
		c-5.0699,27.4801-15.11,53.76-26.61,79.14c-12.22,26.8201-27.9,51.98-45.89,75.3c-4.2799,4.26-7.62,9.36-12.08,13.4399
		c-5.6,4.0701-10.74,9.27-13.8,15.5601c-3.8999,4.47-8.9299,7.71-13.34,11.63c-2.67,2.3099-5.45,4.5-8.25,6.67
		c0.6-1.4701,1.21-2.9301,1.84-4.3601c-1.7899,1.3301-3.5,2.76-5.1499,4.25c-5.3601,3.1801-10.4501,7.9301-17.03,7.92
		c-14.38,8.05-30.87,10.99-46.99,13.33c-17.9301,2.38-36.02,3.02-54.0901,3.04c-14.75,0.45-29.6399-0.33-44.1699,2.59
		c-5.62-0.5599-11.35,0.1901-16.86-1.23c2.21-0.66,4.4399-1.41,6.4099-2.65c-3.11,0.2001-6.09,1.1001-9.0499,1.99
		c-5.04,1.5-10.3401,0.7401-15.47,0.41c1.47-1.16,2.7699-2.52,4.2699-3.65c-5.0299,1.05-9.87,3.51-15.13,2.92
		c-24.9399-2.3-49.98-3.4399-74.9199-5.8099c-5.49-0.5801-11.16-0.39-16.36-2.51c3.37-0.38,6.7799-0.2001,10.12,0.45
		c4.4299,0.75,8.9399,0.96,13.39,1.77c2.6899,0.08,6.2799,1.21,8.1699-1.39c-3.1699-0.38-6.35-0.45-9.52-0.42
		c-3.1-3.63-9.35-4.64-13.14-1.52c-3.46-0.5199-6.9299-0.85-10.3799-1.25c-0.02,0.6101-0.05,1.8501-0.0701,2.4601
		c0.46,5.13,3.71,9.4,6.85,13.27c6.67,7.95,14.12,15.22,22.05,21.9099c6.91,5.8,13.5,12.0701,21.17,16.89
		c2.48,1.75,5.5099,3.25,6.6699,6.28c-1.2-0.29-2.37-0.52-3.52-0.8199c-9.98-5.92-18.37-14.04-27.25-21.42
		c-5.4199-5.25-11.98-9.34-16.49-15.47c-4.5499-5.9501-10.3199-11.51-12.01-19.0801c-1.36-5.85,1.42-11.84,5.52-15.9299
		c6-5.9401,13.11-10.65,20.61-14.5c-1.87,1.9399-3.39,4.22-4.0499,6.85c-5.7201,4.16-11.79,8.09-16.05,13.86
		c30.9401,4.4401,62.14,6.97,93.28,9.45c4.96,0.78,9.99,0.39,14.98,0.9c8.96,1.28,18.05,0.36,27.03,1.54
		c19.64,0.6,39.3099,0.48,58.96,0.22c20.74-1.0499,41.61-2.59,61.85-7.58c16.23-3.7001,30.6801-12.55,44.12-22.0701
		c23.16-16.99,42.3201-38.8999,58.4301-62.5399c19.16-28.3201,34.21-59.3201,45.45-91.5701c5.6-16.52,10.4401-33.4199,12.2001-50.83
		c0.61-8.42,1.9199-16.87,0.6499-25.29c-0.87-13.58-3.5-27.1-8.3999-39.8099c-5.8401-16.86-18.38-30.1-30.36-42.85
		c-27.15-27.2101-57.6901-50.77-88.91-73.0901c-4.71-3.8099-10.1801-6.4199-15.23-9.6899c0.47-2.0901,1.58-3.9501,2.98-5.55
		c10.3199-4.74,21.28-7.84,32.24-10.72c2.74-0.64,5.25-1.99,7.3199-3.9c-6.76-2.15-13.7699-0.1899-20.5699,0.5701
		c-13.64,1.9399-27.34,3.38-41.1,4.0299c-7.54,0.98-15.0801-0.1799-22.61-0.46c-9.9401-0.5699-19.7201-2.79-29.0601-6.17
		c-17-5.3999-32.79-13.7999-49.04-21.01c-25.9099-13.6799-51.8999-27.36-76.22-43.77c-13.79-8.51-26.09-19.12-38.12-29.9
		c-4.5599-5.13-8.86-10.47-13.41-15.59c-14.36-16.92-24.9299-36.61-34.6499-56.43C1378.89,902.24,1376.1801,884.45,1372.6,867.11
		 M1677.04,1103.1801c0.11,0.5499,0.3199,1.6499,0.4199,2.2c5.15,3.1,9.9,6.8199,14.8501,10.25c3.4199,2.36,6.4399,5.41,10.37,6.98
		c-2.28-3.1799-5.78-5.0599-8.76-7.46C1688.3199,1111.12,1683.24,1106.3,1677.04,1103.1801 M1426.03,1530.9301
		c2.26,1.22,6.65,2.0399,8.27,0.0199C1432.02,1529.16,1428.58,1530.17,1426.03,1530.9301 M1439.55,1532.78
		c1.98,0.14,3.97,0.1699,5.99,0.0599C1444.14,1530.64,1441.0601,1530.88,1439.55,1532.78z"/>
	<path fill="#FFC1F4" stroke="#FFC1F4" stroke-width="0.594" d="M1168.52,875.55c2.24-2.95,3.64-6.79,6.95-8.75
		c0.25,10.77,2.37,21.41,2.49,32.21c1.2101,11.33,0.0801,22.71-0.2999,34.05c-1.13,8.12-2.11,16.72-6.86,23.67
		c-3.66,5.66-9.89,8.79-14.28,13.77c-5.28,5.39-9.54,12.28-16.78,15.27c-6.46,2.78-12.67,6.19-19.3199,8.53
		c-9.64,1.81-19.4601,2.4-29.2201,3.22c-27.6899,2.93-55.1599-2.8-82.34-7.34c3.07-2.4,6.92-3.38,10.38-5.05
		c20.64-9.2,41.3201-18.32,61.61-28.27c16.11-8,32.63-15.82,46.41-27.59C1144.8199,914.63,1156.3,894.51,1168.52,875.55z"/>
	<path fill="#FDC1F3" stroke="#FDC1F3" stroke-width="0.594" d="M1150.42,880.42c6.2799-4.14,12.22-8.81,18.71-12.64
		c-2.45,6.23-6.77,11.42-10.33,17.02c-7.76,11.72-15.9501,23.19-25.28,33.72c-4.9301,5.4-10.0701,10.75-16.35,14.6
		c-18.51,11.42-38.16,20.83-57.75,30.24c-14.5,6.59-28.86,13.54-43.59,19.57c1.57-2.18,4.02-3.43,6.13-5.02
		c24.02-17.64,47.94-35.44,72.16-52.8199c7.83-5.79,17.52-8.6,24.83-15.16c7.15-6.52,13.7301-13.62,20.15-20.85
		C1142.26,885.46,1146.5699,883.21,1150.42,880.42z"/>
	<path fill="#134313" stroke="#134313" stroke-width="0.594" d="M1376.76,876.34c-0.67-1.94,1.08-3.35,2.05-4.77
		c13.71,10.14,26.9399,20.99,41.22,30.36c12.27,8.33,24.77,16.43,38.2,22.79c10.86,5.11,21.24,11.2,32.35,15.76
		c26.3501,12.59,53.02,24.54,79.87,36.07c34.2101,14.15,68.4801,28.4,104.03,38.86c23.14,6.57,47.3201,12.69,71.53,9.33
		c32.27-2.98,63.6799-11.74,94.14-22.53c18.1799-5.79,35.39-14.35,53.83-19.34c4.14-1.32,8.04-3.28,12.13-4.77
		c4.61-1.73,9.4401-2.93,13.89-5.12V1916h-503.03c-3.21-8.02-3.89-17.33-10.12-23.84
		c-21.0499-23.91-44.2999-45.8301-64.6899-70.3301c-9.28-10.6899-16.5-22.8999-24.48-34.5299
		c-8.65-13.88-18.8201-26.9801-31.29-37.63c-7.26-6.5701-15.4501-11.9701-23.48-17.51c-9.6-5.54-19.04-11.4-29.11-16.05
		c-18.4-9.6899-37.3601-18.22-56.3501-26.6799c-9.45-4.3601-18.46-9.6801-28.22-13.3501c-15.74-8.08-31.83-15.8199-49.03-20.23
		c-21.5199-6.01-43.8899-8.66-66.1899-8.86c-8.96-0.21-17.84,2.52-26.76,0.9c0.95-3.03,2.78-6.3101,1.37-9.48
		c-1.35-3.4701-3.53-6.52-5.36-9.73c-5.24-8.92-10.46-17.91-14.4-27.5c-1.26-2.7301-0.95-5.7301,0.11-8.4501
		c8.1201,1.65,15.21,6.15,22.57,9.74c10.12,5.98,20.68,11.3,31.78,15.23c38.1001,13.91,76.77,26.24,115.8301,37.1801
		c22.47,6.42,44.9299,12.91,67.6699,18.34c8.66,1.99,17.42,5.16,26.4301,4.12c8.03-0.87,12.0699-8.99,19.01-12.0699
		c3.34-1.5,7.05-0.5701,10.51-0.09c33.29,5.13,66.14,12.8199,99.49,17.61c2.66,0.3999,5.33-0.23,7.9299-0.8401
		c0.38-4.6699-2.8199-8.25-6.2699-10.88c-8.63-7-17.36-13.9199-25.29-21.73c-12.95-11.37-25.5-23.4-35.45-37.5399
		c-4.4501-5.99-8.12-12.49-12.3601-18.6101c-4.96-7.2799-9-15.11-13.2899-22.7699c-0.98-2.2201-2.85-4.5801-1.78-7.0901
		c0.3101-0.59,0.9399-1.7799,1.26-2.38c6.2,2.7201,10.9,7.77,16.27,11.75c9.1799,7.0701,18.27,14.8301,29.4,18.66
		c9.6399,3.59,19.6,6.36,29.73,8.2001c2.2,0.2899,4.64,0.72,6.71-0.39c2.5601-2.0701,3.1-6.7301,7.02-6.8201
		c13.88-1.83,27.9299-0.88,41.88-1.59c6.59-0.45,13.45,0.3,19.77-1.99c0.0499-0.4401,0.14-1.3301,0.1899-1.77
		c-1.16-3.03-4.1899-4.53-6.6699-6.28c-7.67-4.8199-14.26-11.09-21.17-16.89c-7.9301-6.6899-15.38-13.96-22.05-21.9099
		c-3.14-3.87-6.39-8.14-6.85-13.27c0.36-0.02,1.08-0.0701,1.4301-0.1c5.2,2.12,10.87,1.9299,16.36,2.51
		c24.9399,2.37,49.98,3.5099,74.9199,5.8099c5.26,0.59,10.1001-1.87,15.13-2.92c-1.5,1.13-2.7999,2.49-4.2699,3.65
		c5.1299,0.3301,10.4299,1.09,15.47-0.41c2.96-0.8899,5.9399-1.7899,9.0499-1.99c-1.97,1.24-4.2,1.99-6.4099,2.65
		c5.51,1.42,11.24,0.67,16.86,1.23c3.2899,1.05,6.71,1.62,10.1899,1.5c12.36-0.24,24.67,1.12,37.03,0.9301
		c14.7,0.35,29.35-1.05,44.05-0.95c14.11-0.6101,28.4299-2.4301,41.5399-7.9701c5.9301-2.3199,11.3101-5.75,16.91-8.73
		c-0.21-0.88-0.39-1.73-0.55-2.5699c4.8101-2.86,9.51-5.9501,13.9501-9.36l-0.84,0.2699c1.6499-1.49,3.36-2.9199,5.1499-4.25
		c-0.63,1.4301-1.24,2.89-1.84,4.3601c2.8-2.17,5.58-4.3601,8.25-6.67c4.41-3.92,9.4401-7.16,13.34-11.63
		c6.16-4.8,11.9601-10.04,17.4-15.64c3.04-3.26,7.02-6.01,8.37-10.47c5.61-3.3301,9.02-9.13,13.48-13.72
		c5.65-6.03,9.62-13.3101,13.11-20.7401c4.16-8.86,10.6101-16.37,14.9-25.1599c7.72-15.1801,13.0801-31.39,20.1-46.88
		c3.6001-9.48,7.5801-18.8301,10.4801-28.55c3.0199-11.4199,6.6699-22.88,6.87-34.7899c0-8.7301,1.97-17.4301,0.34-26.1201
		c-0.41-19.7599-6.17-39.22-15.52-56.5599c-8.15-13.89-18.62-26.53-31.11-36.72c-4.88-4.13-9.65-8.38-14.5-12.51
		c-1.16-1.16-2.72-1.55-4.28-1.5701c-0.4399-0.37-0.87-0.71-1.28-1.0399c-1.11-4.4601-5.7999-6.79-9.8199-8.12
		c-0.29-0.2001-0.88-0.62-1.17-0.8201c-1.08-4.48-5.8999-6.95-10.01-8.0599c-2.1499-1.36-4.21-2.8401-6.47-3.9601
		c-3.01-1.5399-5.77-3.48-8.28-5.71c0.13-0.5,0.39-1.51,0.51-2.01l0.04-0.29c-1.95-3.2699-5.88-3.99-8.9399-5.8099
		c-1.88-5.14-7.27-7.4-11.13-10.78c-6.8101-5.54-14.28-10.24-20.8201-16.09c12.3201-6.0701,26.05-8.26,38.91-12.79
		c1.84-0.91,6.08-3.02,4.11-5.3199c-5.1-2.2101-10.8199-1.37-16.13-0.6c-17.01,2.2699-33.98,5.0199-51.13,5.8999
		c-20.0599,1.76-40.75,0-59.6-7.4199c-9.66-3.9401-19.48-7.52-28.85-12.14c-10.66-4.8-21.29-9.73-31.38-15.64
		c-18.41-9.65-36.49-19.9301-54.03-31.1c-12.8-8.27-25.52-16.83-36.64-27.3101c-7.1799-5.8199-12.97-13.04-19.1899-19.8
		c-11.4501-13.03-20.51-27.95-28.88-43.07c-4.01-8.95-9.3501-17.31-12.28-26.72C1381.0699,896.19,1378.92,886.25,1376.76,876.34
		 M1724.23,1139.27C1724.75,1139.8,1724.75,1139.8,1724.23,1139.27z"/>
	<path fill="#134313" stroke="#134313" stroke-width="0.594" d="M912,1581.33c1.82-2.23,4.52-6.7699,7.81-4.1799
		c15.46,10.59,29.29,23.34,43.24,35.7999c12.89,12.0801,26.31,23.62,39.12,35.76c-9.03,1.24-18.13,1.6801-27.18,2.62
		c-23.13,1.4301-45.95,5.64-68.85,8.9801c-10.21,2.1-20.65,3.21-30.67,6.1699c-2.91-5.04-1.55-10.97-0.34-16.29
		c3.74-14.9299,8.3-29.7699,15.12-43.6c4.28,2.76,6.86,7.26,10.24,10.9401c4.72,5.27,9.53,10.48,14.06,15.9299
		c1.79,2.25,4.09,4.03,6.56,5.52c1.21-4.26-2.13-7.5699-4.17-10.88c-4.9-7.11-8.67-15.33-8.9-24.08
		C907.98,1596.28,909.95,1588.73,912,1581.33z"/>
	<path fill="#76D0EF" stroke="#76D0EF" stroke-width="0.594" d="M1524.35,948.87c44.6,21.03,90.01,40.62,137.01,55.69
		c23.9401,7.36,48.47,13.87,73.64,14.64c11.46-0.08,22.92-1.24,34.24-3.05l0.14,1.25c-8.6801,1.69-17.47,2.63-26.26,3.46
		c-13.0699,0.87-26.13-0.28-39.05-2.2c-24.47-5.4-48.2899-13.33-71.7799-21.95c-37.4701-13.91-74.2001-29.7401-110.53-46.36
		C1522.41,949.98,1523.7,949.24,1524.35,948.87z"/>
	<path fill="#76D0EF" stroke="#76D0EF" stroke-width="0.594" d="M1677.04,1103.1801c6.2,3.12,11.2799,7.9399,16.88,11.97
		c2.98,2.4,6.48,4.28,8.76,7.46c-3.9301-1.5699-6.9501-4.62-10.37-6.98c-4.9501-3.4301-9.7001-7.15-14.8501-10.25
		C1677.36,1104.83,1677.15,1103.73,1677.04,1103.1801z"/>
	<path fill="#5ACCF5" stroke="#5ACCF5" stroke-width="0.594" d="M1879.78,981.26c13.53-5.95,27.01-12.01,40.22-18.64v6.43
		c-12.8199,3.78-25.03,9.34-37.9,12.94C1881.52,981.81,1880.36,981.45,1879.78,981.26z"/>
	<path fill="#F6FDFF" stroke="#F6FDFF" stroke-width="0.594" d="M1854.3199,991.62c8.4401-3.57,17.1001-6.59,25.4601-10.36
		c0.58,0.19,1.74,0.55,2.3199,0.73c-15.5699,5.63-30.8199,12.15-46.5699,17.29c-8.27,2.7-16.3401,6.29-24.9301,7.79
		c3.49-1.89,7.47-2.53,11.1801-3.91C1832.61,999.27,1843.67,996,1854.3199,991.62z"/>
	<path fill="#F6FDFF" stroke="#F6FDFF" stroke-width="0.594" d="M1711.1801,1128.76c3.0599,1.8199,6.99,2.54,8.9399,5.8099
		l-0.04,0.29C1717.75,1131.86,1713.89,1131.13,1711.1801,1128.76z"/>
	<path fill="#F6FDFF" stroke="#F6FDFF" stroke-width="0.594" d="M1730.76,1478.45c4.46-4.08,7.8-9.1799,12.08-13.4399l-0.0399,1.21
		c-0.01,0.42-0.05,1.26-0.0701,1.6801C1738.11,1470.6801,1735.5,1475.84,1730.76,1478.45z"/>
	<path fill="#F6FDFF" stroke="#F6FDFF" stroke-width="0.594" d="M1675.03,1520.12c6.58,0.01,11.6699-4.74,17.03-7.92l0.84-0.2699
		c-4.4401,3.4099-9.14,6.5-13.9501,9.36C1677.63,1520.85,1676.33,1520.46,1675.03,1520.12z"/>
	<path fill="#F6FDFF" stroke="#F6FDFF" stroke-width="0.594" d="M1391.3101,1526.1899c3.45,0.4,6.9199,0.7301,10.3799,1.25
		c3.3101,0.7401,6.7101,0.8101,10.1101,0.77l0.0499,0.86c-3.03,0.0901-6.0599,0.3-9.0599-0.0699c-3.3401-0.65-6.75-0.83-10.12-0.45
		c-0.3501,0.0299-1.0701,0.08-1.4301,0.1C1391.26,1528.04,1391.29,1526.8,1391.3101,1526.1899z"/>
	<path fill="#063649" stroke="#063649" stroke-width="0.594" d="M1704.0699,1018.66c12.92,1.92,25.9801,3.07,39.05,2.2
		c-6.58,1.79-13.48,0.98-20.2,0.97C1716.6,1021.02,1710.04,1021.04,1704.0699,1018.66z"/>
	<path fill="#8E998B" stroke="#8E998B" stroke-width="0.594" d="M1724.23,1139.27C1724.75,1139.8,1724.75,1139.8,1724.23,1139.27z"
		/>
	<path fill="#010C08" stroke="#010C08" stroke-width="0.594" d="M1756.6,1164.58c1.5601,0.02,3.12,0.41,4.28,1.5701
		c4.85,4.13,9.62,8.38,14.5,12.51c12.49,10.1899,22.96,22.83,31.11,36.72c9.35,17.34,15.11,36.8,15.52,56.5599
		c1.63,8.6901-0.34,17.39-0.34,26.1201c-0.2001,11.9099-3.8501,23.37-6.87,34.7899c-2.9,9.72-6.88,19.0701-10.4801,28.55
		c-7.0199,15.49-12.38,31.7-20.1,46.88c-4.2899,8.7899-10.74,16.2999-14.9,25.1599c-3.49,7.4301-7.46,14.7101-13.11,20.7401
		c-4.46,4.59-7.87,10.3899-13.48,13.72c0.02-0.42,0.0601-1.26,0.0701-1.6801c5.22-4.25,9.1799-9.77,13.71-14.71
		c4.59-5.1,7.8099-11.21,10.6-17.4301c4.79-10.1799,12.3101-18.7899,16.88-29.09c6.73-14.83,12.99-29.88,19.02-45
		c5.1899-12.58,9.76-25.41,13.3199-38.55c3.88-13.48,3.89-27.58,4.41-41.47c-0.27-10.58-0.79-21.23-3.3199-31.5499
		c-4.04-15.12-9.7101-30.0601-19.12-42.7201c-5.6001-7.62-11.4701-15.1499-18.7101-21.3099c-5.77-4.87-11.12-10.27-17.36-14.54
		C1760.37,1168.0601,1758.51,1166.27,1756.6,1164.58z"/>
	<path fill="#010C08" stroke="#010C08" stroke-width="0.594" d="M996.03,1657.38c8.96-1.04,18-0.66,26.98-1.53
		c8.02-0.71,16.01,0.6801,24.04,0.74c33.12,1.13,65.76,10.14,95.1899,25.26c6.47,2.72,12.78,5.78,19.01,9.01
		c13.6,6.89,27.77,12.59,41.34,19.55c17.53,7.5599,34.26,16.8099,50.86,26.22c17.6001,10.36,34.0901,22.96,47.1901,38.74
		c7.9399,9.9,15,20.48,21.59,31.3199c20.6801,31.3,48.46,56.8401,73.62,84.41c4.0701,4.6,8.67,8.9601,11.23,14.66
		c1.62,3.27,0.03,6.9-0.5699,10.24h-1.21c0.7799-4.52,1.72-9.9-1.6101-13.65c-7.62-9.66-16.49-18.22-24.8099-27.25
		c-13.12-13.5499-26.12-27.22-38.33-41.6c-10.12-11.84-18.67-24.89-27.05-37.98c-7.27-11.15-15.28-21.9-24.97-31.0601
		c-12.72-12.4299-27.85-21.98-43.1901-30.7999c-34-19.01-70.13-33.75-104.9199-51.2001c-11.8501-5.4299-23.7201-11.01-36.27-14.64
		c-9.51-2.8099-19.0801-5.5099-28.88-7.0499c-22.92-3.5601-46.1901-3.04-69.32-2.6801c-11.67,1.11-23.45,0.7201-35.06,2.5801
		c-23.58,3.64-47.14,7.35-70.77,10.6799c-8.31,0.9301-16.48,3.29-24.88,3.1801c-0.69-0.41-2.07-1.24-2.76-1.66
		c0.34-1.05,0.71-2.0699,1.1-3.0699c0.05,0.9399,0.17,2.8099,0.22,3.75c4.72,0,9.31-1.2201,13.97-1.8201
		c24.37-3.3099,48.61-7.58,72.98-10.9199C972.4,1658.71,984.19,1657.4301,996.03,1657.38z"/>
	<path fill="#010C08" stroke="#010C08" stroke-width="0.594" d="M1149.23,1676.08c9.76,3.67,18.77,8.99,28.22,13.3501
		c18.99,8.46,37.9501,16.99,56.3501,26.6799c10.0699,4.65,19.51,10.51,29.11,16.05c8.0299,5.5399,16.22,10.9399,23.48,17.51
		c12.47,10.6499,22.64,23.75,31.29,37.63c7.98,11.63,15.2,23.84,24.48,34.5299c20.39,24.5,43.64,46.42,64.6899,70.3301
		c6.23,6.51,6.91,15.8199,10.12,23.84h-3.49c-0.59-5.79-2.21-11.54-4.71-16.76c-8.53-11.65-19.21-21.47-28.9301-32.0699
		c-19.22-20.55-39.62-40.39-54.72-64.3201c-8.88-13.01-16.96-26.65-27.6-38.35c-5.36-6.98-12.41-12.3-19.13-17.88
		c-15.39-12.34-32.73-21.98-50.4401-30.54c-8.58-4.12-16.8899-8.8199-25.6699-12.48c-18.63-8.5-37.3301-16.86-55.4601-26.39
		C1147.42,1676.9301,1148.63,1676.36,1149.23,1676.08z"/>
	<path fill="#6DD2F1" stroke="#6DD2F1" stroke-width="0.594" d="M1760.9301,1170.08l1.2999-0.23c6.24,4.27,11.59,9.67,17.36,14.54
		c7.24,6.16,13.11,13.6899,18.7101,21.3099c9.4099,12.66,15.08,27.6001,19.12,42.7201c2.5299,10.3199,3.0499,20.97,3.3199,31.5499
		c-0.52,13.89-0.53,27.99-4.41,41.47c-3.5599,13.14-8.13,25.9701-13.3199,38.55c-6.03,15.12-12.29,30.17-19.02,45
		c-4.5699,10.3-12.09,18.91-16.88,29.09c-2.79,6.2201-6.01,12.3301-10.6,17.4301c-4.53,4.9399-8.49,10.46-13.71,14.71l0.0399-1.21
		c17.99-23.3201,33.67-48.48,45.89-75.3c11.5-25.38,21.54-51.6599,26.61-79.14c4.17-24.36,3.65-49.9299-4.34-73.49
		c-2.45-7.72-5.24-15.4399-9.89-22.14C1790.21,1197.9301,1775.37,1184.02,1760.9301,1170.08z"/>
	<path fill="#53CDF8" stroke="#53CDF8" stroke-width="0.594" d="M1628.04,1533.45c16.12-2.34,32.61-5.2799,46.99-13.33
		c1.2999,0.34,2.6,0.73,3.9199,1.17c0.16,0.84,0.3401,1.6899,0.55,2.5699c-5.6,2.98-10.98,6.41-16.91,8.73
		c-13.11,5.54-27.4299,7.36-41.5399,7.9701c-14.7001-0.1001-29.3501,1.2999-44.05,0.95c-12.36,0.1899-24.67-1.17-37.03-0.9301
		c-3.48,0.12-6.9-0.45-10.1899-1.5c14.53-2.9199,29.4199-2.14,44.1699-2.59C1592.02,1536.47,1610.11,1535.83,1628.04,1533.45z"/>
	<path fill="#506F78" stroke="#506F78" stroke-width="0.594" d="M1401.6899,1527.4399c3.79-3.12,10.04-2.11,13.14,1.52
		c0.3301,0.4501,1.01,1.36,1.3501,1.8101c-4.4501-0.8101-8.9601-1.02-13.39-1.77c3,0.37,6.0299,0.16,9.0599,0.0699l-0.0499-0.86
		C1408.4,1528.25,1405,1528.1801,1401.6899,1527.4399z"/>
	<path fill="#797C79" stroke="#797C79" stroke-width="0.594" d="M1414.83,1528.96c3.17-0.0299,6.3501,0.04,9.52,0.42
		c-1.89,2.6-5.48,1.47-8.1699,1.39C1415.84,1530.3199,1415.16,1529.41,1414.83,1528.96z"/>
	<path fill="#5E645C" stroke="#5E645C" stroke-width="0.594" d="M1426.03,1530.9301c2.5499-0.76,5.99-1.77,8.27,0.0199
		C1432.6801,1532.97,1428.29,1532.15,1426.03,1530.9301z"/>
	<path fill="#464B46" stroke="#464B46" stroke-width="0.594" d="M1439.55,1532.78c1.51-1.9,4.59-2.14,5.99,0.0599
		C1443.52,1532.95,1441.53,1532.92,1439.55,1532.78z"/>
	<path fill="#020802" stroke="#020802" stroke-width="0.594" d="M1290.48,1559.63c-0.99-2.5,2.21-5.5699,4.49-3.58
		c15.88,8.95,28.03,23.5399,44.63,31.4099c10.01,3.8401,20.27,7.11,30.78,9.29c2.45,0.39,5.1801,1.49,7.59,0.28
		c1.5801-1.85,2.36-4.24,3.85-6.16c6.79-2.3,14.16-1.47,21.2301-1.96c10.96-0.75,21.96-0.4501,32.95-0.6801
		c2.9399,0.05,5.95-0.36,8.46-2.0499c1.15,0.2999,2.3201,0.5299,3.52,0.8199c-0.0499,0.4399-0.14,1.33-0.1899,1.77
		c-6.3201,2.29-13.1801,1.54-19.77,1.99c-13.9501,0.71-28-0.24-41.88,1.59c-3.92,0.09-4.46,4.75-7.02,6.8201
		c-2.0699,1.11-4.51,0.6799-6.71,0.39c-10.13-1.8401-20.0901-4.6101-29.73-8.2001c-11.13-3.83-20.2201-11.59-29.4-18.66
		c-5.37-3.98-10.0701-9.0299-16.27-11.75c-1.5701-1.4299-3.1801,1.75-1.26,2.38c-1.0699,2.51,0.8,4.87,1.78,7.0901
		c4.2899,7.6599,8.33,15.49,13.2899,22.7699c4.2401,6.1201,7.91,12.6201,12.3601,18.6101c9.95,14.1399,22.5,26.1699,35.45,37.5399
		c7.9301,7.8101,16.66,14.73,25.29,21.73c3.45,2.63,6.6499,6.2101,6.2699,10.88c-2.6,0.6101-5.2699,1.24-7.9299,0.8401
		c-33.35-4.79-66.2-12.48-99.49-17.61c-3.46-0.4801-7.17-1.41-10.51,0.09c-6.9401,3.08-10.98,11.2-19.01,12.0699
		c-9.01,1.04-17.77-2.13-26.4301-4.12c-22.74-5.4299-45.2-11.9199-67.6699-18.34c-39.0601-10.9401-77.73-23.27-115.8301-37.1801
		c-11.1-3.9299-21.66-9.25-31.78-15.23c-7.36-3.59-14.45-8.09-22.57-9.74c-1.06,2.72-1.37,5.72-0.11,8.4501
		c3.94,9.59,9.16,18.58,14.4,27.5c1.83,3.21,4.01,6.2599,5.36,9.73c1.41,3.1699-0.42,6.45-1.37,9.48c8.92,1.62,17.8-1.11,26.76-0.9
		c22.3,0.2,44.67,2.85,66.1899,8.86c17.2001,4.41,33.29,12.15,49.03,20.23c-0.6,0.28-1.8099,0.8501-2.41,1.13
		c-9.9199-4.39-19.5399-9.4399-29.7-13.26c-26.16-10.0399-54.25-14.08-82.15-14.72c-22.7,1.26-45.37,3.26-68.03,5.17
		c-30.43,3.01-60.62,8.1699-90.65,13.89c-0.2-0.4501-0.61-1.36-0.82-1.8101c10.02-2.96,20.46-4.0699,30.67-6.1699
		c22.9-3.3401,45.72-7.55,68.85-8.9801c9.05-0.9399,18.15-1.38,27.18-2.62c-12.81-12.14-26.23-23.6799-39.12-35.76
		c-13.95-12.46-27.78-25.21-43.24-35.7999c-3.29-2.59-5.99,1.95-7.81,4.1799c-0.3-0.4299-0.88-1.3099-1.18-1.75
		c1.01-2.08,2.12-4.5599,4.56-5.24c3.14-1.2,6.28,0.73,8.85,2.38c6.65,4.5901,12.77,9.89,18.93,15.12
		c15.19,13.11,29.9901,26.6801,44.83,40.2001c5.35,4.62,10.26,9.83,16.12,13.8199c2.97-0.47,3.27-4.71,1.97-6.9
		c-5.59-10.95-12.69-21.11-17.66-32.38c-1.5-3.6499-3.23-7.4099-3.16-11.4299c0.04-3.09,3.43-5.36,6.33-4.61
		c5.22,1.21,9.8199,4.12,14.66,6.3099c6.93,3.15,13.19,7.5701,20.12,10.74c9.33,4.91,19.39,8.17,29.25,11.8101
		c39.88,14.9,80.9401,26.28,121.79,38.1699c22.5699,5.8501,44.87,12.8401,67.7999,17.1801c4.4501,0.87,9.4601,0.5601,13.13-2.39
		c5.6-4.13,10.86-10.34,18.3201-10.5499c31.7899,4.35,63.0599,11.83,94.75,16.8199c5.5,0.78,11.0599,2.74,16.65,1.3199
		c-1.1901-2.08-2.42-4.2-4.3301-5.6699c-18.59-14.1901-35.86-30.11-51.6699-47.3301c-6.7001-6.8199-11.8301-14.9199-17.15-22.7899
		c-3.9701-6.0901-8.3-11.9601-11.66-18.4301C1298.34,1577.39,1292.98,1569.09,1290.48,1559.63z"/>
	<path fill="#607968" stroke="#607968" stroke-width="0.594" d="M1295.75,1563.33c-1.92-0.63-0.3101-3.8099,1.26-2.38
		C1296.6899,1561.55,1296.0601,1562.74,1295.75,1563.33z"/>
	<path fill="#020202" stroke="#020202" stroke-width="0.594" d="M910.82,1579.58c0.3,0.4401,0.88,1.3201,1.18,1.75
		c-2.05,7.4-4.02,14.9501-3.96,22.6901c0.23,8.75,4,16.97,8.9,24.08c2.04,3.3101,5.38,6.62,4.17,10.88
		c-2.47-1.49-4.77-3.27-6.56-5.52c-4.53-5.45-9.34-10.6599-14.06-15.9299c-3.38-3.6801-5.96-8.1801-10.24-10.9401
		c-6.82,13.8301-11.38,28.67-15.12,43.6c-1.21,5.3201-2.57,11.25,0.34,16.29c0.21,0.4501,0.6201,1.36,0.82,1.8101
		c-0.93,0.45-1.84,0.95-2.71,1.51c-0.39,1-0.76,2.0199-1.1,3.0699c0.69,0.42,2.07,1.25,2.76,1.66c0.69,6.0699,0.04,12.22,0.88,18.28
		c0.85,6.5299,0.3,13.1499,1.07,19.7c0.73,6.8,0.58,13.66,0.69,20.5c0.53,13.79,0.23,27.66-1.79,41.34
		c-3.07,21.14-8.36,41.87-12.7401,62.76c-3.27,15.25-6.58,30.49-10.31,45.63c-2.71,10.92-3.88,22.13-5.4,33.26h-5.49
		c-0.09-8.02,1.64-15.88,2.87-23.76c2.91-14.37,6.31-28.64,9.62-42.92c3.11-13.09,5.32-26.38,8.47-39.46
		c5.86-24.15,9.89-48.9399,9.08-73.85c-0.47-18.36-2.11-36.66-2.47-55.03c-0.1299-6.3099-1.16-12.62-0.18-18.91
		c0.28-10.2899,3-20.3099,6.27-30c3.19-9.4399,6.46-18.88,10.67-27.9199c-5.18-5.6901-10.16-11.5601-15.24-17.3301
		c1.27-0.73,2.54-1.46,3.84-2.1599c9.04,10.4,18.31,20.61,27.15,31.1799c1.04,1.4,2.82,1.6801,4.4,2.16
		c0.45-3.36,0.19-6.74-0.47-10.04c-1.25-6.1799,0.04-12.46,1.17-18.5499C907.96,1585.96,909.21,1582.6801,910.82,1579.58z"/>
	<path fill="#50CCF8" stroke="#50CCF8" stroke-width="0.594" d="M966.94,1654.4c22.66-1.91,45.33-3.91,68.03-5.17
		c27.9,0.64,55.99,4.6801,82.15,14.72c10.16,3.8201,19.78,8.87,29.7,13.26c18.13,9.53,36.8301,17.89,55.4601,26.39
		c8.78,3.66,17.09,8.36,25.6699,12.48c17.7101,8.5601,35.05,18.2001,50.4401,30.54c6.72,5.58,13.77,10.9,19.13,17.88
		c10.64,11.7,18.72,25.34,27.6,38.35c15.1,23.9301,35.5,43.77,54.72,64.3201c9.7201,10.6,20.4,20.4199,28.9301,32.0699
		c2.5,5.22,4.12,10.97,4.71,16.76h-6.97c0.6-3.34,2.1899-6.97,0.5699-10.24c-2.5599-5.7-7.1599-10.0601-11.23-14.66
		c-25.16-27.5699-52.9399-53.11-73.62-84.41c-6.59-10.84-13.65-21.4199-21.59-31.3199c-13.1-15.78-29.59-28.38-47.1901-38.74
		c-16.6-9.41-33.33-18.66-50.86-26.22c-13.5699-6.9601-27.74-12.66-41.34-19.55c-6.23-3.23-12.54-6.29-19.01-9.01
		c-29.4299-15.12-62.0699-24.13-95.1899-25.26c-8.03-0.0599-16.02-1.45-24.04-0.74c-8.98,0.87-18.02,0.49-26.98,1.53
		c-11.84,0.05-23.63,1.33-35.28,3.4301c-24.37,3.34-48.61,7.61-72.98,10.9199c-4.66,0.6-9.25,1.8201-13.97,1.8201
		c-0.05-0.9401-0.17-2.8101-0.22-3.75c0.87-0.5601,1.78-1.0601,2.71-1.51C906.32,1662.5699,936.51,1657.41,966.94,1654.4z"/>
</g>
</svg>
