<?xml version="1.0" encoding="utf-8"?>

<!DOCTYPE svg PUBLIC "-//W3C//DTD SVG 1.1//EN" "http://www.w3.org/Graphics/SVG/1.1/DTD/svg11.dtd">
<svg version="1.1" id="Layer_1" xmlns="http://www.w3.org/2000/svg" xmlns:xlink="http://www.w3.org/1999/xlink" x="0px" y="0px"
	 viewBox="0 0 1441 1920" enable-background="new 0 0 1441 1920" xml:space="preserve">
<g>
	<path fill="#140000" stroke="#140000" stroke-width="0.0938" d="M624.98,0h4.57c-28.84,13.86-55.73,31.7-79.84,52.74
		c-30.19,26.2-56.39,56.68-80.08,88.79c-36.54,49.87-67.52,103.49-97.59,157.42c-21.55,37.18-35.76,77.96-49.61,118.46
		c-18.19,54.95-33.84,110.69-49.03,166.53c-0.52-0.6-1.57-1.78-2.1-2.37c13.07-48.25,26.9-96.32,42.16-143.93
		c13.52-41.16,27.61-82.34,46.91-121.22c17.76-32.64,36.12-64.96,55.33-96.78c25.39-41.67,52.55-82.49,84.5-119.48
		c23.74-27.56,50.32-52.85,80.23-73.65C594.53,16.47,609.71,8.1,624.98,0z"/>
	<path fill="#726555" stroke="#726555" stroke-width="0.0938" d="M629.55,0h354.78c3.64,1.58,7.36,3.55,9.6,6.96
		c3.59,5.28,4.25,11.82,4.99,17.98c1.09,9.94,1.53,20.51,6.9,29.27c5.09,8.07,14.22,12.37,23.14,14.76
		c11.74,3.49,24.92,5.04,34.27,13.73c6.72,6.83,10.48,15.85,15.5801,23.84c22.5099,43.17,42.2599,87.79,59.2799,133.41
		c14.77,39.5,27.4401,79.83,36.79,120.97c8.58,39.02,14.51,79.04,12.04,119.08c-2.75,44.59-13.5,88.23-26.0601,130.95
		c-11.6,38.8-25.22,76.95-38.78,115.1c-13.6899,38.92-27.9099,77.79-37.5499,117.98c-4.4601,20.24-7.9,41.06-5.92,61.84
		c2.05,35.3,10.33,69.89,20.76,103.57c6.48,20.65,13.6,41.09,20.86,61.48c6.16,18.47,13.26,36.8199,16.24,56.1599
		c2.78,32.75-0.1799,65.8401-6.6899,98c-2.8101,15-9.72,28.92-18.3301,41.41c-4.01,5.5601-8.1,11.3201-13.84,15.24
		c-4.2999,3.04-9.13,5.25-14.16,6.78c4.49-12.03,6.9801-24.64,10.14-37.05c1.0901-4.7999,2.4601-9.5699,3.11-14.45
		c-0.0199-1.3,0.53-3.1-0.75-3.9401c-2.34-0.5499-3.3199,2.01-4.46,3.52c-6.2,10.8201-10.9399,22.4601-14.52,34.4
		c-2.72,8.4301-1.45,17.38-1.37,26.0701c2.5601,46.34,6.73,92.59,7.84,139c0.6901,27.5099,1.28,55.1699-2.0499,82.5399
		c-6.13,39.91-17.99,78.73-32.39,116.38c-6.28,15.6801-12.72,31.36-20.8,46.22c-3.3999,6.3101-7.73,12.14-12.9299,17.0901
		c-9.27,8.85-20.81,14.97-29.72,24.25c-10.99,10.89-17.61,25.08-24.18,38.85c-6.06,12.3099-12.08,25.25-22.6,34.47
		c-7.78,6.8201-16.67,12.27-25.77,17.15c-7.37,3.62-14.67,7.59-22.65,9.74c3.6-6.6801,8.41-12.65,11.54-19.59
		c7.73-15.9,15.42-31.85,21.96-48.3c0.9301-2.64,2.51-5.6,0.75-8.25c-5.25,4.9-8.94,11.12-13.39,16.6901
		c-11.7401,15.84-27.2,28.63-43.87,38.99c-13.75,8.61-28.9901,14.34-44.22,19.73c-17.6,6.36-35.3,12.4199-53.15,18.01
		c-7.02,2.1599-13.95,4.6699-21.16,6.09c6.51-5.9301,13.66-11.12,19.9-17.34c13.12-12.24,26.28-24.4601,38.65-37.47
		c1.57-2.13,4.59-4.29,3.55-7.25c-3.29,0.45-5.99,2.49-8.7,4.23C789.47,1796.7,777,1805.75,762.98,1811.98
		c-20.94,8.98-42.45,16.53-63.95,24.01c-15.79,5.0601-31.45,10.96-47.94,13.3c-11.4901,1.7999-23.13,3.0699-34.79,2.51
		c6.16-5.6001,14.55-9.15,18.46-16.88c0.95-1.61,1.93-3.1901,2.97-4.7201c4.31-4.5,5.79-10.72,8.07-16.33
		c2.98-7.33,4.05-15.2,5.68-22.89c4.51-21.4199,8.15-43.01,12.12-64.54c3.28-20.7899,7.37-41.49,9.51-62.45
		c0.43-2.8,0.07-5.59-0.85-8.23c-5.57,3.87-8.31,10.25-11.63,15.91c-6.34,11.9399-12.19,24.1499-17.29,36.6699
		c-3.07,7.53-4.72,15.54-6.05,23.54c-1.09,5.79-1.16,11.74-2.79,17.4399c-1.21-13.1-0.98-26.2899-0.09-39.3999
		c0.4-7.0801,2.05-13.99,3.4901-20.9c9.25-44.46,19.5699-88.6801,29.81-132.92c18.97-79.98,38.37-159.89,60.36-239.1
		c21.52-78.23,50.09-154.27,79.35-229.86c17.17-44.0601,34.88-87.91,53.2-131.51c0.61-1.8,0.97-3.67,1.39-5.52
		c26.43-22.07,45.82-51,64.25-79.74c12-18.92,23.24-38.3,34.29-57.77c9.33-16.66,19.25-32.98,28.06-49.93
		c9.29-17.59,17.65-35.69,24.81-54.26c6.7-16.42,12.56-33.24,16.2-50.62c3.58-14.06,4.66-28.55,6.13-42.93
		c5.16-49.18,8.79-98.49,13.09-147.75c1.63-20.06,3.02-40.13,4.65-60.18c0.42-4.63,1.36-9.32,0.26-13.92
		c-7.98-39.12-17.15-78.02-28.39-116.33c-4.87-15.36-9.71-30.8-16.58-45.4c-6.76-13.93-15.86-26.54-25.51-38.59
		c-16.52-20.32-34.95-39-54.14-56.81c-1.92-1.8-4.04-3.43-6.43-4.55c-13.43-6.24-27.13-11.91-41.13-16.76
		c-18.62-6.16-37.88-11.36-57.61-11.6c-19.09-0.09-36.88,8.1-53.66,16.35c-31.35,16.02-60.37,36.29-87.74,58.37
		c-25.97,21.1-50.29,44.31-71.87,69.9c-24.19,28.25-46.44,58.4-63.65,91.45c-18.49,35.16-31.13,73.11-40.57,111.61
		c-6.2,25.64-5.02,52.28-4.33,78.44c2.69,52.21,8.48,104.2,13.2,156.25c3.3199,41.49,7.08,83.03,6.6299,124.7
		c0.17,21.7-1.23,43.44-4.6,64.89c-2.58,14.43-5.86,28.89-12.19,42.2c-11.88,23.79-30.31,43.55-49.94,61.16
		c-34.88,30.78-74.7,55.3701-115.5,77.45c-23.78,12.6901-48.03,24.53-72.77,35.25c-6.93,2.75-13.47,6.54-20.78,8.28
		c0.9-4.51,5.05-6.9301,8.04-9.97c8.35-8.0601,16.97-15.89,24.48-24.75c1.85-1.9801,2.74-4.5601,3.1-7.2001
		c-3,0.5701-6.07,0.98-8.89,2.2001c-26.63,11.1799-52.28,24.5499-79.1,35.2799c-1.62,0.52-3.3,0.77-4.96,1.14
		c9.77-8.39,20.57-15.46,30.78-23.28c9.2-7.0399,18.65-14.0099,26.19-22.8899c2.6-3.14,5.38-7.7001,3.04-11.7301
		c-3.22-4.9199-9.67-5.6499-14.97-6.5099c-20.97-2.28-42.57-0.28-63.01-6.39c-14.36-5.04-28.15-11.55-41.96-17.9401
		c-20.46-9.83-40.82-20.02-60.14-31.97c-6.37-4.45-13.92-8.03-18.04-14.91c7.52-0.43,14.89,1.32,22.23,2.71
		c21.13,4.16,42.32,9.43,64.02,9.02c8.87-0.38,18.09-1.52,25.78-6.3c5.41-3.1201,7.83-9.22,10.37-14.59
		c7.12-16.62,12.13-34.03,17.4-51.29c11.19-38.4301,21.08-77.22,31.14-115.96c17.01-66.73,33.87-133.5,51.71-200
		c15.19-55.84,30.84-111.58,49.03-166.53c13.85-40.5,28.06-81.28,49.61-118.46c30.07-53.93,61.05-107.55,97.59-157.42
		c23.69-32.11,49.89-62.59,80.08-88.79C573.82,31.7,600.71,13.86,629.55,0z"/>
	<path fill="#0A0000" stroke="#0A0000" stroke-width="0.0938" d="M984.33,0h4.5c8.17,4.2,11.17,13.57,12.48,22.04
		c1.81,11.18,1.86,23.79,9.83,32.75c7.24,8.82,18.84,11.56,29.26,14.73c9.34,2.99,19.16,6.6,25.58,14.42
		c5.03,6.34,8.98,13.47,12.7001,20.64l0.13,1.96c-5.1001-7.99-8.8601-17.01-15.5801-23.84c-9.35-8.69-22.53-10.24-34.27-13.73
		c-8.92-2.39-18.05-6.69-23.14-14.76c-5.37-8.76-5.81-19.33-6.9-29.27c-0.74-6.16-1.4-12.7-4.99-17.98
		C991.69,3.55,987.97,1.58,984.33,0z"/>
	<path fill="#050100" stroke="#050100" stroke-width="0.0938" d="M770.3,119.32c16.78-8.25,34.57-16.44,53.66-16.35
		c19.73,0.24,38.99,5.44,57.61,11.6c14,4.85,27.7,10.52,41.13,16.76c2.39,1.12,4.51,2.75,6.43,4.55
		c19.19,17.81,37.62,36.49,54.14,56.81c9.65,12.05,18.75,24.66,25.51,38.59c6.87,14.6,11.71,30.04,16.58,45.4
		c11.24,38.31,20.41,77.21,28.39,116.33c1.1,4.6,0.16,9.29-0.26,13.92c-1.63,20.05-3.02,40.12-4.65,60.18
		c-4.2999,49.26-7.9299,98.57-13.09,147.75c-1.47,14.38-2.55,28.87-6.13,42.93c-3.64,17.38-9.5,34.2-16.2,50.62
		c-7.16,18.57-15.52,36.67-24.81,54.26c-8.81,16.95-18.73,33.27-28.06,49.93c-11.05,19.47-22.29,38.85-34.29,57.77
		c-18.43,28.74-37.82,57.67-64.25,79.74c-0.42,1.85-0.78,3.72-1.39,5.52c-18.32,43.6-36.03,87.45-53.2,131.51
		c-29.26,75.59-57.83,151.63-79.35,229.86c-21.99,79.21-41.39,159.12-60.36,239.1c-10.2401,44.24-20.56,88.4601-29.81,132.92
		c-1.44,6.91-3.09,13.8199-3.4901,20.9c-0.89,13.11-1.12,26.2999,0.09,39.3999c1.63-5.7,1.7-11.6499,2.79-17.4399
		c1.33-8,2.98-16.01,6.05-23.54c5.1-12.52,10.95-24.73,17.29-36.6699c3.32-5.66,6.06-12.04,11.63-15.91
		c0.92,2.64,1.28,5.4299,0.85,8.23c-2.14,20.96-6.23,41.66-9.51,62.45c-3.97,21.53-7.61,43.1201-12.12,64.54
		c-1.63,7.6901-2.7,15.5601-5.68,22.89c-2.28,5.61-3.76,11.83-8.07,16.33c8.43-17.22,11.12-36.4299,14.87-55.0399
		c4.61-23.7101,8.79-47.5,12.79-71.3201c2.11-14.96,5.28-29.83,5.94-44.96c-5.63,6.21-9.12,13.9301-13.13,21.21
		c-5.01,9.89-9.84,19.88-13.96,30.1801c-3.45,8.8199-4.68,18.28-5.99,27.6c-0.89,5.8101-0.77,11.89-3.24,17.36
		c-2.75-2.89-2.44-7.0499-2.81-10.7c-0.52-9.54-0.48-19.11-0.12-28.65c0.58-15.92,4.85-31.35,8.06-46.86
		c2.4-12.4501,5.71-24.71,7.92-37.1901c0.09-0.46,0.27-1.37,0.36-1.8199c4.92-18.52,8.59-37.4,13.15-56.02
		c19.71-84.33,40.11-168.52,63.11-252.02c22.44-82.5399,52.19-162.83,82.84-242.6c16.28-42.02,33.11-83.81,50.23-125.49
		c-15.41,12.56-31.66,24.13-48.97,33.93c-14.8101,8.42-30.28,15.9-46.7,20.64c-11.06,3.1-22.7,3.76-34.11,2.65
		c-15.75-1.63-31.11-5.92-46.93-6.96c-14-1.39-28.09-0.28-42.09-1.44c-12.51-0.61-24.77-4.12-36-9.59
		c-23.84-12.04-41.25-32.92-58.49-52.67c7.05,52.18,12.3,104.8,11.08,157.52c-0.34,20.6801-2.5,41.3301-6.79,61.5701
		c-8.75,43.53-21.6,86.12-35.16,128.36c-7.61,22.64-15.19,45.3199-24.36,67.39c-1.6,3.3199-2.79,6.98-5.19,9.84
		c-1.5,1.95-3.4-0.83-3.76-2.33c-4.19-14.77-2.25-30.75-7.68-45.2201c-4.43,6.4301-7.04,13.87-10.3,20.92
		c-12.64,30.28-24.35,60.9401-36.25,91.51c-4.37,10.26-6.37,21.29-9.78,31.88c-2.33,7.03-3.43,14.58-6.39,21.3199l-1.56,0.6101
		c1.29-5.0601,3.03-10.01,3.91-15.16c-2.85,1.6799-3.38,5.21-4.66,8c-2.52,6.03-4.78,12.22-7.98,17.9299
		c-0.59,1.29-2.15,1.27-3.34,1.52c-1.8-13.13,0.78-26.3199,0.97-39.47c0.23-3.63,0.34-7.27,0.11-10.89
		c-0.38,0.58-1.14,1.72-1.52,2.3c-4.13,6.4199-6.43,13.7799-8.93,20.9299c-7.79,22.41-8.14,46.62-6.06,70.02
		c1.41,17.41,10.44,33.01,12.87,50.21c1.26,12.0801-4.06,23.55-9.38,34.0701c-3.96,7.34-5.72,15.58-7.13,23.74
		c-0.98,6.86-0.13,14.14,3.7,20.0699c2.64,5.0701,6.79,9.37,8.51,14.9c0.31,2.36-2.49,3.37-4.4,3.09
		c-5.76-0.45-11.13-3.0699-16.03-5.96c-6.36-3.83-10.53-10.36-12.9-17.24c-2.73-7.97-5.34-16.3-4.44-24.8199
		c0.27-6.66,2.34-13.3,1.3-19.9501c-0.22-0.35-0.66-1.0499-0.88-1.39c-6,1.66-10.39,6.4501-14.98,10.38
		c-11.87,11.52-23.4,23.64-32.29,37.67c-10.13,15.8099-18.75,32.52-28.16,48.76c-5.73,8.85-10.12,18.46-15.57,27.47
		c-1.81,2.54-3.64,5.86-6.99,6.4401c-3.51-0.28-5.66-3.4901-7.3-6.2301c-9.26-16.83-11.86-37.9299-4.48-55.9299
		c4.41-11.47,9.18-22.8,13.71-34.22c3.11-8.7001,7.36-17.15,8.39-26.4401c-6.42,4.04-11.14,10.12-16.12,15.72
		c-12.93,15.2301-25.03,31.15-36.39,47.5801c-6.06,8.5-9.71,18.4-12.59,28.36c-2.15,6.35-3.6,13.09-7.1,18.89
		c-1.14,2.15-3.99,3.27-6.11,1.7899c-4.31-3.0399-6.43-8.1699-8.41-12.86c-3.1-8.39-5.48-17.1599-6-26.13
		c-0.35-7.7,2.98-14.86,5.43-21.98c6.89-18.1699,15.58-35.61,21.89-54c1.1-3.4,2.07-6.96,1.55-10.5499
		c-4.1-0.5-7.62,2.2699-10.98,4.2c-13.03,8.63-24.64,19.23-35.53,30.38c-5.12,5.5599-10.43,11.14-14.06,17.84
		c-3.67,8.11-1.79,17.3-0.3,25.72c1.15,6.8501,4.19,13.4301,4.17,20.4601c0.31,2.1899-2.74,2.24-3.88,1.0399
		c-4.04-3.3199-7.13-7.6-10.19-11.7899c-5.51-7.72-10.34-15.92-14.64-24.37c-5.41-11.28-10.48-23.2101-10.6-35.92
		c-0.32-19.92,7.22-38.6799,11.31-57.88c2.56-10.7999,4.2-21.9,3.67-33.02c-0.6-19.89-7.36-39.08-7.16-59.0499
		c-0.21-12.29,2.74-24.3,5.78-36.12c13.77-52.9801,30.34-105.17,45.82-157.66c2.37-8.51,5.59-16.83,7-25.5701
		c-3.16,6.9901-5.97,14.14-9.34,21.05c-2.69,5.09-4.93,10.92-9.68,14.47c-2.76,1.5601-4.23-1.97-5.12-3.9299
		c-2.87-7.52-4.97-15.3-7.09-23.05c-9.25-37.09-16.77-74.63-22.33-112.46c-1.28-8.87-2.29-17.78-2.77-26.72
		c-0.7-16.0701,3.91-31.7001,8.58-46.88c3.79-11.53,8.22-22.8301,12.92-34.01c-2.15,1.9-4.35,3.99-7.29,4.52
		c-6.48,1.38-13.16,1.99-19.78,1.6c-3.09-0.3101-6.88-0.72-8.69-3.62c-0.89-2.8301,1.18-5.41,2.59-7.66
		c6.83-9.59,15.06-18.0699,22.93-26.79c-13.77,3.37-27.02,8.63-39.6,15.12c-13.85,6.87-26.78,15.4401-40.59,22.38
		c-11.13,5.55-23.56,8.2101-34.24,14.6801c-4.11,2.3099-6.83,6.42-11.09,8.51c0.36-0.7101,1.08-2.11,1.43-2.8201
		c7.89-8.5599,19.07-12.58,29.75-16.37c14.67-5.0499,27.75-13.5399,41.18-21.11c15.32-8.62,31.29-16.4399,48.38-20.85
		c2.51-0.73,5.2-1.02,7.5-2.32c3.3-2.55,5.73-5.98,8.61-8.95c-15.13-6.4-29.87-13.68-44.55-21.04
		c-12.36-6.41-24.71-12.95-36.12-20.94c-3.22-2.37-6.65-4.77-8.68-8.31c-1.34-2.21-0.51-5.58,2.17-6.25
		c5.91-1.6,12.06,0.16,17.94,1.07c20.21,4.06,40.4,8.87,61.05,10.04c10.47,0.42,21.5-0.19,30.96-5.13
		c4.63-2.34,6.79-7.32,8.94-11.74c6.91-15.56,11.8-31.92,16.82-48.16c6.87-22.88,13.11-45.94,19.34-68.99
		c22.28-84.1,43.29-168.54,66.24-252.46c0.53,0.59,1.58,1.77,2.1,2.37c-17.84,66.5-34.7,133.27-51.71,200
		c-10.06,38.74-19.95,77.53-31.14,115.96c-5.27,17.2599-10.28,34.67-17.4,51.29c-2.54,5.37-4.96,11.47-10.37,14.59
		c-7.69,4.78-16.91,5.92-25.78,6.3c-21.7,0.41-42.89-4.86-64.02-9.02c-7.34-1.39-14.71-3.14-22.23-2.71
		c4.12,6.88,11.67,10.46,18.04,14.91c19.32,11.95,39.68,22.14,60.14,31.97c13.81,6.39,27.6,12.9,41.96,17.9401
		c20.44,6.11,42.04,4.11,63.01,6.39c5.3,0.86,11.75,1.59,14.97,6.5099c2.34,4.03-0.44,8.5901-3.04,11.7301
		c-7.54,8.88-16.99,15.85-26.19,22.8899c-10.21,7.8201-21.01,14.89-30.78,23.28c1.66-0.37,3.34-0.62,4.96-1.14
		c26.82-10.73,52.47-24.1,79.1-35.2799c2.82-1.2201,5.89-1.63,8.89-2.2001c-0.36,2.64-1.25,5.22-3.1,7.2001
		c-7.51,8.86-16.13,16.6899-24.48,24.75c-2.99,3.0399-7.14,5.46-8.04,9.97c7.31-1.74,13.85-5.53,20.78-8.28
		c24.74-10.72,48.99-22.5599,72.77-35.25c40.8-22.08,80.62-46.67,115.5-77.45c19.63-17.61,38.06-37.37,49.94-61.16
		c6.33-13.31,9.61-27.77,12.19-42.2c3.37-21.45,4.77-43.19,4.6-64.89c0.45-41.67-3.31-83.21-6.6299-124.7
		c-4.72-52.05-10.51-104.04-13.2-156.25c-0.69-26.16-1.87-52.8,4.33-78.44c9.44-38.5,22.08-76.45,40.57-111.61
		c17.21-33.05,39.46-63.2,63.65-91.45c21.58-25.59,45.9-48.8,71.87-69.9C709.93,155.61,738.95,135.34,770.3,119.32 M788.35,115.54
		c-24.95,10.64-48.09,25.05-70.31,40.51c-32.68,23.08-63.21,49.29-90.43,78.63c-27.92,30.66-54.23,63.17-74.42,99.52
		c-18.15,32.23-31.13,67.11-41.01,102.68c-3.5,11.75-6.44,23.74-7.25,36.01l-0.59-0.52c-0.05,11.56-0.97,23.11-0.72,34.68
		c1.14,62.88,9.42,125.32,14.45,187.94c4.07,45.21,7.01,90.63,5.47,136.03c-0.68,19.76-2.65,39.54-7.08,58.84
		c-1.62,5.07,1.55,9.6,4,13.74c8.19,13.72,17.63,26.7,28.28,38.61c14.59,17,29.69,34.28,49.16,45.84c10.08,6.08,21.38,10.01,33,11.8
		c12.6,1.9301,25.4,1.13,38.09,1.73c14.15,0.25,28.2,2.26,42.08,4.9c11.65,2.15,23.54,4.15,35.41,2.83
		c17.38-1.78,33.63-8.9,49.12-16.6c19.1-9.86,37.23-21.61,54.08-34.95c14.64-11.59,28.51-24.3,40.12-38.97
		c24.31-30.34,44.11-63.93,63.52-97.5099c18.4-32.59,38.14-64.6,52.44-99.29c8.5-20.36,16.75-40.97,21.52-62.57
		c4.99-21.46,6.37-43.53,8.5599-65.39c2.67-29.09,5.3101-58.17,7.74-87.28c-2.25,0.15-4.5399,0.03-6.49-1.17
		c-16.8099-8.76-32.97-19.44-51.53-24.18c-7.66-2.13-15.68-1.56-23.52-1.39c-30.92,2.01-61.48,7.47-91.97,12.69
		c-3.64-2-7.38-3.95-11.05-5.92c-4.19-2.22-6.72-7.23-5.63-11.91c0.93-4.88,2.78-10.29,7.21-13.05c4.33-1.44,8.97-1.36,13.46-1.94
		c22.6-1.74,45.26-2.51,67.93-2.46c13.38,0.28,26.81,0.43,40.07,2.42c13.65,1.98,25.59,9.6,36.52,17.58
		c9.28,7.17,18.5099,14.75,25.3699,24.37c2.7001-35.22,6.02-70.41,8.3301-105.64c-5.3301-27.64-11.85-55.04-18.6901-82.34
		c-6.8199-25.52-13.71-51.13-23.83-75.58c-5.9-14.18-14.89-26.78-24.42-38.72c-18.45-22.69-39.3-43.37-61.34-62.55
		c-15.89-8.46-32.9-14.71-49.94-20.45c-17.5-5.28-35.58-10.01-54.02-9.28C808.99,107.57,798.51,111.54,788.35,115.54 M908.1,460.71
		c-14.99,1.3-30.12,1.83-44.92,4.7c-4.06,2.06-5.21,7.42-5.91,11.58c0.5,5.83,6.67,8.7,10.93,11.71c3.69-0.01,7.23-1.33,10.87-1.79
		c22.56-3.84,45.15-7.61,67.92-9.95c13.28-0.98,26.91-2.84,40.03,0.4c18.69,5.02,35.08,15.64,52.04,24.54
		c-2.6901-4.49-6.54-8.1-10.0901-11.89c-10.3199-10.27-21.74-19.77-35.03-25.93c-5.08-2.23-10.67-2.81-16.1-3.53
		C954.65,458.25,931.32,459.57,908.1,460.71 M514.55,897.33c-2.56,8.67-5.64,17.24-9.95,25.22c-13.91,25.57-34.64,46.65-56.63,65.4
		c-20.29,17.08-42.06,32.35-64.57,46.35c-37.97,23.62-77.86,44.1-118.76,62.1699c-6.03,2.6-12.67,5.5701-19.36,4.17
		c-1.77-2.49-0.14-5.7001,1.93-7.41c8.09-7.58,16.17-15.1899,23.88-23.15c3.06-3.33,6.42-6.49,8.58-10.5299
		c-6.01,1.48-11.41,4.59-17.06,7.01c-21.04,9.87-41.64,20.6799-62.93,30.0099c-4.48,1.67-8.86,4.01-13.68,4.4501
		c-2.19,0.27-4-1.89-3.07-3.97c1.51-3.0801,4.51-5.03,7.07-7.15c17.13-12.8301,35.79-23.75,51.42-38.49
		c2.92-3.3,7.33-7.1,6.09-11.99c-2.93-4.4501-8.79-5.15-13.61-5.86c-16.94-1.8701-34.12-0.8-50.96-3.7001
		c-15.44-2.25-29.46-9.48-43.84-15.1c-5.32,5.16-10.04,10.88-14.9,16.46c-7.05,8.7101-15.01,16.91-20.07,27.01
		c6.71,2.4501,13.96,2.09,20.97,1.72c2.82-0.23,6.08-0.3999,8.03-2.76c2.63-2.3999,3.56-6.62,7.28-7.6799
		c-0.24,3.75-1.96,7.11-3.35,10.54c-8.52,20.59-16.5,41.6899-19.79,63.84c-1.84,13.0699,0.34,26.23,1.93,39.21
		c5.15,36.77,12.57,73.2101,21.33,109.29c2.83,10.21,5.14,20.66,9.51,30.37c3.42-1.45,4.89-5.1,6.72-8.0601
		c5.24-9.71,9.31-19.98,13.83-30.0299c0.93-2.12,2.09-4.3401,4.52-4.9801c-0.35,7.3701-3.47,14.2201-5.19,21.3401
		c-12.07,41.0699-24.75,81.97-36.61,123.11c-6,20.9399-12.01,41.89-16.82,63.14c-3.17,13.71-2.69,28.03-0.37,41.83
		c1.22,7.66,2.95,15.24,4,22.9301c1.92,13.58,2.03,27.51-0.7,40.99c-2.04,10.09-4.79,20.01-7.33,29.99
		c-3.13,11.71-6.08,23.7-5.63,35.9199c0.16,6.89,1.92,13.65,4.39,20.0601c4.53,12.38,10.98,23.97,18.29,34.92
		c3.85,5.4399,7.62,11.1499,12.92,15.33c-0.48-6.09-2.64-11.85-3.73-17.8199c-1.77-8.91-3.9-18.38-1.03-27.29
		c2.09-5.66,6.26-10.1901,10.04-14.77c10.53-11.83,22.31-22.54,34.9-32.14c5.28-3.4199,10.37-7.98,16.82-8.85
		c2.86-0.5699,3.94,2.78,3.55,5.04c-1.19,8.71-4.85,16.83-8.14,24.9199c-5.11,12.5901-10.8,24.9401-15.67,37.63
		c-2.16,6.17-4.73,12.37-5.11,18.97c0.18,9.3701,2.43,18.64,5.78,27.3601c1.9,4.2899,3.72,9.0399,7.59,11.96
		c2.37,1.5699,3.93-1.78,4.77-3.5c5.8-13.99,8.1-29.52,16.62-42.3101c5.68-8.5299,11.72-16.8099,17.91-24.97
		c9.59-12.36,19.11-24.88,30.11-36.0499c2.65-2.51,5.38-5.8401,9.45-5.41c0.58,5.54-1.45,10.8099-3.19,15.96
		c-4.52,12.1901-9.51,24.1901-14.38,36.25c-2.61,7.22-6.02,14.22-7.61,21.78c-1.6,12.36-0.6,25.27,4.65,36.71
		c2.12,4.28,3.61,10.24,8.72,11.77c3.37-1.76,5.04-5.5,7.04-8.55c4.68-8.6,9.25-17.2699,14.42-25.58
		c10.9-18.9399,20.82-38.52,33.48-56.39c8.93-11.6,19.01-22.33,29.84-32.1799c3.69-3.02,7.35-6.63,12.1-7.79
		c2.94-0.71,4.42,2.58,4.27,5.01c0.18,9.9299-3.35,19.9-0.89,29.79c2.35,9.3999,4.77,19.73,12.48,26.2999
		c5.84,4.66,13.11,7.9601,20.68,8.0601c-2.43-8.0701-9.31-14.01-11.63-22.1801c-2.63-9.3099-0.03-18.95,2.28-28.02
		c3.49-10.95,10.64-20.52,12.8-31.9399c2.4-10.15-0.76-20.42-3.92-30.01c-4.05-11.37-7.59-23.0601-8.56-35.14
		c-1.83-22.4-0.9-45.41,6.26-66.88c2.52-7.3099,5.07-14.67,8.83-21.4399c1.09-1.63,2.26-3.8601,4.47-3.9401
		c1.4,1.02,1.23,2.91,1.37,4.46c0.21,14.9801-2.59,29.88-1.71,44.87c2.7-3.1699,3.74-7.2799,5.56-10.9399
		c14.81-36.11,28.55-72.64,42.87-108.9399c7.2-17.64,13.81-35.5701,22.31-52.64c1.12-1.8201,2.43-5.53,5.2-4
		c1.57,1.4399,2.02,3.6499,2.52,5.6599c2.9,13.7301,2.87,27.92,6.21,41.5801c1.36-1.1801,2.23-2.77,2.91-4.39
		c8.37-18.65,14.81-38.09,21.58-57.35c14.31-43.04,27.56-86.49,37.51-130.76c4.6-21.11,8.2-42.55,8.88-64.1801
		c1.46-26.33,0.19-52.73-1.46-79.01c-2.26-28.11-4.67-56.24-9.01-84.11c-0.31-1.85-0.23-3.73-0.2-5.58
		C532.06,925.49,522.57,911.83,514.55,897.33z"/>
	<path fill="#140000" stroke="#140000" stroke-width="0.0938" d="M1078.6801,104.58c12.6899,22.5,23.49,46.02,34.09,69.56
		c18.24,41.41,34.48,83.73,47.8099,126.98c13.12,43.34,23.8301,87.68,27.6001,132.9c4.12,44.06-2.88,88.27-12.9801,131.07
		c-11.21,46.14-26.45,91.16-42.2799,135.8799c-14.04,39.94-28.8401,79.66-40.61,120.36c-5.6801,20.86-11.01,42-12.1101,63.68
		c-1.26,42.1,8.76,83.49,20.64,123.58l-1.47,0.85c-10.4301-33.68-18.71-68.27-20.76-103.57c-1.98-20.78,1.46-41.6,5.92-61.84
		c9.64-40.19,23.86-79.0601,37.5499-117.98c13.5601-38.15,27.1801-76.3,38.78-115.1C1173.42,568.23,1184.17,524.59,1186.92,480
		c2.47-40.04-3.4601-80.06-12.04-119.08c-9.35-41.14-22.02-81.47-36.79-120.97c-17.02-45.62-36.77-90.24-59.2799-133.41
		L1078.6801,104.58z"/>
	<path fill="#FFEEDC" stroke="#FFEEDC" stroke-width="0.0938" d="M788.35,115.54c10.16-4,20.64-7.97,31.69-8.31
		c18.44-0.73,36.52,4,54.02,9.28c17.04,5.74,34.05,11.99,49.94,20.45c22.04,19.18,42.89,39.86,61.34,62.55
		c9.53,11.94,18.52,24.54,24.42,38.72c10.12,24.45,17.01,50.06,23.83,75.58c6.8401,27.3,13.36,54.7,18.6901,82.34
		c-2.3101,35.23-5.63,70.42-8.3301,105.64c-6.86-9.62-16.09-17.2-25.3699-24.37c-10.93-7.98-22.87-15.6-36.52-17.58
		c-13.26-1.99-26.69-2.14-40.07-2.42c-22.67-0.05-45.33,0.72-67.93,2.46c-4.49,0.58-9.13,0.5-13.46,1.94
		c-4.43,2.76-6.28,8.17-7.21,13.05c-1.09,4.68,1.44,9.69,5.63,11.91c3.67,1.97,7.41,3.92,11.05,5.92
		c30.49-5.22,61.05-10.68,91.97-12.69c7.84-0.17,15.86-0.74,23.52,1.39c18.56,4.74,34.72,15.42,51.53,24.18
		c1.9501,1.2,4.24,1.32,6.49,1.17c-2.4299,29.11-5.0699,58.19-7.74,87.28c-2.1899,21.86-3.5699,43.93-8.5599,65.39
		c-4.77,21.6-13.02,42.21-21.52,62.57c-14.3,34.69-34.04,66.7-52.44,99.29c-19.41,33.58-39.21,67.17-63.52,97.5099
		c-11.61,14.67-25.48,27.38-40.12,38.97c-16.85,13.34-34.98,25.09-54.08,34.95c-15.49,7.7-31.74,14.82-49.12,16.6
		c-11.87,1.32-23.76-0.68-35.41-2.83c-13.88-2.64-27.93-4.65-42.08-4.9c-12.69-0.6-25.49,0.2-38.09-1.73
		c-11.62-1.79-22.92-5.72-33-11.8c-19.47-11.56-34.57-28.84-49.16-45.84c-10.65-11.91-20.09-24.89-28.28-38.61
		c-2.45-4.14-5.62-8.67-4-13.74c4.43-19.3,6.4-39.08,7.08-58.84c1.54-45.4-1.4-90.82-5.47-136.03
		c-5.03-62.62-13.31-125.06-14.45-187.94c-0.25-11.57,0.67-23.12,0.72-34.68l0.59,0.52c0.81-12.27,3.75-24.26,7.25-36.01
		c9.88-35.57,22.86-70.45,41.01-102.68c20.19-36.35,46.5-68.86,74.42-99.52c27.22-29.34,57.75-55.55,90.43-78.63
		C740.26,140.59,763.4,126.18,788.35,115.54 M585.96,387.12c-11.68,1.99-22.57,6.95-32.98,12.41c-7.26,4.02-14.4,8.36-20.79,13.68
		c-1.71,1.55-3.85,3.28-3.81,5.81c0.49,1.39,1.96,2.61,3.52,2.14c8.0099-1.54,15.43-5.15,23.25-7.38
		c13.18-3.94,26.89-8.23,40.8-6.37c7.51,1.77,14.56,5.03,21.56,8.21c31.29,15.24,61.01,33.46,90.58,51.75
		c1.36,1.14,3.02-0.22,4.0699-1.13c3.01-3.1,7-6.42,6.45-11.23c-0.61-8.84-3.14-19.4-11.74-23.75
		c-10.34-6.01-21.09-11.28-31.87-16.43c-18.95-8.82-38.18-17.15-58.07-23.61C606.94,388.31,596.44,385,585.96,387.12 M567.09,440.97
		c-1.38,2.55,0.14,5.39,0.83,7.95c1.7,6.6,8.5,9.46,12.95,13.95c-5.16-3.1-10.15-6.48-14.96-10.09c-3.09-2.26-4.61-5.91-7.28-8.55
		c-1.8-0.62-1.85,1.74-1.39,2.88c0.92,3.3,1.84,6.86,4.39,9.33c4.88,5.03,10.53,9.26,15.28,14.41c-4.59-2.19-8.92-4.89-13.23-7.57
		c-5.7-3.49-9.68-8.97-13.89-14.01c-0.92-1.18-3.1-3.17-3.44-0.48c1.01,4.5,2.71,8.86,4.96,12.89c2.54,4.91,7.66,7.52,11.56,11.19
		c-9.53-4.95-17.77-11.95-25.37-19.46c-0.76-0.7-2.23-2.18-3.03-0.54c1.67,2.83,4.51,4.7,6.29,7.46c2.52,3.72,4.8,7.83,8.65,10.38
		c1.32,0.99,3.4301,1.29,3.58,3.31c-4.1-2.85-8.47-5.29-12.4-8.37c-3.96-2.91-7.53-6.36-11.66-9.02l-1.06,0.17l-0.5,1.12
		c3.36,4.8,7.42,9.09,10.84,13.87c3.25,4.74,8.81,6.93,12.7599,10.96c-6.0699-1.7-12.25-3.6-17.42-7.32
		c-4.84-3.45-9.47-7.19-14.29-10.67c-1.2-0.88-2.53-1.42-4-1.64c0.31,3.75,3.63,6.07,5.82,8.8c5.66,6.45,11.67,12.67,19.09,17.13
		c-2.74-0.17-5.2-1.44-7.57-2.7c-8.81-4.46-17.5-9.15-26.33-13.55c-0.64,0.72-1.38,1.63-0.57,2.57
		c7.18,9.95,18.65,15.39,28.44,22.38c18.88,12.22,37.51,24.89,57.25,35.72c9.82,6.03,21.12,9.65,32.64,10.27
		c8.67,0.42,17.3199-0.78,26-0.65c13.05,0.02,26.1-0.56,39.14-1.32c-7.46-11.99-15.59-23.59-24.2-34.79
		c-8.68-10.23-16.65-21.64-28.39-28.65c-7.27-4.49-16.21-4.32-23.78-8.04c-4.46-2.02-8.13-5.35-11.54-8.78
		c-5.54-5.43-10.46-11.43-15.6-17.22c-0.99-0.99-1.93-2.37-3.5099-2.12c-1,1.91,0.87,3.41,1.75,4.95
		c4.25,6.28,9.38,11.98,13.0699,18.64c-5.74-3.74-11.47-7.49-16.97-11.57c-3.36-2.31-6.7-4.87-8.68-8.51
		C570.03,444.02,569.45,441.37,567.09,440.97 M739.63,498.82c1.7,16.01,3,32.15,2,48.26c-2.33,19.44-8.28,38.2-13.7,56.95
		c-0.85,3.16-2.36,6.22-2.23,9.56c0.48-0.28,1.44-0.84,1.91-1.1201c5.06-16.31,9.44-32.86,13.05-49.56
		c4.42-19.34,2.57-39.3799,0.28-58.88C740.73,502.24,740.59,500.39,739.63,498.82 M965.56,521.54c-4.01,2.75-8.67,4.3-12.74,6.93
		c-13.49-1.28-27.1-3.16-40.65-1.59c-9.49,0.63-19.07,1.75-28.05,5.03c-8.41,2.96-15.82,8.06-22.91,13.35
		c-8.91,6.85-17.87,13.74-25.9,21.62c1.37,1.33,3.03,2.28,4.86,2.87c23.6,8.69,47.67,16.88,72.75,19.96
		c15.49,1.42,31.08,0.22,46.51-1.35c16.43-1.68,32.8-3.93,49.07-6.72c7.07-1.31,14.28-2.11,21.1801-4.19
		c0.24-0.31,0.73-0.95,0.97-1.27l-0.77-0.83c-3.8-0.74-7.73-0.18-11.57-0.34c-4.92,0.45-9.96-0.32-14.81,0.35
		c-0.52-0.24-1.57-0.74-2.1-0.98c9.35-2.86,19.14-4.9,27.86-9.37l-0.03-1.31c-4.0599-0.78-8.19,0.82-12.18,1.54
		c-0.89,1.76-2.42,0.94-3.84,0.5c-6.18,0.8-12.26,2.31-18.5,2.66c6.11-5.23,14.11-7.52,20.73-12.02c2.97-2.19,7.4-2.95,9.02-6.57
		c-2.7599-0.59-5.29,0.78-7.79,1.66c-5.7,2.32-11.78,3.46-17.68,5.11c6.23-6.77,13.56-12.3,20.83-17.88l-0.48-1.05l-1.15-0.23
		c-4.46,1.95-8.41,4.98-13.08,6.48c-5.33,1.72-10.71,3.31-16.15,4.64c4.04-4.49,8.95-8.22,12.27-13.34
		c2.51-3.95,5.02-7.99,6.51-12.46c-0.71-2.88-3.2-0.62-4.39,0.5c-6.49,6.39-13.37,12.4-20.46,18.12c4.76-8.35,10.12-16.35,15-24.63
		c0.94-1.31,1.09-2.88,0.18-4.25c-7.04,4.56-12.45,11.14-18.1,17.25c-0.3,0.03-0.9,0.08-1.2,0.11c3.04-4.03,6-8.13,8.57-12.48
		c0.71-1.5,2.06-3.13,1.19-4.85c-1.69-0.56-2.9901,0.91-4.2401,1.76c-3.25,2.73-6.4,5.58-9.36,8.62c-0.71,0.63-1.4,1.29-2.06,1.96
		c-2.75,2.22-5,5-7.86,7.07c4.23-8.89,10.47-16.61,15.37-25.1l-1.73-0.1C973.83,511.21,970.84,517.47,965.56,521.54 M671.94,664.9
		c-5.35,5.8199-10.46,12.2599-12.66,19.99c-2.36,8.06-3.36,16.58-2.64,24.97c0.59,7.59,4.96,14.13,9.28,20.15
		c3.3,4.37,6.89,8.75,11.62,11.65c5.96,3.29,12.77,4.48,19.41,5.64c-5.2-2.01-10.76-3.03-15.77-5.52
		c-5.42-2.53-9.52-7.07-13.13-11.7c-3.28-4.33-6.32-8.93-8.32-14c-2.06-5.13-1.72-10.77-1.52-16.17c0.64-8.81,2.72-17.74,7.49-25.28
		c4.02-6.33,8.93-12.04,13.96-17.58C676.62,659.18,674.48,662.25,671.94,664.9 M822.51,678.42c1.42,11.09,2.39,22.3,2.06,33.49
		c-0.38,6.07-0.79,12.69-4.84,17.59c-7.71,9.5-19.23,14.46-29.71,20.16c11.13-4.12,22.22-9.52,30.63-18.08
		c5.87-5.91,5.49-14.89,5.46-22.59c0.17-10.33-2.21-20.46-2.88-30.7C823.05,678.32,822.69,678.39,822.51,678.42 M680.38,718.6
		c3.79-3.83,8.96-5.58,14.11-6.72c0.89,0.19,1.76,0.48,2.6,0.88c-3.29,0.79-7.23,1.36-9.4,4.27c-0.12,4.14,3.59,7.27,6.23,10.1
		c2.85,3.07,7.42,1.86,10.86,0.6c2.09-1.92,3.9-4.2,5.22-6.72c0.03-5.63-6.16-10.57-11.75-8.58c-0.72-0.45-1.42-0.91-2.1-1.37
		c3.86,0.07,8.71-1.24,11.55,2.27c5.01,6.08,9.14,12.94,12.31,20.16c0.13,0,0.4,0.01,0.53,0.01c-2.91-6.51-5.45-13.28-9.83-18.99
		c-2.48-3.91-7.17-6.7-11.86-5.2C692.23,711.03,683.89,711.8,680.38,718.6 M778.56,726.69c-4.69,4.38-9.01,9.42-11.41,15.44
		c1.89-1.91,3.64-3.95,5.0699-6.22c-0.98,3.23,2.53,3.36,4.63,3.9901c5,0.34,10.7,0.23,14.7-3.2401c1.34-1.08,2.48-3.04,1.36-4.66
		c-1.8799-3.18-4.93-6.16-8.81-6.36c-1.34,0.74-2.67,1.49-4.02,2.21c4.42-4.05,11.43-3.37,15.9,0.21c2.16,1.97,3.46,4.66,5.01,7.1
		c-0.49-1.98-1.14-3.94-2.29-5.62C794.67,722.98,784.19,721.29,778.56,726.69 M623.07,821.8c-12.76,2.06-25.64,3.6-38.28,6.35
		c27.38,20.7599,54.31,42.28,83.13,61.06c10.84,7.38,24.31,8.19,36.99,8.72c16.95,0.58,33,7.77,50.04,7.27
		c9.08,0.04,17.84-2.74,26.59-4.86c14.38-4.13,28.67-8.72,42.38-14.75c5.37-2.56,11.27-4.92,15.07-9.7c1.65-3.54-0.55-7.34-2.86-10
		c-6.63-7.48-15.1-12.95-23.11-18.78c-9.74-6.74-18.82-14.84-30.11-18.91c-12.95-5.3-27.22-3.82-40.87-4.42
		c-8.05-0.02-16.38-0.46-23.7-4.16c-12.41-6.39-26.83-7.12-40.48-5.89C659.53,815.94,641.33,819.1,623.07,821.8z"/>
	<path fill="#040100" stroke="#040100" stroke-width="0.0938" d="M585.96,387.12c10.48-2.12,20.98,1.19,30.97,4.1
		c19.89,6.46,39.12,14.79,58.07,23.61c10.78,5.15,21.53,10.42,31.87,16.43c8.6,4.35,11.13,14.91,11.74,23.75
		c0.55,4.81-3.44,8.13-6.45,11.23c-1.05,0.91-2.71,2.27-4.0699,1.13c-29.57-18.29-59.29-36.51-90.58-51.75
		c-7-3.18-14.05-6.44-21.56-8.21c-13.91-1.86-27.62,2.43-40.8,6.37c-7.82,2.23-15.2401,5.84-23.25,7.38
		c-1.56,0.47-3.03-0.75-3.52-2.14c-0.04-2.53,2.1-4.26,3.81-5.81c6.39-5.32,13.53-9.66,20.79-13.68
		C563.39,394.07,574.28,389.11,585.96,387.12 M580.42,392.56c-16.48,4.78-31.56,13.38-45.43,23.33c1.33-0.21,2.67-0.38,3.98-0.72
		c16.94-4.97,34.08-11.14,51.9901-10.32c10.06,0.43,19.1,5.2,28.24,8.91c31.35,14.57,61.04,32.38,90.86,49.77
		c3.96-0.99,7.31-5.31,6.04-9.5c-1.33-7.23-4.15-15.25-11.02-18.96c-18.39-10.6-37.78-19.37-57.24-27.81
		c-15.26-6.21-30.64-12.45-46.81-15.9C594.19,389.83,587.09,390.66,580.42,392.56z"/>
	<path fill="#665446" stroke="#665446" stroke-width="0.0938" d="M580.42,392.56c6.67-1.9,13.77-2.73,20.61-1.2
		c16.17,3.45,31.55,9.69,46.81,15.9c19.46,8.44,38.85,17.21,57.24,27.81c6.87,3.71,9.69,11.73,11.02,18.96
		c1.27,4.19-2.08,8.51-6.04,9.5c-29.82-17.39-59.51-35.2-90.86-49.77c-9.14-3.71-18.18-8.48-28.24-8.91
		c-17.91-0.82-35.05,5.35-51.9901,10.32c-1.31,0.34-2.65,0.51-3.98,0.72C548.86,405.94,563.94,397.34,580.42,392.56z"/>
	<path fill="#040200" stroke="#040200" stroke-width="0.0938" d="M567.09,440.97c2.36,0.4,2.94,3.05,4.23,4.71
		c1.98,3.64,5.32,6.2,8.68,8.51c5.5,4.08,11.23,7.83,16.97,11.57C593.28,459.1,588.15,453.4,583.9,447.12
		c-0.88-1.54-2.75-3.04-1.75-4.95c1.58-0.25,2.52,1.13,3.5099,2.12c5.14,5.79,10.06,11.79,15.6,17.22
		c3.41,3.43,7.08,6.76,11.54,8.78c7.57,3.72,16.51,3.55,23.78,8.04c11.74,7.01,19.71,18.42,28.39,28.65
		c8.61,11.2,16.7401,22.8,24.2,34.79c-13.04,0.76-26.09,1.34-39.14,1.32c-8.6801-0.13-17.33,1.0699-26,0.65
		c-11.52-0.62-22.82-4.24-32.64-10.27c-19.74-10.83-38.37-23.5-57.25-35.72c-9.79-6.99-21.26-12.43-28.44-22.38
		c-0.81-0.94-0.07-1.85,0.57-2.57c8.83,4.4,17.52,9.09,26.33,13.55c2.37,1.26,4.83,2.53,7.57,2.7
		c-7.42-4.46-13.43-10.68-19.09-17.13c-2.19-2.73-5.51-5.05-5.82-8.8c1.47,0.22,2.8,0.76,4,1.64c4.82,3.48,9.45,7.22,14.29,10.67
		c5.17,3.72,11.35,5.62,17.42,7.32c-3.95-4.03-9.5099-6.22-12.7599-10.96c-3.42-4.78-7.48-9.07-10.84-13.87l0.5-1.12l1.06-0.17
		c4.13,2.66,7.7,6.11,11.66,9.02c3.93,3.08,8.3,5.52,12.4,8.37c-0.15-2.02-2.26-2.32-3.58-3.31c-3.85-2.55-6.1299-6.66-8.65-10.38
		c-1.78-2.76-4.62-4.63-6.29-7.46c0.8-1.64,2.27-0.16,3.03,0.54c7.6,7.51,15.84,14.51,25.37,19.46c-3.9-3.67-9.02-6.28-11.56-11.19
		c-2.25-4.03-3.95-8.39-4.96-12.89c0.34-2.69,2.52-0.7,3.44,0.48c4.21,5.04,8.19,10.52,13.89,14.01c4.31,2.68,8.64,5.38,13.23,7.57
		c-4.75-5.15-10.4-9.38-15.28-14.41c-2.55-2.47-3.47-6.03-4.39-9.33c-0.46-1.14-0.41-3.5,1.39-2.88c2.67,2.64,4.19,6.29,7.28,8.55
		c4.81,3.61,9.8,6.99,14.96,10.09c-4.45-4.49-11.25-7.35-12.95-13.95C567.23,446.36,565.71,443.52,567.09,440.97 M572.87,451.21
		c3.05,3.18,6.62,5.79,9.83,8.8C579.61,456.88,576.54,453.67,572.87,451.21 M567.12,456.27c-0.36,1.39,0.16,1.92,1.55,1.59
		C569.02,456.46,568.5,455.93,567.12,456.27 M569.65,457.96c2.33,6.25,9.73,9.25,11.44,15.93c-1.3701-0.25-2.78-0.27-4.05-0.84
		c-8.06-4.19-15.73-9.1-22.77-14.83c1.81,4.95,6.35,8,9.8,11.73c2.48,2.85,6.54,4.9,6.97,9.04c-5.89-1.59-10.38-5.95-15.84-8.43
		c2.4,4.6,8.75,6.25,9.99,11.49c-2.22,0.14-4.03-1.33-5.84-2.36c-5.43-3.54-11.12-6.7-16.28-10.64c-1.46-1.11-3.11-1.95-4.79-2.64
		c4.65,6.39,12.43,10.24,15.8799,17.52c-0.96,0.21-1.92,0.38-2.8799,0.49c-9.97-1.7-18.48-7.51-26.5-13.34
		c1.22,2.98,3.93,4.81,6.2,6.92c4.21,3.83,8.32,7.83,13.13,10.92c1.23,0.77,2.31,1.76,3.12,2.99c-10.34,0.37-18.69-6.71-27.92-10.19
		c0.66,1.25,1.52,2.44,2.73,3.24c18.71,13.01,37.26,26.27,56.41,38.65c7.97,4.87,15.91,9.89,24.49,13.65
		c8.27,3.21,17.23,4.75,26.1,4.59c10.3-0.74,20.63-0.77,30.96-0.85c8.52-0.74,17.07-0.47,25.61-0.88
		c-6.91-11.38-14.68-22.26-22.85-32.77c-7.96-9.32-14.77-20.09-25.36-26.7c-6.3-4.45-14.15-5.32-21.35-7.47
		c-5.91-1.72-10.56-5.91-15.33-9.57c1.16,2.35,2.41,4.91,1.4,7.56c-7.12-0.55-11.44-7.08-17.62-9.79c2.44,3.61,6.52,5.68,8.77,9.44
		c-1.71,0.04-3.46-0.03-4.92-1.01C581.91,466.19,575.9,461.89,569.65,457.96 M598.3,461.15c-0.32,1.42,0.21,1.94,1.57,1.56
		C600.17,461.27,599.64,460.76,598.3,461.15 M534.27,463.2C534.83,463.79,534.83,463.79,534.27,463.2 M552.24,468.24
		C552.79,468.79,552.79,468.79,552.24,468.24 M522.21,469.3c-0.33,1.4,0.19,1.9,1.58,1.5C524.11,469.39,523.58,468.89,522.21,469.3
		 M512.61,478.41c1.86,1.59,4.12,2.51,6.32,3.52c-1.08-0.97-2.2-1.91-3.37-2.75C514.57,478.93,513.59,478.67,512.61,478.41z"/>
	<path fill="#FFFFFF" stroke="#FFFFFF" stroke-width="0.0938" d="M572.87,451.21c3.67,2.46,6.74,5.67,9.83,8.8
		C579.49,457,575.92,454.39,572.87,451.21z"/>
	<path fill="#484643" stroke="#484643" stroke-width="0.0938" d="M567.12,456.27c1.38-0.34,1.9,0.19,1.55,1.59
		C567.28,458.19,566.76,457.66,567.12,456.27z"/>
	<path fill="#3D2F27" stroke="#3D2F27" stroke-width="0.0938" d="M569.65,457.96c6.25,3.93,12.2599,8.23,18.7,11.85
		c1.46,0.98,3.21,1.05,4.92,1.01c-2.25-3.76-6.33-5.83-8.77-9.44c6.18,2.71,10.5,9.24,17.62,9.79c1.01-2.65-0.24-5.21-1.4-7.56
		c4.77,3.66,9.42,7.85,15.33,9.57c7.2,2.15,15.05,3.02,21.35,7.47c10.59,6.61,17.4,17.38,25.36,26.7
		c8.17,10.51,15.94,21.39,22.85,32.77c-8.54,0.41-17.09,0.14-25.61,0.88c-10.33,0.08-20.66,0.11-30.96,0.85
		c-8.87,0.16-17.83-1.38-26.1-4.59c-8.58-3.76-16.52-8.78-24.49-13.65c-19.15-12.38-37.7-25.64-56.41-38.65
		c-1.21-0.8-2.07-1.99-2.73-3.24c9.23,3.48,17.58,10.56,27.92,10.19c-0.81-1.23-1.89-2.22-3.12-2.99
		c-4.81-3.09-8.92-7.09-13.13-10.92c-2.27-2.11-4.98-3.94-6.2-6.92c8.02,5.83,16.53,11.64,26.5,13.34
		c0.96-0.11,1.92-0.28,2.8799-0.49c-3.45-7.28-11.23-11.13-15.8799-17.52c1.68,0.69,3.33,1.53,4.79,2.64
		c5.16,3.94,10.85,7.1,16.28,10.64c1.81,1.03,3.62,2.5,5.84,2.36c-1.24-5.24-7.59-6.89-9.99-11.49c5.46,2.48,9.95,6.84,15.84,8.43
		c-0.43-4.14-4.49-6.19-6.97-9.04c-3.45-3.73-7.99-6.78-9.8-11.73c7.04,5.73,14.71,10.64,22.77,14.83c1.27,0.57,2.68,0.59,4.05,0.84
		C579.38,467.21,571.98,464.21,569.65,457.96 M602.34,476.36c-8.34,1.42-16.6201,3.35-24.55,6.34c-6.63,2.47-11.8,7.49-16.83,12.27
		c-1.37,1.41-3.39,3.78-1.47,5.59c10.43,12.57,22.34,24.25,36.85,32.04c7.49,4.39,16.11,6.6,24.71,7.33
		c16.88,0.58,33.74-0.99,50.59-1.5c2.21-0.86,3.45-3.36,4.43-5.41c0.2-4.03-2.09-7.64-4.34-10.8c-6.81-8.79-13.7-17.54-21.13-25.81
		c-5.92-6.82-12.03-14.16-20.72-17.46C621.35,474.72,611.52,475.08,602.34,476.36z"/>
	<path fill="#665446" stroke="#665446" stroke-width="0.0938" d="M908.1,460.71c23.22-1.14,46.55-2.46,69.7401-0.16
		c5.43,0.72,11.02,1.3,16.1,3.53c13.29,6.16,24.71,15.66,35.03,25.93c3.55,3.79,7.4,7.4,10.0901,11.89
		c-16.9601-8.9-33.35-19.52-52.04-24.54c-13.12-3.24-26.75-1.38-40.03-0.4c-22.77,2.34-45.36,6.11-67.92,9.95
		c-3.64,0.46-7.18,1.78-10.87,1.79c-4.26-3.01-10.43-5.88-10.93-11.71c0.7-4.16,1.85-9.52,5.91-11.58
		C877.98,462.54,893.11,462.01,908.1,460.71z"/>
	<path fill="#4F4E4C" stroke="#4F4E4C" stroke-width="0.0938" d="M598.3,461.15c1.34-0.39,1.87,0.12,1.57,1.56
		C598.51,463.09,597.98,462.57,598.3,461.15z"/>
	<path fill="#777D7D" stroke="#777D7D" stroke-width="0.0938" d="M534.27,463.2C534.83,463.79,534.83,463.79,534.27,463.2z"/>
	<path fill="#6B6A65" stroke="#6B6A65" stroke-width="0.0938" d="M552.24,468.24C552.79,468.79,552.79,468.79,552.24,468.24z"/>
	<path fill="#444546" stroke="#444546" stroke-width="0.0938" d="M522.21,469.3c1.37-0.41,1.9,0.09,1.58,1.5
		C522.4,471.2,521.88,470.7,522.21,469.3z"/>
	<path fill="#020000" stroke="#020000" stroke-width="0.0938" d="M602.34,476.36c9.18-1.28,19.0099-1.64,27.54,2.59
		c8.69,3.3,14.8,10.64,20.72,17.46c7.4301,8.27,14.32,17.02,21.13,25.81c2.25,3.16,4.54,6.77,4.34,10.8
		c-0.98,2.05-2.22,4.55-4.43,5.41c-16.85,0.51-33.71,2.08-50.59,1.5c-8.6-0.73-17.22-2.94-24.71-7.33
		c-14.51-7.79-26.42-19.47-36.85-32.04c-1.92-1.81,0.1-4.18,1.47-5.59c5.03-4.78,10.2-9.8,16.83-12.27
		C585.72,479.71,594,477.78,602.34,476.36 M582.93,483c-9.16,2.21-16.62,8.7-22.49,15.8c12.66,14.75,27.03,29.16,45.58,36.13
		c9.19,3.69,19.25,3.35,28.98,3.25c12.32-0.42,24.65-0.93,36.93-2.11c0.86-1.31,1.74-2.6,2.62-3.9c-1.15-3.31-2.45-6.63-4.78-9.3
		c-8.61-10.88-17.2-21.83-26.77-31.9c2.66,8.05,3.91,17.02,1.14,25.2c-2.61,7.08-9.55,11.27-16.32,13.69
		c-11.54,4.27-25.26-0.37-32.77-9.87c-5.47-7.31-6.33-17.38-3.78-25.96c2.3-7.39,9.67-11.49,16.56-13.79
		c4.34-1.62,9.21-0.84,13.46-2.71C608.23,476.11,595.38,479.48,582.93,483 M597.46,487.77l-0.19,0.53
		c-4.41,2.48-5.53,7.96-5.59,12.62c-0.29,6.87,0.63,14.6,5.83,19.62c5.42,6.07,13.5,9.09,21.47,9.69
		c5.86-0.48,11.34-2.93,16.46-5.68c3.15-1.52,5.07-4.6,6.79-7.5c0.43-1.04,1.48-2.41,0.69-3.48c1.7-6,1.11-12.4-0.24-18.4
		c-2.08-8.59-11.09-12.87-18.76-15.34C614.66,479.98,604.78,481.65,597.46,487.77z"/>
	<path fill="#FFFFFF" stroke="#FFFFFF" stroke-width="0.0938" d="M582.93,483c12.45-3.52,25.3-6.89,38.36-5.47
		c-4.25,1.87-9.12,1.09-13.46,2.71c-6.89,2.3-14.26,6.4-16.56,13.79c-2.55,8.58-1.69,18.65,3.78,25.96
		c7.51,9.5,21.23,14.14,32.77,9.87c6.77-2.42,13.71-6.61,16.32-13.69c2.77-8.18,1.52-17.15-1.14-25.2
		c9.57,10.07,18.16,21.02,26.77,31.9c2.33,2.67,3.63,5.99,4.78,9.3c-0.88,1.3-1.76,2.59-2.62,3.9c-12.28,1.18-24.61,1.69-36.93,2.11
		c-9.73,0.1-19.79,0.44-28.98-3.25c-18.55-6.97-32.92-21.38-45.58-36.13C566.31,491.7,573.77,485.21,582.93,483z"/>
	<path fill="#726555" stroke="#726555" stroke-width="0.0938" d="M512.61,478.41c0.98,0.26,1.96,0.52,2.95,0.77
		c1.17,0.84,2.29,1.78,3.37,2.75C516.73,480.92,514.47,480,512.61,478.41z"/>
	<path fill="#1F2440" stroke="#1F2440" stroke-width="0.0938" d="M597.46,487.77c7.32-6.12,17.2-7.79,26.46-7.94
		c7.67,2.47,16.68,6.75,18.76,15.34c1.35,6,1.94,12.4,0.24,18.4c-0.32-0.47-0.95-1.4-1.27-1.86c-0.34-4.33,0.24-8.71-0.48-13.01
		c-0.28-2.01-2.45-2.82-4.08-3.49c-0.82,1.05-1.57,2.15-2.36,3.23c-5.31-2.21-8.33-8.61-14.68-8.42c-5.28-0.77-8.9,3.27-12.87,5.84
		c-0.32-0.02-0.96-0.08-1.28-0.11c0.7599-1.61,3.06-4.03,0.8-5.49c-3.65-0.32-6.56,4.31-10.24,2.02c0.16-1.35,0.29-2.72,0.81-3.98
		L597.46,487.77z"/>
	<path fill="#161826" stroke="#161826" stroke-width="0.0938" d="M591.68,500.92c0.06-4.66,1.18-10.14,5.59-12.62
		c-0.52,1.26-0.65,2.63-0.81,3.98c3.68,2.29,6.59-2.34,10.24-2.02c2.26,1.46-0.04,3.88-0.8,5.49c0.3199,0.03,0.96,0.09,1.28,0.11
		c3.97-2.57,7.59-6.61,12.87-5.84c6.35-0.19,9.37,6.21,14.68,8.42c0.79-1.08,1.54-2.18,2.36-3.23c1.6299,0.67,3.8,1.48,4.08,3.49
		c0.72,4.3,0.14,8.68,0.48,13.01c0.3199,0.46,0.95,1.39,1.27,1.86c0.79,1.07-0.26,2.44-0.69,3.48c-1.72,2.9-3.64,5.98-6.79,7.5
		c-5.12,2.75-10.6,5.2-16.46,5.68c-7.97-0.6-16.05-3.62-21.47-9.69C592.31,515.52,591.39,507.79,591.68,500.92z"/>
	<path fill="#070000" stroke="#070000" stroke-width="0.0938" d="M739.63,498.82c0.96,1.57,1.1,3.42,1.31,5.21
		c2.29,19.5,4.14,39.54-0.28,58.88c-3.61,16.7-7.99,33.25-13.05,49.56c-0.47,0.28-1.43,0.84-1.91,1.1201
		c-0.13-3.34,1.38-6.4,2.23-9.56c5.42-18.75,11.37-37.51,13.7-56.95C742.63,530.97,741.33,514.83,739.63,498.82z"/>
	<path fill="#040000" stroke="#040000" stroke-width="0.0938" d="M965.56,521.54c5.28-4.07,8.27-10.33,13.09-14.82l1.73,0.1
		c-4.9,8.49-11.14,16.21-15.37,25.1c2.86-2.07,5.11-4.85,7.86-7.07l1.74-0.3c-3.13,3.79-6.64,7.32-10.96,9.73
		c0.0699-4.75,2.91-8.66,4.83-12.8c-4.54,3.06-8.53,6.88-13.28,9.64c-14.95-2.18-30.15-1.64-45.19-0.83
		c-13.15-0.08-26.77,2.42-37.96,9.66c-11.73,7.63-22.34,16.82-32.99,25.87c4.26,1.85,8.66,3.33,13.08,4.76
		c-1-2.39-2.69-4.87-1.83-7.57c1.31-6.04,6.3-10.15,10.81-13.93c7.12-5.59,14.71-10.96,23.54-13.42
		c13.21-3.9,27.2401-5.87,40.97-4.06c13.51,1.88,25.42,9.47,35.56,18.21c5.61,5.12,11.14,10.76,14.07,17.89
		c1.44,3.48,1.27,8.17-2.17,10.42c-6.4301,4.54-14.3701,6.21-22.03,7.27c-8,0.93-16.02,2.3-24.09,1.75
		c-3.8-0.32-7.62-0.16-11.3799,0.45c2.44,0.44,4.92,0.95,7.43,0.8199c9.68-0.48,19.4-0.5,29.05-1.56
		c10.87-1.49,21.82-2.36,32.63-4.27c10.26-1.5,20.41-3.66,30.72-4.85c2.51-0.17,5.02-0.51,7.51-0.97c-1.53-0.65-3.07-1.24-4.62-1.75
		c3.84,0.16,7.77-0.4,11.57,0.34l0.77,0.83c-0.24,0.32-0.73,0.96-0.97,1.27c-6.9,2.08-14.11,2.88-21.1801,4.19
		c-16.27,2.79-32.64,5.04-49.07,6.72c-15.43,1.57-31.02,2.77-46.51,1.35c-25.08-3.08-49.15-11.27-72.75-19.96
		c-1.83-0.59-3.49-1.54-4.86-2.87c8.03-7.88,16.99-14.77,25.9-21.62c7.09-5.29,14.5-10.39,22.91-13.35
		c8.98-3.28,18.56-4.4,28.05-5.03c13.55-1.57,27.16,0.31,40.65,1.59C956.89,525.84,961.55,524.29,965.56,521.54 M907.3,533.39
		c-7.52,0.97-16.08,2.76-20.45,9.64c-4.0699,6.8799-6.53,15.65-3.3199,23.37c2.91,8.36,11.29,13.35,19.47,15.46
		c8.42,2.6,17.55-0.43,24.33-5.62c5.75-4.14,10.5-10.78,9.86-18.17c-0.57-6.9-1.8-14.44-6.39-19.88
		C924.21,533.18,915.25,532.66,907.3,533.39 M927.95,534c7.26,3.77,9.36,12.39,10.65,19.82c1.27,6.84-0.2,14.36-5.25,19.39
		c-5.99,5.9-13.71,11-22.38,11.19c-6.5,0.58-12.9-1.8-18.41-5.07c-7.13-4.14-12.32-11.91-12.33-20.28
		c0.1-8.62,3.95-17.28,10.73-22.69c-13.52,2.96-25.46,10.79-35.2,20.41c-2.56,2.78-4.74,6.96-3.24,10.74
		c2.19,2.82,5.51,4.62,8.7,6.14c12.84,4.39,25.97,8,39.27,10.72c9.19,2.05,18.65,1.32,27.98,1.26c13.07-0.66,26.44-1.66,38.77-6.38
		c3.42-1.35,7.83-3.97,6.88-8.33c-1.22-5.85-5.36-10.47-9.24-14.77C954.72,545.87,942.3,537.04,927.95,534z"/>
	<path fill="#040000" stroke="#040000" stroke-width="0.0938" d="M984.29,514.27c1.25-0.85,2.55-2.32,4.2401-1.76
		c0.87,1.72-0.48,3.35-1.19,4.85c-2.57,4.35-5.53,8.45-8.57,12.48c-0.62,0.77-1.25,1.53-1.89,2.28c1.19-0.37,2.41-0.7,3.65-1
		c-3.39,3.54-5.63,8.77-10.71,10.17c1.7-5.02,5.25-9.0099,8.17-13.32c2.84-4.39,6.1-8.53,8.4-13.24c-4.02,3.12-7.34,7.07-11.6,9.89
		l0.14-1.73C977.89,519.85,981.04,517,984.29,514.27z"/>
	<path fill="#030100" stroke="#030100" stroke-width="0.0938" d="M979.97,529.73c5.65-6.11,11.0601-12.69,18.1-17.25
		c0.91,1.37,0.76,2.94-0.18,4.25c-4.88,8.28-10.24,16.28-15,24.63c7.09-5.72,13.97-11.73,20.46-18.12
		c1.19-1.12,3.6801-3.38,4.39-0.5c-1.49,4.47-4,8.51-6.51,12.46c-3.32,5.12-8.23,8.85-12.27,13.34c5.44-1.33,10.82-2.92,16.15-4.64
		c4.67-1.5,8.62-4.53,13.08-6.48l1.15,0.23l0.48,1.05c-7.27,5.58-14.6,11.11-20.83,17.88c5.9-1.65,11.98-2.79,17.68-5.11
		c2.5-0.8799,5.03-2.25,7.79-1.66c-1.6199,3.62-6.05,4.38-9.02,6.57c-6.62,4.5-14.62,6.79-20.73,12.02
		c6.24-0.35,12.32-1.86,18.5-2.66c1.42,0.44,2.95,1.26,3.84-0.5c3.99-0.72,8.1201-2.32,12.18-1.54l0.03,1.31
		c-8.72,4.47-18.51,6.51-27.86,9.37c0.53,0.24,1.58,0.74,2.1,0.98c-0.51,0.23-1.54,0.7-2.05,0.93c-2.31,0.17-1.63-2.44-0.19-3.09
		c4.08-2.58,8.94-3.61,13.11-6.07c-7.59,0.77-14.96,3.42-22.67,2.91c0.61-1.44,0.92-3.18,2.32-4.11
		c5.68-4.35,12.08-7.61,18.33-11.05c-9.39,1.29-17.68,6.31-26.88,8.22c2.36-3.47,6.64-4.42,9.9301-6.7
		c4.06-2.76,6.7-7.01,9.67-10.81c-6.77,1.25-13.04,5.55-20.06,4.9c2.01-3.7,5.58-6.12,8.3-9.23c4.68-5.26,8.95-10.99,11.91-17.41
		c-9.0099,7.66-17.28,16.21-26.64,23.4301c-0.03-3.91,2.48-7.09,4.35-10.32c2.59-4.14,4.81-8.5,7.42-12.63
		c2.03-2.8,4.11-5.57,5.94-8.51c-5.49,3.95-9.75,9.26-14.77,13.74L979.97,529.73z"/>
	<path fill="#3D2F26" stroke="#3D2F26" stroke-width="0.0938" d="M974.79,524.62c4.26-2.82,7.58-6.77,11.6-9.89
		c-2.3,4.71-5.56,8.85-8.4,13.24c-2.92,4.3101-6.47,8.3-8.17,13.32c5.08-1.4,7.32-6.63,10.71-10.17c-1.2401,0.3-2.46,0.63-3.65,1
		c0.64-0.75,1.27-1.51,1.89-2.28c0.3-0.03,0.9-0.08,1.2-0.11l1.55-0.17c5.02-4.48,9.28-9.79,14.77-13.74
		c-1.83,2.94-3.91,5.71-5.94,8.51c-2.61,4.13-4.83,8.49-7.42,12.63c-1.87,3.23-4.38,6.41-4.35,10.32
		c9.36-7.22,17.63-15.77,26.64-23.4301c-2.96,6.42-7.23,12.15-11.91,17.41c-2.72,3.11-6.29,5.53-8.3,9.23
		c7.02,0.65,13.29-3.65,20.06-4.9c-2.97,3.8-5.61,8.05-9.67,10.81c-3.29,2.28-7.57,3.23-9.9301,6.7
		c9.2-1.91,17.4901-6.93,26.88-8.22c-6.25,3.44-12.65,6.7-18.33,11.05c-1.4,0.93-1.71,2.67-2.32,4.11
		c7.71,0.51,15.08-2.14,22.67-2.91c-4.17,2.46-9.03,3.49-13.11,6.07c-1.44,0.65-2.12,3.26,0.19,3.09c4.59,0.91,9.33,0.76,13.97,1.44
		c-10.31,1.19-20.46,3.35-30.72,4.85c-10.81,1.91-21.76,2.78-32.63,4.27c-9.65,1.06-19.37,1.08-29.05,1.56
		c-2.51,0.13-4.99-0.3799-7.43-0.8199c3.7599-0.61,7.58-0.77,11.3799-0.45c8.07,0.55,16.09-0.82,24.09-1.75
		c7.66-1.06,15.6-2.73,22.03-7.27c3.44-2.25,3.61-6.94,2.17-10.42c-2.93-7.13-8.46-12.77-14.07-17.89
		c-10.14-8.74-22.05-16.33-35.56-18.21c-13.73-1.81-27.76,0.16-40.97,4.06c-8.83,2.46-16.42,7.83-23.54,13.42
		c-4.51,3.78-9.5,7.89-10.81,13.93c-0.86,2.7,0.83,5.18,1.83,7.57c-4.42-1.43-8.82-2.91-13.08-4.76
		c10.65-9.05,21.26-18.24,32.99-25.87c11.19-7.24,24.81-9.74,37.96-9.66c15.04-0.81,30.24-1.35,45.19,0.83
		c4.75-2.76,8.74-6.58,13.28-9.64c-1.92,4.14-4.76,8.05-4.83,12.8c4.3199-2.41,7.83-5.94,10.96-9.73l-1.74,0.3
		c0.66-0.67,1.35-1.33,2.06-1.96L974.79,524.62z"/>
	<path fill="#1C203C" stroke="#1C203C" stroke-width="0.0938" d="M907.3,533.39c7.95-0.73,16.91-0.21,23.5,4.8
		c4.59,5.44,5.82,12.98,6.39,19.88c0.64,7.39-4.11,14.03-9.86,18.17c-6.78,5.19-15.91,8.22-24.33,5.62
		c-8.18-2.11-16.56-7.1-19.47-15.46c-3.21-7.72-0.75-16.4901,3.3199-23.37C891.22,536.15,899.78,534.36,907.3,533.39 M915.36,545.38
		c-2.59,0.61-2.71,3.69-3.65,5.7c-3.31,0.11-6.22-1.23-9.06-2.71c-3.26,0.95-5.84,3.29-8.88,4.7c-0.8-1.37-1.65-2.7-2.55-3.99
		c-0.6299,5.36-2.27,11.15,0.2401,16.28c1.78,4.56,6.02,7.51,9.99,10.04c3.17,0.65,6.33,1.36,9.49,2.09
		c6.2-0.4,12.06-3.65,15.89-8.48c1.07-2.56,2.18-5.16,4.72-6.59c-0.35-2.08-0.42-4.18-0.11-6.25c-0.6-1.29-1.21-2.58-1.8-3.85
		c-1.37-0.23-2.72-0.45-4.05-0.66C924.11,547.55,919.69,544.71,915.36,545.38z"/>
	<path fill="#FFFFFF" stroke="#FFFFFF" stroke-width="0.0938" d="M927.95,534c14.35,3.04,26.77,11.87,36.93,22.15
		c3.88,4.3,8.02,8.92,9.24,14.77c0.95,4.36-3.46,6.98-6.88,8.33c-12.33,4.72-25.7,5.72-38.77,6.38c-9.33,0.06-18.79,0.79-27.98-1.26
		c-13.3-2.72-26.43-6.33-39.27-10.72c-3.1899-1.52-6.5099-3.32-8.7-6.14c-1.5-3.78,0.68-7.96,3.24-10.74
		c9.74-9.62,21.68-17.45,35.2-20.41c-6.78,5.41-10.63,14.07-10.73,22.69c0.01,8.37,5.2,16.14,12.33,20.28
		c5.51,3.27,11.91,5.65,18.41,5.07c8.67-0.19,16.39-5.29,22.38-11.19c5.05-5.03,6.52-12.55,5.25-19.39
		C937.31,546.39,935.21,537.77,927.95,534z"/>
	<path fill="#191B26" stroke="#191B26" stroke-width="0.0938" d="M915.36,545.38c4.33-0.67,8.75,2.17,10.23,6.28
		c1.33,0.21,2.68,0.4301,4.05,0.66c0.59,1.27,1.2,2.56,1.8,3.85c-0.31,2.07-0.24,4.17,0.11,6.25c-2.54,1.43-3.65,4.03-4.72,6.59
		c-3.83,4.83-9.69,8.08-15.89,8.48c-3.16-0.73-6.32-1.44-9.49-2.09c-3.97-2.53-8.21-5.48-9.99-10.04
		c-2.51-5.13-0.87-10.92-0.2401-16.28c0.9,1.29,1.75,2.62,2.55,3.99c3.04-1.41,5.62-3.75,8.88-4.7c2.84,1.48,5.75,2.82,9.06,2.71
		C912.65,549.07,912.77,545.99,915.36,545.38z"/>
	<path fill="#231F17" stroke="#231F17" stroke-width="0.0938" d="M1003.5,575.36c4.85-0.67,9.89,0.1,14.81-0.35
		c1.55,0.51,3.09,1.1,4.62,1.75c-2.49,0.46-5,0.8-7.51,0.97c-4.64-0.68-9.38-0.53-13.97-1.44
		C1001.96,576.06,1002.99,575.59,1003.5,575.36z"/>
	<path fill="#050100" stroke="#050100" stroke-width="0.0938" d="M671.94,664.9c2.54-2.65,4.68-5.72,7.72-7.85
		c-5.03,5.54-9.94,11.25-13.96,17.58c-4.77,7.54-6.85,16.47-7.49,25.28c-0.2,5.4-0.54,11.04,1.52,16.17c2,5.07,5.04,9.67,8.32,14
		c3.61,4.63,7.71,9.17,13.13,11.7c5.01,2.49,10.57,3.5099,15.77,5.52c-6.64-1.16-13.45-2.35-19.41-5.64
		c-4.73-2.9-8.32-7.28-11.62-11.65c-4.32-6.02-8.69-12.56-9.28-20.15c-0.72-8.39,0.28-16.91,2.64-24.97
		C661.48,677.16,666.59,670.72,671.94,664.9z"/>
	<path fill="#070000" stroke="#070000" stroke-width="0.0938" d="M822.51,678.42c0.18-0.03,0.54-0.1,0.72-0.13
		c0.67,10.2401,3.05,20.37,2.88,30.7c0.03,7.7,0.41,16.68-5.46,22.59c-8.41,8.56-19.5,13.96-30.63,18.08
		c10.48-5.7,22-10.66,29.71-20.16c4.05-4.9,4.46-11.52,4.84-17.59C824.9,700.72,823.93,689.51,822.51,678.42z"/>
	<path fill="#201615" stroke="#201615" stroke-width="0.0938" d="M680.38,718.6c3.51-6.8,11.85-7.5699,18.47-9.29
		c4.69-1.5,9.38,1.29,11.86,5.2c4.38,5.71,6.92,12.48,9.83,18.99c-0.13,0-0.4-0.01-0.53-0.01c-3.17-7.22-7.3-14.08-12.31-20.16
		c-2.84-3.51-7.69-2.2-11.55-2.27c0.68,0.46,1.38,0.92,2.1,1.37c5.59-1.99,11.78,2.95,11.75,8.58c-1.32,2.52-3.13,4.8-5.22,6.72
		c-3.44,1.26-8.01,2.47-10.86-0.6c-2.64-2.83-6.35-5.96-6.23-10.1c2.17-2.91,6.11-3.48,9.4-4.27c-0.84-0.4-1.71-0.69-2.6-0.88
		C689.34,713.02,684.17,714.77,680.38,718.6z"/>
	<path fill="#1F1716" stroke="#1F1716" stroke-width="0.0938" d="M778.56,726.69c5.63-5.4,16.11-3.71,20.14,2.85
		c1.15,1.68,1.8,3.64,2.29,5.62c-1.55-2.44-2.85-5.1299-5.01-7.1c-4.47-3.58-11.48-4.26-15.9-0.21c1.35-0.72,2.68-1.47,4.02-2.21
		c3.88,0.2,6.9301,3.18,8.81,6.36c1.1201,1.62-0.02,3.58-1.36,4.66c-4,3.47-9.7,3.58-14.7,3.2401c-2.1-0.63-5.61-0.76-4.63-3.9901
		c-1.43,2.27-3.18,4.31-5.0699,6.22C769.55,736.11,773.87,731.07,778.56,726.69z"/>
	<path fill="#070000" stroke="#070000" stroke-width="0.0938" d="M623.07,821.8c18.26-2.7,36.46-5.86,54.79-8.07
		c13.65-1.23,28.07-0.5,40.48,5.89c7.3199,3.7,15.65,4.14,23.7,4.16c13.65,0.6,27.92-0.88,40.87,4.42
		c11.29,4.07,20.3701,12.17,30.11,18.91c8.01,5.83,16.48,11.3,23.11,18.78c2.31,2.66,4.51,6.46,2.86,10
		c-3.8,4.78-9.7,7.14-15.07,9.7c-13.71,6.03-28,10.62-42.38,14.75c-8.75,2.12-17.5099,4.9-26.59,4.86
		c-17.04,0.5-33.09-6.69-50.04-7.27c-12.68-0.53-26.15-1.34-36.99-8.72c-28.82-18.78-55.75-40.3-83.13-61.06
		C597.43,825.4,610.31,823.86,623.07,821.8 M674.03,817.31c-28.01,3.82-56.1,7.28-83.96,11.95c11.52,1.98,23.26,3.31,34.48,6.6
		c-10.63-1.2-21.16-3.23-31.8-4.41c8.43,6.89,17.39,13.12,26.06,19.71c17.25,12.55,34.3,25.47,52.54,36.57
		c10.07,6.25,22.27,5.97,33.6801,6.44c18.5699,0.07,36.22,9.1,54.9399,6.58c13.96-1.26,27.46-5.3,40.97-8.81
		c10.37-3.18,20.81-6.46,30.53-11.34c2.8-1.7,6.44-3.19,7.39-6.66c-24.72-3.89-49.53-7.17-74.37-10.25
		c-15.79-1.89-31.78-2.22-47.43-5.2c-26.89-5.97-53.54-12.98-80.24-19.73c1.43-0.96,3.12-0.4,4.66-0.15
		c12.3,2.69,24.59,5.4,36.95,7.8c15.85,3.21,31.65,6.76,47.67,9.1c16.6801,2.67,33.6801,2.73,50.29,5.87
		c20.83,3.85,41.58,8.05,62.36,12.08c-0.43-4.13-3.68-7.01-6.5-9.69c-10.22-8.82-22.58-14.62-33.25-22.81
		c-10.29-7.67-22.67-13.32-35.74-12.81c-11.85-0.76-23.77,0.43-35.59-0.86c-6.99-2.27-13.23-6.24-20.03-8.94
		C696.77,815,685.16,816.13,674.03,817.31z"/>
	<path fill="#F29488" stroke="#F29488" stroke-width="0.0938" d="M674.03,817.31c11.1299-1.18,22.74-2.31,33.61,1.04
		c6.8,2.7,13.04,6.67,20.03,8.94c3.56,1.61,7.55,1.14,11.35,1.16c8.08-0.14,16.17,0.26,24.24-0.3c13.07-0.51,25.45,5.14,35.74,12.81
		c10.67,8.19,23.03,13.99,33.25,22.81c2.82,2.68,6.07,5.56,6.5,9.69c-20.78-4.03-41.53-8.23-62.36-12.08
		c-16.61-3.14-33.61-3.2-50.29-5.87c-16.02-2.34-31.8199-5.89-47.67-9.1c-12.36-2.4-24.65-5.11-36.95-7.8
		c-1.54-0.25-3.23-0.81-4.66,0.15c26.7,6.75,53.35,13.76,80.24,19.73c15.65,2.98,31.64,3.31,47.43,5.2
		c24.84,3.08,49.65,6.36,74.37,10.25c-0.95,3.47-4.59,4.96-7.39,6.66c-9.72,4.88-20.16,8.16-30.53,11.34
		c-13.51,3.51-27.01,7.55-40.97,8.81c-18.72,2.52-36.37-6.51-54.9399-6.58c-11.41-0.47-23.61-0.19-33.6801-6.44
		c-18.24-11.1-35.29-24.02-52.54-36.57c-8.67-6.59-17.63-12.8199-26.06-19.71c10.64,1.18,21.17,3.21,31.8,4.41
		c-11.22-3.29-22.96-4.62-34.48-6.6C617.93,824.59,646.02,821.13,674.03,817.31z"/>
	<path fill="#FFEEDC" stroke="#FFEEDC" stroke-width="0.0938" d="M727.67,827.29c11.82,1.29,23.74,0.1,35.59,0.86
		c-8.07,0.56-16.16,0.16-24.24,0.3C735.22,828.43,731.23,828.9,727.67,827.29z"/>
	<path fill="#665446" stroke="#665446" stroke-width="0.0938" d="M514.55,897.33c8.02,14.5,17.51,28.16,28.05,40.95
		c-0.03,1.85-0.11,3.73,0.2,5.58c4.34,27.87,6.75,56,9.01,84.11c1.65,26.28,2.92,52.6801,1.46,79.01
		c-0.68,21.63-4.28,43.0701-8.88,64.1801c-9.95,44.27-23.2,87.72-37.51,130.76c-6.77,19.26-13.21,38.7-21.58,57.35
		c-0.68,1.62-1.55,3.21-2.91,4.39c-3.34-13.66-3.31-27.85-6.21-41.5801c-0.5-2.01-0.95-4.22-2.52-5.6599
		c-2.77-1.53-4.08,2.1799-5.2,4c-8.5,17.0699-15.11,35-22.31,52.64c-14.32,36.2999-28.06,72.83-42.87,108.9399
		c-1.82,3.66-2.86,7.77-5.56,10.9399c-0.88-14.99,1.92-29.8899,1.71-44.87c-0.14-1.5499,0.03-3.4399-1.37-4.46
		c-2.21,0.08-3.38,2.3101-4.47,3.9401c-3.76,6.7699-6.31,14.13-8.83,21.4399c-7.16,21.47-8.09,44.48-6.26,66.88
		c0.97,12.08,4.51,23.77,8.56,35.14c3.16,9.59,6.32,19.86,3.92,30.01c-2.16,11.4199-9.31,20.99-12.8,31.9399
		c-2.31,9.0701-4.91,18.7101-2.28,28.02c2.32,8.17,9.2,14.11,11.63,22.1801c-7.57-0.1-14.84-3.4-20.68-8.0601
		c-7.71-6.5699-10.13-16.9-12.48-26.2999c-2.46-9.89,1.07-19.8601,0.89-29.79c0.15-2.4301-1.33-5.72-4.27-5.01
		c-4.75,1.16-8.41,4.77-12.1,7.79c-10.83,9.85-20.91,20.58-29.84,32.1799c-12.66,17.87-22.58,37.4501-33.48,56.39
		c-5.17,8.3101-9.74,16.98-14.42,25.58c-2,3.05-3.67,6.79-7.04,8.55c-5.11-1.53-6.6-7.49-8.72-11.77
		c-5.25-11.4399-6.25-24.35-4.65-36.71c1.59-7.5601,5-14.5601,7.61-21.78c4.87-12.0599,9.86-24.0599,14.38-36.25
		c1.74-5.15,3.77-10.4199,3.19-15.96c-4.07-0.4301-6.8,2.9-9.45,5.41c-11,11.1699-20.52,23.6899-30.11,36.0499
		c-6.19,8.16-12.23,16.4401-17.91,24.97c-8.52,12.79-10.82,28.3201-16.62,42.3101c-0.84,1.72-2.4,5.0699-4.77,3.5
		c-3.87-2.92-5.69-7.67-7.59-11.96c-3.35-8.7201-5.6-17.99-5.78-27.3601c0.38-6.6,2.95-12.7999,5.11-18.97
		c4.87-12.6899,10.56-25.0399,15.67-37.63c3.29-8.09,6.95-16.21,8.14-24.9199c0.39-2.26-0.69-5.61-3.55-5.04
		c-6.45,0.87-11.54,5.4301-16.82,8.85c-12.59,9.6-24.37,20.3101-34.9,32.14c-3.78,4.58-7.95,9.11-10.04,14.77
		c-2.87,8.91-0.74,18.38,1.03,27.29c1.09,5.97,3.25,11.73,3.73,17.8199c-5.3-4.1801-9.07-9.89-12.92-15.33
		c-7.31-10.9501-13.76-22.54-18.29-34.92c-2.47-6.41-4.23-13.17-4.39-20.0601c-0.45-12.22,2.5-24.21,5.63-35.9199
		c2.54-9.98,5.29-19.9,7.33-29.99c2.73-13.48,2.62-27.41,0.7-40.99c-1.05-7.6901-2.78-15.27-4-22.9301
		c-2.32-13.7999-2.8-28.12,0.37-41.83c4.81-21.25,10.82-42.2001,16.82-63.14c11.86-41.14,24.54-82.04,36.61-123.11
		c1.72-7.12,4.84-13.97,5.19-21.3401c-2.43,0.64-3.59,2.8601-4.52,4.9801c-4.52,10.0499-8.59,20.3199-13.83,30.0299
		c-1.83,2.9601-3.3,6.6101-6.72,8.0601c-4.37-9.71-6.68-20.16-9.51-30.37c-8.76-36.08-16.18-72.52-21.33-109.29
		c-1.59-12.98-3.77-26.14-1.93-39.21c3.29-22.15,11.27-43.25,19.79-63.84c1.39-3.4301,3.11-6.79,3.35-10.54
		c-3.72,1.0599-4.65,5.28-7.28,7.6799c-1.95,2.3601-5.21,2.53-8.03,2.76c-7.01,0.37-14.26,0.7301-20.97-1.72
		c5.06-10.1,13.02-18.2999,20.07-27.01c4.86-5.58,9.58-11.3,14.9-16.46c14.38,5.62,28.4,12.85,43.84,15.1
		c16.84,2.9,34.02,1.83,50.96,3.7001c4.82,0.71,10.68,1.4099,13.61,5.86c1.24,4.89-3.17,8.6899-6.09,11.99
		c-15.63,14.74-34.29,25.6599-51.42,38.49c-2.56,2.12-5.56,4.0699-7.07,7.15c-0.93,2.08,0.88,4.24,3.07,3.97
		c4.82-0.4401,9.2-2.78,13.68-4.4501c21.29-9.33,41.89-20.1399,62.93-30.0099c5.65-2.42,11.05-5.53,17.06-7.01
		c-2.16,4.0399-5.52,7.2-8.58,10.5299c-7.71,7.9601-15.79,15.5701-23.88,23.15c-2.07,1.71-3.7,4.92-1.93,7.41
		c6.69,1.4,13.33-1.5701,19.36-4.17c40.9-18.0699,80.79-38.5499,118.76-62.1699c22.51-14.0001,44.28-29.27,64.57-46.35
		c21.99-18.75,42.72-39.83,56.63-65.4C508.91,914.57,511.99,906,514.55,897.33z"/>
	<path fill="#FFEEDC" stroke="#FFEEDC" stroke-width="0.0938" d="M544.46,940.44c17.24,19.75,34.65,40.63,58.49,52.67
		c11.23,5.47,23.49,8.98,36,9.59c14,1.16,28.09,0.05,42.09,1.44c15.82,1.04,31.18,5.33,46.93,6.96c11.41,1.11,23.05,0.45,34.11-2.65
		c16.42-4.74,31.89-12.22,46.7-20.64c17.31-9.8,33.56-21.37,48.97-33.93c-17.12,41.68-33.95,83.47-50.23,125.49
		c-30.65,79.77-60.4,160.0601-82.84,242.6c-23,83.5-43.4,167.6901-63.11,252.02c-4.56,18.62-8.23,37.5-13.15,56.02
		c-19.3,7.34-39.29,12.61-59.3,17.63c-26.09,6.08-52.39,12.08-79.19,13.79c-5.53,0.0399-12.29,0.58-16.15-4.2201
		c-6.04-7.21-6.22-17.2-7.22-26.11c-0.52-8.38-2.5-16.62-2.39-25.0399c-0.11-18.02,1.5-36.01,1.02-54.03
		c-0.29-8.14-0.62-16.41-2.92-24.27c-1.18-3.91-3.34-8.13-7.49-9.47c-6.14-2.05-12.58,0.2-18.4,2.23
		c-12.02,4.1699-22.99,11.12-35.42,14.1c-3.45,0.96-7.71,0.3-9.64-3.02c-4.68-7.59-4.93-16.9199-5.2-25.59
		c0.14-6.6801-0.55-13.48,0.88-20.05c0.95-0.9399,1.94-1.8199,2.88-2.76c2.96-6.74,4.06-14.2899,6.39-21.3199
		c3.41-10.59,5.41-21.62,9.78-31.88c11.9-30.5699,23.61-61.23,36.25-91.51c3.26-7.05,5.87-14.49,10.3-20.92
		c5.43,14.4701,3.49,30.4501,7.68,45.2201c0.36,1.5,2.26,4.2799,3.76,2.33c2.4-2.86,3.59-6.52,5.19-9.84
		c9.17-22.0701,16.75-44.75,24.36-67.39c13.56-42.24,26.41-84.83,35.16-128.36c4.29-20.24,6.45-40.89,6.79-61.5701
		C556.76,1045.24,551.51,992.62,544.46,940.44z"/>
	<path fill="#DB555C" stroke="#DB555C" stroke-width="0.0938" d="M1111.89,1006.35c9.16-0.78,18.51-2.34,27.65-0.67
		c-7.16,0.48-14.3201,1-21.48,1.45C1115.98,1006.93,1113.9301,1006.63,1111.89,1006.35z"/>
	<path fill="#0A0000" stroke="#0A0000" stroke-width="0.0938" d="M1158.1,1005.15c22.9401-1.14,45.9301-0.6,68.86,0.71
		c21.24,1.35,42.41,4.4,62.98,9.98c21.4701,5.35,42.64,11.97,63.2201,20.1199c19.0599,7.67,37.75,16.5801,54.73,28.24
		c11.87,7.9401,22.3099,17.8601,31.23,29c0.35,0.66,1.04,1.99,1.39,2.65c-3.55-1.37-5.34-4.9199-7.83-7.53
		c-12.7201-14.72-29.03-25.8099-46.0601-34.97c-35.8199-18.98-74.88-30.99-114.29-39.89c-18.87-3.93-38.1499-5.4901-57.36-6.47
		c-35.5399-1.5-71.11-0.03-106.5499,2.63c-1.64-0.44-3.26-0.88-4.86-1.3c4.8199-0.41,9.6499-0.89,14.5-1.19
		c7.1599-0.45,14.3199-0.97,21.48-1.45C1145.73,1005.61,1151.91,1005.2,1158.1,1005.15z"/>
	<path fill="#6784A2" stroke="#6784A2" stroke-width="0.0938" d="M1108.42,1009.62c35.4399-2.66,71.01-4.13,106.5499-2.63
		c19.2101,0.98,38.49,2.54,57.36,6.47c39.41,8.9,78.4701,20.91,114.29,39.89c17.03,9.16,33.34,20.25,46.0601,34.97
		c2.49,2.6101,4.2799,6.16,7.83,7.53c-0.35-0.66-1.04-1.99-1.39-2.65c0.47,0.2001,1.41,0.6001,1.88,0.8101v570.28
		c-2.48-1.05-5.0601-1.79-7.61-2.5801c-0.51-0.1599-1.51-0.49-2.02-0.6599c-7.71,5.98-15.33,12.1899-21.67,19.6599
		c-20.72,24.98-36.4099,53.54-54.6399,80.27c-3.0901,4.47-6.2201,8.92-9.3201,13.39c-1.59-7.45-4.55-14.66-5.05-22.29
		c1.16-6.37,3.75-12.37,5.91-18.4399c4.37-11.1,8.26-22.6901,15.72-32.1901c3.5601-5.1699,8.12-9.6,11.29-15.0299
		c-4.6,1.38-6.66,6.1799-9.6899,9.47c-9.3301,11.28-15.41,24.6899-20.5901,38.26c-0.9099,2.27-1.62,4.83-3.74,6.33
		c-3.6-20.23-7.35-40.4299-12.34-60.36c-1.33-4.1-0.98-9.24-4.59-12.17c0.4399,8.4501,2.8099,16.63,4.12,24.9801
		c3.95,21.36,8.52,42.61,12.1899,64.0299c2.2101,7.6901,4.38,15.4301,5.5,23.38c7.3101,46.49,14.1901,93.05,20.67,139.66H84.34
		c-9.38-4.99-12.03-16.4-13.35-26.09c-3.14-27.85,4.1-55.3401,7.53-82.8c1.09-9.12-3.21-17.59-5.46-26.1899
		c-2.97-10.4801-1.06-21.4801,1.13-31.9c1.58-6.63,2.38-13.49,4.99-19.8201c6.91-17.5,14.85-34.71,19.2-53.09
		c2.91-12.4299,4.83-25.37,2.71-38.08c-1.85-15.5-7.64-30.24-15.34-43.72c-6.06-10.8301-12.84-21.2401-19.03-32.01
		c-16.95-30.8601-36.18-60.4701-57.46-88.52c-1.98-2.72-4.34-5.1901-7.34-6.77l0.04,1.6899c-0.49-0.36-1.47-1.0699-1.96-1.4299
		v-387.4c0.44-0.2,1.33-0.59,1.77-0.79c-0.35,0.7101-1.07,2.11-1.43,2.8201c4.26-2.09,6.98-6.2001,11.09-8.51
		c10.68-6.47,23.11-9.13,34.24-14.6801c13.81-6.9399,26.74-15.51,40.59-22.38c12.58-6.49,25.83-11.75,39.6-15.12
		c-7.87,8.7201-16.1,17.2001-22.93,26.79c-1.41,2.25-3.48,4.83-2.59,7.66c1.81,2.9,5.6,3.3099,8.69,3.62
		c6.62,0.39,13.3-0.22,19.78-1.6c2.94-0.53,5.14-2.62,7.29-4.52c-4.7,11.1799-9.13,22.48-12.92,34.01
		c-4.67,15.1799-9.28,30.8099-8.58,46.88c0.48,8.9399,1.49,17.85,2.77,26.72c5.56,37.83,13.08,75.37,22.33,112.46
		c2.12,7.75,4.22,15.53,7.09,23.05c0.89,1.96,2.36,5.49,5.12,3.9299c4.75-3.5499,6.99-9.38,9.68-14.47c0.78,1.49,1.55,3,2.34,4.52
		c-15.48,52.49-32.05,104.6799-45.82,157.66c-3.04,11.8199-5.99,23.83-5.78,36.12c-0.2,19.97,6.56,39.1599,7.16,59.0499
		c0.53,11.12-1.11,22.2201-3.67,33.02c-4.09,19.2001-11.63,37.96-11.31,57.88c0.12,12.71,5.19,24.64,10.6,35.92
		c4.3,8.45,9.13,16.65,14.64,24.37c3.06,4.1899,6.15,8.47,10.19,11.7899c1.14,1.2001,4.19,1.15,3.88-1.0399
		c0.02-7.03-3.02-13.61-4.17-20.4601c-1.49-8.4199-3.37-17.61,0.3-25.72c3.63-6.7,8.94-12.28,14.06-17.84
		c10.89-11.15,22.5-21.75,35.53-30.38c3.36-1.9301,6.88-4.7,10.98-4.2c0.52,3.59-0.45,7.1499-1.55,10.5499
		c-6.31,18.39-15,35.8301-21.89,54c-2.45,7.12-5.78,14.28-5.43,21.98c0.52,8.9701,2.9,17.74,6,26.13
		c1.98,4.6901,4.1,9.8201,8.41,12.86c2.12,1.4801,4.97,0.3601,6.11-1.7899c3.5-5.8,4.95-12.54,7.1-18.89
		c2.88-9.96,6.53-19.86,12.59-28.36c11.36-16.4301,23.46-32.35,36.39-47.5801c4.98-5.6,9.7-11.6799,16.12-15.72
		c-1.03,9.29-5.28,17.74-8.39,26.4401c-4.53,11.4199-9.3,22.75-13.71,34.22c-7.38,18-4.78,39.1,4.48,55.9299
		c1.64,2.74,3.79,5.9501,7.3,6.2301c3.35-0.5801,5.18-3.9,6.99-6.4401c5.45-9.01,9.84-18.62,15.57-27.47
		c9.41-16.24,18.03-32.9501,28.16-48.76c8.89-14.03,20.42-26.15,32.29-37.67c4.59-3.9299,8.98-8.72,14.98-10.38
		c0.22,0.3401,0.66,1.04,0.88,1.39c1.04,6.65-1.03,13.29-1.3,19.9501c-0.9,8.5199,1.71,16.85,4.44,24.8199
		c2.37,6.88,6.54,13.41,12.9,17.24c4.9,2.89,10.27,5.51,16.03,5.96c1.91,0.28,4.71-0.73,4.4-3.09c-1.72-5.53-5.87-9.83-8.51-14.9
		c-3.83-5.9299-4.68-13.21-3.7-20.0699c1.41-8.16,3.17-16.4,7.13-23.74c5.32-10.52,10.64-21.99,9.38-34.0701
		c-2.43-17.2-11.46-32.7999-12.87-50.21c-2.08-23.4-1.73-47.61,6.06-70.02c2.5-7.15,4.8-14.51,8.93-20.9299
		c-0.35,2.95,0.59,5.7799,1.41,8.59c-0.19,13.15-2.77,26.34-0.97,39.47c1.19-0.25,2.75-0.23,3.34-1.52
		c3.2-5.71,5.46-11.8999,7.98-17.9299c1.28-2.79,1.81-6.3201,4.66-8c-0.88,5.15-2.62,10.1-3.91,15.16l1.56-0.6101
		c-0.94,0.9401-1.93,1.8201-2.88,2.76l0.05-1.64c-0.5,0.03-1.48,0.0801-1.98,0.1101c-1.18,12.12-1.32,24.4299,0.57,36.49
		c0.95,5.0399,2.35,10.5,6.35,14.0299c3.4,2.7201,8.12,1.8101,11.99,0.79c12.74-3.85,24.17-11.11,36.94-14.89
		c5.01-1.38,11.11-2.9299,15.65,0.48c3.95,3.7001,4.73,9.4401,5.68,14.51c3.16,24.63-0.41,49.4401,0.26,74.14
		c1.07,10.16,2.33,20.3,3.25,30.48c1.07,8.24,3.62,18.2201,12.09,21.7201c8.93,2.1899,18.24,0.5299,27.25-0.28
		c22.7-3.04,45.14-7.8,67.36-13.3c18.74-4.8099,37.62-9.51,55.6-16.77c-2.21,12.4801-5.52,24.74-7.92,37.1901
		c-3.21,15.51-7.48,30.9399-8.06,46.86c-0.36,9.54-0.4,19.11,0.12,28.65c0.37,3.65,0.06,7.8099,2.81,10.7
		c2.47-5.47,2.35-11.5499,3.24-17.36c1.31-9.3199,2.54-18.78,5.99-27.6c4.12-10.3,8.95-20.29,13.96-30.1801
		c4.01-7.2799,7.5-15,13.13-21.21c-0.66,15.13-3.83,30-5.94,44.96c-4,23.8201-8.18,47.61-12.79,71.3201
		c-3.75,18.61-6.44,37.8199-14.87,55.0399c-1.04,1.53-2.02,3.1101-2.97,4.7201c-4.72,6.72-12.86,9.35-19.73,13.2
		c-1.94,1.11-4.4901,2.87-3.66,5.49c1.63,2.51,5.06,2.26,7.69,2.47c14.04,0.1001,28.06-1.71,41.85-4.24
		c17.11-4.02,33.66-10.0599,50.31-15.63c17.03-6.11,34.08-12.21,50.7401-19.27c17.06-7.1699,30.91-19.8099,46.29-29.7699
		c-4.49,5.7999-9.86,10.83-14.97,16.0699c-7.83,7.85-15.8101,15.55-23.88,23.16c-7.01,6.49-15.34,11.27-22.9901,16.9199
		c-1.7,1.3601-3.7,2.67-4.53,4.78c-0.75,1.79,1.09,3.9301,3.01,3.3101c8.54-1.4601,16.68-4.63,25.02-6.92
		c19.92-6.37,39.75-13.03,59.3701-20.28c13.73-4.8999,27.37-10.33,39.7599-18.11c15.92-9.84,31.29-21.58,41.7-37.39
		c4.63-6.22,8.15-13.23,13.26-19.08c-2.18,7.49-5.54,14.55-8.49,21.76c-4.67,10.5499-9.29,21.13-14.38,31.49
		c-3.56,6.87-9.52,12.02-14.15,18.13c-1.31,1.58-1.51,3.6799-1.91,5.63c3.77,1.6899,7.67,0,11.22-1.39
		c15.04-5.98,29.5-13.72,42.2401-23.75c12.05-9.37,18.65-23.58,24.84-37.12c6.75-15.0601,13.1-31.09,25.61-42.4301
		c9.25-8.8999,20.87-14.96,29.71-24.3099c10.15-10.4,15.67-24.12,21.8-37.04c17.63-40.4199,31.5601-82.5399,40.1901-125.8099
		c5.0199-25.27,5.7799-51.13,5.83-76.8201c-0.26-55.9099-4.49-111.7-7.21-167.53c1.37,1.03,2.63,2.8101,4.61,2.1201
		c6.0599-1.26,11.5599-4.39,16.65-7.8201c6.2799-4.55,10.4399-11.3099,14.5699-17.73c6.02-9.85,10.91-20.4401,14.11-31.55
		c6.23-23.64,9-48.0699,9.99-72.46c0.26-10.96,0.36-21.96-0.5499-32.9c-0.9401-12.0699-4.7001-23.65-8.27-35.14
		c-9.15-28.36-19.9301-56.1699-28.67-84.67C1103.95,1010.05,1106.1801,1009.79,1108.42,1009.62 M14.74,1460.0601
		c-0.85,2.2899-1.48,4.7799-3.01,6.7599c-1.85,2.4901-5.03,3.3501-7.25,5.4601C10.87,1472.83,16.22,1466.17,14.74,1460.0601
		 M1352.72,1914.02c1.15-0.59,3.9401,0.49,4.2001-1.11C1357.78,1909.67,1352.42,1911.72,1352.72,1914.02z"/>
	<path fill="#010203" stroke="#010203" stroke-width="0.0938" d="M1099.37,1009.44l1.47-0.85c0.6801-0.07,2.04-0.21,2.7201-0.27
		c1.6,0.42,3.22,0.86,4.86,1.3c-2.24,0.17-4.4701,0.43-6.6801,0.67c8.74,28.5001,19.52,56.31,28.67,84.67
		c3.5699,11.49,7.33,23.0701,8.27,35.14c0.9099,10.9401,0.8099,21.9401,0.5499,32.9c-0.99,24.39-3.76,48.8199-9.99,72.46
		c-3.2,11.11-8.09,21.7001-14.11,31.55c-4.13,6.42-8.29,13.1799-14.5699,17.73c-5.0901,3.4301-10.5901,6.5601-16.65,7.8201
		c-1.98,0.6899-3.24-1.0901-4.61-2.1201c2.72,55.8301,6.95,111.6201,7.21,167.53c-0.05,25.6901-0.8101,51.55-5.83,76.8201
		c-8.63,43.27-22.5601,85.39-40.1901,125.8099c-6.13,12.92-11.65,26.64-21.8,37.04c-8.84,9.35-20.46,15.41-29.71,24.3099
		c-12.51,11.3401-18.86,27.37-25.61,42.4301c-6.19,13.54-12.79,27.75-24.84,37.12c-12.7401,10.03-27.2,17.77-42.2401,23.75
		c-3.55,1.39-7.45,3.08-11.22,1.39c0.4-1.9501,0.6-4.05,1.91-5.63c4.63-6.11,10.59-11.26,14.15-18.13
		c5.09-10.36,9.71-20.9401,14.38-31.49c2.95-7.21,6.31-14.27,8.49-21.76c-5.11,5.85-8.63,12.86-13.26,19.08
		c-10.41,15.8101-25.78,27.55-41.7,37.39c-12.39,7.78-26.03,13.2101-39.7599,18.11c-19.6201,7.25-39.45,13.91-59.3701,20.28
		c-8.34,2.29-16.48,5.46-25.02,6.92c-1.92,0.62-3.76-1.52-3.01-3.3101c0.83-2.11,2.83-3.4199,4.53-4.78
		c7.65-5.6499,15.98-10.4299,22.9901-16.9199c8.0699-7.61,16.05-15.3101,23.88-23.16c5.11-5.24,10.48-10.27,14.97-16.0699
		c-15.38,9.96-29.23,22.6-46.29,29.7699c-16.66,7.0601-33.71,13.16-50.7401,19.27c-16.65,5.5701-33.2,11.61-50.31,15.63
		c-13.79,2.53-27.81,4.3401-41.85,4.24c-2.63-0.21-6.06,0.04-7.69-2.47c-0.83-2.62,1.72-4.38,3.66-5.49
		c6.87-3.85,15.0099-6.48,19.73-13.2c-3.91,7.73-12.3,11.2799-18.46,16.88c11.66,0.5599,23.3-0.7101,34.79-2.51
		c16.49-2.3401,32.15-8.24,47.94-13.3c21.5-7.48,43.0099-15.03,63.95-24.01c14.02-6.23,26.49-15.28,39.23-23.6899
		c2.71-1.74,5.41-3.78,8.7-4.23c1.04,2.96-1.98,5.12-3.55,7.25c-12.37,13.0099-25.53,25.23-38.65,37.47
		c-6.2401,6.22-13.39,11.4099-19.9,17.34c7.21-1.42,14.14-3.9301,21.16-6.09c17.85-5.5901,35.55-11.65,53.15-18.01
		c15.23-5.39,30.47-11.12,44.22-19.73c16.67-10.36,32.1299-23.15,43.87-38.99c4.45-5.5701,8.14-11.79,13.39-16.6901
		c1.76,2.65,0.1801,5.61-0.75,8.25c-6.54,16.4501-14.23,32.4-21.96,48.3c-3.13,6.9399-7.94,12.9099-11.54,19.59
		c7.98-2.15,15.28-6.12,22.65-9.74c9.1-4.88,17.99-10.33,25.77-17.15c10.52-9.22,16.54-22.16,22.6-34.47
		c6.57-13.77,13.19-27.96,24.18-38.85c8.91-9.28,20.45-15.4,29.72-24.25c5.2-4.9501,9.53-10.78,12.9299-17.0901
		c8.0801-14.86,14.52-30.5399,20.8-46.22c14.4-37.65,26.26-76.47,32.39-116.38c3.33-27.37,2.74-55.03,2.0499-82.5399
		c-1.11-46.41-5.2799-92.66-7.84-139c-0.08-8.6901-1.35-17.64,1.37-26.0701c3.5801-11.9399,8.3201-23.58,14.52-34.4
		c1.14-1.51,2.12-4.0699,4.46-3.52c1.28,0.8401,0.7301,2.64,0.75,3.9401c-0.6499,4.88-2.0199,9.65-3.11,14.45
		c-3.1599,12.41-5.65,25.02-10.14,37.05c5.03-1.53,9.8601-3.74,14.16-6.78c5.74-3.9199,9.83-9.6799,13.84-15.24
		c8.6101-12.49,15.52-26.41,18.3301-41.41c6.51-32.1599,9.47-65.25,6.6899-98c-2.98-19.34-10.08-37.6899-16.24-56.1599
		C1112.97,1050.53,1105.85,1030.09,1099.37,1009.44 M1086.55,1254.71c-4.0701,10.67-7.92,21.8501-7.15,33.4501
		c2.58-5.16,6.08-9.99,7.1-15.78c2.3101-10.52,5.03-21,6.36-31.6901C1090.35,1245.17,1088.59,1250.01,1086.55,1254.71z"/>
	<path fill="#6A86A1" stroke="#6A86A1" stroke-width="0.0938" d="M1086.55,1254.71c2.0399-4.7,3.7999-9.5399,6.3099-14.02
		c-1.33,10.6901-4.0499,21.17-6.36,31.6901c-1.02,5.79-4.52,10.62-7.1,15.78C1078.63,1276.5601,1082.48,1265.38,1086.55,1254.71z"/>
	<path fill="#6F8AA5" stroke="#6F8AA5" stroke-width="0.0938" d="M161.59,1289.74c3.37-6.91,6.18-14.0599,9.34-21.05
		c-1.41,8.7401-4.63,17.0601-7,25.5701C163.14,1292.74,162.37,1291.23,161.59,1289.74z"/>
	<path fill="#8396AE" stroke="#8396AE" stroke-width="0.0938" d="M395.81,1448.04c0.38-0.5801,1.14-1.7201,1.52-2.3
		c0.23,3.62,0.12,7.26-0.11,10.89C396.4,1453.8199,395.46,1450.99,395.81,1448.04z"/>
	<path fill="#86A1BD" stroke="#86A1BD" stroke-width="0.0938" d="M14.74,1460.0601c1.48,6.11-3.87,12.7699-10.26,12.22
		c2.22-2.11,5.4-2.97,7.25-5.4601C13.26,1464.84,13.89,1462.35,14.74,1460.0601z"/>
	<path fill="#FFEEDC" stroke="#FFEEDC" stroke-width="0.0938" d="M0,1471.27c0.49,0.36,1.47,1.0699,1.96,1.4299
		c5.39,4.4801,9.07,10.5801,13.34,16.0601c17.53,24.25,33.94,49.36,48.31,75.63c9.62,17.33,21.45,33.52,28.95,51.97
		c7.05,17.21,9.43,36.42,5.95,54.75c-3.85,21.6901-13.15,41.83-21.28,62.15c-1.68,3.89-2.04,8.1899-3.47,12.16
		c-1.77,0.87-4.05,1.21-5.1,3.12c-2.2,3.22-4.29,6.5299-6.44,9.7999c-11.37,17.1901-22.27,34.73-31.89,52.9701
		c-10.01,19.48-15.72,40.73-22.58,61.4199c-2.21,6.22-4.06,12.6801-7.75,18.25V1471.27z"/>
	<path fill="#000206" stroke="#000206" stroke-width="0.0938" d="M1.92,1471.01c3,1.58,5.36,4.05,7.34,6.77
		c21.28,28.0499,40.51,57.6599,57.46,88.52c6.19,10.7699,12.97,21.1799,19.03,32.01c7.7,13.48,13.49,28.22,15.34,43.72
		c2.12,12.71,0.2,25.65-2.71,38.08c-4.35,18.38-12.29,35.59-19.2,53.09c-2.61,6.3301-3.41,13.1901-4.99,19.8201
		c0.03-0.8201,0.08-2.46,0.1-3.27c0-1,0.01-3,0.01-4.01c-6.41,2.33-8,9.8-11.83,14.75c-0.06-0.54-0.19-1.61-0.25-2.15
		c2.15-3.27,4.24-6.58,6.44-9.7999c1.05-1.91,3.33-2.25,5.1-3.12c1.43-3.9701,1.79-8.27,3.47-12.16
		c8.13-20.3201,17.43-40.46,21.28-62.15c3.48-18.33,1.1-37.54-5.95-54.75c-7.5-18.45-19.33-34.64-28.95-51.97
		c-14.37-26.27-30.78-51.38-48.31-75.63c-4.27-5.48-7.95-11.58-13.34-16.0601L1.92,1471.01z"/>
	<path fill="#000205" stroke="#000205" stroke-width="0.0938" d="M405.07,1484.4301c0.5-0.03,1.48-0.0801,1.98-0.1101l-0.05,1.64
		c-1.43,6.5701-0.74,13.37-0.88,20.05c0.27,8.67,0.52,18,5.2,25.59c1.93,3.3201,6.19,3.98,9.64,3.02
		c12.43-2.98,23.4-9.9301,35.42-14.1c5.82-2.03,12.26-4.28,18.4-2.23c4.15,1.34,6.31,5.5599,7.49,9.47
		c2.3,7.86,2.63,16.13,2.92,24.27c0.48,18.02-1.13,36.01-1.02,54.03c-0.11,8.4199,1.87,16.6599,2.39,25.0399
		c1,8.91,1.18,18.9,7.22,26.11c3.86,4.8,10.62,4.26,16.15,4.2201c26.8-1.7101,53.1-7.7101,79.19-13.79
		c20.01-5.02,40-10.29,59.3-17.63c-0.09,0.45-0.27,1.36-0.36,1.8199c-17.98,7.26-36.86,11.9601-55.6,16.77
		c-22.22,5.5-44.66,10.26-67.36,13.3c-9.0099,0.8099-18.32,2.47-27.25,0.28c-8.47-3.5-11.02-13.4801-12.09-21.7201
		c-0.92-10.1799-2.18-20.3199-3.25-30.48c-0.67-24.7,2.9-49.51-0.26-74.14c-0.95-5.0699-1.73-10.8099-5.68-14.51
		c-4.54-3.4099-10.64-1.86-15.65-0.48c-12.77,3.78-24.2,11.04-36.94,14.89c-3.87,1.02-8.59,1.9301-11.99-0.79
		c-4-3.5299-5.4-8.99-6.35-14.0299C403.75,1508.86,403.89,1496.55,405.07,1484.4301z"/>
	<path fill="#000206" stroke="#000206" stroke-width="0.0938" d="M1431.37,1661.05c0.51,0.1699,1.51,0.5,2.02,0.6599
		c-10.28,7.79-20.1,16.38-27.74,26.8501c-11.85,15.46-22.42,31.85-32.8201,48.3099c-5.2699,8.17-10.11,16.64-15.96,24.42
		c-0.45-0.0801-1.35-0.23-1.8099-0.3101c18.23-26.73,33.9199-55.29,54.6399-80.27C1416.04,1673.24,1423.66,1667.03,1431.37,1661.05z
		"/>
	<path fill="#FFEEDC" stroke="#FFEEDC" stroke-width="0.0938" d="M1433.39,1661.71c2.5499,0.79,5.13,1.53,7.61,2.5801V1920h-11.1899
		c-7.77-13.29-13.8201-27.46-20.6001-41.26c-7.5299-15.96-12.4099-32.97-18.39-49.53c-5.7-16.97-14.08-32.84-22.58-48.5299
		c-3.75-6.4801-6.83-13.42-11.37-19.39c5.85-7.78,10.6901-16.25,15.96-24.42c10.4-16.46,20.9701-32.85,32.8201-48.3099
		C1413.29,1678.09,1423.11,1669.5,1433.39,1661.71z"/>
	<path fill="#000206" stroke="#000206" stroke-width="0.0938" d="M1322.66,1667.95c3.61,2.9301,3.26,8.0701,4.59,12.17
		c4.99,19.9301,8.74,40.13,12.34,60.36c2.12-1.5,2.8301-4.0599,3.74-6.33c5.1801-13.5701,11.26-26.98,20.5901-38.26
		c3.0299-3.29,5.09-8.09,9.6899-9.47c-3.17,5.4299-7.73,9.86-11.29,15.0299c-7.46,9.5-11.35,21.0901-15.72,32.1901
		c-2.16,6.0699-4.75,12.0699-5.91,18.4399c0.5,7.63,3.4601,14.8401,5.05,22.29c-0.48,1.97-0.9399,3.9401-1.27,5.97
		c-1.12-7.95-3.2899-15.6899-5.5-23.38c-3.6699-21.4199-8.24-42.6699-12.1899-64.0299
		C1325.47,1684.58,1323.1,1676.4,1322.66,1667.95z"/>
	<path fill="#140000" stroke="#140000" stroke-width="0.0938" d="M72.07,1757.86c0.73-2.72,1.64-5.38,2.22-8.11
		c-0.02,0.8101-0.07,2.45-0.1,3.27c-2.19,10.4199-4.1,21.4199-1.13,31.9c2.25,8.6,6.55,17.0699,5.46,26.1899
		c-3.43,27.46-10.67,54.9501-7.53,82.8c1.32,9.6899,3.97,21.1,13.35,26.09h-3.81c-3.3-3.37-6.38-7.14-7.84-11.6899
		c-4.45-13.65-4.32-28.2401-3.51-42.41c0.57-10.67,2.99-21.1,4.41-31.65c0.98-11.1,5.81-22.24,2.61-33.37
		c-2.03-6.87-3.38-13.92-5.71-20.6901C69.03,1772.72,70.37,1765.16,72.07,1757.86z"/>
	<path fill="#F29488" stroke="#F29488" stroke-width="0.0938" d="M69.85,1778.79c-0.98-7.02-0.84-14.42,2.22-20.9301
		c-1.7,7.3-3.04,14.86-1.58,22.33L69.85,1778.79z"/>
	<path fill="#140000" stroke="#140000" stroke-width="0.0938" d="M30.33,1811.3101c9.62-18.2401,20.52-35.78,31.89-52.9701
		c0.06,0.54,0.19,1.61,0.25,2.15c-2.35,3.9401-5.29,7.49-7.56,11.5c-7.43,12.5701-15.29,24.9-22.24,37.76
		c-10.54,20.33-16.76,42.49-23.8,64.1801C6.56,1880.37,5.07,1887.48,0,1892.46v-1.48c3.69-5.5699,5.54-12.03,7.75-18.25
		C14.61,1852.04,20.32,1830.79,30.33,1811.3101z"/>
	<path fill="#140000" stroke="#140000" stroke-width="0.0938" d="M1355.0601,1760.98c0.46,0.0801,1.36,0.23,1.8099,0.3101
		c4.54,5.97,7.62,12.9099,11.37,19.39c8.5,15.6899,16.88,31.5599,22.58,48.5299c5.9801,16.5601,10.8601,33.5701,18.39,49.53
		c6.78,13.8,12.8301,27.97,20.6001,41.26h-1.79c-7.49-12.63-13.17-26.21-19.6901-39.33c-7.3199-15.2101-12.1799-31.41-17.75-47.3
		c-7.64-23.36-19.7-44.92-31.7899-66.1899c-0.86-1.4601-1.6801-2.9501-2.4701-4.4c-1.0599,1.45-2.13,2.88-3.23,4.3099
		c-2.38,3.8301-6.45,7.2101-6.9399,11.85c6.8099,44.6001,13.59,89.2301,19.88,133.91c0.3099,2.38,0.6799,4.76,1.1799,7.15h-2.0699
		c-6.48-46.61-13.36-93.17-20.67-139.66c0.3301-2.0299,0.79-4,1.27-5.97C1348.84,1769.9,1351.97,1765.45,1355.0601,1760.98z"/>
	<path fill="#F29488" stroke="#F29488" stroke-width="0.0938" d="M1353.09,1767.09c1.1-1.4299,2.17-2.86,3.23-4.3099
		c0.79,1.45,1.6101,2.9399,2.4701,4.4c-0.9401-0.7201-1.88-1.41-2.8101-2.0601C1354.99,1765.74,1354.03,1766.4,1353.09,1767.09z"/>
	<path fill="#F29488" stroke="#F29488" stroke-width="0.0938" d="M76.2,1800.88c3.2,11.13-1.63,22.27-2.61,33.37
		c-0.14-3.73-0.15-7.48,0.89-11.08C76.33,1815.91,77.14,1808.33,76.2,1800.88z"/>
	<path fill="#7F9DB9" stroke="#7F9DB9" stroke-width="0.0938" d="M1352.72,1914.02c-0.2999-2.3,5.0601-4.35,4.2001-1.11
		C1356.66,1914.51,1353.87,1913.4301,1352.72,1914.02z"/>
	<path fill="#6784A2" stroke="#6784A2" stroke-width="0.0938" d="M1366.6899,1911.16c6.4801,0.0699,12.3501,3.59,16,8.84h-15.48
		c-0.5-2.39-0.87-4.77-1.1799-7.15C1366.2,1912.4301,1366.53,1911.58,1366.6899,1911.16z"/>
</g>
</svg>
