<?xml version="1.0" encoding="utf-8"?>
<!DOCTYPE svg PUBLIC "-//W3C//DTD SVG 1.1//EN" "http://www.w3.org/Graphics/SVG/1.1/DTD/svg11.dtd">
<svg version="1.1" id="Layer_1" xmlns="http://www.w3.org/2000/svg" xmlns:xlink="http://www.w3.org/1999/xlink" x="0px" y="0px"
	 viewBox="0 0 2147 2147" enable-background="new 0 0 2147 2147" xml:space="preserve">
<g id="_x23_57eee5ff">
</g>
<g>
	<path fill="#0C0E0E" stroke="#0C0E0E" stroke-width="0.594" d="M951.65,8.41c8.42-2.29,16.98,0.32,25.4,1.2
		c12.78,1.37,25.05,5.38,37.43,8.61c12.6801,3.48,25.65,5.85,38.73,7.22c12.8301,1.95,25.87,1.19,38.8101,1.1
		c17.48-1.83,34.63-5.82,51.9-8.96c19.75-3.98,39.7799-6.64,59.8999-7.56c17.01-0.96,34.1001-2.22,51.12-0.59
		c9.79,0.17,19,3.81,27.7301,7.92c10.34,4.95,21.98,6.39,33.34,6.17c13.35-0.13,26.73-0.36,40.05,0.95
		c24.48,1.05,48.2899,7.41,71.58,14.62c1.72,0.39,2.9299,1.67,3.98,3.04c-7.67-0.28-14.73-3.61-22.0699-5.43
		c-13.3-3.61-26.8-6.69-40.51-8.18c-10.6801-0.78-21.3301-2.17-32.04-1.95c-14.53-0.67-29.3,1.58-43.5699-2.11
		c-8.39-1.77-15.5601-6.77-23.6901-9.29c-12.4299-4.46-25.83-2.59-38.74-2.98c-12.6801-0.34-25.3,0.85-37.95,1.44
		c-10.0901,1.13-20.26,1.62-30.25,3.53c-12.4401,1.96-24.76,4.53-37.13,6.8c-14.74,2.85-29.5801,6.19-44.67,5.69
		c-25.34,0.69-50.5601-3.81-74.86-10.73c-14.37-4.4-29.26-6.75-44.16-8.41c-13.15-0.86-25.22,6.26-34.49,14.99
		c-10.03,9.34-17.18,21.8-19.59,35.35c-2.67,14.82-2.5,30.04-1.4,45.01c0.28-0.54,0.57-1.08,0.87-1.61
		c0.04,12.94,5.67,24.99,7.05,37.75c0.78,8.9-0.54,17.78-1.79,26.57c-0.82,4.47-1.69,8.92-2.46,13.39
		c-0.63,1.59-1.23,3.17-1.82,4.76c-0.99-0.19-1.97-0.38-2.94-0.57c1.25-4.36,2.46-8.74,3.27-13.21c1.78-10.21,4.01-20.55,2.73-30.96
		c-1.64-11.42-5.2599-22.43-7.17-33.79c-1.6-8.66-1.77-17.51-1.1-26.27c0.02-15.44,2.26-31.65,10.98-44.77
		C922.76,23.7,935.8,12.14,951.65,8.41z"/>
	<path fill="#EF555F" stroke="#EF555F" stroke-width="0.594" d="M927.49,25.5c9.27-8.73,21.34-15.85,34.49-14.99
		c14.9,1.66,29.79,4.01,44.16,8.41c24.2999,6.92,49.52,11.42,74.86,10.73c15.09,0.5,29.9301-2.84,44.67-5.69
		c12.37-2.27,24.6899-4.84,37.13-6.8c9.99-1.91,20.1599-2.4,30.25-3.53c12.6499-0.59,25.2699-1.78,37.95-1.44
		c12.91,0.39,26.3101-1.48,38.74,2.98c8.13,2.52,15.3,7.52,23.6901,9.29C1307.7,28.15,1322.47,25.9,1337,26.57
		c10.71-0.22,21.36,1.17,32.04,1.95c13.71,1.49,27.21,4.57,40.51,8.18c7.34,1.82,14.3999,5.15,22.0699,5.43
		c0.34,0.01,1.02,0.05,1.36,0.07c0.1,0.58,0.3101,1.74,0.41,2.32c19.48,5.39,38.64,11.83,57.84,18.12
		c18.34,6.09,36.61,12.42,54.4501,19.88c10.1899,4.6,20.6599,9.11,29.1699,16.54c12.01,9.57,20.3101,22.69,29.23,34.98
		c6.67,8.42,13.78,16.49,21.7301,23.74c0.95,2.35,3.0099,3.61,5.37,4.34c0.83,0.54,1.6899,1.08,2.58,1.6
		c0.52,1.31,1.03,2.67,1.8099,3.88c1.9501,1.47,4.52,1.67,6.8301,2.36c6.76,2.7,12.58,7.22,18.96,10.69
		c9.41,5.67,18.78,11.45,27.62,18c-0.72,0.41-2.16,1.23-2.87,1.64c3.02,2.45,6.1,4.84,9.14,7.29c1.04-0.35,2.1-0.69,3.1801-1.03
		c14.1,12.09,25.0699,27.25,35.6899,42.35c21.97,32.18,41.71,65.81,62.02,99.04c11.77,19.16,22.16,39.11,33.26,58.66
		c2.6899,4.35,4.75,9.36,8.8099,12.66c4.13,1.17,8.03-2.94,12.3-1.88c1.8,7.29,0.6799,16.6,7.37,21.66
		c8.91,5.46,19.8199,2.98,29.7,3.7c-5.23,4.43-11.45,7.62-16.14,12.7c-4.0299,3.96-8.75,8.41-8.6799,14.53
		c0.41,10.26,6.0599,19.3,11.73,27.51c6.28,9.55,13.9,18.1,20.9301,27.1c4.21,5.23,6.73,11.65,11.45,16.51
		c3.33,3.52,6.98,7.52,12.1,8.09c13.29,1.18,25.8-5.17,39.04-4.9c7.91,0.05,16.53-0.77,23.55,3.68
		c-10.9601,2.2599-21.4701,6.29-31.54,11.11c-4.29,2.41-9.11,4.76-11.75,9.1c-2.36,5.38-0.5601,11.53,2.1699,16.43
		c3.9901,7.9,10.26,14.32,17.0801,19.83c16.27,13.31,33.91,24.92,52.29,35.09c-0.1201,1.33-0.2401,2.68-0.16,4.03
		c4.77,3.45,11.15,4.98,16.97,3.67c23.6,7.4301,48.09,11.27,72.3199,16.02c16.3,3.46,33.1802,5.9,48.0601,13.88v70.06
		c-3.8301,6.75-6.48,14.08-10.1201,20.93c-7.4199,13.83-16.45,27.13-28.6899,37.14c-6.4099,5.16-13.52,10.09-21.8699,11.23
		c-8.05,1.97-16.25,0.17-24.3-0.68c-22.66-2.9-44.86-11.54-68-8.89c-7.26,0.9-13.92,6.03-15.9,13.19
		c-2.79,10.07-1.35,20.65-0.3199,30.88c3.3899,21.68,9.62,42.84,16.73,63.57c6.45,18.47,13.63,36.75,22.89,54.02
		c6.5199,12.22,16.5699,22.22,27.7999,30.17c13.2,9.46,28.2,16.11,41.23,25.83c15.8,11.7401,24.51,30.04,37.96,44.01
		c2.9402,2.8,6.8101,5.9701,11.1702,4.9601c3.95-1.4501,5.71-5.73,6.6899-9.5c2-7.87,3.3201-15.98,3.21-24.11
		c-0.0701-2.2001,0.6599-4.27,1.52-6.25v168.99c-10.78-0.8301-21,3.34-30.5,7.9199c-4.8201,2.52-9.95,5.5801-12.1899,10.8
		c-1.9102,3.63-0.3601,7.76,1.05,11.28c3.1799,7.3099,8.0298,13.73,13.0999,19.84c3.75,4.54,7.3301,9.49,12.55,12.48
		c3.6799,2.25,8.28,4.42,9.4299,9.02c0.8401,6.01-1.1799,11.9399-1.1699,17.96c-0.8501,9.99-1.5601,20.24,1.05,30.05
		c1.3,4.97,3.95,9.4,6.6799,13.71V1524.66c-10.3899,4.6699-20.4299,10.0699-29.8899,16.4099c-2.05,1.4601-4,3.39-4.5601,5.9401
		c0.45,2.84,3.02,4.63,5.3499,6c7.01,3.9399,14.5901,7.01,20.8901,12.12c3.26,2.61,5.5999,6.11,8.21,9.35v201.05
		c-8.02,12.97-17.3201,25.08-25.52,37.9199c-1.4399,2.75-4.2,6.55-1.1599,9.2201c5.51,4.37,13.24,1.34,19.1799,4.3199
		c-1.3,3.54-4.05,6.24-6.6699,8.84c-6.0801,5.91-12.3501,11.64-18.1501,17.8501c-12.4199,13.5499-27.21,24.7999-38.8499,39.09
		c-2.53,3.54-5.28,7.66-5.0901,12.16c2.29,8.8199,12.1001,11.5199,19.4199,14.8899c9.6602,3.4401,17.8401,9.78,27.1802,13.9
		c7.5698,3.7001,15.6599,7.11,21.5,13.4301c3.3198,3.52,5.0798,8.16,6.1799,12.8199c0.6001,12.37,0.49,24.79-0.6899,37.14
		c-1.9502,10.37-3.97,20.97-9,30.37c-7.5801,13.3201-20.47,23.3901-35.0801,27.8999c-9.73,3.4702-20.3999,4.1401-30.4399,1.7402
		c-21.5-5.0701-42.42-12.1901-63.29-19.3201c-8.78-2.9401-17.6-5.78-26.22-9.14c-9.02-3.51-18.3501-6.15-27.3101-9.8
		c-21.87-8.0599-44.05-15.27-65.58-24.23c-14-5.59-27.6901-12.2-42.3101-16.05c-5.52-1.7999-11.46-0.3999-16.47,2.1901
		c-6.64,3.73-11.79,9.78-18.95,12.65c-13.7301,4.96-28.26,7.33-41.9501,12.4299c-4.01,1.63-8.38,3.4401-10.7999,7.24
		c-1.65,3.23-0.4801,7.42,2.5299,9.4501c9.3401,6.8199,21.2201,10.1,29.2001,18.8199c4.52,4.64,4.85,11.5199,4.9299,17.64
		c-0.5399,14.71-2.7999,29.3101-6.01,43.6599c-0.5599,2.9602-1.72,6.1201-0.51,9.1001c2.39,5.99,2.03,12.73,0.89,18.97
		c-1.51,5.29-1.3999,10.8101-1.26,16.27h-199.13c-2.97-7.6001,0.6801-15.25,3.55-22.23c2.9401-6.5701,5.65-13.28,9.3199-19.49
		c7.26-11.1201,16.65-20.6899,23.8601-31.8401c3.75-5.4399,3.0199-12.8699-0.65-18.1299c-5.66-8.6201-13.39-17.8101-24.4601-18.54
		c-27.1899-2.78-55.35-4.65-80.4399-16.51c-23.1-11.39-44.72-26.86-60.22-47.6801c-8.4301-11.37-15.74-23.72-20.16-37.23
		c-7.47-21.25-9.4-43.88-10.91-66.1899c-0.9299-6.04-0.87-12.14-1.0599-18.2201c-1.61-11.8999-1.11-23.97-0.8-35.9399
		c1.7001-9.95,0.04-20.15,2.1901-30.04c0.61-3.8199,3.7999-6.86,3.52-10.88c-0.2001-10.95-4.05-21.39-6.2001-32.0399
		c0.8101,1.02,1.6901,2.01,2.58,3.02c-0.3199-3.0601-0.6899-6.1101-1.08-9.14c-0.83,0.6799-1.63,1.3999-2.41,2.13
		c-0.33-1.3401-0.62-2.66-0.88-3.9601c-3.59-17.51-6.7899-35.2-7.3999-53.09c-0.76-14.47-0.0601-28.95-0.26-43.42
		c1.15-1.6799,2.7-3.33,2.7-5.49c0.4301-7.08-1.71-14.02-1.47-21.09c0.6-13.99-0.5701-27.98,0.0599-41.97
		c3.37-16.4501,13.4701-30.4301,23.6101-43.42c4.33-5.97,8.8799-11.78,13.6599-17.39c4.8-5.7899,9.14-11.97,14.3401-17.4299
		c1.49-0.9,3.1499-1.5901,4.48-2.75c1.4199-1.8201,2.01-4.11,2.9399-6.1801c5.3101-6.91,11.42-13.13,17.4-19.46
		c4.72-5.28,9.66-10.35,14.65-15.39c0.1599,0.51,0.5,1.53,0.6699,2.04c2.39-5.8601,3.75-12.0601,5.1801-18.2101
		c2.98,7.23,6.0699,14.42,8.54,21.85c4.2899,12.5601,8.9099,25.0801,11.45,38.14c1.28,9.52,2.24,19.25,0.26,28.76
		c-3.88,19.17-12.27,37.05-21.0699,54.38c-0.5701,1.67-2.3701,5.16,0.9299,4.4401c4.04-4.4701,5.95-10.37,8.74-15.62
		c6.0701-12.9301,11.4301-26.3,14.52-40.28c1.22-6.71,2.67-13.5601,1.67-20.4c-0.99-10.3199-4.4501-20.14-7.12-30.09
		c-3.66-12.14-8.62-23.86-11.8101-36.15c-7.62-22.49-12.48-45.78-16.42-69.16c-0.72-5.89-2-11.72-2.09-17.6599
		c-0.0499-8.04-1.4399-16.01-0.98-24.05c0.63-10.89,1.05-21.8101,2.91-32.58c4.1-22.5601,8.2-45.13,13.14-67.53
		c4.5699-19.96,10.38-39.91,20.2699-57.9501c3.79-8.5399,9.25-16.1599,13.8101-24.2799c6.28-11,14.25-20.9401,20.58-31.9
		c-0.7899-0.1801-2.36-0.52-3.1499-0.6901c1.7999-2.98,3.9299-5.75,6.1899-8.3899c9.55,14.7999,21.03,28.2599,32.45,41.63
		c13.4801,15.1399,27.4701,29.85,42.38,43.61c9.75,9.4299,20.5901,17.6499,32.03,24.9199c33.3101,21.3401,69.16,38.5701,101.3,61.75
		c13.5299,9.87,26.4399,20.85,36.85,34.05c18.15,24.6,29.38,53.5499,37.02,82.96c6.49,25.92,10.85,52.59,10.13,79.38
		c0.21,20.02-8.7101,38.51-17.42,56.02c-7.29,14.77-12.88,30.29-19.72,45.26c-9.4301,21.09-19.23,42.01-29.05,62.9299
		c-2.15,4.42-4.4399,8.8101-5.9,13.53c2.26,0,4.4301-0.87,5.13-3.22c15.9501-34.08,32.26-68.02,46.3601-102.92
		c7.1799-16.8199,17.0099-32.62,21.48-50.49c1.8999-6.87,2.35-14,3.11-21.0399c0.8199-8.7301-1.12-17.3601-1.0801-26.0801
		c-3.1699-30.7999-9.72-61.4-21.0099-90.2899c-6.4401-16.29-14.3501-32.1101-24.7001-46.29
		c-17.53-23.41-42.2999-39.87-66.8199-55.13c-18.0601-11.15-36.73-21.26-54.98-32.0701c-15.6801-9.2699-31.26-18.95-44.9401-31.0499
		c-30.92-28.65-59.79-59.8101-83.53-94.73c0.01-2.2001-0.02-4.4-0.0499-6.5901c-1.03,0.66-2.02,1.3601-2.9701,2.1101
		c-9.9399-15.5701-19.6599-31.38-26.96-48.39c-4.22-10.3501-6.5599-21.34-8.78-32.2501c-2.7999-12.83-0.39-25.95,0.05-38.87
		c4.29-45.17,12.22-89.9,20.58-134.46c3.01-15,6.0901-30,9.9301-44.81c8.8199-31.59,18.98-62.82,30.5499-93.51
		c22.3701,6.36,45.4301,9.92,68.4701,12.84c11.9299,0.93,23.87,2.73,35.87,1.81c16.0699-1.62,31.97-4.71,47.5699-8.85
		c0.05-1.14,0.0601-2.26,0.04-3.38c-8.83,1.31-17.37,4.03-26.17,5.51c-12.15,2.44-24.63,3.76-37.01,2.83
		c-27.6899-1.85-55.24-6.16-82.1899-12.78c-9.7001-2.72-19.64-4.77-28.91-8.8c-14.99-5.28-29.61-11.58-44.04-18.22
		c4.67-1.88,9.8-1.18,14.6901-0.81c6.96,0.86,14,0.98,20.95,2.04c6.3,1.03,12.7201,0.5,19.0801,0.8
		c20.9299,1.91,41.99,1.48,62.99,1.81c9.01-0.1,17.96,1.04,26.97,0.9c12.02,0,24.04,0.06,36.0601,0.09
		c2.4299,0.13,4.71-0.8,6.8899-1.81c-0.46-0.73-1.38-2.19-1.84-2.92c-33.37,0.16-66.74,0.04-100.11-0.12
		c-5.35,0.08-10.62-1.06-15.95-1.07c-9.2101-0.23-18.4601,0.23-27.6101-1.03c-8.1499-1.06-16.4099-0.4-24.5399-1.58
		c-5.9401-0.66-11.9601,0.04-17.85-1.04c-6.99-1.27-14.12-1.03-21.1001-2.2c-9.0599-0.18-18.01-1.66-27.0399-2.08
		c-13.28-1.61-26.7101-1.84-39.9401-3.87c-11.03-0.88-21.95-2.73-32.98-3.66c-8.53-1.01-17.12-1.41-25.63-2.61
		c-13.54-2.1-27.13-3.88-40.61-6.39c-11.63-1.93-23.11-4.61-34.79-6.25c-8.21-1.12-16.21-3.36-24.39-4.62
		c-13.46-2.19-26.61-5.87-39.83-9.17c-19.76-5.84-39.0699-13.2-57.66-22.08c-17.0199-7.98-32.7899-18.32-48.8199-28.08
		c-14.16-8.21-27.17-18.18-40.6801-27.38c-18.51-13-36.36-26.91-54.23-40.77c-5.6-4.38-10.72-9.3-16.03-13.99
		c-10.3599-8.24-20.09-17.26-29.09-26.94c-9.34-10.92-17.91-22.53-25.12-34.98c-6.4-9.9-12.24-20.16-16.93-30.99
		c-6.85-12.37-11.63-25.72-17.47-38.58c-2.66-8.2-6.56-15.99-8.45-24.45c-0.76-0.34-2.29-1.02-3.05-1.36
		c0.17,1.71,0.32,3.45,0.71,5.14c-0.78,1.85-1.52,3.73-2.17,5.63c-4.03,8.92-5.87,18.6-8.8,27.89c-4.71,14.96-10,29.99-18.71,43.15
		c-6.21,9.4-12.83,18.51-19.11,27.86c-17.92,25.93-28.47,55.96-38.35,85.64c-2.51,7.6801-5.17,15.3101-8.13,22.83
		c-3.33,9.28-8.69,18.27-8.25,28.46c-0.03,23-0.05,46,0.21,68.99c1.28,21.29,0.38,42.63,1.04,63.94
		c1.72,15.66,1.19,31.45,2.69,47.12c-0.26,9.04,1.22,17.97,1.56,26.98c2.47,26.33,4.54,52.71,7.61,78.9901
		c2.35,25.02,6.31,49.86,11.07,74.52c4.18,20.4,9.01,40.72,15.53,60.52c8.89,29.39,20.55,57.95,34.68,85.21
		c4.45,7.38,7.86,15.3099,12.16,22.77c9.29,16.62,18.65,33.21,28.53,49.49c11.52,19.25,24.28,37.72,36.55,56.49
		c9.74,13.85,19.5,27.6899,29.96,41.01c11.21,14.33,22.6901,28.52,35.7,41.27c7.8101,7.5099,15.5601,15.1,23.3201,22.6599
		c14.33,12.27,29.47,23.6801,45.84,33.11c9.12,5.2101,18.25,10.42,27.61,15.2201c0.76,0.34,1.53,0.71,2.3201,1.1
		c0.28,2.52,0.62,5.0499,0.9399,7.59c-0.7899-0.8-1.58-1.58-2.35-2.34c-0.24,3.38-0.22,6.83,0.77,10.12
		c1.48,5.12,2.77,10.62,6.39,14.73c7.0699,7.59,15.59,13.7,22.2999,21.65c5.15,6.0399,10.42,12.27,13.2101,19.83
		c2.8999,7.35,1.24,15.38,1.88,23.05c0.49,8.0499,2.47,16.76,8.5199,22.53c4.3701,4.2799,8.29,8.99,12.7001,13.23
		c-0.55,0.14-1.66,0.4299-2.21,0.5699c1.6599,0.96,3.35,1.89,5.0699,2.8c6.78,9.9399,10.86,21.45,14.01,32.98
		c-0.64,2.13-1.33,4.36-0.79,6.62c2.8201,13.5699,3.11,27.53,2.65,41.34c-1.3199,7.66-2.5699,15.53-6.3,22.4601
		c-2.1399,4.2799-5.09,8.4399-5.2699,13.3899c-0.39,7.8301-0.0701,15.87,2.71,23.29c1.35,3.42,2.42,7,2.36,10.73
		c-0.03,7.03,1.37,13.98,1.16,21.03c-0.22,8.02,1.37,15.96,1.1899,24c-0.15,16.03,2.22,31.96,1.75,48
		c-0.1899,9.48,0.53,19.02-0.76,28.45c-0.9199,7.9401,0.2201,16.01-1.27,23.91c-0.83,4.26-1.5399,8.54-2.3199,12.8201
		c-2.49,7.13-6.2,13.98-11.65,19.2999c-14.37,13.8301-32.3199,23.42-46.2,37.8c-6.0701,6.0699-10.1901,14.11-11.11,22.6899
		c-1.55,10.72,2.02,21.29,1.47,32.03c0.53,9.51-2.15,18.76-4.78,27.8c-2.95,9.7899-6.22,19.51-10.47,28.83
		c-2.97,6.24-5.85,12.95-11.34,17.4301c-7.26,5.5499-17.55,4.3899-24.6801,10.2c-5.65,4.48-7.5499,11.8199-9.22,18.5
		c-3.58,17.42-6.17,35.03-9.78,52.45c-3.17,15.96-10.51,30.6001-17.04,45.3801c-2.11,4.71-4.48,9.3398-7.75,13.3699
		c1.13,2.9399,2.0801,5.95,2.8201,9.04h-421.9c0.03-4.47-0.56-9.1699,1.39-13.3401c3.54-8.3298,6.52-16.96,8.15-25.8799
		c0.67-3.3601,0.11-6.76-0.33-10.0901c-1.92-22.1799-4.72-44.4099-3.07-66.71c0.65-6.79,3.05-13.54,7.79-18.5499
		c6.89-8.0701,16.89-12.2101,26.04-17.0701c7.04-3.59,13.36-8.42,19.17-13.75c14.48-12.42,30.58-23.28,42.56-38.33
		c5.98-7.86,11.2-16.5701,13.52-26.26c2.22-8.78,1.62-17.9401,0.69-26.85c-1.61-11.52-4.15-22.87-7.06-34.12
		c-3.79-18.2001-8.89-36.3601-9.07-55.0601c-1.14-10.28-1.23-20.67-0.5-30.97c1.42-9.88-0.08-19.92,1.46-29.77
		c0.64-6.3199,0.61-12.6801,1.21-19c1.61-12.34,1-24.83,1.18-37.24c0.29-6.8-2.13-13.36-5.47-19.16
		c-4.6-7.7999-11.16-14.14-17.54-20.46c-7-7.12-16.04-11.63-24.62-16.52c-15.13-8.78-30.53-17.11-45.24-26.6
		c-10.28-6.53-20.67-13.0801-29.47-21.5701c-2.47-2.49-5-5.0699-6.45-8.2999c-1.52-5.3101-0.29-11.16,3.16-15.4601
		c10.43-14.0499,25.69-23.25,39.93-32.9399c8.7-5.29,16.46-12.09,25.71-16.46c9.32-4.54,19.32-7.53,28.6-12.16
		c4.16-2.08,8.28-5.17,9.62-9.83c1.4901-3.8601-0.4-7.91-2.11-11.3401c-4.81-8.5699-12.95-14.7-17.67-23.35
		c-9.24-16.72-14.82-35.17-23.98-51.9399c-7.4901-15.41-17.9-29.12-28.2-42.7301c-5.56-7.4199-11.29-14.72-17.46-21.6399
		c-2.89-3.0801-4.63-6.9501-6.53-10.65c-0.5-1.39-2.02-1.7001-3.21-2.16c-5.07-1.58-9.91-4.09-13.87-7.64
		c-1.08-1-1.73-2.5-1.19-3.91c1.18-3.87,3.07-7.46,4.85-11.0699c-0.54-0.27-1.62-0.8199-2.15-1.09c1.47-7.36,5.15-14,7.55-21.0601
		c6.88-17.9,13.94-36.5399,27.49-50.59c7.52-8.46,15.52-16.5,23.03-24.98c4.41-5.25,8.99-10.5,12.09-16.66
		c3.64-6.8,2.34-15.74-2.84-21.39c-5.31-6.0399-11.83-10.83-17.56-16.4299c-4.44-4.41-8.04-9.89-9.14-16.14
		c-1.68-10.3101,0.64-20.91-1.25-31.17c-0.47-1.73-1.01-3.4299-1.52-5.12c-1.85-0.17-3.91-1.24-5.6-0.01
		c-3.43,2.26-5.52,5.9401-7.85,9.22c-10.27,15.3201-20.18,30.92-31.64,45.41c-11.22,14.33-24.06,28.04-40.35,36.62
		c-24.18,11.17-50.81,15.3101-77.03,18.4501c-13.86,0.0199-28.17,3.25-41.69-0.9801c1.08-2.0399,3.31-2.9199,5.29-3.8199
		c17.12-6.45,34.76-11.4401,51.74-18.27c12.52-4.61,24.39-10.72,36.21-16.85c7.59-4.11,14.74-9.09,21.16-14.86
		c8.74-8.67,17.16-17.73,24.14-27.9c19.58-27.1801,31.39-58.85,42.76-90.08c7.69-23.53,6.82-48.67,12.3-72.65
		c4.01-22.49,10.75-44.36,15.9-66.59c3.12-14.17,7.49-28.04,10.36-42.27c3.14-15.61,6.51-31.18,9.26-46.86
		c11.51-75.31,18.16-151.34,32.25-226.25c6.39-35.89,17.21-70.85,30.66-104.69c3.55-10.43,8.7-20.19,12.72-30.43
		c4.11-8.26,7.22-16.99,11.69-25.07c5.18-11.36,10.99-22.43,16.43-33.66c8.31-18.09,17.68-35.66,26.13-53.67
		c5.78-13.06,12.28-25.79,18.82-38.47c4.55-7.64,8.3799-15.66,12.61-23.47c5.96-9.86,11.74-19.9,18.86-29
		c7.44-8.82,15.7-17,24.55-24.41c8.59-4.68,16.58-10.8,22.84-18.34c2.35-2.01,4.71-4.02,7.21-5.85c1.45-0.94,2.97-1.77,4.5-2.59
		c0.97,0.19,1.95,0.38,2.94,0.57c0.59-1.59,1.19-3.17,1.82-4.76c1.8-4.18,4.56-8.78,2.46-13.39c1.25-8.79,2.57-17.67,1.79-26.57
		c-1.38-12.76-7.01-24.81-7.05-37.75c-0.3,0.53-0.59,1.07-0.87,1.61c-1.1-14.97-1.27-30.19,1.4-45.01
		C910.31,47.3,917.46,34.84,927.49,25.5 M943.5,33.56c-7.63,5.62-11.41,15.19-12.01,24.41c-0.05,8.08-1,16.88,3.61,24.02
		c8.85,13.75,20.44,25.44,31.96,36.94c3.93,3.92,7.52,8.25,12.01,11.56c0.53-0.07,1.6-0.21,2.14-0.28l0.17-1.08
		c-1.7-3.62-5.22-5.92-8.21-8.41c3.3-0.4,6.54-1.22,9.85-1.56c-1.56,0.98,0.2,5.13,1.74,3.08c3.59-3.37,5.3-8.19,7.84-12.32
		c2.72,2.16,5.63-2.86,2.55-4.44c4.39-7.36,8.83-14.71,13.3199-22.01c6.8701-11.26,17.51-19.53,28.3201-26.78
		c-0.2101-1.02-0.41-2.03-0.61-3.04l0.88-0.61l-0.9601-0.43c0.23-1.01,0.4601-2.01,0.6901-3.02c-3-1.07-5.9501-2.23-8.8-3.63
		c-10.53-5-21.98-7.41-33.33-9.74c-11.8-2.16-23.58-5.23-35.66-4.88C953.82,31.54,948.05,30.43,943.5,33.56 M1089.5601,352.89
		c1.87,11.82,5.84,23.18,8.8999,34.72c7.99,26.59,17.12,53.23,32.2201,76.73c9.5099,15.4,20.12,30.23,32.87,43.14
		c13.35,13.76,28.4399,25.73,43.9199,37c33.91,24.3,71.97,42.34,111.4301,55.61c20.9299,7.31,42.63,12.1299,64.5,15.61
		c19.97,2.97,39.99,5.8,60.13,7.23c6.4399,1.27,13.0499,1.04,19.52,2.16c4.35,0.65,8.8099,0.17,13.1599,1
		c5.88,1.0099,11.88,0.91,17.78,1.86c4.9401,0.81,10.02,0.23,14.9401,1.38c22.75,2.65,45.5099,5.1,68.2899,7.41
		c5.0901,1.07,10.36,0.38,15.4501,1.48c5.73,1.19,11.64,0.7401,17.3999,1.7401c4.7201,0.84,9.5601,0.17,14.28,1.09
		c6.5,1.27,13.1901,0.86,19.7101,2.02c4.12,0.65,8.33,0.21,12.48,0.75c7.0599,1.16,14.24,1.48,21.39,1.78
		c1.7,0.27,2.99-0.79,2.4199-2.58c-3.1899-1.72-6.9399-1.16-10.4-1.36c-4.7,0.02-9.26-1.36-13.95-1.2599
		c-4.71,0.0099-9.3199-0.96-13.97-1.39c-4.12-0.47-8.29-0.17-12.36-0.9c-5.6901-1.14-11.5601-0.22-17.2001-1.61
		c-4.15-1.04-8.6-0.27-12.65-1.44c-21.1399-14.9-42.74-30.1-67.58-38.18c-20.16-6.32-40.6799-11.41-61.09-16.87
		c-22.8101-5.73-45.0601-13.43-67.7001-19.77c-40.08-11.41-80.3899-22.77-118.3899-40.14c-21.4701-9.35-41.7001-21.23-61.5-33.66
		c-33.3-21.23-65.4601-44.2-97.01-67.94c-6.2201-4.48-11.99-9.6-18.6001-13.5c-2.6-6.1-4.0699-12.64-6.12-18.94
		c-3.14-11.21-6.6699-22.36-8.61-33.85C1091.97,352.27,1090.63,352.16,1089.5601,352.89 M820.81,601c0.18,8.66-0.52,17.38,0.63,26
		c-0.52-16.01-0.02-32.04-0.23-48.06C820.37,586.26,820.98,593.65,820.81,601 M1597.4301,676.08c0,0.68-0.01,2.04-0.01,2.72
		c6.63,3.26,13.61,5.71,20.5299,8.3c8.75,3.02,17.7101,6.1,27.0701,6.27c4.6699,0.16,9.28,1.15,13.97,1.03
		c8.35-0.15,16.74,0.41,25.05-0.67c8.1599-0.78,16.3999,0.01,24.5499-1.01c0.0601-0.74,0.1901-2.22,0.25-2.96
		c-8.95-0.3-17.9099,0.08-26.86,0.08c-13.63,0.97-27.2999,0.3-40.9199-0.31c-9.9801-1.72-19.6101-5.04-29.0801-8.57
		C1607.17,679.22,1602.62,676.51,1597.4301,676.08 M1689.8101,955.68c-1.4401,3.07-2.3401,6.35-3.38,9.57
		c-6.4901,21.04-12.3201,42.45-14.5901,64.4c-1.48,11.51-0.22,23.11,1.74,34.48c3.3501,21.53,13.02,41.5,24.63,59.74
		c4.0601,6.1801,7.7101,12.7,12.7001,18.22c6.45,7.54,13.47,14.5801,20.9099,21.13c25.9501,24.41,53.5601,47,78.9801,71.99
		c11.97,11.74,23.72,23.8401,33.4299,37.5701c17.25,25.74,33.22,52.83,42.42,82.61c4.7,15.59,7.9,31.6,9.96,47.74
		c1.4,6.1899,0.9,12.5699,1.01,18.87c-0.15,8.63,0.41,17.3199-1.14,25.86c0.05,9.6-2.38,19.02-1.96,28.63
		c-0.26,0-0.77,0.01-1.03,0.01c-0.54,13.92-3.3199,27.63-5.0699,41.4301c-4.6901,30.0299-9.6901,60.0299-16.02,89.7699
		c1.2999-0.0199,2.62-0.01,3.96,0c8.97-46.4399,17.16-93.08,22.1801-140.11c1.14-5.72,0.49-11.59,1.6-17.2899
		c0.99-6.39,0.28-12.89,0.9299-19.3101c1.05-21.4299-2.1499-42.87-7.38-63.61c-7.4199-31.61-22.86-60.61-40.5199-87.6
		c-8.02-13.53-18.4501-25.37-29.29-36.67c-25.83-26.59-54.25-50.45-81.77-75.23c-12.27-11.7-25.46-22.79-35-36.96
		c-8.95-13.75-17.6-27.8501-23.52-43.2101c-3.99-11.21-6.7799-22.88-7.9-34.73c-0.0099-5.61-1.75-11.1899-0.47-16.78
		c1.1-22.98,7.3301-45.35,13.87-67.2999c1.2001-4.53,3.7001-8.85,3.5-13.65C1691.58,955.07,1690.65,955.22,1689.8101,955.68
		 M1571.7,1114.71c0.75,0.02,2.26,0.04,3.01,0.0601c-0.08-1.96-0.13-3.91-0.1799-5.84
		C1573.09,1110.59,1571.9,1112.46,1571.7,1114.71 M1064.15,1585.16c-4.78,7.23-8.4401,15.14-11.8201,23.09
		c-1.76,4.58-3.5199,10.38-0.2699,14.73c5.6,7.64,15.6399,9.47,22.72,15.3101c8.0699,7.23,17.4199,13.23,23.77,22.21
		c4.46,5.29,6.24,12.1,8.2,18.58c9.59,33.5601,17.01,67.6901,26.79,101.1901c2.74,9.03,4.89,18.46,10,26.54
		c1.71-0.42,4.1-0.25,4.74-2.3201c1.35-5.39,2.2999-10.9399,2.26-16.5c0.09-22.01,0.1799-44.02-0.1801-66.01
		c-1.49-9.1799-0.73-18.52-1.99-27.72c-0.79-4.1801-0.63-8.47-1.33-12.64c-3.1801-15.75-2.9601-32.75-11.4301-46.9399
		c-4.22-8.4301-10.97-15.4401-18.96-20.38c-9.41-5.9501-19.5-10.79-29.72-15.16c-7.3101-2.66-14.3201-6.1801-21.9-8.01
		c1.0699-2.39,2.4099-4.6801,3.22-7.17C1067.3101,1580.79,1065.21,1583.72,1064.15,1585.16 M1011.3,1827.35
		c-0.32,1.77,0.29,3.55,0.68,5.29c1.81,7.1,2.27,14.47,4.17,21.5699c1.89,7.16,3.39,14.4701,6.13,21.38
		c1.8199,4.2201,3.5,9.04,7.52,11.7001c4.1799,2.77,9.33,0.46,13.58-0.9701c9.08-3.84,16.95-10.1499,23.8199-17.1399
		c8.38-8.0901,9.2001-22.03,3.4501-31.8201c-2.65-4.88-8.36-6.5699-13.35-7.89c-8.54-1.96-17.2201-3.33-25.9501-4.09
		c-1.5-0.3-2.39-1.8199-3.53-2.6801c-4.3199-0.4199-8.66-0.35-12.9799-0.25C1013.6,1824.03,1012.17,1825.51,1011.3,1827.35z"/>
	<path fill="#180606" stroke="#180606" stroke-width="0.594" d="M943.5,33.56c4.55-3.13,10.32-2.02,15.5-2.22
		c12.08-0.35,23.86,2.72,35.66,4.88c11.35,2.33,22.8,4.74,33.33,9.74c2.85,1.4,5.8,2.56,8.8,3.63
		c-0.23,1.01-0.4601,2.01-0.6901,3.02c-8.84-3.95-17.7-8.09-27.17-10.31c-14.17-3.35-28.49-6.2-42.97-7.82
		c-5.57-0.18-11.18-0.49-16.72,0.13c-7.18,1.55-11.31,8.68-13.28,15.21c-2.11,6.18-1.65,12.8-1.56,19.21
		c-0.02,5.25,2.21,10.19,5.16,14.43c6.4,9.43,14.41,17.58,22.06,25.97c3.75,3.86,7.41,7.84,11.55,11.29
		c2.99,2.49,6.51,4.79,8.21,8.41l-0.17,1.08c-0.54,0.07-1.61,0.21-2.14,0.28c-4.49-3.31-8.08-7.64-12.01-11.56
		c-11.52-11.5-23.11-23.19-31.96-36.94c-4.61-7.14-3.66-15.94-3.61-24.02C932.09,48.75,935.87,39.18,943.5,33.56z"/>
	<path fill="#090C0C" stroke="#090C0C" stroke-width="0.594" d="M1432.98,42.2c4.72,0.01,9.13,1.89,13.6,3.18
		c29.42,8.98,58.77,18.31,87.4701,29.4c16.01,6.44,32.8099,12.53,45.6499,24.51c14.02,12.33,22.77,29.14,34.9501,43.06
		c8.74,10.11,19.3199,18.42,30.62,25.47c17.87,11.27,36.89,21,52.9399,34.93c13.73,11.38,24.63,25.65,34.9401,40.09
		c21.9299,31.01,41.2,63.78,60.9,96.22c12.6399,19.74,23.6,40.49,34.96,60.98c3.36,5.6,5.9399,11.83,10.47,16.63
		c4.4301,0.3,9.48-5.96,13.1-1.24c2.75,5.96,1.41,13.23,4.9501,18.98c2.46,3.78,7.39,4.34,11.48,4.97
		c7.5699,0.4,15.3,0.88,22.78-0.74c0.98-7.42-5-13.39-4.4701-20.72c3.78,0.96,6.8401,3.48,9.27,6.46c2.41,2.99,5.28,6.44,4.86,10.53
		c-1.5,3.17-4.48,5.26-7.24,7.25c-8.1,5.45-16.6699,10.48-23.4099,17.65c-3.24,3.46-6.03,8.1-5.0701,13.03
		c1.74,9.28,7.1901,17.26,12.48,24.88c5.9501,8.64,12.9,16.51,19.26,24.85c3.98,5.14,6.9,11.01,10.8,16.22
		c3.61,4.84,9.46,8.44,15.6899,7.72c12.77-0.99,25.05-6.02,38.01-5.29c10.8301-0.66,21.0901,3.3,31.3,6.3101
		c9.54,2.85,18.95,6.22,28.0599,10.2599c1.8401,0.57,2.3501,2.47,3.05,4.07c-5.96-1.16-11.29-4.19-16.95-6.21
		c-7.4901-2.78-15.3401-5.88-23.4701-4.92c-11.35,1.62-22.12,5.92-32.38,10.86c-3.96,2.16-8.47,4.2-10.7999,8.2599
		c-1.3201,3.7-0.48,7.87,1.15,11.35c3.1399,6.7,7.9099,12.55,13.45,17.43c8.9,7.95,18.64,14.89,28.49,21.61
		c12.9401,8.73,26.37,16.9,40.79,22.96c11.5,4.11,23.38,7.3,35.4999,8.89c11.27,1.49,22.1802,4.73,33.3201,6.89
		c18.0601,3.93,36.7,6.71,53.52,14.79v3.35c-14.8799-7.98-31.76-10.42-48.0601-13.88c-24.23-4.75-48.72-8.59-72.3199-16.02
		c-5.8199-2.09-11.28-4.99-16.8099-7.7c-18.38-10.17-36.02-21.78-52.29-35.09c-6.8201-5.51-13.09-11.93-17.0801-19.83
		c-2.73-4.9-4.5299-11.05-2.1699-16.43c2.64-4.34,7.46-6.69,11.75-9.1c10.0699-4.82,20.58-8.85,31.54-11.11
		c-7.02-4.45-15.64-3.63-23.55-3.68c-13.24-0.27-25.75,6.08-39.04,4.9c-5.12-0.57-8.77-4.57-12.1-8.09
		c-4.72-4.86-7.24-11.28-11.45-16.51c-7.03-9-14.65-17.55-20.9301-27.1c-5.67-8.21-11.3199-17.25-11.73-27.51
		c-0.0701-6.12,4.65-10.57,8.6799-14.53c4.6901-5.08,10.91-8.27,16.14-12.7c-9.88-0.72-20.7899,1.76-29.7-3.7
		c-6.6901-5.06-5.5699-14.37-7.37-21.66c-4.27-1.06-8.17,3.05-12.3,1.88c-4.0599-3.3-6.12-8.31-8.8099-12.66
		c-11.1-19.55-21.49-39.5-33.26-58.66c-20.3101-33.23-40.05-66.86-62.02-99.04c-10.62-15.1-21.59-30.26-35.6899-42.35
		c-3.0801-2.72-6.2001-5.4-9.4501-7.9c-8.84-6.55-18.21-12.33-27.62-18c-6.38-3.47-12.2-7.99-18.96-10.69
		c-2.3101-2.81-5.4601-4.64-8.64-6.24c-0.89-0.52-1.75-1.06-2.58-1.6c-1.7101-1.56-3.51-3.01-5.37-4.34
		c-7.9501-7.25-15.0601-15.32-21.7301-23.74c-8.9199-12.29-17.22-25.41-29.23-34.98c-8.51-7.43-18.98-11.94-29.1699-16.54
		c-17.8401-7.46-36.1101-13.79-54.4501-19.88c-19.2-6.29-38.36-12.73-57.84-18.12C1433.29,43.94,1433.08,42.78,1432.98,42.2
		 M1890.51,422.67c1.53,4.05,2.99,8.13,4.22,12.29c0.03,0.88,0.11,2.64,0.14,3.52c2.13-1.19,3.9-2.89,4.46-5.35
		C1897.0699,429.11,1894.41,425.24,1890.51,422.67z"/>
	<path fill="#0A0606" stroke="#0A0606" stroke-width="0.594" d="M1017.25,68.21c5.88-5.38,12.35-10.07,18.9301-14.56
		c0.2,1.01,0.3999,2.02,0.61,3.04c-10.8101,7.25-21.45,15.52-28.3201,26.78c-4.49,7.3-8.93,14.65-13.3199,22.01
		c-0.89,1.47-1.75,2.94-2.55,4.44c-2.54,4.13-4.25,8.95-7.84,12.32c-1.54,2.05-3.3-2.1-1.74-3.08c6.83-9.48,12.14-19.94,18.45-29.77
		C1006.28,82.03,1010.67,74.19,1017.25,68.21z"/>
	<path fill="#FCBCBE" stroke="#FCBCBE" stroke-width="0.594" d="M992.6,109.92c0.8-1.5,1.66-2.97,2.55-4.44
		C998.23,107.06,995.32,112.08,992.6,109.92z"/>
	<path fill="#FCBCBE" stroke="#FCBCBE" stroke-width="0.594" d="M912.63,168.57c2.1,4.61-0.66,9.21-2.46,13.39
		C910.94,177.49,911.81,173.04,912.63,168.57z"/>
	<path fill="#FCBCBE" stroke="#FCBCBE" stroke-width="0.594" d="M2009.65,643.55c-0.0801-1.35,0.0399-2.7,0.16-4.03
		c5.5299,2.71,10.99,5.61,16.8099,7.7C2020.8,648.53,2014.42,647,2009.65,643.55z"/>
	<path fill="#FCBCBE" stroke="#FCBCBE" stroke-width="0.594" d="M1570.3199,1089.9301c0.9501-0.75,1.9401-1.4501,2.9701-2.1101
		c0.0299,2.1901,0.0599,4.39,0.0499,6.5901C1572.3101,1092.91,1571.3,1091.42,1570.3199,1089.9301z"/>
	<path fill="#FCBCBE" stroke="#FCBCBE" stroke-width="0.594" d="M1571.7,1114.71c0.2001-2.25,1.39-4.12,2.8301-5.7799
		c0.0499,1.9299,0.1,3.88,0.1799,5.84C1573.96,1114.75,1572.45,1114.73,1571.7,1114.71z"/>
	<path fill="#FCBCBE" stroke="#FCBCBE" stroke-width="0.594" d="M1200.9301,1500.36c0.5499-0.14,1.6599-0.4299,2.21-0.5699
		c1.04,1.02,1.99,2.1599,2.86,3.37C1204.28,1502.25,1202.59,1501.3199,1200.9301,1500.36z"/>
	<path fill="#AD7578" stroke="#AD7578" stroke-width="0.594" d="M1625.8101,157.78c1.86,1.33,3.6599,2.78,5.37,4.34
		C1628.8199,161.39,1626.76,160.13,1625.8101,157.78z"/>
	<path fill="#A48D8C" stroke="#A48D8C" stroke-width="0.594" d="M1633.76,163.72c3.1799,1.6,6.33,3.43,8.64,6.24
		c-2.3101-0.69-4.88-0.89-6.8301-2.36C1634.79,166.39,1634.28,165.03,1633.76,163.72z"/>
	<path fill="#0A0C0C" stroke="#0A0C0C" stroke-width="0.594" d="M852.65,225.64c13.94-14.22,29.55-26.7,45.49-38.59
		c0.7,0.42,2.08,1.26,2.77,1.69c-2.5,1.83-4.86,3.84-7.21,5.85c-8.11,5.46-15.71,11.66-22.84,18.34
		c-8.85,7.41-17.11,15.59-24.55,24.41c-7.12,9.1-12.9,19.14-18.86,29c-4.23,7.81-8.06,15.83-12.61,23.47
		c-6.54,12.68-13.04,25.41-18.82,38.47c-8.45,18.01-17.82,35.58-26.13,53.67c-5.44,11.23-11.25,22.3-16.43,33.66
		c-4.47,8.08-7.58,16.81-11.69,25.07c-4.02,10.24-9.17,20-12.72,30.43c-13.45,33.84-24.27,68.8-30.66,104.69
		c-14.09,74.91-20.74,150.94-32.25,226.25c-2.75,15.68-6.12,31.25-9.26,46.86c-2.87,14.23-7.24,28.1-10.36,42.27
		c-5.15,22.23-11.89,44.1-15.9,66.59c-5.48,23.98-4.61,49.12-12.3,72.65c-11.37,31.23-23.18,62.8999-42.76,90.08
		c-6.98,10.17-15.4,19.23-24.14,27.9c-6.42,5.77-13.57,10.75-21.16,14.86c-11.82,6.13-23.69,12.24-36.21,16.85
		c-16.98,6.83-34.62,11.8201-51.74,18.27c-1.98,0.9-4.21,1.78-5.29,3.8199c13.52,4.2301,27.83,1,41.69,0.9801
		c26.22-3.14,52.85-7.28,77.03-18.4501c16.29-8.58,29.13-22.29,40.35-36.62c11.46-14.49,21.37-30.09,31.64-45.41
		c2.33-3.2799,4.42-6.96,7.85-9.22c1.69-1.23,3.75-0.16,5.6,0.01c0.51,1.6901,1.05,3.39,1.52,5.12c-1.12,0.73-2.23,1.49-3.33,2.25
		c-0.39-1.62-0.83-3.23-1.26-4.8199c-2.73,2.2799-5.32,4.74-7.41,7.63c-17.53,25.64-33.77,52.95-57.83,73.1699
		c-11.81,10.0801-26.68,15.55-41.41,19.77c-25.87,6.88-52.66,10.64-79.46,10.11c-5.62-0.24-11.56,0.29-16.85-1.95
		c-1.88-0.59-1.65-2.88-2.29-4.37c6.7-4.62,14.57-6.97,22.19-9.5801c23.31-7.9199,46.85-15.6399,68.67-27.1899
		c12.86-6.84,25-15.36,34.54-26.4401c27.71-29.83,43.32-68.2699,56.71-106.11c8-23.2499,7.4301-48.15,12.3-72.03
		c5.09-24.92,11.94-49.43,17.9-74.14c7.74-31.68,15.33-63.46,20.04-95.75c4.95-34.39,9.05-68.8799,13.5099-103.3199
		c5.9-43.8,11.64-87.69,20.97-130.91c5.19-23.88,12.59-47.23,21.03-70.14c14.55-39.81,33.34-77.86,52.27-115.72
		c16.62-33.93,32.3-68.35,50.56-101.45C831.93,252.78,840.69,237.93,852.65,225.64z"/>
	<path fill="#F49EA7" stroke="#F49EA7" stroke-width="0.594" d="M870.86,212.93c7.13-6.68,14.73-12.88,22.84-18.34
		C887.44,202.13,879.45,208.25,870.86,212.93z"/>
	<path fill="#F49EA7" stroke="#F49EA7" stroke-width="0.594" d="M1247.9399,1099.24c12.8101-2.99,26.04-1.23,39.0601-1.4299
		c12.98,0.87,26.0601-0.2401,39,1.3999c17.66,0.66,35.38-0.39,53,1.2101c7.55,0.35,15.13-0.13,22.6899,0.45
		c-2.7599,2.05-5.9199,3.4401-9.1799,4.47c-29.72,9.4-59.76,17.9-90.21,24.62c-25.76,5.53-51.89,10.1901-78.3101,10.37
		c-13.66,0.14-27.33,0.16-40.99-0.22c-8.3101-0.61-16.6801,0.03-24.95-1.11c-7.37-0.97-14.8401,0-22.1901-1.09
		c-6.25-0.76-12.5599-0.87-18.84-1.25c-16.4-1.63-32.89-2.27-49.24-4.53c4.87-3.24,9.6899-6.5601,14.53-9.85
		c14.61-9.12,30.2699-16.85,47.0699-20.9601c13.73-3.0499,28.13-2.48,41.79,0.7201c6.36,1.37,12.6,3.24,18.9299,4.7799
		c8.5701,2.2201,17.22-0.73,25.7001-1.98c8.5-1.25,16.9199-2.99,25.4099-4.36C1243.45,1100.11,1245.6801,1099.61,1247.9399,1099.24z
		"/>
	<path fill="#F49EA7" stroke="#F49EA7" stroke-width="0.594" d="M1390.45,1109.37c3.88-1.02,7.49-3.29,11.6101-3.26
		c-13.9401,13.75-28.8201,26.51-43.63,39.3201c-13.4501,11.2699-27.01,22.48-41.42,32.5299
		c-22.8101,16.36-50.91,24.1001-78.6801,25.76c-11.36,1.8401-22.98-0.0499-34.36,1.65c-14.6899,0.55-29.5599,1.24-44.08-1.58
		c-8.42-1.27-16.4-4.38-24.34-7.3101c-14.4601-6.62-26.39-17.41-38.01-28.01c-10.76-10.5-21.3401-21.2-30.88-32.8199
		c6.15-0.09,12.1899,1.48,18.35,1.5499c5.03-0.0499,9.91,1.4701,14.9399,1.3301c5.4401-0.2001,10.77,1.15,16.2001,1.28
		c4.35,0.4299,8.73,0.2999,13.08,0.7799c8.8301,1.74,17.91,0.2101,26.78,1.77c22.96,1.11,45.97,1.54,68.97,1.09
		c25.61,0.0701,50.87-4.7999,75.89-9.84C1331.09,1126.98,1360.92,1118.62,1390.45,1109.37z"/>
	<path fill="#F49EA7" stroke="#F49EA7" stroke-width="0.594" d="M1468.5601,1490.79c2.2999-3.11,4.7699-6.1001,7.4199-8.9301
		c-0.9299,2.0701-1.52,4.36-2.9399,6.1801C1471.71,1489.2,1470.05,1489.89,1468.5601,1490.79z"/>
	<path fill="#F49EA7" stroke="#F49EA7" stroke-width="0.594" d="M1424.2,1738.05c0.78-0.7301,1.5801-1.4501,2.41-2.13
		c0.39,3.0299,0.76,6.08,1.08,9.14c-0.8899-1.01-1.7699-2-2.58-3.02C1424.77,1740.6899,1424.48,1739.36,1424.2,1738.05z"/>
	<path fill="#AE999A" stroke="#AE999A" stroke-width="0.594" d="M1686.11,200.29c0.71-0.41,2.15-1.23,2.87-1.64
		c3.25,2.5,6.37,5.18,9.4501,7.9c-1.0801,0.34-2.14,0.68-3.1801,1.03C1692.21,205.13,1689.13,202.74,1686.11,200.29z"/>
	<path fill="#250302" stroke="#250302" stroke-width="0.594" d="M925.92,338.55c-0.39-1.69-0.54-3.43-0.71-5.14
		c0.7599,0.34,2.29,1.02,3.05,1.36c1.89,8.46,5.79,16.25,8.45,24.45c5.84,12.86,10.62,26.21,17.47,38.58
		c4.69,10.83,10.53,21.09,16.93,30.99c7.21,12.45,15.78,24.06,25.12,34.98c9,9.68,18.73,18.7,29.09,26.94
		c5.3101,4.69,10.4301,9.61,16.03,13.99c17.87,13.86,35.72,27.77,54.23,40.77c13.51,9.2,26.52,19.17,40.6801,27.38
		c16.03,9.76,31.8,20.1,48.8199,28.08c18.5901,8.88,37.9,16.24,57.66,22.08c13.22,3.3,26.37,6.98,39.83,9.17
		c8.1801,1.26,16.1801,3.5,24.39,4.62c11.6801,1.64,23.16,4.32,34.79,6.25c13.48,2.51,27.0699,4.29,40.61,6.39
		c-2.21,0.52-4.38,1.15-6.58,1.65c-16.89-1.89-33.53-5.79-50.4601-7.22c-10-3.91-20.85-4.26-31.23-6.62
		c-7.3199-1.35-14.6599-2.61-21.9099-4.31c-7.5901-2.01-15.42-2.85-23.0901-4.44c0.4601,2.6,0.67,5.3,1.75,7.74
		c1.2001,1.99,3.13,3.4,4.8401,4.94c3.2999-3.43,6.99-6.52,11.3099-8.61c-0.35,1.14-0.71,2.28-1.0699,3.43
		c-3.37,3.19-7.05,6.96-11.88,7.51c-5.5601-3.07-8.3-10.25-7.41-16.39c-22.12-6.1-43.64-14.31-64.23-24.45
		c-32.1-16.09-62.09-36-91.34-56.73c-18.02-12.82-35.63-26.22-52.77-40.19c-15.1801-12.77-30.64-25.34-43.97-40.09
		c-12.87-13.33-22.74-29.18-31.81-45.24c-5.19-8.22-8.84-17.25-13.17-25.91C940.53,376.29,933.17,357.42,925.92,338.55z"/>
	<path fill="#EDDBD1" stroke="#EDDBD1" stroke-width="0.594" d="M923.75,344.18c0.65-1.9,1.39-3.78,2.17-5.63
		c7.25,18.87,14.61,37.74,23.42,55.96c4.33,8.66,7.98,17.69,13.17,25.91c9.07,16.06,18.94,31.91,31.81,45.24
		c13.33,14.75,28.79,27.32,43.97,40.09c17.14,13.97,34.75,27.37,52.77,40.19c29.25,20.73,59.24,40.64,91.34,56.73
		c20.59,10.14,42.11,18.35,64.23,24.45c-0.89,6.14,1.85,13.32,7.41,16.39c4.83-0.55,8.51-4.32,11.88-7.51
		c1.0699-1.13,2.11-2.27,3.1699-3.41c0.77,0.08,2.3101,0.2599,3.0901,0.35c7.25,1.7,14.59,2.96,21.9099,4.31
		c10.38,2.36,21.23,2.71,31.23,6.62c16.9301,1.43,33.5701,5.33,50.4601,7.22c11.6699,1.78,23.4199,2.93,35.1,4.67
		c7.67,1.47,15.54,1.17,23.25,2.37c20.25,2.28,40.58,3.71,60.8099,6.18c10.7401,0.11,21.39,1.68,32.13,2.11
		c-0.7999,0.61-1.59,1.23-2.36,1.85l-0.86,0.65c6.62,3.81,13.8,6.48,20.79,9.54c15.73,6.69,31.71,12.89,48.09,17.81
		c-3.62,7.19-5.02,15.2-7.96,22.66c-8.86,25.7-17.3301,51.56-24.04,77.9c-4.95,20.31-8.72,40.87-12.6,61.41
		c-6.66,37.08-12.8101,74.3-16.46,111.82c-0.3101,9.32-1.77,18.59-1.1901,27.95c1.4401,18.97,6.34,37.72,14.85,54.77
		c8.49,16.95,18.8101,32.89,28.92,48.9c-2.26,2.6399-4.39,5.4099-6.1899,8.3899c-4.64,7.9-10.13,15.25-14.9501,23.04
		c-12.0499,18.8101-22.99,38.4501-30.74,59.46c-7.53,23.5801-12.47,47.89-16.79,72.2401c-3.26,17.85-7.2899,35.71-7.4099,53.9299
		c-0.25,0.12-0.74,0.36-0.99,0.47c-1.27,0.65-2.7301,1.25-3,2.8301c-1.66,4.2-2.9901,8.6799-5.9301,12.21
		c-2.6899,3.3-6.9399,4.5601-10.73,6.1c-18.46,6.75-37.34,12.27-56.24,17.62c-22.6901,6.29-45.5801,11.9-68.7101,16.3201
		c-35.2,7.13-70.63,13.7999-106.5,16.22c-12.1899-0.05-24.49,0.87-36.5699-1.17c-19.87-2.2999-39.35-7.9-57.4-16.51
		c-5.47-2.5599-10.84-5.33-16.2-8.09c-24.0801-12.52-47.4601-26.75-67.9401-44.66c-7.49-6.1599-14-13.37-21.13-19.8999
		c-25.1-24.3-45.91-52.54-66.1-80.92c-22.92-32.66-44.13-66.51-63.44-101.4301c-12.35-22.0699-24.45-44.35-34.28-67.6799
		c-17.21-41.41-29.62-84.83-37.07-129.05c-7.44-44.38-10.89-89.29-15.04-134.06c-0.13-7.71-1.58-15.32-1.45-23.03
		c0.05-5.38-1.01-10.69-1.01-16.06c-0.15-11-1.54-22.03-0.3-33.01c0.41-4-0.59-7.94-1.01-11.89c-0.79-4.65-0.57-9.37-0.63-14.05
		c-0.33-37.67-0.38-75.33-0.39-113c-0.31-8.17,4.4-15.27,6.86-22.8c2.57-6.52,5.45-12.93,7.6-19.61
		c3.79-9.8701,5.77-20.34,10.04-30.03c6.5-14.81,11.73-30.23,19.73-44.34c7.12-11.69,15.37-22.64,22.73-34.17
		c16.39-21.45,23.5-47.99,30.6-73.58C924.45,349.09,924.41,346.58,923.75,344.18 M893.44,609.7c-13.57,1.38-24.26,11.05-32.85,20.87
		c-8.88,10.99-16.34,23.46-20.13,37.15c-2.03,12.58-0.66,25.63,2.75,37.86c0.65,0.03,1.95,0.09,2.6,0.11
		c0.66-5.61,0.91-11.28,2.31-16.78c2.32-11.59,4.55-24.0099,12.6-33.18c8.69-10.24,20.95-17.7,34.2401-20.03
		c12.09-0.57,24.05,1.87,36.0099,3.31c46.4301,6.78,92.5601,15.47,138.72,23.81c0.2001-6.78-3.2-12.91-5.1299-19.24
		c-3.29-7.81-5.9401-16.77-13.0601-22.02c-8.45-5.68-19.0699-2.23-28.5-3.44c-21.96-2.61-43.92-5.22-65.96-7.1
		C935.92,609.47,914.61,607.47,893.44,609.7 M1334.4399,647.66c-8.1599,6.72-15.4199,14.48-23.3999,21.4301
		c-6.41,6.56-13.8401,12.11-19.8401,19.06c1.4501,0.9,3.13,0.53,4.1901-0.77c6.79-6.55,13.92-12.73,20.65-19.34
		c7-6.72,14.72-12.8,20.97-20.24C1336.37,647.76,1335.09,647.69,1334.4399,647.66 M1375.9399,674.03
		c-7.96,3.93-14.7699,9.6899-21.7899,15.03c-7.78,6.19-15.34,12.69-22.09,20.01c-7.03,8.3-12.54,17.76-17.6901,27.31
		c-1.5699,3.91-4.71,6.79-7.41,9.91c5.87,1.73,12.03,0.66,18.04,0.58c11.51-0.12,23.04,0.06,34.54-0.57
		c6.0599-1.35,12.2999-0.62,18.46-0.81c7.12,0.31,13.99-1.9,20.99-2.89c5.22,0.02,10.02-2.28,15.0701-3.28
		c3.6399-0.66,6.87-2.55,10.4199-3.52c8.21-2.31,16.24-5.22,24.2001-8.31c18.7899-7.5,38.2-14.81,53.98-27.85
		c3.21-3.04,7.47-6.54,6.8099-11.49c-0.0499-2.8-2.78-4.48-4.72-6.05c-11.05-7.1-24.3101-8.98-36.75-12.37
		c-9.42-1.77-18.83-3.93-28.45-4.16c-11.1001-1.74-22.4-1.21-33.5901-1.06C1395.49,665.82,1385.33,669.28,1375.9399,674.03
		 M980.74,686.3c-19.2,2.7-36.25,12.78-52.3,23.05c-4.46,3.21-9.55,5.6801-13.28,9.78c1.1201,0.96,2.81,0.89,3.9-0.09
		c15.43-10.75,31.5-21.16,49.45-27.17c22.09-6.42,45.66-5.52,68.0599-1.2c10.9901,2.51,21.27,7.36,31.2001,12.61
		c3.7,1.91,7.1699,4.34,11.1799,5.62c-0.2699-1.45-0.48-3.12-2.0499-3.7c-9.3201-5.43-19.01-10.28-29.12-14.07
		c-11.76-4.37-24.3701-5.44-36.76-6.52C1000.9,684.17,990.72,684.57,980.74,686.3 M950.73,726.74c-8.66,3.32-17.31,6.9-25.16,11.9
		c-3.13,2.18-6.58,4.57-7.82,8.37c-1.04,5.26,3.22,9.42,7.07,12.24c3.48,2.42,6.71,5.16,9.67,8.21c10.19,3.15,19.52,8.5,29.01,13.32
		c5.23,2.3,11.13,1.78,16.54,3.46c14.3,4.06,29.21,1.37,43.78,1.11c-0.59-0.2599-1.17-0.5-1.73-0.74
		c3.47-0.04,6.97-0.09,10.3799-0.84c21.3401-2.84,42.53-6.82,63.5601-11.39c2.1799-0.3,2.6699-2.84,3.7899-4.35
		c-3.5-5.64-7.73-10.77-11.71-16.0601c-1.76-2.0699-1.9299-5.1899-4.1899-6.84c-6.4301-4.9-11.52-11.33-18.15-15.99
		c-10-7.86-22.54-11.19-34.72-13.92c-12.4901-2.8-25.34-3.71-38.09-2.74C978.19,714.95,964.71,721.72,950.73,726.74
		 M1096.6801,719.98c-0.4501,1.82,0.45,3.55,0.97,5.27c6.0699,17.95,11.48,36.16,15.03,54.78c0.8099,5.97,2.13,11.91,1.86,17.97
		c-0.15,13.66,0.48,27.38-0.9401,40.99c-0.41,12.43-0.72,24.88-2.01,37.25c-0.1799,4.92,0,9.88-0.7899,14.76
		c-0.7101,10.33-0.8401,20.71-2.16,30.99c-0.05,9.36-1.41,18.62-1.8101,27.97c-0.1,6.73-1.71,13.36-1.2999,20.12
		c0.73-0.15,2.1899-0.44,2.9199-0.59c-0.3199-7.32,1.01-14.53,1.29-21.82c1.42-20.19,3.12-40.33,4.01-60.56
		c1.23-6.59,0.37-13.34,1.38-19.95c1.13-14.69,0.95-29.47,2.25-44.15c0.0699-9.67,0.3099-19.35,0-29.02
		c-2.59-23.79-9.6-46.81-17.01-69.48C1099.61,722.66,1099.28,719.84,1096.6801,719.98 M1291.5699,953.99
		c3.91,7.09,8.29,14.16,9.9501,22.21c1.22,9.29-0.77,19.25-6.48,26.81c-4.53,5.98-12.17,8.08-19.16,9.6
		c-2.4,0.68-5.22,0.63-7.1,2.47c1.9399,2.4,4.84,0.69,7.3199,0.34c7.78-1.87,16.3301-4.19,21.3101-11
		c5.86-8.02,8.09-18.5,6.85-28.29c-1.92-8.66-6.05-16.73-11.0601-23.99C1292.63,952.74,1292.0699,953.34,1291.5699,953.99
		 M1093.5601,1006.08c0.47,3.44,3.4299,5.87,6.58,6.95c7.53,2.65,15.53,3.56,23.21,5.67c10.49,2.75,19.79,8.54,29.16,13.82
		c1.45,0.6899,3.38,2.1699,4.74,0.48c-1.6899-1.88-3.85-3.2-6.03-4.39c-6.52-3.61-13.02-7.32-19.9199-10.15
		c-10.15-4.07-21.3-4.59-31.49-8.44c-4.3-1.46-3.52-6.47-3.4701-10.04c-0.23-3.58,1.62-7.36-0.34-10.67
		C1092.99,994.36,1093.23,1000.42,1093.5601,1006.08 M1253.3199,999.25c-7.6899,1.83-15.7999,3.86-21.7999,9.33
		c-6.01,5.45-11.21,11.81-15.39,18.77c0.99,0.1,2,0.2101,3.03,0.3101c4-6.6,9.0699-12.57,14.87-17.66
		c7.1899-5.75,16.5699-7.5,25.39-9.21c4.0399-0.5,8.13-1.79,12.22-0.79c0.25,2.29,1.88,5.41-0.4,7.16c-3,0.95-6.39,0.1-9.1899,1.75
		c2.7899,3.16,7.8099,1.46,11.2799,0.26c3.3501-3,2.14-8.95-1.0599-11.62C1265.91,996.64,1259.52,997.89,1253.3199,999.25
		 M1239.4301,1097.87c-14.17,2.23-28.2301,5.11-42.42,7.2c-5.38-0.6-10.59-2.09-15.77-3.58c-10.88-2.6799-21.9399-5.52-33.24-5.05
		c-9.46-0.2-18.9,1.5901-27.86,4.53c-10.8101,3.6-21.37,8.05-31.1,14c-2.8301,1.8101-6.1001,3.12-8.37,5.67
		c-1.41-0.38-2.36,1.09-3.5,1.62c-4.66,3.11-9.24,6.35-13.9501,9.38c-1.58-1.26-3.25-2.38-5.25-2.75
		c0.61,1.62,1.36,3.23,2.5801,4.53c16.6599,18.97,33.88,37.7,53.8099,53.3199c18.9401,15.23,43.65,21.8201,67.65,21.87
		c10.33-0.09,20.6899,0.1801,30.97-0.9399c7.02-0.1901,14.05-0.0901,21.0801-0.3501c10.2999-1.2799,20.71-1.9199,30.86-4.24
		c19.71-4.25,39.01-11.6899,55.26-23.84c30.59-21.98,58.6599-47.23,86.1899-72.87c2.38-2.33,5.37-4.5,5.85-8.04
		c-14.08-0.71-28.1799-0.74-42.27-1.0199c-13.34-1.26-26.7699-0.7001-40.1499-0.88c1.2899-0.3301,2.6499-0.55,3.9299-0.9801
		c-22.9,0.6801-45.8099-0.96-68.72-0.9099C1256.35,1094.41,1247.9301,1096.59,1239.4301,1097.87z"/>
	<path fill="#EDDBD1" stroke="#EDDBD1" stroke-width="0.594" d="M1110.05,410.52c3.98,1.97,7.25,5.04,10.8099,7.65
		c30.1801,22.75,60.88,44.84,92.5601,65.45c19.2799,12.45,38.9099,24.5,59.6499,34.38c29.2401,14.11,59.9401,24.92,91.04,34.08
		c5.89,1.61,11.64,3.83,17.7001,4.76c-0.55,0.11-1.0901,0.22-1.6101,0.35c5.9301,0.9,11.55,3.04,17.3501,4.5
		c4.6599,1.26,9.2899,2.69,13.6899,4.68c-23.14,1.16-46.37,1.01-69.36,4.14c-13.6901,2.47-27,6.6-40.16,11.02
		c-3.23,1.16-7.21,1.66-8.72,5.23c-7.1801-1.86-13.6899-5.57-20.5-8.4c-37.28-17.04-71.96-39.92-101.76-68.1
		c-14.79-14.17-27.14-30.69-37.73-48.18c-7.13-11.08-12.9401-22.95-17.79-35.17C1113.33,421.51,1110.25,416.35,1110.05,410.52z"/>
	<path fill="#EDDBD1" stroke="#EDDBD1" stroke-width="0.594" d="M1472.73,584.86c2.6-0.81,5.27,0.2,7.8101,0.83
		c20.89,5.93,42.27,10.42,62.48,18.49c11.9,5.1,22.96,11.92,33.84,18.89c5.4501,3.65,11.24,6.9,16.03,11.43
		c-13.34,0.29-26.5-2.56-39.77-3.3c-34.59-4.1-69.22-7.62-103.92-10.58c-18.75-2.04-37.5599-3.7-56.21-6.6
		c-12.78-2.02-25.6899-3.72-38.15-7.25c35.63-6.32,71.29-12.51,106.92-18.87C1465.53,587.35,1469.0601,585.85,1472.73,584.86z"/>
	<path fill="#EDDBD1" stroke="#EDDBD1" stroke-width="0.594" d="M1487.02,1339.02c5.5499-3.59,7.0699-10.38,10.21-15.77
		c0.6801,6.23-0.08,12.52,0.78,18.75c0.58,4.6801,0.36,9.4301,1.1799,14.1c1.9,18.3,6.63,36.13,10.3201,54.12
		c1.46,6.87,3.66,13.61,4.37,20.62c-1.4301,6.15-2.79,12.35-5.1801,18.2101c-0.1699-0.51-0.51-1.53-0.6699-2.04
		c-0.24-0.73-0.7101-2.2-0.9401-2.9401c-12.0499,11.64-23.1,24.27-34.3099,36.7101c-12.49,13.97-23.64,29.03-35.26,43.71
		c-10.96,14.4301-22.02,30.0601-24.38,48.51c-1.53,11.3101,0.38,22.67,0.4299,34.01c0.25,25.66-2.2799,51.33-0.4399,76.99
		c0.7,16.45,3.5699,32.77,7.13,48.84c-5.37,9.3101-11.1801,18.36-16.6801,27.5901c-4.25,7.2699-7.58,15.0299-11.5599,22.4399
		c-5.25,8.87-8.5801,18.7-13.6801,27.66c-2.59,4.78-4.95,9.6699-7.23,14.6c-0.62,1.11-1.21,2.24-1.79,3.4
		c-0.9399,1.74-1.87,3.49-2.74,5.28l-0.38,0.7699c-1.6399,3.2201-3.3099,6.4401-4.7799,9.76c-1.28,2.76-2.64,5.49-4.0701,8.1901
		c-2.58,4.74-4.97,9.58-7.27,14.47c-0.61,1.2-1.22,2.41-1.8199,3.65c-0.88,1.6899-1.73,3.4-2.55,5.14
		c-1.1,2.24-2.21,4.49-3.4399,6.6799c-1.01,1.8-2.13,3.5801-2.78,5.5801c0.41,2.11,1.54,4.01,2.36,6.01
		c-1.5499,2.97-3.95,5.4099-5.36,8.47c-0.23,1.53-0.0599,3.11-0.03,4.6899c-0.2899,0.4601-0.87,1.4-1.1599,1.87
		c-4.4701-14.02-9.66-27.83-16.4501-40.9c-8.62-16.5199-17.4-33.08-23.13-50.87c-7.2-20.8199-9.46-42.85-14.84-64.12
		c-3.87-15.96-9.79-31.35-17.02-46.0699c-9.6799-19.83-20.73-38.96-32.17-57.8101c-1.7699-2.8199-3.2-6.2799-6.58-7.45
		c-2.0599-0.8099-4.17-1.45-6.25-2.12c-1.33-0.46-2.64-0.9399-3.92-1.42c-1.96-5.22-1.71-10.89-1.6499-16.36
		c0.0299-8.38,7.11-14.36,8.6599-22.3199c2.5-11.05,4.9-22.26,4.79-33.65c0.34-12.79-2.04-25.5-5.78-37.6801
		c-3.25-10.0299-6.89-20.2999-13.76-28.49c-4.5399-5.7999-10.7899-9.9399-15.2999-15.75c-3.85-4.5499-6.13-10.2999-6.88-16.1799
		c-0.9401-7.14,0.03-14.36-0.72-21.5c-1.3101-8.1801-5.76-15.47-10.99-21.74c-4.03-4.9301-8.0601-9.88-12.8101-14.14
		c-5.5-5.12-12.02-9.49-15.8101-16.13c-2.73-5.42-4.2-11.42-4.97-17.4c-0.3199-2.54-0.6599-5.0699-0.9399-7.59
		c16.35,8.36,33.4099,15.65,51.46,19.4299c14.7,3.0701,29.71,5.2101,44.76,4.75c9.88,0.26,19.66-1.22,29.49-1.88
		c24.6901-2.6599,49.17-6.9299,73.53-11.71c44.1799-8.1899,87.8099-19.37,130.45-33.54
		C1474.7,1344.14,1481.24,1342.39,1487.02,1339.02z"/>
	<path fill="#340302" stroke="#340302" stroke-width="0.594" d="M914.95,372.07c2.93-9.29,4.77-18.97,8.8-27.89
		c0.66,2.4,0.7,4.91-0.08,7.29c-7.1,25.59-14.21,52.13-30.6,73.58c-7.36,11.53-15.61,22.48-22.73,34.17
		c-8,14.11-13.23,29.53-19.73,44.34c-4.27,9.69-6.25,20.16-10.04,30.03c-2.15,6.68-5.03,13.09-7.6,19.61
		c-0.58-0.41-1.74-1.24-2.3199-1.65c2.96-7.52,5.62-15.15,8.13-22.83c9.8799-29.68,20.43-59.71,38.35-85.64
		c6.28-9.35,12.9-18.46,19.11-27.86C904.95,402.06,910.24,387.03,914.95,372.07z"/>
	<path fill="#1D0201" stroke="#1D0201" stroke-width="0.594" d="M1089.5601,352.89c1.0699-0.73,2.4099-0.62,3.6599-0.68
		c1.9401,11.49,5.47,22.64,8.61,33.85c2.05,6.3,3.52,12.84,6.12,18.94c6.6101,3.9,12.38,9.02,18.6001,13.5
		c31.5499,23.74,63.71,46.71,97.01,67.94c19.7999,12.43,40.0299,24.31,61.5,33.66c38,17.37,78.3099,28.73,118.3899,40.14
		c22.64,6.34,44.89,14.04,67.7001,19.77c20.41,5.46,40.9299,10.55,61.09,16.87c24.84,8.08,46.4401,23.28,67.58,38.18
		c4.05,1.17,8.5,0.4,12.65,1.44c5.64,1.39,11.51,0.47,17.2001,1.61c4.0699,0.73,8.24,0.43,12.36,0.9c4.65,0.43,9.26,1.4,13.97,1.39
		c4.6899-0.1,9.25,1.28,13.95,1.2599c3.4601,0.2,7.2101-0.36,10.4,1.36c0.5701,1.79-0.72,2.85-2.4199,2.58
		c-7.15-0.3-14.3301-0.62-21.39-1.78c-4.15-0.54-8.36-0.1-12.48-0.75c-6.52-1.16-13.2101-0.75-19.7101-2.02
		c-4.72-0.92-9.5599-0.25-14.28-1.09c-5.7599-1-11.6699-0.55-17.3999-1.7401c-5.0901-1.1-10.36-0.41-15.4501-1.48
		c-22.78-2.31-45.5399-4.76-68.2899-7.41c-4.92-1.15-10-0.57-14.9401-1.38c-5.9-0.95-11.9-0.85-17.78-1.86
		c-4.35-0.83-8.8099-0.35-13.1599-1c-6.4701-1.1201-13.0801-0.89-19.52-2.16c-20.14-1.43-40.16-4.26-60.13-7.23
		c-21.87-3.48-43.5701-8.3-64.5-15.61c-39.4601-13.27-77.52-31.31-111.4301-55.61c-15.48-11.27-30.5699-23.24-43.9199-37
		c-12.75-12.91-23.3601-27.74-32.87-43.14c-15.1001-23.5-24.2301-50.14-32.2201-76.73
		C1095.4,376.07,1091.4301,364.71,1089.5601,352.89 M1110.05,410.52c0.2,5.83,3.2799,10.99,5.1699,16.39
		c4.85,12.22,10.66,24.09,17.79,35.17c10.59,17.49,22.9399,34.01,37.73,48.18c29.8,28.18,64.48,51.06,101.76,68.1
		c6.8101,2.83,13.3199,6.54,20.5,8.4c1.51-3.57,5.49-4.07,8.72-5.23c13.16-4.42,26.47-8.55,40.16-11.02
		c22.99-3.13,46.22-2.98,69.36-4.14c-4.4-1.99-9.03-3.42-13.6899-4.68c-5.8-1.46-11.42-3.6-17.3501-4.5
		c0.52-0.13,1.0601-0.24,1.6101-0.35c-6.0601-0.9301-11.8101-3.15-17.7001-4.76c-31.1-9.16-61.7999-19.97-91.04-34.08
		c-20.74-9.88-40.37-21.93-59.6499-34.38c-31.6801-20.61-62.38-42.7-92.5601-65.45C1117.3,415.56,1114.03,412.49,1110.05,410.52
		 M1377.02,570.77c-6.3201,0.85-12.7001,0.62-19.04,1.04c-8.46,0.89-16.98,1.5-25.22,3.74c-12.58,3.17-25.13,6.76-37.17,11.61
		c7.3101,3.97,15.4,6.15,23.17,9.04c10,3.25,19.97,6.93,30.34,8.82c35.09-7.02,70.55-12.53,105.78-19.03
		c4.1899-0.72,8.61-1.01,12.37-3.24c-13.24-3.61-26.41-7.46-39.5-11.56c-3.27-0.94-6.4301-2.58-9.85-2.69
		C1404.46,571.41,1390.59,569.09,1377.02,570.77 M1472.73,584.86c-3.6699,0.99-7.2,2.49-10.97,3.04
		c-35.63,6.36-71.29,12.55-106.92,18.87c12.4601,3.53,25.37,5.23,38.15,7.25c18.65,2.9,37.46,4.56,56.21,6.6
		c34.7001,2.96,69.3301,6.48,103.92,10.58c13.27,0.74,26.4301,3.59,39.77,3.3c-4.79-4.53-10.58-7.78-16.03-11.43
		c-10.88-6.97-21.9399-13.79-33.84-18.89c-20.21-8.07-41.59-12.56-62.48-18.49C1478,585.06,1475.33,584.05,1472.73,584.86z"/>
	<path fill="#CF6369" stroke="#CF6369" stroke-width="0.594" d="M1890.51,422.67c3.9,2.57,6.5599,6.44,8.8199,10.46
		c-1.5599,0.59-3.09,1.21-4.6,1.83C1893.5,430.8,1892.04,426.72,1890.51,422.67z"/>
	<path fill="#848B87" stroke="#848B87" stroke-width="0.594" d="M1894.73,434.96c1.51-0.62,3.04-1.24,4.6-1.83
		c-0.5599,2.46-2.33,4.16-4.46,5.35C1894.84,437.6,1894.76,435.84,1894.73,434.96z"/>
	<path fill="#270907" stroke="#270907" stroke-width="0.594" d="M822.4,580.01c-0.44-10.19,4.92-19.18,8.25-28.46
		c0.58,0.41,1.74,1.24,2.3199,1.65c-2.46,7.53-7.17,14.63-6.86,22.8c0.01,37.67,0.06,75.33,0.39,113c0.06,4.68-0.16,9.4,0.63,14.05
		c0.42,3.95,1.42,7.89,1.01,11.89c-1.24,10.98,0.15,22.01,0.3,33.01c0,5.37,1.06,10.68,1.01,16.06c-0.13,7.71,1.32,15.32,1.45,23.03
		c4.15,44.77,7.6,89.68,15.04,134.06c7.45,44.22,19.86,87.64,37.07,129.05c9.83,23.33,21.93,45.61,34.28,67.6799
		c19.31,34.92,40.52,68.77,63.44,101.4301c20.19,28.38,41,56.62,66.1,80.92c7.13,6.5299,13.64,13.74,21.13,19.8999
		c20.48,17.91,43.86,32.14,67.9401,44.66c0.1699,1.17,0.35,2.35,0.5599,3.5601c-9.36-4.8-18.49-10.01-27.61-15.2201
		c-16.37-9.4299-31.51-20.84-45.84-33.11c-7.76-7.5599-15.51-15.15-23.3201-22.6599c-13.0099-12.75-24.4899-26.9401-35.7-41.27
		c-10.46-13.3201-20.22-27.16-29.96-41.01c-12.27-18.77-25.03-37.24-36.55-56.49c-9.88-16.28-19.24-32.87-28.53-49.49
		c-4.3-7.4601-7.71-15.39-12.16-22.77c-14.13-27.26-25.79-55.8201-34.68-85.21c-6.52-19.8-11.35-40.12-15.53-60.52
		c-4.76-24.66-8.72-49.5-11.07-74.52c-3.07-26.28-5.14-52.66-7.61-78.9901c-0.34-9.0099-1.82-17.94-1.56-26.98
		c-1.5-15.67-0.97-31.46-2.69-47.12c-0.66-21.31,0.24-42.65-1.04-63.94C822.35,626.01,822.37,603.01,822.4,580.01z"/>
	<path fill="#60412F" stroke="#60412F" stroke-width="0.594" d="M1377.02,570.77c13.5699-1.68,27.4399,0.64,40.88-2.27
		c3.4199,0.11,6.58,1.75,9.85,2.69c13.09,4.1,26.26,7.95,39.5,11.56c-3.76,2.23-8.1801,2.52-12.37,3.24
		c-35.23,6.5-70.6901,12.01-105.78,19.03c-10.37-1.89-20.34-5.57-30.34-8.82c-7.77-2.89-15.86-5.07-23.17-9.04
		c12.04-4.85,24.5901-8.44,37.17-11.61c8.24-2.24,16.76-2.85,25.22-3.74C1364.3199,571.39,1370.7,571.62,1377.02,570.77z"/>
	<path fill="#60412F" stroke="#60412F" stroke-width="0.594" d="M889.6,613.56c11.92-2.97,24.28-1.16,36.42-1.52
		c6.18-0.27,12.29,0.71,18.41,1.38c8.89,0.08,17.7,1.37,26.58,1.78c11.19,1.8,22.56,2.12,33.75,3.92
		c8.38,1.04,16.78,2.22,25.25,1.76c6.65,0.14,14.17-1.09,19.84,3.27c5.6,4.23,7.9401,11.24,10.65,17.45
		c2.15,5.63,4.35,11.26,5.77,17.14c-8.91-0.75-17.5701-3.11-26.39-4.44c-39.52-7.2-79.09-14.18-118.87-19.82
		c-7.31-0.78-14.64-1.8-22.01-1.46c-15.16-0.46-28.92,8.34-39.03,18.96c-6.1,6.05-9.46,14.19-11.74,22.33
		c-1.88,6.21-2.25,12.81-4.76,18.85c-0.66-10.69-2.47-22.16,2.36-32.18c5.44-12.43,12.44-24.41,22.23-33.92
		C874.1,621.09,881.07,615.34,889.6,613.56z"/>
	<path fill="#60412F" stroke="#60412F" stroke-width="0.594" d="M1418.37,674.15c7.14-1.41,14.38,0.0099,21.46,1.17
		c4.66,0.74,9.11,3.11,11.88,7c5.0901,6.3,4.1001,15.05,2.98,22.5c-1.9399,7.45-4.7899,16.28-12.6499,19.33
		c-7.2101,2.9-14.63,5.38-22.26,6.88c-5.88,1.39-11.74-1.2401-16.78-4.02c-6.89-4.18-13.72-9.31-17.4399-16.65
		c-3.27-7.07-1.1001-15.2,1.6699-22.06c2.27-4.92,5.03-10.46,10.28-12.71C1404.29,673.59,1411.46,675.37,1418.37,674.15z"/>
	<path fill="#60412F" stroke="#60412F" stroke-width="0.594" d="M1000.39,720.56c4.86-0.53,9.77-0.47,14.66-0.32
		c6.12,0.42,12.43-0.96,18.35,1.25c6.87,2.29,15.0499,4.4,18.85,11.21c3.4399,5.48,2.4301,12.19,2.48,18.33
		c0.16,9.16-5.48,18.18-13.9399,21.79c-9.3501,3.82-20.0001,5.33-29.8101,2.35c-12.47-2.87-24.06-12.98-25.54-26.14
		c0-7.79-1.6-16.55,3.31-23.3101C991.22,721.81,996.19,721.14,1000.39,720.56z"/>
	<path fill="#58EEE5" stroke="#58EEE5" stroke-width="0.594" d="M820.81,601c0.17-7.35-0.44-14.74,0.4-22.06
		c0.21,16.02-0.29,32.05,0.23,48.06C820.29,618.38,820.99,609.66,820.81,601z"/>
	<path fill="#140A04" stroke="#140A04" stroke-width="0.594" d="M893.44,609.7c21.17-2.23,42.48-0.23,63.6,1.32
		c22.04,1.88,44,4.49,65.96,7.1c9.4301,1.21,20.05-2.24,28.5,3.44c7.12,5.25,9.77,14.21,13.0601,22.02
		c1.9299,6.33,5.33,12.46,5.1299,19.24c-46.1599-8.34-92.2899-17.03-138.72-23.81c-11.96-1.44-23.92-3.88-36.0099-3.31
		c-13.29,2.33-25.55,9.79-34.2401,20.03c-8.05,9.17-10.28,21.59-12.6,33.18c-1.4,5.5-1.65,11.17-2.31,16.78
		c-0.65-0.02-1.95-0.08-2.6-0.11c-3.41-12.23-4.78-25.28-2.75-37.86c3.79-13.6899,11.25-26.16,20.13-37.15
		C869.18,620.75,879.87,611.08,893.44,609.7 M889.6,613.56c-8.53,1.78-15.5,7.53-21.54,13.5c-9.79,9.51-16.79,21.49-22.23,33.92
		c-4.83,10.02-3.02,21.49-2.36,32.18c2.51-6.04,2.88-12.64,4.76-18.85c2.28-8.14,5.64-16.28,11.74-22.33
		c10.11-10.62,23.8701-19.42,39.03-18.96c7.37-0.34,14.7,0.68,22.01,1.46c39.78,5.64,79.35,12.62,118.87,19.82
		c8.8199,1.33,17.48,3.69,26.39,4.44c-1.42-5.88-3.62-11.51-5.77-17.14c-2.71-6.21-5.05-13.22-10.65-17.45
		c-5.6699-4.36-13.1899-3.13-19.84-3.27c-8.47,0.46-16.87-0.72-25.25-1.76c-11.19-1.8-22.56-2.12-33.75-3.92
		c-8.88-0.41-17.69-1.7-26.58-1.78c-6.12-0.67-12.23-1.65-18.41-1.38C913.88,612.4,901.52,610.59,889.6,613.56z"/>
	<path fill="#5F4133" stroke="#5F4133" stroke-width="0.594" d="M1249.09,628.5c7.67,1.59,15.5,2.43,23.0901,4.44
		c-0.78-0.09-2.3201-0.27-3.0901-0.35c-1.0599,1.14-2.1,2.28-3.1699,3.41c0.36-1.15,0.72-2.29,1.0699-3.43
		c-4.3199,2.09-8.01,5.18-11.3099,8.61c-1.7101-1.54-3.64-2.95-4.8401-4.94C1249.76,633.8,1249.55,631.1,1249.09,628.5z"/>
	<path fill="#150D05" stroke="#150D05" stroke-width="0.594" d="M1334.4399,647.66c0.65,0.03,1.9301,0.1,2.5701,0.14
		c-6.25,7.44-13.97,13.52-20.97,20.24c-6.73,6.61-13.86,12.79-20.65,19.34c-1.0601,1.3-2.74,1.67-4.1901,0.77
		c6-6.95,13.4301-12.5,19.8401-19.06C1319.02,662.14,1326.28,654.38,1334.4399,647.66z"/>
	<path fill="#240001" stroke="#240001" stroke-width="0.594" d="M1375.78,651.09c2.2-0.5,4.37-1.13,6.58-1.65
		c8.51,1.2,17.1,1.6,25.63,2.61c11.03,0.93,21.95,2.78,32.98,3.66c13.23,2.03,26.66,2.2599,39.9401,3.87
		c9.0299,0.42,17.98,1.9,27.0399,2.08c6.9801,1.17,14.1101,0.9301,21.1001,2.2c5.8899,1.08,11.9099,0.38,17.85,1.04
		c8.13,1.18,16.39,0.52,24.5399,1.58c9.15,1.26,18.4,0.8,27.6101,1.03c5.33,0.01,10.6,1.15,15.95,1.07
		c33.37,0.16,66.74,0.28,100.11,0.12c0.46,0.73,1.38,2.19,1.84,2.92c-2.1799,1.01-4.46,1.94-6.8899,1.81
		c-12.02-0.03-24.04-0.09-36.0601-0.09c-9.01,0.14-17.96-1-26.97-0.9c-21-0.33-42.0601,0.1-62.99-1.81
		c-6.36-0.3-12.78,0.23-19.0801-0.8c-6.95-1.06-13.99-1.18-20.95-2.04c-4.89-0.37-10.02-1.07-14.6901,0.81
		c-1.5399-0.2-3.09-0.3-4.61-0.33c0.77-0.62,1.5601-1.24,2.36-1.85c-10.74-0.43-21.3899-2-32.13-2.11
		c-20.23-2.47-40.5599-3.9-60.8099-6.18c-7.71-1.2-15.58-0.9-23.25-2.37C1399.2,654.02,1387.45,652.87,1375.78,651.09z"/>
	<path fill="#020101" stroke="#020101" stroke-width="0.594" d="M1375.9399,674.03c9.39-4.75,19.55-8.21,30.02-9.52
		c11.1901-0.15,22.49-0.68,33.5901,1.06c9.62,0.23,19.0299,2.39,28.45,4.16c12.4399,3.39,25.7,5.27,36.75,12.37
		c1.9399,1.57,4.67,3.25,4.72,6.05c0.66,4.95-3.6,8.45-6.8099,11.49c-15.78,13.04-35.1901,20.35-53.98,27.85
		c-7.9601,3.09-15.9901,6-24.2001,8.31c-3.5499,0.97-6.78,2.86-10.4199,3.52c-5.05,1-9.8501,3.3-15.0701,3.28
		c-7,0.9901-13.87,3.2-20.99,2.89c-6.16,0.19-12.4-0.54-18.46,0.81c-11.5,0.63-23.03,0.45-34.54,0.57
		c-6.01,0.08-12.17,1.15-18.04-0.58c2.7001-3.12,5.8401-6,7.41-9.91c5.15-9.55,10.66-19.01,17.6901-27.31
		c6.75-7.32,14.3099-13.82,22.09-20.01C1361.17,683.72,1367.98,677.96,1375.9399,674.03 M1418.37,674.15
		c-6.91,1.22-14.08-0.56-20.86,1.44c-5.25,2.25-8.01,7.79-10.28,12.71c-2.77,6.86-4.9399,14.99-1.6699,22.06
		c3.72,7.34,10.5499,12.47,17.4399,16.65c5.04,2.78,10.9,5.41,16.78,4.02c7.63-1.5,15.0499-3.98,22.26-6.88
		c7.86-3.05,10.71-11.88,12.6499-19.33c1.1201-7.45,2.1101-16.2-2.98-22.5c-2.77-3.89-7.22-6.26-11.88-7
		C1432.75,674.16,1425.51,672.74,1418.37,674.15 M1449.0601,675c3.6899,3.38,7.5,7.09,8.7899,12.1c0.54,2.62,1.52,5.19,1.62,7.9
		c-0.9399,8.66-2.5599,17.5-7.21,25.05c3.9399-1.84,7.27-4.79,11.4-6.28c10.59-4.71,21.5299-9.87,29.24-18.82
		c2.02-2.04,2.21-5.95-0.4501-7.53c-5.3099-3.84-11.8099-6.06-18.33-6.56c-3.23-0.13-5.8099-2.44-8.95-2.88
		C1459.83,676.74,1454.41,676.12,1449.0601,675 M1359.64,694.65c-2.6901,2.27-4.77,5.23-7.72,7.2
		c-3.3201,1.95-5.3501,5.37-8.3101,7.76c-3.9,3.13-6.4399,7.53-10.0499,10.95c-4.16,3.97-6.7101,9.17-10.1801,13.68
		c-1.1801,1.53-1.91,3.33-2.4301,5.18c6.01,0.21,12.03-0.04,18.05-0.02c5.38,0.24,10.61-1.3,15.99-1.22
		c5.6801-0.76,11.53,0.1,17.13-1.4c2.26-0.39,4.58-0.28,6.89-0.34c5.0599,0.13,9.95-1.5,15.02-1.6
		c4.5499-0.05,8.9299-1.41,13.45-1.79c-7.0599-3.4-13.76-7.72-19.3099-13.27c-4.76-4.9901-8.5-11.7-7.8201-18.79
		c1.16-8.97,4.6901-17.54,10.1801-24.73C1378.92,679.8,1368.87,686.97,1359.64,694.65z"/>
	<path fill="#250001" stroke="#250001" stroke-width="0.594" d="M1524.71,668.27c1.52,0.03,3.0701,0.13,4.61,0.33
		c14.4301,6.64,29.05,12.94,44.04,18.22c9.27,4.03,19.21,6.08,28.91,8.8c26.95,6.62,54.5,10.93,82.1899,12.78
		c12.38,0.93,24.86-0.39,37.01-2.83c8.8-1.48,17.3401-4.2,26.17-5.51c0.02,1.12,0.01,2.24-0.04,3.38
		c-15.6,4.14-31.5,7.23-47.5699,8.85c-12,0.92-23.9401-0.88-35.87-1.81c-23.04-2.92-46.1-6.48-68.4701-12.84
		c-11.5699,30.69-21.73,61.92-30.5499,93.51c-3.84,14.81-6.92,29.81-9.9301,44.81c-8.36,44.56-16.2899,89.29-20.58,134.46
		c-0.4401,12.92-2.85,26.04-0.05,38.87c2.2201,10.91,4.5601,21.9,8.78,32.2501c7.3,17.01,17.02,32.8199,26.96,48.39
		c0.9801,1.49,1.9901,2.98,3.02,4.48c23.74,34.9199,52.61,66.08,83.53,94.73c13.6801,12.1,29.26,21.78,44.9401,31.0499
		c18.25,10.8101,36.9199,20.92,54.98,32.0701c24.52,15.26,49.2899,31.72,66.8199,55.13c10.35,14.1799,18.26,30,24.7001,46.29
		c11.2899,28.8899,17.84,59.49,21.0099,90.2899c-0.0399,8.72,1.9,17.35,1.0801,26.0801c-0.76,7.0399-1.2101,14.1699-3.11,21.0399
		c-4.4701,17.87-14.3,33.67-21.48,50.49c-14.1001,34.9-30.41,68.8401-46.3601,102.92c-0.7,2.35-2.87,3.22-5.13,3.22
		c1.4601-4.72,3.75-9.11,5.9-13.53c9.8201-20.9199,19.62-41.84,29.05-62.9299c6.84-14.97,12.4299-30.49,19.72-45.26
		c8.71-17.51,17.63-36,17.42-56.02c0.72-26.79-3.64-53.46-10.13-79.38c-7.64-29.41-18.87-58.36-37.02-82.96
		c-10.41-13.2001-23.3201-24.1801-36.85-34.05c-32.14-23.1799-67.99-40.4099-101.3-61.75c-11.4399-7.27-22.28-15.49-32.03-24.9199
		c-14.9099-13.76-28.8999-28.4701-42.38-43.61c-11.4199-13.3701-22.8999-26.8301-32.45-41.63
		c-10.11-16.01-20.4301-31.9501-28.92-48.9c-8.51-17.05-13.4099-35.8-14.85-54.77c-0.58-9.36,0.88-18.63,1.1901-27.95
		c3.6499-37.52,9.7999-74.74,16.46-111.82c3.88-20.54,7.65-41.1,12.6-61.41c6.71-26.34,15.1801-52.2,24.04-77.9
		c2.9399-7.46,4.34-15.47,7.96-22.66c-16.38-4.92-32.36-11.12-48.09-17.81c-6.99-3.06-14.17-5.73-20.79-9.54L1524.71,668.27z"/>
	<path fill="#250001" stroke="#250001" stroke-width="0.594" d="M1597.4301,676.08c5.1899,0.43,9.74,3.14,14.5499,4.88
		c9.47,3.53,19.1,6.85,29.0801,8.57c13.62,0.61,27.2899,1.28,40.9199,0.31c8.9501,0,17.91-0.38,26.86-0.08
		c-0.0599,0.74-0.1899,2.22-0.25,2.96c-8.15,1.02-16.39,0.23-24.5499,1.01c-8.3101,1.08-16.7001,0.52-25.05,0.67
		c-4.6899,0.12-9.3-0.87-13.97-1.03c-9.36-0.17-18.3201-3.25-27.0701-6.27c-6.9199-2.59-13.8999-5.04-20.5299-8.3
		C1597.42,678.12,1597.4301,676.76,1597.4301,676.08z"/>
	<path fill="#FFFEFE" stroke="#FFFEFE" stroke-width="0.594" d="M1449.0601,675c5.35,1.12,10.7699,1.74,16.11,2.98
		c3.14,0.44,5.72,2.75,8.95,2.88c6.52,0.5,13.02,2.72,18.33,6.56c2.66,1.58,2.4701,5.49,0.4501,7.53
		c-7.7101,8.95-18.65,14.11-29.24,18.82c-4.13,1.49-7.4601,4.44-11.4,6.28c4.65-7.55,6.27-16.39,7.21-25.05
		c-0.1-2.71-1.08-5.28-1.62-7.9C1456.5601,682.09,1452.75,678.38,1449.0601,675z"/>
	<path fill="#FFFEFE" stroke="#FFFEFE" stroke-width="0.594" d="M1332.5,1918.52c0.63,0.12,1.9,0.35,2.53,0.47
		c1.4299,7.11,3.6699,14.08,4.48,21.33c-2.72-6.5-4.28-13.3999-6.64-20.0099C1332.78,1919.86,1332.59,1918.97,1332.5,1918.52z"/>
	<path fill="#FFFFFF" stroke="#FFFFFF" stroke-width="0.594" d="M1359.64,694.65c9.23-7.6801,19.28-14.85,30.89-18.39
		c-5.49,7.19-9.02,15.76-10.1801,24.73c-0.6799,7.09,3.0601,13.8,7.8201,18.79c5.5499,5.55,12.25,9.87,19.3099,13.27
		c-4.52,0.38-8.9,1.74-13.45,1.79c-5.0701,0.1-9.9601,1.73-15.02,1.6c-2.3101,0.06-4.63-0.05-6.89,0.34
		c-5.6,1.5-11.45,0.64-17.13,1.4c-5.38-0.08-10.61,1.46-15.99,1.22c-6.02-0.02-12.04,0.23-18.05,0.02
		c0.52-1.85,1.25-3.65,2.4301-5.18c3.47-4.51,6.02-9.71,10.1801-13.68c3.61-3.42,6.1499-7.82,10.0499-10.95
		c2.96-2.39,4.99-5.81,8.3101-7.76C1354.87,699.88,1356.95,696.92,1359.64,694.65z"/>
	<path fill="#FFFFFF" stroke="#FFFFFF" stroke-width="0.594" d="M962.54,730.58c7.77-4.01,16.17-6.87,24.76-8.46
		c-4.77,5.43-5.57,12.97-5.88,19.88c0.65,6.28,1.07,12.84,4.27,18.47c5.88,10.6201,17.47,17.63,29.49,18.6201
		c-12.33,2.29-25.59,2.66-37.48-1.86c-11.37-3.82-22-9.51-32.2-15.74c-4.14-2.78-8.83-5.08-11.84-9.18
		c-1.2-1.6-2.4-3.18-3.6299-4.72C940.27,740.9,951.36,735.53,962.54,730.58z"/>
	<path fill="#221A14" stroke="#221A14" stroke-width="0.594" d="M980.74,686.3c9.98-1.73,20.16-2.13,30.28-1.69
		c12.39,1.08,25,2.15,36.76,6.52c10.11,3.79,19.7999,8.64,29.12,14.07c1.5699,0.58,1.78,2.25,2.0499,3.7
		c-4.01-1.28-7.48-3.71-11.1799-5.62c-9.9301-5.25-20.21-10.1-31.2001-12.61c-22.4-4.32-45.97-5.22-68.0599,1.2
		c-17.95,6.01-34.02,16.42-49.45,27.17c-1.09,0.98-2.78,1.05-3.9,0.09c3.73-4.1,8.82-6.57,13.28-9.78
		C944.49,699.08,961.54,689,980.74,686.3z"/>
	<path fill="#030201" stroke="#030201" stroke-width="0.594" d="M950.73,726.74c13.98-5.02,27.46-11.79,42.23-14.26
		c12.75-0.97,25.6-0.06,38.09,2.74c12.1799,2.73,24.72,6.0601,34.72,13.92c6.63,4.66,11.72,11.09,18.15,15.99
		c2.26,1.65,2.4299,4.77,4.1899,6.84c3.98,5.29,8.21,10.42,11.71,16.0601c-1.12,1.5099-1.61,4.05-3.7899,4.35
		c-21.03,4.57-42.22,8.55-63.5601,11.39c-3.4099,0.75-6.9099,0.8-10.3799,0.84c0.56,0.24,1.14,0.48,1.73,0.74
		c-14.57,0.26-29.48,2.95-43.78-1.11c-5.41-1.68-11.31-1.16-16.54-3.46c-9.49-4.82-18.82-10.17-29.01-13.32
		c-2.96-3.05-6.19-5.79-9.67-8.21c-3.85-2.82-8.11-6.98-7.07-12.24c1.24-3.8,4.69-6.19,7.82-8.37
		C933.42,733.64,942.07,730.06,950.73,726.74 M1000.39,720.56c-4.2,0.58-9.17,1.25-11.64,5.16c-4.91,6.76-3.31,15.52-3.31,23.3101
		c1.48,13.16,13.07,23.27,25.54,26.14c9.81,2.98,20.46,1.47,29.8101-2.35c8.46-3.61,14.1-12.63,13.9399-21.79
		c-0.0499-6.14,0.96-12.85-2.48-18.33c-3.8-6.81-11.98-8.92-18.85-11.21c-5.92-2.21-12.23-0.83-18.35-1.25
		C1010.16,720.09,1005.25,720.03,1000.39,720.56 M962.54,730.58c-11.18,4.95-22.27,10.32-32.5099,17.01
		c1.23,1.54,2.43,3.12,3.6299,4.72c3.01,4.1,7.7,6.4,11.84,9.18c10.2,6.23,20.83,11.92,32.2,15.74c11.89,4.52,25.15,4.15,37.48,1.86
		c-12.02-0.9901-23.61-8-29.49-18.6201c-3.2-5.6299-3.62-12.1899-4.27-18.47c0.31-6.91,1.11-14.45,5.88-19.88
		C978.71,723.71,970.31,726.57,962.54,730.58 M1056.0601,732.22c1.45,5.1201,3.0199,10.38,2.5,15.78
		c-0.8101,5.68-1.1901,11.61-4.13,16.71c-2.92,5.58-8.28,9.21-13.67,12.12c17.83-2.74,35.58-5.97,53.26-9.62
		c-0.4501-1.21-0.9501-2.41-1.92-3.26C1080.72,752.68,1068.88,741.83,1056.0601,732.22z"/>
	<path fill="#201812" stroke="#201812" stroke-width="0.594" d="M1096.6801,719.98c2.6-0.14,2.9299,2.68,3.6899,4.53
		c7.41,22.67,14.42,45.69,17.01,69.48c0.3099,9.67,0.0699,19.35,0,29.02c-1.3,14.68-1.12,29.46-2.25,44.15
		c-1.01,6.61-0.15,13.36-1.38,19.95c-0.89,20.23-2.59,40.37-4.01,60.56c-0.28,7.29-1.61,14.5-1.29,21.82
		c-0.73,0.15-2.1899,0.44-2.9199,0.59c-0.41-6.76,1.2-13.39,1.2999-20.12c0.4-9.35,1.76-18.61,1.8101-27.97
		c1.3199-10.28,1.45-20.66,2.16-30.99c0.7899-4.88,0.61-9.84,0.7899-14.76c1.29-12.37,1.6-24.82,2.01-37.25
		c1.42-13.61,0.79-27.33,0.9401-40.99c0.27-6.06-1.05-12-1.86-17.97c-3.55-18.6201-8.9601-36.83-15.03-54.78
		C1097.13,723.53,1096.23,721.8,1096.6801,719.98z"/>
	<path fill="#FEFEFE" stroke="#FEFEFE" stroke-width="0.594" d="M1056.0601,732.22c12.8199,9.61,24.6599,20.46,36.0399,31.73
		c0.97,0.85,1.47,2.05,1.92,3.26c-17.6801,3.65-35.4301,6.88-53.26,9.62c5.39-2.91,10.75-6.54,13.67-12.12
		c2.9399-5.1,3.3199-11.03,4.13-16.71C1059.08,742.6,1057.51,737.34,1056.0601,732.22z"/>
	<path fill="#0B0808" stroke="#0B0808" stroke-width="0.594" d="M2136.8799,768.11c3.6401-6.85,6.29-14.18,10.1201-20.93v7.14
		c-6.97,14.91-14.5801,29.76-25.52,42.2c-8.1599,9.03-17.5601,17.61-29.2,21.76c-8.8601,2.46-18.22,1.53-27.27,1.02
		c-23.11-2.47-45.5601-11.47-69.05-9.57c-5.21,0.62-10.8199,2.86-13.4099,7.71c-3.5701,6.24-2.1001,13.7-2.38,20.55
		c-0.3101,8.78,1.48,17.41,3.1,25.99c4.38,20.69,10.9399,40.84,18.16,60.69c5.62,14.87,11.61,29.67,19.35,43.58
		c8.47,15.38,22.74,26.54,37.6199,35.33c11.8601,7.38,24.76,13.36,35.1501,22.89c11.3398,10.5601,19.6699,23.75,29.25,35.8101
		c2.6799,3.26,5.6699,6.59,9.6899,8.1899c4.3501,1.3201,5.8501-4.08,6.8899-7.1899c4.4702-17.16,3.1301-35.0801,3.4001-52.64
		c0.5801-0.32,1.74-0.97,2.3201-1.3c0.5999,2.45,1.27,4.9,1.8999,7.37v16.97c-0.8601,1.98-1.5901,4.0499-1.52,6.25
		c0.1101,8.13-1.21,16.24-3.21,24.11c-0.98,3.77-2.74,8.0499-6.6899,9.5c-4.3601,1.01-8.23-2.16-11.1702-4.9601
		c-13.45-13.97-22.1599-32.2699-37.96-44.01c-13.03-9.72-28.03-16.3699-41.23-25.83c-11.23-7.95-21.28-17.95-27.7999-30.17
		c-9.26-17.27-16.4401-35.55-22.89-54.02c-7.11-20.73-13.3401-41.89-16.73-63.57c-1.03-10.23-2.4701-20.81,0.3199-30.88
		c1.98-7.16,8.64-12.29,15.9-13.19c23.14-2.65,45.34,5.9901,68,8.89c8.05,0.85,16.25,2.65,24.3,0.68
		c8.3499-1.14,15.46-6.07,21.8699-11.23C2120.4299,795.24,2129.46,781.94,2136.8799,768.11z"/>
	<path fill="#1E140E" stroke="#1E140E" stroke-width="0.594" d="M1291.5699,953.99c0.5-0.65,1.0601-1.25,1.63-1.85
		c5.01,7.26,9.14,15.33,11.0601,23.99c1.24,9.79-0.99,20.27-6.85,28.29c-4.98,6.81-13.53,9.13-21.3101,11
		c-2.48,0.35-5.38,2.06-7.3199-0.34c1.88-1.84,4.7-1.79,7.1-2.47c6.99-1.52,14.63-3.62,19.16-9.6c5.71-7.56,7.7-17.52,6.48-26.81
		C1299.86,968.15,1295.48,961.08,1291.5699,953.99z"/>
	<path fill="#240000" stroke="#240000" stroke-width="0.594" d="M1689.8101,955.68c0.84-0.46,1.7699-0.61,2.7799-0.43
		c0.2001,4.8-2.2999,9.12-3.5,13.65c-6.5399,21.95-12.77,44.3199-13.87,67.2999c-1.28,5.5901,0.4601,11.17,0.47,16.78
		c1.1201,11.85,3.91,23.52,7.9,34.73c5.92,15.36,14.5701,29.4601,23.52,43.2101c9.54,14.1699,22.73,25.26,35,36.96
		c27.52,24.78,55.9401,48.64,81.77,75.23c10.84,11.3,21.27,23.14,29.29,36.67c17.6599,26.99,33.1,55.99,40.5199,87.6
		c5.2301,20.74,8.4301,42.1801,7.38,63.61c-0.6499,6.42,0.0601,12.92-0.9299,19.3101c-1.11,5.7-0.46,11.5699-1.6,17.2899
		c-5.02,47.03-13.2101,93.67-22.1801,140.11c-1.34-0.01-2.66-0.0199-3.96,0c6.33-29.74,11.33-59.74,16.02-89.7699
		c1.75-13.8,4.5299-27.51,5.0699-41.4301c0.26,0,0.77-0.01,1.03-0.01c-0.42-9.61,2.01-19.03,1.96-28.63
		c1.55-8.54,0.99-17.23,1.14-25.86c-0.11-6.3,0.39-12.6801-1.01-18.87c-2.0599-16.14-5.26-32.15-9.96-47.74
		c-9.2001-29.78-25.17-56.87-42.42-82.61c-9.71-13.73-21.46-25.8301-33.4299-37.5701c-25.42-24.99-53.03-47.58-78.9801-71.99
		c-7.4399-6.5499-14.46-13.59-20.9099-21.13c-4.99-5.52-8.64-12.0399-12.7001-18.22c-11.61-18.24-21.2799-38.21-24.63-59.74
		c-1.96-11.37-3.22-22.97-1.74-34.48c2.27-21.95,8.1-43.36,14.5901-64.4C1687.47,962.03,1688.37,958.75,1689.8101,955.68z"/>
	<path fill="#1C130C" stroke="#1C130C" stroke-width="0.594" d="M1093.5601,1006.08c-0.3301-5.66-0.5701-11.72,2.4399-16.77
		c1.96,3.31,0.11,7.09,0.34,10.67c-0.0499,3.57-0.83,8.58,3.4701,10.04c10.1899,3.85,21.34,4.37,31.49,8.44
		c6.8999,2.83,13.3999,6.54,19.9199,10.15c2.1801,1.1901,4.3401,2.51,6.03,4.39c-1.36,1.6899-3.29,0.21-4.74-0.48
		c-9.37-5.28-18.67-11.07-29.16-13.82c-7.6799-2.11-15.6799-3.02-23.21-5.67C1096.99,1011.95,1094.03,1009.52,1093.5601,1006.08z"/>
	<path fill="#1C120C" stroke="#1C120C" stroke-width="0.594" d="M1253.3199,999.25c6.2001-1.36,12.5901-2.61,18.9501-1.7
		c3.2,2.67,4.41,8.62,1.0599,11.62c-3.47,1.2-8.49,2.9-11.2799-0.26c2.7999-1.65,6.1899-0.8,9.1899-1.75
		c2.28-1.75,0.65-4.87,0.4-7.16c-4.09-1-8.1801,0.29-12.22,0.79c-8.8201,1.71-18.2001,3.46-25.39,9.21
		c-5.8,5.09-10.87,11.06-14.87,17.66c-1.03-0.1-2.04-0.2101-3.03-0.3101c4.1801-6.96,9.38-13.3199,15.39-18.77
		C1237.52,1003.11,1245.63,1001.08,1253.3199,999.25z"/>
	<path fill="#1B0403" stroke="#1B0403" stroke-width="0.594" d="M1239.4301,1097.87c8.5-1.28,16.9199-3.46,25.58-3.33
		c22.91-0.05,45.8199,1.59,68.72,0.9099c-1.28,0.4301-2.64,0.65-3.9299,0.9801c13.38,0.1799,26.8099-0.38,40.1499,0.88
		c14.0901,0.2799,28.1901,0.3099,42.27,1.0199c-0.48,3.54-3.47,5.7101-5.85,8.04c-27.53,25.64-55.6,50.89-86.1899,72.87
		c-16.25,12.15-35.55,19.59-55.26,23.84c-10.15,2.3201-20.5601,2.9601-30.86,4.24c-7.03,0.26-14.0601,0.16-21.0801,0.3501
		c-10.28,1.12-20.64,0.85-30.97,0.9399c-24-0.0499-48.71-6.64-67.65-21.87c-19.9299-15.62-37.15-34.35-53.8099-53.3199
		c-1.2201-1.3-1.9701-2.91-2.5801-4.53c2,0.37,3.67,1.49,5.25,2.75c4.7101-3.03,9.29-6.27,13.9501-9.38c1.14-0.53,2.09-2,3.5-1.62
		c0.4099,0.41,1.23,1.23,1.64,1.64c-4.8401,3.2899-9.66,6.61-14.53,9.85c16.35,2.26,32.84,2.9,49.24,4.53
		c6.28,0.38,12.59,0.49,18.84,1.25c7.35,1.09,14.8201,0.12,22.1901,1.09c8.2699,1.14,16.6399,0.5,24.95,1.11
		c13.66,0.38,27.33,0.36,40.99,0.22c26.42-0.1799,52.55-4.84,78.3101-10.37c30.45-6.72,60.49-15.22,90.21-24.62
		c3.26-1.0299,6.42-2.4199,9.1799-4.47c-7.5599-0.58-15.1399-0.1-22.6899-0.45c-17.62-1.6001-35.34-0.55-53-1.2101
		c-12.9399-1.64-26.02-0.5299-39-1.3999c-13.02,0.2-26.25-1.5601-39.0601,1.4299c-2.2599,0.37-4.49,0.87-6.73,1.24
		c-0.2899-0.12-0.88-0.36-1.1699-0.49C1239.89,1099.46,1239.58,1098.4,1239.4301,1097.87 M1390.45,1109.37
		c-29.5299,9.25-59.36,17.61-89.58,24.24c-25.02,5.04-50.28,9.91-75.89,9.84c-23,0.4501-46.01,0.02-68.97-1.09
		c-8.87-1.5599-17.95-0.03-26.78-1.77c-4.35-0.48-8.73-0.35-13.08-0.7799c-5.4301-0.13-10.76-1.4801-16.2001-1.28
		c-5.0299,0.14-9.9099-1.38-14.9399-1.3301c-6.16-0.0699-12.2-1.6399-18.35-1.5499c9.5399,11.62,20.12,22.3199,30.88,32.8199
		c11.62,10.6,23.5499,21.39,38.01,28.01c7.9399,2.9301,15.9199,6.04,24.34,7.3101c14.52,2.8199,29.39,2.13,44.08,1.58
		c11.38-1.7,23,0.1901,34.36-1.65c27.77-1.6599,55.87-9.4,78.6801-25.76c14.41-10.0499,27.97-21.26,41.42-32.5299
		c14.8099-12.8101,29.6899-25.5701,43.63-39.3201C1397.9399,1106.08,1394.33,1108.35,1390.45,1109.37z"/>
	<path fill="#BF7A80" stroke="#BF7A80" stroke-width="0.594" d="M630.7,1103.67c2.09-2.89,4.68-5.3501,7.41-7.63
		c0.43,1.59,0.87,3.2,1.26,4.8199c0.1,0.54,0.3,1.6,0.4,2.13c-0.02,6.72-0.06,13.45-0.25,20.17c-0.64-6.62,0.46-13.3301-0.47-19.9
		c-1.24-1.14-2.64-2.0601-3.99-3.01C633.58,1101.36,632.1,1102.47,630.7,1103.67z"/>
	<path fill="#1D0B08" stroke="#1D0B08" stroke-width="0.594" d="M1120.14,1100.97c8.96-2.9399,18.4-4.73,27.86-4.53
		c11.3-0.47,22.36,2.3701,33.24,5.05c5.1801,1.49,10.39,2.98,15.77,3.58c14.1899-2.09,28.25-4.97,42.42-7.2
		c0.1499,0.53,0.46,1.59,0.61,2.12c0.2899,0.13,0.88,0.37,1.1699,0.49c-8.49,1.37-16.9099,3.11-25.4099,4.36
		c-8.4801,1.25-17.13,4.2001-25.7001,1.98c-6.33-1.5399-12.5699-3.4099-18.9299-4.7799c-13.66-3.2001-28.0601-3.77-41.79-0.7201
		c-16.8,4.1101-32.46,11.8401-47.0699,20.9601c-0.41-0.41-1.2301-1.23-1.64-1.64c2.2699-2.55,5.5399-3.86,8.37-5.67
		C1098.77,1109.02,1109.33,1104.5699,1120.14,1100.97z"/>
	<path fill="#0E0F10" stroke="#0E0F10" stroke-width="0.594" d="M642.7,1098.61c1.89,10.26-0.43,20.86,1.25,31.17
		c1.1,6.25,4.7,11.73,9.14,16.14c5.73,5.6,12.25,10.39,17.56,16.4299c5.18,5.65,6.48,14.59,2.84,21.39
		c-3.1,6.16-7.68,11.41-12.09,16.66c-7.51,8.48-15.51,16.52-23.03,24.98c-13.55,14.05-20.61,32.6899-27.49,50.59
		c-2.4,7.0601-6.08,13.7001-7.55,21.0601c-1.2,1.9099-2.46,3.78-3.81,5.6c-1.76-2.71-0.13-5.59,0.87-8.21
		c5.95-14.1801,10.78-28.8101,17.33-42.74c3.8701-8.12,7.9301-16.29,13.8701-23.13c11.2599-13.3501,24.35-25.1001,34.81-39.13
		c3.14-4.54,6.75-9.53,6.23-15.36c-0.28-6.3701-5.2-11.0801-9.51-15.2001c-7.4-6.9-16.29-12.99-20.36-22.62
		c-4.38-10.59-1.36-22.24-2.99-33.25c-0.1-0.53-0.3-1.59-0.4-2.13C640.47,1100.1,641.58,1099.34,642.7,1098.61z"/>
	<path fill="#240101" stroke="#240101" stroke-width="0.594" d="M1568.0601,1110.0699c0.7899,0.17,2.36,0.51,3.1499,0.6901
		c-6.33,10.96-14.2999,20.9-20.58,31.9c-4.5601,8.12-10.02,15.74-13.8101,24.2799c-9.8899,18.04-15.7,37.9901-20.2699,57.9501
		c-4.9401,22.4-9.04,44.97-13.14,67.53c-1.86,10.7699-2.28,21.6899-2.91,32.58c-0.46,8.04,0.9301,16.01,0.98,24.05
		c0.09,5.9399,1.37,11.7699,2.09,17.6599c3.9401,23.38,8.8,46.67,16.42,69.16c3.1901,12.29,8.15,24.01,11.8101,36.15
		c2.6699,9.95,6.13,19.77,7.12,30.09c1,6.84-0.4501,13.6901-1.67,20.4c-3.09,13.98-8.45,27.35-14.52,40.28
		c-2.79,5.25-4.7,11.1499-8.74,15.62c-3.3,0.72-1.5-2.77-0.9299-4.4401c8.7999-17.33,17.1899-35.21,21.0699-54.38
		c1.98-9.51,1.02-19.24-0.26-28.76c-2.54-13.0599-7.16-25.58-11.45-38.14c-2.4701-7.4299-5.5601-14.62-8.54-21.85
		c-0.71-7.01-2.91-13.75-4.37-20.62c-3.6901-17.99-8.42-35.8199-10.3201-54.12c0.15-9.0499-0.33-18.09-0.2-27.14
		c0.05-3.35-0.74-6.61-1.8099-9.75c0.25-0.11,0.74-0.35,0.99-0.47c0.12-18.22,4.1499-36.08,7.4099-53.9299
		c4.3201-24.3501,9.26-48.66,16.79-72.2401c7.75-21.0099,18.6901-40.6499,30.74-59.46
		C1557.9301,1125.3199,1563.42,1117.97,1568.0601,1110.0699z"/>
	<path fill="#0B0707" stroke="#0B0707" stroke-width="0.594" d="M2116.5,1210.59c9.5-4.58,19.72-8.75,30.5-7.9199v3.0499
		c-10.2-0.75-19.8899,3.22-28.8999,7.51c-4.78,2.59-10.48,5.89-11.5701,11.66c0.6399,6.79,4.6799,12.63,8.48,18.09
		c3.9299,5.34,7.98,10.64,12.52,15.49c4.74,5.14,13.28,6.48,15.6199,13.77c1.48,6.55-0.6699,13.1801-0.7998,19.76
		c-0.1802,7.67-0.3401,15.35-0.0601,23.03c0.1099,5.24,2.3999,10.08,4.71,14.6899v6.01c-2.73-4.3099-5.3799-8.74-6.6799-13.71
		c-2.6101-9.8101-1.9001-20.0601-1.05-30.05c-0.01-6.02,2.01-11.95,1.1699-17.96c-1.1499-4.6-5.75-6.77-9.4299-9.02
		c-5.22-2.99-8.8-7.9399-12.55-12.48c-5.0701-6.11-9.9199-12.53-13.0999-19.84c-1.4102-3.52-2.9602-7.65-1.05-11.28
		C2106.55,1216.17,2111.6799,1213.11,2116.5,1210.59z"/>
	<path stroke="#000000" stroke-width="0.594" d="M603.33,1297.03c0.53,0.27,1.61,0.8199,2.15,1.09c-1.78,3.61-3.67,7.2-4.85,11.0699
		c-0.54,1.41,0.11,2.91,1.19,3.91c3.96,3.55,8.8,6.0601,13.87,7.64c1.19,0.46,2.71,0.77,3.21,2.16c1.9,3.7,3.64,7.5699,6.53,10.65
		c6.17,6.9199,11.9,14.22,17.46,21.6399c10.3,13.6101,20.71,27.3201,28.2,42.7301c9.16,16.7699,14.74,35.22,23.98,51.9399
		c4.72,8.65,12.86,14.78,17.67,23.35c1.71,3.4301,3.6,7.48,2.11,11.3401c-1.34,4.6599-5.46,7.75-9.62,9.83
		c-9.28,4.63-19.28,7.62-28.6,12.16c-9.25,4.37-17.01,11.1699-25.71,16.46c-14.24,9.6899-29.5,18.89-39.93,32.9399
		c-3.45,4.3-4.68,10.15-3.16,15.4601c1.45,3.23,3.98,5.8099,6.45,8.2999c8.8,8.49,19.1899,15.04,29.47,21.5701
		c14.71,9.49,30.11,17.8199,45.24,26.6c8.58,4.89,17.62,9.4,24.62,16.52c6.38,6.3199,12.94,12.66,17.54,20.46
		c3.34,5.8,5.7599,12.36,5.47,19.16c-0.18,12.41,0.43,24.9-1.18,37.24c-0.6,6.3199-0.57,12.6801-1.21,19
		c-1.54,9.85-0.04,19.89-1.46,29.77c-0.73,10.2999-0.64,20.6899,0.5,30.97c0.18,18.7,5.28,36.86,9.07,55.0601
		c2.91,11.25,5.45,22.6,7.06,34.12c0.93,8.9099,1.53,18.0699-0.69,26.85c-2.32,9.6899-7.54,18.4-13.52,26.26
		c-11.98,15.0499-28.08,25.9099-42.56,38.33c-5.81,5.33-12.13,10.16-19.17,13.75c-9.15,4.86-19.15,9-26.04,17.0701
		c-4.74,5.0099-7.14,11.7599-7.79,18.5499c-1.65,22.3,1.15,44.53,3.07,66.71c0.44,3.3301,1,6.73,0.33,10.0901
		c-1.63,8.9199-4.61,17.55-8.15,25.8799c-1.95,4.1702-1.36,8.8701-1.39,13.3401H51.78c0.24-2.95-0.64-5.5901-3.07-7.3501
		c8.87-48.8699,18.05-97.6899,26.54-146.6299c0.69-3.21,0.04-6.4301-1.12-9.41c-1.4-3.5-0.92-7.37,0.15-10.87
		c6.35-22.23,13.64-44.25,18.03-66.98c5.44-34.51,8.84-69.3201,15.26-103.67c1.11-3.0699,2.15-6.15,2.94-9.2999
		c1.21-0.64,2.43-1.28,3.65-1.88c-1.29-1.4301-2.71-2.73-3.99-4.13c2.69-13.38,5.57-26.74,9.32-39.86
		c1.58-2.5801,3.51-4.9,5.57-7.11c-0.31-3.02-0.62-6.0601-0.75-9.0801c1.24-4.04,2.58-8.03,3.8-12.0599
		c1.64-0.8501,3.26-1.6901,4.89-2.53c-0.62-0.78-1.24-1.53-1.85-2.27c1.26-0.9301,2.53-1.85,3.79-2.75
		c-0.57-0.75-1.13-1.47-1.69-2.1801c0.65-0.6699,1.31-1.2999,1.97-1.9299c-0.32-2.6801-0.54-5.38-0.46-8.0601
		c1.46-4.0299,3.13-7.98,4.6-11.99c1.65-1.0699,3.55-1.88,4.82-3.4099c0.11-2.66-0.64-5.4301,0.43-7.9501
		c1.22-3.1799,2.87-6.16,4.55-9.09c2.65-0.99,4.54-3.16,6.18-5.37c-1.06-0.38-2.11-0.72-3.18-1.03
		c-0.15-0.5599-0.45-1.6799-0.6-2.24c12.52-26.33,26.37-52.01,40.89-77.28c20.93-35.9099,43.58-70.9299,69.69-103.3199
		c10.42-13.49,22.53-25.54,34.91-37.21c13.05-11.51,26.87-22.0901,41.17-31.9801c16.46-11.5399,33.65-22.0199,49.68-34.1699
		c14.92-11.1901,30.77-21.5,48.39-27.9c18.1-6.36,36.75-10.9301,55.22-16.08c23.88-6.15,47.76-12.3301,71.75-18.0701
		c8.84-2.03,17.55-4.84,26.6-5.85c3.34-0.62,7.46-0.27,9.66-3.38C600.87,1300.8101,602.13,1298.9399,603.33,1297.03z"/>
	<path stroke="#000000" stroke-width="0.594" d="M1064.15,1585.16c1.0599-1.4401,3.16-4.37,4.1-1.2001
		c-0.8101,2.49-2.15,4.78-3.22,7.17c7.58,1.83,14.59,5.35,21.9,8.01c10.22,4.37,20.3099,9.21,29.72,15.16
		c7.99,4.9399,14.74,11.95,18.96,20.38c8.47,14.1899,8.25,31.1899,11.4301,46.9399c0.7,4.17,0.5399,8.46,1.33,12.64
		c1.26,9.2,0.5,18.54,1.99,27.72c0.36,21.99,0.27,44,0.1801,66.01c0.0399,5.5601-0.91,11.11-2.26,16.5
		c-0.64,2.0701-3.03,1.9-4.74,2.3201c-5.11-8.0801-7.26-17.51-10-26.54c-9.78-33.5-17.2001-67.63-26.79-101.1901
		c-1.96-6.48-3.74-13.2899-8.2-18.58c-6.3501-8.98-15.7001-14.98-23.77-22.21c-7.0801-5.8401-17.12-7.67-22.72-15.3101
		c-3.25-4.35-1.4901-10.15,0.2699-14.73C1055.71,1600.3,1059.37,1592.39,1064.15,1585.16z"/>
	<path stroke="#000000" stroke-width="0.594" d="M1403.58,1760.4301c5.5-9.2301,11.3101-18.28,16.6801-27.5901
		c0.76,0.3101,2.29,0.9401,3.0599,1.25c0.26,1.3,0.55,2.62,0.88,3.9601c0.28,1.3099,0.5701,2.6399,0.91,3.99
		c2.15,10.6499,6,21.09,6.2001,32.0399c0.2799,4.02-2.91,7.0601-3.52,10.88c-2.15,9.89-0.49,20.0901-2.1901,30.04
		c-0.3099,11.97-0.8099,24.04,0.8,35.9399c0.1899,6.0801,0.13,12.1801,1.0599,18.2201c1.51,22.3099,3.4401,44.9399,10.91,66.1899
		c4.42,13.51,11.73,25.86,20.16,37.23c15.5,20.8201,37.12,36.29,60.22,47.6801c25.09,11.86,53.25,13.73,80.4399,16.51
		c11.0701,0.73,18.8,9.9199,24.4601,18.54c3.6699,5.26,4.4,12.6899,0.65,18.1299c-7.2101,11.1501-16.6001,20.72-23.8601,31.8401
		c-3.6699,6.21-6.3799,12.9199-9.3199,19.49c-2.87,6.98-6.52,14.6299-3.55,22.23H1055.39c-0.74-3.0901-1.6901-6.1001-2.8201-9.04
		c3.27-4.03,5.64-8.6599,7.75-13.3699c6.53-14.78,13.87-29.4202,17.04-45.3801c3.61-17.4199,6.2001-35.0299,9.78-52.45
		c1.67-6.6801,3.5699-14.02,9.22-18.5c7.13-5.8101,17.42-4.65,24.6801-10.2c5.49-4.4801,8.37-11.1901,11.34-17.4301
		c4.25-9.3199,7.52-19.04,10.47-28.83c2.63-9.04,5.3101-18.29,4.78-27.8c0.55-10.74-3.02-21.3101-1.47-32.03
		c0.9199-8.58,5.0399-16.62,11.11-22.6899c13.88-14.38,31.83-23.97,46.2-37.8c5.4501-5.3199,9.16-12.1699,11.65-19.2999
		c0.95-2.51,1.9-4.9901,2.8199-7.4801c0.92,0.27,1.8601,0.5701,2.8101,0.8501c5.72-0.41,10.45-3.77,15.5699-5.9301
		c2.9901-0.2,5.8401,1.3199,8.75,1.96c1.5801,1.75,3.14,3.5801,4.76,5.3301c7.4401-1.5,13.28,4.38,18.2301,9.0299
		c2.61,2.8201,6.5,3.4901,10.1799,3.5901c0.75,0.72,1.5,1.48,2.24,2.28c-0.04,2.0499-0.29,4.2,0.47,6.1899
		c1.6801,3.15,5.12,4.88,7.01,7.89c-0.14,0.88-0.3099,1.77-0.51,2.6899c1.49,5.6001,7.0701,8.52,9.2101,13.76
		c0.48,1.03,0.96,2.1,1.4399,3.2001c-0.89,0.9399-1.76,1.8999-2.62,2.89c2.4,2.0499,4.9401,3.9399,7.6801,5.5199
		c3.0499,6.1901,8.36,10.74,12.9,15.8c0.1299,2.72-0.04,5.58,0.95,8.21c1.05,2.29,2.83,4.15,4.4399,6.0901
		c-0.2799,0.5499-0.5499,1.11-0.7899,1.7c1.9399,2.01,3.9299,3.99,5.7999,6.1c2.14,6.15,3.8101,12.47,6.41,18.4601
		c2.36,6.61,3.92,13.5099,6.64,20.0099c-0.8101-7.25-3.05-14.22-4.48-21.33c-0.41-2.3-0.9301-4.5599-1.5901-6.76
		c0.6001-1.08,1.2201-2.12,1.8601-3.14c0.2899-0.47,0.87-1.4099,1.1599-1.87c-0.0299-1.58-0.2-3.1599,0.03-4.6899
		c1.41-3.0601,3.8101-5.5,5.36-8.47c0.9601-2.8601,0.48-5.89,0.09-8.78c1.4501,0.13,2.89,0.26,4.3701,0.4299
		c-1.3501-1.1-2.7101-2.1899-4.04-3.24c1.23-2.1899,2.34-4.4399,3.4399-6.6799c0.8401,0.83,1.7001,1.6699,2.5701,2.5399
		c1.33-1.98,2.65-3.9399,3.99-5.8999c-1.34-0.64-2.6801-1.2301-4.01-1.78c0.6-1.24,1.21-2.4501,1.8199-3.65
		c1.74-0.62,3.5801-1.11,5.13-2.16c0.16-2.24-0.21-4.45-0.47-6.64c0.6,0.52,1.8101,1.5601,2.42,2.0901
		c1.36-1.8501,2.76-3.66,4.1599-5.4701c-1.34-0.7799-2.6699-1.5499-3.97-2.2899c1.4301-2.7001,2.79-5.4301,4.0701-8.1901
		c1.25-0.01,2.51,0.01,3.7899,0.04c0.87-1.28,1.73-2.55,2.6001-3.8101c-0.7401-1.96-1.4-3.9399-1.6101-5.99l0.38-0.7699
		c0.8101,0.85,1.63,1.71,2.4701,2.6c1.4199-1.87,2.86-3.73,4.3099-5.5701c-1.37-0.7999-2.72-1.5699-4.04-2.3099
		c0.5801-1.16,1.17-2.29,1.79-3.4c0.74-0.98,1.54-1.89,2.34-2.79c0.4,0.51,1.2101,1.55,1.6101,2.0701
		c0.73-0.74,1.45-1.48,2.1799-2.2201c-0.84-0.8999-1.66-1.7799-2.46-2.6299c2.89-1.8,5.47-4.04,7.7999-6.52
		c-1.4299-0.86-2.85-1.6901-4.24-2.51c5.1-8.9601,8.4301-18.79,13.6801-27.66C1396,1775.46,1399.33,1767.7,1403.58,1760.4301z"/>
	<path stroke="#000000" stroke-width="0.594" d="M1011.3,1827.35c0.87-1.84,2.3-3.3199,3.54-4.9
		c4.3199-0.1,8.66-0.1699,12.9799,0.25c1.14,0.8601,2.03,2.38,3.53,2.6801c8.73,0.76,17.41,2.13,25.9501,4.09
		c4.99,1.3201,10.7,3.01,13.35,7.89c5.75,9.79,4.9299,23.73-3.4501,31.8201c-6.87,6.99-14.74,13.2999-23.8199,17.1399
		c-4.25,1.4301-9.4,3.7401-13.58,0.9701c-4.02-2.66-5.7001-7.48-7.52-11.7001c-2.7401-6.9099-4.2401-14.22-6.13-21.38
		c-1.9-7.1-2.36-14.47-4.17-21.5699C1011.59,1830.9,1010.98,1829.12,1011.3,1827.35z"/>
	<path stroke="#000000" stroke-width="0.594" d="M1828.63,1980.77c5.01-2.59,10.95-3.99,16.47-2.1901
		c14.62,3.8501,28.3101,10.4601,42.3101,16.05c21.5299,8.96,43.71,16.17,65.58,24.23c8.96,3.65,18.29,6.29,27.3101,9.8
		c8.62,3.36,17.4399,6.2,26.22,9.14c20.87,7.13,41.79,14.25,63.29,19.3201c10.04,2.3999,20.71,1.73,30.4399-1.7402
		c14.6101-4.5098,27.5-14.5798,35.0801-27.8999c5.03-9.4,7.0498-20,9-30.37c1.2-4.87,2.1499-9.7999,2.6699-14.77V2147h-360.3
		c-0.1399-5.46-0.25-10.98,1.26-16.27c1.14-6.24,1.5-12.98-0.89-18.97c-1.21-2.98-0.0499-6.1399,0.51-9.1001
		c3.2101-14.3499,5.4701-28.95,6.01-43.6599c-0.08-6.1201-0.4099-13-4.9299-17.64c-7.98-8.72-19.86-12-29.2001-18.8199
		c-3.01-2.03-4.1799-6.2201-2.5299-9.4501c2.4199-3.7999,6.7899-5.61,10.7999-7.24c13.6901-5.1,28.22-7.47,41.9501-12.4299
		C1816.84,1990.55,1821.99,1984.5,1828.63,1980.77z"/>
	<path fill="#211712" stroke="#211712" stroke-width="0.594" d="M1494.1801,1322.04c0.2699-1.5801,1.73-2.1801,3-2.8301
		c1.0699,3.14,1.86,6.4,1.8099,9.75c-0.13,9.05,0.35,18.0901,0.2,27.14c-0.8199-4.6699-0.6-9.4199-1.1799-14.1
		c-0.86-6.23-0.1-12.52-0.78-18.75c-3.14,5.39-4.66,12.1801-10.21,15.77c-5.78,3.37-12.3201,5.12-18.55,7.4299
		c-42.64,14.17-86.27,25.3501-130.45,33.54c-24.36,4.78-48.84,9.05-73.53,11.71c-9.83,0.66-19.61,2.14-29.49,1.88
		c-15.05,0.4601-30.0601-1.6799-44.76-4.75c-18.05-3.7799-35.11-11.0699-51.46-19.4299c-0.79-0.39-1.5601-0.76-2.3201-1.1
		c-0.21-1.2101-0.39-2.39-0.5599-3.5601c5.36,2.76,10.73,5.53,16.2,8.09c18.05,8.61,37.53,14.2101,57.4,16.51
		c12.08,2.04,24.38,1.12,36.5699,1.17c35.87-2.42,71.3-9.09,106.5-16.22c23.13-4.42,46.02-10.03,68.7101-16.3201
		c18.9-5.35,37.78-10.87,56.24-17.62c3.79-1.5399,8.04-2.7999,10.73-6.1C1491.1899,1330.72,1492.52,1326.24,1494.1801,1322.04z"/>
	<path fill="#260403" stroke="#260403" stroke-width="0.594" d="M1138.14,1384.77c-0.99-3.29-1.01-6.74-0.77-10.12
		c0.77,0.76,1.5601,1.5399,2.35,2.34c0.77,5.98,2.24,11.98,4.97,17.4c3.79,6.64,10.3101,11.01,15.8101,16.13
		c4.75,4.26,8.78,9.21,12.8101,14.14c5.23,6.27,9.6799,13.5599,10.99,21.74c0.75,7.14-0.2201,14.36,0.72,21.5
		c0.75,5.88,3.03,11.63,6.88,16.1799c4.51,5.8101,10.76,9.9501,15.2999,15.75c6.87,8.1901,10.51,18.4601,13.76,28.49
		c3.74,12.1801,6.12,24.89,5.78,37.6801c0.11,11.39-2.29,22.6-4.79,33.65c-1.5499,7.96-8.63,13.9399-8.6599,22.3199
		c-0.0601,5.47-0.3101,11.14,1.6499,16.36c0.14,0.3201,0.4301,0.9601,0.5701,1.28c0.5,2.15,0.86,4.34,1.22,6.54
		c-1.27-0.9601-2.53-1.9-3.72-2.91c-2.78-7.42-3.1-15.46-2.71-23.29c0.1799-4.95,3.13-9.11,5.2699-13.3899
		c3.7301-6.9301,4.9801-14.8,6.3-22.4601c1.34-8.3199,2.83-16.71,2.11-25.1699c-0.63-7.6901-1.77-15.38-3.97-22.79
		c-3.15-11.53-7.23-23.04-14.01-32.98c-0.87-1.2101-1.8199-2.35-2.86-3.37c-4.41-4.24-8.33-8.9501-12.7001-13.23
		c-6.0499-5.77-8.0299-14.4801-8.5199-22.53c-0.64-7.67,1.0199-15.7001-1.88-23.05c-2.79-7.5599-8.0601-13.79-13.2101-19.83
		c-6.71-7.9501-15.23-14.0601-22.2999-21.65C1140.91,1395.39,1139.62,1389.89,1138.14,1384.77z"/>
	<path fill="#250404" stroke="#250404" stroke-width="0.594" d="M1472.78,1480.78c11.21-12.4401,22.26-25.0701,34.3099-36.7101
		c0.23,0.7401,0.7001,2.2101,0.9401,2.9401c-4.99,5.04-9.9301,10.11-14.65,15.39c-5.98,6.33-12.09,12.5499-17.4,19.46
		c-2.65,2.83-5.12,5.8201-7.4199,8.9301c-5.2001,5.46-9.54,11.64-14.3401,17.4299c-4.78,5.61-9.33,11.42-13.6599,17.39
		c-10.14,12.99-20.2401,26.97-23.6101,43.42c-2.71,11.5399-0.23,23.3199-0.4199,34.99c0.73,11.21-1.1901,22.35-0.87,33.5599
		c0.2,14.4701-0.5,28.9501,0.26,43.42c0.61,17.89,3.8099,35.58,7.3999,53.09c-0.7699-0.3099-2.2999-0.9399-3.0599-1.25
		c-3.5601-16.0699-6.4301-32.39-7.13-48.84c-1.84-25.66,0.6899-51.33,0.4399-76.99c-0.0499-11.34-1.96-22.7-0.4299-34.01
		c2.36-18.45,13.42-34.08,24.38-48.51C1449.14,1509.8101,1460.29,1494.75,1472.78,1480.78z"/>
	<path fill="#0B0304" stroke="#0B0304" stroke-width="0.594" d="M2117.1101,1541.0699c9.46-6.34,19.5-11.74,29.8899-16.4099v3.14
		c-5.8899,3.2999-12.3,5.6-17.95,9.33c-3.8201,2.5-8,4.47-11.49,7.42c-1.9399,1.21-1.51,4.38,0.6899,5.0699
		c10.04,5.6801,21.3601,9.98,28.75,19.34v5.52c-2.6101-3.24-4.95-6.74-8.21-9.35c-6.3-5.11-13.8801-8.1801-20.8901-12.12
		c-2.3298-1.37-4.8999-3.16-5.3499-6C2113.1101,1544.46,2115.0601,1542.53,2117.1101,1541.0699z"/>
	<path fill="#DC767B" stroke="#DC767B" stroke-width="0.594" d="M1219.22,1542.76c-0.5399-2.26,0.15-4.49,0.79-6.62
		c2.2,7.41,3.34,15.1,3.97,22.79c0.72,8.46-0.77,16.85-2.11,25.1699C1222.33,1570.29,1222.04,1556.33,1219.22,1542.76z"/>
	<path fill="#DC767B" stroke="#DC767B" stroke-width="0.594" d="M1416.53,1604.02c0.1899-11.67-2.29-23.4501,0.4199-34.99
		c-0.63,13.99,0.54,27.98-0.0599,41.97c-0.24,7.0699,1.9,14.01,1.47,21.09c0,2.16-1.5499,3.8101-2.7,5.49
		C1415.34,1626.37,1417.26,1615.23,1416.53,1604.02z"/>
	<path fill="#92388B" stroke="#92388B" stroke-width="0.594" d="M1214.9399,1638.33c1.28,0.4801,2.5901,0.9601,3.92,1.42
		c-0.92,7.75,0.5,15.46,0.86,23.2c0.27,7.6801,0.35,15.39,1.24,23.04c0.9301,8.3201,0.36,16.7,0.87,25.04
		c1.49,15.27,0.78,30.64,1.0701,45.97c0.34,15.52-1.49,30.96-1.63,46.47c5.63,0.47,10-3.27,14.9-5.23
		c3.9299-0.1,7.36,2.22,10.7999,3.84c-0.48-0.13-1.4299-0.38-1.9-0.5c-2.9099-0.64-5.7599-2.1599-8.75-1.96
		c-5.12,2.16-9.85,5.52-15.5699,5.9301c-1.59-5.76,0.0601-11.67,0.1-17.5c0.2101-11.37,1.91-22.66,1.49-34.04
		c0.37-12.03-0.9399-24-1.22-36c-0.78-24.38-2.33-48.71-3.53-73.0601c-0.1699-1.97-1.23-3.6499-2.08-5.34
		C1215.37,1639.29,1215.08,1638.65,1214.9399,1638.33z"/>
	<path fill="#330017" stroke="#330017" stroke-width="0.594" d="M1215.51,1639.61c0.85,1.6901,1.91,3.37,2.08,5.34
		c1.2001,24.3501,2.75,48.6801,3.53,73.0601c0.28,12,1.59,23.97,1.22,36c0.42,11.38-1.2799,22.67-1.49,34.04
		c-0.0399,5.83-1.6899,11.74-0.1,17.5c-0.95-0.28-1.89-0.5801-2.8101-0.8501c-0.9199,2.49-1.87,4.9701-2.8199,7.4801
		c0.78-4.28,1.49-8.5601,2.3199-12.8201c1.4901-7.9,0.3501-15.97,1.27-23.91c1.29-9.4299,0.5701-18.97,0.76-28.45
		c0.47-16.04-1.9-31.97-1.75-48c0.1801-8.04-1.4099-15.98-1.1899-24c0.21-7.05-1.1901-14-1.16-21.03
		c0.0601-3.73-1.01-7.3099-2.36-10.73c1.1899,1.01,2.45,1.95,3.72,2.91C1216.37,1643.95,1216.01,1641.76,1215.51,1639.61z"/>
	<path fill="#EF55E9" stroke="#EF55E9" stroke-width="0.594" d="M1218.86,1639.75c2.08,0.67,4.1901,1.3101,6.25,2.12
		c0.79,4.53,3.63,8.23,6.02,12.04c11.62,19.09,22.76,38.51,32.23,58.7799c9.21,18.6001,14.98,38.7001,18.77,59.05
		c3.6801,19.6801,7.59,39.49,15.21,58.1c6.7201,17.3,16.2001,33.29,24.0901,50.0601c-0.79,1.11-1.5701,2.26-2.3301,3.4299
		c-0.97-1.26-2-2.45-3.0399-3.58c-4.54-5.0601-9.8501-9.61-12.9-15.8c-6.5601-14.49-11.99-30.0499-22.6801-42.1399
		c-0.74-0.8-1.49-1.5601-2.24-2.28c-8.74-8.38-20.14-13.16-31.27-17.4501c-3.4399-1.62-6.87-3.9399-10.7999-3.84
		c-4.9,1.96-9.27,5.7-14.9,5.23c0.14-15.51,1.97-30.95,1.63-46.47c-0.29-15.33,0.4199-30.7-1.0701-45.97
		c-0.51-8.3401,0.0601-16.72-0.87-25.04c-0.89-7.65-0.97-15.36-1.24-23.04C1219.36,1655.21,1217.9399,1647.5,1218.86,1639.75z"/>
	<path fill="#2B0922" stroke="#2B0922" stroke-width="0.594" d="M1225.11,1641.87c3.38,1.17,4.8101,4.63,6.58,7.45
		c11.4401,18.8501,22.4901,37.9801,32.17,57.8101c7.23,14.72,13.15,30.11,17.02,46.0699c5.38,21.27,7.64,43.3,14.84,64.12
		c5.73,17.79,14.51,34.3501,23.13,50.87c6.79,13.0701,11.98,26.88,16.4501,40.9c-0.64,1.02-1.26,2.0601-1.8601,3.14
		c-3.6-10.9199-6.9099-22-12.0099-32.33c-7.89-16.77-17.37-32.76-24.0901-50.0601c-7.62-18.61-11.5299-38.4199-15.21-58.1
		c-3.79-20.35-9.5601-40.45-18.77-59.05c-9.47-20.2699-20.61-39.6899-32.23-58.7799C1228.74,1650.1,1225.9,1646.4,1225.11,1641.87z"
		/>
	<path fill="#082726" stroke="#082726" stroke-width="0.594" d="M139.36,1686.96c3.34-9.98,7.56-19.6499,12.2-29.09
		c0.15,0.5601,0.45,1.6801,0.6,2.24c1.07,0.3101,2.12,0.65,3.18,1.03c-1.64,2.21-3.53,4.38-6.18,5.37
		c-1.68,2.9299-3.33,5.91-4.55,9.09c-1.07,2.52-0.32,5.29-0.43,7.9501C142.91,1685.08,141.01,1685.89,139.36,1686.96z"/>
	<path fill="#052725" stroke="#052725" stroke-width="0.594" d="M128.11,1718.67c1.84-6.7001,4.09-13.27,6.65-19.7201
		c-0.08,2.6801,0.14,5.38,0.46,8.0601c-0.66,0.63-1.32,1.26-1.97,1.9299c0.56,0.7101,1.12,1.4301,1.69,2.1801
		c-1.26,0.9-2.53,1.8199-3.79,2.75c0.61,0.74,1.23,1.49,1.85,2.27C131.37,1716.98,129.75,1717.8199,128.11,1718.67z"/>
	<path fill="#072929" stroke="#072929" stroke-width="0.594" d="M119.49,1746.92c1.31-5.49,3-10.86,4.82-16.1901
		c0.13,3.02,0.44,6.0601,0.75,9.0801C123,1742.02,121.07,1744.34,119.49,1746.92z"/>
	<path fill="#0A0505" stroke="#0A0505" stroke-width="0.594" d="M2121.48,1813.45c8.2-12.84,17.5-24.95,25.52-37.9199v6.3099
		c-5.4299,7.0601-10.1399,14.63-15.29,21.88c-3.5701,5.4301-8.01,10.48-9.8599,16.8401c5.8599,2.6599,12.51,1.08,18.45,3.25
		c2.9099,0.87,2.75,4.6599,1.1599,6.6799c-4.04,5.84-9.5898,10.41-14.6099,15.36c-6.5,5.8301-12.03,12.62-18.3501,18.62
		c-10.3401,9.66-21.03,19.0701-30.02,30.05c-2.9199,3.49-5.98,8.59-3.23,13.04c4.6699,5.6399,12.1599,7.5099,18.5701,10.49
		c8.3398,3.25,15.53,8.74,23.6699,12.4099c7.27,3.48,14.9299,6.62,21.05,12.03c3.75,3.25,6.4299,7.54,8.46,12.04v14.03
		c-0.55-2.91-1.27-5.75-1.98-8.5901c-1.1001-4.6599-2.8601-9.2999-6.1799-12.8199c-5.8401-6.3201-13.9302-9.73-21.5-13.4301
		c-9.3401-4.12-17.52-10.46-27.1802-13.9c-7.3198-3.37-17.1299-6.0699-19.4199-14.8899c-0.1899-4.5,2.5601-8.62,5.0901-12.16
		c11.6399-14.29,26.4299-25.54,38.8499-39.09c5.8-6.2101,12.0701-11.9401,18.1501-17.8501c2.6199-2.6,5.3699-5.2999,6.6699-8.84
		c-5.9399-2.98-13.6699,0.05-19.1799-4.3199C2117.28,1820,2120.04,1816.2,2121.48,1813.45z"/>
	<path fill="#13423F" stroke="#13423F" stroke-width="0.594" d="M107.57,1802.09c0.45-5.1699,1.29-10.2999,2.6-15.3099
		c1.28,1.4,2.7,2.7,3.99,4.13c-1.22,0.6-2.44,1.24-3.65,1.88C109.72,1795.9399,108.68,1799.02,107.57,1802.09z"/>
	<path fill="#2B0629" stroke="#2B0629" stroke-width="0.594" d="M1245.0699,1801.58c0.4701,0.12,1.42,0.37,1.9,0.5
		c11.13,4.29,22.53,9.0701,31.27,17.4501c-3.6799-0.1-7.5699-0.77-10.1799-3.5901c-4.9501-4.6499-10.79-10.5299-18.2301-9.0299
		C1248.21,1805.16,1246.65,1803.33,1245.0699,1801.58z"/>
	<path fill="#241E1A" stroke="#241E1A" stroke-width="0.594" d="M1371.11,1825.13c2.28-4.9301,4.64-9.8199,7.23-14.6
		c1.39,0.8199,2.8101,1.65,4.24,2.51c-2.33,2.48-4.9099,4.72-7.7999,6.52c0.7999,0.85,1.62,1.73,2.46,2.6299
		c-0.73,0.7401-1.45,1.4801-2.1799,2.2201c-0.4-0.52-1.2101-1.5601-1.6101-2.0701C1372.65,1823.24,1371.85,1824.15,1371.11,1825.13z
		"/>
	<path fill="#2C062E" stroke="#2C062E" stroke-width="0.594" d="M1280.95,1828c-0.76-1.99-0.51-4.14-0.47-6.1899
		c10.6901,12.09,16.12,27.6499,22.6801,42.1399c-2.74-1.58-5.28-3.47-7.6801-5.5199c0.86-0.9901,1.73-1.9501,2.62-2.89
		c-0.48-1.1001-0.96-2.17-1.4399-3.2001c-2.14-5.24-7.7201-8.1599-9.2101-13.76c0.2001-0.9199,0.37-1.8099,0.51-2.6899
		C1286.0699,1832.88,1282.63,1831.15,1280.95,1828z"/>
	<path fill="#211C17" stroke="#211C17" stroke-width="0.594" d="M1366.58,1833.8101c0.87-1.79,1.8-3.54,2.74-5.28
		c1.3201,0.74,2.67,1.51,4.04,2.3099c-1.45,1.8401-2.89,3.7001-4.3099,5.5701C1368.21,1835.52,1367.39,1834.66,1366.58,1833.8101z"
		/>
	<path fill="#322D28" stroke="#322D28" stroke-width="0.594" d="M1361.42,1844.34c1.47-3.3199,3.14-6.5399,4.7799-9.76
		c0.2101,2.05,0.87,4.03,1.6101,5.99c-0.8701,1.26-1.7301,2.53-2.6001,3.8101C1363.9301,1844.35,1362.67,1844.33,1361.42,1844.34z"
		/>
	<path fill="#231E1A" stroke="#231E1A" stroke-width="0.594" d="M1350.08,1867c2.3-4.89,4.6901-9.73,7.27-14.47
		c1.3,0.74,2.63,1.51,3.97,2.2899c-1.3999,1.8101-2.7999,3.62-4.1599,5.4701c-0.61-0.53-1.8201-1.5701-2.42-2.0901
		c0.26,2.1901,0.63,4.4,0.47,6.64C1353.66,1865.89,1351.8199,1866.38,1350.08,1867z"/>
	<path fill="#2A241E" stroke="#2A241E" stroke-width="0.594" d="M1345.71,1875.79c0.8201-1.74,1.67-3.4501,2.55-5.14
		c1.33,0.5499,2.67,1.14,4.01,1.78c-1.34,1.96-2.66,3.9199-3.99,5.8999C1347.41,1877.46,1346.55,1876.62,1345.71,1875.79z"/>
	<path fill="#2D082D" stroke="#2D082D" stroke-width="0.594" d="M1316.0601,1879.75c1.0399,1.13,2.0699,2.3199,3.0399,3.58
		c3.47,5.7101,5.42,12.17,7.36,18.52c-1.87-2.11-3.86-4.09-5.7999-6.1c0.24-0.59,0.51-1.15,0.7899-1.7
		c-1.61-1.9401-3.3899-3.8-4.4399-6.0901C1316.02,1885.33,1316.1899,1882.47,1316.0601,1879.75z"/>
	<path fill="#D268CD" stroke="#D268CD" stroke-width="0.594" d="M1321.4301,1879.9c5.1,10.33,8.4099,21.41,12.0099,32.33
		c0.66,2.2001,1.1801,4.46,1.5901,6.76c-0.63-0.12-1.9-0.35-2.53-0.47c0.09,0.45,0.28,1.34,0.37,1.79
		c-2.6-5.9901-4.27-12.3101-6.41-18.4601c-1.9399-6.35-3.89-12.8099-7.36-18.52C1319.86,1882.16,1320.64,1881.01,1321.4301,1879.9z"
		/>
	<path fill="#423C38" stroke="#423C38" stroke-width="0.594" d="M1339.49,1888.05c0.65-2,1.77-3.78,2.78-5.5801
		c1.33,1.05,2.6899,2.14,4.04,3.24c-1.4801-0.1699-2.92-0.2999-4.3701-0.4299c0.39,2.89,0.8701,5.9199-0.09,8.78
		C1341.03,1892.0601,1339.9,1890.16,1339.49,1888.05z"/>
	<path fill="#6C151D" stroke="#6C151D" stroke-width="0.594" d="M2145.02,1959.97c0.71,2.8401,1.4299,5.6801,1.98,8.5901v13.7799
		c-0.52,4.9701-1.47,9.9-2.6699,14.77C2145.51,1984.76,2145.6201,1972.34,2145.02,1959.97z"/>
</g>
</svg>
