<?xml version="1.0" encoding="UTF-8" standalone="no"?>
<!-- Created with Inkscape (http://www.inkscape.org/) -->

<svg
   xmlns:dc="http://purl.org/dc/elements/1.1/"
   xmlns:cc="http://creativecommons.org/ns#"
   xmlns:rdf="http://www.w3.org/1999/02/22-rdf-syntax-ns#"
   xmlns:svg="http://www.w3.org/2000/svg"
   xmlns="http://www.w3.org/2000/svg"
   xmlns:xlink="http://www.w3.org/1999/xlink"
   xmlns:sodipodi="http://sodipodi.sourceforge.net/DTD/sodipodi-0.dtd"
   xmlns:inkscape="http://www.inkscape.org/namespaces/inkscape"
   width="605.80725"
   height="800"
   id="svg4087"
   version="1.1"
   inkscape:version="0.48.4 r9939"
   sodipodi:docname="Seaside woman Color by Rones.svg">
  <defs
     id="defs4089">
    <radialGradient
       inkscape:collect="always"
       xlink:href="#linearGradient4009"
       id="radialGradient4019"
       cx="1427.528"
       cy="198.36842"
       fx="1427.528"
       fy="198.36842"
       r="213.68172"
       gradientTransform="matrix(-0.8202063,0.13939029,-0.09586791,-0.56411001,1682.7357,151.84185)"
       gradientUnits="userSpaceOnUse" />
    <linearGradient
       id="linearGradient4009">
      <stop
         style="stop-color:#fadbcf;stop-opacity:1"
         offset="0"
         id="stop4011" />
      <stop
         id="stop4017"
         offset="0.64270943"
         style="stop-color:#f5cdbf;stop-opacity:1" />
      <stop
         style="stop-color:#f2bca8;stop-opacity:1"
         offset="1"
         id="stop4013" />
    </linearGradient>
    <filter
       id="filter3854"
       inkscape:collect="always"
       color-interpolation-filters="sRGB">
      <feGaussianBlur
         id="feGaussianBlur3856"
         stdDeviation="0.12506152"
         inkscape:collect="always" />
    </filter>
    <filter
       id="filter3850"
       inkscape:collect="always"
       color-interpolation-filters="sRGB">
      <feGaussianBlur
         id="feGaussianBlur3852"
         stdDeviation="0.12506152"
         inkscape:collect="always" />
    </filter>
    <filter
       height="1.3893031"
       y="-0.19465157"
       width="1.3893031"
       x="-0.19465157"
       id="filter3846"
       inkscape:collect="always"
       color-interpolation-filters="sRGB">
      <feGaussianBlur
         id="feGaussianBlur3848"
         stdDeviation="4.2000711"
         inkscape:collect="always" />
    </filter>
    <filter
       height="1.5215137"
       y="-0.26075685"
       width="1.5215137"
       x="-0.26075685"
       id="filter3842"
       inkscape:collect="always"
       color-interpolation-filters="sRGB">
      <feGaussianBlur
         id="feGaussianBlur3844"
         stdDeviation="5.6264496"
         inkscape:collect="always" />
    </filter>
    <filter
       height="1.3812275"
       y="-0.19061375"
       width="1.3812275"
       x="-0.19061375"
       id="filter3838"
       inkscape:collect="always"
       color-interpolation-filters="sRGB">
      <feGaussianBlur
         id="feGaussianBlur3840"
         stdDeviation="4.1129451"
         inkscape:collect="always" />
    </filter>
    <filter
       height="1.5547463"
       y="-0.27737314"
       width="1.5547463"
       x="-0.27737314"
       id="filter3834"
       inkscape:collect="always"
       color-interpolation-filters="sRGB">
      <feGaussianBlur
         id="feGaussianBlur3836"
         stdDeviation="5.9849858"
         inkscape:collect="always" />
    </filter>
    <filter
       height="1.2263016"
       y="-0.1131508"
       width="1.2263016"
       x="-0.1131508"
       id="filter3814"
       inkscape:collect="always"
       color-interpolation-filters="sRGB">
      <feGaussianBlur
         id="feGaussianBlur3816"
         stdDeviation="2.441498"
         inkscape:collect="always" />
    </filter>
    <filter
       height="1.2268773"
       y="-0.11343867"
       width="1.2268773"
       x="-0.11343867"
       id="filter3810"
       inkscape:collect="always"
       color-interpolation-filters="sRGB">
      <feGaussianBlur
         id="feGaussianBlur3812"
         stdDeviation="2.4477093"
         inkscape:collect="always" />
    </filter>
    <filter
       id="filter3806"
       inkscape:collect="always"
       color-interpolation-filters="sRGB">
      <feGaussianBlur
         id="feGaussianBlur3808"
         stdDeviation="1.0369085"
         inkscape:collect="always" />
    </filter>
    <filter
       id="filter3802"
       inkscape:collect="always"
       color-interpolation-filters="sRGB">
      <feGaussianBlur
         id="feGaussianBlur3804"
         stdDeviation="1.0193943"
         inkscape:collect="always" />
    </filter>
    <radialGradient
       inkscape:collect="always"
       xlink:href="#linearGradient4009"
       id="radialGradient4009"
       gradientUnits="userSpaceOnUse"
       gradientTransform="matrix(-0.8202063,0.13939029,-0.09586791,-0.56411001,1682.7357,151.84185)"
       cx="1427.528"
       cy="198.36842"
       fx="1427.528"
       fy="198.36842"
       r="213.68172" />
  </defs>
  <sodipodi:namedview
     id="base"
     pagecolor="#ffffff"
     bordercolor="#666666"
     borderopacity="1.0"
     inkscape:pageopacity="0.0"
     inkscape:pageshadow="2"
     inkscape:zoom="0.24748737"
     inkscape:cx="103.50498"
     inkscape:cy="544.49695"
     inkscape:document-units="px"
     inkscape:current-layer="layer1"
     showgrid="false"
     fit-margin-top="0"
     fit-margin-left="0"
     fit-margin-right="0"
     fit-margin-bottom="0"
     inkscape:window-width="1920"
     inkscape:window-height="1018"
     inkscape:window-x="-8"
     inkscape:window-y="-8"
     inkscape:window-maximized="1" />
  <metadata
     id="metadata4092">
    <rdf:RDF>
      <cc:Work
         rdf:about="">
        <dc:format>image/svg+xml</dc:format>
        <dc:type
           rdf:resource="http://purl.org/dc/dcmitype/StillImage" />
        <dc:title />
      </cc:Work>
    </rdf:RDF>
  </metadata>
  <g
     inkscape:label="Layer 1"
     inkscape:groupmode="layer"
     id="layer1"
     transform="translate(83.311462,-337.58631)">
    <g
       id="g3956"
       transform="matrix(0.66091219,0,0,0.66091219,-28.249901,385.74165)">
      <rect
         y="-72.861938"
         x="-83.311462"
         height="1210.4482"
         width="916.62292"
         id="rect3942"
         style="color:#000000;fill:#799cc1;fill-opacity:1;stroke:none;stroke-width:0.30000001;marker:none;visibility:visible;display:inline;overflow:visible;enable-background:accumulate" />
      <path
         id="path3064"
         d="m 524.27777,745.11517 -347.2812,241.46879 -35.9063,151.00004 598.5313,0 -120.4376,-275.59383 c -14.3412,-32.81317 -49.6983,-52.36327 -68.1874,-83.03125 -6.7485,-11.19356 -24.9571,-20.89257 -26.7188,-33.84375 z"
         style="fill:#f2bca8;fill-opacity:1;stroke:none"
         inkscape:connector-curvature="0" />
      <path
         id="path3066"
         d="m 274.99657,870.42767 c -18.1639,4.94914 -62.6867,17.40098 -98,27.25 -13.8056,16.49916 -27.6009,33.00089 -41.4063,49.49999 -14.1421,15.1523 -32.5778,27.2375 -42.437502,45.4688 -8.6704,16.03194 -9.5518,35.37024 -11.0938,53.53124 -1.5107,17.7947 4.2364,35.813 2,53.5313 -1.6466,13.0464 -6.4593,25.4209 -10.9062,37.875 l 88.468802,0 c 5.9485,-22.6949 11.5592,-45.4935 20.4374,-67.1563 4.929,-12.0266 17.8404,-19.48 23.2188,-31.3125 6.6239,-14.5726 5.6392,-31.8342 12.125,-46.46874 6.8119,-15.3705 20.1165,-27.2283 27.2812,-42.4375 12.1259,-25.74104 20.211,-53.18061 30.3126,-79.78129 z"
         style="fill:#1b2a3a;fill-opacity:1;stroke:none"
         inkscape:connector-curvature="0" />
      <path
         style="fill:#2c2016;fill-opacity:1;stroke:none"
         d="m 513.45527,761.42378 c 99.8361,70.90467 147.5071,-35.05919 127.8571,-118.57143 51.9661,-48.24098 47.719,-110.79443 11.4286,-158.57143 16.8839,-32.51567 15.2296,-44.55502 15.7143,-80 12.2087,-20.70274 9.8978,-39.12999 11.4285,-62.85714 l -24.5631,-52.07977 -504.1519,45.67223 -29.8564,9.26468 C 89.492668,426.69302 17.026658,500.00502 17.026658,591.42378 -28.550909,668.39671 139.30247,890.21227 264.16957,832.85235"
         id="path3068"
         inkscape:connector-curvature="0"
         sodipodi:nodetypes="cccccccccc" />
      <path
         inkscape:connector-curvature="0"
         style="fill:#77838e;fill-opacity:1;stroke:none"
         d="m 274.98207,870.42767 c -18.1638,4.94914 -62.6554,17.40098 -97.9688,27.25 l -41.4375,49.49999 c -11.0048,11.7909 -24.5813,21.7418 -34.7187,34.1563 -4.544202,19.97174 -8.601702,45.46114 9.4687,15.3437 0,0 12.3295,-24.8618 21.2188,-35.3437 11.4331,-13.4817 26.0285,-24.0601 40.4062,-34.34379 14.9831,-10.71672 30.8993,-20.23168 47.4688,-28.28125 13.963,-6.78337 38.014,-15.56041 52.8125,-20.78125 0.9158,-2.5051 1.8036,-5.00787 2.75,-7.5 z"
         id="path3070" />
      <path
         inkscape:connector-curvature="0"
         style="fill:#f8d6c9;fill-opacity:1;stroke:none"
         d="m 545.70077,740.11517 -36.7187,24.53125 c 0.3329,14.95122 0.047,34.31602 -3.6875,40.125 -6.061,9.42809 -13.4047,18.1301 -18.1563,28.28125 -2.7717,5.92129 -1.6122,13.12617 -4.0625,19.1875 -4.0086,9.91614 -11.1511,18.3637 -15.1562,28.28125 -3.1193,7.72386 -2.5918,16.67755 -6.0625,24.25 -4.0468,8.82922 -12.9368,15.05547 -16.1563,24.21874 -5.6914,16.1986 -6.7266,33.6954 -10.0937,50.5313 l 199.4375,-81.25004 -15.8438,-36.28125 c -14.3412,-32.81317 -49.6983,-52.36327 -68.1875,-83.03125 -6.7484,-11.19356 -3.5508,-25.89257 -5.3125,-38.84375 z"
         id="path3072" />
      <path
         id="path3074"
         d="m 614.40277,841.11517 c -7.7445,3.03046 -15.2381,6.75462 -23.2188,9.09375 -11.6009,3.40029 -24.2045,3.47148 -35.375,8.09375 -8.7173,3.60715 -15.4205,10.84682 -23.2187,16.15625 -8.0283,5.46606 -17.4811,9.19113 -24.25,16.15625 -16.6764,17.15981 -27.5331,39.72329 -45.4687,55.56249 -8.7174,7.6985 -22.5443,6.8131 -32.3126,13.125 -12.4246,8.0282 -22.6287,19.114 -33.3437,29.3125 -17.2463,16.41524 -37.1351,30.79544 -50.5,50.50004 -13.3769,19.7224 -14.9425,45.9081 -28.2813,65.6562 -8.4777,12.5515 -19.8604,22.7146 -31.3124,32.8126 l 546.1874,0 0,-88.3125 c -16.5556,-10.8878 -34.2263,-20.4451 -48.1874,-34.4063 -17.3826,-17.38264 -28.0808,-40.39794 -43.4376,-59.59374 -8.9291,-11.1615 -17.7939,-22.8066 -29.2812,-31.31254 -15.5911,-11.54467 -34.3586,-20.58261 -51.5312,-22.21875 -26.8348,-33.47276 -29.6615,-42.39888 -46.4688,-60.625 z"
         style="fill:#77838e;fill-opacity:1;stroke:none"
         inkscape:connector-curvature="0" />
      <path
         id="path3076"
         d="m 480.05897,1042.1465 -24.1874,30.9687 -48.125,64.4688 208.0937,0 c -17.7261,-44.9757 -60.0475,-67.0805 -105.4687,-81.3125 -13.6587,-9.7563 -23.8868,9.2221 -38.4063,20.2187 8.1737,-16.1 8.0937,-34.3437 8.0937,-34.3437 z"
         style="fill:#1b2a3a;fill-opacity:1;stroke:none"
         inkscape:connector-curvature="0" />
      <path
         id="path3078"
         d="m 440.59027,955.05266 c -3.5436,1.0455 -6.9977,2.2898 -10.0313,4.25 -12.4246,8.0282 -22.5976,19.114 -33.3124,29.3125 -17.2464,16.41524 -37.1664,30.79544 -50.5313,50.50004 -13.3769,19.7224 -14.9425,45.9082 -28.2813,65.6562 -8.4721,12.5433 -19.8421,22.7175 -31.2812,32.8126 l 15.5312,0 c 34.9129,-33.5142 60.2435,-73.4332 87.9376,-113.3125 8.7544,-13.5752 8.7121,-12.6124 22.8437,-18.5625 l 27.125,-50.65634 z"
         style="fill:#1b2a3a;fill-opacity:1;stroke:none"
         inkscape:connector-curvature="0" />
      <path
         style="fill:#f2bca8;fill-opacity:1;stroke:none"
         d="m 253.45527,1093.5667 c -1.1905,-26.9048 -1.0441,-53.9021 -3.5715,-80.7143 -2.9546,-31.34464 -9.0112,-62.32374 -12.8571,-93.57148 -1.8696,-15.19029 -1.0859,-30.74759 -4.2857,-45.71428 -4.2197,-19.73737 -13.0138,-38.26349 -17.8572,-57.85714 -5.6474,-22.84647 -9.9929,-46.02526 -13.5714,-69.28572 -4.0461,-26.29979 -6.702,-52.80224 -9.2857,-79.28571 -2.1792,-22.33687 -2.9566,-44.79315 -5,-67.14286 -1.7668,-19.3238 -4.2857,-38.57143 -6.4286,-57.85714 l 347.8572,190 -16.4286,21.42857 -2.8571,12.85714"
         id="path3080"
         inkscape:connector-curvature="0"
         sodipodi:nodetypes="cssssssscccc" />
      <path
         style="fill:#de9e86;fill-opacity:1;stroke:none"
         d="m 269.16957,914.28092 c 17.0136,58.98084 9.8836,110.10048 1.4285,169.28578 27.2736,-70.3906 33.4339,-119.31374 -1.4285,-169.28578 z"
         id="path3082"
         inkscape:connector-curvature="0"
         sodipodi:nodetypes="ccc" />
      <path
         style="fill:#de9e86;fill-opacity:1;stroke:none"
         d="m 302.74097,1034.9953 c 25.4199,-21.9474 52.042,-32.6486 85,-37.14294 -29.5395,9.74454 -57.1737,23.47384 -85,37.14294 z"
         id="path3084"
         inkscape:connector-curvature="0"
         sodipodi:nodetypes="ccc" />
      <path
         style="fill:#de9e86;fill-opacity:1;stroke:none"
         d="m 266.31237,729.99521 c 2.1043,6.4681 3.2556,7.47844 5.9841,13.34638 30.2188,64.98884 102.7077,87.98501 155.8016,82.36791 53.0939,-5.6171 67.798,-26.48565 79.6429,-57.14286 3.8822,-10.77006 10.2381,-24.76191 13.5714,-35.71429 -85,-0.95238 -170,-1.90476 -255,-2.85714 z"
         id="path3086"
         inkscape:connector-curvature="0"
         sodipodi:nodetypes="cszccc" />
      <path
         sodipodi:nodetypes="ccccc"
         inkscape:connector-curvature="0"
         id="path3088"
         d="m 596.04567,664.62388 c 3.8868,6.01085 18.402,33.3857 11.8136,58.92419 5.8364,-0.30639 8.0778,-2.23945 13.1344,-2.94204 4.0654,-26.32113 -8.6285,-48.51925 -12.2426,-58.59182 -4.9256,0.0444 -8.1668,-0.0368 -12.7054,2.60967 z"
         style="fill:#443d35;fill-opacity:1;stroke:none" />
      <path
         sodipodi:type="arc"
         style="color:#000000;fill:#758075;fill-opacity:1;stroke:none;stroke-width:0.96874219;marker:none;visibility:visible;display:inline;overflow:visible;enable-background:accumulate"
         id="path3090"
         sodipodi:cx="614.42529"
         sodipodi:cy="636.17932"
         sodipodi:rx="15.404826"
         sodipodi:ry="21.718279"
         d="m 629.83012,636.17932 c 0,11.99468 -6.89698,21.71828 -15.40483,21.71828 -8.50785,0 -15.40482,-9.7236 -15.40482,-21.71828 0,-11.99467 6.89697,-21.71828 15.40482,-21.71828 8.50785,0 15.40483,9.72361 15.40483,21.71828 z"
         transform="matrix(1.0464071,-0.20119587,0.18881458,0.98201276,-155.47422,195.55311)" />
      <path
         inkscape:connector-curvature="0"
         style="color:#000000;fill:#5e544a;fill-opacity:1;stroke:none;stroke-width:1;marker:none;visibility:visible;display:inline;overflow:visible;enable-background:accumulate"
         d="m 601.26327,643.11517 c -3.9122,0 -7.0625,3.1815 -7.0625,7.09375 0,2.84929 1.6744,5.28791 4.0938,6.40625 -2.7344,1.50293 -4.5938,4.37825 -4.5938,7.71875 0,4.88155 3.9622,8.84375 8.8438,8.84375 4.8815,0 8.8437,-3.9622 8.8437,-8.84375 l -0.031,-0.0312 c -0.021,-3.86777 -2.5296,-7.13386 -6,-8.3125 1.8134,-1.27706 3,-3.39322 3,-5.78125 l 0,-0.0312 c -0.022,-3.897 -3.1967,-7.0625 -7.0938,-7.0625 z m 0,2.15625 c 2.7161,0 4.9226,2.19016 4.9375,4.90625 l 0,0.0312 c 0,2.72672 -2.2108,4.9375 -4.9375,4.9375 -2.7267,0 -4.9375,-2.21078 -4.9375,-4.9375 0,-2.72672 2.2108,-4.9375 4.9375,-4.9375 z"
         id="path3092" />
      <path
         style="fill:#5e544a;fill-opacity:1;stroke:none"
         d="m 608.84737,662.07178 c -1.831,6.91995 -1.3048,36.60562 12.8794,58.84138 -5.6437,1.51889 -8.8644,2.13012 -13.8896,3.03046 -12.0283,-23.76231 -13.9489,-49.4073 -13.637,-60.10407 4.6965,-1.48544 9.5115,-2.87607 14.6472,-1.76777 z"
         id="path3094"
         inkscape:connector-curvature="0"
         sodipodi:nodetypes="ccccc" />
      <path
         style="fill:#2f2a25;fill-opacity:1;stroke:none"
         d="m 164.38027,561.81414 c 3.6482,12.70646 2.9612,18.551 -11.7431,24.74874 20.1687,1.63531 19.7401,-12.04917 17.6075,-24.54851"
         id="path3098"
         inkscape:connector-curvature="0"
         sodipodi:nodetypes="ccc" />
      <path
         style="fill:#f2bca8;fill-opacity:1;stroke:none"
         d="m 184.07447,563.14182 c -5.8951,2.85955 -17.1575,6.06012 -24.745,4.73323 -7.0556,-1.23387 -14.1225,-5.08737 -18.6878,-10.6066 -7.1984,-8.70253 -10.2304,-20.13966 -15.1523,-30.30457 -2.8237,-5.83143 -6.2701,-11.45687 -8.0812,-17.67767 -2.0968,-7.20193 -2.5107,-14.79276 -3.5356,-22.22336 -2.3425,-16.98371 -6.0791,-33.8751 -6.566,-51.0127 -0.3606,-12.69342 1.2505,-25.4925 4.0407,-37.88072 1.4727,-6.53891 2.4951,-15.38549 8.5862,-18.18275 27.7659,-12.75105 31.4083,24.1892 45.962,31.81981 3.3107,1.73584 7.4078,1.01015 11.1117,1.51523"
         id="path3100"
         inkscape:connector-curvature="0"
         sodipodi:nodetypes="csssssssssc" />
      <path
         id="path3102"
         d="m 156.79897,580.79374 c -3.9122,0 -7.0625,3.1815 -7.0625,7.09375 0,2.84929 1.6745,5.28791 4.0938,6.40625 -2.7343,1.50293 -4.5938,4.37825 -4.5938,7.71875 0,4.88155 3.9622,8.84375 8.8438,8.84375 4.8815,0 8.8437,-3.9622 8.8437,-8.84375 l -0.031,-0.0312 c -0.021,-3.86777 -2.5295,-7.13386 -6,-8.3125 1.8134,-1.27706 3,-3.39322 3,-5.78125 l 0,-0.0312 c -0.021,-3.897 -3.1967,-7.0625 -7.0937,-7.0625 z m 0,2.15625 c 2.7162,0 4.9226,2.19016 4.9375,4.90625 l 0,0.0312 c 0,2.72672 -2.2108,4.9375 -4.9375,4.9375 -2.7267,0 -4.9375,-2.21078 -4.9375,-4.9375 0,-2.72672 2.2108,-4.9375 4.9375,-4.9375 z"
         style="color:#000000;fill:#5e544a;fill-opacity:1;stroke:none;stroke-width:1;marker:none;visibility:visible;display:inline;overflow:visible;enable-background:accumulate"
         inkscape:connector-curvature="0" />
      <path
         sodipodi:nodetypes="cccc"
         inkscape:connector-curvature="0"
         id="path3104"
         d="m 151.98447,557.44549 c -1.9151,2.56454 -8.3503,20.5261 7.8287,29.16815 -18.7847,3.34445 -18.969,-17.0101 -16.8499,-29.59927 0.9867,-5.86147 12.6567,-3.54114 9.0212,0.43112 z"
         style="fill:#5e544a;fill-opacity:1;stroke:none" />
      <path
         style="fill:#231f1c;fill-opacity:1;stroke:none"
         d="m 152.08187,608.39883 c 2.6764,6.63887 11.7369,36.26959 0.425,60.09526 5.7886,0.80598 8.3559,-0.66695 13.454,-0.39788 8.983,-25.07256 0.7291,-49.27512 -0.9093,-59.85027 -4.8446,-0.89049 -8.0116,-1.58486 -12.9697,0.15289 z"
         id="path3106"
         inkscape:connector-curvature="0"
         sodipodi:nodetypes="ccccc" />
      <path
         transform="matrix(1.0655735,8.9293375e-4,-8.3797877e-4,0.99999965,-496.84773,5.3234375)"
         d="m 629.83012,636.17932 c 0,11.99468 -6.89698,21.71828 -15.40483,21.71828 -8.50785,0 -15.40482,-9.7236 -15.40482,-21.71828 0,-11.99467 6.89697,-21.71828 15.40482,-21.71828 8.50785,0 15.40483,9.72361 15.40483,21.71828 z"
         sodipodi:ry="21.718279"
         sodipodi:rx="15.404826"
         sodipodi:cy="636.17932"
         sodipodi:cx="614.42529"
         id="path3108"
         style="color:#000000;fill:#6b7760;fill-opacity:1;stroke:none;stroke-width:0.96874219;marker:none;visibility:visible;display:inline;overflow:visible;enable-background:accumulate"
         sodipodi:type="arc" />
      <path
         sodipodi:nodetypes="ccccc"
         inkscape:connector-curvature="0"
         id="path3110"
         d="m 165.13517,608.32072 c -3.11,6.44717 -8.2229,35.69394 1.4873,60.21608 -5.8294,0.42108 -9.1076,0.41043 -14.2123,0.34148 -7.3039,-25.61215 -4.3263,-51.156 -1.9916,-61.59953 4.893,-0.56785 9.8844,-1.02013 14.7166,1.04197 z"
         style="fill:#5e544a;fill-opacity:1;stroke:none" />
      <path
         style="fill:#f2bca8;fill-opacity:1;stroke:none"
         d="m 506.66957,774.99521 c 34.5642,-30.36242 65.6668,-54.25014 78.2142,-86.07143 8.8643,-15.38699 13.9331,-32.66888 21.0715,-48.92857 12.1476,-27.66952 29.0227,-53.65264 36.7857,-82.85714 7.3735,-27.73927 6.6502,-57.06312 8.0277,-85.73258 0.4623,-9.6222 -0.6863,-18.67545 -2.5254,-28.78935 1.1471,-18.85939 6.919,-38.96592 6.566,-55.55839 -0.3977,-13.12596 -0.9215,-25.80494 -2.0203,-38.89087 -2.6105,-31.08925 -0.3671,-63.64395 -11.1117,-92.93404 -14.3405,-39.09281 -41.7529,-72.05755 -62.6294,-108.08632 -2.9531,-5.0964 -96.9747,-41.41625 -107.0762,-43.43656 -10.1015,-2.0203 -105.0559,-3.03046 -121.2183,-3.03046 -16.1624,0 -102.8998,14.38966 -110.1066,18.18275 -19.1929,10.10153 -43.6034,13.71848 -57.5787,30.30458 -18.4612,21.90996 -27.9028,50.87492 -34.3452,78.79189 -8.8976,38.55635 -15.1903,78.82893 -11.1117,118.18785 2.8488,27.4903 25.3614,49.7829 31.3147,76.77159 9.3395,42.33902 8.9472,86.25501 14.1422,129.29953 4.2338,35.07993 -0.6696,66.22685 13.4278,98.6273 13.0233,29.93166 48.7217,58.6584 72.4351,87.24077 11.3212,13.64561 18.253,30.85691 42.0243,49.76659 40.2458,32.01489 107.5733,42.88199 153.817,26.55344 23.9349,-8.45137 30.8621,-29.71689 41.8973,-39.41058 z"
         id="path3112"
         inkscape:connector-curvature="0"
         sodipodi:nodetypes="scsssccssssssssssssssss" />
      <path
         style="fill:#cf7b71;fill-opacity:1;stroke:none"
         d="m 341.66197,672.42584 c 10.0121,-7.38834 16.3239,-9.59645 30.3046,-9.59645 28.1406,-9.65622 49.8692,-13.26969 76.2665,-7.57614 21.2234,-8.32618 32.2271,3.49045 47.4772,15.15229 8.4574,5.97776 9.5312,8.83282 12.6269,17.67767 -2.6937,1.51523 -5.6563,2.62946 -8.0812,4.54568 -14.2325,11.24678 -26.0739,17.44308 -42.4264,19.1929 -22.6482,2.42348 -38.3537,-1.61259 -51.5178,-5.55584 -20.3183,-6.08626 -39.4729,-15.55766 -56.5685,-25.25381 -3.4188,-1.93903 -5.3875,-5.7242 -8.0813,-8.5863 z"
         id="path3114"
         inkscape:connector-curvature="0"
         sodipodi:nodetypes="cccccssssc" />
      <path
         style="fill:#a44337;fill-opacity:1;stroke:none"
         d="m 350.95527,673.20949 c 10.3509,4.2701 18.4095,2.35574 27.8571,-0.71428 15.9883,-5.19544 24.721,-6.06531 39.2857,-5.35715 14.2765,4.72419 21.1542,4.80294 34.6429,2.5 8.9339,3.20298 17.4779,5.08141 25.3571,8.92858 12.1382,5.92667 11.2865,7.6303 23.2143,3.92857 -1.3136,1.96358 -1.4793,3.43608 -1.4286,5.71428 -6.4741,1.41247 -11.8465,-0.25837 -17.5,-2.14285 -5.2591,-1.14148 -10.2367,-3.05476 -14.6428,-2.85715 -23.2775,1.04398 -46.3214,-2.91395 -67.5,-6.78571 -18.293,-3.34422 -34.9808,-0.0851 -51.7857,0.35714 0.8333,-1.19048 1.6666,-2.38095 2.5,-3.57143 z"
         id="path3116"
         inkscape:connector-curvature="0"
         sodipodi:nodetypes="csccscccsscc" />
      <path
         style="fill:#f8d6c9;fill-opacity:1;stroke:none"
         d="m 448.45527,503.56664 c -24.6698,11.69925 -22.0695,10.66588 -34.2857,33.57142 -11.0904,4.11526 -15.4671,9.57325 -20,15 23.5778,-8.8991 44.3251,3.16249 55.3676,16.55112 14.2093,-2.54801 27.4288,0.21786 40.52,4.58159 16.5054,-7.92549 18.9257,-2.02056 26.2552,12.43872 4.994,-18.08767 -11.1092,-44.87905 -17.8571,-59.28571 -2.7083,-46.30022 -5.692,-75.18548 -20.4427,-78.15247 -12.2077,-2.45551 -31.7208,14.03822 -29.5573,55.29533 z"
         id="path3118"
         inkscape:connector-curvature="0"
         sodipodi:nodetypes="cccccccsc" />
      <path
         style="fill:#875746;fill-opacity:1;stroke:none"
         d="m 439.89937,581.51211 c -5.7242,-3.45135 -10.6933,-8.71203 -17.1726,-10.35406 -4.5633,-2.36641 -25.2489,-0.53594 -15.9099,7.3236 6.7679,2.97479 12.8166,1.57749 18.9403,0 1.4118,-0.34434 2.8723,-1.06209 4.2932,-0.75761 3.4394,0.73701 6.566,2.52538 9.849,3.78807 z"
         id="path3120"
         inkscape:connector-curvature="0"
         sodipodi:nodetypes="ccccsc" />
      <path
         style="fill:#875746;fill-opacity:1;stroke:none"
         d="m 480.30547,592.37125 c 3.0304,-2.52538 5.7462,-5.48542 9.0913,-7.57614 2.1224,-1.3265 4.706,-3.34408 7.0711,-2.52538 1.5198,0.52607 0.6139,3.64312 -0.5051,4.79822 -1.8614,1.92148 -4.7897,2.42476 -7.3236,3.283 -2.7073,0.91699 -5.5558,1.34687 -8.3337,2.0203 z"
         id="path3122"
         inkscape:connector-curvature="0"
         sodipodi:nodetypes="cssssc" />
      <path
         inkscape:connector-curvature="0"
         style="fill:#f8d6c9;fill-opacity:1;stroke:none"
         d="m 635.60707,450.70892 c -15.164,26.03716 -22.9252,31.72098 -46.4375,47.84375 l -6.4375,32.15625 -4.2813,-23.5625 -6.4375,7.125 -5,32.875 -6.4062,-22.15625 -5.7188,5 2.8438,17.875 -8.5625,-14.3125 c -20.3974,8.31851 -25.4068,12.009 -29.2813,32.15625 14.5392,13.56307 32.0429,23.49668 46.4375,37.15625 14.4489,13.71104 14.5708,26.2444 20,45 11.1655,-26.12385 29.8119,-43.77869 47.5625,-65.75 3.495,-8.13454 6.5671,-16.40387 8.8438,-24.96875 7.3734,-27.73927 6.6537,-57.08054 8.0312,-85.75 0.071,-1.47707 0.095,-2.91885 0.094,-4.375 -3.0355,-5.88158 -7.43,-11.36888 -15.25,-16.3125 z"
         id="path3124" />
      <path
         style="fill:#f8d6c9;fill-opacity:1;stroke:none"
         d="m 514.39807,591.10856 c -4.9027,7.70382 -14.7999,8.95434 -23.7386,8.5863 0.8991,17.00423 -0.3304,35.61561 -17.9175,52.61984 8.485,4.34539 13.3209,8.50293 22.2104,15.72819 2.4546,1.9951 6.0431,3.89421 9.1043,6.49517 1.0174,-21.63559 14.9585,-3.88327 22.9683,1.92839 12.6244,9.15982 10.4595,-1.74288 11.6168,-10.10152 4.521,-32.65347 -5.1782,-54.73707 -24.2437,-75.25637 z"
         id="path3126"
         inkscape:connector-curvature="0"
         sodipodi:nodetypes="cccscssc" />
      <path
         style="fill:url(#radialGradient4009);fill-opacity:1;stroke:none"
         d="m 513.45527,348.56664 c -45.9984,-6.06196 -90.0731,3.36738 -130,12.14285 l -55,-19.28571 -7.8572,-5 c 17.3379,-23.43597 8.2764,-70.3578 3.7196,-104.63993 -6.3959,-48.11923 -18.4692,-78.95889 -63.7196,-51.78864 l 160.7143,-62.14286 c 0,0 141.4286,27.85714 165.7143,34.28571 24.2857,6.42858 105.7143,61.42857 100.7143,76.42857 -5,15 -13.5714,42.85715 -10,51.42858 3.5714,8.57143 -67.8572,-81.42858 -67.8572,-81.42858 2.09357,37.5269 12.7874,70.27134 -6.4285,111.42858 11.4782,20.24986 16.6218,35.88324 21.4285,57.85714 l -62.1428,12.14286 c -20.0021,-4.18848 -33.3038,-19.03442 -49.2857,-31.42857 z"
         id="path3128"
         inkscape:connector-curvature="0"
         sodipodi:nodetypes="ccccsccsssccccc" />
      <path
         sodipodi:nodetypes="scccccscssccccccccs"
         inkscape:connector-curvature="0"
         style="fill:#2c2016;fill-opacity:1;stroke:none"
         d="m 377.41957,4.2714235 c -67.8466,-0.122692 -123.1407,28.0638585 -146.875,58.0312485 -63.1845,56.268998 -97.4976,101.559198 -113.125,180.812498 -23.813002,47.56577 -10.1275,77.70585 4.0312,126.25 0.5049,2.45555 1.4886,5.57782 2.875,8.96875 42.912,19.83808 42.2917,42.76354 51.9375,69.37054 10.9811,-3.26293 12.9701,-51.64974 24.8438,-80.43304 15.9204,-38.59324 32.8078,-27.32401 32.4687,-64.5625 -0.9234,-23.17571 18.1243,-39.04005 35.3438,-48.5 71.1102,-39.06624 55.5492,-119.792 151.5312,-88.875 31.9769,10.30016 51.0031,-4.56861 65.6563,-16.15625 30.6656,17.84682 51.2865,22.25255 84.875,28.28125 20.7606,32.30132 46.1484,60.46355 71.7187,88.875 4.5242,53.08628 25.0786,99.83929 62.625,67.6875 31.1252,-26.75278 12.4828,-60.42223 6.0625,-96.96875 11.9062,-55.596 -11.4878,-72.41151 -43.4375,-113.125 l -47.5,-53.562498 C 567.55267,31.503062 514.00347,7.0322655 448.73207,14.802674 424.02677,7.4945175 400.03507,4.3123205 377.41957,4.2714235 z"
         id="path3130" />
      <path
         style="fill:#4e4030;fill-opacity:1;stroke:none"
         d="m 265.39547,362.30901 c 38.0706,-23.83732 74.5483,-22.01981 118.1879,11.11168 13.7966,10.47449 32.7673,13.44815 51.5177,27.77919 1.0666,-7.77456 6.1312,-18.83802 -0.505,-23.73858 -16.9726,-12.53352 -27.6997,-14.79269 -41.9214,-20.70813 -36.6177,-41.05454 -110.6288,-31.81781 -127.2792,5.55584 z"
         id="path3132"
         inkscape:connector-curvature="0"
         sodipodi:nodetypes="cscscc" />
      <path
         style="fill:#4e4030;fill-opacity:1;stroke:none"
         d="m 524.49957,403.22019 c 11.4252,-22.84998 18.3318,-27.19004 41.9214,-29.7995 15.8371,-1.7519 51.3291,-9.00789 58.0837,-10.6066 9.3581,3.72068 17.4341,10.8348 23.7386,18.68782 3.7354,4.65277 3.3672,11.44839 5.0508,17.17259 -21.9291,-33.80042 -65.3054,-12.4459 -91.4188,-3.53553 -13.7017,4.67526 -24.2734,8.97306 -37.3757,8.08122 z"
         id="path3134"
         inkscape:connector-curvature="0"
         sodipodi:nodetypes="cscscsc" />
      <path
         style="fill:#de9e86;fill-opacity:1;stroke:none"
         d="m 289.52667,415.70949 c 10.7868,-27.30299 42.181,-39.49425 75.3571,-32.14285 38.6375,8.56156 42.9592,32.03818 40.7143,64.28571 -49.7881,10.29393 -93.1369,4.2506 -116.0714,-32.14286 z"
         id="path3136"
         inkscape:connector-curvature="0"
         sodipodi:nodetypes="cscc" />
      <path
         style="fill:#de9e86;fill-opacity:1;stroke:none"
         d="m 505.95527,452.9275 c 10.9021,-24.26856 30.6161,-37.83997 54.6428,-41.55802 34.403,-5.32374 49.238,12.06377 53.9286,42.57163 -6.3494,14.28368 -27.4598,29.58985 -51.7857,27.02961 -25.8051,-2.71593 -39.3894,-14.12444 -56.7857,-28.04322 z"
         id="path3138"
         inkscape:connector-curvature="0"
         sodipodi:nodetypes="cscsc" />
      <path
         style="fill:#32261c;fill-opacity:1;stroke:none"
         d="m 298.27667,415.70949 -5.5357,-2.5 5.1786,0 -2.8572,-3.92857 10,0.17857 -5.3571,-6.42857 11.9643,3.75 c 0,0 -5.8929,-7.67857 -4.4643,-6.78571 1.4285,0.89285 10.7143,2.67857 10.7143,2.67857 0,0 -3.0358,-11.78572 -2.1429,-10.89286 0.8929,0.89286 14.4643,8.03571 14.4643,8.03571 l 0,-5 c 0,0 7.5,5.71429 7.3214,3.21429 -0.1786,-2.5 0.3572,-14.28571 0.7143,-13.39286 0.3571,0.89286 6.25,8.92857 6.25,8.92857 0,0 0.3571,-10.17857 1.4286,-7.85714 1.0714,2.32143 11.7857,10.17857 12.3214,9.46429 0.5357,-0.71429 1.4286,-10 1.7857,-9.10715 0.3572,0.89286 10.3572,10.35715 10.3572,10.35715 l 0.3571,-6.42857 c 18.6132,14.59202 31.6252,15.422 24.4643,40.89285 l -7.1429,1.96429 z"
         id="path3140"
         inkscape:connector-curvature="0"
         sodipodi:nodetypes="cccccccscsccsscsssccccc" />
      <path
         style="fill:#32261c;fill-opacity:1;stroke:none"
         d="m 299.70527,417.49521 c 0,0 -6.6072,0.35714 -5.7143,0.71428 0.8928,0.35714 9.4643,3.92857 9.4643,3.92857 0,0 -5,0 -3.9286,0.71429 28.3223,19.71961 58.888,31.11452 93.0357,18.39286 z"
         id="path3142"
         inkscape:connector-curvature="0"
         sodipodi:nodetypes="cscccc" />
      <path
         style="fill:#dddcdb;fill-opacity:1;stroke:none"
         d="m 298.63377,415.88806 c 27.73,-16.21434 86.2769,-29.35249 96.9643,15.17857 -2.7534,3.07662 -2.7825,5.71907 -3.0357,9.64286 -44.1288,8.01825 -68.2024,-2.28094 -93.9286,-24.82143 z"
         id="path3144"
         inkscape:connector-curvature="0"
         sodipodi:nodetypes="cccc" />
      <path
         inkscape:connector-curvature="0"
         id="path3146"
         d="m 356.15277,400.44553 c -2.9192,3.02445 -5.1226,7.01471 -6.2812,11.56952 3.5129,-0.35052 6.9318,-0.33885 10.2187,1.45807 3.244,1.77353 3.7502,4.48933 -1.7813,3.77198 -3.9369,-0.51058 -6.5543,-0.18384 -9.375,1.23619 -0.01,0.27531 0,0.57832 0,0.85584 0,11.96688 7.012,21.93322 16.3438,24.31183 3.1947,8.2e-4 6.5227,-0.13991 9.9688,-0.41207 8.6278,-2.97338 14.9374,-12.5357 14.9374,-23.89976 0,-0.48316 -0.01,-0.98187 -0.031,-1.45809 -7.4738,-11.79799 -20.0518,-16.72338 -34,-17.43351 z"
         style="color:#000000;fill:#392e21;fill-opacity:1;stroke:none;stroke-width:0.30000001;marker:none;visibility:visible;display:inline;overflow:visible;enable-background:accumulate" />
      <path
         transform="matrix(0.32613226,0,0,0.29269364,251.22817,314.54038)"
         sodipodi:open="true"
         sodipodi:end="6.2776887"
         sodipodi:start="0"
         d="m 390.53572,359.14789 c 0,12.72227 -7.75506,23.03571 -17.32143,23.03571 -9.56636,0 -17.32142,-10.31344 -17.32142,-23.03571 0,-12.72228 7.75506,-23.03572 17.32142,-23.03572 9.5292,0 17.26879,10.23644 17.32117,22.9091"
         sodipodi:ry="23.035715"
         sodipodi:rx="17.321428"
         sodipodi:cy="359.14789"
         sodipodi:cx="373.21429"
         id="path3148"
         style="color:#000000;fill:#261d15;fill-opacity:1;stroke:none;stroke-width:1.06267786;marker:none;visibility:visible;display:inline;overflow:visible;enable-background:accumulate"
         sodipodi:type="arc" />
      <path
         style="fill:#32261c;fill-opacity:1;stroke:none"
         d="m 515.95527,449.63806 12.1428,-15.71428 1.0715,2.85714 14.2857,-12.85714 0.3571,2.85714 18.2143,-12.5 -0.3571,3.57143 19.2857,-8.57143 c 0,0 -4.6429,4.64286 -3.2143,4.64286 1.4286,0 19.6428,-2.85714 19.6428,-2.85714 l -3.5714,7.5 18.2143,-0.35715 -10,6.78572 15,1.42857 -12.1429,5 26.0715,6.42857 -19.6429,2.85714 8.5714,2.85715 13.5715,1.07142 -13.5715,5 -8.9285,0.71429 7.8571,2.85714 -11.4286,3.57143 -1.0714,6.78572 3.9286,4.64285 -8.9286,-2.5 2.1429,5 -8.2143,-2.5 0.3571,5 c -28.8506,0.44261 -51.548,-3.42126 -77.5,-15.71428 l 8.9286,-7.14286 z"
         id="path3152"
         inkscape:connector-curvature="0"
         sodipodi:nodetypes="ccccccccsccccccccccccccccccccccc" />
      <path
         style="fill:#dddcdb;fill-opacity:1;stroke:none"
         d="m 516.16587,448.96226 c 2.4383,2.27656 2.7707,3.41336 2.5254,6.41374 30.6736,9.83637 58.1589,19.57913 88.6409,0.23754 -5.3081,-53.3967 -64.9764,-35.02066 -91.1663,-6.65128 z"
         id="path3154"
         inkscape:connector-curvature="0"
         sodipodi:nodetypes="cccc" />
      <path
         inkscape:connector-curvature="0"
         id="path3156"
         d="m 573.30897,420.56607 c -4.334,3.22492 -7.645,8.67667 -9.0937,15.24919 2.5128,0.42816 5.032,0.80185 7.5937,2.38572 2.6386,1.6313 3.5414,4.76077 -1.1562,4.44902 -2.4395,-0.1619 -4.8088,-0.64036 -7.1562,-0.87046 -0.023,0.51502 -0.062,1.02483 -0.063,1.54748 0,10.64839 4.6891,19.81206 11.4063,23.79261 6.7641,-0.4721 13.5786,-1.99347 20.5,-4.90037 3.6806,-4.72361 6,-11.44271 6,-18.89224 0,-3.68557 -0.5775,-7.17816 -1.5937,-10.34881 -6.3177,-8.81313 -15.8132,-12.45525 -26.4376,-12.41214 z"
         style="color:#000000;fill:#363123;fill-opacity:1;stroke:none;stroke-width:0.30000001;marker:none;visibility:visible;display:inline;overflow:visible;enable-background:accumulate" />
      <path
         sodipodi:open="true"
         sodipodi:end="6.2776887"
         sodipodi:start="0"
         d="m 598.92854,382.27289 c 0,12.67296 -7.75506,22.94643 -17.32142,22.94643 -9.56636,0 -17.32143,-10.27347 -17.32143,-22.94643 0,-12.67296 7.75507,-22.94643 17.32143,-22.94643 9.5292,0 17.26879,10.19676 17.32116,22.8203"
         sodipodi:ry="22.946428"
         sodipodi:rx="17.321428"
         sodipodi:cy="382.27289"
         sodipodi:cx="581.60712"
         id="path3158"
         style="color:#000000;fill:#292116;fill-opacity:1;stroke:none;stroke-width:1.05898297;marker:none;visibility:visible;display:inline;overflow:visible;enable-background:accumulate"
         sodipodi:type="arc"
         transform="matrix(0.30921371,0,0,0.31086626,405.83567,324.43922)" />
      <path
         id="path3096"
         d="m 579.71527,947.64646 c -6.4639,0.071 -12.8678,0.6852 -19.125,2.3437 -26.9839,7.5924 -43.386,23.5268 -67.8437,62.15634 -4.1974,7.7489 -11.6276,13.3344 -16.4376,20.7187 -12.1239,18.6128 -19.692,40.3745 -34.2812,57.125 -15.921,18.2796 -36.1485,32.2281 -54.9688,47.5938 l 32.6563,0 c 9.8167,-14.9139 19.652,-29.8049 29.4687,-44.7188 12.381,-18.8095 23.5715,-43.5893 25,-47.875 1.4286,-4.2857 14.9867,-22.8393 17.8438,-27.125 2.8571,-4.2857 29.2768,-22.87054 33.5625,-27.15624 4.2857,-4.2858 45.7366,-27.3855 58.5937,-30.7188 12.8571,-3.3333 25.7054,-6.6667 38.5626,-10 -14.2411,0 -28.8106,-2.5005 -43.0313,-2.3437 z"
         style="fill:#0b172d;fill-opacity:1;stroke:none"
         inkscape:connector-curvature="0" />
      <path
         sodipodi:nodetypes="ccccssssssssscccccsc"
         inkscape:connector-curvature="0"
         id="path3973"
         d="m 51.393968,106.74803 c 3.6635,-4.7338 7.5095,-9.558908 10.9334,-14.172928 2.0365,-8.36621 -4.2833,-8.24755 -10.8321,-7.89635 0.1084,-0.98522 0.069,-2.0075 1.2148,-2.73335 l 5.6692,0 c 0.8931,0 1.7609,-0.12356 2.7839,-0.3037 1.4834,-0.26121 1.5078,-0.91548 1.5186,-1.87285 0.044,-3.92374 1.0477,-7.5448 4.0494,-9.56673 1.5196,-1.02359 0.6317,-1.38062 -0.2025,-1.67038 -4.0227,-1.39746 -6.5069,-1.71273 -8.5544,-2.73336 -0.991,-0.49399 -0.8844,-1.5067 0.5062,-1.51853 6.5858,-0.056 14.6418,0.38548 20.2977,3.54324 1.3161,0.73484 0.9199,1.50801 -0.1013,2.53088 -2.369,2.37288 -6.9194,3.03473 -3.2395,10.22476 1.9549,0.38588 6.0327,0.4404 7.1427,4.16651 1.129,0.74354 2.0341,1.49477 2.4747,2.26192 -0.9555,-0.36856 -1.5977,-0.81542 -3.0371,-1.06297 -3.671,-0.0193 -4.9132,0.56863 -7.1371,0.91112 -0.108,1.02923 -0.6113,2.09566 -1.5691,3.08768 -5.6866,5.88927 -13.6503,13.209548 -21.9175,16.805038 z"
         style="fill:#f5f6f7;fill-opacity:1;stroke:none" />
      <path
         style="fill:#f5f6f7;fill-opacity:1;stroke:none"
         d="m 11.862771,221.54132 c -2.0636004,-1.66071 -4.2151004,-3.34195 -6.1631804,-4.97574 -1.73683,-3.39142 0.99539,-3.99023 3.85018,-4.5125 -0.148,-0.41289 -0.2362,-0.85694 -0.804,-1.05152 l -2.44002,0.58298 c -0.38437,0.0918 -0.7706,0.1279 -1.2294,0.15556 -0.66532,0.0401 -0.74312,-0.23898 -0.84623,-0.64992 -0.42242,-1.68426 -1.22678,-3.13955 -2.72665,-3.70113 -0.75927,-0.28429 -0.41383,-0.52926 -0.0846,-0.73975 1.5877,-1.01514 2.62447,-1.40628 3.40077,-2.05611 0.37574,-0.31453 0.22569,-0.73943 -0.37401,-0.60153 -2.84033,0.65313 -6.26225,1.67156 -8.37184,3.61228 -0.49089,0.45161 -0.24086,0.74365 0.30385,1.07888 1.26364,0.77769 3.29019,0.59462 2.44573,4.06763 -0.80172,0.36711 -2.5512,0.80991 -2.64578,2.52778 -0.40947,0.43612 -0.72177,0.85252 -0.83252,1.22801 0.37335,-0.25688 0.6038,-0.51525 1.19787,-0.76981 1.57802,-0.38581 2.17312,-0.2605 3.16551,-0.34178 0.15232,0.43188 0.47861,0.83911 0.99286,1.16759 3.05315,1.94998 7.23351,4.28171 11.1614604,4.97908 z"
         id="path3975"
         inkscape:connector-curvature="0"
         sodipodi:nodetypes="ccccssssssssscccccsc" />
      <path
         inkscape:connector-curvature="0"
         id="path3988"
         d="m 120.66277,392.7105 c -7.2463,0.47445 -5.816,20.25684 -5.7812,49.40625 4.6361,-21.19368 0.5028,-54.0317 25.75,-32.84375 -10.0104,-11.77707 -16.173,-16.81102 -19.9688,-16.5625 z m 14.4063,56.59375 c -0.6156,0.009 -1.2736,0.27569 -2,0.875 -7.1048,5.86147 -9.8246,17.15323 -8.5937,26.28125 3.4511,19.878 17.2803,17.75244 29.6874,34.59375 2.377,3.22652 11.7222,1.16014 11.7188,-7.3125 0.074,-15.16692 -9.8295,-12.45515 -18.1562,-19.21875 -3.8839,-3.18474 -12.4521,-3.51462 -13.0626,-8.5 -0.7055,-5.76229 5.8931,-12.08147 5.1876,-17.84375 -0.4961,-4.05064 -2.1138,-8.9121 -4.7813,-8.875 z"
         style="fill:#de9e86;fill-opacity:1;fill-rule:nonzero;stroke:none" />
    </g>
  </g>
</svg>
