<?xml version="1.0" encoding="utf-8"?>
<!DOCTYPE svg PUBLIC "-//W3C//DTD SVG 1.1//EN" "http://www.w3.org/Graphics/SVG/1.1/DTD/svg11.dtd">
<svg version="1.1" id="Layer_1" xmlns="http://www.w3.org/2000/svg" xmlns:xlink="http://www.w3.org/1999/xlink" x="0px" y="0px"
	 viewBox="0 0 1822 2008" enable-background="new 0 0 1822 2008" xml:space="preserve">
<g id="_x23_f0c6ecff">
</g>
<g>
	<path stroke="#000000" stroke-width="0.594" d="M841.61,179.72c23.56-3.69,47.51-4.32,71.3-3.2c33.28,1.6,66.3701,6.47,98.86,13.8
		c29.35,6.73,58.28,15.44,86.23,26.69c32.17,13.08,63.39,29.43,90.08,51.86c27.99,22.91,51.8101,50.9,69.8201,82.28
		c21.6799,37.44,35.48,78.79,46.5699,120.43c4.54,17.66,9.26,35.3,12.6901,53.22c4.9,28.44,6.1599,57.38,5.99,86.2
		c0.25,26.94-0.99,53.87-2.73,80.75c-3.42,51.38-9.0901,102.59-16.15,153.6c-0.6901,6.17-2.22,12.28-2.41,18.4901
		c2.79,2.64,6.41,5.09,7.08,9.17c0.54,4.65-0.97,9.21-2.4199,13.57c-5.39,14.76-12.63,29.01-15.16,44.66
		c-2.8099,15.99-4.2,32.18-5.97,48.3c-1.3,11.76-2.25,23.69-5.9501,35.01c-2.9299,8.93-6.22,17.78-8.0399,27.03
		c-2.3201,10.2001-3.59,20.6801-7.2001,30.55c-1.45,0.22-2.8899,0.4399-4.3099,0.6899c4.3199-12.2899,5.84-25.2899,8.91-37.8999
		c1.96-8.3501,5.37-16.2601,7.6399-24.52c2.66-8.9,3.52-18.19,4.55-27.39c1.87-17.02,3.33-34.11,6.16-51.01
		c1.45-9.04,4.1699-17.82,7.53-26.32c3.35-8.98,7.6799-17.64,9.9399-27c0.8199-3.17,0.6-6.96-2.23-9.06
		c-6.59-5.55-15.8101-7.78-24.26-6.53c-5.03,0.58-7.3199,5.65-9.4301,9.59c-7.97,16.48-15.0699,33.64-18.2899,51.74
		c-0.77,4.12-1.91,8.31-1.14,12.53c1.01,6.66,2.11,13.31,3.04,19.99c2.35-8.44,3.74-17.21,6-25.72
		c3.35-12.66,6.08-25.49,9.9299-38.02c1.54-4.88,3.28-10.2,7.64-13.31c4.26-3.03,9.0699-5.49,14.15-6.78
		c2.1599-1.06,3.37,2.29,1.4199,3.25c-5.6799,2.68-12.5299,4.4-16.2,9.94c-3.1,5.77-4.52,12.25-6.27,18.52
		c-4.53,18.03-9.15,36.04-12.9199,54.24c-0.1801,2.1-3.3501,2.76-2.54,5.09c2.01,14.49,4.39,28.93,6.0599,43.46
		c-0.39,0.33-1.1499,0.99-1.5399,1.32c-1.73-8.58-2.61-17.3-3.89-25.95c-10.67-71.83-23.1-143.38-35.14-214.99
		c-3.37-23.29-6.28-46.63-9.02-70c-3.9299-32.93-8.5699-65.97-18.16-97.8c-6.45-22.86-16.3999-44.47-25.74-66.24
		c-6.33-15.11-12.9299-30.09-20.4299-44.65c-9.4301-19.65-20.61-38.59-34.77-55.24c-4.75-5.22-8.73-11.22-14.48-15.43
		c-16.4501-14.57-35.0801-27.67-56.49-33.59c-17.1201-5.24-35.17-5.99-52.92-6.95c-16.05,0.75-32.11,1.76-48.08,3.67
		c-26.48,3.08-52.6,8.6-78.81,13.38c-6.95,1.52-14.2,0.07-20.69-2.59c-5.39-2.03-10.54-5.09-16.41-5.52
		c-6.92-0.55-13.88-1.32-20.82-0.63c-13.5,0.83-27.13,1.91-40.2,5.61c-8.35,2.24-15.72,7.13-22.02,12.92
		c-8.72,10.54-14.77,22.95-20.99,35.04c-3.17,5.81-5.1,12.16-7.85,18.16c-2.99,7.62-6.5,15.02-9.35,22.69
		c-8.17,20.49-16.8701,40.76-24.5601,61.44c-7.11,17.57-14.0699,35.19-21.16,52.77c-5.84,15.36-11.97,30.6-18.18,45.81
		c-5.48,15.54-12.24,30.59-17.96,46.05c-3.9,10.42-8.72,20.51-11.73,31.24c-8.38,21.89-17.19,43.6-25.7,65.43
		c-6.9,16.85-13.04,33.99-20.17,50.75c-2.56,5.57-3.48,11.98-7.43,16.84c-0.29-0.58-0.85-1.7401-1.13-2.32
		c0.99-2.85,2.48-5.54,3.01-8.52c-6.88-6.51-14.24-12.53-21.81-18.22c-3.4-2.28-6.77-5.03-10.86-5.8701
		c-3.5099,0.64-5.31,4.22-6.75,7.1201c-2.84,6.71-4.73,14.2-3.21,21.49c4,21.81,11.08,42.99,14.12,64.99
		c1.54,17.11-1.6,34.19-4.03,51.06c3.11,19.14,7.04,38.18,10.65,57.25c2.62,13.48,5.42,26.9301,8.6,40.29
		c0.98,3.4099,1.44,7.35,4.29,9.8199c2.79,2.66,6.25,5.04,10.23,5.28c2.1,0.15,3.08-2.04,4.08-3.48
		c3.65-6.4,6.26-13.3101,9.03-20.12c1.08,0.73,2.15,1.47,3.24,2.23c-2,6.0599-4.67,11.88-7.5099,17.59
		c-1.4,2.52-2.7401,5.3-5.19,6.99c-3.26,1.9301-7.22,0.47-10.35-1.01c-4.4-2.4099-8.87-5.83-10.21-10.9099
		c-2.41-8.1801-4.01-16.5701-5.89-24.89c-5.65-27.29-10.77-54.6901-15.79-82.1c0-2.43,2.3-4.32,2.32-6.83
		c2.05-15.92,4.65-32.24,1.41-48.18c-3.51-18.84-9.13-37.2-12.76-56c-2.09-9.43,0.26-19.37,4.69-27.77
		c2.24-4.42,6.86-7.92,12.02-6.53c-2.4301-15.41-3.56-30.99-5.11-46.5c-1.71-19.3-2.97-38.64-3.9-57.99
		c-1.95-52.75-2.59-106.12,7.76-158.12c4.4-23.4901,8.9-46.97,14.77-70.15c8.35-34.2,20.25-67.74,37.69-98.43
		c18.73-33.3,43.25-62.92,69.11-90.88c27.11-28.99,57.61-55.22,92.2401-74.84C771.11,197.62,805.85,185.51,841.61,179.72
		 M774.3,386.25l-0.24,0.8c4.59,0.06,9.09-1.15,13.69-1.21l0.12-0.75C783.3,384.36,778.77,385.4,774.3,386.25 M1182.09,565.21
		C1180.5699,568.31,1185.29,565.44,1182.09,565.21 M1219.15,753.45c2.86,21.32,6.76,42.52,10.4199,63.74
		c4.1901,24.95,8.38,49.9,12.4601,74.88c1.49,9.61,3.49,19.15,4.45,28.84c1.3101-1.29,1.23-3.24,1.61-4.9
		c0.76-5.6,3.3201-10.71,4.8-16.11c-9.1801-37.64-17.4301-75.7-26.1901-113.51c-2.24-11.07-5.35-21.99-7.0499-33.14L1219.15,753.45z
		"/>
	<path fill="#343633" stroke="#343633" stroke-width="0.594" d="M938.92,381.76c15.97-1.91,32.03-2.92,48.08-3.67
		c17.75,0.96,35.8,1.71,52.92,6.95c21.4099,5.92,40.0399,19.02,56.49,33.59c5.75,4.21,9.73,10.21,14.48,15.43
		c14.16,16.65,25.34,35.59,34.77,55.24c7.5,14.56,14.1,29.54,20.4299,44.65c9.3401,21.77,19.29,43.38,25.74,66.24
		c9.5901,31.83,14.2301,64.87,18.16,97.8c2.74,23.37,5.65,46.71,9.02,70c12.04,71.61,24.47,143.16,35.14,214.99
		c1.28,8.65,2.16,17.37,3.89,25.95c-0.99,1.9-1.79,3.9-2.61,5.88c-1.29-1.09-1.42-2.89-1.8601-4.39
		c-20.74-87.11-38.7699-174.85-60.25-261.77c-5.99-24.01-13.62-47.57-20.7699-71.25c-5.9-17.33-11.2001-34.88-18.1801-51.82
		c-4.33-10.89-8.4399-21.87-13.63-32.38c-3.0599-8.01-7.74-15.26-10.6799-23.32c-9.55-18.57-17.9401-37.85-29.91-55.05
		c-9.12-13.9-20.2101-26.34-31.42-38.55c-16.9199-15.65-34.66-30.6-54.39-42.61c-15-9.51-31.27-18.51-49.35-19.79
		c-18.7-1.74-37.74-0.46-55.98,4.09c-18.58,3.95-36.8,9.42-55.35,13.47c-1.95,0.46-3.64-0.95-5.16-1.92
		c-2.92-2.19-5.78-4.62-9.37-5.59c-13.67-4.01-27.9-5.66-42.06-6.76c-6.6,0.1-13.24,0.74-19.67,2.22
		c-4.28,1.25-8.83,2.72-11.91,6.09c-9.2,11.49-14.83,25.22-22.19,37.83c-4.11,8.57-8.96,16.78-12.42,25.64
		c-11.56,23.34-22.32,47.05-33.1,70.76c-23.77,52.2599-46.64,104.95-69.55,157.6c-4.18,10.32-9.21,20.28-13.27,30.67
		c-12.17,25.09-21.52,51.42-33.32,76.67c-5.33,11.14-12.8,21.02-20.2,30.83c-2.4,1.1-3.63,3.29-4.66,5.61c-0.7,0-2.1-0.01-2.8-0.01
		c-0.5-3.3-0.93-6.94,0.91-9.93c3.95-4.86,4.87-11.27,7.43-16.84c7.13-16.76,13.27-33.9,20.17-50.75
		c8.51-21.83,17.32-43.54,25.7-65.43c3.01-10.73,7.83-20.82,11.73-31.24c5.72-15.46,12.48-30.51,17.96-46.05
		c6.21-15.21,12.34-30.45,18.18-45.81c7.09-17.58,14.05-35.2,21.16-52.77c7.69-20.68,16.39-40.95,24.5601-61.44
		c2.85-7.67,6.36-15.07,9.35-22.69c2.75-6,4.68-12.35,7.85-18.16c6.22-12.09,12.27-24.5,20.99-35.04
		c6.3-5.79,13.67-10.68,22.02-12.92c13.07-3.7,26.7-4.78,40.2-5.61c6.94-0.69,13.9,0.08,20.82,0.63c5.87,0.43,11.02,3.49,16.41,5.52
		c6.49,2.66,13.74,4.11,20.69,2.59C886.32,390.36,912.44,384.84,938.92,381.76z"/>
	<path fill="#37393D" stroke="#37393D" stroke-width="0.594" d="M774.3,386.25c4.47-0.85,9-1.89,13.57-1.16l-0.12,0.75
		c-4.6,0.06-9.1,1.27-13.69,1.21L774.3,386.25z"/>
	<path fill="#020202" stroke="#020202" stroke-width="0.594" d="M909.01,417.97c18.24-4.55,37.28-5.83,55.98-4.09
		c18.08,1.28,34.35,10.28,49.35,19.79c19.7299,12.01,37.47,26.96,54.39,42.61c11.21,12.21,22.3,24.65,31.42,38.55
		c11.97,17.2,20.36,36.48,29.91,55.05c2.9399,8.06,7.62,15.31,10.6799,23.32c5.1901,10.51,9.3,21.49,13.63,32.38
		c6.98,16.94,12.28,34.49,18.1801,51.82c7.1499,23.68,14.7799,47.24,20.7699,71.25c21.4801,86.92,39.51,174.66,60.25,261.77
		c0.4401,1.5,0.5701,3.3,1.8601,4.39c0.8199-1.98,1.62-3.98,2.61-5.88c0.39-0.33,1.1499-0.99,1.5399-1.32
		c0.78,9.29,3.5701,18.85,1.01,28.08c-1.7799,1.67-4.1699,0.3101-4.52-1.83c-3.1699-9.4399-5.6499-19.13-7.61-28.89
		c-1.96,5.07-1.6499,10.67-1.88,16.02c-0.25,9.54,5.3401,17.73,7.7001,26.6801c1.6699,5.6799-2.02,11.01-5.3401,15.2799
		c-1.3799,1.63-3.2,4.42-5.6399,2.8c-0.65-2.38,1.6399-3.9301,2.8199-5.65c2.52-3.27,5.67-7.2899,4.3199-11.6699
		c-2.34-8.2101-7.0299-15.77-7.6699-24.42c-0.46-7.03,0.4199-14.06,1.52-20.98c0.1499-1.91,1.3999-3.41,2.23-5.05
		c-1.9401-8.34-3.41-16.87-6.0601-25c-4.64,22.75-10.1599,45.31-15.6,67.89c-3.74,15.27-7.75,30.48-12.28,45.53
		c-0.63,2.3099-1.7,4.9299-0.3099,7.21c7.28,2.05,14.96,4.22,22.5699,2.98c11.5701-3.33,19.87-13.34,25.05-23.77
		c1.42-0.25,2.86-0.47,4.3099-0.6899c-1.6399,5.46-4.98,10.16-8.47,14.58c-5.4,6.51-12.48,12.16-20.9,13.98
		c-4.73,1.05-9.48-0.5499-14.21-0.0699c-3.6899,0.6-6.79-2.14-10.34-2.51c-4.23,12.8-8.3301,25.64-12.5,38.4501
		c-8.1901,26.0099-16.3401,52.0299-24.03,78.1899c-0.59,2.12-1.11,4.48-0.09,6.59c6.75,2.14,14.14,1.37,20.75,4.2001
		c14.0499,5.7999,27.7799,12.85,39.61,22.51c7.21,6.09,13.72,13.84,15.63,23.33c2.34,11.04,2.4,22.42,2.09,33.67
		c-0.9399,22.3999-3.86,44.6799-8.01,66.7c-4.29,22.5-9.99,44.76-17.6799,66.34c-18.4,51.6901-46.26,99.3101-75.49,145.5
		c-22.8401,33.2001-50.4801,62.67-77.42,92.51c-13.37,14.64-26.6801,29.35-39.48,44.51c-9.8701,11.97-19.8101,24.0701-27.2501,37.75
		c-4.16,7.4301-6.18,15.79-8.09,24.02c-5.12,23.51-5.05,48.24,0.63,71.65c3.95,15.7899,9.55,31.96,21.02,43.98
		c11.02,11.62,25.26,19.38,37.42,29.66c12.67,10.09,22.17,23.39,31.33,36.59c9.74,14.2,18.67,28.9299,27.4401,43.74h-25.67
		c-7.25-10.49-15.09-20.55-22.8199-30.6801c-4.14-4.86-7.65-10.2799-12.41-14.58c-14.1801-14.15-28.34-28.3199-42.49-42.49
		c-3.35-4.02-6.56-8.1899-10.72-11.41c-9.14-11.34-19.68-22.08-24.94-35.95c-1.86-5.55-2.97-11.3201-3.84-17.1
		c-0.63-3.9701,0.12-8.03-0.81-11.9501c-1.43-6.62,0.67-13.2,0.46-19.8199c-0.2-5.0601,1.06-10,1.16-15.02
		c0.03-5.1,3.21-10.12,1.28-15.16c-0.68-10.35-1.09-20.9299,1.32-31.1c0.82-3.78,3.07-7.01,4.29-10.63
		c16.21-23.17,35.85-43.59,53.77-65.38c3.4401-4.0699,7.1901-7.91,10.16-12.34c5.48-5.73,9.99-12.29,15.09-18.35
		c7.29-9.52,15.33-18.4,22.83-27.75c12.9901-14.53,25.4-29.63,37.4901-44.9401c1.7899-2.23,3.37-4.61,4.84-7.0399
		c5.9399-7.28,11.01-15.2201,15.9199-23.2101c5.15-7.76,10.02-15.7899,13.54-24.45c3.86-8.37,7.72-16.74,11.22-25.27
		c13.55-29.88,26.5701-59.99,39.13-90.3c1.8501-5.4099,4.8101-10.47,6.02-16.0599c-1.39-7.46-5.15-14.23-7.9-21.25
		c-4.13-8.59-9.26-17.05-17-22.84c-8.83-6.8301-18.5599-12.4-28.46-17.51c-2.64-1.4-5.11-3.67-8.29-3.3501
		c-0.4399,2.9701-0.8199,5.9601-1.0299,8.9701c-0.39,3.4099,3.0399,5.4299,4.6,8.09c4.0599,6.29,8.02,13.58,6.73,21.34
		c-0.65,9.9601-2.66,19.74-4.4401,29.54c-5.86,30.8199-11.4299,61.79-20.4199,91.9c-2.8201,8.27-5.61,16.5699-9.3,24.5
		c-9.45,17.95-22.39,34.11-38.09,46.97c-3.92,3.92-7.83,7.84-11.71,11.8c-6.51,5.99-12.26,12.7999-19.2001,18.3099
		c-6.0399,5.29-11.0699,11.66-17.5699,16.42c-3.47,3.73-7.67,6.63-11.29,10.21c-8.14,6.38-16.28,12.8-24.74,18.79
		c-11.69,8.09-24.1,15.0699-36.42,22.15c-3.54,1.4099-6.82,3.37-10.09,5.2999c-17.34,8.75-35.63,16.09-54.9,19.1801
		c-14.96,2.1499-30.29,2.5699-45.25,0.23c-19.77-3.15-38.26-11.23-56.26-19.66c-5.77-2.86-11.49-5.79-17.08-8.96
		c-9.01-5.8201-17.69-12.0701-25.87-19c-3.9-4.79-8.64-8.79-12.84-13.29c-4.16-5.17-8.73-9.97-12.97-15.0499
		c-8.05-10.77-15.26-22.1201-22.34-33.52c-6.0699-11.3401-12.1-22.7001-17.65-34.3c-8.35-17.92-15.96-36.22-21.95-55.0699
		c-5.66-17.7301-9.7-35.9301-13.96-54.03c-2.14-10.65-4.64-21.22-6.41-31.9401c-1.54-6.3899-1.85-13.0499-4.21-19.21
		c-0.03-4.38-0.72-8.7-1.62-12.96c-1.83-8.67-2.42-17.5701-4.85-26.11c-0.57-3.64-1.65-8.3,1.36-11.15
		c2.56-2.9401,5.97-4.87,9.35-6.7001c1.78-0.7899,0.94-3.09,0.91-4.5399c-12.22,0.4099-24.62,2.12-36.06,6.63
		c-11.76,5.6599-23.47,11.49-34.73,18.1c-1.8101,0.92-1.46,3.28-1.8101,4.98c-3.67,28.89-1.59,58.11,1.88,86.91
		c1.89,17.39,4.46,34.7,7.03,52.01c2.14,17.5299,4.88,34.99,7.98,52.38c2.18,14.47,5.38,28.7999,9.07,42.96
		c2.72,11.1899,6.02,22.25,10.07,33.03c2.7,8.27,6.08,16.3099,9.9,24.13c4.25,9.87,9.75,19.24,15.86,28.08
		c5.51,8.45,11.9,16.33,18.71,23.76c5.51,7.1,12.46,12.9,18.63,19.41c4.25,4.7799,9.7401,8.2,14,12.99
		c6.01,4.78,11.63,10.0499,17.71,14.75c15.39,13.16,32.37,24.46,46.84,38.6699c10.2,7.9401,21.18,14.8201,31.25,22.92
		c1.84,3.64,5.17,6.26,6.94,9.96c1.31,2.6901,2.54,5.4401,3.85,8.16c0.76,12.9301-1.22,25.76-3.37,38.48
		c-3.37,19.25-7.41,38.4-12.07,57.39c-2.99,13.39-6.37,26.7001-9.43,40.0801c-1.67,8.58-4.61,17.09-4.12,25.9399
		c0.09,8.66,0.14,17.33,0.1,26h-14.94c1.86-23.4399,4.26-46.8199,6.51-70.22c2.8-20.25,10.09-39.54,13.56-59.66
		c2.61-12.84,3.68-26.02,2.58-39.08c-0.87-7.5701-2.36-15.1801-5.62-22.1001c-3.28-6.6899-8.25-12.37-13.52-17.5599
		c-14-13.59-30.12-24.67-45.76-36.24c-30.4-22.0601-61.13-44.6901-84.76-74.23c-11.18-13.62-19.65-29.2201-26.58-45.35
		c-14.87-35.15-24.1-72.4-31.29-109.8c-4.76-24.72-8.25-49.6801-11.03-74.7c-1.29-15.03-3.1-30.03-3.37-45.13
		c-2.98-40.0801,6.26-79.9701,19.57-117.54c3.75-10.3101,7.75-20.54,12.54-30.42c6.89-13.47,16.45-25.34,26.3-36.74
		c2.95-3.11,5.3-7.08,9.49-8.6899c-0.28-2.7101-1.83-5.04-2.84-7.49c-7.75-17.7101-13.81-36.1101-19.16-54.66
		c-37.62,14.92-74.95,30.6799-111.69,47.7c-16.16,7.65-32.41,15.42-46.92,25.98c-18.02,12.7201-35.02,26.8401-51.19,41.8201
		c-4.06,3.9299-8.29,7.74-11.82,12.1799c-2.39,2.62,0.11,5.9601,1.32,8.52c1.83,2.76,1.48,6.1801,2.41,9.25
		c-0.46,0.0801-1.38,0.25-1.84,0.3301c-9.82,2.4199-19.98,1.4199-29.94,2.63c-17.11,1.21-33.13,7.9399-48.79,14.4399
		c-18.06,7.7-35.63,16.49-52.62,26.33c-36.81,20.7401-73.19,42.2201-109.99,62.9801c-18.32,10.36-37.02,20.0399-56.03,29.0499
		c-15.9,7.75-32.07,14.97-47.58,23.49c-12.31,6.8-23.34,15.5901-35.05,23.3201v-4.9701c10.35-7.1499,20.47-14.6699,31.33-21.0399
		c14.1-7.9301,28.88-14.53,43.4-21.63c19.7-9.37,39.26-19.0701,58.27-29.8c36.19-20.3199,71.94-41.4199,108.06-61.87
		c13.99-7.87,27.92-15.89,42.57-22.48c17.1-7.87,34.45-15.58,52.79-20.08c13.27-3.13,27.03-1.8,40.43-3.8401
		c0.35-2.63-1.59-4.74-2.54-7.01c-1.78-3.0499-2.08-7.23,0.39-9.99c5.98-7.3199,13.22-13.49,20.12-19.9099
		c18.55-16.3501,37.83-32.0701,59.01-44.9301c17.17-9.7,35.15-17.87,53.12-25.97c23.88-10.67,47.99-20.8101,72.19-30.74
		c6.35-2.8201,13.09-4.88,19.22-8.14c-3.59-14.24-7.31-28.46-10.56-42.78c-4.5-20.3199-9.64-40.5699-12.05-61.27
		c-0.5,0.7001-0.96,1.4401-1.4,2.1901c-1.09-0.76-2.16-1.5-3.24-2.23c1.51-4.13,3.18-8.4301,2.9-12.91
		c-7.06-60.12-8.3-120.74-8.89-181.21c-4.37,4.77-8.03,10.17-12.68,14.72c1.22,11.12,3.09,22.24,4.25,33.41
		c1.48,15.33,4.01,30.62,3.83,46.07c-0.12,6.46,0.01,13.15-2.27,19.3c-1.65,4.4-6.23,6.51-8.92,10.13
		c-1.38,2.12-0.56,4.77,0.36,6.92c3.04,6.95,7.88,13.19,9.27,20.81c0.99,5.29,2.54,10.81,1.27,16.1801
		c-1.79,4.1299-7.07,4.8499-11.04,4.43c-5.17-0.46-6.54-6.97-5.62-11.17c0.98-0.56,1.95-0.6,2.92-0.1c0.75,2.29,1,4.72,1.92,6.98
		c2.59,0.8101,6.76,1.01,8.17-1.86c0.7-4.61-0.6-9.23-1.46-13.72c-1.55-8.11-7.29-14.4901-9.85-22.21
		c-0.78-2.36-0.95-5.01,0.12-7.29c2.07-4.4301,7.45-6.21,9.27-10.79c2.03-5.63,1.91-11.72,1.98-17.62
		c0.21-12.35-1.66-24.59-2.87-36.85c-2.04-16.96-3.65-34-7.22-50.72c-0.98-4.48-2.5-8.94-5.38-12.56c-4.02-5.12-9.67-8.49-15-12.05
		c-1.54-0.62-1.62-2.25-0.96-3.55c2.37-0.56,4.33,1.15,6.22,2.29c6.07,4.1,12.42,8.58,15.69,15.38c1.41,2.58,1.8,5.65,3.55,8.06
		c1.21-3.68,1.43-7.63,3.09-11.16c0.28,0.58,0.84,1.74,1.13,2.32c-1.84,2.99-1.41,6.63-0.91,9.93c0.7,0,2.1,0.01,2.8,0.01
		c1.03-2.32,2.2599-4.51,4.66-5.61c7.4-9.81,14.87-19.69,20.2-30.83c11.8-25.25,21.15-51.58,33.32-76.67
		c4.06-10.39,9.09-20.35,13.27-30.67c22.91-52.65,45.78-105.34,69.55-157.6c10.78-23.71,21.54-47.42,33.1-70.76
		c3.46-8.86,8.31-17.07,12.42-25.64c7.36-12.61,12.99-26.34,22.19-37.83c3.08-3.37,7.63-4.84,11.91-6.09
		c6.43-1.48,13.0699-2.12,19.67-2.22c14.16,1.1,28.39,2.75,42.06,6.76c3.59,0.97,6.45,3.4,9.37,5.59c1.52,0.97,3.21,2.38,5.16,1.92
		C872.21,427.39,890.43,421.92,909.01,417.97 M915.94,418.7c-19.61,3.85-38.72,9.8-58.24,14.05c-3.85,0.75-8.17,1.23-11.71-0.77
		c-6.93-3.33-14.21-6.38-21.95-6.96c-12.95-1.51-26.17-2.38-39.07-0.13c-5.85,1.1-11.83,2.84-16.61,6.5
		c-3.85,4.35-6.45,9.62-9.35,14.61c-11.06,20.28-21.07,41.12-31.07,61.94c-34.51,72.35-67.47,145.42-100.5,218.45
		c-11.53,25.88-23.47,51.58-34.32,77.75c-6,14.14-11.93,28.48-20.87,41.08c-1.33,2.08-3.42,4.02-3.04,6.73
		c0.1,56.08,1.49,112.24,6.9,168.09c2.17,21.2501,4.88,42.4901,9.59,63.34c9.81,44.11,19.51,88.67,37.81,130.1899
		c14.2,31.89,33.58,61.8101,58.99,85.91c28.52,27.16,61.43,49.4501,96.16,67.87c10.21,5.2001,20.51,10.55,31.7,13.3201
		c10.97,2.84,22.37,3.08,33.64,3.24c20.86-0.28,41.39,4.0399,61.99,6.75c14.54,2.13,29.43,4.09,44.03,1.2799
		c17.76-3.3899,33.43-12.97,48.55-22.4099c17.86-11.54,34.97-24.1901,51.78-37.2101c30.4601-23.1799,57.9-50.1499,82.7001-79.2799
		c11.88-13.5901,21.74-28.8301,30.2899-44.7101c18.75-35.2999,30.3201-73.75,42.16-111.75c13-42.37,22.6899-85.66,32.22-128.91
		c0.76-2.8,0.8401-5.71,0.03-8.49c-14.71-64.86-28.64-129.92-44.35-194.54c-3.74-0.95-7.53-1.72-11.2001-2.9
		c-20.86-6.44-41.61-13.42-63.01-17.91c-10.25-2.13-20.8199-3.71-31.23-1.85c-21.9099,3.47-42.61,12.08-62.61,21.38
		c-0.91,0.48-1.8199,0.53-2.74,0.15c-0.82-3.46-1.66-6.96-2.87-10.33c-1.02-4.14-2.06-9.65,1.71-12.73
		c6.69-5.45,14.65-9.07,22.4899-12.58c15.8-6.76,32.9701-11.91,50.3401-10.2c11.02,0.81,21.7899,3.51,32.3099,6.83
		c21.4,7.06,42.35,16.06,61,28.84c1.1,0.65,2.0701,1.73,3.4401,1.84c-10.2101-45.44-23.53-90.25-40.64-133.59
		c-7.86-19.66-16.91-38.82-26.14-57.8701c-9.9399-20.1299-20.74-39.93-33.74-58.26c-11.08-15.02-24.11-28.53-38.17-40.78
		c-16.72-14.37-34.7-27.41-54.14-37.85c-12.61-6.87-26.77-11.27-41.18-11.52C943.27,415.23,929.4,415.66,915.94,418.7
		 M775.98,421.92c-2.53,1-5.9,1.61-7.19,4.26c6.15-2.47,12.41-5.07,19.14-5.37l0.04-0.88C783.88,419.7,779.87,420.8,775.98,421.92
		 M1186.27,758.1C1186.45,761.34,1189.3101,756.58,1186.27,758.1 M1166.92,1209.97c-8.9801,16.72-19.41,32.74-32.05,46.9401
		c-24.37,28.5599-51.38,54.9399-81.1801,77.8099c-16.23,12.5601-32.7299,24.8101-49.8599,36.13c-14.96,9.36-30.13,19.13-47.41,23.61
		c-14.79,4.01-30.42,3.1801-45.42,0.8201c-22.29-2.8301-44.45-7.5901-67.02-7.51c-12.35-0.0701-24.86-0.48-36.81-3.89
		c-15.03-4.42-28.8-12.16-42.47-19.64c-33.35-19.03-65.06-41.46-91.98-68.97c-12.78-13.01-23.59-27.79-33.45-43.0801
		c0.26,3.7201,1.82,7.14,2.72,10.7301c3.61,12.61,6.94,25.3199,9.8,38.13c5.2401,22.33,3.01,45.5199,0.05,68
		c-0.32,3.84-1.83,7.38-3.23,10.9299c0.02,3.7001,1.06,7.3201,1.65,10.97c6.95,36,13.98,72.1801,25.97,106.9
		c13.86,36.9,30.6,73.12,53.82,105.14c10.42,13.7,21.96,26.66,35.11,37.8201c15.21,12.8899,33.34,21.6499,51.53,29.5099
		c18.7,8.1101,38.76,14.02,59.31,13.8101c20.14,0.4,40.24-3.71,58.86-11.3199c19.23-7.8201,37.17-18.3701,54.95-28.9901
		c31.13-19.2799,57.48-45.0099,83.31-70.7c15.47-15.1899,32.71-29.21,43.87-48.13c9.54-14.95,14.25-32.23,18.86-49.16
		c6.0801-23.2699,10.5801-46.9099,14.9501-70.5499c-4.1901,0.03-8.8501-2.76-9.12-7.26c-0.02-18.38,1.8899-36.6901,2.96-55.02
		c2.88-25.01,5.14-50.1801,10.64-74.79c1.77-8.39,4.34-16.58,5.96-24.99c1.9301-4.96,3.05-10.1699,4.5701-15.26
		c0.9399-3.98,2.58-7.83,2.6499-11.96c-0.12-1.78,1.5901-2.8199,2.05-4.39c1.8-6.1799,3.65-12.34,5.28-18.5499
		C1172.27,1198.36,1170.09,1204.4399,1166.92,1209.97 M626.48,1244.4399c-14.83,21.6101-28.61,44.15-38.66,68.42
		c-3.43,8.77-6.85,17.79-7.82,27.2001c3.96-0.63,7.09-3.6101,10.66-5.29c9.16-4.6901,18.2-9.79,27.94-13.2001
		c10.1801-2.96,20.78-4.5199,31.38-4.6599c0.23-5.05-1.35-9.9301-2.12-14.86c-4.62-21.2201-10.92-42.02-17.17-62.8101
		C628.82,1240.52,627.85,1242.6899,626.48,1244.4399 M1165.3101,1246.4c-1.6001,2.7999-1.88,6.12-2.77,9.1899
		c-6.3,23.62-9.5701,47.9401-12.04,72.2201c1.24,1.0499,2.77,1.6899,4.23,2.4399c8.41,4.02,16.42,8.83,24.4,13.64
		c6.9399,4.89,14.29,9.72,19.02,16.96c6.08,8.8101,10.4199,18.7101,14.1799,28.7001l0.5801,0.13
		c2.74-5.6001,4.1899-11.79,6.15-17.7001c6.36-19.99,7.09-41.1699,6.99-61.97c-0.16-10.5,0.1899-21.0701-1.63-31.4401
		c-3.67-12.8199-14.6001-22.7799-27.0701-26.8999C1186.86,1248.92,1176.0601,1247.6,1165.3101,1246.4 M641.43,1334.38
		c-1.25,4.91,0.86,9.77,1.7,14.5699c1.13,6.3,2.11,12.63,3.13,18.9601c0.1,0.97,0.6,1.7,1.49,2.1899
		c1.59-13.96,3.42-27.98,3.03-42.0499C647.15,1329.14,643.75,1331.37,641.43,1334.38 M1148.09,1348.9301
		c-0.21,3.72-0.25,7.46-0.1,11.1899l-0.71,0.2c-0.51,5.2401-0.13,10.53-0.67,15.78c-0.92,2.52-0.5499,5.27-0.67,7.91
		c0.1001,4.92-0.4199,9.87,0.13,14.78c0.5801,0.3999,1.7201,1.1899,2.3,1.59l-0.16,0.76c1.15-0.08,2.3101-0.2001,3.48-0.37
		c1.0601-11.7001,5.03-23.2001,4.1001-35c0.2999-2.05,0.11-4.22-1.1001-5.9301c0.15-1.5599-1.24-2.7799-1.97-4
		C1151.88,1353.26,1150.47,1350.4,1148.09,1348.9301z"/>
	<path fill="#F5ECE3" stroke="#F5ECE3" stroke-width="0.594" d="M915.94,418.7c13.46-3.04,27.33-3.47,41.08-3.39
		c14.41,0.25,28.57,4.65,41.18,11.52c19.44,10.44,37.42,23.48,54.14,37.85c14.0601,12.25,27.0901,25.76,38.17,40.78
		c13,18.33,23.8,38.13,33.74,58.26c9.23,19.05,18.28,38.21,26.14,57.8701c17.11,43.34,30.4299,88.15,40.64,133.59
		c-1.37-0.11-2.3401-1.19-3.4401-1.84c-18.65-12.78-39.6-21.78-61-28.84c-10.52-3.32-21.2899-6.02-32.3099-6.83
		c-17.37-1.71-34.54,3.44-50.3401,10.2c-7.84,3.51-15.7999,7.13-22.4899,12.58c-3.77,3.08-2.73,8.59-1.71,12.73
		c1.21,3.37,2.05,6.87,2.87,10.33c0.92,0.38,1.83,0.33,2.74-0.15c20-9.3,40.7001-17.91,62.61-21.38
		c10.41-1.86,20.98-0.28,31.23,1.85c21.4,4.49,42.15,11.47,63.01,17.91c3.67,1.18,7.4601,1.95,11.2001,2.9
		c15.71,64.62,29.64,129.68,44.35,194.54c0.8101,2.78,0.73,5.69-0.03,8.49c-9.53,43.25-19.22,86.54-32.22,128.91
		c-11.84,38-23.41,76.4501-42.16,111.75c-8.5499,15.88-18.4099,31.12-30.2899,44.7101c-24.8,29.13-52.24,56.1-82.7001,79.2799
		c-16.8099,13.02-33.92,25.67-51.78,37.2101c-15.12,9.4399-30.79,19.02-48.55,22.4099c-14.6,2.8101-29.49,0.8501-44.03-1.2799
		c-20.6-2.7101-41.13-7.03-61.99-6.75c-11.27-0.16-22.67-0.4-33.64-3.24c-11.19-2.77-21.49-8.12-31.7-13.3201
		c-34.73-18.4199-67.64-40.71-96.16-67.87c-25.41-24.1-44.79-54.02-58.99-85.91c-18.3-41.5199-28-86.08-37.81-130.1899
		c-4.71-20.85-7.42-42.09-9.59-63.34c-5.41-55.85-6.8-112.0099-6.9-168.09c-0.38-2.71,1.71-4.65,3.04-6.73
		c8.94-12.6,14.87-26.9399,20.87-41.08c10.85-26.17,22.79-51.87,34.32-77.75c33.03-73.03,65.99-146.1,100.5-218.45
		c10-20.82,20.01-41.66,31.07-61.94c2.9-4.99,5.5-10.26,9.35-14.61c4.78-3.66,10.76-5.4,16.61-6.5
		c12.9-2.25,26.1201-1.38,39.07,0.13c7.7401,0.58,15.02,3.63,21.95,6.96c3.54,2,7.86,1.52,11.71,0.77
		C877.22,428.5,896.33,422.55,915.94,418.7 M751.44,690.57c-18.99,2.91-37.45,8.45-55.71,14.28c-16.36,5.52-32.67,11.3-48.35,18.56
		c-2.58,1.33-5.5,2.4301-7.34,4.8c-0.2599,1.45,0.26,3.55,2.1,3.55c5.25,0.27,10.38-1.3,15.54-2.05
		c20.11-3.78,40.1-8.19,60.28-11.59c15.55-2.4,31.21-5.21,47.0099-4.65c13.3701,1.17,26.09,6.02,38.35,11.2
		c13.15,5.71,25.84,12.46,38.12,19.86c1.66,1.0099,4.4,1.24,5.81-0.29c1.27-2.93,2.11-6.04,2.88-9.13c0.78-3.77,1.29-8.5-1.94-11.3
		c-4.84-4.33-10.52-7.56-16.02-10.94c-14.11-8.04-28.93-14.98-44.55-19.49C775.94,689.82,763.53,688.52,751.44,690.57 M751.44,788.6
		c-28.77,4.76-55.24,17.79-81.12,30.62c-2.9,1.3701-6.22,0.4301-9.29,0.85c-1.71-0.22-2.54,2.18-1.3701,3.27
		c4.29,2.56,9.28,3.41,13.95,5.0699c16.96,5.45,34.1,10.39,51.45,14.4901c12.17,2.72,24.43,5.42,36.92,6.02
		c14.45,0.5,28.74-2.3,42.82-5.27c11.03-2.62,22.01-5.56,32.79-9.11c3.72-1.36,8.06-1.93,10.58-5.33c2.65-2.98,5.46-8.19,2.37-11.77
		c-5.79-4.18-12.45-7-18.82-10.18c-14.89-6.93-30.36-12.73-46.36-16.52C774.29,788.12,762.75,786.98,751.44,788.6 M1072.45,814.56
		c-17.96,2.46-34.83,9.76-50.8099,18.04c-5.32,2.91-10.76,5.72-15.54,9.4901c-3.12,2.0699-0.6,6.5699,2.15,7.66
		c12.08,5.94,24.49,11.21,37.11,15.9c17.54,6.34,35.8,11.97,54.65,11.67c28.91-0.25,57.66-4.63,85.92-10.49
		c6.1399-1.02,11.71-4.44,15.8999-8.97c1.3-1.42,2.2201-3.78,0.8301-5.45c-2.02-1.8799-4.99-1.46-7.49-1.93
		c-3.92-0.32-7.4401-2.19-11.04-3.58c-26.39-10.67-52.91-21.34-80.47-28.65C1093.5,815.7,1082.98,813.15,1072.45,814.56
		 M872.34,819.29c-1.53,0.63-1.17,2.35-1.19,3.68c1.31,21.66,2.67,43.34,3.0099,65.05c0.19,10.6,0.46,21.25-0.58,31.82
		c-2.49,13.12-9.8,24.7-17.2,35.59c-1.66,2.8-4.28,4.72-7.39,5.64c-2.22,0.18-2.22,3.79,0.09,3.69c3.67-0.27,7.13-2.4,9.25-5.39
		c5.49-7.45,10.31-15.41,14.23-23.8c2.96-6.46,5.26-13.37,5.38-20.54c0.88-30.3701-0.93-60.73-2.78-91.03
		C875.03,822.15,875.13,818.63,872.34,819.29 M821.27,1006.21c-4.26,7.61-8.08,16.56-5.69,25.41c1.73,6.58,4.31,13.63,10.02,17.8
		c2.65,2.0699,6.38,2.0499,9.28,0.48c6.46-3.28,11.27-9.3301,18.25-11.6801c5.71-1.51,10.1,3.39,13.13,7.51
		c5.16,6.39,9.19,14.84,17.57,17.51c8.6,3.45,18.21,2.91,27.02,0.63c9.98-3.12,17.19-11.5599,27.05-14.92
		c6.36-2.13,12.7599,1.0701,18.39,3.79c4,1.8201,8.01,4.63,12.61,4.1901c7.3199-1.4,13.58-7.5801,14.94-14.9301
		c0.22-8.66-2.6801-17.0601-5.76-25.05c-1.58-4.35-5.08-7.54-8.61-10.34c-1.43-1.22-3.33-2.48-5.17-1.28
		c0.03,0.57,0.08,1.7,0.11,2.26c2.05,1.96,4.55,3.4,6.5,5.49c3.5,3.41,4.65,8.34,6.21,12.8c1.52,5.1899,3.18,10.58,2.73,16.05
		c-1.35,5.23-5.69,9.6899-10.95,11c-3.52,0.4399-6.58-1.7201-9.63-3.0901c-6.35-3.1-13.33-6.71-20.61-5.14
		c-10.54,2.4301-17.93,11.2201-27.8199,15.0601c-9.58,2.8199-20.67,3.25-29.47-2.08c-7.67-5.78-10.9-15.7101-18.78-21.26
		c-3.14-2.3-7.34-3.12-11.04-1.8101c-7.25,2.36-12.16,8.72-18.9,12c-3.45,1.65-6.5-1.39-8.28-4.01
		c-3.01-4.6699-5.03-10.0499-5.58-15.58c-0.55-6.97,3.17-13.18,5.87-19.31C825.58,1005.56,822.28,1004.25,821.27,1006.21
		 M844.51,1123.6801c-24.38,2.4199-48.41,7.36-72.59,11.1899c-8.02,1.66-15.94-1.14-23.87-1.8c-3.92-0.47-4.07,4.76-1.79,6.7201
		c2,1.6599,4.43,2.7899,6.17,4.7799c12.35,13.16,27.61,23.2001,43.51,31.55c21.18,10.92,44.41,17.61,67.95,20.98
		c10.2,1.62,20.48-0.0499,30.6-1.46c10.86-1.53,21.78,0.16,32.5,1.98c13.69,2.28,27.68,0.55,41.09-2.58
		c21.13-5.4301,41.57-13.3,61.22-22.75c12.5199-5.7201,24.58-12.8201,34.6499-22.29c2.01-1.27,1.4301-4.7-1.08-4.76
		c-6.26-0.77-12.5699,0.34-18.85,0.08c-9.16,0.1001-17.71-3.58-26.41-5.9299c-19.78-5.6901-39.81-12.4-60.63-12.05
		c-17.11,0.3201-33.76,6.03-50.94,4.85c-10.4-0.3899-20.39-3.4199-30.4-5.96C865.5,1123.63,854.94,1122.6,844.51,1123.6801z"/>
	<path fill="#F5ECE3" stroke="#F5ECE3" stroke-width="0.594" d="M517.35,823.34c1.44-2.9,3.2401-6.48,6.75-7.1201
		c4.09,0.84,7.46,3.59,10.86,5.8701c7.57,5.69,14.93,11.71,21.81,18.22c-0.53,2.98-2.02,5.67-3.01,8.52
		c-1.66,3.53-1.88,7.48-3.09,11.16c-1.75-2.41-2.14-5.48-3.55-8.06c-3.27-6.8-9.62-11.28-15.69-15.38
		c-1.89-1.14-3.85-2.85-6.22-2.29c-0.66,1.3-0.58,2.93,0.96,3.55c5.33,3.56,10.98,6.93,15,12.05c2.88,3.62,4.4,8.08,5.38,12.56
		c3.57,16.72,5.18,33.76,7.22,50.72c1.21,12.26,3.08,24.5,2.87,36.85c-0.07,5.9,0.05,11.99-1.98,17.62
		c-1.8199,4.58-7.2,6.36-9.27,10.79c-1.07,2.28-0.9,4.93-0.12,7.29c2.56,7.72,8.3,14.1,9.85,22.21c0.86,4.49,2.16,9.11,1.46,13.72
		c-1.41,2.87-5.58,2.67-8.17,1.86c-0.92-2.26-1.17-4.69-1.92-6.98c-0.97-0.5-1.94-0.46-2.92,0.1c-0.92,4.2,0.45,10.7101,5.62,11.17
		c3.97,0.4199,9.25-0.3,11.04-4.43c1.27-5.3701-0.28-10.89-1.27-16.1801c-1.39-7.62-6.23-13.86-9.27-20.81
		c-0.92-2.15-1.74-4.8-0.36-6.92c2.69-3.62,7.27-5.73,8.92-10.13c2.28-6.15,2.15-12.84,2.27-19.3c0.18-15.45-2.35-30.74-3.83-46.07
		c-1.16-11.17-3.03-22.29-4.25-33.41c4.65-4.55,8.31-9.95,12.68-14.72c0.59,60.47,1.83,121.09,8.89,181.21
		c0.28,4.48-1.39,8.78-2.9,12.91c-2.77,6.8099-5.38,13.72-9.03,20.12c-1,1.4399-1.98,3.63-4.08,3.48
		c-3.98-0.24-7.44-2.62-10.23-5.28c-2.85-2.47-3.31-6.41-4.29-9.8199c-3.18-13.36-5.98-26.8101-8.6-40.29
		c-3.61-19.07-7.54-38.11-10.65-57.25c2.43-16.87,5.57-33.95,4.03-51.06c-3.04-22-10.12-43.18-14.12-64.99
		C512.62,837.54,514.51,830.05,517.35,823.34 M529.03,857.97c-1.2,2.01,1.21,3.42,2.49,4.53c3.47,2.78,7.93,6.01,12.59,4.62
		c1.85-3.4-2.94-3.42-4.94-4.31C535.49,861.88,533.05,856.46,529.03,857.97 M530.02,870.25c-0.74,1.11-0.68,2.21,0.21,3.29
		c3.48,0.84,7.3,0.84,10.43,2.78c2.55,2.42,1.97,6.25,2.8,9.38c0.54,1.71,3.7599,1.15,3.5-0.72c0.25-5-1.22-11.53-6.63-13.25
		C537.03,870.69,533.5,869.6,530.02,870.25z"/>
	<path fill="#F5ECE3" stroke="#F5ECE3" stroke-width="0.594" d="M1268.7,872.68c2.1101-3.94,4.4-9.01,9.4301-9.59
		c8.45-1.25,17.67,0.98,24.26,6.53c2.83,2.1,3.0499,5.89,2.23,9.06c-2.26,9.36-6.59,18.02-9.9399,27
		c-3.3601,8.5-6.0801,17.28-7.53,26.32c-2.8301,16.9-4.29,33.99-6.16,51.01c-1.03,9.2-1.89,18.49-4.55,27.39
		c-2.2699,8.2599-5.6799,16.1699-7.6399,24.52c-3.0701,12.61-4.5901,25.61-8.91,37.8999c-5.1801,10.4301-13.48,20.4401-25.05,23.77
		c-7.61,1.24-15.2899-0.9299-22.5699-2.98c-1.39-2.28-0.3201-4.9,0.3099-7.21c4.53-15.05,8.54-30.26,12.28-45.53
		c5.4401-22.58,10.96-45.14,15.6-67.89c2.65,8.13,4.12,16.66,6.0601,25c-0.8301,1.64-2.0801,3.14-2.23,5.05
		c-1.1001,6.92-1.98,13.95-1.52,20.98c0.64,8.65,5.33,16.21,7.6699,24.42c1.3501,4.38-1.7999,8.3999-4.3199,11.6699
		c-1.1801,1.72-3.47,3.27-2.8199,5.65c2.4399,1.62,4.26-1.17,5.6399-2.8c3.3201-4.2699,7.01-9.6,5.3401-15.2799
		c-2.36-8.9501-7.9501-17.14-7.7001-26.6801c0.2301-5.35-0.08-10.95,1.88-16.02c1.9601,9.76,4.4401,19.4501,7.61,28.89
		c0.3501,2.14,2.7401,3.5,4.52,1.83c2.5601-9.23-0.23-18.7899-1.01-28.08c-1.6699-14.53-4.0499-28.97-6.0599-43.46
		c-0.8101-2.33,2.36-2.9901,2.54-5.09c3.7699-18.2,8.3899-36.21,12.9199-54.24c1.75-6.27,3.17-12.75,6.27-18.52
		c3.67-5.54,10.52-7.26,16.2-9.94c1.9501-0.96,0.74-4.31-1.4199-3.25c-5.0801,1.29-9.89,3.75-14.15,6.78
		c-4.36,3.11-6.1,8.43-7.64,13.31c-3.85,12.53-6.58,25.36-9.9299,38.02c-2.26,8.51-3.65,17.28-6,25.72
		c-0.9301-6.68-2.03-13.33-3.04-19.99c-0.77-4.22,0.37-8.41,1.14-12.53C1253.63,906.32,1260.73,889.16,1268.7,872.68
		 M1291.16,887.04c-1.98,5.15-2.91,10.71-5.51,15.63c-2.13,3.76-5.76,6.28-9.11,8.87c-1.28,0.62-1.75,1.98-1.36,3.33
		c1.59,1.27,3.3899,0.02,4.74-0.97c4.1699-3.09,8.38-6.64,10.3099-11.62c1.67-4.32,3.1-8.76,4.11-13.28
		C1295.1801,886.93,1292.58,885.69,1291.16,887.04 M1284.46,915.42c-3.96,2.97-7.47,6.55-11.02,9.98
		c-1.33,1.73,0.4801,3.95,2.4401,2.7599c3.52-2.52,6.13-6.12,9.77-8.5099c0.78-0.71,2.5399-1.21,2.0699-2.6
		C1287.66,915.46,1285.6899,914.99,1284.46,915.42z"/>
	<path fill="#F5ECE3" stroke="#F5ECE3" stroke-width="0.594" d="M1166.92,1209.97c3.1699-5.53,5.35-11.61,8.87-16.9099
		c-1.63,6.21-3.48,12.37-5.28,18.5499c-0.46,1.5701-2.17,2.61-2.05,4.39c-0.0699,4.13-1.71,7.98-2.6499,11.96
		c-1.52,5.0901-2.64,10.3-4.5701,15.26c-1.62,8.41-4.1899,16.6-5.96,24.99c-5.5,24.61-7.76,49.78-10.64,74.79
		c-1.0701,18.33-2.98,36.64-2.96,55.02c0.2699,4.5,4.9299,7.29,9.12,7.26c-4.37,23.64-8.87,47.28-14.9501,70.5499
		c-4.61,16.9301-9.3199,34.2101-18.86,49.16c-11.16,18.92-28.4,32.9401-43.87,48.13c-25.83,25.6901-52.18,51.42-83.31,70.7
		c-17.78,10.62-35.72,21.17-54.95,28.9901c-18.62,7.61-38.72,11.72-58.86,11.3199c-20.55,0.21-40.61-5.7-59.31-13.8101
		c-18.19-7.86-36.32-16.62-51.53-29.5099c-13.15-11.16-24.69-24.1201-35.11-37.8201c-23.22-32.02-39.96-68.24-53.82-105.14
		c-11.99-34.72-19.02-70.9-25.97-106.9c-0.59-3.6499-1.63-7.2699-1.65-10.97c1.4-3.5499,2.91-7.09,3.23-10.9299
		c2.96-22.4801,5.19-45.67-0.05-68c-2.86-12.8101-6.19-25.52-9.8-38.13c-0.9-3.5901-2.46-7.01-2.72-10.7301
		c9.86,15.29,20.67,30.0701,33.45,43.0801c26.92,27.51,58.63,49.9399,91.98,68.97c13.67,7.48,27.44,15.22,42.47,19.64
		c11.95,3.41,24.46,3.8199,36.81,3.89c22.57-0.0801,44.73,4.6799,67.02,7.51c15,2.36,30.63,3.1899,45.42-0.8201
		c17.28-4.48,32.45-14.25,47.41-23.61c17.13-11.3199,33.6299-23.5699,49.8599-36.13c29.8-22.87,56.8101-49.25,81.1801-77.8099
		C1147.51,1242.71,1157.9399,1226.6899,1166.92,1209.97z"/>
	<path fill="#3E4247" stroke="#3E4247" stroke-width="0.594" d="M775.98,421.92c3.89-1.12,7.9-2.22,11.99-1.99l-0.04,0.88
		c-6.73,0.3-12.99,2.9-19.14,5.37C770.08,423.53,773.45,422.92,775.98,421.92z"/>
	<path fill="#7C7C7C" stroke="#7C7C7C" stroke-width="0.594" d="M1182.09,565.21C1185.29,565.44,1180.5699,568.31,1182.09,565.21z"
		/>
	<path fill="#000001" stroke="#000001" stroke-width="0.594" d="M751.44,690.57c12.09-2.05,24.5-0.75,36.18,2.81
		c15.62,4.51,30.44,11.45,44.55,19.49c5.5,3.38,11.18,6.61,16.02,10.94c3.23,2.8,2.72,7.53,1.94,11.3c-0.77,3.09-1.61,6.2-2.88,9.13
		c-1.41,1.53-4.15,1.3-5.81,0.29c-12.28-7.4-24.97-14.15-38.12-19.86c-12.26-5.18-24.98-10.03-38.35-11.2
		c-15.8-0.56-31.46,2.25-47.0099,4.65c-20.18,3.4-40.17,7.81-60.28,11.59c-5.16,0.75-10.29,2.32-15.54,2.05
		c-1.84,0-2.36-2.1-2.1-3.55c1.84-2.37,4.76-3.47,7.34-4.8c15.68-7.2599,31.99-13.04,48.35-18.56
		C713.99,699.02,732.45,693.48,751.44,690.57z"/>
	<path fill="#F4ECE3" stroke="#F4ECE3" stroke-width="0.594" d="M1219.15,753.45l0.5-0.2c1.7,11.15,4.8099,22.07,7.0499,33.14
		c8.76,37.81,17.01,75.87,26.1901,113.51c-1.48,5.4-4.04,10.5099-4.8,16.11c-0.38,1.66-0.2999,3.61-1.61,4.9
		c-0.96-9.69-2.96-19.23-4.45-28.84c-4.0801-24.98-8.27-49.93-12.4601-74.88C1225.91,795.97,1222.01,774.77,1219.15,753.45z"/>
	<path fill="#686868" stroke="#686868" stroke-width="0.594" d="M1186.27,758.1C1189.3101,756.58,1186.45,761.34,1186.27,758.1z"/>
	<path fill="#010101" stroke="#010101" stroke-width="0.594" d="M751.44,788.6c11.31-1.62,22.85-0.48,33.92,2.14
		c16,3.79,31.47,9.59,46.36,16.52c6.3701,3.18,13.03,6,18.82,10.18c3.09,3.58,0.28,8.79-2.37,11.77c-2.52,3.4-6.86,3.97-10.58,5.33
		c-10.78,3.55-21.76,6.4901-32.79,9.11c-14.08,2.97-28.37,5.77-42.82,5.27c-12.49-0.6-24.75-3.3-36.92-6.02
		c-17.35-4.1-34.49-9.04-51.45-14.4901c-4.67-1.66-9.66-2.5099-13.95-5.0699c-1.17-1.09-0.34-3.4901,1.3701-3.27
		c3.0699-0.42,6.39,0.52,9.29-0.85C696.2,806.39,722.67,793.36,751.44,788.6 M744.11,795.96c-2.06-0.05-4.66-0.6-6.27,1
		c-15.76,2.77-30.57,9.3-45.13,15.72c-2.86,0.86-3.96,3.85-4.9901,6.35c-0.58,3.04,1.08,6.06,2.79,8.47
		c14.66,3.94,29.57,7.03,44.56,9.43c0.69,0.04,2.07,0.11,2.76,0.15l0.48,0.5c8.84,1.38,17.8,2.28,26.74,2.39
		c6.24-0.9,12.72-0.1899,18.79-2.0699c4.56,0.04,9.0699-0.6801,13.5699-1.4c11.47-1.87,22.94-4.2,33.91-8.14
		c3.42-1.44,7.24-2.63,9.7-5.57c1.29-2.2-1.41-3.83-2.83-5.03c-7.65-5.32-16.46-8.65-25.17-11.79c-9.8-3.27-19.76-6.5699-30.04-7.81
		c-1.72-1.25-3.96-1.03-5.95-1.22c-7.77-1.96-15.9901-2.21-24-2.21C750.09,795.06,746.77,794.5,744.11,795.96z"/>
	<path fill="#010101" stroke="#010101" stroke-width="0.594" d="M1072.45,814.56c10.53-1.41,21.05,1.14,31.2101,3.69
		c27.5599,7.31,54.08,17.98,80.47,28.65c3.6,1.39,7.12,3.2599,11.04,3.58c2.5,0.47,5.47,0.05,7.49,1.93
		c1.39,1.67,0.47,4.03-0.8301,5.45c-4.1899,4.53-9.76,7.95-15.8999,8.97c-28.26,5.86-57.01,10.24-85.92,10.49
		c-18.85,0.3-37.11-5.33-54.65-11.67c-12.62-4.69-25.03-9.96-37.11-15.9c-2.75-1.09-5.27-5.59-2.15-7.66
		c4.78-3.77,10.22-6.58,15.54-9.4901C1037.62,824.32,1054.49,817.02,1072.45,814.56 M1068.87,824.01
		c-7.2,0.75-14.12,3.21-20.73,6.09c-10.4401,3.6-20.3101,8.69-29.93,14.07l0.08,0.68c15.8,6.9901,31.84,13.76,48.57,18.19
		c13.6,4.79,28.47,6.79,42.9301,5.65c14.08,0.91,28.1599-0.9,42.13-2.49c7.1599-1.15,14.5699-1.32,21.51-3.5
		c1.38-3.75,2.3199-7.58,1.3999-11.58c-4.22-2.72-9.08-4.29-13.6899-6.22c-12.66-4.91-25.4301-9.59-38.4301-13.4901
		c-3.02-1.02-6.27-2.56-9.4299-2.34c-0.8-1.33-2.62-1.07-3.87-1.6c-11.2101-2.7599-22.74-5.67-34.35-4.58
		C1073.02,823.23,1070.5699,822.72,1068.87,824.01 M1099.91,871.92c0.0299,0.52,0.09,1.55,0.13,2.06
		c4.37,0.66,8.5399-1.41,12.9099-1.04c2.92,0.11,5.87,0.36,8.79-0.04l0.1-0.79c-3.9399-0.52-7.9099-0.04-11.86,0.04
		C1106.61,872.21,1103.26,871.57,1099.91,871.92z"/>
	<path fill="#B3A17C" stroke="#B3A17C" stroke-width="0.594" d="M744.11,795.96c2.66-1.46,5.98-0.9,8.92-1.23
		c8.0099,0,16.23,0.25,24,2.21c3.78,3.69,5.46,9.45,2.92,14.34l-0.85,0.0099c-1.92-2.21-3.34-4.87-5.53-6.82
		c-1.08-0.14-2.15-0.15-3.21-0.28c-0.68-0.86-1.26-1.8-1.92-2.65c-2.82-0.45-5.49-1.63-8.24-2.15c-3.64,1.39-7.44,2.16-11.2,3.11
		c-1.74,0.26-1.89,2.44-3.28,3.2c-1.11,0.64-2.28,1.16-3.3799,1.8c-0.39,2.2,0.28,4.43,0.53,6.63c-1.43-1.6-2.67-3.36-3.72-5.22
		c-0.54-3.5,0.13-6.98,1.64-10.14C741.91,797.85,743,796.89,744.11,795.96z"/>
	<path fill="#60624A" stroke="#60624A" stroke-width="0.594" d="M737.84,796.96c1.61-1.6,4.21-1.05,6.27-1
		c-1.11,0.93-2.2,1.89-3.32,2.81c-5.57,2.08-8.2599,8.09-9.79,13.42c-2.83,8.8,1.16,18.15,6.83,24.89
		c-0.69-0.04-2.07-0.11-2.76-0.15c-6.58-7.29-9.62-18.3-5.8-27.62C730.88,804.44,734.3,800.55,737.84,796.96z"/>
	<path fill="#FFFFFE" stroke="#FFFFFE" stroke-width="0.594" d="M692.71,812.68c14.56-6.42,29.37-12.95,45.13-15.72
		c-3.54,3.59-6.96,7.48-8.57,12.35c-3.82,9.32-0.78,20.33,5.8,27.62c-14.99-2.4-29.9-5.49-44.56-9.43
		c-1.71-2.41-3.37-5.43-2.79-8.47C688.75,816.53,689.85,813.54,692.71,812.68z"/>
	<path fill="#FFFFFE" stroke="#FFFFFE" stroke-width="0.594" d="M782.98,798.16c10.28,1.2401,20.24,4.54,30.04,7.81
		c8.71,3.14,17.52,6.47,25.17,11.79c1.42,1.2,4.12,2.83,2.83,5.03c-2.46,2.94-6.28,4.13-9.7,5.57c-10.97,3.94-22.44,6.27-33.91,8.14
		c-4.5,0.72-9.0099,1.44-13.5699,1.4C795.66,828.03,795.41,807.44,782.98,798.16z"/>
	<path fill="#9A8B5A" stroke="#9A8B5A" stroke-width="0.594" d="M777.03,796.94c1.99,0.19,4.23-0.03,5.95,1.22
		c12.43,9.28,12.68,29.8701,0.86,39.7401c-6.07,1.88-12.55,1.17-18.79,2.0699c-8.94-0.11-17.9-1.0099-26.74-2.39l-0.48-0.5
		c-5.67-6.74-9.66-16.09-6.83-24.89c1.53-5.33,4.22-11.34,9.79-13.42c-1.5099,3.16-2.18,6.64-1.64,10.14
		c-1.6801,7.02-0.9,14.83,2.88,21.04c7.09,8.97,20.16,8.98,30,5.11c3.48-1.03,4.8199-4.76,6.47-7.61c2.61-4.85,5.16-11.2,1.45-16.17
		C782.49,806.39,780.81,800.63,777.03,796.94z"/>
	<path fill="#C59E84" stroke="#C59E84" stroke-width="0.594" d="M749,802.5c3.76-0.95,7.56-1.72,11.2-3.11
		c2.75,0.52,5.42,1.7,8.24,2.15c0.66,0.85,1.24,1.79,1.92,2.65c1.06,0.13,2.13,0.14,3.21,0.28c2.19,1.95,3.61,4.61,5.53,6.82
		c-1.81,3.25-4.53,5.85-8.09,7.06c-1.24-2.7-2.15-5.86-4.82-7.5099c-5.68-4.01-15.3-0.94-16.32,6.34c-2.75,1.28-5.41-0.99-7-3.05
		c-0.25-2.2-0.92-4.43-0.53-6.63c1.1-0.64,2.27-1.16,3.3799-1.8C747.11,804.94,747.26,802.76,749,802.5z"/>
	<path fill="#C59E84" stroke="#C59E84" stroke-width="0.594" d="M1077.46,831.47c3.0601-4.83,9.26-5.73,14.52-5.8799
		c4.88,1.33,9.5701,3.3199,14.3301,5.04c0.9299,2.91,3.7799,4.95,3.7699,8.17c-1.6899,2.6-4.0399,4.63-7,5.63
		c-1.2999-2.71-2.1799-5.98-4.9099-7.62c-5.74-3.84-15.13-0.92-16.3301,6.29c-3.77,2.1801-6.6599-2.8199-9.09-5
		C1073.54,835.35,1074.86,832.86,1077.46,831.47z"/>
	<path fill="#B48663" stroke="#B48663" stroke-width="0.594" d="M739.15,808.91c1.05,1.86,2.29,3.6201,3.72,5.22
		c1.59,2.06,4.25,4.33,7,3.05c0.04,0.44,0.12,1.32,0.16,1.76c-0.1201,6.43,7.56,10.13,13.14,8.29c3.58-0.85,6.13-3.91,7.18-7.32
		c0.17-0.39,0.5-1.17,0.66-1.56c3.56-1.21,6.28-3.81,8.09-7.06l0.85-0.0099c3.71,4.97,1.16,11.3199-1.45,16.17
		c-1.65,2.85-2.99,6.58-6.47,7.61c-9.84,3.87-22.91,3.86-30-5.11C738.25,823.74,737.47,815.93,739.15,808.91z"/>
	<path fill="#535D4D" stroke="#535D4D" stroke-width="0.594" d="M749.87,817.18c1.02-7.28,10.64-10.35,16.32-6.34
		c2.67,1.65,3.58,4.81,4.82,7.5099c-0.16,0.39-0.49,1.17-0.66,1.56c-2.0099-1-4.25-0.28-6.34-0.14c-4.68,0.57-9.39,0.07-13.98-0.83
		C749.99,818.5,749.91,817.62,749.87,817.18z"/>
	<path fill="#2B3921" stroke="#2B3921" stroke-width="0.594" d="M750.03,818.94c4.59,0.9,9.3,1.4,13.98,0.83
		c2.09-0.14,4.33-0.86,6.34,0.14c-1.05,3.41-3.6,6.47-7.18,7.32C757.59,829.07,749.91,825.37,750.03,818.94z"/>
	<path fill="#020100" stroke="#020100" stroke-width="0.594" d="M872.34,819.29c2.79-0.66,2.69,2.86,2.8199,4.71
		c1.85,30.3,3.66,60.66,2.78,91.03c-0.12,7.17-2.42,14.08-5.38,20.54c-3.92,8.39-8.74,16.35-14.23,23.8
		c-2.12,2.99-5.58,5.12-9.25,5.39c-2.31,0.1-2.31-3.51-0.09-3.69c3.11-0.92,5.73-2.84,7.39-5.64c7.4-10.89,14.71-22.47,17.2-35.59
		c1.04-10.57,0.77-21.22,0.58-31.82c-0.34-21.71-1.7-43.39-3.0099-65.05C871.17,821.64,870.81,819.92,872.34,819.29z"/>
	<path fill="#998A5A" stroke="#998A5A" stroke-width="0.594" d="M1068.87,824.01c1.7-1.29,4.15-0.78,6.1901-1.12
		c-3.9401,3.81-5.03,9.57-3.05,14.64c-2.86,2.24-2.22,6.25-1.33,9.3199c1.0199,2.4,1.1899,5.02,1.87,7.52
		c4.8099,2.03,7.08,7.81,12.48,8.63c8.0599,1.95,17.34,0.29,23.6699-5.29c3.8301-3.13,5.1101-8.38,5.05-13.13
		c0.64-3.03-1.51-5.71-1.03-8.71c0.28-2.27,0.4401-4.54,0.5601-6.8c3.1599-0.22,6.4099,1.32,9.4299,2.34
		c-0.6699,3.61,1.89,6.91,1.7201,10.55c1.21,10.82-5.2401,21.62-14.64,26.73c-14.4601,1.14-29.3301-0.86-42.9301-5.65
		c-3.9299-4.85-7.0499-10.63-7.28-16.99C1058.8199,837.74,1062.72,829.47,1068.87,824.01z"/>
	<path fill="#B4A17E" stroke="#B4A17E" stroke-width="0.594" d="M1075.0601,822.89c11.61-1.09,23.1399,1.82,34.35,4.58
		c1.25,0.53,3.0699,0.27,3.87,1.6c-0.12,2.26-0.28,4.53-0.5601,6.8c-0.89,0.97-1.7899,1.93-2.64,2.93
		c0.01-3.22-2.84-5.26-3.7699-8.17c-4.76-1.72-9.4501-3.71-14.3301-5.04c-5.26,0.15-11.46,1.05-14.52,5.8799
		c-2.6,1.39-3.9199,3.88-4.71,6.63l-0.74-0.5699C1070.03,832.46,1071.12,826.7,1075.0601,822.89z"/>
	<path fill="#FEFEFE" stroke="#FEFEFE" stroke-width="0.594" d="M1048.14,830.1c6.61-2.88,13.53-5.34,20.73-6.09
		c-6.15,5.46-10.05,13.73-9.29,22.04c0.2301,6.36,3.3501,12.14,7.28,16.99c-16.73-4.43-32.77-11.2-48.57-18.19l-0.08-0.68
		C1027.83,838.79,1037.7,833.7,1048.14,830.1z"/>
	<path fill="#FFFFFF" stroke="#FFFFFF" stroke-width="0.594" d="M1124.4301,841.96c0.1699-3.64-2.39-6.94-1.7201-10.55
		c13,3.9,25.77,8.58,38.4301,13.4901c4.61,1.93,9.47,3.5,13.6899,6.22c0.92,4-0.0199,7.83-1.3999,11.58
		c-6.9401,2.18-14.3501,2.35-21.51,3.5c-13.9701,1.59-28.05,3.4-42.13,2.49C1119.1899,863.58,1125.64,852.78,1124.4301,841.96z"/>
	<path fill="#545D4D" stroke="#545D4D" stroke-width="0.594" d="M1081.84,843.1c1.2001-7.21,10.5901-10.13,16.3301-6.29
		c2.73,1.64,3.61,4.91,4.9099,7.62c-0.1699,0.36-0.5199,1.1-0.6899,1.46c-2.05-0.87-4.26-0.3-6.36-0.16
		c-4.6901,0.47-9.41,0.03-14.02-0.8C1081.97,844.47,1081.88,843.56,1081.84,843.1z"/>
	<path fill="#B38663" stroke="#B38663" stroke-width="0.594" d="M1110.08,838.8c0.8501-1,1.75-1.96,2.64-2.93
		c-0.48,3,1.67,5.68,1.03,8.71c0.0601,4.75-1.22,10-5.05,13.13c-6.33,5.58-15.61,7.24-23.6699,5.29c-5.4-0.82-7.67-6.6-12.48-8.63
		c-0.6801-2.5-0.8501-5.12-1.87-7.52c-0.89-3.0699-1.53-7.08,1.33-9.3199l0.74,0.5699c2.4301,2.1801,5.3199,7.1801,9.09,5
		c0.04,0.46,0.13,1.37,0.17,1.83c-0.0701,6.45,7.55,10.13,13.16,8.32c3.6-0.87,6.0499-3.99,7.22-7.36
		c0.17-0.36,0.52-1.1,0.6899-1.46C1106.04,843.43,1108.39,841.4,1110.08,838.8z"/>
	<path fill="#2B3922" stroke="#2B3922" stroke-width="0.594" d="M1082.01,844.93c4.61,0.83,9.33,1.27,14.02,0.8
		c2.1-0.14,4.3099-0.71,6.36,0.16c-1.17,3.37-3.62,6.49-7.22,7.36C1089.5601,855.06,1081.9399,851.38,1082.01,844.93z"/>
	<path fill="#040201" stroke="#040201" stroke-width="0.594" d="M529.03,857.97c4.02-1.5099,6.46,3.91,10.14,4.84
		c2,0.89,6.79,0.91,4.94,4.31c-4.66,1.39-9.12-1.84-12.59-4.62C530.24,861.39,527.83,859.98,529.03,857.97z"/>
	<path fill="#040201" stroke="#040201" stroke-width="0.594" d="M530.02,870.25c3.48-0.65,7.01,0.44,10.31,1.48
		c5.41,1.72,6.88,8.25,6.63,13.25c0.2599,1.87-2.96,2.43-3.5,0.72c-0.83-3.13-0.25-6.96-2.8-9.38c-3.1299-1.94-6.95-1.94-10.43-2.78
		C529.34,872.46,529.28,871.36,530.02,870.25z"/>
	<path fill="#1B1B1B" stroke="#1B1B1B" stroke-width="0.594" d="M1099.91,871.92c3.35-0.35,6.7,0.29,10.0699,0.23
		c3.9501-0.08,7.92-0.56,11.86-0.04l-0.1,0.79c-2.92,0.4-5.87,0.15-8.79,0.04c-4.37-0.37-8.5399,1.7-12.9099,1.04
		C1100,873.47,1099.9399,872.44,1099.91,871.92z"/>
	<path fill="#030101" stroke="#030101" stroke-width="0.594" d="M1291.16,887.04c1.4199-1.35,4.02-0.11,3.1799,1.96
		c-1.01,4.52-2.4399,8.96-4.11,13.28c-1.9299,4.98-6.14,8.53-10.3099,11.62c-1.3501,0.99-3.15,2.24-4.74,0.97
		c-0.39-1.35,0.08-2.71,1.36-3.33c3.35-2.59,6.98-5.11,9.11-8.87C1288.25,897.75,1289.1801,892.19,1291.16,887.04z"/>
	<path fill="#030100" stroke="#030100" stroke-width="0.594" d="M1284.46,915.42c1.23-0.43,3.2001,0.04,3.26,1.63
		c0.47,1.39-1.2899,1.89-2.0699,2.6c-3.64,2.39-6.25,5.99-9.77,8.5099c-1.96,1.19-3.77-1.03-2.4401-2.7599
		C1276.99,921.97,1280.5,918.39,1284.46,915.42z"/>
	<path fill="#030201" stroke="#030201" stroke-width="0.594" d="M821.27,1006.21c1.01-1.96,4.31-0.65,3.39,1.5
		c-2.7,6.13-6.42,12.34-5.87,19.31c0.55,5.53,2.57,10.91,5.58,15.58c1.78,2.62,4.83,5.66,8.28,4.01c6.74-3.28,11.65-9.64,18.9-12
		c3.7-1.3099,7.9-0.49,11.04,1.8101c7.8799,5.5499,11.11,15.48,18.78,21.26c8.8,5.33,19.89,4.8999,29.47,2.08
		c9.89-3.84,17.28-12.63,27.8199-15.0601c7.28-1.5699,14.26,2.04,20.61,5.14c3.05,1.37,6.11,3.53,9.63,3.0901
		c5.2599-1.3101,9.6-5.77,10.95-11c0.45-5.4701-1.21-10.8601-2.73-16.05c-1.56-4.46-2.71-9.39-6.21-12.8
		c-1.95-2.09-4.45-3.53-6.5-5.49c-0.03-0.56-0.08-1.69-0.11-2.26c1.84-1.2,3.74,0.06,5.17,1.28c3.53,2.8,7.03,5.99,8.61,10.34
		c3.08,7.9899,5.98,16.39,5.76,25.05c-1.36,7.35-7.6201,13.53-14.94,14.9301c-4.6,0.4399-8.61-2.37-12.61-4.1901
		c-5.63-2.72-12.03-5.92-18.39-3.79c-9.86,3.3601-17.07,11.8-27.05,14.92c-8.81,2.28-18.42,2.8199-27.02-0.63
		c-8.38-2.67-12.41-11.12-17.57-17.51c-3.03-4.12-7.42-9.02-13.13-7.51c-6.98,2.35-11.79,8.4-18.25,11.6801
		c-2.9,1.5699-6.63,1.59-9.28-0.48c-5.71-4.17-8.29-11.2201-10.02-17.8C813.19,1022.77,817.01,1013.82,821.27,1006.21z"/>
	<path fill="#060100" stroke="#060100" stroke-width="0.594" d="M844.51,1123.6801c10.43-1.0801,20.99-0.05,31.13,2.5499
		c10.01,2.54,20,5.5701,30.4,5.96c17.18,1.1801,33.83-4.5299,50.94-4.85c20.82-0.35,40.85,6.36,60.63,12.05
		c8.7001,2.35,17.25,6.03,26.41,5.9299c6.28,0.26,12.59-0.85,18.85-0.08c2.51,0.0601,3.09,3.49,1.08,4.76
		c-10.0699,9.47-22.13,16.5699-34.6499,22.29c-19.65,9.45-40.09,17.3199-61.22,22.75c-13.41,3.13-27.4,4.86-41.09,2.58
		c-10.72-1.8199-21.64-3.51-32.5-1.98c-10.12,1.41-20.4,3.08-30.6,1.46c-23.54-3.37-46.77-10.0599-67.95-20.98
		c-15.9-8.35-31.16-18.39-43.51-31.55c-1.74-1.99-4.17-3.12-6.17-4.7799c-2.28-1.9601-2.13-7.1901,1.79-6.7201
		c7.93,0.66,15.85,3.4601,23.87,1.8C796.1,1131.04,820.13,1126.1,844.51,1123.6801 M838.3,1128.34
		c-16.88,1.9601-33.58,5.0701-50.34,7.8c-9.55,1.5599-19.12,4.1-28.87,2.95c0.45,1.41,2.59,0.6,3.75,1.14
		c13.92,2.74,28.05,4.09,42.14,5.64c22.35,2.62,44.84,3.7,67.31,4.77c26.22,1.42,52.47,1.99,78.72,2.65
		c27,0.1499,54,1.0599,81.01,0.38c7.1899,0.1899,14.53-1.27,20.96-4.4801c-6.9399-0.0099-14.02,0.4601-20.78-1.4399
		c-22.21-6.03-44.0499-14.35-67.14-16.35c-19.9-1.55-39.14,6.0599-59.03,4.73c-13.52-0.27-26.17-5.51-39.36-7.75
		C857.31,1126.6899,847.67,1126.91,838.3,1128.34 M754.28,1138.21c0.34,1.2001,1.17,1.4,2.5,0.6001
		C756.41,1137.58,755.58,1137.38,754.28,1138.21 M758.91,1144.84c2.03,3.27,5.34,5.4701,8.16,8.04c8.9,7.04,18.48,13.24,28.49,18.59
		c17.02,9.24,35.64,15.1801,54.5,19.3101c8.58,1.52,17.21,3.4,25.98,3.03c6.02-0.0901,11.9-1.53,17.88-2.0701
		c11.16-1.38,22.4-0.02,33.41,1.91c11.87,2.16,24.05,0.83,35.79-1.53c23.57-5.49,46.22-14.41,67.92-25.05
		c6.83-3.5399,14.14-6.61,19.85-11.88c-3.97,1.1101-8.01,1.88-12.05,2.63c-7.7999,1.79-15.86,1.4301-23.79,1.8
		c-55.71,0.4-111.51-0.12-167.01-5.45c-24.66-2.53-49.45-3.49-74.1-6.16C768.81,1147.55,764.03,1145.36,758.91,1144.84z"/>
	<path fill="#F07C97" stroke="#F07C97" stroke-width="0.594" d="M838.3,1128.34c9.37-1.4299,19.01-1.65,28.37,0.04
		c13.19,2.24,25.84,7.48,39.36,7.75c19.89,1.33,39.1299-6.28,59.03-4.73c23.09,2,44.93,10.3199,67.14,16.35
		c6.76,1.9,13.8401,1.4301,20.78,1.4399c-6.4299,3.2101-13.77,4.67-20.96,4.4801c-27.01,0.6799-54.01-0.2301-81.01-0.38
		c-26.25-0.66-52.5-1.23-78.72-2.65c-22.47-1.0701-44.96-2.15-67.31-4.77c-14.09-1.55-28.22-2.9-42.14-5.64
		c-1.16-0.54-3.3,0.27-3.75-1.14c9.75,1.15,19.3199-1.39,28.87-2.95C804.72,1133.41,821.42,1130.3,838.3,1128.34z"/>
	<path fill="#010105" stroke="#010105" stroke-width="0.594" d="M1198.33,1136.96c2.5901-2.1699,6.0901-0.5599,9.0601-0.2899
		c56.99,9.39,114.01,18.58,171.03,27.8099c7.9099,0.5801,15.12,4.13,22.58,6.52c22.5601,7.89,45.1,15.86,67.3199,24.66
		c6.9701,2.9,14.15,5.47,20.66,9.36c2.0701,1.02,3.52,3.86,1.96,5.9199c-4.6899,6.27-13.12,7.79-18.6699,13.04
		c5.1799,1.9501,10.76,2.4301,16.16,3.54c35.22,5.77,70.58,10.72,105.63,17.5c17.6,3.78,35.6799,6.87,51.98,14.89
		c17.01,7.71,33.5,17.01,47.5599,29.4299c11.17,9.87,21.02,21.2001,29.75,33.26c11.97,16.8301,19,36.4401,25.29,55.9301
		c4.62,14.46,10.42,28.52,14.74,43.08c10.6,34.9501,18.4399,70.6901,29.58,105.48c5.6901,17.16,13.24,33.63,21,49.9401
		c2.6801,5.2,4.79,10.71,8.04,15.6v9.77c-6.62-12.42-12.63-25.15-18.49-37.9401c-6.04-13.34-11.73-26.88-16.03-40.89
		c-11.79-37.62-19.76-76.33-32.26-113.73c-4.2-11.6-8.3099-23.22-12.14-34.95c-5.7-17.1901-12.1899-34.38-22.7-49.27
		c-12.02-16.71-26.22-32.0599-43.16-43.86c-13.5499-9.13-28.2899-16.39-43.38-22.58c-19.0399-6.39-38.9099-9.7201-58.6-13.42
		c-31.5699-5.64-63.36-9.97-94.95-15.45c-2.05,23.95-5.3101,47.7899-8.5701,71.6C1465.04,1347.4399,1457.05,1393,1442.8,1436.85
		c-13.51,42.6901-28.99,84.73-45.64,126.29c-14.49,35.6899-29.61,71.2-47.7201,105.23c-17.5,32.99-42.2999,61.27-67.21,88.8101
		c-12.39,13.6599-25.2,26.99-36.41,41.6699c-4.2599,6.01-9.23,12.42-9.1799,20.17c-0.55,7.5,1.5499,14.87,4.84,21.54
		c4.1,8.74,9.42,16.86,13.36,25.6899c3.13,6.55,5.23,13.52,7.51,20.41c10.6,32.52,21.04,65.1,31.2001,97.77
		c2.34,7.7999,4.51,15.6599,6.46,23.5699h-4.03c-2.49-7.4301-4.0699-15.12-6.45-22.5699c-9.77-31.14-19.67-62.2401-29.76-93.27
		c-2.6901-7.89-4.91-15.9501-8.39-23.54c-4.15-9.26-9.73-17.78-14.02-26.96c-3.72-8.0901-6.04-17.13-4.71-26.05
		c1.37-8.23,6.76-14.92,11.5-21.5c12.21-15.35,25.7899-29.51,38.91-44.0699c23.5699-26.23,46.8099-53.3101,63.2899-84.7001
		c18.75-35.46,34.37-72.47,49.3101-109.6699c14.71-37,28.4099-74.42,40.71-112.3c6.1801-19.3199,11.95-38.8,16.34-58.62
		c11.17-51.02,18.11-102.87,23.61-154.77c-2.58-1.84-6.48-1.1699-8.63-3.72c-1.3199-1.74-0.1899-4.0701,1.3101-5.27
		c4.61-3.99,10.48-6.0599,15.45-9.53c0.9701-0.84,2.67-1.52,2.1801-3.1c-7.1-3.91-14.73-6.75-22.21-9.8099
		c-26.4401-10.2301-53.17-19.75-80.01-28.8401c-47.87-7.85-95.79-15.52-143.66-23.38c-13.71-2.3199-27.53-4.1699-41.14-6.9099
		C1199.29,1138.8,1198.65,1137.58,1198.33,1136.96z"/>
	<path fill="#5F6E85" stroke="#5F6E85" stroke-width="0.594" d="M1173.75,1214.75c7.6899-26.16,15.84-52.1801,24.03-78.1899
		l0.5499,0.3999c0.3201,0.62,0.9601,1.8401,1.28,2.4601c13.61,2.74,27.4301,4.59,41.14,6.9099c47.87,7.86,95.79,15.53,143.66,23.38
		c26.84,9.0901,53.5699,18.61,80.01,28.8401c7.48,3.0599,15.11,5.8999,22.21,9.8099c0.49,1.58-1.21,2.26-2.1801,3.1
		c-4.97,3.4701-10.84,5.54-15.45,9.53c-1.5,1.2-2.63,3.53-1.3101,5.27c2.15,2.55,6.05,1.88,8.63,3.72
		c-5.5,51.9-12.4399,103.75-23.61,154.77c-4.39,19.8199-10.1599,39.3-16.34,58.62c-12.3,37.88-26,75.3-40.71,112.3
		c-14.9401,37.2-30.5601,74.21-49.3101,109.6699c-16.48,31.39-39.72,58.4701-63.2899,84.7001
		c-13.1201,14.5599-26.7001,28.72-38.91,44.0699c-4.74,6.58-10.13,13.27-11.5,21.5c-1.3301,8.92,0.99,17.96,4.71,26.05
		c4.29,9.1799,9.87,17.7,14.02,26.96c3.48,7.59,5.7,15.65,8.39,23.54c10.09,31.0299,19.99,62.13,29.76,93.27
		c2.38,7.45,3.96,15.1399,6.45,22.5699H1116.16c-8.77-14.8101-17.7001-29.54-27.4401-43.74c-9.1599-13.2-18.6599-26.5-31.33-36.59
		c-12.16-10.28-26.4-18.04-37.42-29.66c-11.47-12.02-17.0699-28.1901-21.02-43.98c-5.68-23.41-5.75-48.14-0.63-71.65
		c1.91-8.23,3.93-16.59,8.09-24.02c7.44-13.6799,17.38-25.78,27.2501-37.75c12.7999-15.16,26.11-29.87,39.48-44.51
		c26.9399-29.84,54.58-59.3099,77.42-92.51c29.23-46.1899,57.09-93.8099,75.49-145.5c7.6899-21.58,13.3899-43.84,17.6799-66.34
		c4.15-22.02,7.0701-44.3,8.01-66.7c0.3101-11.25,0.25-22.63-2.09-33.67c-1.91-9.49-8.42-17.24-15.63-23.33
		c-11.8301-9.66-25.5601-16.7101-39.61-22.51c-6.61-2.8301-14-2.0601-20.75-4.2001C1172.64,1219.23,1173.16,1216.87,1173.75,1214.75
		z"/>
	<path fill="#5F6E85" stroke="#5F6E85" stroke-width="0.594" d="M488.04,1206.09c36.74-17.02,74.07-32.7799,111.69-47.7
		c5.35,18.5499,11.41,36.95,19.16,54.66c1.01,2.45,2.56,4.7799,2.84,7.49c-4.19,1.61-6.54,5.58-9.49,8.6899
		c-9.85,11.4-19.41,23.27-26.3,36.74c-4.79,9.88-8.79,20.11-12.54,30.42c-13.31,37.5699-22.55,77.46-19.57,117.54
		c0.27,15.1,2.08,30.1,3.37,45.13c2.78,25.0199,6.27,49.98,11.03,74.7c7.19,37.4,16.42,74.65,31.29,109.8
		c6.93,16.1299,15.4,31.73,26.58,45.35c23.63,29.5399,54.36,52.1699,84.76,74.23c15.64,11.5699,31.76,22.65,45.76,36.24
		c5.27,5.1899,10.24,10.87,13.52,17.5599c3.26,6.92,4.75,14.53,5.62,22.1001c1.1,13.0599,0.03,26.24-2.58,39.08
		c-3.47,20.12-10.76,39.41-13.56,59.66c-2.25,23.4-4.65,46.78-6.51,70.22H545.93c2.25-2.4,2.96-5.61,3.07-8.78
		c1.74-1.75,3.94-3.5,3.85-6.22c1.23-46.48-0.78-93.2-8.74-139.08c-3.89-21.03-9.08-42.0601-18.61-61.3201
		c-6.01-12.48-13.65-24.12-22.13-35.0399c-13.13-16.75-28.14-31.92-41.29-48.66c-9.83-12.35-18.29-25.8101-24.81-40.2001
		c-7.78-16.6499-11.48-34.7699-15.3-52.63c-9.76-49.96-16.13-100.5-22.2-151.0199c-6.14-52.8101-11.59-105.7101-16.23-158.67
		c-0.25-1.05-0.81-1.9-1.7-2.54c-0.93-3.0699-0.58-6.49-2.41-9.25c-1.21-2.5599-3.71-5.9-1.32-8.52
		c3.53-4.4399,7.76-8.25,11.82-12.1799c16.17-14.98,33.17-29.1,51.19-41.8201C455.63,1221.51,471.88,1213.74,488.04,1206.09z"/>
	<path fill="#736C6E" stroke="#736C6E" stroke-width="0.594" d="M754.28,1138.21c1.3-0.83,2.1299-0.63,2.5,0.6001
		C755.45,1139.61,754.62,1139.41,754.28,1138.21z"/>
	<path fill="#F17C97" stroke="#F17C97" stroke-width="0.594" d="M758.91,1144.84c5.1201,0.52,9.9,2.7101,15.03,3.17
		c24.65,2.67,49.44,3.63,74.1,6.16c55.5,5.33,111.3,5.85,167.01,5.45c7.93-0.37,15.9901-0.01,23.79-1.8
		c4.04-0.75,8.0801-1.5199,12.05-2.63c-5.71,5.27-13.02,8.3401-19.85,11.88c-21.7,10.64-44.35,19.5601-67.92,25.05
		c-11.74,2.36-23.92,3.6901-35.79,1.53c-11.01-1.9301-22.25-3.29-33.41-1.91c-5.98,0.54-11.86,1.98-17.88,2.0701
		c-8.77,0.37-17.4-1.51-25.98-3.03c-18.86-4.13-37.48-10.0701-54.5-19.3101c-10.01-5.35-19.59-11.5499-28.49-18.59
		C764.25,1150.3101,760.94,1148.11,758.91,1144.84z"/>
	<path fill="#4E596B" stroke="#4E596B" stroke-width="0.594" d="M1480.29,1230.3101c31.59,5.48,63.38,9.8099,94.95,15.45
		c19.6901,3.7,39.5601,7.03,58.6,13.42c15.0901,6.1899,29.8301,13.45,43.38,22.58c16.9401,11.8,31.14,27.15,43.16,43.86
		c10.51,14.89,17,32.08,22.7,49.27c3.8301,11.73,7.9401,23.35,12.14,34.95c12.5,37.4,20.47,76.11,32.26,113.73
		c4.3,14.01,9.99,27.55,16.03,40.89c5.86,12.79,11.87,25.52,18.49,37.9401V2008h-521.99c-1.95-7.91-4.12-15.77-6.46-23.5699
		c-10.16-32.67-20.6001-65.25-31.2001-97.77c-2.28-6.89-4.38-13.86-7.51-20.41c-3.9399-8.83-9.26-16.95-13.36-25.6899
		c-3.29-6.67-5.39-14.04-4.84-21.54c-0.05-7.75,4.92-14.16,9.1799-20.17c11.2101-14.6799,24.02-28.01,36.41-41.6699
		c24.91-27.54,49.71-55.8201,67.21-88.8101c18.1101-34.03,33.2301-69.54,47.7201-105.23c16.65-41.5601,32.13-83.6,45.64-126.29
		c14.25-43.85,22.24-89.41,28.9199-134.9399C1474.98,1278.1,1478.24,1254.26,1480.29,1230.3101 M1605.0601,1763.04
		c-0.27,7.3099,0.0299,14.64-0.1101,21.96c0.12,13.75-0.98,27.48-2.63,41.12c-1.6799,13.9301-6.2599,27.27-10.62,40.54
		c-8.58,25.76-18.49,51.0499-27.33,76.72c-5.49,15.72-7.6801,32.3199-10.08,48.74c-0.4,3.88-1.42,7.75-1.16,11.7
		c1.49,1.92,4.24,0.4701,4.01-1.7999c1.84-13.52,3.64-27.0601,6.48-40.41c2.5-12.25,7.2-23.87,11.34-35.62
		c9.2001-25.64,19.01-51.08,26.78-77.2c3.78-12.61,5.5601-25.7201,6.35-38.8201c1.3201-15.6,1.13-31.2899,0.8201-46.9099
		C1609.25,1760.4301,1604.75,1760.52,1605.0601,1763.04z"/>
	<path fill="#4E596B" stroke="#4E596B" stroke-width="0.594" d="M350.06,1306.8c9.96-1.2101,20.12-0.2101,29.94-2.63
		c-0.48,1.3199-0.7,2.74-0.5,4.1699c4.35,48.87,9.27,97.7001,14.87,146.4501c5.83,49.7999,12.07,99.59,20.97,148.95
		c3.15,16.62,6.39,33.28,11.47,49.4301c5.97,18.6899,15.5,36.08,27.08,51.87c20.09,27.4199,46.46,50.1,62.98,80.12
		c10.43,17.9,16.56,37.9199,20.86,58.08c6.97,33.12,9.57,66.97,11.06,100.72c0.23,13.01,0.31,26.02,0.17,39.04
		c-0.08,3.51,0.25,7.09-0.4,10.59c-1.09,1.3401-2.89,1.8101-4.24,2.85c-0.08,0.6001-0.23,1.79-0.31,2.38
		c1.39,1.3101,3.32,0.4401,4.99,0.4c-0.11,3.17-0.82,6.38-3.07,8.78H290.05c0.12-9.21-0.85-18.58,1.32-27.62
		c4.59-19.23,10.24-38.1901,15.9-57.13c0.54-2.03,1.3-4.15,0.7-6.22c-0.69-0.01-2.07-0.04-2.77-0.05
		c-1.51,2.51-2.05,5.4501-2.92,8.24c-4.19,14.26-8.36,28.52-12.18,42.9c-2.02,7.8199-4.26,15.73-4.21,23.89
		c-0.04,5.3199-0.02,10.65,0.07,15.99H0v-521.59c11.71-7.73,22.74-16.52,35.05-23.3201c15.51-8.52,31.68-15.74,47.58-23.49
		c19.01-9.01,37.71-18.6899,56.03-29.0499c36.8-20.76,73.18-42.24,109.99-62.9801c16.99-9.84,34.56-18.63,52.62-26.33
		C316.93,1314.74,332.95,1308.01,350.06,1306.8z"/>
	<path fill="#2C333B" stroke="#2C333B" stroke-width="0.594" d="M626.48,1244.4399c1.37-1.75,2.34-3.9199,4.21-5.2
		c6.25,20.79,12.55,41.59,17.17,62.8101c0.77,4.9299,2.35,9.8099,2.12,14.86c-10.6,0.14-21.2,1.7-31.38,4.6599
		c-9.74,3.41-18.78,8.51-27.94,13.2001c-3.5699,1.6799-6.7,4.66-10.66,5.29c0.97-9.41,4.39-18.4301,7.82-27.2001
		C597.87,1288.59,611.65,1266.05,626.48,1244.4399z"/>
	<path fill="#2C333B" stroke="#2C333B" stroke-width="0.594" d="M1165.3101,1246.4c10.75,1.2,21.5499,2.52,32.0399,5.27
		c12.47,4.12,23.4,14.08,27.0701,26.8999c1.8199,10.37,1.47,20.9401,1.63,31.4401c0.1,20.8-0.63,41.98-6.99,61.97
		c-1.9601,5.91-3.41,12.1-6.15,17.7001l-0.5801-0.13c-3.76-9.99-8.1-19.89-14.1799-28.7001c-4.73-7.24-12.0801-12.0699-19.02-16.96
		c-7.98-4.8101-15.99-9.62-24.4-13.64c-1.46-0.75-2.99-1.39-4.23-2.4399c2.47-24.28,5.74-48.6001,12.04-72.2201
		C1163.4301,1252.52,1163.71,1249.2,1165.3101,1246.4z"/>
	<path fill="#000205" stroke="#000205" stroke-width="0.594" d="M380,1304.17c0.46-0.0801,1.38-0.25,1.84-0.3301
		c0.89,0.64,1.45,1.49,1.7,2.54c4.64,52.96,10.09,105.86,16.23,158.67c6.07,50.5199,12.44,101.0599,22.2,151.0199
		c3.82,17.8601,7.52,35.9801,15.3,52.63c6.52,14.39,14.98,27.8501,24.81,40.2001c13.15,16.74,28.16,31.91,41.29,48.66
		c8.48,10.9199,16.12,22.5599,22.13,35.0399c9.53,19.26,14.72,40.29,18.61,61.3201c7.96,45.88,9.97,92.6,8.74,139.08
		c0.09,2.72-2.11,4.47-3.85,6.22c-1.67,0.04-3.6,0.91-4.99-0.4c0.08-0.59,0.23-1.7799,0.31-2.38c1.35-1.0399,3.15-1.5099,4.24-2.85
		c0.65-3.5,0.32-7.08,0.4-10.59c0.14-13.02,0.06-26.03-0.17-39.04c-1.49-33.75-4.09-67.6-11.06-100.72
		c-4.3-20.16-10.43-40.1799-20.86-58.08c-16.52-30.02-42.89-52.7001-62.98-80.12c-11.58-15.79-21.11-33.1801-27.08-51.87
		c-5.08-16.15-8.32-32.8101-11.47-49.4301c-8.9-49.36-15.14-99.15-20.97-148.95c-5.6-48.75-10.52-97.5801-14.87-146.4501
		C379.3,1306.91,379.52,1305.49,380,1304.17z"/>
	<path fill="#497962" stroke="#497962" stroke-width="0.594" d="M641.43,1334.38c2.32-3.01,5.72-5.24,9.35-6.33
		c0.39,14.0699-1.44,28.09-3.03,42.0499c-0.89-0.49-1.39-1.22-1.49-2.1899c-1.02-6.3301-2-12.66-3.13-18.9601
		C642.29,1344.15,640.18,1339.29,641.43,1334.38z"/>
	<path fill="#765E59" stroke="#765E59" stroke-width="0.594" d="M1148.09,1348.9301c2.38,1.47,3.79,4.33,4.63,6.9099
		c-1.37,2.42-2.6,4.9501-4.34,7.14c-0.09-0.72-0.29-2.15-0.39-2.86C1147.84,1356.39,1147.88,1352.65,1148.09,1348.9301z"/>
	<path fill="#5A423D" stroke="#5A423D" stroke-width="0.594" d="M1148.38,1362.98c1.74-2.1899,2.97-4.72,4.34-7.14
		c0.73,1.2201,2.12,2.4401,1.97,4c-2.7799,4.8201-4.5699,10.12-6.45,15.35c-0.15,1.0901-0.6899,1.39-1.63,0.91
		c0.54-5.25,0.16-10.5399,0.67-15.78l0.71-0.2C1148.09,1360.83,1148.29,1362.26,1148.38,1362.98z"/>
	<path fill="#443428" stroke="#443428" stroke-width="0.594" d="M1148.24,1375.1899c1.88-5.23,3.67-10.5299,6.45-15.35
		c1.2101,1.7101,1.4,3.88,1.1001,5.9301c-7.01,10.1699-5.66,23-7.42,34.61c-0.58-0.4-1.72-1.1901-2.3-1.59
		c-0.5499-4.91-0.0299-9.86-0.13-14.78c0.1201-2.64-0.25-5.39,0.67-7.91C1147.55,1376.58,1148.09,1376.28,1148.24,1375.1899z"/>
	<path fill="#332318" stroke="#332318" stroke-width="0.594" d="M1148.37,1400.38c1.76-11.61,0.41-24.4401,7.42-34.61
		c0.9299,11.7999-3.04,23.2999-4.1001,35c-1.1699,0.1699-2.33,0.29-3.48,0.37L1148.37,1400.38z"/>
	<path fill="#000204" stroke="#000204" stroke-width="0.594" d="M1605.0601,1763.04c-0.3101-2.52,4.1899-2.61,3.85,0.02
		c0.3099,15.62,0.5,31.3099-0.8201,46.9099c-0.7899,13.1-2.5699,26.2101-6.35,38.8201c-7.77,26.12-17.58,51.5599-26.78,77.2
		c-4.14,11.75-8.84,23.37-11.34,35.62c-2.84,13.35-4.64,26.89-6.48,40.41c0.23,2.27-2.52,3.72-4.01,1.7999
		c-0.26-3.95,0.76-7.8199,1.16-11.7c2.3999-16.42,4.59-33.02,10.08-48.74c8.84-25.67,18.75-50.96,27.33-76.72
		c4.3601-13.27,8.9401-26.61,10.62-40.54c1.65-13.64,2.75-27.37,2.63-41.12C1605.09,1777.6801,1604.79,1770.35,1605.0601,1763.04z"
		/>
	<linearGradient id="SVGID_1_" gradientUnits="userSpaceOnUse" x1="893.1335" y1="1320.28" x2="893.1335" y2="2008">
		<stop  offset="0" style="stop-color:#65D772"/>
		<stop  offset="1" style="stop-color:#3B793A"/>
	</linearGradient>
	<path fill="url(#SVGID_1_)" stroke="#3B793A" stroke-width="0.594" d="M1203.08,1375.77c-4.13-8.59-9.26-17.05-17-22.84
		c-8.83-6.8301-18.5599-12.4-28.46-17.51c-2.64-1.4-5.11-3.67-8.29-3.3501c-0.4399,2.9701-0.8199,5.9601-1.0299,8.9701
		c-0.39,3.4099,3.0399,5.4299,4.6,8.09c4.0599,6.29,8.02,13.58,6.73,21.34c-0.65,9.9601-2.66,19.74-4.4401,29.54
		c-5.86,30.8199-11.4299,61.79-20.4199,91.9c-2.8201,8.27-5.61,16.5699-9.3,24.5c-9.45,17.95-22.39,34.11-38.09,46.97
		c-3.92,3.92-7.83,7.84-11.71,11.8c-6.51,5.99-12.26,12.7999-19.2001,18.3099c-6.0399,5.29-11.0699,11.66-17.5699,16.42
		c-3.47,3.73-7.67,6.63-11.29,10.21c-8.14,6.38-16.2799,12.8-24.74,18.79c-11.6901,8.09-24.1,15.0699-36.42,22.15
		c-3.54,1.4099-6.8199,3.37-10.09,5.2999c-17.34,8.75-35.63,16.09-54.9,19.1801c-14.96,2.1499-30.29,2.5699-45.25,0.23
		c-19.77-3.15-38.26-11.23-56.26-19.66c-5.77-2.86-11.49-5.79-17.08-8.96c-9.01-5.8201-17.6901-12.0701-25.87-19
		c-3.9-4.79-8.64-8.79-12.8401-13.29c-4.1599-5.17-8.73-9.97-12.97-15.0499c-8.0499-10.77-15.26-22.1201-22.34-33.52
		c-6.0699-11.3401-12.1-22.7001-17.65-34.3c-8.35-17.92-15.96-36.22-21.95-55.0699c-5.6599-17.7301-9.7-35.9301-13.96-54.03
		c-2.14-10.65-4.64-21.22-6.41-31.9401c-1.54-6.3899-1.85-13.0499-4.21-19.21c-0.03-4.38-0.72-8.7-1.62-12.96
		c-1.83-8.67-2.42-17.5701-4.85-26.11c-0.57-3.64-1.65-8.3,1.36-11.15c2.56-2.9401,5.97-4.87,9.35-6.7001
		c1.78-0.7899,0.94-3.09,0.91-4.5399c-12.22,0.4099-24.62,2.12-36.06,6.63c-11.76,5.6599-23.47,11.49-34.73,18.1
		c-1.8101,0.92-1.46,3.28-1.8101,4.98c-3.67,28.89-1.59,58.11,1.88,86.91c1.89,17.39,4.46,34.7,7.03,52.01
		c2.14,17.5299,4.88,34.99,7.98,52.38c2.18,14.47,5.38,28.7999,9.07,42.96c2.72,11.1899,6.02,22.25,10.07,33.03
		c2.7,8.27,6.08,16.3099,9.9,24.13c4.25,9.87,9.75,19.24,15.86,28.08c5.51,8.45,11.9,16.33,18.71,23.76
		c5.51,7.1,12.46,12.9,18.63,19.41c4.25,4.7799,9.7401,8.2,14,12.99c6.01,4.78,11.63,10.0499,17.7101,14.75
		c15.3899,13.16,32.3699,24.46,46.84,38.6699c10.2,7.9401,21.1801,14.8201,31.25,22.92c1.84,3.64,5.17,6.26,6.9401,9.96
		c1.3099,2.6901,2.5399,5.4401,3.8499,8.16c0.76,12.9301-1.22,25.76-3.3699,38.48c-3.3701,19.25-7.4102,38.4-12.0701,57.39
		c-2.99,13.39-6.37,26.7001-9.4299,40.0801c-1.67,8.58-4.6101,17.09-4.1201,25.9399c0.0901,8.66,0.1401,17.33,0.1001,26H1090.49
		c-7.25-10.49-15.09-20.55-22.8199-30.6801c-4.14-4.86-7.65-10.2799-12.41-14.58c-14.1801-14.15-28.34-28.3199-42.49-42.49
		c-3.3501-4.02-6.5601-8.1899-10.72-11.41c-9.1401-11.34-19.6801-22.08-24.9401-35.95c-1.86-5.55-2.97-11.3201-3.84-17.1
		c-0.63-3.9701,0.12-8.03-0.8101-11.9501c-1.4299-6.62,0.67-13.2,0.46-19.8199c-0.2-5.0601,1.0601-10,1.1602-15.02
		c0.0299-5.1,3.21-10.12,1.2799-15.16c-0.6801-10.35-1.09-20.9299,1.3199-31.1c0.8201-3.78,3.0701-7.01,4.29-10.63
		c16.21-23.17,35.8501-43.59,53.77-65.38c3.4401-4.0699,7.1901-7.91,10.16-12.34c5.48-5.73,9.99-12.29,15.09-18.35
		c7.29-9.52,15.33-18.4,22.83-27.75c12.9901-14.53,25.4-29.63,37.4901-44.9401c1.7899-2.23,3.37-4.61,4.84-7.0399
		c5.9399-7.28,11.01-15.2201,15.9199-23.2101c5.15-7.76,10.02-15.7899,13.54-24.45c3.86-8.37,7.72-16.74,11.22-25.27
		c13.55-29.88,26.5701-59.99,39.13-90.3c1.8501-5.4099,4.8101-10.47,6.02-16.0599
		C1209.59,1389.5601,1205.83,1382.79,1203.08,1375.77z"/>
	<path fill="#010104" stroke="#010104" stroke-width="0.594" d="M305.2,1916.98c0.7,0.01,2.08,0.04,2.77,0.05
		c0.6,2.0699-0.16,4.1899-0.7,6.22c-5.66,18.9399-11.31,37.9-15.9,57.13c-2.17,9.04-1.2,18.41-1.32,27.62h-4.09
		c-0.09-5.34-0.11-10.67-0.07-15.99c-0.05-8.16,2.19-16.0701,4.21-23.89c3.82-14.38,7.99-28.64,12.18-42.9
		C303.15,1922.4301,303.69,1919.49,305.2,1916.98z"/>
</g>
</svg>
