<?xml version="1.0" encoding="UTF-8" standalone="no"?>
<!-- Created with Inkscape (http://www.inkscape.org/) -->

<svg
   xmlns:dc="http://purl.org/dc/elements/1.1/"
   xmlns:cc="http://creativecommons.org/ns#"
   xmlns:rdf="http://www.w3.org/1999/02/22-rdf-syntax-ns#"
   xmlns:svg="http://www.w3.org/2000/svg"
   xmlns="http://www.w3.org/2000/svg"
   xmlns:sodipodi="http://sodipodi.sourceforge.net/DTD/sodipodi-0.dtd"
   xmlns:inkscape="http://www.inkscape.org/namespaces/inkscape"
   width="210mm"
   height="297mm"
   viewBox="0 0 744.09448819 1052.3622047"
   id="svg2"
   version="1.1"
   inkscape:version="0.48.5 r10040"
   sodipodi:docname="onarckep.svg">
  <title
     id="title3212">Portrait</title>
  <defs
     id="defs4" />
  <sodipodi:namedview
     id="base"
     pagecolor="#ffffff"
     bordercolor="#666666"
     borderopacity="1.0"
     inkscape:pageopacity="0.0"
     inkscape:pageshadow="2"
     inkscape:zoom="0.7"
     inkscape:cx="-467.28466"
     inkscape:cy="610.18057"
     inkscape:document-units="px"
     inkscape:current-layer="layer2"
     showgrid="false"
     inkscape:window-width="1920"
     inkscape:window-height="1027"
     inkscape:window-x="1272"
     inkscape:window-y="-8"
     inkscape:window-maximized="1" />
  <metadata
     id="metadata7">
    <rdf:RDF>
      <cc:Work
         rdf:about="">
        <dc:format>image/svg+xml</dc:format>
        <dc:type
           rdf:resource="http://purl.org/dc/dcmitype/StillImage" />
        <dc:title>Portrait</dc:title>
        <cc:license
           rdf:resource="http://creativecommons.org/licenses/by/3.0/" />
        <dc:creator>
          <cc:Agent>
            <dc:title>Kisantal Tibor</dc:title>
          </cc:Agent>
        </dc:creator>
      </cc:Work>
      <cc:License
         rdf:about="http://creativecommons.org/licenses/by/3.0/">
        <cc:permits
           rdf:resource="http://creativecommons.org/ns#Reproduction" />
        <cc:permits
           rdf:resource="http://creativecommons.org/ns#Distribution" />
        <cc:requires
           rdf:resource="http://creativecommons.org/ns#Notice" />
        <cc:requires
           rdf:resource="http://creativecommons.org/ns#Attribution" />
        <cc:permits
           rdf:resource="http://creativecommons.org/ns#DerivativeWorks" />
      </cc:License>
    </rdf:RDF>
  </metadata>
  <g
     inkscape:groupmode="layer"
     id="layer2"
     inkscape:label="1. réteg 1">
    <g
       id="g3175">
      <path
         sodipodi:nodetypes="cccccccccccccccccccccccccccccccccccccccc"
         inkscape:connector-curvature="0"
         id="path3168"
         d="m 364.52681,80.901786 -197.6563,38.468754 -73.375003,96.125 -14.2187,87.625 -4.7187,44.875 11.8437,64.09375 16.562503,34.1875 -3.562503,23.5 0.875003,1.5 -3.250003,15.6875 5.937503,52.9375 3.5312,17.25 2.375,28.75 16.5626,12.65625 6.5624,3.96875 8.8438,90.375 78.1562,83.4375 -0.062,0.53125 c 25.5344,59.85543 39.0882,81.0854 75.74995,111.59375 l 74.59375,2.28125 84.03125,-9.1875 c 23.32093,-20.17921 44.63921,-36.31689 66.28125,-94.34375 l 5.03125,-18.84375 70.6875,-75.46875 8.9375,-91.125 5.28125,-3.21875 16.5625,-12.65625 2.375,-28.75 3.5625,-17.25 5.90625,-52.9375 -4.75,-23 c 0.58155,5.07587 1.16232,-13.06451 3.5625,-34.78125 l 8.28125,-49.125 -3.53125,-59.84375 -9.46875,-74.78125 22.46875,10.6875 -22.46875,-23.5 -17.78165,-48.09375 -104.125,-90.812504 z"
         style="fill:#ffffff;fill-opacity:1;fill-rule:evenodd;stroke:none" />
      <g
         transform="matrix(2.3433481,0,0,2.2776128,2062.4218,-701.38511)"
         id="g4271">
        <path
           style="fill:#cccccc;fill-opacity:1;fill-rule:evenodd;stroke:none"
           d="m -732.86567,625.57275 -4.04061,3.03046 0.50507,4.54569 6.06092,7.07107 0.50508,12.6269 -10.10153,11.11168 -33.84011,-33.33503 4.54569,-17.67767 22.22335,0.50507 z"
           id="path4269"
           inkscape:connector-curvature="0" />
        <path
           style="fill:#666666;fill-rule:evenodd;stroke:none"
           d="m -836.40631,509.91029 -2.0203,12.12183 2.0203,20.20305 3.53554,23.73858 9.09137,5.05077 -3.03046,-30.30458 1.01015,-20.20305 z"
           id="path4251"
           inkscape:connector-curvature="0" />
        <path
           style="fill:#808080;fill-rule:evenodd;stroke:none"
           d="m -753.47278,577.59051 -1.11894,7.07107 5.59469,7.57614 10.07044,2.02031 -13.98672,9.09137 -21.8193,-2.52538 -0.55947,-8.5863 7.2731,-7.57614 z"
           id="path4249"
           inkscape:connector-curvature="0" />
        <path
           style="fill:#cccccc;fill-rule:evenodd;stroke:none"
           d="m -791.9596,530.61841 5.05077,10.60661 9.09137,6.06091 -5.55584,21.21321 -0.50508,20.20305 5.55584,16.66751 -2.52538,30.80966 -26.76904,-31.31473 -6.06092,-42.42641 -0.50507,-35.86042 10.6066,-10.6066 12.12183,6.06092 z"
           id="path4247"
           inkscape:connector-curvature="0" />
        <path
           style="fill:#b3b3b3;fill-opacity:1;fill-rule:evenodd;stroke:none"
           d="m -742.9672,431.11839 -8.08122,13.63706 c -13.63741,12.45849 -17.38852,41.21191 -7.07107,62.62946 l -41.92133,1.01015 -4.04061,-38.3858 12.12183,-31.8198 39.90103,-13.13199 z"
           id="path4245"
           inkscape:connector-curvature="0"
           sodipodi:nodetypes="cccccccc" />
        <path
           style="fill:#cccccc;fill-opacity:1;fill-rule:evenodd;stroke:none"
           d="m -728.31999,538.19456 -15.65736,-23.73859 -17.67767,-3.53553 -31.31473,3.03046 -6.56599,7.07107 8.08122,7.07106 11.61675,-7.07106 18.68783,-1.01016 6.56599,8.5863 8.08122,3.53553 4.54569,6.06092 -4.04061,5.05076 0.50507,24.74874 -21.2132,12.12183 -10.10153,14.64721 10.10153,-10.10152 13.63706,-6.566 9.59645,-5.55584 9.09137,-1.51522 z"
           id="path4243"
           inkscape:connector-curvature="0"
           sodipodi:nodetypes="cccccccccccccccccccc" />
        <path
           style="fill:#808080;fill-rule:evenodd;stroke:none"
           d="m -789.28572,437.71935 -11.78571,35 5.35714,32.5 -10.35714,18.92857 -3.21429,26.78571 6.07143,5.35715 -5,26.78571 11.78572,27.85714 17.85714,22.85715 -6.78571,15.35714 -33.92858,-37.5 -3.92857,-41.42857 -3.92857,-53.92857 c -2.47175,-28.44499 7.2069,-36.63929 12.5,-52.14286 l 5.35714,-25.71429 z"
           id="path4241"
           inkscape:connector-curvature="0"
           sodipodi:nodetypes="cccccccccccccccc" />
        <path
           inkscape:connector-curvature="0"
           style="fill:#000000;fill-opacity:1;stroke:none"
           d="m -766.08594,521.0332 c -1.83052,0.0727 -3.70336,0.47189 -5.52148,0.61524 -2.81531,0.22198 -5.6967,0.26381 -8.42383,0.97461 a 8.9285717,8.9285717 0 0 0 -0.0586,0.98828 8.9285717,8.9285717 0 0 0 8.92968,8.92969 8.9285717,8.9285717 0 0 0 8.92774,-8.92969 8.9285717,8.9285717 0 0 0 -0.25781,-2.0918 c -0.12142,-0.0487 -0.24094,-0.10048 -0.36719,-0.13867 -1.04738,-0.31686 -2.1302,-0.39127 -3.22852,-0.34766 z"
           id="path4181" />
        <path
           style="fill:#000000;fill-rule:evenodd;stroke:none"
           d="m -747.58929,531.02292 -7.05357,-2.76786 c 0,0 -2.70396,-2.7838 -4.19643,-4.01786 -1.26651,-1.04722 -2.44487,-2.38128 -4.01785,-2.85714 -2.79302,-0.84496 -5.841,0.0385 -8.75,0.26785 -3.0508,0.24055 -6.182,0.26139 -9.10715,1.16072 -2.07376,0.63757 -4.07682,1.63292 -5.80357,2.94643 -1.47549,1.12238 -3.75,4.10714 -3.75,4.10714 l -1.78571,-0.17857 4.55357,-4.28571 c 0,0 3.82782,-2.60916 5.98214,-3.39286 2.47409,-0.90003 5.15141,-1.13642 7.76786,-1.42857 2.19058,-0.24459 4.40566,-0.37713 6.60714,-0.26786 1.92114,0.0954 3.9793,-0.0269 5.71429,0.80357 1.76627,0.84544 2.85047,2.68572 4.28571,4.01786 1.09613,1.01739 3.30357,3.03571 3.30357,3.03571 z"
           id="path4175"
           inkscape:connector-curvature="0"
           sodipodi:nodetypes="ccaaaaacccaaaaacc" />
        <path
           style="fill:#000000;fill-rule:evenodd;stroke:none"
           d="m -748.39286,531.20149 c 0,0 -4.27839,-0.55716 -6.42857,-0.53572 -0.86766,0.009 -1.75157,0.0417 -2.58929,0.26786 -0.97736,0.26381 -1.79597,0.96666 -2.76785,1.25 -3.20432,0.93418 -6.57616,1.28336 -9.91072,1.42857 -2.65047,0.11542 -5.33949,0.0457 -7.94643,-0.44643 -1.96988,-0.37188 -3.97254,-0.8825 -5.71428,-1.875 -1.09951,-0.62654 -2.15033,-1.45029 -2.85714,-2.5 -0.45735,-0.67923 -0.80358,-2.32142 -0.80358,-2.32142 l -0.98214,1.07142 c 0,0 1.52563,2.10402 2.5,2.94643 1.27439,1.10179 2.69986,2.11018 4.28572,2.67857 2.59937,0.93165 5.45408,0.99392 8.21428,1.07143 2.83393,0.0796 5.66686,-0.29085 8.48214,-0.625 2.00666,-0.23817 4.03192,-0.45298 5.98215,-0.98214 1.20021,-0.32565 2.26089,-1.10453 3.48214,-1.33929 2.3091,-0.44388 7.05357,-0.0893 7.05357,-0.0893 z"
           id="path4177"
           inkscape:connector-curvature="0"
           sodipodi:nodetypes="caaaaaaaccaaaaaac" />
        <circle
           sodipodi:ry="1.5268309"
           sodipodi:rx="1.5268309"
           sodipodi:cy="523.51654"
           sodipodi:cx="-766.39948"
           d="m -764.87264,523.51654 c 0,0.84325 -0.68359,1.52683 -1.52684,1.52683 -0.84324,0 -1.52683,-0.68358 -1.52683,-1.52683 0,-0.84324 0.68359,-1.52683 1.52683,-1.52683 0.84325,0 1.52684,0.68359 1.52684,1.52683 z"
           style="fill:#ffffff;fill-opacity:1;stroke:none"
           id="path4179"
           cx="-766.39948"
           cy="523.51654"
           r="1.5268309" />
        <path
           id="path4190"
           d="m -678.22378,522.29589 c 1.83052,0.0727 3.70336,0.47189 5.52148,0.61524 2.81531,0.22198 5.6967,0.26381 8.42383,0.97461 a 8.9285717,8.9285717 0 0 1 0.0586,0.98828 8.9285717,8.9285717 0 0 1 -8.92968,8.92969 8.9285717,8.9285717 0 0 1 -8.92774,-8.92969 8.9285717,8.9285717 0 0 1 0.25781,-2.0918 c 0.12142,-0.0487 0.24094,-0.10048 0.36719,-0.13867 1.04738,-0.31686 2.1302,-0.39127 3.22852,-0.34766 z"
           style="fill:#000000;fill-opacity:1;stroke:none"
           inkscape:connector-curvature="0" />
        <path
           sodipodi:nodetypes="ccaaaaacccaaaaacc"
           inkscape:connector-curvature="0"
           id="path4192"
           d="m -696.72043,532.28561 7.05357,-2.76786 c 0,0 2.70396,-2.7838 4.19643,-4.01786 1.26651,-1.04722 2.44487,-2.38128 4.01785,-2.85714 2.79302,-0.84496 5.841,0.0385 8.75,0.26785 3.0508,0.24055 6.182,0.26139 9.10715,1.16072 2.07376,0.63757 4.07682,1.63292 5.80357,2.94643 1.47549,1.12238 3.75,4.10714 3.75,4.10714 l 1.78571,-0.17857 -4.55357,-4.28571 c 0,0 -3.82782,-2.60916 -5.98214,-3.39286 -2.47409,-0.90003 -5.15141,-1.13642 -7.76786,-1.42857 -2.19058,-0.24459 -4.40566,-0.37713 -6.60714,-0.26786 -1.92114,0.0954 -3.9793,-0.0269 -5.71429,0.80357 -1.76627,0.84544 -2.85047,2.68572 -4.28571,4.01786 -1.09613,1.01739 -3.30357,3.03571 -3.30357,3.03571 z"
           style="fill:#000000;fill-rule:evenodd;stroke:none" />
        <path
           sodipodi:nodetypes="caaaaaaaccaaaaaac"
           inkscape:connector-curvature="0"
           id="path4194"
           d="m -695.91686,532.46418 c 0,0 4.27839,-0.55716 6.42857,-0.53572 0.86766,0.009 1.75157,0.0417 2.58929,0.26786 0.97736,0.26381 1.79597,0.96666 2.76785,1.25 3.20432,0.93418 6.57616,1.28336 9.91072,1.42857 2.65047,0.11542 5.33949,0.0457 7.94643,-0.44643 1.96988,-0.37188 3.97254,-0.8825 5.71428,-1.875 1.09951,-0.62654 2.15033,-1.45029 2.85714,-2.5 0.45735,-0.67923 0.80358,-2.32142 0.80358,-2.32142 l 0.98214,1.07142 c 0,0 -1.52563,2.10402 -2.5,2.94643 -1.27439,1.10179 -2.69986,2.11018 -4.28572,2.67857 -2.59937,0.93165 -5.45408,0.99392 -8.21428,1.07143 -2.83393,0.0796 -5.66686,-0.29085 -8.48214,-0.625 -2.00666,-0.23817 -4.03192,-0.45298 -5.98215,-0.98214 -1.20021,-0.32565 -2.26089,-1.10453 -3.48214,-1.33929 -2.3091,-0.44388 -7.05357,-0.0893 -7.05357,-0.0893 z"
           style="fill:#000000;fill-rule:evenodd;stroke:none" />
        <circle
           sodipodi:ry="1.5268309"
           sodipodi:rx="1.5268309"
           sodipodi:cy="525.53687"
           sodipodi:cx="667.42993"
           d="m 668.95676,525.53687 c 0,0.84324 -0.68358,1.52683 -1.52683,1.52683 -0.84324,0 -1.52683,-0.68359 -1.52683,-1.52683 0,-0.84325 0.68359,-1.52684 1.52683,-1.52684 0.84325,0 1.52683,0.68359 1.52683,1.52684 z"
           r="1.5268309"
           cy="525.53687"
           cx="667.42993"
           id="circle4196"
           style="fill:#ffffff;fill-opacity:1;stroke:none"
           transform="scale(-1,1)" />
        <path
           style="fill:#000000;fill-rule:evenodd;stroke:none"
           d="m -749.78573,526.199 -0.37881,1.51523 -9.34391,-5.68211 -3.03045,-1.13642 -13.38453,0.25253 -6.94479,1.26269 -5.80838,1.6415 -5.3033,5.42957 4.16688,-5.05076 7.19733,-2.52538 c 0,0 12.2481,-2.27284 12.75318,-2.27284 0.50508,0 11.11168,1.64149 11.11168,1.64149 z"
           id="path4198"
           inkscape:connector-curvature="0" />
        <path
           style="fill:#000000;fill-rule:evenodd;stroke:none"
           d="m -700.66706,531.24976 10.98541,-5.68211 6.43972,-3.28299 9.34391,-0.63135 11.86929,2.14657 6.9448,3.66181 4.29315,1.89403 -4.16688,-3.03045 -8.08122,-3.66181 -9.59645,-2.14657 c 0,0 -6.43972,0.75761 -6.9448,0.75761 -0.50507,0 -5.6821,0.75762 -5.6821,0.75762 l -6.43973,3.6618 z"
           id="path4200"
           inkscape:connector-curvature="0" />
        <path
           style="fill:#000000;fill-rule:evenodd;stroke:none"
           d="m -741.19943,575.82489 c 0,0 -2.89521,-0.52655 -4.29315,-0.23331 -2.20462,0.46244 -4.74375,1.25768 -5.93464,3.03297 -1.50914,2.24971 -1.33766,5.43832 -0.37881,7.93238 0.84815,2.20612 2.85958,4.0733 5.05076,5.24936 1.93434,1.03821 6.56599,1.28318 6.56599,1.28318 l 6.18719,4.6661 c 0,0 4.69585,8.37154 8.9651,10.38209 4.12911,1.94455 10.19664,3.17035 13.8896,0.58327 5.59481,-3.91943 12.44614,-16.12655 15.02602,-16.09806 1.47843,0.0163 3.17094,0.38179 4.41941,-0.34996 2.05429,-1.20406 3.13692,-3.63801 3.66181,-5.83264 0.60181,-2.51625 0.54223,-5.41903 -0.75762,-7.69906 -0.89152,-1.56378 -2.61106,-2.80612 -4.41942,-3.38294 -1.47258,-0.46971 -3.24084,-0.45203 -4.67195,0.11666 -1.03892,0.41283 -2.39911,2.21639 -2.39911,2.21639 0,0 1.35749,-2.24148 2.52538,-2.79965 1.42499,-0.68106 3.23813,-0.69585 4.79822,-0.34996 1.4881,0.32993 2.78275,1.26458 3.91434,2.2164 0.46684,0.39267 0.91335,0.85419 1.13643,1.39983 1.1338,2.77317 1.52006,5.9861 0.75761,8.8656 -0.5661,2.13796 -1.82823,4.34785 -3.78807,5.59933 -1.41238,0.90189 -3.61003,0.0705 -5.05076,0.93322 -3.59662,2.15379 -7.44988,9.68216 -7.44988,9.68216 0,0 -3.72221,3.951 -5.80838,5.71598 -0.55265,0.46757 -1.05732,1.06289 -1.76776,1.28317 -4.35008,1.3488 -9.3527,0.93569 -13.76333,-0.2333 -0.70772,-0.18756 -1.34282,-0.59893 -1.89404,-1.04987 -4.15384,-3.39815 -10.22779,-12.13188 -10.22779,-12.13188 l -4.9245,-3.03296 c 0,0 -3.94003,-0.24452 -5.55583,-1.16652 -2.59515,-1.48085 -4.8817,-3.84778 -5.80838,-6.53255 -0.91013,-2.6368 -0.94394,-5.92824 0.63134,-8.28233 1.13113,-1.69036 3.43583,-2.69628 5.55584,-3.03297 1.94431,-0.30881 5.80838,1.04987 5.80838,1.04987 z"
           id="path4204"
           inkscape:connector-curvature="0"
           sodipodi:nodetypes="caaaaccassaaaaacaaaaaaacaaaaccaaaac" />
        <path
           style="fill:#000000;fill-rule:evenodd;stroke:none"
           d="m -740.44102,592.2379 -8.58789,6.06054 -11.61524,-0.50586 -11.61718,-4.03906 -12.12305,5.05078 -4.03906,8.58594 2.01953,12.62695 c 4.15197,9.23931 1.06479,8.8264 1.51562,13.13086 l -2.02148,16.16407 c 10.89658,26.2799 16.68114,35.5973 32.32617,48.99218 l 31.82031,1.00977 35.85978,-4.04024 c 9.95197,-8.85981 19.04923,-15.93974 28.28475,-41.41679 l 6.56446,-25.25391 -1.00977,-18.18359 -10.60547,-14.64649 -11.11328,6.06055 -16.16211,-5.55469 -5.55469,-3.03125 -10.60742,13.13281 -5.55469,2.5254 -10.60742,-1.01172 -6.06054,-2.52539 z m -23.74024,22.72851 9.59766,4.54492 25.75781,4.54688 13.13282,-8.08203 9.5957,6.06055 19.19336,3.03124 12.12109,-1.51562 -2.01953,11.11133 -29.29492,24.24414 -4.03906,-5.05078 -1.01172,-12.1211 -18.18164,-1.51562 -1.00977,6.06055 -4.04101,9.5957 c -7.57617,-5.05078 -1.40868,9.53225 -22.72852,-15.15234 l -13.13281,-15.15235 z"
           id="path4206"
           inkscape:connector-curvature="0"
           sodipodi:nodetypes="ccccccccccccccccccccccccccccccccccccccccc" />
        <path
           style="fill:#000000;fill-rule:evenodd;stroke:none"
           d="m -659.12454,603.3494 -12.12183,-14.14214 -8.08122,-9.59645 -7.07106,-0.50507 8.08122,-1.51523 8.08122,9.59645 12.6269,14.14213 -1.51523,4.54569 z"
           id="path4213"
           inkscape:connector-curvature="0" />
        <path
           style="fill:#000000;fill-rule:evenodd;stroke:none"
           d="m -779.33269,598.29864 11.11168,-14.64722 13.63706,-5.05076 -12.62691,7.07107 -8.08122,14.14213 z"
           id="path4215"
           inkscape:connector-curvature="0" />
        <path
           style="fill:#000000;fill-rule:evenodd;stroke:none"
           d="m -727.81491,587.69203 0.50508,-48.48732 -9.59645,-12.62691 -10.6066,-4.04061 10.6066,10.10153 5.55584,8.5863 -3.03046,12.6269 0.50508,18.68783 z"
           id="path4217"
           inkscape:connector-curvature="0" />
        <path
           style="fill:#000000;fill-rule:evenodd;stroke:none"
           d="m -740.94689,537.68948 -8.5863,7.57615 -15.15229,5.05076 -21.2132,-1.51523 -6.06092,-0.50508 5.55584,-1.51522 16.66752,2.0203 14.14214,-2.52538 z"
           id="path4219"
           inkscape:connector-curvature="0" />
        <path
           style="fill:#000000;fill-rule:evenodd;stroke:none"
           d="m -701.04587,537.18441 13.63706,7.07106 20.70813,4.54569 12.62691,-5.55584 -7.57615,2.02031 -10.6066,1.51523 -15.65736,-4.54569 z"
           id="path4221"
           inkscape:connector-curvature="0" />
        <path
           style="fill:#000000;fill-rule:evenodd;stroke:none"
           d="m -700.54079,516.47628 8.08122,-12.12183 25.25381,2.52538 16.66752,2.52538 13.63706,0 1.51523,10.10153 -14.64721,-2.52538 -16.66752,-1.51523 -22.72843,0 z"
           id="path4223"
           inkscape:connector-curvature="0" />
        <path
           style="fill:#000000;fill-rule:evenodd;stroke:none"
           d="m -742.9672,515.46613 -0.50507,-10.10153 -12.12183,-1.01015 -10.10153,1.01015 -24.74874,0 -13.63706,-0.50508 -6.56599,10.10153 0.50508,7.57614 6.06091,1.01016 13.13199,-8.08122 23.73858,-0.50508 16.66752,-1.51523 z"
           id="path4225"
           inkscape:connector-curvature="0" />
        <path
           style="fill:#000000;fill-rule:evenodd;stroke:none"
           d="m -826.30478,523.04227 1.01015,23.73859 4.54569,40.4061 3.53553,24.24366 14.64721,16.66752 18.68782,20.70812 -0.50507,3.03046 -35.86042,-39.39595 -4.04061,-42.42641 -3.03046,-31.31472 z"
           id="path4227"
           inkscape:connector-curvature="0" />
        <path
           inkscape:connector-curvature="0"
           id="path4229"
           d="m -620.23368,523.04227 -1.01015,23.73859 -4.54569,40.4061 -3.53553,24.24366 -14.64721,16.66752 -18.68782,20.70812 0.50507,3.03046 35.86042,-39.39595 4.04061,-42.42641 3.03046,-31.31472 z"
           style="fill:#000000;fill-rule:evenodd;stroke:none" />
        <path
           style="fill:#000000;fill-rule:evenodd;stroke:none"
           d="m -670.74129,425.36151 -24.24366,6.56723 c 0,0 -16.05011,3.90548 -24.24366,4.69088 -1.8435,0.17671 -4.0412,-1.06563 -5.55584,0 -3.2609,2.29421 -3.25424,7.34934 -4.04061,11.25811 -1.26615,6.29361 -1.01015,19.23262 -1.01015,19.23262 l -12.62691,11.25811 -14.14214,-0.93818 11.61676,-0.46909 11.61675,-10.31993 c 0,0 -0.75957,-15.44416 -3.53553,-22.51623 -0.55091,-1.40352 -1.07606,-4.16844 -2.52538,-3.7527 -4.81236,1.38044 0.43606,10.09363 -0.50508,15.01081 -0.84321,4.4055 -4.54569,12.66538 -4.54569,12.66538 l -11.11167,0.93818 8.58629,-7.9745 -12.12183,2.81453 -15.15229,-2.34544 13.13199,-1.87635 c 0,0 9.22017,-6.03538 7.07106,-9.27504 -0.96105,-1.44872 -3.46769,0.58201 -5.05076,1.30054 -3.52959,1.60202 -5.86306,5.52499 -9.59645,6.56723 -8.1205,2.26697 -25.25381,-1.40726 -25.25381,-1.40726 0,0 14.17782,-5.7503 20.20305,-10.31993 5.9337,-4.5002 15.15229,-16.41808 15.15229,-16.41808 0,0 -7.63774,3.01312 -11.11168,5.15997 -5.12559,3.16755 -8.63124,8.82192 -14.14214,11.25811 -7.17505,3.17186 -23.2335,3.7527 -23.2335,3.7527 l -6.06092,37.05795 -9.59645,9.85085 -3.53553,29.55255 -6.06092,-2.34544 -5.55584,-9.85085 1.51523,-10.31994 -7.07107,-15.01081 -5.05076,-28.14529 2.02031,-19.70169 6.06091,-38.46523 31.31473,-42.21791 84.34774,-16.88718 62.12438,5.62906 44.44671,39.87248 7.57615,21.10896 9.59645,10.31994 -9.59645,-4.69088 4.04061,32.83617 1.51523,26.26893 -3.53554,21.57805 -2.0203,18.76352 -10.10153,19.2326 3.03046,-19.2326 -8.5863,-22.98532 -5.05076,-36.11978 -23.73859,-23.4544 1.51523,12.19629 -3.03045,8.44358 -1.51523,-20.63987 -6.06092,-4.22179 c 0,0 0.25349,9.04914 -1.51523,13.13446 -1.74627,4.03347 -6.34449,6.50362 -8.58629,10.31994 -2.65228,4.51512 -5.0696,9.41824 -5.55584,14.54173 -0.35967,3.78977 2.0203,11.25812 2.0203,11.25812 l -3.53553,-10.78903 c 0,0 2.79666,-11.89159 5.55584,-17.35626 2.06181,-4.0835 6.3991,-7.02714 8.08122,-11.25811 1.46839,-3.69338 1.51523,-11.72721 1.51523,-11.72721 z"
           id="path4231"
           inkscape:connector-curvature="0"
           sodipodi:nodetypes="ccaaacccccaaaccccccaaacacaacccccccccccccccccccccccccccccccaaaccaacc" />
        <path
           style="fill:#000000;fill-rule:evenodd;stroke:none"
           d="m -836.91138,511.93059 -2.02031,10.10153 2.52538,23.23351 1.51523,7.57614 1.01015,12.62691 7.07107,5.55584 4.04061,2.52538 -1.01015,-4.04061 -8.5863,-5.55584 -2.0203,-16.66752 -2.52538,-20.20305 z"
           id="path4233"
           inkscape:connector-curvature="0" />
        <path
           inkscape:connector-curvature="0"
           id="path4235"
           d="m -610.13214,511.93059 2.02031,10.10153 -2.52538,23.23351 -1.51523,7.57614 -1.01015,12.62691 -7.07107,5.55584 -4.04061,2.52538 1.01015,-4.04061 8.5863,-5.55584 2.0203,-16.66752 2.52538,-20.20305 z"
           style="fill:#000000;fill-rule:evenodd;stroke:none" />
        <path
           style="fill:#000000;fill-rule:evenodd;stroke:none"
           d="m -701.42857,621.64792 -11.42857,2.85714 -10.35715,0.35714 -9.28571,-1.78571 -5.71429,-1.42857 6.78572,3.57143 11.07143,1.42857 7.85714,0.35714 z"
           id="path4237"
           inkscape:connector-curvature="0" />
        <path
           style="fill:#000000;fill-rule:evenodd;stroke:none"
           d="m -688.4694,622.00507 -12.02713,6.88775 -7.47633,3.82654 -10.7269,0.5102 -11.37704,-0.5102 -10.72691,-2.04083 -7.47633,-4.08162 -2.60046,-4.59184 -0.65011,1.53061 3.57563,5.10204 11.37702,4.84694 10.40186,0.5102 16.25289,0.51021 12.67726,-4.84694 z"
           id="path4239"
           inkscape:connector-curvature="0" />
      </g>
    </g>
  </g>
</svg>
