<?xml version="1.0" encoding="utf-8"?>

<!DOCTYPE svg PUBLIC "-//W3C//DTD SVG 1.1//EN" "http://www.w3.org/Graphics/SVG/1.1/DTD/svg11.dtd">
<svg version="1.1" id="Layer_1" xmlns="http://www.w3.org/2000/svg" xmlns:xlink="http://www.w3.org/1999/xlink" x="0px" y="0px"
	 viewBox="5.1931 -17 1458.8651 2200.0527" enable-background="new 5.1931 -17 1458.8651 2200.0527" xml:space="preserve">
<g>
	<path fill="#EADFD9" stroke="#EADFD9" stroke-width="0.7" d="M784.41,19.63c19.05-8.37,39.71-13.15,60.53-13.64
		c9.01-0.49,18.05,0.01,27.07-0.5c23.7,0.28,47.49-0.89,71.1,1.73c17.96,1.87,35.7,5.68,52.88,11.24
		c40.1,11.63,77.62,30.29,114.96,48.65c20.05,9.65,37.38,24.44,50.9401,42.02c11.41,15.24,22.88,30.43,34.7,45.35
		c6.39,8.22,13.2201,16.13,18.8201,24.94c9.7999,14.85,16.9299,31.33,21.8199,48.4c4.42,5.89,8.85,11.78,12.79,18.01
		c11.84,18.22,22.11,38.17,24.7,60.03c3.53,22.7-0.9299,45.47-2.52,68.13c-0.58,11.37-0.87,22.75-1.5699,34.12
		c1.4399,27.88,4.98,55.67,10.78,82.99c-3.37-4.1-6.29-8.77-10.76-11.78c-1.4401-1.09-4-0.9-4.3101,1.2
		c-1.1,5.86,0.3301,11.8,1.2201,17.6c4.12,26.81,5.4099,54.11,3.08,81.15c-3.38-6.35-5.8-13.16-9.39-19.4
		c2.9399,15.55-1.1,31.92-10.15,44.8c-0.23-0.16-0.6699-0.46-0.89-0.62c0.7101-9.3,0.4501-18.77-1.95-27.83
		c0.8-10.68,1.59-21.41,0.92-32.12c-0.5801-8.21-0.6001-16.79-4.2401-24.36c3.4701-18.61,0.16-38.13-7.46-55.33
		c-7.96-18.69-14.75-37.86-20.72-57.27c-5.4401-16.73-10.16-33.69-14.21-50.81c-1.03-4.42-1.8-8.98-3.88-13.06
		c-1.1001-2.18-2.38-4.31-3.01-6.69c-3.36-18.81-11.4301-37.44-25.8-50.44c-6.5599-5.79-14.04-10.58-22.08-14.04
		c4.1,0.53,8.21,0.91,12.36,0.96c-5.01-4.09-9.4-8.87-13.01-14.22c3.8199-0.05,8.03,0.34,11.1801-2.29
		c-12.1201-6.88-25.5901-10.92-39.3201-12.97c15.87,0.19,31.6801,2.69,46.85,7.37c-8.4399-10.22-19.51-18.47-32.25-22.41
		c-6.6899-2.77-14.26,0.72-20.8199-2.83c0.91-0.12,2.73-0.38,3.64-0.5c-6.99-2.87-14.49-4.26-21.5901-6.85
		c9.6001,0.32,19,2.51,28.3401,4.63c-11.5901-7.82-23.7201-14.85-36.4-20.75c-19.4401-9.9-41.26-13.77-62.8-15.62
		c2.85,1.37,5.7299,2.66,8.6199,3.96c-0.84,0.01-2.5299,0.03-3.37,0.03c-10.6899-0.3-21.39,0.04-32.08-0.19
		c2.28-3.82,4.92-7.44,6.79-11.49c-4.66,1.37-9.35,3.8-14.31,2.38c1.18-1.38,2.4-2.74,3.58-4.12c4.99-0.05,9.91-0.93,14.88-1.35
		c9.32-0.59,18.66-0.24,27.9999-0.36c13.8-0.04,27.52,1.71,41.1801,3.42c-11.3101-4.63-23.08-8.05-34.41-12.65
		c-27.8-10.83-55.1-23.39-80.34-39.36c17.25,2,34.29,5.55,51.57,7.35c-3.17-3.39-7.12-5.83-10.94-8.38
		c-21.23-13.99-43.67-26.11-67.01-36.17c7.33-3.03,16.54-6.3,18.64-14.98c-24.37-6.4-49.89-6.43-74.84-4.29
		c13.35-11.31,30.69-18.05,48.25-17.97c-8.98-2.9-18.16-5.14-27.1-8.15c-18.45-5.25-38.09-6.7-57.03-3.41
		c-24.34,4.46-46.7599,17.62-63.61,35.59c-1.41-4.6-1.17-9.81-4.11-13.83c-2.09-3.21-5.4-5.24-8.38-7.5
		c-2.73-2.01-4.82-4.7-6.99-7.25c2.49,9.16,6.27,17.93,10.14,26.58c-16.76-0.63-33.78-0.67-50.13,3.58
		c-24.4901,5.86-46.69,19.68-63.75,38.08c-5.75,6.38-12.6,12.93-13.38,22.01c8.68-5.71,16.94-12.05,25.7-17.65
		c-16.13,20.67-30.41,43.57-36.4,69.39c5.44-7.23,13.42-12.31,22.25-14.26c-6.39,19.3-10.73,39.33-12.09,59.64
		c-1.14,14.28-0.34,28.62,0.21,42.91c-6.39,15.72-13.07,31.34-19.02,47.24c-7.32,18.98-13.29,38.52-22.22,56.85
		c2.46-24.68,3.78-49.49,3.44-74.29c-3.07,1.84-6.18,3.61-9.36,5.25c1.15-4.6,1.83-9.3,2.3-14.02c-5.42,2.23-11.05,3.93-16.38,6.39
		c1.54-14.72,7.76-28.44,13.73-41.83c-8.91,4.32-16.53,10.8-23.81,17.41c-10.41,8.99-19.61,19.34-27.67,30.47
		c-1.38,1.86-2.4,3.95-3.4,6.03c-1.41,1.74-2.74,3.55-4.04,5.36c0.75-1.47,1.51-2.94,2.28-4.42c-5.45,2.56-10.78,5.43-15.59,9.05
		c-1.31-1.88-4.27-3.64-3.28-6.26c4.55-14.73,12.44-28.15,21.51-40.52c-14.94,4.7-27.89,14.24-39.02,25.05
		c-13.4,13.58-25.1,29.74-29.66,48.54c-6.23,3.85-12.27,8.18-17.32,13.5c-3.95,5.4-6.47,11.69-9.28,17.72
		c-10.05,22.51-14.74,47.7-11.47,72.25c1.46-4.9,4.96-8.76,7.9-12.82c11.17-14.67,26.86-26.25,44.9-30.75
		c1.04,2.81,1.52,6.37,4.57,7.78c3.43-3.79,6.91-7.83,11.8-9.75c0.19,6.87,0.04,13.75,0.08,20.62c8.93-12.51,15.82-26.29,21.9-40.36
		c0.48,11.82,0.34,23.76,2.58,35.42c-3.46,15.28-9.7599,29.81-17.2,43.54c-5.29,9.39-12.03,17.91-19.85,25.3
		c0.91-3.01,2.06-5.93,3.3-8.82c-15.61,9.39-31.03,19.08-46.61,28.51c-4.73,2.82-8.89,6.87-10.98,12.05
		c-2.2,5.13-2.28,10.9-1.34,16.33c1.21,6.99,2.37,14.03,4.49,20.82c-11.34,18.29-10.88,41.54-4.47,61.47
		c-6.13-3.72-10.94-9.72-12.81-16.69c-0.9-3.48-1.39-7.05-2.01-10.58c0.07,16.24-1.02,32.55,0.77,48.75
		c0.02,15.53,2.3,30.98,4.59,46.31c1.32,6.36,2.66,12.72,3.47,19.17c1.43,10.49,2.33,21.05,2.79,31.62
		c-0.01,1.32-0.03,2.65-0.05,3.99c-1.81,0.24-3.6,0.51-5.39,0.78c-3.22-12.64-5.17-25.71-10.52-37.71
		c-4.74-11.96-12.22-22.48-18.68-33.52c-5-8.36-9.8-16.86-15.26-24.93c-1.34-2.34-2.08-4.95-2.46-7.6
		c-2.46-13.49-5.83-26.79-9.65-39.94c-0.37-1.25-0.97-2.39-1.6-3.5c-10.19-17.35-17.55-36.48-20.54-56.43
		c-3.09-21.82-3.58-44.12-0.16-65.94c3.73-23.42,9.56-46.48,17.01-68.99c3.5-11.41,8.31-22.36,13.72-32.99
		c-2.09-24.16,2.62-48.8,12.91-70.73c2.3-4.89,4.15-10.08,7.51-14.37c2.52-3.48,4.27-7.44,5.67-11.48
		c1.49-4.48,4.93-7.97,6.48-12.42c-1.15-0.7-3.53-1.11-2.92-2.99c2.87-23.49,13.02-45.77,27.79-64.16
		c13.64-17.36,30.47-32.15,49.28-43.68c17.89-11.17,35.16-23.32,51.99-36.03c16.85-13.2,33.98-26.05,51.36-38.56
		c12.86-9.78,26.48-18.58,40.66-26.35c15.19-8.13,30.66-16.3,47.69-19.78c14.4-3.63,29.32-3.84,44.08-3.77
		c8.66-0.13,17.28-1.2,25.83-2.49C760.22,28.67,773,25.78,784.41,19.63 M1149.8,214.26c3,1.74,6.21,3.09,9.23,4.83
		c15.96,8.85,29.76,21.74,39.25,37.36c-0.5801,0.35-1.75,1.05-2.3401,1.41c-4.75-1.14-9.1-3.44-13.7999-4.73
		c9.02,6.46,16.67,14.48,24.12,22.64c12.6799,14.17,22.6799,30.63,29.95,48.17c7.39,17.01,12.5601,34.97,15.41,53.29
		c3.46,23.09,5.05,46.41,7.17,69.65c0.25,3.52,2.51,6.4,4.1599,9.39c2.6901-10.88,4.0801-22.07,4.41-33.27
		c0.49-12.06-1.5599-24-2.5-35.98c-1.22-13.64-1.85-27.33-2.11-41.02c0.39-27.17-8.27-54.45-24.54-76.25
		C1217.02,241.17,1185.24,219.81,1149.8,214.26z"/>
	<path fill="#987B77" stroke="#987B77" stroke-width="0.7" d="M844.04,40.89c18.94-3.29,38.58-1.84,57.03,3.41
		c8.94,3.01,18.12,5.25,27.1,8.15c-17.56-0.08-34.9,6.66-48.25,17.97c24.95-2.14,50.47-2.11,74.84,4.29
		c-2.1,8.68-11.31,11.95-18.64,14.98c23.34,10.06,45.78,22.18,67.01,36.17c3.82,2.55,7.77,4.99,10.94,8.38
		c-17.28-1.8-34.32-5.35-51.57-7.35c25.24,15.97,52.54,28.53,80.34,39.36c11.3301,4.6,23.1,8.02,34.41,12.65
		c-13.66-1.71-27.38-3.46-41.1801-3.42c-9.34,0.12-18.6799-0.23-27.9999,0.36c-4.97,0.42-9.89,1.3-14.88,1.35
		c1.7-2.06,3.3-4.2,4.88-6.36c-9.57,2.95-19.84,5.07-29.78,2.74c-5.32-1.45-10.65-3.55-14.75-7.35c13.07-3.4,26.47-5.41,39.56-8.71
		c-18.62,0.13-37.18-2.73-55.2-7.29c-2.34-0.57-4.61-1.36-6.84-2.21c6.47-4,14.17-4.9,21.19-7.54c-10.63-2.6-21.37-5.01-31.47-9.33
		c-0.98-0.25-1.59-0.83-1.82-1.76c3.56-2.52,7.65-4.21,11.14-6.86c-8.12-0.18-16.24,0.16-24.35-0.19c2.67-4.19,6.47-7.56,11.25-9.13
		c-9.99,0.02-19.98,0.26-29.96-0.11c1.9901-3.84,4.61-7.3,7.54-10.48c-15.33,0.08-30.63,1.3-45.97,1.38
		c1.85-2.74,3.72-5.65,3.52-9.12c-10.02,1.96-19.8,4.97-29.81,7.01c3.48-4.27,5.13-9.66,8.55-13.98
		c-9.63,2.41-18.91,6.03-27.97,10.04c-4.19,1.96-9.01,0.04-12.4901-2.49c-5.8799-4.58-8.29-12.01-9.98-18.97
		C797.28,58.51,819.7,45.35,844.04,40.89z"/>
	<path fill="#E29592" stroke="#E29592" stroke-width="0.7" d="M760.95,47.9c2.17,2.55,4.26,5.24,6.99,7.25
		c2.98,2.26,6.29,4.29,8.38,7.5c2.94,4.02,2.7,9.23,4.11,13.83c1.69,6.96,4.1,14.39,9.98,18.97c3.48,2.53,8.3,4.45,12.4901,2.49
		c9.06-4.01,18.34-7.63,27.97-10.04c-3.42,4.32-5.07,9.71-8.55,13.98c10.01-2.04,19.79-5.05,29.81-7.01
		c0.2,3.47-1.67,6.38-3.52,9.12c15.34-0.08,30.64-1.3,45.97-1.38c-2.93,3.18-5.55,6.64-7.54,10.48c9.98,0.37,19.97,0.13,29.96,0.11
		c-4.78,1.57-8.58,4.94-11.25,9.13c8.11,0.35,16.23,0.01,24.35,0.19c-3.49,2.65-7.58,4.34-11.14,6.86c0.23,0.93,0.84,1.51,1.82,1.76
		c10.1,4.32,20.84,6.73,31.47,9.33c-7.02,2.64-14.72,3.54-21.19,7.54c2.23,0.85,4.5,1.64,6.84,2.21c18.02,4.56,36.58,7.42,55.2,7.29
		c-13.09,3.3-26.49,5.31-39.56,8.71c4.1,3.8,9.43,5.9,14.75,7.35c9.94,2.33,20.21,0.21,29.78-2.74c-1.58,2.16-3.18,4.3-4.88,6.36
		c-1.18,1.38-2.4,2.74-3.58,4.12c4.96,1.42,9.65-1.01,14.31-2.38c-1.87,4.05-4.51,7.67-6.79,11.49c10.69,0.23,21.39-0.11,32.08,0.19
		c-5.7499,0.77-10.83,3.66-15.39,7.07c13.4,6.11,27.77,9.89,42.23,12.51c3.95,0.75,7.97,1.04,11.99,1.27
		c-12.1001,0.97-24.26,1.93-36.12,4.57c15.4399,2.97,31.1499,4.45,46.58,7.46c-5.75,2.24-11.55,4.4-17.05,7.23
		c6.55,1.2,13.17,2.58,19.14,5.66c10.36,5.06,18.74,13.75,23.9601,23.99c9.86,17.77,27.7799,30.22,47.4199,34.82
		c1.05,3.57,1.72,7.29,0.9301,10.99c-0.67-0.29-2.01-0.88-2.6801-1.18c0.8201,11.14,4.13,21.92,8.61,32.1
		c7.4801,18.59,16.2201,36.64,24.1901,55.02c1,3.93,0.0599,8.23-2.76,11.19c-6.61,7.55-11.62,16.38-15.26,25.7
		c-3.71,9.54-6.75,19.65-6.23,30c0.25,4.57,0.65,9.32,2.8199,13.45c1.24,2.35,3.49,4.47,6.29,4.57c5.79,0.56,10.96-2.75,15.45-5.99
		c2.3101-1.47,5.15-1.05,7.76-0.91c8.62,0.74,17.2001,2.37,25.3401,5.33c5.09,1.86,9.7999,4.6,14.7699,6.75
		c3.8201,3.79,5.7101,8.97,7.52,13.92c2.2001,7.32,4.2101,15.1,2.52,22.74c-0.8,4.7-1.6,9.4-2.53,14.07
		c-7.0299-1.89-14.1799-3.57-21.46-3.92c2.5,4.24,4.13,9.5,1.77,14.19c-8.1901-7.78-18.9401-12.16-29.9-14.3
		c0.5-3.29,1.85-8.15-2.1899-9.73c-8.12-2.4-16.2401,1.42-24.28,2.34c-0.14-2.25-0.13-4.49-0.0801-6.73
		c-6.2999,4.46-13.1399,8.42-20.7799,9.9901c-6.79,1.35-13.8301,0.91-20.52-0.71c-6.03-13.41-8.37-28.48-6.28-43.05
		c0.7-7.6,3.62-14.71,4.9401-22.18c-10.0901,19.66-11.7301,42.64-8.3401,64.2c-1.0299,10.08-5.2999,19.86-11.95,27.51
		c-1.29,1.54-2.76,3.25-2.53,5.42c0.46,5.29,3.0701,10.04,5.49,14.66c3.6901,11.76,8.9501,22.94,13.49,34.38
		c1.98,5.31,4.88,10.28,6.29,15.79c-0.9301,1.83-2.36,3.98-1.16,6.06c0.9,2.34,3.39,3.22,5.5,4.16
		c0.36,2.43,0.4501,5.13,2.3201,6.99c4.35,4.6,5.97,10.84,8.75,16.37c4.4399,9.24,8.5599,18.63,13.25,27.76
		c3.7899,7.56,7.46,15.87,6.0699,24.54c-0.2,0.86-0.39,1.73-0.5699,2.61c-2.3201,7.01-7.0601,12.89-11.9401,18.3
		c-11.8199,12.79-28.2,20.7-45.16,23.99c-5.87,1.07-11.4399,3.43-16.3099,6.87c-4.37-1.57-8.73-3.28-12.63-5.81
		c-2.79-3.95-5.62-7.9-9.1801-11.2c1.5801-0.02,3.17-0.03,4.75,0.24c8.8601,1.8,18,1.97,26.9801,1.22
		c2.9399-0.46,7.37-1.1801,7.6499-4.87c-1.6899-5.33-7.0199-8.21-11.25-11.36c-14.74-10.8-33.1799-16.35-51.4199-15.68
		c-11.37-0.26-22.66,2.03-33.3701,5.75c-9.86,3.49-18.93,9.28-25.97,17.05c-3.84,4.02-6.48,8.95-9.61,13.4901
		c-2.38-9.78,1.11-19.61,4.59-28.65c0.54-1.97,2.3-3.06,4-3.93c16.7-8.55,33.18-17.56,49.68-26.49c9.02-4.69,13.75-17.01,8.36-26.07
		c-20.21,6.05-39.16,16.56-54.78,30.78c-4.34,4.2-10.26,6.16-14.67,10.26c-6.85,5.87-12.88,13.95-12.41,23.42
		C943.09,738.09,933.49,750.59,924.36,763.39c-6.69,9.29-12.51,19.2-19.72,28.12c-3.7,4.93-8.06,9.29-12.1,13.92
		c4.43,0.14,8.97-0.12,13.15-1.72c2.47-0.96,4.6-2.68,7.17-3.44c2.8,1.24,1.26,4.95,1.81,7.35c1.49-1.55,2.94-3.12,4.41-4.68
		c1.08,2.99,1.23,6.16,0.82,9.3c-0.4-1.68-0.83-3.35-1.22-5.01c-1.57,2.52-2.98,5.27-5.37,7.13c-1.42,1.29-3.34,0.36-4.98,0.26
		c-1.36-1.77-2.72-3.52-4.07-5.26c-13.68,6.32-25.45,16.57-33.58,29.25c-2.35,3.54-4.27,7.35-6.48,10.98
		c-3.99-3.41-6.86-7.85-8.72-12.72c-7.98,16.58-13.89,34.12-18.3,51.96c-2.29,1.36-4.53,2.79-6.75,4.26l-0.21,0.14
		c-2.6-4.79-4.1-10.06-4.58-15.47c-3.52,4.6-7.52,8.85-12.35,12.1c-6.4-17.61-5.11-36.96-0.4-54.8
		c-9.36,6.45-16.29,15.59-23.63,24.11c0.3-7.03,1.19-14.05,3.36-20.76c-1.91-22.74-3.88-45.52-3.75-68.37
		c-0.1-15.84,1.41-32.11-3.52-47.45c-2.93-11.23-9.18-21.38-17.05-29.82c-20.36-18.45-41.3-36.27-62.81-53.37
		c-13.82-11.39-27.22-23.3-39.77-36.07c-8.25-8.43-17.02-16.42-24.09-25.91c-4.25-5.95-8.25-12.11-11.36-18.74
		c-4.95-9.38-7.23-19.81-10.01-29.96c1.36-4.34,2.56-8.74,3.6-13.17c-4.16,1.19-8.05,3.07-12.05,4.68
		c6.08-8.91,13.48-16.8,20.86-24.63c-12.12,1.12-23.92,4.28-35.84,6.53c0.24-0.53,0.73-1.57,0.98-2.1
		c-0.55,0.25-1.64,0.74-2.18,0.98c-16.96,7.04-33.09,16.02-48.03,26.69c-9.93,7.14-19.93,14.71-26.85,24.98
		c-6.96,10.1-10.81,22.35-10.74,34.63c2.18-3.22,4.34-6.52,7.41-8.99c-0.53,4.15-1.15,8.3-1.87,12.42c-1.03-2.11-3.7-1.59-5.6-2.09
		c-0.51,1.12-1.01,2.24-1.51,3.37c-1.53-1.52-3.04-3.06-4.38-4.74c-3.36-5.23-5.95-10.9301-7.86-16.85
		c-1.04-4.14-1.55-8.4-1.88-12.65c-0.43-7.08,1.31-14,2.69-20.89c-9.91,6.2-17.55,15.29-26.97,22.11
		c-0.42-4.72,0.34-9.42,1.04-14.08c-12.06,3.31-23.23,10.45-30.3,20.9c-2.12-6.79-3.28-13.83-4.49-20.82
		c-0.94-5.43-0.86-11.2,1.34-16.33c2.09-5.18,6.25-9.23,10.98-12.05c15.58-9.43,31-19.12,46.61-28.51c-1.24,2.89-2.39,5.81-3.3,8.82
		c7.82-7.39,14.56-15.91,19.85-25.3c7.44-13.73,13.74-28.26,17.2-43.54c6.15-17.84,11.4-36.06,18.8101-53.45
		c-0.03,1.37-0.07,2.74-0.2,4.11c-3.2,18.89-7.81,37.59-9.51,56.71c3.61-5.58,5.52-11.98,8.38-17.92
		c2.89-6.13,6.12-12.11,9.85-17.77c2.78,3.43,4.45,7.73,4.31,12.18c-0.3,10.1-3.25,19.92-7.5,29.01
		c11.93-13.22,19.7-29.91,23.49-47.24c0.36-1.46,0.77-2.9,1.19-4.34c0.18,13.76-1.67,27.48-4.7,40.89
		c13.2599-13.5,21.84-30.76,29.17-48c8.93-18.33,14.9-37.87,22.22-56.85c5.95-15.9,12.63-31.52,19.02-47.24
		c4.35-9.3,10.43-17.59,15.94-26.21c-3.91,1.91-7.37,4.62-11.38,6.32c3.64-16.82,9.97-33.01,17.97-48.23
		c7.55-14.1,16.89-27.59,29.48-37.67c2.76-2.3,4.25-5.68,6.65-8.3c9.9301-10.91,21.4901-20.31,34.23-27.74
		c16.28-9.36,32.4-19,48.11-29.28c-1.61-11.86-8.39-21.98-13.41-32.59C767.22,65.83,763.44,57.06,760.95,47.9 M927.94,352.28
		c-21.33,2.66-42.63,5.53-63.93,8.39c-9.69,1.32-19.28,4.36-27.44,9.85c-2.46,1.72-5.31,3.13-6.93,5.76
		c5.19-0.81,10.13-2.77,15.37-3.36c13.88-2.61,28.02-1.19,42.04-1.48c17.65,0.29,35.23-1.83,52.57-4.95
		c14.75-2.92,29.59-5.33,44.32-8.35c11.98-1.89,24.19-1.19,36.24-0.43c-18.26-6.45-37.88-8.55-57.17-8.13
		C951.26,349.29,939.51,350.27,927.94,352.28 M948.77,405.78c-4.71,3.12-9.3,6.79-12.13,11.78c-2.29,3.99-2.05,8.73-2.6,13.14
		c-0.95,0.4-1.89,0.8-2.81,1.22c-4.98,3.09-7.11,8.78-8.57,14.16c-1.42-4.61-1.22-9.45-1.14-14.21c-4.31,1.16-6.94,5.52-8.28,9.51
		c-4.33-3.88-9.44-6.81-14.88-8.83c-2.23-0.97-4.42,0.54-6.46,1.27c-10,4.53-21.25,3.9-31.95,3.91
		c-17.88-0.35-35.94,5.17-50.21,16.02c-2.99,2.35-6.2,4.57-8.39,7.74c3.76-1.85,7.2401-4.2,11.02-6
		c17.17-8.59,37.51-9.51,55.93-4.83c-16.69,6.69-34.05,11.58-51.29,16.64c-2.02,0.65-4.01,1.8-5.03,3.74
		c-5.98,10.86-13.86,20.61-22.82,29.15c-3.72,3.6-7.79,7.38-13.06,8.36c-10.08,2.4-20.54,0.35-30.02-3.38
		c5.28,4.96,10.54,9.95,15.67,15.06c4.71,4.28,10.52,8.56,17.23,8.08c4.75,0.01,8.92-2.88,11.94-6.34
		c8.32-9.37,16.16-19.17,23.92-29c1.98-2.89,4.6299-5.5,8.17-6.26c12.11-3.18,24.04-7.39,34.96-13.59
		c8.86-5.72,19.52-8.44,30.04-8.15c3.47,0,6.94,0.69,10.42,0.23c1.12,1.02,2.34,1.93,3.55,2.88c0.02-1.41,0.05-2.83,0.09-4.23
		c7.01,5.57,12.95,12.29,19.54,18.32c-0.08-2.32-0.34-4.63-0.77-6.9c10.06,10.28,20.68,20.05,32.34,28.49
		c3.33,2.31,6.47,5.2,10.62,5.9c-6.45,3.39-13.22,6.16-20.29,7.94c-10.13,0.67-20.43,1.37-30.44-0.75
		c-10.53-2.42-21.27-4.39-32.11-4.11c-9.81-0.06-19.64-0.02-29.39,1.09c-1.98,0.12-4.84,0.95-4.85-2
		c-9.36,2.63-18.8199,6.11-26.21,12.64c-4.96,4.48-10.45,8.45-16.6,11.14c4.36-0.2,8.72-0.08,13.08-0.11
		c13.49-0.45,27.1-2.15,40.53,0.06c8.44,1.86,16.97,3.34,25.4,5.27c3.96,0.69,7.78,2.27,11.85,2.31c3.87,1.74,7.74,4.22,12.06,4.46
		c11.4,5.4301,23.35,9.76,35.83,11.91c6.79,1.15,14.56,2.89,20.79-1.02c6.3-3.65,13.77-3.98,20.86-4.01
		c7.92,0.13,15.97-4.98,18.78-12.42l-1.61-0.21c11.18-7.83,22.61-15.38,34.87-21.42c18.15-9.17,34.86-23.69,41.9501-43.23
		c3.24-8.38,3.99-17.4,5.2-26.23c-8.73,13.72-19.4,26.18-31.3199,37.22c-8.7001,8.14-19.2301,14.25-30.5601,17.91
		c1.72-7.32,2.84-14.91,2.06-22.43c-0.85,0.82-1.69,1.66-2.48,2.52c-0.27-4.74,0.14-9.5-0.3-14.22c-0.75-4.16-2.41-8.13-4.5-11.78
		c1.91-3.03,1.89-6.79,2.17-10.25c0.09-13.36-8.12-25.25-18.11-33.43c-5.07-4.09-10.07-8.4-16.14-10.94
		C973.5,399.52,959.42,399.12,948.77,405.78 M1065.91,532.9c-0.9,0.24-1.53,0.78-1.89,1.62c9.0599,0.26,18.03,1.74,26.97,3.15
		c-1.47-3.69-5.26-5.82-8.91-6.88C1076.63,529.46,1071.01,530.97,1065.91,532.9 M797.07,544.52c-11.32,1.55-22.68,2.75-34.01,4.1
		c-4.76,0.62-9.63,0.52-14.24,1.97c15.03,0.0699,30.04-0.4901,45.06-0.97c8.95-0.24,18.3,2.29,24.88,8.6
		c16.78,14.1201,38.18,20.17,58.22,27.9901c8.69,3.24,17.5,7.27,26.99,6.84c5.38-0.18,11.27-0.84,15.7401-4.09
		c-14.48-0.26-28.9901-2.86-42.44-8.3c-7.44-2.72-14.71-5.86-22.05-8.83c-11.31-4.78-21.65-12.07-29.52-21.52
		c-3.56-4.27-8.99-7.22-14.62-7.11C806.37,543.19,801.73,544,797.07,544.52 M810.38,641.56c-5.09,0.67-9.63,3.26-13.8,6.1
		c-5.26,3.44-9.69,8.78-10.48,15.19c-0.99,8.45,3.15,16.39,7.79,23.14c6.52,9.07,14.07,17.66,23.54,23.75
		c11.09,7.79,24.65,13.58,38.46,11.75c9.22-1.59,16.87-8.08,21.76-15.84c4.5699-6.31,3.37-14.87,0.63-21.6801
		c-4.86-11.84-13.22-22.1299-23.34-29.9C842.27,644.74,826.07,640.01,810.38,641.56 M1081.1,697.26
		c-1.0399,3.73-2.47,8.92,1.1,11.72c4.6901,1.23,9.1001-1.54,13.0601-3.68c2.2-1.48,5.21-2.48,6-5.3
		C1094.92,697.25,1087.87,697.18,1081.1,697.26z"/>
	<path fill="#987B77" stroke="#987B77" stroke-width="0.7" d="M720.96,78.06c16.35-4.25,33.37-4.21,50.13-3.58
		c5.02,10.61,11.8,20.73,13.41,32.59c-15.71,10.28-31.83,19.92-48.11,29.28c-12.74,7.43-24.3,16.83-34.23,27.74
		c-2.4,2.62-3.89,6-6.65,8.3c-12.59,10.08-21.93,23.57-29.48,37.67c-8,15.22-14.33,31.41-17.97,48.23c4.01-1.7,7.47-4.41,11.38-6.32
		c-5.51,8.62-11.59,16.91-15.94,26.21c-0.55-14.29-1.35-28.63-0.21-42.91c1.36-20.31,5.7-40.34,12.09-59.64
		c-8.83,1.95-16.81,7.03-22.25,14.26c5.99-25.82,20.27-48.72,36.4-69.39c-8.76,5.6-17.02,11.94-25.7,17.65
		c0.78-9.08,7.63-15.63,13.38-22.01C674.27,97.74,696.47,83.92,720.96,78.06z"/>
	<path fill="#865B4A" stroke="#865B4A" stroke-width="0.7" d="M1023.96,186.62c21.54,1.85,43.3599,5.72,62.8,15.62
		c12.6799,5.9,24.8099,12.93,36.4,20.75c-9.3401-2.12-18.74-4.31-28.3401-4.63c7.1001,2.59,14.6001,3.98,21.5901,6.85
		c-0.91,0.12-2.73,0.38-3.64,0.5c6.5599,3.55,14.13,0.06,20.8199,2.83c12.74,3.94,23.8101,12.19,32.25,22.41
		c-15.1699-4.68-30.98-7.18-46.85-7.37c13.73,2.05,27.2,6.09,39.3201,12.97c-3.15,2.63-7.3601,2.24-11.1801,2.29
		c3.61,5.35,8,10.13,13.01,14.22c-4.15-0.05-8.26-0.43-12.36-0.96c8.0399,3.46,15.52,8.25,22.08,14.04
		c14.37,13,22.4401,31.63,25.8,50.44c-2.35-0.87-4.17-2.62-5.9-4.36c-10.91-10.5-24.21-17.93-36.86-26.04
		c0.7899-3.7,0.12-7.42-0.9301-10.99c-19.64-4.6-37.5599-17.05-47.4199-34.82c-5.2201-10.24-13.6001-18.93-23.9601-23.99
		c-5.97-3.08-12.59-4.46-19.14-5.66c5.5-2.83,11.3-4.99,17.05-7.23c-15.4301-3.01-31.14-4.49-46.58-7.46
		c11.86-2.64,24.0199-3.6,36.12-4.57c-4.02-0.23-8.04-0.52-11.99-1.27c-14.4601-2.62-28.8301-6.4-42.23-12.51
		c4.56-3.41,9.64-6.3,15.39-7.07c0.8401,0,2.53-0.02,3.37-0.03C1029.6899,189.28,1026.8101,187.99,1023.96,186.62z"/>
	<path fill="#907061" stroke="#907061" stroke-width="0.7" d="M1149.8,214.26c35.4399,5.55,67.22,26.91,88.4099,55.49
		c16.27,21.8,24.9301,49.08,24.54,76.25c0.26,13.69,0.89,27.38,2.11,41.02c0.9401,11.98,2.99,23.92,2.5,35.98
		c-0.33,11.2-1.72,22.39-4.41,33.27c-1.6499-2.99-3.9099-5.87-4.1599-9.39c-2.12-23.24-3.7101-46.56-7.17-69.65
		c-2.85-18.32-8.02-36.28-15.41-53.29c-7.27-17.54-17.27-34-29.95-48.17c-7.45-8.16-15.1-16.18-24.12-22.64
		c4.7,1.29,9.0499,3.59,13.7999,4.73c1.8601,0.89,3.52,2.17,5.1201,3.48c-0.9401-1.63-1.8301-3.28-2.78-4.89
		c-9.49-15.62-23.29-28.51-39.25-37.36C1156.01,217.35,1152.8,216,1149.8,214.26z"/>
	<path fill="#D1BAAD" stroke="#D1BAAD" stroke-width="0.7" d="M572.18,281.18c7.28-6.61,14.9-13.09,23.81-17.41
		c-5.97,13.39-12.19,27.11-13.73,41.83c-2.45,9.93-2.12,21.43-9.46,29.44c-1-15.79,0.17-31.6,1.56-47.32
		c-9.85,5.64-18.14,13.57-25.82,21.85c-2.56,2.63-4.41,5.94-7.43,8.11c1-2.08,2.02-4.17,3.4-6.03
		C552.57,300.52,561.77,290.17,572.18,281.18z"/>
	<path fill="#D1BAAD" stroke="#D1BAAD" stroke-width="0.7" d="M502.97,305.94c11.13-10.81,24.08-20.35,39.02-25.05
		c-9.07,12.37-16.96,25.79-21.51,40.52c-0.99,2.62,1.97,4.38,3.28,6.26c-2.41,1.9-5.11,3.49-7.19,5.76
		c-3.13,8.84-5.62,17.91-8.27,26.91c-3.65-11.3-1.33-23.38,1.6-34.56c-4.25,8.14-8.11,16.59-13.98,23.73
		c0.38-2.73,0.8-5.46,1.19-8.18c-11.38,6.32-18.17,17.83-25.27,28.25c-0.25-5.08,0.53-10.12,1.47-15.1
		C477.87,335.68,489.57,319.52,502.97,305.94z"/>
	<path fill="#887A71" stroke="#887A71" stroke-width="0.7" d="M548.54,309.57c7.68-8.28,15.97-16.21,25.82-21.85
		c-1.39,15.72-2.56,31.53-1.56,47.32c7.34-8.01,7.01-19.51,9.46-29.44c5.33-2.46,10.96-4.16,16.38-6.39
		c-0.47,4.72-1.15,9.42-2.3,14.02c3.18-1.64,6.29-3.41,9.36-5.25c0.34,24.8-0.98,49.61-3.44,74.29c-7.33,17.24-15.91,34.5-29.17,48
		c3.03-13.41,4.8799-27.13,4.7-40.89c-0.42,1.44-0.83,2.88-1.19,4.34c-3.79,17.33-11.56,34.02-23.49,47.24
		c4.25-9.09,7.2-18.91,7.5-29.01c0.14-4.45-1.53-8.75-4.31-12.18c-3.73,5.66-6.96,11.64-9.85,17.77
		c-2.86,5.94-4.77,12.34-8.38,17.92c1.7-19.12,6.31-37.82,9.51-56.71c0.13-1.37,0.17-2.74,0.2-4.11
		c-7.41,17.39-12.66,35.61-18.8101,53.45c-2.24-11.66-2.1-23.6-2.58-35.42c-6.08,14.07-12.97,27.85-21.9,40.36
		c-0.04-6.87,0.11-13.75-0.08-20.62c-4.89,1.92-8.37,5.96-11.8,9.75c-3.05-1.41-3.53-4.97-4.57-7.78
		c-18.04,4.5-33.73,16.08-44.9,30.75c-2.94,4.06-6.44,7.92-7.9,12.82c-3.27-24.55,1.42-49.74,11.47-72.25
		c2.81-6.03,5.33-12.32,9.28-17.72c5.05-5.32,11.09-9.65,17.32-13.5c-0.94,4.98-1.72,10.02-1.47,15.1
		c7.1-10.42,13.89-21.93,25.27-28.25c-0.39,2.72-0.81,5.45-1.19,8.18c5.87-7.14,9.73-15.59,13.98-23.73
		c-2.93,11.18-5.25,23.26-1.6,34.56c2.65-9,5.14-18.07,8.27-26.91c2.08-2.27,4.78-3.86,7.19-5.76c4.81-3.62,10.14-6.49,15.59-9.05
		c-0.77,1.48-1.53,2.95-2.28,4.42c1.3-1.81,2.63-3.62,4.04-5.36C544.13,315.51,545.98,312.2,548.54,309.57z"/>
	<path fill="#995749" stroke="#995749" stroke-width="0.7" d="M1150.22,305c0.67,0.3,2.01,0.89,2.6801,1.18
		c12.65,8.11,25.95,15.54,36.86,26.04c1.73,1.74,3.55,3.49,5.9,4.36c0.63,2.38,1.9099,4.51,3.01,6.69
		c2.08,4.08,2.85,8.64,3.88,13.06c4.0499,17.12,8.7699,34.08,14.21,50.81c5.97,19.41,12.76,38.58,20.72,57.27
		c7.62,17.2,10.9301,36.72,7.46,55.33c-1.25-0.29-2.49-0.59-3.7-0.87c1.6901-7.64-0.3199-15.42-2.52-22.74
		c-1.8099-4.95-3.7-10.13-7.52-13.92c-3.5199-7.78-12.88-10.02-17.13-17.23c-4.6699-7.75-5.23-17.14-4.97-25.97
		c0.25-8.71-4.22-16.51-8.91-23.5c-4.11-8.06-7.9199-16.26-11.0299-24.76c-2.0601,0.46-4.11,0.91-6.14,1.37
		c-7.97-18.38-16.71-36.43-24.1901-55.02C1154.35,326.92,1151.04,316.14,1150.22,305z"/>
	<path fill="#CE766C" stroke="#CE766C" stroke-width="0.7" d="M927.94,352.28c11.57-2.01,23.32-2.99,35.07-2.7
		c19.29-0.42,38.91,1.68,57.17,8.13c-12.05-0.76-24.26-1.46-36.24,0.43c-14.73,3.02-29.57,5.43-44.32,8.35
		c-17.34,3.12-34.92,5.24-52.57,4.95c-14.02,0.29-28.16-1.13-42.04,1.48c-5.24,0.59-10.18,2.55-15.37,3.36
		c1.62-2.63,4.47-4.04,6.93-5.76c8.16-5.49,17.75-8.53,27.44-9.85C885.31,357.81,906.61,354.94,927.94,352.28z"/>
	<path fill="#A35749" stroke="#A35749" stroke-width="0.7" d="M1183.02,392.12c2.03-0.46,4.08-0.91,6.14-1.37
		c3.11,8.5,6.9199,16.7,11.0299,24.76c-2.25,8.63,0.26,18.59-5.37,26.24c-3.4199,4.39-9.5,3.54-14.1699,2.11
		c-2.02,2.99-1.8301,6.71-1.79,10.15c0.14,5.92,1.3101,11.94,4.47,17.03c-4.49,3.24-9.6599,6.55-15.45,5.99
		c-2.8-0.1-5.05-2.22-6.29-4.57c-2.1699-4.13-2.5699-8.88-2.8199-13.45c-0.52-10.35,2.52-20.46,6.23-30
		c3.64-9.32,8.65-18.15,15.26-25.7C1183.08,400.35,1184.02,396.05,1183.02,392.12z"/>
	<path fill="#D8836F" stroke="#D8836F" stroke-width="0.7" d="M948.77,405.78c10.65-6.66,24.73-6.26,35.55-0.21
		c6.07,2.54,11.07,6.85,16.14,10.94c9.99,8.18,18.2,20.07,18.11,33.43c-0.28,3.46-0.26,7.22-2.17,10.25
		c-5.03-8.38-14.59-12.44-23.63-14.9c-15.44-4.02-31.05-7.33-46.75-10.1c-4.34-0.83-8.85-0.97-12.98-2.62l-0.57-0.89
		c-0.31,0.06-0.93,0.18-1.24,0.24c0.92-0.42,1.86-0.82,2.81-1.22c0.55-4.41,0.31-9.15,2.6-13.14
		C939.47,412.57,944.06,408.9,948.77,405.78z"/>
	<path fill="#A36558" stroke="#A36558" stroke-width="0.7" d="M1200.1899,415.51c4.6901,6.99,9.16,14.79,8.91,23.5
		c-0.26,8.83,0.3,18.22,4.97,25.97c4.25,7.21,13.6101,9.45,17.13,17.23c-4.97-2.15-9.6799-4.89-14.7699-6.75
		c-8.14-2.96-16.7201-4.59-25.3401-5.33c-2.61-0.14-5.45-0.56-7.76,0.91c-3.1599-5.09-4.33-11.11-4.47-17.03
		c-0.04-3.44-0.23-7.16,1.79-10.15c4.6699,1.43,10.75,2.28,14.1699-2.11C1200.45,434.1,1197.9399,424.14,1200.1899,415.51z"/>
	<path fill="#A35749" stroke="#A35749" stroke-width="0.7" d="M891.9,433.82c2.04-0.73,4.23-2.24,6.46-1.27
		c5.44,2.02,10.55,4.95,14.88,8.83c-1.9,5.77-1.32,11.92-0.46,17.82c-11.4-3.45-21.17-10.54-29.8701-18.46
		c2.75,9.43,8.55,17.65,15.52,24.46c-3.48,0.46-6.95-0.23-10.42-0.23c-10.52-0.29-21.18,2.43-30.04,8.15
		c-10.92,6.2-22.85,10.41-34.96,13.59c-3.54,0.76-6.19,3.37-8.17,6.26c-7.76,9.83-15.6,19.63-23.92,29
		c-3.02,3.46-7.19,6.35-11.94,6.34c-6.71,0.48-12.52-3.8-17.23-8.08c-5.13-5.11-10.39-10.1-15.67-15.06
		c9.48,3.73,19.94,5.78,30.02,3.38c5.27-0.98,9.34-4.76,13.06-8.36c8.96-8.54,16.84-18.29,22.82-29.15
		c1.02-1.94,3.01-3.09,5.03-3.74c17.24-5.06,34.6-9.95,51.29-16.64c-18.42-4.68-38.76-3.76-55.93,4.83c-3.78,1.8-7.26,4.15-11.02,6
		c2.19-3.17,5.4-5.39,8.39-7.74c14.27-10.85,32.33-16.37,50.21-16.02C870.65,437.72,881.9,438.35,891.9,433.82z"/>
	<path fill="#5D190E" stroke="#5D190E" stroke-width="0.7" d="M913.24,441.38c1.34-3.99,3.97-8.35,8.28-9.51
		c-0.08,4.76-0.28,9.6,1.14,14.21c1.46-5.38,3.59-11.07,8.57-14.16c0.31-0.06,0.93-0.18,1.24-0.24l0.57,0.89
		c-3.07,7.35-3.9,15.86-0.82,23.35c2.4901,5.93,6.4,11.62,12.02,14.95c4.69,2.87,10.64,1.72,15.34,4.55
		c3.19,1.66,5.56,4.44,7.63,7.32c1.55-3.75,4.23-6.85,7.48-9.26c3.35,7.16,6.2,14.53,8.91,21.95c1.1801,3.53,4.6,6.3,8.46,5.87
		c11.76,1.01,21.86-6.69,29.14-15.11c0.79-0.86,1.63-1.7,2.48-2.52c0.78,7.52-0.34,15.11-2.06,22.43
		c11.33-3.66,21.86-9.77,30.5601-17.91c11.9199-11.04,22.59-23.5,31.3199-37.22c-1.21,8.83-1.96,17.85-5.2,26.23
		c-7.0901,19.54-23.8,34.06-41.9501,43.23c-12.26,6.04-23.69,13.59-34.87,21.42c-5.93,2.52-12.05,4.72-18.37,6.02
		c-5.75,0.49-11.25-1.79-16.69-3.32c0.14-0.37,0.4-1.11,0.54-1.48c-5.15-10.55-14.01-18.75-23.45-25.47
		c7.07-1.78,13.84-4.55,20.29-7.94c-4.15-0.7-7.29-3.59-10.62-5.9c-11.66-8.44-22.28-18.21-32.34-28.49
		c0.43,2.27,0.69,4.58,0.77,6.9c-6.59-6.03-12.53-12.75-19.54-18.32c-0.04,1.4-0.07,2.82-0.09,4.23c-1.21-0.95-2.43-1.86-3.55-2.88
		c-6.97-6.81-12.77-15.03-15.52-24.46c8.7,7.92,18.47,15.01,29.8701,18.46C911.92,453.3,911.34,447.15,913.24,441.38z"/>
	<path fill="#EF9A93" stroke="#EF9A93" stroke-width="0.7" d="M933.04,432.57c4.13,1.65,8.64,1.79,12.98,2.62
		c15.7,2.77,31.31,6.08,46.75,10.1c9.04,2.46,18.6,6.52,23.63,14.9c2.09,3.65,3.75,7.62,4.5,11.78c0.44,4.72,0.03,9.48,0.3,14.22
		c-7.28,8.42-17.38,16.12-29.14,15.11c-3.86,0.43-7.28-2.34-8.46-5.87c-2.71-7.42-5.56-14.79-8.91-21.95
		c-3.25,2.41-5.93,5.51-7.48,9.26c-2.07-2.88-4.44-5.66-7.63-7.32c-4.7-2.83-10.65-1.68-15.34-4.55
		c-5.62-3.33-9.53-9.02-12.02-14.95C929.14,448.43,929.97,439.92,933.04,432.57z"/>
	<path fill="#261911" stroke="#261911" stroke-width="0.7" d="M1111.59,523.04c-3.39-21.56-1.75-44.54,8.3401-64.2
		c-1.3201,7.47-4.2401,14.58-4.9401,22.18c-2.09,14.57,0.25,29.64,6.28,43.05c6.6899,1.62,13.73,2.06,20.52,0.71
		c7.64-1.57,14.48-5.53,20.7799-9.9901c-0.0499,2.2401-0.0599,4.48,0.0801,6.73c0.53,5.77,1.99,12.38,7.34,15.6
		c5.16,3.48,11.6901,2.39,17.5,1.81c-1.58,2.05-3.5699,4.01-4.0599,6.65c-0.4701,2.75-0.3601,5.55-0.42,8.34
		c-4.34,0-8.6801,0.2-12.96,0.91c2.33,6.73,8.97,11.28,16.0499,11.4c8.0601,0.13,16.7101,1.15,23.14,6.5
		c8.46,7.06,11.0601,18.97,10.03,29.51c-1.12,0.94-2.2001,1.93-3.39,2.75c-5.41,1.08-10.11-2.06-14.88-3.98
		c-9.35-4.3-18.49-9.14-27-14.94c-1.46-1.11-3.23-1.53-4.98-1.78c-3.16,3.97-8.39,5.52-13.24,4.07
		c-9.89-2.96-19.7001-6.21-29.75-8.6c-8.0601-2.3-17.5-2.3-23.4301-9.13c-2.4199-4.62-5.03-9.37-5.49-14.66
		c-0.23-2.17,1.24-3.8799,2.53-5.42C1106.29,542.9,1110.5601,533.12,1111.59,523.04z"/>
	<path fill="#EADFD9" stroke="#EADFD9" stroke-width="0.7" d="M596.83,502.13c11.92-2.25,23.72-5.41,35.84-6.53
		c-7.38,7.83-14.78,15.72-20.86,24.63c4-1.61,7.89-3.49,12.05-4.68c-1.04,4.43-2.24,8.83-3.6,13.17
		c-3.01,8.64-6.89,17.54-14.3,23.3101c1.83,5.42,3.54,10.96,3.4,16.7599c0.48,0.69,0.98,1.38,1.48,2.07
		c-2.9301,9.28-7.19,18.03-12.17,26.36c3.59-3.97,8.23-6.65,12.62-9.6c-0.53,9.93-3.72,19.39-7.23,28.6
		c5.92-3.06,9.27-8.85,12.41-14.43c0.07,6.29,0.03,12.58-0.02,18.86c1.71-0.52,3.43-1.79,5.31-1.34c2.27,0.83,3.6,3,5.17,4.71
		c-0.3,2.13-0.57,4.28-1.12,6.37c-5.47,10.46-9.17,21.85-10.68,33.57c-1.18,7.7-0.88,15.5099-0.86,23.27
		c5.55-2.61,10.88-6,14.74-10.84c-5.04,20.81-4.87,44.28,7.21,62.75c2.55-1.36,6.82-3.07,7.85,0.95c2.61,9.67,0.57,19.83,0.06,29.66
		c2.05-0.08,4.19,0.25,6.19-0.37c2.75-1.21,4.02-4.13,5.54-6.5c4.1,10.08,5.68,20.92,7.16,31.63c2.57-3.84,5.09-8.01,9.29-10.26
		c6.02-3.77,13.37-3.76,20.22-3.47c-8.6201,18.54-12.3101,39.09-11.25,59.48c7.14-2.05,12.12-8.07,15.45-14.41
		c4.98,10.37,4.89,22.21,3.62,33.4c3.96-5.3,6.09-11.61,7.8-17.92c3.45,2.33,5.93,5.73,8.64,8.83
		c10.59,12.56,18.22,27.71,21.26,43.9c3.32,16.98,0.97,34.51-4,50.93c11.64-13.7,21.34-29.16,27.88-45.93
		c2.4-5.36,3.29-11.25,5.78-16.55c3.67,10.39,4.61,21.61,3.61,32.56c6.05-7.41,12.15-14.77,18.22-22.16
		c3.84,6.13,7.14,12.6,11.47,18.42c9.92-5.74,19.49-12.05,29.21-18.1l0.21-0.14c1.34,1.6299,2.99,2.97,4.85,4.02
		c0.64-2.77,1.25-5.53,1.9-8.28c4.41-17.84,10.32-35.38,18.3-51.96c1.86,4.87,4.73,9.31,8.72,12.72c2.21-3.63,4.13-7.44,6.48-10.98
		c8.13-12.68,19.9-22.93,33.58-29.25c1.35,1.74,2.71,3.49,4.07,5.26c-3.63,5.86-7.92,11.3-11.13,17.42
		c-12.2,22.04-14.64,48.4-10.19,72.92c1.3,8.94,4.37,17.47,6.43,26.23c-2.76,10.03-4.82,20.25-6.68,30.48
		c-4.61-0.23-4.52-5.52-5.71-8.8c-2.78,4.85-4.19,10.35-7.09,15.15c-6.62,13.55-11.58,28.22-12.8,43.31
		c4.39-7.5,8.72-15.13,14.76-21.47c0.23,9.85-0.08,19.7,0.17,29.56c5.95-8.7,11.84-17.45,18.3199-25.76
		c4.71,7.51,5.1,16.75,4.2,25.33c7.33-7.19,14.58-14.64,23.38-20.08c7.52-4.81,16.81-8.19,25.73-5.6299
		c8.42,2.5699,13.76,10.15,17.91,17.4399c-6.65,10.48-11.96,21.86-15.06,33.9c-0.89,4.1901-4.38,6.96-6.63,10.4
		c-22.04,33.08-37.18,70.36-47.32,108.6899c-3.46,13.8501-6.77,27.78-11.86,41.15c-10.25,27.67-25.52,54.0601-47.45,74.11
		c-4.47-22.99-11.26-45.46-18.84-67.6c-5.46-16.42-12.56-32.34-22-46.87c-17.33-27.05-42.7599-48.5601-71.84-62.03
		c-17.24-7.8199-36.62-12.75-55.55-9.1599c-18.88,3.6-34.67,17.0299-44.31,33.2599c-7.33-7.46-13.84-15.6699-21.47-22.84
		c-6.64-8.01-14.25-15.1-21.57-22.47c-2.7-2.66-4.82-5.89-7.85-8.2c-0.35-1.16-1.07-1.75-2.17-1.75l-0.17,0.7599
		c-0.45-0.84-0.87-1.6699-1.32-2.47l1.46,0.22c-0.62-5.1699-0.69-10.37-1.03-15.5499c-1.4901,3.95-2.14,8.13-3,12.25
		c-0.84,3.5699-1.56,7.1799-1.9,10.84l-0.59-0.13c-2.42-5.73-3.72-11.86-4.72-17.97c-1.64-11.6901-1.11-23.62,1.26-35.1801
		c-8.09,3.01-15.65,7.2201-23.31,11.13c-0.3-0.1-0.9-0.2999-1.2-0.4099c-0.77-1.6001,0.26-3.2201,0.61-4.77
		c4.03-13.48,7.81-27.05,11.19-40.71c-1.34-0.07-2.68-0.13-4.01-0.17c-5.32-6.57-3.51-15.69-3.5-23.4901
		c-7.38-2.72-13.2-8.52-16.75-15.44c-1.88-3.83-4.51-7.73-4.1-12.18c0.33-7.6,0.84-15.21,0.53-22.82c-2.78,2.64-5.06,5.72-7.28,8.82
		c0.64-9.95,2.67-19.7599,4.98-29.44c-3.88,4.82-6.71,10.37-10.53,15.25c-1.95-7.02-2.25-14.8199,1.13-21.46
		c5.28-11.25,18.28-15.95,24.15-26.77c0.79-1.53,1.12-3.66-0.29-4.94c-2.36-1.84-5.5-1.57-8.29-1.83
		c-1.3701-7.55-2.29-15.19-3.73-22.73c-1.89-0.41-3.1,1.73-4.54,2.63c-4.07,3.93-9.76,5.77-15.36,5.53
		c6.45-5.1801,12.89-10.6801,16.85-18.11c1.52-2.85,3.41-5.78,3.25-9.14c-0.17-5.34,0.46-10.64,1.65-15.83
		c2.85-15.67,9.45-30.53,18.53-43.56c5.08-6.44,7.49-14.67,7.32-22.82c-3.32,5.54-8.16,10.3-14.49,12.16
		c1.27-5.84,2.46-11.77,1.89-17.78c-1.51-0.07-3.02-0.14-4.52-0.19c-2.36-5.93-0.5-12.37,0.6-18.36
		c-7.67-4.81-15.22-10.54-19.25-18.91c-7.57-14.77-5.72-32.08-2.4-47.74c1.3-6.47,2.25-13.01,3.8-19.42
		c1.99-7.76,2.95-15.73,4.47-23.59c-1.97,2.45-4.2,4.69-6.88,6.35c1.1201-4.2,2.5-8.33,3.33-12.6c0.72-4.12,1.34-8.27,1.87-12.42
		c-3.07,2.47-5.23,5.77-7.41,8.99c-0.07-12.28,3.78-24.53,10.74-34.63c6.92-10.27,16.92-17.84,26.85-24.98
		c14.94-10.67,31.07-19.65,48.03-26.69C595.93,501.29,596.53,501.85,596.83,502.13z"/>
	<path opacity="0.69" fill="#9C6F6C" stroke="#9C6F6C" stroke-width="0.7" enable-background="new    " d="M595.63,501.01
		c0.54-0.24,1.63-0.73,2.18-0.98c-0.25,0.53-0.74,1.57-0.98,2.1C596.53,501.85,595.93,501.29,595.63,501.01z"/>
	<path fill="#261911" stroke="#261911" stroke-width="0.7" d="M820.51,524.47c7.39-6.53,16.85-10.0099,26.21-12.64
		c0.01,2.95,2.8701,2.12,4.85,2c9.75-1.11,19.58-1.15,29.39-1.09c10.84-0.28,21.58,1.69,32.11,4.11
		c10.01,2.12,20.31,1.42,30.44,0.75c9.44,6.72,18.3,14.92,23.45,25.47c-0.14,0.37-0.4,1.11-0.54,1.48
		c-7.25-2.67-14.05-6.4-20.54-10.56c4.45,4.69,8.13,10.1,10.36,16.2c-6.91-4.11-15.61-6.27-23.24-2.78
		c-2.51-2.03-4.42-4.64-6.28-7.24c-2.15-3.04-5.35-5.09-8.6-6.75c-4.54-2.45-9.74-3.07-14.81-3.13
		c-0.43,5.16-2.18,12.4901-8.54,12.85c-4.07-0.04-7.89-1.62-11.85-2.31c-8.43-1.93-16.96-3.41-25.4-5.27
		c-13.43-2.21-27.04-0.51-40.53-0.06c-4.36,0.03-8.72-0.09-13.08,0.11C810.06,532.92,815.55,528.95,820.51,524.47z"/>
	<path fill="#A35749" stroke="#A35749" stroke-width="0.7" d="M1162.65,521.52c8.0399-0.92,16.16-4.74,24.28-2.34
		c4.0399,1.58,2.6899,6.44,2.1899,9.73c10.96,2.14,21.71,6.52,29.9,14.3c-2.14,2.87-4.9,5.19-7.77,7.29
		c0.24,3.28,0.76,6.56,1.89,9.66c-4.64-2.09-9.21-4.33-13.9301-6.21c-3.87-4.53-9.8099-6.22-15.58-6.28
		c0.03,2.07,0.08,4.15,0.14,6.23l-0.76,0.02c0.0599-2.79-0.05-5.59,0.42-8.34c0.49-2.64,2.48-4.6,4.0599-6.65
		c-5.8099,0.58-12.34,1.67-17.5-1.81C1164.64,533.9,1163.1801,527.29,1162.65,521.52z"/>
	<path fill="#643F24" stroke="#643F24" stroke-width="0.7" d="M1241.24,518.87c1.21,0.28,2.45,0.58,3.7,0.87
		c3.64,7.57,3.66,16.15,4.2401,24.36c0.6699,10.71-0.12,21.44-0.92,32.12c-1.8,12.4901-3.73,24.97-6.53,37.28
		c-4.49-1.49-8.6699-4.69-9.7999-9.48c-2.0801-6.36,3.21-12.54,1.0099-18.87c-1.0599-3.9-4.49-6.32-7.4399-8.75
		c-5.3199-4.36-9.55-9.97-12.36-16.2401c-1.13-3.1-1.65-6.3799-1.89-9.66c2.87-2.1,5.63-4.42,7.77-7.29
		c2.36-4.69,0.73-9.95-1.77-14.19c7.28,0.35,14.4301,2.03,21.46,3.92C1239.64,528.27,1240.4399,523.57,1241.24,518.87z"/>
	<path fill="#DD8581" stroke="#DD8581" stroke-width="0.7" d="M620.26,528.72c2.78,10.15,5.06,20.58,10.01,29.96
		c3.11,6.63,7.11,12.79,11.36,18.74c7.07,9.49,15.84,17.48,24.09,25.91c12.55,12.77,25.95,24.68,39.77,36.07
		c21.51,17.1,42.45,34.92,62.81,53.37c7.87,8.44,14.12,18.59,17.05,29.82c4.9301,15.34,3.42,31.61,3.52,47.45
		c-0.13,22.85,1.84,45.63,3.75,68.37c-3.89,0.71-5.81,4.92-8.88,7.07c-1.47-2.4-1.81-5.2-2.01-7.94c-1.19,0.09-2.38,0.17-3.54,0.28
		c-3.65-11.12-2.41-23.14,1.49-34c-5.86,1.17-10.12,5.69-13.94,9.95c-5.36,6.17-7.64,14.16-11.42,21.26
		c-1.26-15.9,2.11-31.57,4.56-47.15c-2.32,3.74-3.97,7.9-6.87,11.27c0.54-4.9901,2.39-9.69,3.61-14.52
		c2.87-11.06,4.71-22.37,6.07-33.7c-3.9,3.93-6.22,9.05-9.8,13.24c0.44-5.7,2.57-11.04,3.9-16.55c-1.39-1.03-3.6-1.64-3.65-3.7
		c-0.54-4.05,0.01-8.14-0.15-12.2c-5.05,5.1-8.73,11.63-15.07,15.3701c1.17-7.5,4.46-14.5,5.21-22.07
		c-2.51,2.78-5.26,5.66-9.15,6.31c1.19-4.72,2.95-9.36,2.99-14.29c-6.1899,3.97-11.7599,8.83-17.22,13.73
		c-4.28,3.77-7.36,8.68-11.7,12.39c1.05-9.27,4.33-18.0699,5.98-27.22c-3.83,4.82-7.1201,10.19-12,14.05
		c-4.34,3.43-9,6.45-13.9901,8.82c1.45-3.46,2.87-6.94,4.02-10.51c-1.62,0.54-3.24,1.09-4.85,1.65c-3.2-4-3.52-9.17-3.61-14.08
		c-2.23,1.42-4.45,2.85-6.67,4.28c-0.52-8.07-0.1-16.15-0.26-24.23c-3.26,1.77-6.47,3.65-10,4.83c-0.54-1.56-1.1-3.13-1.01-4.78
		c-0.09-7.59,0.32-15.1899-0.17-22.77c-4.96,1.18-7.58,5.97-11.38,8.93c-1.9-3.92-2.13-8.27-2.35-12.54
		c-4.32-2.32-7.24-6.34-10.3-10.03c-6.38-8.01-10.07-17.78-12.11-27.73c-0.64-0.36-1.91-1.08-2.54-1.44
		c0.55-2.09,0.82-4.24,1.12-6.37c-1.57-1.71-2.9-3.88-5.17-4.71c-1.88-0.45-3.6,0.82-5.31,1.34c0.05-6.28,0.09-12.57,0.02-18.86
		c-3.14,5.58-6.49,11.37-12.41,14.43c3.51-9.21,6.7-18.67,7.23-28.6c-4.39,2.95-9.03,5.63-12.62,9.6
		c4.98-8.33,9.24-17.08,12.17-26.36c-0.5-0.69-1-1.38-1.48-2.07c0.14-5.8-1.57-11.34-3.4-16.7599
		C613.37,546.26,617.25,537.36,620.26,528.72z"/>
	<path fill="#D8836F" stroke="#D8836F" stroke-width="0.7" d="M1065.91,532.9c5.1-1.9301,10.72-3.44,16.1699-2.11
		c3.65,1.06,7.4401,3.19,8.91,6.88c-8.9399-1.41-17.91-2.89-26.97-3.15C1064.38,533.68,1065.01,533.14,1065.91,532.9z"/>
	<path fill="#F7CAC8" stroke="#F7CAC8" stroke-width="0.7" d="M903.31,530.29c5.07,0.06,10.27,0.68,14.81,3.13
		c0.12,2.93,1.03,6.27-0.83,8.88c-2.41,3.33-6.46,4.99-10.46,5.3c-4.32-0.24-8.19-2.72-12.06-4.46
		C901.13,542.78,902.88,535.45,903.31,530.29z"/>
	<path fill="#CE766C" stroke="#CE766C" stroke-width="0.7" d="M918.12,533.42c3.25,1.66,6.45,3.71,8.6,6.75
		c1.86,2.6,3.77,5.21,6.28,7.24c7.63-3.49,16.33-1.33,23.24,2.78c-2.23-6.1-5.91-11.51-10.36-16.2c6.49,4.16,13.29,7.89,20.54,10.56
		c5.44,1.53,10.94,3.81,16.69,3.32c6.32-1.3,12.44-3.5,18.37-6.02l1.61,0.21c-2.81,7.44-10.86,12.55-18.78,12.42
		c-7.09,0.03-14.56,0.36-20.86,4.01c-6.23,3.91-14,2.17-20.79,1.02c-12.48-2.15-24.43-6.48-35.83-11.91c4-0.31,8.05-1.97,10.46-5.3
		C919.15,539.69,918.24,536.35,918.12,533.42z"/>
	<path fill="#F3A78F" stroke="#F3A78F" stroke-width="0.7" d="M470.04,559c9.42-6.82,17.06-15.91,26.97-22.11
		c-1.38,6.89-3.12,13.81-2.69,20.89c-5.18,0.75-10.38,1.89-15,4.45c-11.35,6.03-22.27,14.41-27.59,26.46
		c-3.9,8.19-4.53,17.47-3.77,26.39c13.85-17.04,29.78-32.65,48.24-44.65c1.91,5.92,4.5,11.62,7.86,16.85
		c-4.33,4.1-7.35,9.3-10.31,14.42c-2.33,4.42-4.87,9.18-4.44,14.35c0.3,3.4,3.42,5.99,6.71,6.32c6.27,0.72,12.4-1.29,18.61-1.79
		c-1.55,6.41-2.5,12.95-3.8,19.42c-3.32,15.66-5.17,32.97,2.4,47.74c4.03,8.37,11.58,14.1,19.25,18.91
		c-1.1,5.99-2.96,12.43-0.6,18.36c1.5,0.05,3.01,0.12,4.52,0.19c0.5699,6.01-0.62,11.94-1.89,17.78
		c6.33-1.86,11.17-6.62,14.49-12.16c0.17,8.15-2.24,16.38-7.32,22.82c-9.08,13.03-15.68,27.89-18.53,43.56
		c-4.3,0.24-8.73,0.81-12.93-0.48c-7.07-2.02-12.85-7.0099-17.37-12.65c-7.25-8.79-16.01-16.3-25.78-22.16
		c-15.99-9.94-28.51-25.3199-35.03-42.98c-0.4-1.3-0.74-2.61-1-3.93c-0.18-0.19-0.54-0.56-0.72-0.75
		c-0.81-6.45-2.15-12.81-3.47-19.17l0.34-1.11c9.25,11.22,21.29,20.19,35.11,24.92c-3.59-9.35-10.61-16.71-16.74-24.43
		c-10.81-13.45-18.42-29.2-23.3-45.69c-1.79-16.2-0.7-32.51-0.77-48.75c0.62,3.53,1.11,7.1,2.01,10.58
		c1.87,6.97,6.68,12.97,12.81,16.69c-6.41-19.93-6.87-43.18,4.47-61.47c7.07-10.45,18.24-17.59,30.3-20.9
		C470.38,549.58,469.62,554.28,470.04,559 M474.23,649.97c-2.89,12.0601,1.25,24.51,6.43,35.35c1.56,3.02,4.18,7.73,8.29,5.73
		c3.14-2.82,4.5-7.1,5.71-11.03c2.5-9.5-2.79-18.55-2.75-28.01c-0.75-7.3,1.25-14.39,2.54-21.45
		C485.39,633.68,476.58,640.24,474.23,649.97z"/>
	<path fill="#A35749" stroke="#A35749" stroke-width="0.7" d="M797.07,544.52c4.66-0.52,9.3-1.33,14.01-1.32
		c5.63-0.11,11.06,2.84,14.62,7.11c7.87,9.45,18.21,16.74,29.52,21.52c7.34,2.97,14.61,6.11,22.05,8.83
		c13.45,5.44,27.96,8.04,42.44,8.3c-4.47,3.25-10.36,3.91-15.7401,4.09c-9.49,0.43-18.3-3.6-26.99-6.84
		c-20.04-7.82-41.44-13.87-58.22-27.9901c-6.58-6.31-15.93-8.84-24.88-8.6c-15.02,0.48-30.03,1.04-45.06,0.97
		c4.61-1.45,9.48-1.35,14.24-1.97C774.39,547.27,785.75,546.07,797.07,544.52z"/>
	<path fill="#CE766C" stroke="#CE766C" stroke-width="0.7" d="M1183.63,547.67c5.77,0.06,11.71,1.75,15.58,6.28
		c-5.1499-0.28-10.2999-0.21-15.4399-0.05C1183.71,551.82,1183.66,549.74,1183.63,547.67z"/>
	<path fill="#DF8A8A" stroke="#DF8A8A" stroke-width="0.7" d="M1170.05,554.83c4.2799-0.71,8.62-0.91,12.96-0.91l0.76-0.02
		c5.14-0.16,10.29-0.23,15.4399,0.05c4.7201,1.88,9.29,4.12,13.9301,6.21c2.8099,6.27,7.04,11.88,12.36,16.2401
		c2.95,2.43,6.38,4.85,7.4399,8.75c2.2001,6.33-3.09,12.5099-1.0099,18.87c1.13,4.79,5.3099,7.99,9.7999,9.48l0.5601,0.24
		c-2.55,25.65-1.7001,51.55,1.23,77.14c1.1899,14.97,1.35,30.31-2.17,44.99c-4.64,20.38-13.0399,39.65-22.11,58.4
		c-7.04,14.88-15.92,28.77-23.6,43.32c-6.12,11.19-11.65,22.69-17.46,34.04c-4.63-5.1-10.04-9.54-16.1901-12.67
		c-2.84-1.43-5.64-2.95-8.1799-4.86c2.33-0.97,4.87-0.86,7.35-0.64c-4.76-9.01-10.0601-17.71-15.25-26.47
		c5.2999-0.45,9.95,2.14,14.1799,5.02c-0.33-6.65-3.47-13.3-9.0399-17.11c-3.87-2.71-8.6801-3.2401-13.2001-4.03
		c3.38-4.62,7.02-9.03,10.78-13.35c4.52-5.29,6.03-12.77,4.1801-19.45c-4.5801-17.94-5.14-37.21,0.3899-55
		c1.29-4.55,3.9801-8.88,3.3401-13.78c0.1799-0.88,0.37-1.75,0.5699-2.61c0.09,0.62,0.27,1.84,0.36,2.45
		c0.9601-7.35-0.09-14.91-3.37-21.58c-7.14-14.86-14.4199-29.65-20.9299-44.8c3.09,0.72,6.39,2.27,9.59,1.15
		c2.62-3.04,4.52-7.92,9.2-8.01c3.15,1.15,6.04,2.97,9.3301,3.83c8.71,2.5,17.9399,1.02,26.63-0.84c3.51-0.6,5.84-3.47,7.6-6.33
		c1.59-2.89,5.13-3.44,7.52-5.43c1.89-1.37,3.45-3.51,5.9299-3.8c7-1.15,13.9601-2.54,20.86-4.17c-0.48-4.53,0.99-9.88-2.4099-13.58
		c-1.9601-2.49-5.0801-3.48-8.15-3.33c1.03-10.54-1.5701-22.45-10.03-29.51c-6.4299-5.35-15.08-6.37-23.14-6.5
		C1179.02,566.11,1172.38,561.56,1170.05,554.83z"/>
	<path fill="#B87565" stroke="#B87565" stroke-width="0.7" d="M479.32,562.23c4.62-2.56,9.82-3.7,15-4.45
		c0.33,4.25,0.84,8.5099,1.88,12.65c-18.46,12-34.39,27.61-48.24,44.65c-0.76-8.92-0.13-18.2,3.77-26.39
		C457.05,576.64,467.97,568.26,479.32,562.23z"/>
	<path fill="#BD735A" stroke="#BD735A" stroke-width="0.7" d="M1102.6,570.63c5.9301,6.83,15.37,6.83,23.4301,9.13
		c10.0499,2.39,19.86,5.64,29.75,8.6c4.85,1.45,10.08-0.1,13.24-4.07c1.75,0.25,3.52,0.67,4.98,1.78c8.51,5.8,17.65,10.64,27,14.94
		c4.77,1.92,9.47,5.06,14.88,3.98c-0.98,0.58-1.95,1.17-2.89,1.77c-0.59,3.68-1.21,7.39-2.3,10.97c-3.23,0.99-6.86,0.29-9.8799,2.06
		c-5.2401,2.73-11.02,4.07-16.8401,4.83c3.04,0.48,7.27-1.23,9.47,1.38c-0.9199,5.51-5.84,9.49-10.73,11.54
		c-10.97,2.4901-20.83-5.8-31.74-4.7c-3.98,0.19-5.64,4.61-9.0599,5.98c-4.02,1.02-7.8201-1.53-10.67-4.07
		c-2.48-2.15-0.9-5.58-0.6-8.29c-3.25-1.3-5.36-4.01-6.4301-7.27c-0.62,0.52-1.26,1.05-1.83,1.61
		c-1.41-5.51-4.3101-10.48-6.29-15.79C1111.55,593.57,1106.29,582.39,1102.6,570.63z"/>
	<path fill="#B87565" stroke="#B87565" stroke-width="0.7" d="M493.75,601.7c2.96-5.12,5.98-10.32,10.31-14.42
		c1.34,1.68,2.85,3.22,4.38,4.74c0.5-1.13,1-2.25,1.51-3.37c1.9,0.5,4.57-0.02,5.6,2.09c-0.83,4.27-2.21,8.4-3.33,12.6
		c2.6801-1.66,4.91-3.9,6.88-6.35c-1.52,7.86-2.48,15.83-4.47,23.59c-6.21,0.5-12.34,2.51-18.61,1.79
		c-3.29-0.33-6.41-2.92-6.71-6.32C488.88,610.88,491.42,606.12,493.75,601.7z"/>
	<path fill="#A35749" stroke="#A35749" stroke-width="0.7" d="M1219.27,602.24c3.0699-0.15,6.1899,0.84,8.15,3.33
		c3.3999,3.7,1.9299,9.05,2.4099,13.58c-6.8999,1.63-13.86,3.02-20.86,4.17c-2.48,0.29-4.0399,2.43-5.9299,3.8
		c-2.39,1.99-5.9301,2.54-7.52,5.43c-1.76,2.86-4.09,5.73-7.6,6.33c-8.6901,1.86-17.92,3.34-26.63,0.84
		c-3.29-0.86-6.1801-2.68-9.3301-3.83c-4.6799,0.09-6.58,4.97-9.2,8.01c-3.2,1.12-6.5-0.4301-9.59-1.15
		c6.51,15.15,13.7899,29.94,20.9299,44.8c3.28,6.67,4.3301,14.23,3.37,21.58c-0.09-0.61-0.27-1.83-0.36-2.45
		c1.39-8.67-2.28-16.98-6.0699-24.54c-4.6901-9.13-8.8101-18.52-13.25-27.76c-2.78-5.53-4.4-11.77-8.75-16.37
		c-1.87-1.86-1.9601-4.56-2.3201-6.99c-2.11-0.94-4.6-1.82-5.5-4.16c-1.2-2.08,0.23-4.23,1.16-6.06c0.5699-0.56,1.21-1.09,1.83-1.61
		c1.0701,3.26,3.1801,5.97,6.4301,7.27c-0.3,2.71-1.88,6.14,0.6,8.29c2.85,2.54,6.65,5.09,10.67,4.07
		c3.4199-1.37,5.08-5.79,9.0599-5.98c10.91-1.1,20.77,7.19,31.74,4.7c4.89-2.05,9.8101-6.03,10.73-11.54
		c-2.2-2.61-6.4299-0.9-9.47-1.38c5.8201-0.76,11.6-2.1,16.8401-4.83c3.0199-1.77,6.6499-1.07,9.8799-2.06
		c1.0901-3.58,1.7101-7.29,2.3-10.97c0.9401-0.6,1.91-1.19,2.89-1.77C1217.0699,604.17,1218.15,603.18,1219.27,602.24z"/>
	<path fill="#F7CAC8" stroke="#F7CAC8" stroke-width="0.7" d="M474.23,649.97c2.35-9.73,11.16-16.29,20.22-19.41
		c-1.29,7.06-3.29,14.15-2.54,21.45c-0.04,9.46,5.25,18.51,2.75,28.01c-1.21,3.93-2.57,8.21-5.71,11.03c-4.11,2-6.73-2.71-8.29-5.73
		C475.48,674.48,471.34,662.03,474.23,649.97z"/>
	<path fill="#C28A79" stroke="#C28A79" stroke-width="0.7" d="M615.13,663.96c1.51-11.72,5.21-23.11,10.68-33.57
		c0.63,0.36,1.9,1.08,2.54,1.44c2.04,9.95,5.73,19.72,12.11,27.73c3.06,3.69,5.98,7.71,10.3,10.03c0.22,4.27,0.45,8.62,2.35,12.54
		c3.8-2.96,6.42-7.75,11.38-8.93c0.49,7.58,0.08,15.18,0.17,22.77c-0.09,1.65,0.47,3.22,1.01,4.78c3.53-1.18,6.74-3.06,10-4.83
		c0.16,8.08-0.26,16.16,0.26,24.23c2.22-1.4301,4.44-2.86,6.67-4.28c0.09,4.91,0.41,10.08,3.61,14.08c1.61-0.56,3.23-1.11,4.85-1.65
		c-1.15,3.57-2.57,7.05-4.02,10.51c4.9901-2.37,9.65-5.39,13.9901-8.82c4.8799-3.86,8.17-9.23,12-14.05
		c-1.65,9.15-4.9301,17.95-5.98,27.22c4.34-3.71,7.42-8.62,11.7-12.39c5.46-4.9,11.03-9.76,17.22-13.73
		c-0.04,4.93-1.8,9.57-2.99,14.29c3.89-0.65,6.64-3.53,9.15-6.31c-0.75,7.57-4.04,14.57-5.21,22.07
		c6.34-3.7401,10.02-10.27,15.07-15.3701c0.16,4.0601-0.39,8.15,0.15,12.2c0.05,2.06,2.26,2.67,3.65,3.7
		c-1.33,5.51-3.46,10.85-3.9,16.55c3.58-4.19,5.9-9.31,9.8-13.24c-1.36,11.33-3.2,22.64-6.07,33.7c-1.22,4.83-3.07,9.53-3.61,14.52
		c2.9-3.37,4.55-7.53,6.87-11.27c-2.45,15.58-5.82,31.25-4.56,47.15c3.78-7.1,6.06-15.09,11.42-21.26
		c3.82-4.26,8.08-8.78,13.94-9.95c-3.9,10.86-5.14,22.88-1.49,34c1.16-0.11,2.35-0.19,3.54-0.28c0.2,2.7401,0.54,5.54,2.01,7.94
		c3.07-2.15,4.99-6.36,8.88-7.07c-2.17,6.71-3.06,13.73-3.36,20.76c7.34-8.52,14.27-17.66,23.63-24.11c-4.71,17.84-6,37.19,0.4,54.8
		c4.83-3.25,8.83-7.5,12.35-12.1c0.48,5.41,1.98,10.68,4.58,15.47c-9.72,6.05-19.29,12.36-29.21,18.1
		c-4.33-5.82-7.63-12.29-11.47-18.42c-6.07,7.39-12.17,14.75-18.22,22.16c1-10.95,0.06-22.17-3.61-32.56
		c-2.4901,5.3-3.38,11.19-5.78,16.55c-6.54,16.77-16.24,32.23-27.88,45.93c4.97-16.42,7.32-33.95,4-50.93
		c-3.04-16.19-10.67-31.34-21.26-43.9c-2.71-3.1-5.19-6.5-8.64-8.83c-1.71,6.31-3.84,12.62-7.8,17.92
		c1.27-11.19,1.36-23.03-3.62-33.4c-3.33,6.34-8.31,12.36-15.45,14.41c-1.0601-20.39,2.6299-40.94,11.25-59.48
		c-6.85-0.29-14.2-0.3-20.22,3.47c-4.2,2.25-6.72,6.42-9.29,10.26c-1.48-10.71-3.06-21.55-7.16-31.63c-1.52,2.37-2.79,5.29-5.54,6.5
		c-2,0.62-4.14,0.29-6.19,0.37c0.51-9.83,2.55-19.99-0.06-29.66c-1.03-4.02-5.3-2.31-7.85-0.95c-12.08-18.47-12.25-41.94-7.21-62.75
		c-3.86,4.84-9.19,8.23-14.74,10.84C614.25,679.47,613.95,671.66,615.13,663.96z"/>
	<path fill="#F7CAC8" stroke="#F7CAC8" stroke-width="0.7" d="M810.38,641.56c15.69-1.55,31.89,3.18,44.56,12.51
		c10.12,7.77,18.48,18.06,23.34,29.9c2.74,6.8101,3.9399,15.3701-0.63,21.6801c-4.89,7.7599-12.54,14.25-21.76,15.84
		c-13.81,1.83-27.37-3.96-38.46-11.75c-9.47-6.09-17.02-14.68-23.54-23.75c-4.64-6.75-8.78-14.69-7.79-23.14
		c0.79-6.41,5.22-11.75,10.48-15.19C800.75,644.82,805.29,642.23,810.38,641.56z"/>
	<path fill="#F7CAC8" stroke="#F7CAC8" stroke-width="0.7" d="M422.26,648.77c4.88,16.49,12.49,32.24,23.3,45.69
		c6.13,7.72,13.15,15.08,16.74,24.43c-13.82-4.73-25.86-13.7-35.11-24.92l-0.34,1.11C424.56,679.75,422.28,664.3,422.26,648.77z"/>
	<path fill="#ADA39C" stroke="#ADA39C" stroke-width="0.7" d="M383.21,654.48c5.46,8.07,10.26,16.57,15.26,24.93
		c6.46,11.04,13.94,21.56,18.68,33.52c5.35,12,7.3,25.07,10.52,37.71c1.79-0.27,3.58-0.54,5.39-0.78c0.02-1.34,0.04-2.67,0.05-3.99
		c0.11,2.63-0.02,5.33,0.86,7.87c1.8,5.35,1.36,11.08,2.05,16.62c-1.09,0.97-2.12,2.01-3.15,3.05c0.77,0.19,2.31,0.56,3.08,0.75
		c0,6.39,0.36,12.81-0.31,19.19c-1.29-3.45-2.28-6.99-3.27-10.52c-1.08,5.28-1.37,10.7-2.67,15.94c-1.78,7.55-4.53,14.89-8.28,21.69
		c-1.42-2.53-1.96-5.48-3.64-7.86c-0.28,4.11-0.03,8.2401,0.18,12.37c0.93,14.73-0.16,29.69-4.21,43.9301
		c-0.53,2.09-1.34,4.14-2.73,5.83c-0.78-2.58-1.27-5.23-1.65-7.88c-0.48,2.4901-0.97,4.98-1.38,7.4901
		c-1.21-0.79-2.41-1.56-3.61-2.33c-1.7,2.32-3.69,4.41-5.71,6.46c0-3.93,1.1-7.75,1.59-11.62c2.64-18.14,4.85-36.5699,2.63-54.88
		c-1.21-12.22-4.91-23.98-7-36.05c-4.79-24.08-7.02-48.56-10.06-72.9C383.77,686.94,382.38,670.69,383.21,654.48 M409.3,862.4
		C409.82,862.96,409.82,862.96,409.3,862.4z"/>
	<path fill="#D17872" stroke="#D17872" stroke-width="0.7" d="M980.93,692.92c15.62-14.22,34.57-24.73,54.78-30.78
		c5.39,9.06,0.66,21.38-8.36,26.07c-16.5,8.93-32.98,17.94-49.68,26.49c-1.7,0.87-3.46,1.96-4,3.93
		c-3.48,9.04-6.97,18.87-4.59,28.65c3.13-4.54,5.77-9.47,9.61-13.4901c7.04-7.77,16.11-13.56,25.97-17.05
		c10.71-3.72,22.0001-6.01,33.3701-5.75c18.24-0.67,36.6799,4.88,51.4199,15.68c4.2301,3.15,9.5601,6.03,11.25,11.36
		c-0.2799,3.6899-4.71,4.41-7.6499,4.87c-8.9801,0.75-18.12,0.58-26.9801-1.22c-1.58-0.27-3.1699-0.26-4.75-0.24
		c-7.1399-6.5-16.1599-10.63-25.4399-13.03c-6.7-2.03-13.89-2.23-20.74-0.99c-7.99,1.67-14.06,8.23-16.9,15.62
		c-1.15,2.94,0.24,6.07,2.81,7.69c-1.71,6.39-3.63,13.06-1.55,19.63c-4.54-2.61-9.87-3.04-14.55-5.27
		c-7.13-3.3701-13.33-8.4-18.74-14.09c-6.36-6.67-11.63-14.99-12.36-24.4c-0.47-9.47,5.56-17.55,12.41-23.42
		C970.67,699.08,976.59,697.12,980.93,692.92z"/>
	<path fill="#F7CAC8" stroke="#F7CAC8" stroke-width="0.7" d="M1081.1,697.26c6.77-0.08,13.8201-0.01,20.16,2.74
		c-0.79,2.82-3.8,3.82-6,5.3c-3.96,2.14-8.37,4.91-13.0601,3.68C1078.63,706.18,1080.0601,700.99,1081.1,697.26z"/>
	<path fill="#985042" stroke="#985042" stroke-width="0.7" d="M1156.54,709.29c0.64,4.9-2.05,9.23-3.3401,13.78
		c-5.5299,17.79-4.97,37.06-0.3899,55c1.85,6.68,0.34,14.16-4.1801,19.45c-3.76,4.32-7.4,8.73-10.78,13.35
		c-0.39,0.52-1.1799,1.55-1.58,2.06c-13.77-12.21-30.4401-21.2-48.38-25.46c-3.89-0.73-7.55-2.48-9.84-5.81
		c-7.0801,1.29-14.15,3.17-20.4501,6.7401c-1.5399-3.58-2.98-7.22-3.6799-11.06c1.4099-0.39,2.85-1.66,2.2-3.28
		c-1.59-6.26-6.3199-11-9.62-16.37c8.24,0.63,16.83-0.8,24-5.05c3.9,2.53,8.26,4.24,12.63,5.81c4.87-3.44,10.4399-5.8,16.3099-6.87
		c16.9601-3.29,33.3401-11.2,45.16-23.99C1149.48,722.18,1154.22,716.3,1156.54,709.29 M1109.52,771.71
		c-5.03,4.27-10.86,7.86-14.63,13.4c0.6899,0.87,1.2999,1.99,2.54,2.22c7.0299,1.98,14.1599,4.15,21.5599,3.98
		c5.46,0.24,11.35-1.02,15.34-5c4.49-4.47,5.9401-11.09,5.92-17.23c-0.15-5.66-4.39-9.88-6.97-14.59
		C1125.15,759.94,1117.25,765.71,1109.52,771.71z"/>
	<path fill="#632726" stroke="#632726" stroke-width="0.7" d="M430.32,714.25c0.18,0.19,0.54,0.56,0.72,0.75
		c0.26,1.32,0.6,2.63,1,3.93c6.52,17.66,19.04,33.04,35.03,42.98c9.77,5.86,18.53,13.3701,25.78,22.16
		c4.52,5.64,10.3,10.63,17.37,12.65c4.2,1.29,8.63,0.72,12.93,0.48c-1.19,5.19-1.82,10.49-1.65,15.83c0.16,3.36-1.73,6.29-3.25,9.14
		c-14.17-0.67-27.34-7.43-38.04-16.4c-11.56-9.75-19.88-22.91-25.1-37.01c-0.84-1.81-1.79-4.63-4.2-4.51
		c-5.4,0.61-10.41,3.16-14.89,6.11c-0.69-5.54-0.25-11.27-2.05-16.62c-0.88-2.54-0.75-5.24-0.86-7.87
		C432.65,735.3,431.75,724.74,430.32,714.25z"/>
	<path fill="#F7CAC8" stroke="#F7CAC8" stroke-width="0.7" d="M924.36,763.39c9.13-12.8,18.73-25.3,29.49-36.79
		c0.73,9.41,6,17.73,12.36,24.4c-10.87,11.37-19.57,24.65-26.25,38.87c-7.83,2.68-14.91,7.39-20.88,13.07
		c-1.47,1.56-2.92,3.13-4.41,4.68c-0.55-2.4,0.99-6.11-1.81-7.35c-2.57,0.76-4.7,2.48-7.17,3.44c-4.18,1.6-8.72,1.86-13.15,1.72
		c4.04-4.63,8.4-8.99,12.1-13.92C911.85,782.59,917.67,772.68,924.36,763.39z"/>
	<path fill="#1F0D09" stroke="#1F0D09" stroke-width="0.7" d="M998.24,743.04c2.84-7.39,8.91-13.95,16.9-15.62
		c6.85-1.24,14.04-1.04,20.74,0.99c9.28,2.4,18.3,6.53,25.4399,13.03c3.5601,3.3,6.39,7.25,9.1801,11.2
		c-7.17,4.25-15.76,5.68-24,5.05c-5.3-0.81-10.45-2.29-15.54-3.93c-9.9399-1.1-20.53,1.5-29.91-3.03
		C998.48,749.11,997.09,745.98,998.24,743.04z"/>
	<path fill="#985042" stroke="#985042" stroke-width="0.7" d="M1241.35,735.87l0.29-0.84c1.45,8,0.28,16.24-2.0601,23.96
		c-6.08,21.1-14.3199,41.58-24.46,61.06c-8.15,16.57-16.38,33.1-24.34,49.77c-1.8301,4.02-3.5901,8.07-5.47,12.07
		c-2.27-3.5-4.6201-6.94-7.13-10.26c5.8099-11.35,11.34-22.85,17.46-34.04c7.6799-14.55,16.5599-28.44,23.6-43.32
		C1228.3101,775.52,1236.71,756.25,1241.35,735.87z"/>
	<path fill="#E18C87" stroke="#E18C87" stroke-width="0.7" d="M966.21,751c5.41,5.69,11.61,10.72,18.74,14.09
		c4.68,2.23,10.01,2.66,14.55,5.27c0.75,0.36,1.52,0.71,2.32,1.07c-1.28,2.4-2.48,4.85-3.83,7.21c-1.69,1.71-3.76,3-6.06,3.71
		c-4.38-0.13-6.98-3.89-10-6.47c-2.71,2.92-4.89,6.28-7.58,9.21c-1.99-2.82-3.64-5.85-5.02-8.9901
		c-9.26,2.79-17.37,8.41-24.91,14.31c-6,5.5-12.26,10.96-16.56,17.96c-2.23,2.43-4.19,5.08-6.16,7.71
		c-0.32-0.39-0.96-1.17-1.28-1.56c-0.21-0.77-0.38-1.53-0.52-2.28c0.41-3.14,0.2599-6.31-0.82-9.3
		c5.97-5.68,13.05-10.39,20.88-13.07C946.64,775.65,955.34,762.37,966.21,751z"/>
	<path fill="#DD8581" stroke="#DD8581" stroke-width="0.7" d="M1001.05,750.73c9.38,4.53,19.97,1.93,29.91,3.03
		c5.0901,1.64,10.24,3.12,15.54,3.93c3.3,5.37,8.03,10.11,9.62,16.37c0.65,1.62-0.79,2.89-2.2,3.28
		c-9.63-1.41-17.89-8.31-27.92-7.39c-8.05,0.54-16.15,4.64-24.18,1.48c-0.8-0.36-1.57-0.71-2.32-1.07
		C997.42,763.79,999.34,757.12,1001.05,750.73z"/>
	<path fill="#1F0D09" stroke="#1F0D09" stroke-width="0.7" d="M1109.52,771.71c7.73-6,15.63-11.77,23.76-17.22
		c2.58,4.71,6.8199,8.93,6.97,14.59c0.02,6.14-1.4301,12.76-5.92,17.23c-3.99,3.98-9.88,5.24-15.34,5
		c-7.4,0.17-14.53-2-21.5599-3.98c-1.2401-0.23-1.8501-1.35-2.54-2.22C1098.66,779.57,1104.49,775.98,1109.52,771.71z"/>
	<path fill="#BF6F64" stroke="#BF6F64" stroke-width="0.7" d="M436.02,770.36c4.48-2.95,9.49-5.5,14.89-6.11
		c2.41-0.12,3.36,2.7,4.2,4.51c5.22,14.1,13.54,27.26,25.1,37.01c10.7,8.97,23.87,15.73,38.04,16.4
		c-3.96,7.43-10.4,12.93-16.85,18.11c5.6,0.24,11.29-1.6,15.36-5.53c1.44-0.9,2.65-3.04,4.54-2.63c1.44,7.54,2.36,15.18,3.73,22.73
		c2.79,0.26,5.93-0.0099,8.29,1.83c1.41,1.28,1.08,3.41,0.29,4.94c-5.87,10.82-18.87,15.52-24.15,26.77
		c-3.38,6.64-3.08,14.44-1.13,21.46c3.82-4.88,6.65-10.43,10.53-15.25c-2.31,9.6801-4.34,19.4901-4.98,29.44
		c2.22-3.1,4.5-6.18,7.28-8.82c0.31,7.61-0.2,15.22-0.53,22.82c-0.41,4.45,2.22,8.35,4.1,12.18c3.55,6.92,9.37,12.72,16.75,15.44
		c-0.01,7.8-1.82,16.92,3.5,23.4901c1.33,0.04,2.67,0.1,4.01,0.17c-3.38,13.66-7.16,27.23-11.19,40.71
		c-0.35,1.5499-1.38,3.1699-0.61,4.77c0.3,0.11,0.9,0.3099,1.2,0.4099c7.66-3.9099,15.22-8.12,23.31-11.13
		c-2.37,11.5601-2.9,23.49-1.26,35.1801c-7.85-7.58-15.34-15.59-23.6-22.72c-0.13-0.11-0.39-0.3501-0.52-0.4701
		c-6.8-7.63-14.64-14.2599-21.97-21.3599c-16.43-15.62-33.93-30.07-50.12-45.95c-22.55-22.62-43.37-47.19-59.99-74.53
		c1.29-6.63,2.67-13.24,3.75-19.89c0.41-2.51,0.9-5,1.38-7.4901c0.38,2.65,0.87,5.3,1.65,7.88c1.39-1.69,2.2-3.74,2.73-5.83
		c4.05-14.2401,5.14-29.2,4.21-43.9301c-0.21-4.1299-0.46-8.2599-0.18-12.37c1.68,2.38,2.22,5.33,3.64,7.86
		c3.75-6.8,6.5-14.14,8.28-21.69c1.3-5.24,1.59-10.66,2.67-15.94c0.99,3.53,1.98,7.07,3.27,10.52c0.67-6.38,0.31-12.8,0.31-19.19
		c-0.77-0.19-2.31-0.56-3.08-0.75C433.9,772.37,434.93,771.33,436.02,770.36z"/>
	<path fill="#D5B398" stroke="#D5B398" stroke-width="0.7" d="M1001.82,771.43c8.03,3.16,16.13-0.94,24.18-1.48
		c10.03-0.92,18.29,5.98,27.92,7.39c0.7,3.84,2.14,7.48,3.6799,11.06c6.3-3.57,13.37-5.45,20.4501-6.7401
		c2.2899,3.33,5.95,5.08,9.84,5.81c17.9399,4.26,34.61,13.25,48.38,25.46c0.4-0.51,1.1899-1.54,1.58-2.06
		c4.52,0.79,9.3301,1.32,13.2001,4.03c5.5699,3.81,8.71,10.46,9.0399,17.11c-4.23-2.88-8.88-5.47-14.1799-5.02
		c5.1899,8.76,10.49,17.46,15.25,26.47c-2.48-0.22-5.02-0.33-7.35,0.64c2.5399,1.91,5.34,3.4301,8.1799,4.86
		c6.15,3.13,11.5601,7.57,16.1901,12.67c2.5099,3.32,4.86,6.76,7.13,10.26c3.83,7.76,6.75,16.03,8.0599,24.62
		c-3.98-0.31-7.92-0.96-11.85-1.63c-4.02-1.06-8.0601-2.05-12.11-2.92c-6.12-1.91-12.12-4.17-18.2201-6.13
		c-1.37,3.02-2.58,6.11-3.5199,9.3c-1.49,0.58-3.25,0.9-4.3301,2.15c-1.4199,2.65-1.77,5.71-2.4399,8.61
		c-2.84,3.91-6.4601,7.13-9.8,10.6c1.66-8.85,2.4301-17.87,1.6801-26.86c-4.15,6.38-7.37,14.33-14.6901,17.72
		c1.8401-8.95,2.9-18.16,1.75-27.28c-0.72-0.15-2.1599-0.43-2.88-0.58c1.4-3.45,0.0701-7.13-0.62-10.57
		c-0.99-4.59-3.08-8.87-5.76-12.68c2.77-14.98,2.6901-30.22,2.8-45.38c7.9301,18.22,13.1,37.62,15.22,57.38
		c0.6901,5.49,0.72,11.04,1.5,16.53c3.12-7.83,3.8101-16.4,4.47-24.74c1.2001-19.51-5-39.17-16.87-54.66
		c-5.61-8.86-16.46-11.39-24.61-17.18c1.7201,15.21,3.03,30.51,2.6,45.83c-6.12-14.88-15.74-28.58-28.6299-38.33
		c-0.03,2.9-0.02,5.82-0.04,8.74c-3.9-6.05-6.88-12.77-12-17.96c-0.97,13.08-1.86,26.51-6.52,38.88
		c-8.25-14.8-13.77-31.04-17.17-47.61c-1.01-4.39-1.09-8.99-2.76-13.21c-2.7699,7.0099-1.7899,14.6-2.86,21.89
		c-2.29-6.5-4.33-13.13-7.73-19.17c-6.77,7.76-9.14,18.11-10.11,28.1c-4.5-8.4-7.25-17.59-9.88-26.71
		C999.34,776.28,1000.54,773.83,1001.82,771.43z"/>
	<path fill="#EADFD9" stroke="#EADFD9" stroke-width="0.7" d="M1028.5699,774.53c1.67,4.22,1.75,8.8199,2.76,13.21
		c3.4,16.57,8.92,32.81,17.17,47.61c4.66-12.37,5.55-25.8,6.52-38.88c5.12,5.19,8.1,11.91,12,17.96c0.02-2.92,0.01-5.84,0.04-8.74
		c12.8899,9.75,22.5099,23.45,28.6299,38.33c0.4301-15.32-0.8799-30.62-2.6-45.83c8.15,5.79,19,8.32,24.61,17.18
		c11.87,15.49,18.0701,35.15,16.87,54.66c-0.6599,8.34-1.35,16.91-4.47,24.74c-0.78-5.49-0.8099-11.04-1.5-16.53
		c-2.12-19.76-7.2899-39.16-15.22-57.38c-0.11,15.16-0.03,30.4-2.8,45.38c-2.24-2.69-4.9099-5.02-7.9199-6.78
		c-3.65-2.22-8.17-2.81-11.3201-5.85c-2.2999,0.29-4.61,0.56-6.9099,0.54c-0.92-5.55-2-11.07-3.7201-16.4301
		c-2.74,5.08-4,10.7401-5.4299,16.28c-2.75-0.02-5.5-0.06-8.23,0.14c-2.02-9.54-3.66-19.28-7.38-28.34
		c-2.65,10.87-5.4801,21.71-7.6001,32.7c-2.6,1.54-5.2,3.1-7.7999,4.63c-0.6801-5.22-1.48-10.44-2.67-15.57
		c-2.36,2.13-4.7,4.31-7.4399,5.94c-1.35-7.64-2.0701-15.37-3.65-22.95c-1.87,9.79-3.4,20.03-8.99,28.55
		c-2.01-22.84-3.21-45.77-6.08-68.5099c-3.4,24.5099-6.55,49.08-10.66,73.49c-0.94,5.36-1.58,10.8-3.11,16.05
		c-2.95-27.97-3.55-56.11-3.51-84.2c-7.97,2.72-15.08,7.27-21.94,12.05c5.11-8.62,10.1801-17.27,15.71-25.63
		c2.3-0.71,4.37-2,6.06-3.71c2.63,9.12,5.38,18.31,9.88,26.71c0.97-9.99,3.34-20.34,10.11-28.1c3.4,6.04,5.44,12.67,7.73,19.17
		C1026.78,789.13,1025.8,781.54,1028.5699,774.53z"/>
	<path fill="#D5B398" stroke="#D5B398" stroke-width="0.7" d="M944.42,790.41c7.54-5.9,15.65-11.52,24.91-14.31
		c1.38,3.14,3.03,6.17,5.02,8.9901c2.69-2.9301,4.87-6.29,7.58-9.21c3.02,2.58,5.62,6.34,10,6.47c-5.53,8.36-10.6,17.01-15.71,25.63
		c6.86-4.78,13.97-9.33,21.94-12.05c-0.04,28.09,0.56,56.23,3.51,84.2c1.53-5.25,2.17-10.69,3.11-16.05
		c4.11-24.41,7.2599-48.98,10.66-73.49c2.87,22.74,4.07,45.67,6.08,68.5099c5.59-8.52,7.12-18.7599,8.99-28.55
		c1.58,7.58,2.3,15.31,3.65,22.95c2.74-1.63,5.08-3.81,7.4399-5.94c1.1901,5.13,1.99,10.35,2.67,15.57
		c-5.1801,3.4-10,7.49-13.59,12.57c-7.3,10.02-12.2401,21.47-17.35,32.69c-2.87,2.46-5.02,5.64-7.96,8.03
		c-1.33-4.19-1.82-8.61-1.42-12.98c-2.99,5.66-7.45,10.43-12.77,13.97c-2.06-4.6-2.87-9.59-3.46-14.55
		c-3.87,2.16-7.43,4.8-11.09,7.28c-1.21-3.07-2.44-6.12-3.73-9.13c-7.46,3.8-9.73,12.65-9.26,20.42c-3.97-1.81-7.96-4.12-10.19-8.02
		c-1.54-2.62-2.17-5.6299-2.92-8.53c-0.6201,8.17-2.64,16.17-5.16,23.95c-5-1.08-9.05-4.48-11.11-9.12
		c-1.97,2.87-4.05,5.85-7.17,7.59c-4.05,0.64-7.85-0.83-10.97-3.31c-3.13,8.94-9.29,16.45-16.4,22.56
		c-2.56-4.93-3.8799-10.36-6.28-15.36c-2.06-8.76-5.13-17.29-6.43-26.23c-4.45-24.52-2.01-50.88,10.19-72.92
		c3.21-6.12,7.5-11.56,11.13-17.42c1.64,0.1,3.56,1.03,4.98-0.26c2.39-1.86,3.8-4.61,5.37-7.13c0.39,1.66,0.82,3.33,1.22,5.01
		c0.14,0.75,0.31,1.51,0.52,2.28c-4.33,2.14-8.21,5.05-11.95,8.07c-1.8,1.5099-3.74,3.14-4.37,5.5099
		c-3.69,11.91-3.62,24.59-2.33,36.88c0.95,12.76,3.03,25.4,4.87,38.06c-0.09-8.02-0.65-16.08,0.44-24.06
		c1.98-17.42,9.64-33.81,20.22-47.64c3.27-4.2,6.57-8.44,10.68-11.86c-1.55,13.78-3.65,27.68-2.45,41.58
		c0.73-17.4,5.9-34.96,16-49.24c1.11,11.69,1.31,23.44,1.85,35.17c1.67-8.01,4.35-15.89,8.83-22.79c3.14-5.15,7.36-9.49,11.61-13.73
		c-3.91-2.43-6.21-6.43-8.16-10.45c-1.04,1.21-2.0699,2.42-3.09,3.63c-6.38-2.7401-13.62-3.26-20.29-1.3
		c-5.04,1.4-9.6201,4-14.42,6.02C932.16,801.37,938.42,795.91,944.42,790.41z"/>
	<path fill="#EADFD9" stroke="#EADFD9" stroke-width="0.7" d="M962.57,803.65c1.02-1.21,2.05-2.42,3.09-3.63
		c1.95,4.02,4.25,8.02,8.16,10.45c-4.25,4.2401-8.47,8.58-11.61,13.73c-4.48,6.9-7.16,14.78-8.83,22.79
		c-0.54-11.73-0.74-23.48-1.85-35.17c-10.1,14.28-15.27,31.84-16,49.24c-1.2-13.9,0.9-27.8,2.45-41.58
		c-4.11,3.42-7.41,7.66-10.68,11.86c-10.58,13.83-18.24,30.22-20.22,47.64c-1.09,7.98-0.53,16.04-0.44,24.06
		c-1.84-12.66-3.92-25.3-4.87-38.06c-1.29-12.29-1.36-24.97,2.33-36.88c0.63-2.37,2.57-4,4.37-5.5099
		c3.7401-3.02,7.6201-5.9301,11.95-8.07c0.32,0.39,0.96,1.17,1.28,1.56c1.97-2.63,3.93-5.28,6.16-7.71
		c4.8-2.02,9.38-4.62,14.42-6.02C948.95,800.39,956.19,800.91,962.57,803.65z"/>
	<path fill="#D5B398" stroke="#D5B398" stroke-width="0.7" d="M1059.67,825.8c3.72,9.06,5.36,18.8,7.38,28.34
		c-5.04,1.28-10.0901,2.58-14.9801,4.36C1054.1899,847.51,1057.02,836.67,1059.67,825.8z"/>
	<path fill="#D5B398" stroke="#D5B398" stroke-width="0.7" d="M1075.28,854c1.4299-5.54,2.6899-11.2,5.4299-16.28
		c1.7201,5.36,2.8,10.88,3.7201,16.4301c-0.8301-0.05-2.4901-0.15-3.3201-0.2c-0.86-1.46-1.46-1.44-1.8099,0.05
		C1077.9399,854,1076.6,853.99,1075.28,854z"/>
	<path opacity="0.78" fill="#A58B76" stroke="#A58B76" stroke-width="0.7" enable-background="new    " d="M1079.3,854
		c0.35-1.49,0.95-1.51,1.8099-0.05C1080.66,853.97,1079.75,853.99,1079.3,854z"/>
	<path fill="#F2B0B0" stroke="#F2B0B0" stroke-width="0.7" d="M1084.4301,854.15c2.2999,0.02,4.61-0.25,6.9099-0.54
		c3.15,3.04,7.67,3.63,11.3201,5.85c3.01,1.7599,5.6799,4.09,7.9199,6.78c2.6801,3.81,4.77,8.09,5.76,12.68
		c0.6901,3.44,2.02,7.12,0.62,10.57c-0.59,1.64-0.86,3.37-0.73,5.13c-3,6.44-5.47,13.81-11.8199,17.79
		c-7.42,4.9301-16.9601,4-25.01,1.3c-7.85-1.85-15.6901-6.95-18.02-15.05c-2.16-6.06-1.02-12.6,0.76-18.59
		c1.36-5.12,3.62-9.95,6.5-14.37c2.77-4.56,7.14-7.76,10.66-11.7c0.45-0.01,1.36-0.03,1.8099-0.05
		C1081.9399,854,1083.6,854.1,1084.4301,854.15z"/>
	<path fill="#EBAC9A" stroke="#EBAC9A" stroke-width="0.7" d="M1052.0699,858.5c4.89-1.78,9.9401-3.08,14.9801-4.36
		c2.73-0.2,5.48-0.16,8.23-0.14c1.3199-0.01,2.6599,0,4.02,0c-3.52,3.94-7.89,7.14-10.66,11.7c-2.88,4.42-5.14,9.25-6.5,14.37
		c-1.78,5.99-2.92,12.53-0.76,18.59c2.33,8.1,10.17,13.2,18.02,15.05c8.0499,2.7,17.59,3.63,25.01-1.3
		c6.35-3.98,8.8199-11.35,11.8199-17.79c0.9401,12.49,0.1,25.66-5.23,37.15c-2.54,0.62-2.92,3.43-3.74,5.49
		c-3.52,10.55-7.62,20.89-10.89,31.52c-7.12,21.8799-15.01,43.5-22.26,65.33c-11.49,34.73-24.51,69.0701-41.4299,101.5601
		c-8.63,16.83-17.65,33.61-29.5701,48.39c5.06-1.29,9.75-3.8101,13.45-7.51c1.87-1.4301,4.14-4.29,6.73-2.79
		c5.81,2.49,9.04,8.14,12.84,12.84c-0.0699-20.02,1.45-40.22,6.99-59.5399c6.8-24.7201,19.12-47.8301,35.49-67.53
		c4.4-5.23,6.89-11.8,8.1901-18.4501c3.96-23.4299,9.25-46.72,17.4399-69.0599c26.48,10.4,53.97,18.02,81.75,24.02
		c-7.47,17-12.7,34.9-17.3,52.86c-1.7799,7.66-3.96,15.26-4.9099,23.09c-0.5801,4.37-2.92,8.21-4.41,12.3
		c-15.03,38.36-27.6,77.6899-37.53,117.6699c-0.9199,3.28-1.76,6.5901-2.0499,10c-2.1001,0.3501-0.24,3.41,0.45,0.92
		c1.39-0.03,2.79-0.02,4.2,0.02c-2.84,6.53-7.6699,12.0699-9.6799,18.96c14.87,1.55,29.86,7,40.29,18.08
		c7.87,8.1801,13.26,18.4401,16.7999,29.16c2.3101,6.12,2.62,12.8,5.1801,18.84c5.52,15,16.5699,27.5701,29.96,36.1101
		c9.0601,5.97,15.89,15.01,19.8101,25.0699c2.8999,7.34,4.0299,15.2,5.34,22.95c6.66,41.7301,3.13,84.8201-8.89,125.27
		c-13.49,43.53-38.4301,83.39-71.48,114.76c-35.3-15.97-70.88-31.2999-106.72-46.01c-59.3201-24.24-120.96-43-183.98-54.75
		c-8.35-1.37-16.57-3.5399-25.04-4.0599c-19.1201-1.47-39.04-0.73-56.9301,6.84c-1.93-5.75-4.9-11.12-6.38-17.01
		c-9.1899-37.76-20.79-75-35.98-110.7999c-7.62-17.76-14.19-35.9601-20.15-54.3401c-3.14-8.6699-2.98-17.98-4.25-26.99
		c-4.4301-39.33-12.81-78.26-25.8-115.66c-0.65-1.72-0.49-3.5399-0.28-5.2999c-1.68-1.98-3.37-3.9401-5.08-5.87
		c-0.21-0.24-0.64-0.72-0.85-0.9601c5.71-9.83,11.54-19.96,13.37-31.35c0.83-5.84,0.39-12.37-3.34-17.1899
		c-3.48-4.91-9.21-7.48-14.72-9.36c-10.54-3.37-21.72-2.37-32.6-2.5601c-5.25-0.0599-10.67,0.0601-15.47,2.4501
		c-0.93-0.88-1.89-1.75-2.8-2.6101c9.64-16.23,25.43-29.6599,44.31-33.2599c18.93-3.5901,38.31,1.34,55.55,9.1599
		c29.08,13.47,54.51,34.98,71.84,62.03c9.44,14.53,16.54,30.45,22,46.87c7.58,22.14,14.3701,44.61,18.84,67.6
		c21.93-20.0499,37.2-46.4399,47.45-74.11c5.09-13.37,8.4-27.2999,11.86-41.15c10.14-38.33,25.28-75.61,47.32-108.6899
		c2.25-3.4401,5.74-6.21,6.63-10.4c3.1-12.04,8.41-23.42,15.06-33.9c10.4-14.73,20.42-29.91,27.27-46.67
		c4.5099-10.84,7.86-22.09,11.45-33.24c2.78-7.56,5.78-15.04,8.98-22.42c5.11-11.22,10.05-22.67,17.35-32.69
		c3.59-5.08,8.4099-9.17,13.59-12.57C1046.87,861.6,1049.47,860.04,1052.0699,858.5 M1046,1356.9399
		c-24.17,25.65-39.36,58.3601-49.42,91.8c-5.54,18.74-4.85,39.14,1.84,57.5c2.07-5.9,2.51-12.22,4.22-18.22
		c7.04-30.54,19.63-59.6801,36.2-86.25c10.2201-17.39,16.92-36.78,19.9301-56.72C1054.08,1348.53,1049.97,1352.6899,1046,1356.9399
		 M1138.92,1414.9301c-23.9301,27.37-38.3101,61.9199-45.9,97.1599c13.38-17.48,25.12-36.2,35.28-55.72
		c9.0499-17.34,16.36-35.55,23.0499-53.9C1146.52,1405.87,1142.88,1410.61,1138.92,1414.9301z"/>
	<path opacity="0.5" fill="#56514E" stroke="#56514E" stroke-width="0.7" enable-background="new    " d="M409.3,862.4
		C409.82,862.96,409.82,862.96,409.3,862.4z"/>
	<path fill="#EADFD9" stroke="#EADFD9" stroke-width="0.7" d="M1185.3101,881.89c1.8799-4,3.6399-8.05,5.47-12.07
		c14.89,5.7,25.4,19.36,29.62,34.45c-1.37,0.51-2.72,1.02-4.05,1.54c10.16,8.7,15.9401,22.02,15.4301,35.38
		c-2.87-3.89-6.61-7.08-10.9601-9.2c2.9801,11.53,4.89,23.35,5.2201,35.27c-8.61-2.79-17.27-5.43-25.9601-7.98
		c0.4-0.13,1.2001-0.38,1.6001-0.5c2.87-10.27,0.75-21.2-3.02-30.9301c-2.39-6.31-5.05-12.79-10.13-17.44
		c-2.2101-2.0099-4.63-3.7599-7.01-5.53c3.9299,0.67,7.87,1.32,11.85,1.63C1192.0601,897.92,1189.14,889.65,1185.3101,881.89z"/>
	<path fill="#E0DFE4" stroke="#E0DFE4" stroke-width="0.7" d="M404.38,872.01c1.2,0.77,2.4,1.54,3.61,2.33
		c-1.08,6.65-2.46,13.2599-3.75,19.89c16.62,27.34,37.44,51.91,59.99,74.53c16.19,15.88,33.69,30.33,50.12,45.95
		c7.33,7.1,15.17,13.7299,21.97,21.3599l0.21,0.25l0.31,0.2201c8.2599,7.13,15.75,15.14,23.6,22.72c1,6.11,2.3,12.24,4.72,17.97
		l0.13,0.5l0.42,0.0701l0.04-0.4401c0.34-3.66,1.06-7.27,1.9-10.84c0.85,1.02,1.71,2.04,2.5699,3.08c0.45,0.8,0.8701,1.63,1.32,2.47
		c0.59,0.25,1.76,0.75,2.34,0.9901c3.03,2.3099,5.15,5.5399,7.85,8.2c7.32,7.37,14.93,14.46,21.57,22.47
		c7.63,7.17,14.14,15.38,21.47,22.84c0.91,0.8601,1.87,1.7301,2.8,2.6101c17.95,19,35.12,38.72,52.76,58.0099
		c0.21,0.2401,0.64,0.7201,0.85,0.9601c-8.43,4.47-16.18,10.98-20.21,19.8099c-4.24,8.8201-3.8799,19.1001-1.4399,28.37
		c3.6299,13.5801,10.78,25.9,18.65,37.4301c16.16,23.42,27.13,50.1,34.49,77.49c2.81,10.21,4.34,20.6899,6.55,31.02
		c3.5,23.88,5.88,47.9,9.1801,71.8099c3.93,29.3201,11.48,58.6901,26.87,84.2301c-1.42,1.1699-2.87,2.3199-4.28,3.5099
		c-3.1-4.2699-4.62-9.36-6.65-14.1499c-9.17-22.52-18.36-45.03-27.51-67.5601c-1.01-2.86-4.1-3.91-6.42-5.45
		c-18.2599-11.0801-35.96-23.1-53-35.99c-10.59-7.9701-20.7-16.55-30.94-24.9501c-20.4-18.64-41.27-37.1799-57.81-59.48
		c-23.97-30.6899-50.03-59.79-78.46-86.4299c-25.87-24.4801-43.83-57.39-49.29-92.6801c0.37-0.48,1.12-1.46,1.5-1.95
		c1.12-23.91-8.37-48.3201-26.19-64.4801c-33.69-30.1899-60.09-68.1199-78.2-109.48c6.38-12.4399,11.84-25.34,18.6-37.59
		c9.26-17.41,19.73-34.18,31.51-49.99c3.27-4.59,7.35-8.53,10.54-13.17C400.69,876.42,402.68,874.33,404.38,872.01z"/>
	<path fill="#2C2A2B" stroke="#2C2A2B" stroke-width="0.7" d="M260.04,896.15c28.86-15.12,62.8-20.3,94.85-14.38
		c11.41,2.02,22.5,5.58,33.24,9.87c-11.78,15.81-22.25,32.58-31.51,49.99c-6.76,12.25-12.22,25.15-18.6,37.59
		c18.11,41.36,44.51,79.29,78.2,109.48c17.82,16.16,27.31,40.5701,26.19,64.4801c-0.38,0.49-1.13,1.47-1.5,1.95
		c5.46,35.29,23.42,68.2,49.29,92.6801c28.43,26.6399,54.49,55.74,78.46,86.4299c16.54,22.3,37.41,40.84,57.81,59.48
		c13.09,34.61,32.1201,66.8301,54.9301,95.92c8.97,11.64,19.19,22.28,27.88,34.15c8.91,11.9099,17.15,24.34,24.34,37.36
		c5.29-6.87,10.7-13.72,17.37-19.3301c1.41-1.1899,2.86-2.34,4.28-3.5099c7.06-6.0701,15.39-10.39,23.83-14.1901
		c17.89-7.5699,37.81-8.3099,56.9301-6.84c8.47,0.52,16.6899,2.6899,25.04,4.0599c63.02,11.75,124.66,30.51,183.98,54.75
		c35.84,14.7101,71.4199,30.04,106.72,46.01c10.86,5.25,22.6799,8.9601,32.0599,16.8201c14.26-42.75,31.64-84.4401,51.4801-124.9
		c0.7699-1.49,1.4399-3.13,2.2899-4.53c5.64,20.63,11.23,41.3101,18.4401,61.47c13.3099,39.02,31.21,76.25,50.22,112.76
		c9.34,18.1,19.4299,35.8,29.64,53.42c7.16,12.5,15.11,24.5699,21.4399,37.54c16.1,31.84,25.77,66.7799,29.3301,102.24
		c1.9299,16.34,3.35,32.75,6.1599,48.98c6.3101,43.5599,15.87,86.59,27.1901,129.12c6.21,22.0601,13.0499,43.95,20.49,65.6299
		c7.53,20.8901,15.52,41.6101,23.48,62.3401c-33.28,0.02-66.55,0-99.83,0.01c-7.29-9.52-12.2101-20.51-16.64-31.5601
		c-11.24-26.3101-23.97-52-38.3201-76.75c-14.12-24.72-30.83-47.8099-45.99-71.8799c-15.52-24.01-29.7999-48.78-44.0499-73.54
		c-4.41,2.15-5.6801,7.0699-7.8201,11.0599c-15.76,30.7301-32.77,60.8301-50.88,90.2301
		c-8.4299,13.7599-17.84,26.8899-25.87,40.8899C1114.91,2105.8,1101.52,2143.8301,1095.65,2183
		c-363.47-0.01-726.9401,0.03-1090.41-0.02c0.07-351.83-0.07-703.65,0.07-1055.47c5.98-2.41,12.79-2.4,18.29-6.0601
		c4.76-2.8099,8.23-7.7899,8.85-13.3199c3.24-24.65,13.47-48.79,30.99-66.6801c12.29-12.33,27.42-21.6,43.58-27.95
		c8.52-3.35,17.01-6.84,25.08-11.2c25.85-14.89,49.45-33.53,70.55-54.58c5.09-5.58,10.47-10.9,15.19-16.8
		C229.37,916.65,243.66,904.51,260.04,896.15z"/>
	<path fill="#C28A79" stroke="#C28A79" stroke-width="0.7" d="M830.43,893.09c2.22-1.47,4.46-2.9,6.75-4.26
		c-0.65,2.75-1.26,5.51-1.9,8.28C833.42,896.06,831.77,894.72,830.43,893.09z"/>
	<path fill="#BB7462" stroke="#BB7462" stroke-width="0.7" d="M1116.23,894.62c-0.13-1.76,0.14-3.49,0.73-5.13
		c0.7201,0.15,2.16,0.43,2.88,0.58c1.15,9.12,0.0901,18.33-1.75,27.28c7.3201-3.39,10.54-11.34,14.6901-17.72
		c0.75,8.99-0.02,18.01-1.6801,26.86c-2.2999,3.25-4.9399,6.23-7.37,9.39c-4.27-1.29-8.58-2.48-12.73-4.11
		C1116.33,920.28,1117.17,907.11,1116.23,894.62z"/>
	<path fill="#DD8581" stroke="#DD8581" stroke-width="0.7" d="M1151.1899,895.83c6.1001,1.96,12.1001,4.22,18.2201,6.13
		c-7.36,0.12-14.65,1.23-21.74,3.17C1148.61,901.94,1149.8199,898.85,1151.1899,895.83z"/>
	<path fill="#90332C" stroke="#90332C" stroke-width="0.7" d="M963.64,921.43c-0.47-7.77,1.8-16.62,9.26-20.42
		c1.29,3.01,2.52,6.06,3.73,9.13c3.66-2.48,7.22-5.12,11.09-7.28c0.59,4.96,1.4,9.95,3.46,14.55c5.32-3.54,9.78-8.31,12.77-13.97
		c-0.4,4.37,0.09,8.79,1.42,12.98c2.94-2.39,5.09-5.57,7.96-8.03c-3.2,7.38-6.2,14.86-8.98,22.42c-9.86-0.5-19.49,2.01-29.2599,2.82
		c-16.6801,1.22-33.7401,0.1-49.63-5.41c0.41-0.23,1.22-0.6899,1.63-0.92c3.12-1.74,5.2-4.72,7.17-7.59
		c2.06,4.64,6.11,8.04,11.11,9.12c2.52-7.78,4.54-15.78,5.16-23.95c0.75,2.9,1.3799,5.91,2.92,8.53
		C955.68,917.31,959.67,919.62,963.64,921.43z"/>
	<path fill="#F2B0B0" stroke="#F2B0B0" stroke-width="0.7" d="M1147.67,905.13c7.09-1.94,14.38-3.05,21.74-3.17
		c4.0499,0.87,8.09,1.86,12.11,2.92c2.38,1.77,4.7999,3.52,7.01,5.53c5.08,4.65,7.74,11.13,10.13,17.44
		c-2.35,9.6801-5.9501,19.01-11.2001,27.5c-15.47-4.72-30.9399-9.41-46.3999-14.17c-1.4701-8.35-1.6001-16.93-0.16-25.29
		c0.6699-2.9,1.02-5.96,2.4399-8.61C1144.42,906.03,1146.1801,905.71,1147.67,905.13z"/>
	<path fill="#EBAC9A" stroke="#EBAC9A" stroke-width="0.7" d="M1131.1,926.49c3.34-3.47,6.9601-6.69,9.8-10.6
		c-1.4401,8.36-1.3101,16.94,0.16,25.29c-5.78-1.77-11.5701-3.49-17.3301-5.3C1126.16,932.72,1128.8,929.74,1131.1,926.49z"/>
	<path fill="#C28A79" stroke="#C28A79" stroke-width="0.7" d="M916.12,923.99c3.12,2.48,6.92,3.95,10.97,3.31
		c-0.41,0.23-1.22,0.69-1.63,0.92c-0.58,0.01-1.75,0.04-2.33,0.0601c8.93,14.56,24.01,24.37,39.99,29.64
		c9.55,3.54,19.62,5.53,29.78,6.13c-6.85,16.76-16.87,31.94-27.27,46.67c-4.15-7.29-9.49-14.87-17.91-17.4399
		c-8.92-2.5601-18.21,0.8199-25.73,5.6299c-8.8,5.44-16.05,12.89-23.38,20.08c0.9-8.58,0.51-17.82-4.2-25.33
		c-6.48,8.31-12.37,17.06-18.3199,25.76c-0.25-9.86,0.06-19.71-0.17-29.56c-6.04,6.34-10.37,13.97-14.76,21.47
		c1.22-15.09,6.1801-29.76,12.8-43.31c2.9-4.8,4.31-10.3,7.09-15.15c1.19,3.28,1.1,8.57,5.71,8.8c1.86-10.23,3.92-20.45,6.68-30.48
		c2.4,5,3.72,10.43,6.28,15.36C906.83,940.44,912.99,932.93,916.12,923.99z"/>
	<path fill="#D78079" stroke="#D78079" stroke-width="0.7" d="M923.13,928.28c0.58-0.02,1.75-0.05,2.33-0.0601
		c15.89,5.51,32.95,6.63,49.63,5.41c9.77-0.81,19.4-3.32,29.2599-2.82c-3.59,11.15-6.94,22.4-11.45,33.24
		c-10.16-0.6-20.23-2.59-29.78-6.13C947.14,952.65,932.06,942.84,923.13,928.28z"/>
	<path fill="#EBAC9A" stroke="#EBAC9A" stroke-width="0.7" d="M1187.46,955.35c5.25-8.49,8.8501-17.8199,11.2001-27.5
		c3.77,9.73,5.89,20.66,3.02,30.9301c-0.4,0.12-1.2001,0.37-1.6001,0.5C1195.87,957.98,1191.6801,956.61,1187.46,955.35z"/>
	<path fill="#FAF9F5" stroke="#FAF9F5" stroke-width="0.7" d="M1107.26,937.26c0.8199-2.06,1.2-4.87,3.74-5.49
		c4.15,1.63,8.46,2.82,12.73,4.11c5.76,1.81,11.55,3.53,17.3301,5.3c15.46,4.76,30.9299,9.45,46.3999,14.17
		c4.2201,1.26,8.41,2.63,12.62,3.9301c8.6901,2.55,17.3501,5.1899,25.9601,7.98c12.34,3.89,24.72,7.61,37.1,11.38
		c-0.27,0.52-0.8,1.57-1.0701,2.09c-1.9099,0.01-3.7999,0.01-5.6799,0c-1.88-1.05-4.03-2.37-6.23-1.5
		c-1.99,1.67-3.5601,3.77-5.26,5.73c-0.2001,3.05-0.3,6.28-1.97,8.96c-1.3601,2.6-4.41,3.65-6.03,6
		c-1.6,3.47-1.4401,7.43-1.41,11.18c-6.55-1.95-13.0699-3.98-19.6-5.97c-9.99-2.96-19.91-6.14-29.9-9.09
		c-27.78-6-55.27-13.62-81.75-24.02c-2.64-1.06-5.25-2.18-7.87-3.24C1099.64,958.15,1103.74,947.81,1107.26,937.26z"/>
	<path fill="#BB7462" stroke="#BB7462" stroke-width="0.7" d="M1096.37,968.78c2.62,1.06,5.23,2.18,7.87,3.24
		c-8.1899,22.34-13.48,45.63-17.4399,69.0599c-1.3,6.65-3.79,13.2201-8.1901,18.4501c-16.37,19.7-28.6899,42.8099-35.49,67.53
		c-5.54,19.3199-7.0599,39.5199-6.99,59.5399c-3.8-4.7-7.03-10.35-12.84-12.84c-2.59-1.5-4.86,1.36-6.73,2.79
		c-3.7,3.7-8.39,6.22-13.45,7.51c11.92-14.78,20.9401-31.5601,29.5701-48.39c16.9199-32.49,29.9399-66.8301,41.4299-101.5601
		C1081.36,1012.28,1089.25,990.66,1096.37,968.78z"/>
	<path fill="#CC0000" stroke="#CC0000" stroke-width="0.7" d="M1250.16,979.23c2.2-0.87,4.35,0.45,6.23,1.5
		c-1.64,3.34-4.48,5.79-7.26,8.16c-0.02,3.36,0.75,7.12-1.09,10.16c-1.9,1.58-4.0801,2.8-5.86,4.52c-1.4,2.93-1.29,6.17-0.62,9.29
		c0,3.92-6.9401,2.01-6.0701-1.76c-0.03-3.75-0.1899-7.71,1.41-11.18c1.62-2.35,4.6699-3.4,6.03-6
		c1.6699-2.68,1.7699-5.91,1.97-8.96C1246.6,983,1248.17,980.9,1250.16,979.23z"/>
	<path fill="#CC0000" stroke="#CC0000" stroke-width="0.7" d="M1265.9399,980.8c1.92-1.73,4.5601,0,6.7101,0.31
		c0.2899,3.3,0.4,6.61,0.47,9.94c1.08-1.41,2.17-2.82,3.26-4.23c2.02,0.07,4.3-0.53,6.12,0.69c1.36,1.85,0.83,4.24,0.87,6.39
		c1.79-2.39,3.86-4.58,6.36-6.2401c1.99,2.4901,4.17,5.1,4.5701,8.4c0.6799,5.32-0.54,10.63-0.77,15.95
		c0.95,0.56,1.86,1.21,2.71,1.97c0.52,4.48-2.12,8.38-4.48,11.9401c-1.42,0.0199-2.84,0.0599-4.23,0.11
		c-0.16-7.14-0.17-14.29,0.15-21.42c-1.7401,6.24-4.25,12.52-8.9,17.18c-0.9601,1.03-2.4501,1.05-3.6901,1.42
		c-0.62-4.59,0.2001-9.18,1.3301-13.61c1.13-4.41,1.1499-8.99,1.09-13.5099c-3.71,6.3799-7.17,12.95-11.49,18.94
		c-0.8201,1.39-2.54,0.89-3.84,1.1c-0.0801-5.02,0.38-10.11,2.2899-14.79c1.54-3.71,2.77-7.57,2.8101-11.6201
		c-4.02,5.88-6.52,12.6-9.52,19.02c-0.78,2.52-3.75,2.11-5.8,2.43c-1.95-6.39,0.3401-13.2,3.52-18.78
		C1258.05,987.77,1262.12,984.33,1265.9399,980.8z"/>
	<path fill="#A4A295" stroke="#A4A295" stroke-width="0.7" d="M1256.39,980.73c1.88,0.01,3.77,0.01,5.6799,0
		c0.9701,0.01,2.9,0.05,3.87,0.07c-3.8199,3.53-7.8899,6.97-10.46,11.59c-3.1799,5.58-5.47,12.39-3.52,18.78
		c2.05-0.32,5.02,0.09,5.8-2.43c3-6.42,5.5-13.14,9.52-19.02c-0.04,4.05-1.27,7.91-2.8101,11.6201
		c-1.9099,4.68-2.37,9.77-2.2899,14.79c1.2999-0.21,3.0199,0.29,3.84-1.1c4.3199-5.9901,7.78-12.5601,11.49-18.94
		c0.0599,4.52,0.04,9.1-1.09,13.5099c-1.13,4.4301-1.9501,9.02-1.3301,13.61c1.24-0.37,2.73-0.39,3.6901-1.42
		c4.65-4.66,7.1599-10.94,8.9-17.18c-0.3201,7.13-0.3101,14.28-0.15,21.42c1.39-0.05,2.8099-0.0901,4.23-0.11
		c2.36-3.5601,5-7.46,4.48-11.9401c-0.85-0.76-1.76-1.41-2.71-1.97c0.23-5.32,1.45-10.63,0.77-15.95
		c-0.4-3.3-2.5801-5.91-4.5701-8.4c-2.5,1.66-4.5699,3.85-6.36,6.2401c-0.04-2.15,0.49-4.54-0.87-6.39
		c-1.8199-1.22-4.1-0.62-6.12-0.69c-1.09,1.41-2.1801,2.82-3.26,4.23c-0.0699-3.33-0.1801-6.64-0.47-9.94
		c9.25,1.38,18.1,5.04,25.61,10.63c3.6-4.39,11.71-2.95,13.65,2.37c1.0299,2.58,0.5,5.42,0.3099,8.12c2.05,0.01,4.6-0.32,6.02,1.59
		c2.12,2.9,1.6,6.76,1.79,10.16c0.13,5.35-0.47,11.5701-4.86,15.25c-2.4701,2.29-6.03,2.4501-9.2001,2.29
		c-5.28-0.14-9.99-2.75-15.01-4.01c-12.3199-2.73-24.6699-5.38-37.08-7.69c-3.1-0.54-5.17-3.11-7.0699-5.36
		c-2.27-3.29-3.64-7.06-4.63-10.89c1.7799-1.72,3.96-2.94,5.86-4.52c1.84-3.04,1.0699-6.8,1.09-10.16
		C1251.91,986.52,1254.75,984.07,1256.39,980.73z"/>
	<path fill="#EADFD9" stroke="#EADFD9" stroke-width="0.7" d="M1185.99,996.04c9.99,2.95,19.91,6.13,29.9,9.09
		c3.5,12.34,5.6899,25.52,2.86,38.22c-0.85-4.7-4.3101-8.14-7.49-11.41c1.66,11.9,1.55,24.02,0.55,35.9801
		c-1.9401,0.0499-3.8701,0.0699-5.79,0.1c-1.48,15.83-1.8201,31.75-1.8101,47.64c-2.9299-2.11-5.14-4.9701-7.4099-7.7101
		c-0.38,7.3501-0.8401,14.7201-0.29,22.0801c0.28,2.4199-2.33,3.6799-3.54,5.4199c-2.02-1.7799-4.23-3.71-7.09-3.6399
		c-3.9,6.1899-2.26,13.84-0.1801,20.36c-2.22,0.83-4.4399,1.72-6.7999,1.98c1.51,9.0699-4.9501,16.7899-9.28,24.15
		c-4.08-3.16-9.3-0.9-13.15,1.48c-9.6599,6-17.8199,14.03-25.97,21.87c-2.4301,3.27-3.6899,7.25-5.79,10.74l-0.27,0.51
		c-1.4099-0.04-2.8099-0.05-4.2-0.02l-0.45-0.92c0.2899-3.4099,1.13-6.72,2.0499-10c9.9301-39.98,22.5-79.3099,37.53-117.6699
		c1.49-4.0901,3.83-7.9301,4.41-12.3c0.95-7.83,3.13-15.4299,4.9099-23.09C1173.29,1030.9399,1178.52,1013.04,1185.99,996.04z"/>
	<path fill="#FAF9F5" stroke="#FAF9F5" stroke-width="0.7" d="M1241.5601,1012.86c-0.67-3.12-0.78-6.36,0.62-9.29
		c0.99,3.83,2.36,7.6,4.63,10.89C1245.02,1013.92,1243.3101,1013.4,1241.5601,1012.86z"/>
	<path opacity="0.62" fill="#8C8B8E" stroke="#8C8B8E" stroke-width="0.7" enable-background="new    " d="M536.32,1036.0699
		c0.13,0.12,0.39,0.3601,0.52,0.4701l-0.31-0.2201L536.32,1036.0699z"/>
	<path fill="#C37B70" stroke="#C37B70" stroke-width="0.7" d="M567.65,1066.52c0.86-4.12,1.5099-8.3,3-12.25
		c0.34,5.1799,0.41,10.38,1.03,15.5499l-1.46-0.22C569.36,1068.5601,568.5,1067.54,567.65,1066.52z"/>
	<path opacity="0.5" fill="#706F72" stroke="#706F72" stroke-width="0.7" enable-background="new    " d="M565.16,1077.23l0.59,0.13
		l-0.04,0.4401l-0.42-0.0701L565.16,1077.23z"/>
	<path fill="#F2B0B0" stroke="#F2B0B0" stroke-width="0.7" d="M627.57,1129.1801c4.8-2.39,10.22-2.51,15.47-2.4501
		c10.88,0.1901,22.06-0.8099,32.6,2.5601c5.51,1.88,11.24,4.45,14.72,9.36c3.73,4.8199,4.17,11.35,3.34,17.1899
		c-1.83,11.39-7.66,21.52-13.37,31.35C662.69,1167.9,645.52,1148.1801,627.57,1129.1801z"/>
	<path fill="#9C9EAB" stroke="#9C9EAB" stroke-width="0.7" d="M660.97,1207.96c4.03-8.83,11.78-15.34,20.21-19.8099
		c1.71,1.9299,3.4,3.89,5.08,5.87c-0.21,1.76-0.37,3.58,0.28,5.2999c12.9901,37.4,21.37,76.3301,25.8,115.66
		c1.27,9.01,1.11,18.3201,4.25,26.99c-1.48,2.5-0.6201,5.4401-0.47,8.17c0.97,10.72,2.26,21.4,3.1,32.13
		c-2.21-10.3301-3.74-20.8101-6.55-31.02c-7.36-27.39-18.33-54.0699-34.49-77.49c-7.87-11.53-15.02-23.85-18.65-37.4301
		C657.09,1227.0601,656.73,1216.78,660.97,1207.96z"/>
	<path opacity="0.28" fill="#42332F" stroke="#42332F" stroke-width="0.7" enable-background="new    " d="M1120.24,1212.88
		c-0.6899,2.49-2.55-0.5699-0.45-0.92L1120.24,1212.88z"/>
	<path fill="#BB7462" stroke="#BB7462" stroke-width="0.7" d="M1124.4399,1212.9l0.27-0.51c18.8301,3.25,38.1001,9.25,52.4,22.48
		c7.6901,7.47,13.7001,16.79,16.8201,27.1c3.0699,9.61,3.6,19.79,3.2999,29.8201c6.14-4.64,14.42-5.4501,21.65-3.1801
		c7.6899,2.3201,14.23,7.2001,20.53,12.01c12.09,9.6,20.23,23.54,24,38.41c3.26,12.7,3.7,25.99,2.47,39
		c-2.26,22.48-6.01,44.78-10.6901,66.88c-5.09,23.4399-12.0199,46.45-19.8799,69.11c-19.8401,40.46-37.2201,82.15-51.4801,124.9
		c-9.38-7.86-21.2-11.5701-32.0599-16.8201c33.0499-31.37,57.99-71.23,71.48-114.76c12.02-40.45,15.55-83.5399,8.89-125.27
		c-1.3101-7.75-2.4401-15.61-5.34-22.95c-3.92-10.0599-10.75-19.1-19.8101-25.0699c-13.39-8.54-24.4399-21.1101-29.96-36.1101
		c-2.5601-6.0399-2.87-12.72-5.1801-18.84c-3.5399-10.72-8.9299-20.98-16.7999-29.16c-10.4301-11.08-25.42-16.5299-40.29-18.08
		C1116.77,1224.97,1121.6,1219.4301,1124.4399,1212.9z"/>
	<path fill="#A06158" stroke="#A06158" stroke-width="0.7" d="M716.12,1350.14c-0.15-2.73-1.01-5.67,0.47-8.17
		c5.96,18.38,12.53,36.5801,20.15,54.3401c15.19,35.7999,26.79,73.0399,35.98,110.7999c1.48,5.89,4.45,11.26,6.38,17.01
		c-8.44,3.8-16.77,8.12-23.83,14.1901c-15.39-25.54-22.94-54.91-26.87-84.2301c-3.3-23.9099-5.6801-47.9299-9.1801-71.8099
		C718.38,1371.54,717.09,1360.86,716.12,1350.14z"/>
	<path fill="#BB877C" stroke="#BB877C" stroke-width="0.7" d="M1046,1356.9399c3.97-4.25,8.08-8.4099,12.77-11.8899
		c-3.01,19.9399-9.71,39.33-19.9301,56.72c-16.5699,26.5699-29.16,55.71-36.2,86.25c-1.71,6-2.15,12.3199-4.22,18.22
		c-6.69-18.36-7.38-38.76-1.84-57.5C1006.64,1415.3,1021.83,1382.59,1046,1356.9399z"/>
	<path fill="#9C9EAB" stroke="#9C9EAB" stroke-width="0.7" d="M626.47,1393.72c10.2401,8.4,20.35,16.98,30.94,24.9501
		c17.04,12.89,34.7401,24.9099,53,35.99c2.32,1.5399,5.41,2.59,6.42,5.45c9.15,22.53,18.34,45.04,27.51,67.5601
		c2.03,4.7899,3.55,9.88,6.65,14.1499c-6.67,5.6101-12.08,12.4601-17.37,19.3301c-7.19-13.02-15.43-25.4501-24.34-37.36
		c-8.69-11.87-18.91-22.51-27.88-34.15C658.59,1460.55,639.56,1428.33,626.47,1393.72z"/>
	<path fill="#BB877C" stroke="#BB877C" stroke-width="0.7" d="M1138.92,1414.9301c3.96-4.3201,7.6-9.0601,12.4299-12.4601
		c-6.6899,18.35-14,36.5601-23.0499,53.9c-10.16,19.52-21.9,38.24-35.28,55.72C1100.61,1476.85,1114.99,1442.3,1138.92,1414.9301z"
		/>
	<path fill="#9C9EAB" stroke="#9C9EAB" stroke-width="0.7" d="M1211.34,1940.33c2.14-3.99,3.41-8.9099,7.8201-11.0599
		c14.25,24.76,28.5299,49.53,44.0499,73.54c15.16,24.0699,31.87,47.1599,45.99,71.8799c14.3501,24.75,27.0801,50.4399,38.3201,76.75
		c4.4299,11.05,9.35,22.04,16.64,31.5601c-89.5-0.01-179.01,0.01-268.51,0c5.87-39.1699,19.26-77.2,38.9399-111.55
		c8.03-14,17.4401-27.13,25.87-40.8899C1178.5699,2001.16,1195.58,1971.0601,1211.34,1940.33z"/>
</g>
</svg>
