<?xml version="1.0" encoding="UTF-8" standalone="no"?>
<!-- Created with Inkscape (http://www.inkscape.org/) -->

<svg
   xmlns:dc="http://purl.org/dc/elements/1.1/"
   xmlns:cc="http://creativecommons.org/ns#"
   xmlns:rdf="http://www.w3.org/1999/02/22-rdf-syntax-ns#"
   xmlns:svg="http://www.w3.org/2000/svg"
   xmlns="http://www.w3.org/2000/svg"
   xmlns:sodipodi="http://sodipodi.sourceforge.net/DTD/sodipodi-0.dtd"
   xmlns:inkscape="http://www.inkscape.org/namespaces/inkscape"
   width="833.82465"
   height="800"
   id="svg3935"
   version="1.1"
   inkscape:version="0.48.4 r9939"
   sodipodi:docname="Beauty quizzical.svg">
  <defs
     id="defs3937" />
  <sodipodi:namedview
     id="base"
     pagecolor="#ffffff"
     bordercolor="#666666"
     borderopacity="1.0"
     inkscape:pageopacity="0.0"
     inkscape:pageshadow="2"
     inkscape:zoom="0.35"
     inkscape:cx="-667.46848"
     inkscape:cy="805.19128"
     inkscape:document-units="px"
     inkscape:current-layer="layer1"
     showgrid="false"
     fit-margin-top="0"
     fit-margin-left="0"
     fit-margin-right="0"
     fit-margin-bottom="0"
     inkscape:window-width="1920"
     inkscape:window-height="1018"
     inkscape:window-x="-8"
     inkscape:window-y="-8"
     inkscape:window-maximized="1" />
  <metadata
     id="metadata3940">
    <rdf:RDF>
      <cc:Work
         rdf:about="">
        <dc:format>image/svg+xml</dc:format>
        <dc:type
           rdf:resource="http://purl.org/dc/dcmitype/StillImage" />
        <dc:title />
      </cc:Work>
    </rdf:RDF>
  </metadata>
  <g
     inkscape:label="Layer 1"
     inkscape:groupmode="layer"
     id="layer1"
     transform="translate(123.54038,-220.4535)">
    <g
       id="g3013"
       transform="matrix(0.82121833,0,0,0.82121833,-22.086755,182.43838)">
      <g
         id="g3032"
         transform="translate(-686.19535,-76.355362)">
        <path
           sodipodi:type="arc"
           style="color:#000000;fill:#d3e7f2;fill-opacity:1;stroke:none;stroke-width:0.30000001;marker:none;visibility:visible;display:inline;overflow:visible;enable-background:accumulate"
           id="path3007"
           sodipodi:cx="1092.9851"
           sodipodi:cy="550.82147"
           sodipodi:rx="68.690376"
           sodipodi:ry="68.690376"
           d="m 1161.6755,550.82147 c 0,37.93665 -30.7537,68.69038 -68.6904,68.69038 -37.9366,0 -68.6904,-30.75373 -68.6904,-68.69038 0,-37.93665 30.7538,-68.69037 68.6904,-68.69037 37.9367,0 68.6904,30.75372 68.6904,68.69037 z" />
        <path
           d="m 1161.6755,550.82147 c 0,37.93665 -30.7537,68.69038 -68.6904,68.69038 -37.9366,0 -68.6904,-30.75373 -68.6904,-68.69038 0,-37.93665 30.7538,-68.69037 68.6904,-68.69037 37.9367,0 68.6904,30.75372 68.6904,68.69037 z"
           sodipodi:ry="68.690376"
           sodipodi:rx="68.690376"
           sodipodi:cy="550.82147"
           sodipodi:cx="1092.9851"
           id="path3009"
           style="color:#000000;fill:#232c33;fill-opacity:1;stroke:none;stroke-width:1.14929569;marker:none;visibility:visible;display:inline;overflow:visible;enable-background:accumulate"
           sodipodi:type="arc"
           transform="matrix(0.26102945,0,0,0.26102945,807.68381,407.04085)" />
        <path
           transform="matrix(0.23529416,0,0,0.23529416,835.8121,421.2164)"
           sodipodi:type="arc"
           style="color:#000000;fill:#2c2012;fill-opacity:1;stroke:none;stroke-width:1.27499986;marker:none;visibility:visible;display:inline;overflow:visible;enable-background:accumulate"
           id="path3011"
           sodipodi:cx="1092.9851"
           sodipodi:cy="550.82147"
           sodipodi:rx="68.690376"
           sodipodi:ry="68.690376"
           d="m 1161.6755,550.82147 c 0,37.93665 -30.7537,68.69038 -68.6904,68.69038 -37.9366,0 -68.6904,-30.75373 -68.6904,-68.69038 0,-37.93665 30.7538,-68.69037 68.6904,-68.69037 37.9367,0 68.6904,30.75372 68.6904,68.69037 z" />
        <path
           d="m 1161.6755,550.82147 c 0,37.93665 -30.7537,68.69038 -68.6904,68.69038 -37.9366,0 -68.6904,-30.75373 -68.6904,-68.69038 0,-37.93665 30.7538,-68.69037 68.6904,-68.69037 37.9367,0 68.6904,30.75372 68.6904,68.69037 z"
           sodipodi:ry="68.690376"
           sodipodi:rx="68.690376"
           sodipodi:cy="550.82147"
           sodipodi:cx="1092.9851"
           id="path3013"
           style="color:#000000;fill:#0a0800;fill-opacity:1;stroke:none;stroke-width:2.81379199;marker:none;visibility:visible;display:inline;overflow:visible;enable-background:accumulate"
           sodipodi:type="arc"
           transform="matrix(0.1066177,0,0,0.1066177,976.45356,492.09416)" />
        <path
           style="color:#000000;fill:#6e798b;fill-opacity:1;stroke:none;stroke-width:0.30000004;marker:none;visibility:visible;display:inline;overflow:visible;enable-background:accumulate"
           d="m 1083.375,541.84375 c -2.6217,-0.0327 -5.3093,1.91849 -5.4062,4.1875 -0.098,2.29921 3.7519,4.67278 5.4062,4.15625 1.0875,-0.33956 0.7703,-8.33414 0,-8.34375 z m 1.9497,1.90686 c 0.012,1.5874 0.051,2.83337 0.01,4.35654 -0.046,1.62974 -0.041,1.94085 1.3209,1.23075 1.3409,-0.69933 2.159,-1.94982 2.159,-3.30665 0,-1.53897 -0.9988,-3.13881 -2.7055,-3.61476 -0.8574,-0.23911 -0.788,0.59453 -0.7824,1.33412 z"
           id="path3015"
           inkscape:connector-curvature="0"
           sodipodi:nodetypes="ssssssssss" />
      </g>
      <g
         id="g3039"
         transform="translate(-686.19535,-76.355362)">
        <path
           d="m 1161.6755,550.82147 c 0,37.93665 -30.7537,68.69038 -68.6904,68.69038 -37.9366,0 -68.6904,-30.75373 -68.6904,-68.69038 0,-37.93665 30.7538,-68.69037 68.6904,-68.69037 37.9367,0 68.6904,30.75372 68.6904,68.69037 z"
           sodipodi:ry="68.690376"
           sodipodi:rx="68.690376"
           sodipodi:cy="550.82147"
           sodipodi:cx="1092.9851"
           id="path3020"
           style="color:#000000;fill:#afcad8;fill-opacity:1;stroke:none;stroke-width:0.30000001;marker:none;visibility:visible;display:inline;overflow:visible;enable-background:accumulate"
           sodipodi:type="arc"
           transform="translate(-176.42857,-11.785714)" />
        <path
           transform="matrix(0.26102945,0,0,0.26102945,631.25524,395.25514)"
           sodipodi:type="arc"
           style="color:#000000;fill:#0d0c0a;fill-opacity:1;stroke:none;stroke-width:1.14929569;marker:none;visibility:visible;display:inline;overflow:visible;enable-background:accumulate"
           id="path3022"
           sodipodi:cx="1092.9851"
           sodipodi:cy="550.82147"
           sodipodi:rx="68.690376"
           sodipodi:ry="68.690376"
           d="m 1161.6755,550.82147 c 0,37.93665 -30.7537,68.69038 -68.6904,68.69038 -37.9366,0 -68.6904,-30.75373 -68.6904,-68.69038 0,-37.93665 30.7538,-68.69037 68.6904,-68.69037 37.9367,0 68.6904,30.75372 68.6904,68.69037 z" />
        <path
           d="m 1161.6755,550.82147 c 0,37.93665 -30.7537,68.69038 -68.6904,68.69038 -37.9366,0 -68.6904,-30.75373 -68.6904,-68.69038 0,-37.93665 30.7538,-68.69037 68.6904,-68.69037 37.9367,0 68.6904,30.75372 68.6904,68.69037 z"
           sodipodi:ry="68.690376"
           sodipodi:rx="68.690376"
           sodipodi:cy="550.82147"
           sodipodi:cx="1092.9851"
           id="path3024"
           style="color:#000000;fill:#2c2012;fill-opacity:1;stroke:none;stroke-width:1.27499986;marker:none;visibility:visible;display:inline;overflow:visible;enable-background:accumulate"
           sodipodi:type="arc"
           transform="matrix(0.23529416,0,0,0.23529416,659.38353,409.43069)" />
        <path
           transform="matrix(0.1066177,0,0,0.1066177,800.02499,480.30845)"
           sodipodi:type="arc"
           style="color:#000000;fill:#010100;fill-opacity:1;stroke:none;stroke-width:2.81379199;marker:none;visibility:visible;display:inline;overflow:visible;enable-background:accumulate"
           id="path3026"
           sodipodi:cx="1092.9851"
           sodipodi:cy="550.82147"
           sodipodi:rx="68.690376"
           sodipodi:ry="68.690376"
           d="m 1161.6755,550.82147 c 0,37.93665 -30.7537,68.69038 -68.6904,68.69038 -37.9366,0 -68.6904,-30.75373 -68.6904,-68.69038 0,-37.93665 30.7538,-68.69037 68.6904,-68.69037 37.9367,0 68.6904,30.75372 68.6904,68.69037 z" />
        <path
           d="m 1161.6755,550.82147 c 0,37.93665 -30.7537,68.69038 -68.6904,68.69038 -37.9366,0 -68.6904,-30.75373 -68.6904,-68.69038 0,-37.93665 30.7538,-68.69037 68.6904,-68.69037 37.9367,0 68.6904,30.75372 68.6904,68.69037 z"
           sodipodi:ry="68.690376"
           sodipodi:rx="68.690376"
           sodipodi:cy="550.82147"
           sodipodi:cx="1092.9851"
           id="path3030"
           style="color:#000000;fill:#686865;fill-opacity:1;stroke:none;stroke-width:7.43928814;marker:none;visibility:visible;display:inline;overflow:visible;enable-background:accumulate"
           sodipodi:type="arc"
           transform="matrix(0.04032644,0,0,0.04032644,863.90892,512.18024)" />
      </g>
      <path
         sodipodi:nodetypes="cssccsscc"
         inkscape:connector-curvature="0"
         id="path3046"
         d="m -123.54038,1020.4535 c 9.38796,-196.9009 62.884899,-243.16729 145.461958,-259.60917 58.27986,-11.60407 120.288982,-16.32666 180.817312,-16.16244 49.84216,0.13523 53.90722,-28.72841 41.41625,-62.62946 78.68041,35.60651 173.33031,12.15308 259.60921,-40.4061 -9.4551,75.16036 16.1651,91.4464 77.7817,88.89342 88.2015,-3.65448 166.48166,-8.35031 237.31416,20.4779 41.526,16.90077 75.47302,167.95173 72.80269,269.43585 z"
         style="fill:#ffd7d3;fill-opacity:1;stroke:none" />
      <path
         sodipodi:nodetypes="cssssssscssccscccc"
         inkscape:connector-curvature="0"
         id="path3816"
         d="m 116.87592,371.9356 c 2.69374,39.73267 6.59352,79.40192 8.08122,119.198 1.20756,32.30232 0.95735,64.66395 0,96.97465 -0.39097,13.19508 -3.63253,26.20138 -4.04061,39.39594 -0.60381,19.52318 3.32333,39.19379 1.01016,58.58885 -2.10893,17.68255 -6.77319,35.30609 -14.14214,51.51778 -3.05585,6.72287 -9.173832,17.53859 -16.162442,15.15229 -24.78773,-8.46391 -54.78001,2.0204 -56.56854,2.02031 -7.42672,-3.9e-4 -27.2938802,-5.13746 -43.4365602,9.09137 17.91335,-6.53905 32.1071302,-13.98267 45.4568602,-3.03046 26.15102,21.45449 26.49249,41.50605 68.690382,31.31473 15.22594,-3.67725 28.28427,-13.4687 42.4264,-20.20305 1.50559,59.51661 0.35512,105.79791 -48.487322,135.36044 79.773352,8.04886 147.518612,-6.40298 159.604102,-78.7919 C 275.61572,730.84218 248.67136,622.16734 248.13461,529.57799 86.189298,513.61928 169.07137,381.9599 247.31473,388.15003 c -0.043,-7.42511 -0.0861,-14.85023 -0.12913,-22.27534 -43.43656,2.0203 -86.87312,4.04061 -130.30968,6.06091 z"
         style="fill:#000000;stroke:none" />
      <path
         inkscape:connector-curvature="0"
         id="path3818"
         d="m 389.30465,114.64464 c -67.1042,0.0846 -133.68839,14.63943 -189.09375,46.15625 -67.41728,38.34969 -32.25768,151.75718 -47.46875,227.8125 -1.62996,8.14979 -5.83943,16.92759 -3.03125,24.75 7.6329,21.26207 -9.38593,46.28987 -7.59375,71.71875 3.46958,49.22929 5.67627,90.89842 31.84375,146.96875 11.52856,24.70281 30.75328,42.53388 44.9375,62.625 6.51037,9.36423 11.34699,19.83243 17.6875,29.3125 10.98552,16.42508 20.31642,35.06682 38.875,40.90625 12.67392,3.98783 26.12458,6.42068 39.40625,6.0625 35.2794,-0.9514 45.6393,-12.47839 68.6875,-25.25 17.1407,-9.30196 35.596,-16.2833 52.0312,-26.78125 62.82,-40.12565 79.8251,-82.82254 96.9688,-151.03125 6.6186,-26.33323 10.9987,-53.2563 13.625,-80.28125 2.6063,-26.81948 -3.3773,-54.41508 2.0312,-80.8125 6.0319,-29.43845 29.1558,-54.44264 31.8126,-84.375 5.0677,-57.09768 43.6514,-149.27397 -9.0938,-171.71875 -55.0979,-23.44593 -118.5877,-36.14195 -181.625,-36.0625 z m -175.0625,334.125 c 19.96536,0.0432 37.57746,12.12452 44.21875,24.75 -11.50448,8.18283 -58.96722,9.79345 -68.21875,-18.59375 8.02365,-4.34727 16.18747,-6.17316 24,-6.15625 z m 182.4063,13.84375 c 14.8469,-0.0329 29.7694,6.00162 38.9374,15.65625 -15.6334,19.90889 -50.1583,15.39955 -73.75,9.59375 0.1557,-3.06028 -0.556,-5.05368 -1.5,-6.84375 4.0109,-6.65666 10.0567,-11.44503 16.6563,-14.375 6.17,-2.73927 12.9076,-4.01631 19.6563,-4.03125 z"
         style="fill:#ffd7d3;fill-opacity:1;stroke:none" />
      <path
         sodipodi:nodetypes="cssscssssc"
         inkscape:connector-curvature="0"
         id="path3820"
         d="m 483.44755,449.22111 c -10.4762,-6.19048 -20.4226,-13.38108 -31.4286,-18.57143 -10.0461,-4.73766 -20.3476,-10.30877 -31.4286,-11.07143 -18.957,-1.30473 -37.3745,2.68131 -56.0714,6.07143 -16.7787,3.04231 -25.785,3.85009 -27.1429,22.85714 4.4048,-2.02381 8.7239,-5.37697 13.2143,-6.07143 17.4546,-2.69945 33.0113,-4.67934 48.5714,-7.5 10.5047,-1.90424 21.1118,-4.12871 31.7858,-3.92857 8.6136,0.16151 17.2179,2.1762 25.3571,5 9.507,3.29834 18.0953,8.80953 27.1429,13.21429 z"
         style="fill:#412e20;fill-opacity:1;stroke:none" />
      <path
         sodipodi:nodetypes="cssscssssc"
         inkscape:connector-curvature="0"
         id="path3822"
         d="m 168.80465,437.79254 c 3.92857,-1.66667 7.54225,-4.54783 11.78572,-5 10.53626,-1.12272 21.31572,-1.27153 31.78571,0.35714 11.16584,1.73691 21.85634,5.84745 32.5,9.64286 4.76395,1.69877 9.04762,4.52381 13.57143,6.78571 -1.90476,-3.92857 -2.49772,-8.83351 -5.71429,-11.78571 -5.8211,-5.34265 -12.86665,-9.62857 -20.35714,-12.14286 -9.83367,-3.30081 -20.34166,-4.92896 -30.71429,-5 -7.30842,-0.0501 -14.94888,1.26215 -21.42857,4.64286 -5.00536,2.6115 -7.61905,8.33333 -11.42857,12.5 z"
         style="fill:#1b0e06;fill-opacity:1;stroke:none" />
      <path
         inkscape:connector-curvature="0"
         id="path3828"
         d="m 387.71085,450.86339 c -1.515,1.00054 -3.016,1.31021 -4.5312,3.53125 -2.0523,-2.33073 -1.716,-2.50096 -1.9062,-3.15625 -0.9683,1.14184 -1.9382,2.50938 -2.9063,4.15625 l -0.875,-3.03125 c -0.7627,1.23578 -1.2787,3.23209 -2.3437,5.375 -1.1119,-1.68561 -0.9536,-2.60983 -1.3126,-3.84375 -0.5354,3.12906 -1.4405,5.82234 0.875,12.5 l -1.75,1 c -2.16,-2.84231 -4.3349,-5.67868 -6.5624,-8.46875 1.5301,3.29009 3.0873,6.55447 4.4062,9.9375 -1.3308,0.83124 -2.6386,1.72448 -3.875,2.71875 -2.2402,-2.24699 -4.316,-4.56511 -6.0938,-7.21875 1.576,2.99406 3.1869,5.83484 3.7813,9.21875 -1.0789,1.02083 -2.103,2.11975 -3.0625,3.28125 -1.0652,1.28948 -1.36,1.97608 -3.0312,3.28125 -1.576,1.23048 -3.9501,1.99862 -5.3438,3.34375 -1.8177,1.7542 -1.9947,4.56289 1.5,4.75 2.6124,0.13987 6.2865,0.34225 8.0938,0.75 0.295,0.0666 0.6083,0.12143 0.9062,0.1875 1.761,0.64874 7.2138,2.66908 7.875,2.96875 15.004,6.80057 50.3038,9.7925 60.125,-2.65625 0.8192,-1.03833 0.5988,-2.17618 0.25,-3.15625 0.9446,1.65299 1.5382,3.24485 1.75,5.1875 1.367,-2.62019 1.7935,-4.16927 1,-7.21875 1.9338,1.51935 2.3124,2.69977 2.5312,5.3125 0.7693,-2.95847 2.6301,-5.76604 0.25,-8.1875 9.1999,6.05874 13.0272,0.45538 12.5,-12 -0.8028,3.1897 -1.1631,7.79332 -4.2812,9.46875 -5.6533,-16.8763 -28.5655,-22.61299 -41.7812,-26.03125 -3.6544,-0.94515 -6.6771,-1.25464 -10.25,0.375 l -0.5,-2.125 c -1.7086,0.11293 -2.7999,1.21697 -4.0313,2.125 -1.0468,-1.15 -1.1651,-1.70842 -1.4063,-2.375 z m 8.9376,11.875 c 14.7233,-0.0326 29.5332,5.92618 38.625,15.5 -15.5036,19.74227 -49.7297,15.28846 -73.125,9.53125 -8.3357,0.22085 -10.9098,-1.35424 -1.5,-6.75 3.9774,-6.60094 9.9865,-11.3758 16.5312,-14.28125 6.1187,-2.71635 12.7763,-3.98518 19.4688,-4 z"
         style="fill:#000000;stroke:none" />
      <path
         sodipodi:nodetypes="ccc"
         inkscape:connector-curvature="0"
         id="path3834"
         d="m 377.24275,457.92484 c -8.9122,1.47884 -16.8883,7.82551 -24.1174,18.05647 5.0408,-12.21485 13.7044,-18.31636 24.1174,-21.46574"
         style="fill:#000000;stroke:none" />
      <path
         sodipodi:nodetypes="ccccsc"
         inkscape:connector-curvature="0"
         id="path3836"
         d="m 310.59037,590.29254 c 5.76988,-15.91019 2.90964,-17.43116 -1.78572,-33.57143 3.59578,3.04655 6.9348,6.60663 11.4286,7.85714 20.3529,-4.4546 46.7459,25.92092 18.9285,45.35714 17.8036,-25.26699 -1.8863,-37.34489 -9.2857,-37.85714 -11.0862,-0.76748 -9.9578,10.34086 -19.28568,18.21429 z"
         style="fill:#e4b1ab;fill-opacity:1;stroke:none" />
      <path
         sodipodi:nodetypes="ccc"
         inkscape:connector-curvature="0"
         id="path3838"
         d="m 292.01894,614.93539 c 11.58322,-5.38836 19.7333,-7.90329 35.00001,-0.35714 -11.6985,-1.17962 -23.31341,-0.33031 -35.00001,0.35714 z"
         style="fill:#e4b1ab;fill-opacity:1;stroke:none" />
      <path
         sodipodi:nodetypes="ccc"
         inkscape:connector-curvature="0"
         id="path3840"
         d="m 243.14499,598.96738 c 7.67593,3.21563 6.65408,3.13629 13.71103,10.33613 -6.91035,-10.55571 -3.61399,-6.92775 -13.71103,-10.33613 z"
         style="fill:#e4b1ab;fill-opacity:1;stroke:none" />
      <path
         sodipodi:nodetypes="csccsc"
         inkscape:connector-curvature="0"
         id="path3842"
         d="m 245.59037,562.4354 c -22.97052,12.46623 -22.35395,11.70635 -35.71429,39.64285 -6.5141,13.621 -6.17642,14.80543 -19.28571,9.28571 11.26338,10.33684 27.4496,15.86553 43.92857,23.21429 -6.62129,-6.12062 -15.19578,-12.96999 -14.28572,-21.78571 2.64822,-25.65323 11.65137,-30.23838 25.35715,-50.35714 z"
         style="fill:#e4b1ab;fill-opacity:1;stroke:none" />
      <path
         sodipodi:nodetypes="cccccccccccc"
         inkscape:connector-curvature="0"
         id="path3844"
         d="m 240.78459,637.0468 53.62564,13.6909 35.10282,6.81853 21.4657,1.51523 10.8592,1.01015 13.3845,-2.52538 0.5051,3.03046 -38.3858,12.62691 -54.29573,2.0203 -22.72843,-11.61675 -18.80077,-18.77756 z"
         style="fill:#340902;fill-opacity:1;stroke:none" />
      <path
         sodipodi:nodetypes="ccsscsssscsscscsccscscscccscc"
         inkscape:connector-curvature="0"
         id="path3846"
         d="m 262.33789,646.06575 -0.88388,11.61675 7.44987,7.07107 c 1.10282,1.04674 3.15931,-1.53066 3.40927,-3.03046 l 0.75761,-4.54569 -0.3788,5.30331 c -0.10182,1.42556 -0.36611,3.78153 1.01015,4.16688 l 18.94036,5.3033 c 1.57862,0.44201 3.23617,-2.02314 3.28299,-3.66181 0.0421,-1.47314 0.12627,-4.41941 0.12627,-4.41941 0,0 0.4209,2.94627 0.63135,4.41941 0.1826,1.27816 -0.0269,3.5989 1.26269,3.66181 l 20.70808,1.01015 c 3.8791,-0.8253 5.3033,-3.18646 5.3033,-6.43972 0,-2.35702 0,-7.07107 0,-7.07107 l 0.7577,7.19734 c 0.5991,5.6905 3.1428,5.26968 7.4498,6.18718 l 10.8592,-4.29315 c 2.2659,-0.7409 1.4266,-3.30594 1.2627,-5.68211 l -0.2526,-3.6618 1.2627,3.91434 c 0.5682,1.76128 0.7172,3.89133 3.1567,3.40927 l 11.9956,-2.39912 c 3.1074,-0.62149 1.6983,-2.69983 2.0203,-4.16688 l -18.309,-0.75761 -22.3496,-2.02031 c 0,0 -26.6428,-4.54568 -27.40042,-4.92449 -0.75761,-0.37881 -30.43084,-7.3236 -30.43084,-7.3236 z"
         style="fill:#e4e7d4;fill-opacity:1;stroke:none" />
      <path
         inkscape:connector-curvature="0"
         id="path3848"
         d="m 234.80465,634.83214 c 1.51523,1.93613 3.73102,3.49881 4.5625,5.8125 1.17589,3.27204 0.89663,6.88483 1.25,10.34375 3.31964,32.49351 17.74947,51.85315 54.5625,53.03125 23.5742,0.75443 41.8935,-10.67589 59.9688,-26.625 5.9471,-5.24759 14.0211,-10.13709 21.5937,-14.40625 1.2664,-0.71395 2.8743,-0.77596 4.0313,-1.65625 0.8735,-0.6646 1.6195,-1.69565 1.7812,-2.78125 0.161,-1.08079 0.055,-2.63581 -0.9062,-3.15625 -1.5178,-0.82215 -3.4451,-0.35215 -5.1563,-0.125 -3.0774,0.4085 -6.0233,1.57271 -9.0937,2.03125 -6.501,0.97087 -13.2327,0.82205 -20.2188,-0.25 -6.3987,-0.98191 -12.8484,-2.08331 -18.9375,-4.28125 -13.5057,-4.8751 -20.83163,-9.70259 -37.625,-6.5625 -4.2362,0.7921 -8.61913,-1.19197 -12.625,-2.78125 -6.20621,-2.46224 -11.57476,-6.5242 -19.6875,-7.59375 -6.31231,-0.83219 -15.63033,-0.19603 -23.5,-1 z m 6.6875,4.3125 c 2.85714,1.81548 5.45997,4.08343 8.5625,5.4375 3.98695,1.74007 8.23906,2.87364 12.5,3.75 4.16574,0.85678 8.5129,0.62499 12.6875,1.4375 4.71962,0.91858 9.22939,2.63393 13.90625,3.75 5.80282,1.38476 11.58452,2.97712 17.5,3.75 5.96856,0.77981 12.05455,0.50485 18.06245,0.875 6.5526,0.40371 13.0735,1.01999 19.625,1.4375 5.5918,0.35634 11.1787,0.95336 16.7813,0.875 2.946,-0.0412 5.8333,-0.83333 8.75,-1.25 -3.869,1.07143 -7.6873,2.29279 -11.5937,3.21875 -4.1347,0.98006 -8.3521,1.57822 -12.5,2.5 -6.5679,1.45952 -13.0655,3.30429 -19.6563,4.65625 -5.0231,1.03038 -10.0302,2.37185 -15.15625,2.5 -6.86403,0.1716 -13.80708,-0.39674 -20.5625,-1.625 -5.76101,-1.04746 -11.43516,-2.76757 -16.78125,-5.15625 -3.15252,-1.40857 -5.88345,-3.70321 -8.375,-6.09375 -1.96734,-1.88758 -1.75355,-3.60699 -3.3125,-5.84375 -1.18,-1.69304 -2.07426,-3.73306 -3.75,-4.9375 -2.32507,-1.67115 -6.66223,-2.68154 -9.1875,-4.03125 -2.69435,-1.44008 -5,-3.49405 -7.5,-5.25 z"
         style="fill:#db9fa1;fill-opacity:1;stroke:none" />
      <path
         inkscape:connector-curvature="0"
         id="path3854"
         d="m 379.14845,654.95714 c -0.8907,0.0428 -1.8007,0.19892 -2.6563,0.3125 -2.3409,0.31073 -4.6055,1.08597 -6.9063,1.625 -3.5488,4.77109 -10.8017,4.49221 -22.2187,7.875 11.1724,-0.5477 19.3888,-2.93702 18.7187,4.5625 3.4856,-2.23379 7.1215,-4.35094 10.6563,-6.34375 1.2664,-0.71395 2.8743,-0.77596 4.0313,-1.65625 0.8735,-0.6646 1.6195,-1.69565 1.7812,-2.78125 0.161,-1.08079 0.055,-2.63581 -0.9062,-3.15625 -0.7589,-0.41108 -1.6094,-0.48031 -2.5,-0.4375 z"
         style="fill:#b27173;fill-opacity:1;stroke:none" />
      <path
         sodipodi:nodetypes="sssss"
         inkscape:connector-curvature="0"
         id="path3860"
         d="m 263.60058,670.94075 c 23.85134,7.3399 44.43594,7.26411 67.17517,3.78808 5.6274,-0.86023 5.4614,2.14101 4.0406,3.03045 -20.5313,12.85272 -56.50548,11.27907 -72.22592,-1.76776 -2.56725,-2.13063 -2.33615,-6.08055 1.01015,-5.05077 z"
         style="fill:#f7bac9;fill-opacity:1;stroke:none" />
      <path
         inkscape:connector-curvature="0"
         id="path3883"
         d="m 197.4375,435.5625 c -3.07265,3.68718 -5.13323,6.64518 -5.8125,11.625 l -2.03125,-5.8125 c -1.2401,3.96829 -1.36459,8.73593 -0.0625,12.90625 1e-5,0 -0.71803,1.25078 -1.1875,3.53125 -1.95952,9.51845 11.68197,20.20359 20.96875,22.21875 4.19464,0.9102 5.07732,3.29411 5.28125,8.0625 0,0 2.0211,-4.79727 3.03125,-6.3125 3.34165,-0.99579 10.70008,1.00278 10.875,7.84375 3.35089,-5.08329 6.77534,-6.67853 12.5,-7.3125 6.69515,-0.71704 14.31164,-0.38299 21.34375,0.5 -0.44059,-4.8464 -0.66002,-9.58456 -3.53125,-13.65625 -7.57542,-10.7427 -21.72902,-19.53416 -37.375,-21.21875 -5.63204,-1.83204 -4.8233,-11.08894 -5.59375,-10.09375 -2.74585,3.54682 -4.36271,4.18539 -5.25,6.375 -0.59115,1.45882 -2.93975,-3.83052 -2.5625,-6.625 -1.84041,-0.0992 -3.36411,1.62204 -4.53125,5.5625 -0.72392,-1.85194 -0.6683,-3.71056 -0.75,-5.5625 -1.68359,0.29108 -3.37891,0.80785 -5.0625,5.0625 -1.45297,-1.4445 -0.74666,-4.3495 -0.25,-7.09375 z m 15.75,14.15625 c 20.06652,-0.56017 37.43753,10.43646 44.375,23.625 -9.37373,6.66728 -41.65109,7.7976 -56.84375,-4.9375 -10.21345,-8.56132 0.78653,-17.32911 6.15625,-18.125 2.12491,-0.31495 4.23665,-0.50455 6.3125,-0.5625 z"
         style="fill:#000000;fill-opacity:1;stroke:none" />
      <path
         sodipodi:nodetypes="ssssssscsscssscs"
         inkscape:connector-curvature="0"
         id="path4017"
         d="m 541.28125,458.90625 c -3.24118,0.0238 -6.3925,1.19701 -9.4375,3.03125 -38.81355,23.38038 -27.88039,66.4064 -32.3125,104.03125 -4.92203,41.78391 -20.90091,103.21116 -54.0625,128.28125 -21.17786,16.01041 -44.37662,26.40204 -65.65625,38.90625 -6.89594,4.05215 -13.97431,7.82542 -20.71875,12.125 -6.73398,4.29291 -12.18423,10.89068 -19.6875,13.625 -26.82414,9.77519 -46.50929,6.65087 -71.78125,2.5 2.42828,1.42234 5.02887,2.6143 7.84375,3.5 12.67392,3.98783 26.12458,6.42068 39.40625,6.0625 35.2794,-0.9514 45.6393,-12.47839 68.6875,-25.25 17.1407,-9.30196 35.59605,-16.2833 52.03125,-26.78125 62.82,-40.12565 79.82505,-82.82254 96.96875,-151.03125 6.6186,-26.33323 10.9987,-53.2563 13.625,-80.28125 0.89242,-9.18325 0.75712,-18.46402 0.4375,-27.75 -1.78387,-0.69443 -3.57906,-0.98172 -5.34375,-0.96875 z"
         style="fill:#e4b1ab;fill-opacity:1;stroke:#ffd7d3;stroke-width:0.36531091;stroke-linecap:square;stroke-linejoin:round;stroke-miterlimit:4;stroke-opacity:1;stroke-dasharray:none;stroke-dashoffset:0" />
      <path
         sodipodi:nodetypes="cssssccccccccccccssscsssscccccsccssssc"
         inkscape:connector-curvature="0"
         id="path3890"
         d="m 477.98885,67.36361 c -22.9529,-9.36227 -54.9699,-23.32176 -85.7143,-20.76505 -98.38584,8.18176 -153.44727,34.57289 -217.04133,103.69398 -51.71739,56.21221 -76.339532,127.12178 -97.142862,200 -3.7669,13.19619 1.12778,17.90142 6.96576,22.65321 5.79986,4.72077 12.79527,7.74451 19.192902,11.61676 -4.930222,14.73911 -3.31742,18.13478 1.51523,31.31473 4.70088,-5.14883 10.30536,-7.68979 16.16244,-10.10153 3.0861,22.27565 9.06809,43.91915 14.64721,65.65992 0.18624,-26.43431 14.99192,-41.63751 30.30457,-59.09393 -6.66399,35.57519 -12.07922,65.08681 -25.75888,96.46957 5.7242,6.06092 11.44839,12.12183 17.17259,18.18275 6.73435,2.8621 13.4687,5.72419 20.20305,8.58629 3.77418,-18.20821 7.08068,-22.17918 10.6066,-32.82996 -1.1996,19.38613 2.8801,30.90959 10.6066,50.00256 -1.49605,-8.69713 -2.97106,-17.33112 -3.53553,-23.23351 4.88646,9.60456 10.45729,20.57787 18.18274,35.86041 -10.94981,-31.90331 -11.80565,-62.55956 -12.6269,-93.43911 -0.38941,-14.64203 -0.6324,-29.30808 0,-43.94163 4.07863,-94.37854 86.58922,-142.10031 148.99751,-148.9975 48.0636,-5.31185 66.6763,-27.7306 90.4086,-63.13454 9.4281,29.12607 20.2137,57.84716 28.2843,87.3782 14.1663,51.83586 21.9601,105.40881 38.3858,156.57364 25.7488,80.20593 18.1553,137.83732 -13.132,206.07112 -18.61,40.58631 -22.619,79.77486 -28.2842,120.20815 -4.7634,33.99741 -8.9239,57.91363 5.0507,85.86297 -6.0917,-24.64739 10.8963,-43.21284 22.2234,-61.6193 -19.5488,65.19588 3.1143,143.55033 49.4974,180.81733 -0.9805,-63.1175 32.9763,-91.60939 75.7615,-135.36047 78.3218,9.33175 104.3541,96.77317 115.1574,162.63453 27.3084,-47.81106 34.1303,-88.91306 18.1827,-135.36041 -15.1925,-44.24806 -35.2773,-77.63615 -46.467,-119.198 96.1929,33.1539 132.8749,134.61308 129.2995,212.13205 94.14656,-131.44184 14.87147,-260.45247 -97.9847,-327.28944 -24.17727,-14.31854 -21.5382,-32.67331 -23.2336,-50.50763 -14.2797,-150.20886 -25.853,-223.39764 -51.5178,-328.29958 -10.7892,-44.10006 -16.8856,-91.46173 -43.4365,-128.28937 -42.4903,-58.93652 -69.6604,-70.85349 -140.9329,-74.25721 z"
         style="fill:#000000;stroke:none" />
    </g>
  </g>
</svg>
